<?xml version="1.0" encoding="UTF-8" standalone="no"?>
<!-- Created with Inkscape (http://www.inkscape.org/) -->

<svg
   xmlns:dc="http://purl.org/dc/elements/1.1/"
   xmlns:cc="http://creativecommons.org/ns#"
   xmlns:rdf="http://www.w3.org/1999/02/22-rdf-syntax-ns#"
   xmlns:svg="http://www.w3.org/2000/svg"
   xmlns="http://www.w3.org/2000/svg"
   xmlns:xlink="http://www.w3.org/1999/xlink"
   xmlns:sodipodi="http://sodipodi.sourceforge.net/DTD/sodipodi-0.dtd"
   xmlns:inkscape="http://www.inkscape.org/namespaces/inkscape"
   version="1.0"
   width="48"
   height="48"
   id="svg2527"
   inkscape:version="0.48.4 r9939"
   sodipodi:docname="bonobo-component-browser.svg">
  <metadata
     id="metadata27">
    <rdf:RDF>
      <cc:Work
         rdf:about="">
        <dc:format>image/svg+xml</dc:format>
        <dc:type
           rdf:resource="http://purl.org/dc/dcmitype/StillImage" />
        <dc:title />
      </cc:Work>
    </rdf:RDF>
  </metadata>
  <sodipodi:namedview
     pagecolor="#ffffff"
     bordercolor="#666666"
     borderopacity="1"
     objecttolerance="10"
     gridtolerance="10"
     guidetolerance="10"
     inkscape:pageopacity="0"
     inkscape:pageshadow="2"
     inkscape:window-width="1366"
     inkscape:window-height="712"
     id="namedview25"
     showgrid="false"
     inkscape:zoom="9.8333333"
     inkscape:cx="33.864407"
     inkscape:cy="24"
     inkscape:window-x="0"
     inkscape:window-y="27"
     inkscape:window-maximized="1"
     inkscape:current-layer="svg2527" />
  <defs
     id="defs2529">
    <linearGradient
       id="linearGradient8838">
      <stop
         id="stop8840"
         style="stop-color:black;stop-opacity:1"
         offset="0" />
      <stop
         id="stop8842"
         style="stop-color:black;stop-opacity:0"
         offset="1" />
    </linearGradient>
    <radialGradient
       cx="62.625"
       cy="4.625"
       r="10.625"
       fx="62.625"
       fy="4.625"
       id="radialGradient2436"
       xlink:href="#linearGradient8838"
       gradientUnits="userSpaceOnUse"
       gradientTransform="matrix(2.1647059,0,0,0.7529402,-111.56471,36.517647)" />
    <linearGradient
       id="linearGradient3397">
      <stop
         id="stop3399"
         style="stop-color:#aaa;stop-opacity:1"
         offset="0" />
      <stop
         id="stop3401"
         style="stop-color:#8c8c8c;stop-opacity:1"
         offset="1" />
    </linearGradient>
    <linearGradient
       x1="37.201294"
       y1="1"
       x2="37.201294"
       y2="45"
       id="linearGradient2517"
       xlink:href="#linearGradient3397"
       gradientUnits="userSpaceOnUse" />
    <linearGradient
       x1="63.9995"
       y1="3.1001"
       x2="63.9995"
       y2="122.8994"
       id="linearGradient3309"
       gradientUnits="userSpaceOnUse">
      <stop
         id="stop3311"
         style="stop-color:#f6f6f6;stop-opacity:1"
         offset="0" />
      <stop
         id="stop3313"
         style="stop-color:#d2d2d2;stop-opacity:1"
         offset="1" />
    </linearGradient>
    <linearGradient
       x1="20.758585"
       y1="1"
       x2="20.758585"
       y2="45.017357"
       id="linearGradient2515"
       xlink:href="#linearGradient3309"
       gradientUnits="userSpaceOnUse" />
    <linearGradient
       id="linearGradient5128">
      <stop
         id="stop5130"
         style="stop-color:#e5e5e5;stop-opacity:1"
         offset="0" />
      <stop
         id="stop5132"
         style="stop-color:#ababab;stop-opacity:1"
         offset="1" />
    </linearGradient>
    <linearGradient
       x1="86.132919"
       y1="105.105"
       x2="84.63858"
       y2="20.895"
       id="linearGradient2512"
       xlink:href="#linearGradient5128"
       gradientUnits="userSpaceOnUse"
       gradientTransform="matrix(0.3244803,0,0,0.3244803,3.2332655,2.5577454)" />
    <linearGradient
       inkscape:collect="always"
       xlink:href="#linearGradient5128"
       id="linearGradient3006"
       gradientUnits="userSpaceOnUse"
       gradientTransform="matrix(0.3244803,0,0,0.3244803,-61.64809,4.5916437)"
       x1="86.132919"
       y1="105.105"
       x2="84.63858"
       y2="20.895" />
  </defs>
  <path
     style="font-size:medium;font-style:normal;font-variant:normal;font-weight:normal;font-stretch:normal;text-indent:0;text-align:start;text-decoration:none;line-height:normal;letter-spacing:normal;word-spacing:normal;text-transform:none;direction:ltr;block-progression:tb;writing-mode:lr-tb;text-anchor:start;baseline-shift:baseline;color:#000000;fill:#555555;fill-opacity:1;fill-rule:nonzero;stroke:none;stroke-width:3;marker:none;visibility:visible;display:block;overflow:visible;enable-background:accumulate;font-family:Sans;-inkscape-font-specification:Sans"
     d="M 21.4375,4 C 19.879884,4 18.625,5.3071373 18.625,6.84375 l 0,1.625 c -0.621173,0.216791 -1.227888,0.4645374 -1.8125,0.75 L 15.65625,8.0625 C 15.158161,7.5644132 14.42768,7.2250244 13.6875,7.21875 c -0.707402,-0.00605 -1.436335,0.2488346 -2,0.8125 L 8.03125,11.6875 c -1.0882738,1.088276 -1.0317585,2.905739 0.03125,3.96875 l 1.15625,1.15625 c -0.2854625,0.584612 -0.5332088,1.191328 -0.75,1.8125 l -1.625,0 C 5.3071387,18.625 4,19.879886 4,21.4375 l 0,5.125 c 0,1.557615 1.3071373,2.8125 2.84375,2.8125 l 1.625,0 c 0.2167911,0.621172 0.4645373,1.227888 0.75,1.8125 L 8.0625,32.34375 C 6.9994893,33.406761 6.9429755,35.224223 8.03125,36.3125 l 3.65625,3.65625 c 1.088277,1.088279 2.90574,1.031756 3.96875,-0.03125 l 1.15625,-1.15625 c 0.584613,0.285463 1.191327,0.533209 1.8125,0.75 l 0,1.625 C 18.625,42.692861 19.879886,44 21.4375,44 l 5.125,0 c 1.557615,0 2.8125,-1.307137 2.8125,-2.84375 l 0,-1.625 c 0.621172,-0.216791 1.227888,-0.464537 1.8125,-0.75 l 1.15625,1.15625 c 1.06301,1.06301 2.880473,1.119527 3.96875,0.03125 l 3.65625,-3.65625 c 1.088277,-1.088277 1.03176,-2.90574 -0.03125,-3.96875 L 38.78125,31.1875 c 0.285463,-0.584612 0.533209,-1.191328 0.75,-1.8125 l 1.625,0 C 42.692861,29.375 44,28.120116 44,26.5625 l 0,-5.125 C 44,19.879884 42.692863,18.625 41.15625,18.625 l -1.625,0 c -0.216791,-0.621172 -0.464537,-1.227888 -0.75,-1.8125 l 1.15625,-1.15625 c 1.063008,-1.06301 1.119527,-2.880473 0.03125,-3.96875 L 36.3125,8.03125 C 35.224223,6.9429733 33.40676,6.9994855 32.34375,8.0625 L 31.1875,9.21875 C 30.602888,8.9332875 29.996172,8.6855411 29.375,8.46875 l 0,-1.625 C 29.375,5.3071387 28.120114,4 26.5625,4 z M 24,19.90625 c 2.275756,0 4.09375,1.817995 4.09375,4.09375 0,2.275755 -1.817994,4.09375 -4.09375,4.09375 -2.275755,0 -4.09375,-1.817995 -4.09375,-4.09375 0,-2.275755 1.817995,-4.09375 4.09375,-4.09375 z"
     id="rect3267"
     inkscape:connector-curvature="0"
     sodipodi:nodetypes="ssccscsssccssssccssssccssssccssssccssssccssssccssssssss" />
</svg>
