<?xml version="1.0" encoding="UTF-8" standalone="no"?>
<!-- Created with Inkscape (http://www.inkscape.org/) -->

<svg
   xmlns:dc="http://purl.org/dc/elements/1.1/"
   xmlns:cc="http://creativecommons.org/ns#"
   xmlns:rdf="http://www.w3.org/1999/02/22-rdf-syntax-ns#"
   xmlns:svg="http://www.w3.org/2000/svg"
   xmlns="http://www.w3.org/2000/svg"
   xmlns:xlink="http://www.w3.org/1999/xlink"
   xmlns:sodipodi="http://sodipodi.sourceforge.net/DTD/sodipodi-0.dtd"
   xmlns:inkscape="http://www.inkscape.org/namespaces/inkscape"
   id="svg3692"
   height="48px"
   width="48px"
   version="1.1"
   inkscape:version="0.48.4 r9939"
   sodipodi:docname="bookmark-add.svg">
  <sodipodi:namedview
     pagecolor="#ffffff"
     bordercolor="#666666"
     borderopacity="1"
     objecttolerance="10"
     gridtolerance="10"
     guidetolerance="10"
     inkscape:pageopacity="0"
     inkscape:pageshadow="2"
     inkscape:window-width="1366"
     inkscape:window-height="712"
     id="namedview42"
     showgrid="true"
     inkscape:zoom="7.0247955"
     inkscape:cx="42.261996"
     inkscape:cy="69.618834"
     inkscape:window-x="0"
     inkscape:window-y="27"
     inkscape:window-maximized="1"
     inkscape:current-layer="svg3692">
    <inkscape:grid
       type="xygrid"
       id="grid3811" />
  </sodipodi:namedview>
  <defs
     id="defs3694">
    <linearGradient
       id="linearGradient3619"
       y2="33.955"
       gradientUnits="userSpaceOnUse"
       x2="15.215"
       gradientTransform="translate(2.9799,-3.1217)"
       y1="22.292"
       x1="11.566">
      <stop
         id="stop2687"
         style="stop-color:#fff;stop-opacity:.27451"
         offset="0" />
      <stop
         id="stop2689"
         style="stop-color:#fff;stop-opacity:0"
         offset="1" />
    </linearGradient>
    <linearGradient
       id="linearGradient3648"
       y2="43.444"
       gradientUnits="userSpaceOnUse"
       x2="29.647"
       y1="2"
       x1="29.647">
      <stop
         id="stop3644"
         style="stop-color:#fff"
         offset="0" />
      <stop
         id="stop3646"
         style="stop-color:#fff;stop-opacity:0"
         offset="1" />
    </linearGradient>
    <radialGradient
       id="radialGradient3627"
       gradientUnits="userSpaceOnUse"
       cy="25.625"
       cx="13.139"
       gradientTransform="matrix(0,2.6541,-3.1628,0,97.183,-26.676)"
       r="13.931">
      <stop
         id="stop3692"
         style="stop-color:#ffeb9f"
         offset="0" />
      <stop
         id="stop3694"
         style="stop-color:#ffd57e"
         offset=".26238" />
      <stop
         id="stop3696"
         style="stop-color:#ffbc43"
         offset=".66094" />
      <stop
         id="stop3698"
         style="stop-color:#ff921a"
         offset="1" />
    </radialGradient>
    <linearGradient
       id="linearGradient3629"
       y2="9.58"
       gradientUnits="userSpaceOnUse"
       x2="21.483"
       gradientTransform="matrix(1.6509,0,0,1.6568,-11.466,-15.046)"
       y1="36.255"
       x1="21.483">
      <stop
         id="stop3605"
         style="stop-color:#a7651c"
         offset="0" />
      <stop
         id="stop3607"
         style="stop-color:#c8a700"
         offset="1" />
    </linearGradient>
    <radialGradient
       id="radialGradient3690"
       gradientUnits="userSpaceOnUse"
       cx="62.625"
       cy="4.625"
       r="10.625"
       gradientTransform="matrix(2.1647,0,0,0.84706,-111.56,35.082)">
      <stop
         id="stop8840"
         offset="0" />
      <stop
         id="stop8842"
         style="stop-opacity:0"
         offset="1" />
    </radialGradient>
    <linearGradient
       id="linearGradient5530"
       y2="38.274"
       gradientUnits="userSpaceOnUse"
       x2="22.369"
       gradientTransform="matrix(0.59882,0,0,0.5952,23.605,21.219)"
       y1="8.0323"
       x1="22.369">
      <stop
         id="stop3945"
         style="stop-color:#fff"
         offset="0" />
      <stop
         id="stop3947"
         style="stop-color:#fff;stop-opacity:0"
         offset="1" />
    </linearGradient>
    <radialGradient
       id="radialGradient2885"
       gradientUnits="userSpaceOnUse"
       cx="69.448"
       cy="51.695"
       r="31"
       gradientTransform="matrix(0,0.67924,-0.73892,0,72.903,-19.49)">
      <stop
         id="stop3244-5"
         style="stop-color:#eef87e"
         offset="0" />
      <stop
         id="stop3246-9"
         style="stop-color:#cde34f"
         offset=".26238" />
      <stop
         id="stop3248-7"
         style="stop-color:#93b723"
         offset=".66094" />
      <stop
         id="stop3250-8"
         style="stop-color:#5a7e0d"
         offset="1" />
    </radialGradient>
    <linearGradient
       id="linearGradient2887"
       y2="52.809"
       gradientUnits="userSpaceOnUse"
       y1="123.19"
       gradientTransform="matrix(0.28214,0,0,0.28445,12.171,9.9582)"
       x2="72.422"
       x1="72.422">
      <stop
         id="stop2492-3"
         style="stop-color:#365f0e"
         offset="0" />
      <stop
         id="stop2494-8"
         style="stop-color:#84a718"
         offset="1" />
    </linearGradient>
    <linearGradient
       inkscape:collect="always"
       xlink:href="#linearGradient5530"
       id="linearGradient3020"
       gradientUnits="userSpaceOnUse"
       gradientTransform="matrix(0.59882,0,0,0.5952,-29.886525,43.388492)"
       x1="22.369"
       y1="8.0323"
       x2="22.369"
       y2="38.274" />
    <linearGradient
       inkscape:collect="always"
       xlink:href="#linearGradient3619"
       id="linearGradient3028"
       gradientUnits="userSpaceOnUse"
       gradientTransform="translate(-65.359083,-18.579327)"
       x1="11.566"
       y1="22.292"
       x2="15.215"
       y2="33.955" />
    <linearGradient
       inkscape:collect="always"
       xlink:href="#linearGradient3648"
       id="linearGradient3031"
       gradientUnits="userSpaceOnUse"
       x1="29.647"
       y1="2"
       x2="29.647"
       y2="43.444"
       gradientTransform="translate(-68.338983,-15.457627)" />
    <radialGradient
       inkscape:collect="always"
       xlink:href="#radialGradient3690"
       id="radialGradient3041"
       gradientUnits="userSpaceOnUse"
       gradientTransform="matrix(2.1647,0,0,0.84706,-179.89898,19.624373)"
       cx="62.625"
       cy="4.625"
       r="10.625" />
  </defs>
  <metadata
     id="metadata3697">
    <rdf:RDF>
      <cc:Work
         rdf:about="">
        <dc:format>image/svg+xml</dc:format>
        <dc:type
           rdf:resource="http://purl.org/dc/dcmitype/StillImage" />
        <dc:title></dc:title>
      </cc:Work>
    </rdf:RDF>
  </metadata>
  <path
     style="font-size:medium;font-style:normal;font-variant:normal;font-weight:normal;font-stretch:normal;text-indent:0;text-align:start;text-decoration:none;line-height:normal;letter-spacing:normal;word-spacing:normal;text-transform:none;direction:ltr;block-progression:tb;writing-mode:lr-tb;text-anchor:start;baseline-shift:baseline;color:#000000;fill:#555555;fill-opacity:1;stroke:none;stroke-width:3.00000024;marker:none;visibility:visible;display:inline;overflow:visible;enable-background:accumulate;font-family:Sans;-inkscape-font-specification:Sans"
     d="M 23.90625 5.0625 L 23.78125 5.09375 C 23.75979 5.09685 23.74011 5.09017 23.71875 5.09375 C 23.64341 5.10131 23.574092 5.142933 23.5 5.15625 C 23.25529 5.200233 23.007336 5.2696099 22.78125 5.375 C 22.75152 5.388857 22.71683 5.391352 22.6875 5.40625 L 22.5 5.5 L 22.3125 5.65625 C 22.29009 5.677856 22.26881 5.699452 22.25 5.71875 L 22.28125 5.75 C 21.890407 6.009162 21.434487 6.2821157 21.25 6.5 C 20.879828 6.9371836 20.561566 7.4203269 20.25 7.9375 C 19.632683 8.9621933 19.037516 10.174636 18.4375 11.375 C 17.833222 12.583896 17.250182 13.787092 16.78125 14.6875 C 16.641029 14.956742 16.526293 15.138281 16.40625 15.34375 C 16.159164 15.39883 15.937704 15.449564 15.625 15.5 C 14.638885 15.659048 13.274841 15.833282 11.90625 16.03125 C 10.539414 16.228964 9.2006047 16.462885 8.0625 16.71875 C 7.5183272 16.84109 6.9863437 16.956083 6.40625 17.1875 C 6.1435646 17.292292 5.7937309 17.439756 5.4375 17.6875 C 5.1713351 17.872607 4.4477886 18.455756 4.15625 19.34375 C 3.8619117 20.24022 4.068662 21.09434 4.1875 21.4375 C 4.3146052 21.804534 4.4820286 22.16221 4.65625 22.4375 C 4.9767273 22.943894 5.3668263 23.348274 5.75 23.78125 C 6.5352701 24.668585 7.4926727 25.650822 8.46875 26.59375 C 9.4498911 27.541569 10.442631 28.443741 11.15625 29.15625 C 11.381774 29.381422 11.522592 29.539881 11.6875 29.71875 C 11.66462 29.95226 11.63893 30.178027 11.59375 30.46875 C 11.439289 31.462762 11.198947 32.790389 10.96875 34.125 C 10.739763 35.452595 10.514867 36.788118 10.40625 37.96875 C 10.35566 38.518681 10.300575 39.070214 10.34375 39.6875 C 10.36837 40.039401 10.41542 40.408977 10.53125 40.78125 C 10.62523 41.0833 10.996548 41.927887 11.75 42.46875 C 12.516167 43.019847 13.390813 43.06761 13.71875 43.0625 C 14.078215 43.0569 14.441656 43.02157 14.78125 42.9375 C 15.390637 42.78665 15.924832 42.561172 16.4375 42.34375 C 17.296702 41.979364 18.294331 41.496881 19.28125 41 L 19.96875 40.65625 C 21.197672 40.018362 22.394619 39.348163 23.28125 38.90625 C 23.573792 38.760442 23.775525 38.662695 24 38.5625 C 24.224509 38.662706 24.426277 38.760466 24.71875 38.90625 C 25.605374 39.348188 26.802323 40.018367 28.03125 40.65625 C 29.259136 41.293594 30.493218 41.890302 31.5625 42.34375 C 31.706408 42.404777 31.850943 42.471228 32 42.53125 L 32 39 L 25 39 L 25 31 L 32 31 L 32 24 L 40 24 L 40 26.125 C 40.808424 25.328095 41.592708 24.524031 42.25 23.78125 C 42.63306 23.348368 43.02316 22.944193 43.34375 22.4375 C 43.517708 22.162559 43.685329 21.804922 43.8125 21.4375 C 43.931271 21.094374 44.138174 20.240265 43.84375 19.34375 C 43.552262 18.455526 42.828383 17.872384 42.5625 17.6875 C 42.206391 17.439876 41.856635 17.292349 41.59375 17.1875 C 41.013875 16.956225 40.48186 16.841095 39.9375 16.71875 C 38.799567 16.462999 37.460696 16.228945 36.09375 16.03125 C 34.725167 15.833318 33.360996 15.659074 32.375 15.5 C 32.062213 15.449539 31.84075 15.398811 31.59375 15.34375 C 31.473707 15.138274 31.358995 14.956764 31.21875 14.6875 C 30.749876 13.787285 30.166874 12.583925 29.5625 11.375 L 29.53125 11.3125 C 28.941956 10.133394 28.356336 8.9438497 27.75 7.9375 C 27.438483 7.4204517 27.120261 6.9372582 26.75 6.5 C 26.724713 6.4701372 26.483068 6.1004335 26 5.71875 C 25.516932 5.3370665 24.786083 5.0625 24 5.0625 L 23.90625 5.0625 z M 34 26 L 34 33 L 27 33 L 27 37 L 34 37 L 34 44 L 38 44 L 38 37 L 45 37 L 45 33 L 38 33 L 38 26 L 34 26 z "
     id="path1307" />
</svg>
