<?xml version="1.0" encoding="UTF-8" standalone="no"?>
<!-- Created with Inkscape (http://www.inkscape.org/) -->

<svg
   xmlns:dc="http://purl.org/dc/elements/1.1/"
   xmlns:cc="http://creativecommons.org/ns#"
   xmlns:rdf="http://www.w3.org/1999/02/22-rdf-syntax-ns#"
   xmlns:svg="http://www.w3.org/2000/svg"
   xmlns="http://www.w3.org/2000/svg"
   xmlns:xlink="http://www.w3.org/1999/xlink"
   xmlns:sodipodi="http://sodipodi.sourceforge.net/DTD/sodipodi-0.dtd"
   xmlns:inkscape="http://www.inkscape.org/namespaces/inkscape"
   version="1.1"
   width="48"
   height="48"
   id="svg2932"
   inkscape:version="0.48.3.1 r9886"
   sodipodi:docname="gtk-cut.svg">
  <metadata
     id="metadata38">
    <rdf:RDF>
      <cc:Work
         rdf:about="">
        <dc:format>image/svg+xml</dc:format>
        <dc:type
           rdf:resource="http://purl.org/dc/dcmitype/StillImage" />
      </cc:Work>
    </rdf:RDF>
  </metadata>
  <sodipodi:namedview
     pagecolor="#ffffff"
     bordercolor="#666666"
     borderopacity="1"
     objecttolerance="10"
     gridtolerance="10"
     guidetolerance="10"
     inkscape:pageopacity="0"
     inkscape:pageshadow="2"
     inkscape:window-width="1280"
     inkscape:window-height="723"
     id="namedview36"
     showgrid="true"
     inkscape:zoom="6.9532168"
     inkscape:cx="41.495162"
     inkscape:cy="2.0355945"
     inkscape:window-x="0"
     inkscape:window-y="20"
     inkscape:window-maximized="1"
     inkscape:current-layer="svg2932">
    <inkscape:grid
       type="xygrid"
       id="grid3015"
       empspacing="5"
       visible="true"
       enabled="true"
       snapvisiblegridlinesonly="true" />
  </sodipodi:namedview>
  <defs
     id="defs2934">
    <linearGradient
       id="linearGradient3650">
      <stop
         id="stop3652"
         style="stop-color:#ffffff;stop-opacity:1"
         offset="0" />
      <stop
         id="stop3654"
         style="stop-color:#ffffff;stop-opacity:0"
         offset="1" />
    </linearGradient>
    <linearGradient
       x1="294.20959"
       y1="6.3851075"
       x2="296.40414"
       y2="9.8281822"
       id="linearGradient8576"
       xlink:href="#XMLID_897_"
       gradientUnits="userSpaceOnUse"
       gradientTransform="matrix(-2.1726626,1.0941354,1.2977992,2.7879222,663.95775,-321.12004)" />
    <linearGradient
       x1="292.97168"
       y1="4.7592773"
       x2="296.93979"
       y2="10.711433"
       id="XMLID_897_"
       gradientUnits="userSpaceOnUse">
      <stop
         id="stop45093"
         style="stop-color:#e8e8e5;stop-opacity:1"
         offset="0" />
      <stop
         id="stop45095"
         style="stop-color:#f0f0f0;stop-opacity:1"
         offset="1" />
    </linearGradient>
    <linearGradient
       x1="20.288025"
       y1="6.4603648"
       x2="24.32597"
       y2="23.942537"
       id="linearGradient8573"
       xlink:href="#linearGradient2229"
       gradientUnits="userSpaceOnUse"
       gradientTransform="matrix(0.5489611,-0.2569337,0.3150922,0.6782222,12.146674,16.190988)" />
    <linearGradient
       id="linearGradient2229">
      <stop
         id="stop2231"
         style="stop-color:#e2e2e2;stop-opacity:1"
         offset="0" />
      <stop
         id="stop2233"
         style="stop-color:#d8d8d8;stop-opacity:1"
         offset="1" />
    </linearGradient>
    <linearGradient
       x1="293.00772"
       y1="3.0185187"
       x2="296.64139"
       y2="10.289103"
       id="linearGradient8569"
       xlink:href="#XMLID_897_"
       gradientUnits="userSpaceOnUse"
       gradientTransform="matrix(2.1923888,-1.1088171,1.3883377,2.7644949,-627.96956,330.42304)" />
    <linearGradient
       x1="19.222296"
       y1="18.03648"
       x2="24.32597"
       y2="23.942537"
       id="linearGradient8566"
       xlink:href="#linearGradient2229"
       gradientUnits="userSpaceOnUse"
       gradientTransform="matrix(0.5489611,-0.2569337,0.3150922,0.6782222,12.146674,16.190988)" />
    <linearGradient
       x1="22.225399"
       y1="23.843431"
       x2="24.190449"
       y2="22.860907"
       id="linearGradient8582"
       xlink:href="#XMLID_45_"
       gradientUnits="userSpaceOnUse"
       gradientTransform="matrix(0.5379232,-0.2517676,0.3150922,0.6782222,12.456548,16.817714)" />
    <linearGradient
       x1="68.175293"
       y1="21.424805"
       x2="74.587158"
       y2="27.836672"
       id="XMLID_45_"
       gradientUnits="userSpaceOnUse">
      <stop
         id="stop695"
         style="stop-color:#babdb6;stop-opacity:1"
         offset="0" />
      <stop
         id="stop697"
         style="stop-color:#eeeeec;stop-opacity:1"
         offset="1" />
    </linearGradient>
    <linearGradient
       x1="40.127796"
       y1="26.630606"
       x2="45.948959"
       y2="38.848572"
       id="linearGradient3656"
       xlink:href="#linearGradient3650"
       gradientUnits="userSpaceOnUse" />
    <linearGradient
       x1="29.26738"
       y1="31.804976"
       x2="35.088547"
       y2="44.022942"
       id="linearGradient3658"
       xlink:href="#linearGradient3650"
       gradientUnits="userSpaceOnUse" />
  </defs>
  <path
     style="font-size:medium;font-style:normal;font-variant:normal;font-weight:normal;font-stretch:normal;text-indent:0;text-align:start;text-decoration:none;line-height:normal;letter-spacing:normal;word-spacing:normal;text-transform:none;direction:ltr;block-progression:tb;writing-mode:lr-tb;text-anchor:start;baseline-shift:baseline;opacity:1.0;color:#000000;fill:#555555#5555555;fill-opacity:1;stroke:none;stroke-width:3.49291182;marker:none;visibility:visible;display:inline;overflow:visible;enable-background:accumulate;font-family:Sans;-inkscape-font-specification:Sans"
     d="m 18.802114,4.01643 c -0.350582,0.069165 -0.66973,0.2853618 -0.863992,0.5852851 l -1.783726,2.6755892 c -0.229875,0.3481825 -0.283203,0.806802 -0.139354,1.1984408 l 5.239696,14.6878699 -1.588631,4.487186 c -0.269263,-0.14988 -0.543521,-0.272057 -0.863993,-0.36232 -1.948944,-0.548931 -3.70203,0.426662 -4.933117,1.700114 -1.231087,1.273452 -2.791708,3.017751 -3.37043,5.072472 -0.5787229,2.054719 -0.6642009,4.040468 -0.278707,5.769239 0.385494,1.72877 1.951029,3.464453 3.899973,4.013383 1.948945,0.548931 3.702032,-0.426662 4.933118,-1.700114 1.231086,-1.273452 2.180478,-3.017751 2.759201,-5.072471 0.439842,-1.177191 0.844375,-2.367338 1.25418,-3.623192 l 0.02787,-0.02787 0.891863,-2.536236 0.919734,2.536236 0.02787,0.02787 c 0.381108,1.22526 0.849766,2.516277 1.254179,3.623192 0.578723,2.05472 1.528116,3.799019 2.759202,5.072471 1.231086,1.273452 2.984173,2.249045 4.933117,1.700114 1.948945,-0.54893 3.550433,-2.284613 3.935927,-4.013383 0.385495,-1.728771 0.300016,-3.71452 -0.278707,-5.769239 -0.578723,-2.054721 -2.175297,-3.79902 -3.406383,-5.072472 -1.231087,-1.273452 -2.984173,-2.249045 -4.933118,-1.700114 -0.320471,0.09026 -0.59473,0.21244 -0.863992,0.36232 L 26.745263,23.163615 31.984958,8.4757451 c 0.143851,-0.3916376 0.09053,-0.850257 -0.139346,-1.1984408 L 30.061885,4.6017151 C 29.787509,4.1900026 29.270645,3.954043 28.779832,4.01643 28.290784,4.0822995 27.852979,4.4415239 27.692874,4.9082931 L 23.986068,15.359813 20.307133,4.9082931 C 20.147028,4.4415239 19.709223,4.0822995 19.220175,4.01643 c -0.138209,-0.021861 -0.279852,-0.021861 -0.418061,0 z m -1.059087,26.560796 c 0.05584,-0.01328 0.105707,-0.0016 0.111483,0 0.0231,0.0065 0.41017,0.274639 0.641026,1.309924 0.230856,1.035287 0.201966,2.572959 -0.250836,4.180608 -0.452803,1.60765 -1.241577,2.94419 -1.978821,3.706806 -0.737244,0.762615 -1.17534,0.759016 -1.198441,0.75251 -0.0231,-0.0065 -0.410171,-0.246768 -0.641027,-1.282053 -0.230855,-1.035287 -0.201966,-2.572958 0.250837,-4.180609 0.452803,-1.60765 1.241577,-2.94419 1.978821,-3.706805 0.552933,-0.571963 0.919439,-0.740552 1.086958,-0.780381 z m 12.402471,0 c 0.0231,-0.0065 0.461197,0.01777 1.198441,0.780381 0.737244,0.762615 1.526017,2.099155 1.978821,3.706805 0.452802,1.607651 0.481691,3.145322 0.250836,4.180609 -0.230856,1.035285 -0.617927,1.275542 -0.641026,1.282053 -0.0231,0.0065 -0.461198,0.01011 -1.198441,-0.75251 -0.737245,-0.762616 -1.526018,-2.099156 -1.978821,-3.706806 -0.452803,-1.607649 -0.481692,-3.145321 -0.250837,-4.180608 0.230856,-1.035285 0.617927,-1.303413 0.641027,-1.309924 z"
     id="path3017-2"
     inkscape:connector-curvature="0"
     sodipodi:nodetypes="ccccccsssssscccccccsssssscccccccccccccssscsssccssscsssc" />
</svg>