<?xml version="1.0" encoding="UTF-8" standalone="no"?>
<!-- Created with Inkscape (http://www.inkscape.org/) -->

<svg
   xmlns:dc="http://purl.org/dc/elements/1.1/"
   xmlns:cc="http://creativecommons.org/ns#"
   xmlns:rdf="http://www.w3.org/1999/02/22-rdf-syntax-ns#"
   xmlns:svg="http://www.w3.org/2000/svg"
   xmlns="http://www.w3.org/2000/svg"
   xmlns:xlink="http://www.w3.org/1999/xlink"
   xmlns:sodipodi="http://sodipodi.sourceforge.net/DTD/sodipodi-0.dtd"
   xmlns:inkscape="http://www.inkscape.org/namespaces/inkscape"
   version="1.0"
   width="48"
   height="48"
   id="svg2527"
   inkscape:version="0.48.4 r9939"
   sodipodi:docname="gnome-run.svg">
  <metadata
     id="metadata80">
    <rdf:RDF>
      <cc:Work
         rdf:about="">
        <dc:format>image/svg+xml</dc:format>
        <dc:type
           rdf:resource="http://purl.org/dc/dcmitype/StillImage" />
      </cc:Work>
    </rdf:RDF>
  </metadata>
  <sodipodi:namedview
     pagecolor="#ffffff"
     bordercolor="#666666"
     borderopacity="1"
     objecttolerance="10"
     gridtolerance="10"
     guidetolerance="10"
     inkscape:pageopacity="0"
     inkscape:pageshadow="2"
     inkscape:window-width="1366"
     inkscape:window-height="712"
     id="namedview78"
     showgrid="false"
     inkscape:zoom="4.1556334"
     inkscape:cx="-28.218273"
     inkscape:cy="24"
     inkscape:window-x="0"
     inkscape:window-y="27"
     inkscape:window-maximized="1"
     inkscape:current-layer="svg2527" />
  <defs
     id="defs2529">
    <linearGradient
       id="linearGradient8838">
      <stop
         id="stop8840"
         style="stop-color:#000000;stop-opacity:1"
         offset="0" />
      <stop
         id="stop8842"
         style="stop-color:#000000;stop-opacity:0"
         offset="1" />
    </linearGradient>
    <radialGradient
       cx="62.625"
       cy="4.625"
       r="10.625"
       fx="62.625"
       fy="4.625"
       id="radialGradient2436"
       xlink:href="#linearGradient8838"
       gradientUnits="userSpaceOnUse"
       gradientTransform="matrix(2.1647059,0,0,0.7529402,-111.56471,36.517647)" />
    <linearGradient
       id="linearGradient3397">
      <stop
         id="stop3399"
         style="stop-color:#aaaaaa;stop-opacity:1"
         offset="0" />
      <stop
         id="stop3401"
         style="stop-color:#8c8c8c;stop-opacity:1"
         offset="1" />
    </linearGradient>
    <linearGradient
       x1="37.201294"
       y1="1"
       x2="37.201294"
       y2="45"
       id="linearGradient2517"
       xlink:href="#linearGradient3397"
       gradientUnits="userSpaceOnUse" />
    <linearGradient
       x1="63.9995"
       y1="3.1001"
       x2="63.9995"
       y2="122.8994"
       id="linearGradient3309"
       gradientUnits="userSpaceOnUse">
      <stop
         id="stop3311"
         style="stop-color:#f6f6f6;stop-opacity:1"
         offset="0" />
      <stop
         id="stop3313"
         style="stop-color:#d2d2d2;stop-opacity:1"
         offset="1" />
    </linearGradient>
    <linearGradient
       x1="20.758585"
       y1="1"
       x2="20.758585"
       y2="45.017357"
       id="linearGradient2515"
       xlink:href="#linearGradient3309"
       gradientUnits="userSpaceOnUse" />
    <linearGradient
       id="linearGradient5128">
      <stop
         id="stop5130"
         style="stop-color:#e5e5e5;stop-opacity:1"
         offset="0" />
      <stop
         id="stop5132"
         style="stop-color:#ababab;stop-opacity:1"
         offset="1" />
    </linearGradient>
    <linearGradient
       x1="86.132919"
       y1="105.105"
       x2="84.63858"
       y2="20.895"
       id="linearGradient2512"
       xlink:href="#linearGradient5128"
       gradientUnits="userSpaceOnUse"
       gradientTransform="matrix(0.3244803,0,0,0.3244803,3.2332655,2.5577454)" />
    <radialGradient
       cx="6.702713"
       cy="73.615715"
       r="7.228416"
       fx="6.702713"
       fy="73.615715"
       id="radialGradient2538"
       xlink:href="#linearGradient10691"
       gradientUnits="userSpaceOnUse"
       gradientTransform="matrix(2.2134617,0,0,0.4842001,1.1638028,-7.1447362)" />
    <linearGradient
       id="linearGradient10691">
      <stop
         id="stop10693"
         style="stop-color:#000000;stop-opacity:1"
         offset="0" />
      <stop
         id="stop10695"
         style="stop-color:#000000;stop-opacity:0"
         offset="1" />
    </linearGradient>
    <linearGradient
       x1="32.036148"
       y1="19"
       x2="32.036148"
       y2="47.012184"
       id="linearGradient3326"
       xlink:href="#linearGradient3309-8"
       gradientUnits="userSpaceOnUse"
       gradientTransform="matrix(0.93928017,0.34315123,-0.34315123,0.93928017,-1.7936946,-25.633934)" />
    <linearGradient
       x1="63.9995"
       y1="3.1001"
       x2="63.9995"
       y2="122.8994"
       id="linearGradient3309-8"
       gradientUnits="userSpaceOnUse">
      <stop
         id="stop3311-4"
         style="stop-color:#f6f6f6;stop-opacity:1"
         offset="0" />
      <stop
         id="stop3313-8"
         style="stop-color:#d2d2d2;stop-opacity:1"
         offset="1" />
    </linearGradient>
    <linearGradient
       x1="25.922546"
       y1="19"
       x2="25.922546"
       y2="47.044857"
       id="linearGradient3328"
       xlink:href="#linearGradient3397-1"
       gradientUnits="userSpaceOnUse"
       gradientTransform="matrix(0.93928017,0.34315123,-0.34315123,0.93928017,-1.7936946,-25.633934)" />
    <linearGradient
       id="linearGradient3397-1">
      <stop
         id="stop3399-0"
         style="stop-color:#aaaaaa;stop-opacity:1"
         offset="0" />
      <stop
         id="stop3401-3"
         style="stop-color:#8c8c8c;stop-opacity:1"
         offset="1" />
    </linearGradient>
    <linearGradient
       id="linearGradient5128-0">
      <stop
         id="stop5130-4"
         style="stop-color:#ffffff;stop-opacity:1"
         offset="0" />
      <stop
         id="stop5132-4"
         style="stop-color:#959595;stop-opacity:1"
         offset="1" />
    </linearGradient>
    <linearGradient
       x1="86.132919"
       y1="105.105"
       x2="84.63858"
       y2="20.895"
       id="linearGradient2868"
       xlink:href="#linearGradient5128-0"
       gradientUnits="userSpaceOnUse"
       gradientTransform="matrix(0.2014014,0,0,0.2014015,3.1103045,3.311705)" />
    <radialGradient
       cx="6.702713"
       cy="73.615715"
       r="7.228416"
       fx="6.702713"
       fy="73.615715"
       id="radialGradient2411"
       xlink:href="#linearGradient10691-8"
       gradientUnits="userSpaceOnUse"
       gradientTransform="matrix(1.660115,0,0,0.3458573,0.8727276,-3.9605294)" />
    <linearGradient
       id="linearGradient10691-8">
      <stop
         id="stop10693-6"
         style="stop-color:#000000;stop-opacity:1"
         offset="0" />
      <stop
         id="stop10695-0"
         style="stop-color:#000000;stop-opacity:0"
         offset="1" />
    </linearGradient>
    <linearGradient
       x1="34"
       y1="1"
       x2="34"
       y2="23.00024"
       id="linearGradient3218"
       xlink:href="#linearGradient3309-4"
       gradientUnits="userSpaceOnUse"
       gradientTransform="translate(-24.5,0)" />
    <linearGradient
       x1="63.9995"
       y1="3.1001"
       x2="63.9995"
       y2="122.8994"
       id="linearGradient3309-4"
       gradientUnits="userSpaceOnUse">
      <stop
         id="stop3311-8"
         style="stop-color:#f6f6f6;stop-opacity:1"
         offset="0" />
      <stop
         id="stop3313-88"
         style="stop-color:#d2d2d2;stop-opacity:1"
         offset="1" />
    </linearGradient>
    <linearGradient
       x1="40"
       y1="1"
       x2="40"
       y2="23.019524"
       id="linearGradient3228"
       xlink:href="#linearGradient3397-9"
       gradientUnits="userSpaceOnUse"
       gradientTransform="translate(-24.5,0)" />
    <linearGradient
       id="linearGradient3397-9">
      <stop
         id="stop3399-7"
         style="stop-color:#aaaaaa;stop-opacity:1"
         offset="0" />
      <stop
         id="stop3401-7"
         style="stop-color:#8c8c8c;stop-opacity:1"
         offset="1" />
    </linearGradient>
    <linearGradient
       x1="86.132919"
       y1="105.105"
       x2="84.63858"
       y2="20.895"
       id="linearGradient3241"
       xlink:href="#linearGradient5128-6"
       gradientUnits="userSpaceOnUse"
       gradientTransform="matrix(0.1562313,0,0,0.1562313,2.0012016,2.1574324)" />
    <linearGradient
       id="linearGradient5128-6">
      <stop
         id="stop5130-43"
         style="stop-color:#eeeeee;stop-opacity:1"
         offset="0" />
      <stop
         id="stop5132-0"
         style="stop-color:#a2a2a2;stop-opacity:1"
         offset="1" />
    </linearGradient>
    <linearGradient
       x1="25"
       y1="0"
       x2="25"
       y2="16.000105"
       id="linearGradient3262"
       xlink:href="#linearGradient3309-6"
       gradientUnits="userSpaceOnUse"
       gradientTransform="translate(-17.058189,0)" />
    <linearGradient
       x1="63.9995"
       y1="3.1001"
       x2="63.9995"
       y2="122.8994"
       id="linearGradient3309-6"
       gradientUnits="userSpaceOnUse">
      <stop
         id="stop3311-2"
         style="stop-color:#f6f6f6;stop-opacity:1"
         offset="0" />
      <stop
         id="stop3313-9"
         style="stop-color:#cccccc;stop-opacity:1"
         offset="1" />
    </linearGradient>
    <linearGradient
       x1="21"
       y1="0"
       x2="21"
       y2="16.004715"
       id="linearGradient3264"
       xlink:href="#linearGradient3397-90"
       gradientUnits="userSpaceOnUse"
       gradientTransform="translate(-17.058189,0)" />
    <linearGradient
       id="linearGradient3397-90">
      <stop
         id="stop3399-8"
         style="stop-color:#aaaaaa;stop-opacity:1"
         offset="0" />
      <stop
         id="stop3401-1"
         style="stop-color:#8c8c8c;stop-opacity:1"
         offset="1" />
    </linearGradient>
    <linearGradient
       x1="86.132919"
       y1="105.105"
       x2="84.63858"
       y2="20.895"
       id="linearGradient3260"
       xlink:href="#linearGradient5128-3"
       gradientUnits="userSpaceOnUse"
       gradientTransform="matrix(0.09614231,0,0,0.09614231,1.8468935,1.9430362)" />
    <linearGradient
       id="linearGradient5128-3">
      <stop
         id="stop5130-1"
         style="stop-color:#e5e5e5;stop-opacity:1"
         offset="0" />
      <stop
         id="stop5132-1"
         style="stop-color:#ababab;stop-opacity:1"
         offset="1" />
    </linearGradient>
    <linearGradient
       inkscape:collect="always"
       xlink:href="#linearGradient3309-4"
       id="linearGradient3065"
       gradientUnits="userSpaceOnUse"
       gradientTransform="translate(-24.5,0)"
       x1="34"
       y1="1"
       x2="34"
       y2="23.00024" />
    <linearGradient
       inkscape:collect="always"
       xlink:href="#linearGradient3397-9"
       id="linearGradient3067"
       gradientUnits="userSpaceOnUse"
       gradientTransform="translate(-24.5,0)"
       x1="40"
       y1="1"
       x2="40"
       y2="23.019524" />
    <linearGradient
       inkscape:collect="always"
       xlink:href="#linearGradient5128-6"
       id="linearGradient3069"
       gradientUnits="userSpaceOnUse"
       gradientTransform="matrix(0.1562313,0,0,0.1562313,2.0012016,2.1574324)"
       x1="86.132919"
       y1="105.105"
       x2="84.63858"
       y2="20.895" />
    <linearGradient
       inkscape:collect="always"
       xlink:href="#linearGradient5128-6"
       id="linearGradient3072"
       gradientUnits="userSpaceOnUse"
       gradientTransform="matrix(0.1562313,0,0,0.1562313,4.0012016,1.1574324)"
       x1="86.132919"
       y1="105.105"
       x2="84.63858"
       y2="20.895" />
    <linearGradient
       inkscape:collect="always"
       xlink:href="#linearGradient5128-0"
       id="linearGradient3081"
       gradientUnits="userSpaceOnUse"
       gradientTransform="matrix(0.2014014,0,0,0.2014015,19.110303,15.311705)"
       x1="86.132919"
       y1="105.105"
       x2="84.63858"
       y2="20.895" />
    <linearGradient
       inkscape:collect="always"
       xlink:href="#linearGradient3309-6"
       id="linearGradient3857"
       gradientUnits="userSpaceOnUse"
       gradientTransform="translate(-17.058189,0)"
       x1="25"
       y1="0"
       x2="25"
       y2="16.000105" />
    <linearGradient
       inkscape:collect="always"
       xlink:href="#linearGradient3397-90"
       id="linearGradient3859"
       gradientUnits="userSpaceOnUse"
       gradientTransform="translate(-17.058189,0)"
       x1="21"
       y1="0"
       x2="21"
       y2="16.004715" />
    <linearGradient
       inkscape:collect="always"
       xlink:href="#linearGradient5128-3"
       id="linearGradient3861"
       gradientUnits="userSpaceOnUse"
       gradientTransform="matrix(0.09614231,0,0,0.09614231,1.8468935,1.9430362)"
       x1="86.132919"
       y1="105.105"
       x2="84.63858"
       y2="20.895" />
    <linearGradient
       inkscape:collect="always"
       xlink:href="#linearGradient5128-3"
       id="linearGradient3864"
       gradientUnits="userSpaceOnUse"
       gradientTransform="matrix(0.09614231,0,0,0.09614231,4.8468935,30.943036)"
       x1="86.132919"
       y1="105.105"
       x2="84.63858"
       y2="20.895" />
  </defs>
  <path
     inkscape:connector-curvature="0"
     style="fill:#555555 #5555555;fill-opacity:1;fill-rule:nonzero;stroke:none;stroke-width:1;stroke-linecap:butt;stroke-linejoin:round;stroke-miterlimit:4;stroke-opacity:1;stroke-dasharray:none;stroke-dashoffset:0;marker:none;visibility:visible;display:block;overflow:visible;enable-background:accumulate;opacity:1"
     id="rect2576"
     d="m 34.636571,14.590522 c -0.703275,-0.256931 -1.495689,0.08705 -1.752619,0.790324 l -0.600515,1.64374 c -0.499176,-0.01322 -0.993955,0.0025 -1.484533,0.05651 L 30.072372,15.518135 C 29.756757,14.839167 28.960837,14.54839 28.281869,14.864003 l -3.916723,1.796292 c -0.678969,0.315613 -0.969744,1.111537 -0.654132,1.790503 l 0.726532,1.562964 c -0.365101,0.345634 -0.693354,0.730353 -1.010901,1.12784 l -1.614388,-0.589791 c -0.703276,-0.256931 -1.495691,0.08705 -1.75262,0.790325 l -1.47984,4.050645 c -0.256931,0.703275 0.127128,1.477063 0.830401,1.733991 l 1.614388,0.589791 c -0.01347,0.508577 -0.01052,1.014295 0.04579,1.513885 l -1.562963,0.726533 c -0.678969,0.315613 -0.969748,1.111534 -0.654132,1.790502 l 1.836368,3.898094 c 0.315612,0.678968 1.111537,0.969744 1.790503,0.654132 l 1.562964,-0.726532 c 0.340213,0.357549 0.708349,0.688501 1.098487,1.000178 l -0.600514,1.64374 c -0.256932,0.703275 0.127129,1.477064 0.8304,1.733991 l 4.021293,1.469116 c 0.703276,0.256931 1.466338,-0.09777 1.723267,-0.801048 l 0.600515,-1.64374 c 0.508577,0.01347 1.014295,0.01052 1.513885,-0.04579 l 0.726532,1.562963 c 0.315614,0.678968 1.111534,0.969745 1.790502,0.654132 l 3.916723,-1.796292 c 0.678969,-0.315613 0.969742,-1.111538 0.654132,-1.790503 l -0.745161,-1.603039 c 0.357549,-0.340214 0.6885,-0.708349 1.000178,-1.098488 l 1.64374,0.600515 c 0.703276,0.25693 1.466338,-0.09778 1.723267,-0.801049 l 1.47984,-4.050645 c 0.256931,-0.703275 -0.09778,-1.466339 -0.801048,-1.723268 l -1.64374,-0.600514 c 0.01322,-0.499176 -0.0025,-0.993955 -0.05651,-1.484533 l 1.60304,-0.745162 c 0.678966,-0.315611 0.969742,-1.111533 0.654129,-1.790501 L 43.339703,20.365146 C 43.024091,19.686178 42.228167,19.3954 41.549201,19.711014 l -1.562963,0.726532 c -0.345634,-0.3651 -0.730353,-0.693354 -1.12784,-1.010901 l 0.600515,-1.64374 c 0.256931,-0.703274 -0.09778,-1.466338 -0.801049,-1.723267 L 34.636571,14.590522 z M 33.201029,24.71252 c 1.81469,0.662968 2.74942,2.67382 2.086452,4.48851 -0.662969,1.814689 -2.673821,2.749419 -4.48851,2.086451 -1.814691,-0.662969 -2.74942,-2.673821 -2.086452,-4.48851 0.662968,-1.81469 2.673821,-2.74942 4.48851,-2.086451 z" />
  <path
     d="M 12.1875,0.5 C 11.799134,0.5 11.5,0.7991339 11.5,1.1875 l 0,1.6875 C 10.988333,3.0322247 10.496816,3.2537684 10.03125,3.5 L 8.84375,2.3125 c -0.274616,-0.2746162 -0.725384,-0.2746162 -1,0 L 5.3125,4.84375 c -0.274616,0.2746162 -0.274616,0.7253836 0,1 L 6.5,7.03125 C 6.253769,7.4968155 6.032225,7.9883329 5.875,8.5 l -1.6875,0 C 3.799134,8.5 3.5,8.7991344 3.5,9.1875 l 0,3.625 C 3.5,13.200866 3.799134,13.5 4.1875,13.5 l 1.6875,0 c 0.157225,0.511667 0.378769,1.003185 0.625,1.46875 l -1.1875,1.1875 c -0.274616,0.274616 -0.274616,0.725384 0,1 l 2.53125,2.53125 c 0.274616,0.274616 0.725384,0.274616 1,0 L 10.03125,18.5 c 0.465566,0.246232 0.957083,0.467775 1.46875,0.625 l 0,1.6875 c 0,0.388366 0.299135,0.6875 0.6875,0.6875 l 3.625,0 c 0.388366,0 0.6875,-0.299134 0.6875,-0.6875 l 0,-1.6875 c 0.511667,-0.157225 1.003185,-0.378768 1.46875,-0.625 l 1.1875,1.1875 c 0.274616,0.274616 0.725384,0.274616 1,0 l 2.53125,-2.53125 c 0.274616,-0.274616 0.274616,-0.725384 0,-1 L 21.5,14.96875 C 21.746232,14.503185 21.967775,14.011667 22.125,13.5 l 1.6875,0 c 0.388366,0 0.6875,-0.299134 0.6875,-0.6875 l 0,-3.625 C 24.5,8.7991341 24.200866,8.5 23.8125,8.5 l -1.6875,0 C 21.967775,7.9883329 21.746232,7.4968155 21.5,7.03125 l 1.1875,-1.1875 c 0.274616,-0.2746162 0.274616,-0.7253837 0,-1 L 20.15625,2.3125 c -0.274616,-0.2746162 -0.725384,-0.2746162 -1,0 L 17.96875,3.5 C 17.503185,3.2537684 17.011667,3.0322247 16.5,2.875 l 0,-1.6875 C 16.5,0.7991341 16.200866,0.5 15.8125,0.5 l -3.625,0 z M 14,8 c 1.656,0 3,1.344 3,3 0,1.656 -1.344,3 -3,3 -1.656,0 -3,-1.344 -3,-3 0,-1.656 1.344,-3 3,-3 z"
     id="rect2426"
     style="fill:#555555 #5555555;fill-opacity:1;fill-rule:nonzero;stroke:none;stroke-width:1;stroke-linecap:butt;stroke-linejoin:round;stroke-miterlimit:4;stroke-opacity:1;stroke-dasharray:none;stroke-dashoffset:0;marker:none;visibility:visible;display:block;overflow:visible;enable-background:accumulate;opacity:1"
     inkscape:connector-curvature="0" />
  <path
     d="M 9.9375,29.5 C 9.6890831,29.5 9.5,29.689082 9.5,29.9375 l 0,1.25 C 8.9460971,31.329701 8.448836,31.559378 7.96875,31.84375 L 7.0625,30.9375 c -0.1756569,-0.175658 -0.449342,-0.175658 -0.625,0 l -1.5,1.5 c -0.175657,0.175658 -0.175657,0.449342 0,0.625 l 0.90625,0.90625 C 5.5593789,34.448836 5.329701,34.946097 5.1875,35.5 l -1.25,0 C 3.689083,35.5 3.5,35.689082 3.5,35.9375 l 0,2.125 C 3.5,38.310918 3.689083,38.5 3.9375,38.5 l 1.25,0 c 0.1422009,0.553903 0.371879,1.051164 0.65625,1.53125 L 4.9375,40.9375 c -0.175657,0.175658 -0.175657,0.449342 0,0.625 l 1.5,1.5 c 0.1756579,0.175658 0.449342,0.175658 0.625,0 L 7.96875,42.15625 C 8.4488361,42.440622 8.946097,42.6703 9.5,42.8125 l 0,1.25 c 10e-8,0.248418 0.189083,0.4375 0.4375,0.4375 l 2.125,0 c 0.248418,0 0.4375,-0.189082 0.4375,-0.4375 l 0,-1.25 c 0.553903,-0.1422 1.051164,-0.371878 1.53125,-0.65625 l 0.90625,0.90625 c 0.175658,0.175658 0.449342,0.175658 0.625,0 l 1.5,-1.5 c 0.175658,-0.175658 0.175658,-0.449342 0,-0.625 L 16.15625,40.03125 C 16.440622,39.551164 16.6703,39.053903 16.8125,38.5 l 1.25,0 c 0.248418,0 0.4375,-0.189083 0.4375,-0.4375 l 0,-2.125 C 18.5,35.689082 18.310917,35.5 18.0625,35.5 l -1.25,0 C 16.6703,34.946097 16.440622,34.448836 16.15625,33.96875 L 17.0625,33.0625 c 0.175658,-0.175658 0.175658,-0.449342 0,-0.625 l -1.5,-1.5 c -0.175658,-0.175658 -0.449342,-0.175658 -0.625,0 l -0.90625,0.90625 C 13.551164,31.559378 13.053903,31.329701 12.5,31.1875 l 0,-1.25 C 12.5,29.689082 12.310918,29.5 12.0625,29.5 l -2.125,0 z M 11,35 c 1.104,0 2,0.896 2,2 0,1.104 -0.896,2 -2,2 -1.104,0 -2,-0.896 -2,-2 0,-1.104 0.896,-2 2,-2 z"
     id="path2426"
     style="fill:#555555 #5555555;fill-opacity:1;fill-rule:nonzero;stroke:none;stroke-width:0.99999994000000003;stroke-linecap:butt;stroke-linejoin:round;stroke-miterlimit:4;stroke-opacity:1;stroke-dasharray:none;stroke-dashoffset:0;marker:none;visibility:visible;display:block;overflow:visible;enable-background:accumulate;opacity:1"
     inkscape:connector-curvature="0" />
</svg>
