<?xml version="1.0" encoding="UTF-8" standalone="no"?>
<!-- Created with Inkscape (http://www.inkscape.org/) -->

<svg
   xmlns:dc="http://purl.org/dc/elements/1.1/"
   xmlns:cc="http://creativecommons.org/ns#"
   xmlns:rdf="http://www.w3.org/1999/02/22-rdf-syntax-ns#"
   xmlns:svg="http://www.w3.org/2000/svg"
   xmlns="http://www.w3.org/2000/svg"
   xmlns:sodipodi="http://sodipodi.sourceforge.net/DTD/sodipodi-0.dtd"
   xmlns:inkscape="http://www.inkscape.org/namespaces/inkscape"
   id="svg2474"
   height="48"
   width="48"
   version="1.1"
   inkscape:version="0.48.4 r9939"
   sodipodi:docname="media-skip-forward.svg">
  <metadata
     id="metadata15">
    <rdf:RDF>
      <cc:Work
         rdf:about="">
        <dc:format>image/svg+xml</dc:format>
        <dc:type
           rdf:resource="http://purl.org/dc/dcmitype/StillImage" />
        <dc:title></dc:title>
      </cc:Work>
    </rdf:RDF>
  </metadata>
  <sodipodi:namedview
     pagecolor="#ffffff"
     bordercolor="#666666"
     borderopacity="1"
     objecttolerance="10"
     gridtolerance="10"
     guidetolerance="10"
     inkscape:pageopacity="0"
     inkscape:pageshadow="2"
     inkscape:window-width="1366"
     inkscape:window-height="712"
     id="namedview13"
     showgrid="true"
     inkscape:zoom="9.8333334"
     inkscape:cx="13.386303"
     inkscape:cy="25.215313"
     inkscape:window-x="0"
     inkscape:window-y="27"
     inkscape:window-maximized="1"
     inkscape:current-layer="svg2474">
    <inkscape:grid
       type="xygrid"
       id="grid2994" />
  </sodipodi:namedview>
  <defs
     id="defs2476">
    <linearGradient
       id="linearGradient3343"
       y2="43.878"
       gradientUnits="userSpaceOnUse"
       x2="18.037"
       gradientTransform="matrix(1.1476,0,0,1.0201,-3.9465,0.25851)"
       y1="14.511"
       x1="18.037">
      <stop
         id="stop2266"
         style="stop-color:#d7e866"
         offset="0" />
      <stop
         id="stop2268"
         style="stop-color:#8cab2a"
         offset="1" />
    </linearGradient>
    <linearGradient
       id="linearGradient3339"
       y2="46.874"
       gradientUnits="userSpaceOnUse"
       x2="13.759"
       gradientTransform="matrix(0.9547,0,0,0.92917,0.89918,2.1998)"
       y1="14.66"
       x1="34.404">
      <stop
         id="stop4224"
         style="stop-color:#fff"
         offset="0" />
      <stop
         id="stop4226"
         style="stop-color:#fff;stop-opacity:0"
         offset="1" />
    </linearGradient>
  </defs>
  <path
     style="font-size:medium;font-style:normal;font-variant:normal;font-weight:normal;font-stretch:normal;text-indent:0;text-align:start;text-decoration:none;line-height:normal;letter-spacing:normal;word-spacing:normal;text-transform:none;direction:ltr;block-progression:tb;writing-mode:lr-tb;text-anchor:start;baseline-shift:baseline;color:#000000;fill:#555555#2d2d2d;fill-opacity:1;stroke:none;stroke-width:2;marker:none;visibility:visible;display:inline;overflow:visible;enable-background:accumulate;font-family:Sans;-inkscape-font-specification:Sans"
     d="M 8.84375 16 C 8.3741832 16.074287 7.9942076 16.524629 8 17 L 8 31 C 7.99381 31.701073 8.8927846 32.225472 9.5 31.875 L 21 25.15625 L 21 31 C 20.9938 31.701073 21.892785 32.225472 22.5 31.875 L 34.5 24.875 C 35.121399 24.531044 35.121399 23.468956 34.5 23.125 L 22.5 16.125 C 22.303961 16.010465 22.068167 15.965552 21.84375 16 C 21.374183 16.074287 20.994208 16.524629 21 17 L 21 22.84375 L 9.5 16.125 C 9.3039607 16.010465 9.0681671 15.965552 8.84375 16 z M 37 16 C 36.446 16 36 16.446 36 17 L 36 31 C 36 31.554 36.446 32 37 32 L 39 32 C 39.554 32 40 31.554 40 31 L 40 17 C 40 16.446 39.554 16 39 16 L 37 16 z "
     id="path2989" />
</svg>