<?xml version="1.0" encoding="UTF-8" standalone="no"?>
<!-- Created with Inkscape (http://www.inkscape.org/) -->

<svg
   xmlns:dc="http://purl.org/dc/elements/1.1/"
   xmlns:cc="http://creativecommons.org/ns#"
   xmlns:rdf="http://www.w3.org/1999/02/22-rdf-syntax-ns#"
   xmlns:svg="http://www.w3.org/2000/svg"
   xmlns="http://www.w3.org/2000/svg"
   xmlns:xlink="http://www.w3.org/1999/xlink"
   xmlns:sodipodi="http://sodipodi.sourceforge.net/DTD/sodipodi-0.dtd"
   xmlns:inkscape="http://www.inkscape.org/namespaces/inkscape"
   width="48"
   height="48"
   id="svg2"
   version="1.1"
   inkscape:version="0.48.4 r9939"
   sodipodi:docname="gtk-connect.svg">
  <defs
     id="defs4">
    <linearGradient
       id="linearGradient3755">
      <stop
         style="stop-color:#086707;stop-opacity:1;"
         offset="0"
         id="stop3757" />
      <stop
         style="stop-color:#56ec16;stop-opacity:1;"
         offset="1"
         id="stop3759" />
    </linearGradient>
    <linearGradient
       inkscape:collect="always"
       xlink:href="#linearGradient3755"
       id="linearGradient3761"
       x1="24.407145"
       y1="41.035717"
       x2="24.407145"
       y2="17.300638"
       gradientUnits="userSpaceOnUse" />
  </defs>
  <sodipodi:namedview
     id="base"
     pagecolor="#ffffff"
     bordercolor="#666666"
     borderopacity="1.0"
     inkscape:pageopacity="0.0"
     inkscape:pageshadow="2"
     inkscape:zoom="11.2"
     inkscape:cx="18.859833"
     inkscape:cy="25.593073"
     inkscape:document-units="px"
     inkscape:current-layer="layer1"
     showgrid="true"
     inkscape:window-width="1366"
     inkscape:window-height="712"
     inkscape:window-x="0"
     inkscape:window-y="27"
     inkscape:window-maximized="1">
    <inkscape:grid
       type="xygrid"
       id="grid2988" />
  </sodipodi:namedview>
  <metadata
     id="metadata7">
    <rdf:RDF>
      <cc:Work
         rdf:about="">
        <dc:format>image/svg+xml</dc:format>
        <dc:type
           rdf:resource="http://purl.org/dc/dcmitype/StillImage" />
        <dc:title />
      </cc:Work>
    </rdf:RDF>
  </metadata>
  <g
     inkscape:label="Capa 1"
     inkscape:groupmode="layer"
     id="layer1"
     transform="translate(0,-1004.3622)">
    <path
       style="font-size:medium;font-style:normal;font-variant:normal;font-weight:normal;font-stretch:normal;text-indent:0;text-align:start;text-decoration:none;line-height:normal;letter-spacing:normal;word-spacing:normal;text-transform:none;direction:ltr;block-progression:tb;writing-mode:lr-tb;text-anchor:start;baseline-shift:baseline;color:#000000;fill:#555555;fill-opacity:1;fill-rule:nonzero;stroke:none;stroke-width:3;marker:none;visibility:visible;display:inline;overflow:visible;enable-background:accumulate;font-family:Sans;-inkscape-font-specification:Sans"
       d="M 7.4375 5.03125 C 5.6118571 5.03135 4.0625 6.49555 4.0625 8.34375 L 4.0625 33.65625 C 4.0625 35.50445 5.6118571 36.96875 7.4375 36.96875 L 28.0625 36.96875 L 36.625 42.09375 L 40.125 44.1875 L 38.84375 40.34375 L 37.6875 36.96875 L 40.65625 36.96875 C 42.481893 36.96875 44.0625 35.50445 44.0625 33.65625 L 44.0625 8.34375 C 44.0625 6.49555 42.481893 5.03125 40.65625 5.03125 L 7.4375 5.03125 z M 31.9375 9.9375 A 3.0003 3.0003 0 0 1 34.5 14.65625 L 24.5 29.65625 A 3.0003 3.0003 0 0 1 19.875 30.09375 L 13.875 24.09375 A 3.0003 3.0003 0 1 1 18.125 19.875 L 21.53125 23.28125 L 29.5 11.3125 A 3.0003 3.0003 0 0 1 31.9375 9.9375 z "
       transform="translate(0,1004.3622)"
       id="rect2990-8" />
  </g>
</svg>
