<?xml version="1.0" encoding="UTF-8" standalone="no"?>
<!-- Created with Inkscape (http://www.inkscape.org/) -->

<svg
   xmlns:dc="http://purl.org/dc/elements/1.1/"
   xmlns:cc="http://creativecommons.org/ns#"
   xmlns:rdf="http://www.w3.org/1999/02/22-rdf-syntax-ns#"
   xmlns:svg="http://www.w3.org/2000/svg"
   xmlns="http://www.w3.org/2000/svg"
   xmlns:xlink="http://www.w3.org/1999/xlink"
   xmlns:sodipodi="http://sodipodi.sourceforge.net/DTD/sodipodi-0.dtd"
   xmlns:inkscape="http://www.inkscape.org/namespaces/inkscape"
   width="48"
   height="48"
   id="svg2"
   version="1.1"
   inkscape:version="0.48.3.1 r9886"
   sodipodi:docname="applications-graphics.svg">
  <defs
     id="defs4">
    <linearGradient
       id="linearGradient3795">
      <stop
         style="stop-color:#4fa44e;stop-opacity:1;"
         offset="0"
         id="stop3797" />
      <stop
         style="stop-color:#3b862b;stop-opacity:1;"
         offset="1"
         id="stop3799" />
    </linearGradient>
    <linearGradient
       id="linearGradient3698">
      <stop
         id="stop3700"
         offset="0"
         style="stop-color:#96d0e1;stop-opacity:1" />
      <stop
         style="stop-color:#89b7e1;stop-opacity:1"
         offset="0.67819428"
         id="stop3706" />
      <stop
         id="stop3702"
         offset="1"
         style="stop-color:#699dd3;stop-opacity:1" />
    </linearGradient>
    <linearGradient
       id="linearGradient3708">
      <stop
         id="stop3710"
         offset="0"
         style="stop-color:#658db6;stop-opacity:1" />
      <stop
         style="stop-color:#527fab;stop-opacity:1;"
         offset="0.76777935"
         id="stop3716" />
      <stop
         id="stop3712"
         offset="1"
         style="stop-color:#4071a0;stop-opacity:1" />
    </linearGradient>
    <linearGradient
       id="linearGradient3750">
      <stop
         style="stop-color:#d0e2f1;stop-opacity:1"
         offset="0"
         id="stop3752" />
      <stop
         id="stop3756"
         offset="0.85580856"
         style="stop-color:#cadef0;stop-opacity:1" />
      <stop
         style="stop-color:#95bee3;stop-opacity:1"
         offset="1"
         id="stop3754" />
    </linearGradient>
    <linearGradient
       id="linearGradient3803">
      <stop
         id="stop3805"
         offset="0"
         style="stop-color:#d7def0;stop-opacity:1;" />
      <stop
         style="stop-color:#ffffff;stop-opacity:1"
         offset="0.5"
         id="stop3811" />
      <stop
         id="stop3807"
         offset="1"
         style="stop-color:#d5def0;stop-opacity:1" />
    </linearGradient>
    <linearGradient
       inkscape:collect="always"
       xlink:href="#linearGradient3795"
       id="linearGradient3801"
       x1="23.204165"
       y1="1053.158"
       x2="23.204165"
       y2="1004.8474"
       gradientUnits="userSpaceOnUse"
       gradientTransform="translate(0,-2056.7244)" />
    <linearGradient
       inkscape:collect="always"
       xlink:href="#linearGradient3795"
       id="linearGradient3859"
       x1="26.192217"
       y1="1024.0002"
       x2="28.641211"
       y2="1024.0002"
       gradientUnits="userSpaceOnUse" />
    <linearGradient
       inkscape:collect="always"
       xlink:href="#linearGradient3795"
       id="linearGradient3867"
       gradientUnits="userSpaceOnUse"
       x1="26.192217"
       y1="1024.0002"
       x2="28.641211"
       y2="1024.0002" />
    <linearGradient
       inkscape:collect="always"
       xlink:href="#linearGradient3795"
       id="linearGradient3869"
       gradientUnits="userSpaceOnUse"
       x1="26.192217"
       y1="1024.0002"
       x2="28.641211"
       y2="1024.0002" />
    <linearGradient
       inkscape:collect="always"
       xlink:href="#linearGradient3795"
       id="linearGradient3871"
       gradientUnits="userSpaceOnUse"
       x1="26.192217"
       y1="1024.0002"
       x2="28.641211"
       y2="1024.0002" />
    <linearGradient
       inkscape:collect="always"
       xlink:href="#linearGradient3795"
       id="linearGradient3877"
       gradientUnits="userSpaceOnUse"
       x1="29.718235"
       y1="1027.8575"
       x2="22.811094"
       y2="1015.5485" />
    <linearGradient
       inkscape:collect="always"
       xlink:href="#linearGradient3795"
       id="linearGradient3879"
       gradientUnits="userSpaceOnUse"
       x1="17.196316"
       y1="1006.2238"
       x2="31.448042"
       y2="1030.9086" />
    <linearGradient
       inkscape:collect="always"
       xlink:href="#linearGradient3795"
       id="linearGradient3895"
       x1="21.973417"
       y1="34.43922"
       x2="42.475323"
       y2="24.798252"
       gradientUnits="userSpaceOnUse" />
  </defs>
  <sodipodi:namedview
     id="base"
     pagecolor="#ffffff"
     bordercolor="#666666"
     borderopacity="1.0"
     inkscape:pageopacity="0.0"
     inkscape:pageshadow="2"
     inkscape:zoom="8.0000004"
     inkscape:cx="8.7761958"
     inkscape:cy="33.796185"
     inkscape:document-units="px"
     inkscape:current-layer="layer1"
     showgrid="false"
     inkscape:window-width="1280"
     inkscape:window-height="723"
     inkscape:window-x="0"
     inkscape:window-y="20"
     inkscape:window-maximized="1">
    <inkscape:grid
       type="xygrid"
       id="grid3850" />
  </sodipodi:namedview>
  <metadata
     id="metadata7">
    <rdf:RDF>
      <cc:Work
         rdf:about="">
        <dc:format>image/svg+xml</dc:format>
        <dc:type
           rdf:resource="http://purl.org/dc/dcmitype/StillImage" />
        <dc:title />
      </cc:Work>
    </rdf:RDF>
  </metadata>
  <g
     inkscape:label="Capa 1"
     inkscape:groupmode="layer"
     id="layer1"
     transform="translate(0,-1004.3622)">
    <rect
       style="fill:url(#linearGradient3801);fill-opacity:1.0;stroke:none"
       id="rect2991"
       width="48"
       height="48"
       x="0"
       y="-1052.3622"
       ry="1.9445436"
       transform="scale(1,-1)" />
    <g
       id="g3021"
       transform="translate(4.5089236,-0.17237296)">
      <path
         inkscape:connector-curvature="0"
         id="path3790"
         d="m 19.130076,1020.6256 c -7.151019,0.3276 -14.107538,3.9394 -11.1535656,11.2489 4.3090706,-1.6779 10.3091956,0.8252 7.8170286,2.0654 4.909698,4.184 17.032224,-2.5755 15.824716,-8.3254 -1.25142,-3.5028 -6.926276,-5.2436 -12.488179,-4.9889 z m -0.19066,2.0655 c 1.491724,0 2.701006,0.4126 2.701006,0.9215 0,0.509 -1.209282,0.9215 -2.701006,0.9215 -1.491724,0 -2.701005,-0.4125 -2.701005,-0.9215 0,-0.5089 1.209281,-0.9215 2.701005,-0.9215 z m 6.673073,1.5252 c 1.491724,0 2.701006,0.4127 2.701006,0.9216 0,0.5089 -1.209282,0.9215 -2.701006,0.9215 -1.491724,0 -2.701005,-0.4126 -2.701005,-0.9215 0,-0.5089 1.209281,-0.9216 2.701005,-0.9216 z m -12.265743,1.3982 c 1.491724,0 2.701005,0.4126 2.701005,0.9216 0,0.5089 -1.209281,0.9214 -2.701005,0.9214 -1.491724,0 -2.701006,-0.4125 -2.701006,-0.9214 0,-0.509 1.209282,-0.9216 2.701006,-0.9216 z m 12.20219,2.415 c 1.491724,0 2.701006,0.4126 2.701006,0.9216 0,0.5089 -1.209282,0.9215 -2.701006,0.9215 -1.491724,0 -2.701006,-0.4126 -2.701006,-0.9215 0,-0.509 1.209282,-0.9216 2.701006,-0.9216 z m -4.702927,3.4954 c 1.491723,0 2.701005,0.4127 2.701005,0.9216 0,0.5089 -1.209282,0.9215 -2.701005,0.9215 -1.491724,0 -2.701006,-0.4126 -2.701006,-0.9215 0,-0.5089 1.209282,-0.9216 2.701006,-0.9216 z"
         style="fill:#ffffff;stroke:none" />
      <g
         transform="matrix(1.5537933,0,0,1.5537933,-19.874333,-580.65205)"
         id="g3808">
        <path
           style="fill:#ffffff;stroke:none"
           d="m 31.659627,1026.0475 -8.531249,14.7765 c -0.665693,-0.013 -1.284197,-0.3405 -1.732051,-1 l 9.140671,-14.4247 c 0.614351,-0.1505 0.98856,0.066 1.122629,0.6482 z"
           id="path3804"
           inkscape:connector-curvature="0"
           sodipodi:nodetypes="ccccc" />
        <path
           style="fill:#ffffff;stroke:none"
           d="m 21.34725,1043.9583 c 0.956382,-0.1329 2.437915,-1.3967 1.746093,-3.2262 -1.658601,-0.4914 -1.281938,-0.7401 -1.281938,-0.7401 -2.278309,0.5652 -4.009757,3.2625 -3.532988,4.9772 0.302281,1.0872 0.251668,0.9753 0.251668,0.9753 0.631891,-2.101 0.643322,-1.7162 2.817165,-1.9862 z"
           id="path3806"
           inkscape:connector-curvature="0"
           sodipodi:nodetypes="cccscc" />
      </g>
    </g>
    <path
       style="fill:#ffffff;stroke:none;fill-opacity:1;opacity:0.15"
       d="M 0 0 L 0 48 L 16.78125 48 L 29.625 0 L 0 0 z "
       id="rect3790"
       transform="translate(0,1004.3622)" />
  </g>
</svg>
