<?xml version="1.0" encoding="UTF-8" standalone="no"?>
<!-- Created with Inkscape (http://www.inkscape.org/) -->

<svg
   xmlns:dc="http://purl.org/dc/elements/1.1/"
   xmlns:cc="http://creativecommons.org/ns#"
   xmlns:rdf="http://www.w3.org/1999/02/22-rdf-syntax-ns#"
   xmlns:svg="http://www.w3.org/2000/svg"
   xmlns="http://www.w3.org/2000/svg"
   xmlns:xlink="http://www.w3.org/1999/xlink"
   xmlns:sodipodi="http://sodipodi.sourceforge.net/DTD/sodipodi-0.dtd"
   xmlns:inkscape="http://www.inkscape.org/namespaces/inkscape"
   width="48"
   height="48"
   id="svg2"
   version="1.1"
   inkscape:version="0.48.3.1 r9886"
   sodipodi:docname="preferences-system.svg">
  <defs
     id="defs4">
    <linearGradient
       id="linearGradient3782">
      <stop
         id="stop3784"
         offset="0"
         style="stop-color:#6e1d1d;stop-opacity:1;" />
      <stop
         id="stop3786"
         offset="1"
         style="stop-color:#ca3f20;stop-opacity:1;" />
    </linearGradient>
    <linearGradient
       id="linearGradient3795">
      <stop
         style="stop-color:#52a2cc;stop-opacity:1;"
         offset="0"
         id="stop3797" />
      <stop
         style="stop-color:#59b3e1;stop-opacity:1;"
         offset="1"
         id="stop3799" />
    </linearGradient>
    <linearGradient
       id="linearGradient3698">
      <stop
         id="stop3700"
         offset="0"
         style="stop-color:#96d0e1;stop-opacity:1" />
      <stop
         style="stop-color:#89b7e1;stop-opacity:1"
         offset="0.67819428"
         id="stop3706" />
      <stop
         id="stop3702"
         offset="1"
         style="stop-color:#699dd3;stop-opacity:1" />
    </linearGradient>
    <linearGradient
       id="linearGradient3708">
      <stop
         id="stop3710"
         offset="0"
         style="stop-color:#658db6;stop-opacity:1" />
      <stop
         style="stop-color:#527fab;stop-opacity:1;"
         offset="0.76777935"
         id="stop3716" />
      <stop
         id="stop3712"
         offset="1"
         style="stop-color:#4071a0;stop-opacity:1" />
    </linearGradient>
    <linearGradient
       id="linearGradient3750">
      <stop
         style="stop-color:#d0e2f1;stop-opacity:1"
         offset="0"
         id="stop3752" />
      <stop
         id="stop3756"
         offset="0.85580856"
         style="stop-color:#cadef0;stop-opacity:1" />
      <stop
         style="stop-color:#95bee3;stop-opacity:1"
         offset="1"
         id="stop3754" />
    </linearGradient>
    <linearGradient
       id="linearGradient3803">
      <stop
         id="stop3805"
         offset="0"
         style="stop-color:#d7def0;stop-opacity:1;" />
      <stop
         style="stop-color:#ffffff;stop-opacity:1"
         offset="0.5"
         id="stop3811" />
      <stop
         id="stop3807"
         offset="1"
         style="stop-color:#d5def0;stop-opacity:1" />
    </linearGradient>
    <linearGradient
       inkscape:collect="always"
       xlink:href="#linearGradient3881"
       id="linearGradient3801"
       x1="23.204165"
       y1="1053.158"
       x2="23.204165"
       y2="1004.8474"
       gradientUnits="userSpaceOnUse"
       gradientTransform="translate(0.08838834,8.6914063e-6)" />
    <linearGradient
       x1="66.300034"
       y1="62.345222"
       x2="83.323959"
       y2="117.09522"
       id="linearGradient3698-5"
       xlink:href="#linearGradient3599"
       gradientUnits="userSpaceOnUse"
       gradientTransform="matrix(0.7669902,0,0,0.7669902,-0.8145051,-3.739269)" />
    <linearGradient
       id="linearGradient3599">
      <stop
         id="stop3601"
         style="stop-color:#000000;stop-opacity:0.41960785"
         offset="0" />
      <stop
         id="stop3603"
         style="stop-color:#98713b;stop-opacity:0"
         offset="1" />
    </linearGradient>
    <linearGradient
       x1="41.530895"
       y1="65.389084"
       x2="62.394035"
       y2="68.389084"
       id="linearGradient3701"
       xlink:href="#linearGradient3599"
       gradientUnits="userSpaceOnUse"
       gradientTransform="matrix(0.7669902,0,0,0.7669902,-0.8145051,-3.739269)" />
    <linearGradient
       id="linearGradient3170">
      <stop
         id="stop3172"
         style="stop-color:#000000;stop-opacity:0.41960785"
         offset="0" />
      <stop
         id="stop3174"
         style="stop-color:#98713b;stop-opacity:0"
         offset="1" />
    </linearGradient>
    <linearGradient
       x1="59.710438"
       y1="23.204762"
       x2="74.153046"
       y2="43.247578"
       id="linearGradient3703"
       xlink:href="#linearGradient3581"
       gradientUnits="userSpaceOnUse"
       gradientTransform="matrix(0.7669902,0,0,0.7669902,-0.8145051,-3.739269)" />
    <linearGradient
       id="linearGradient3581">
      <stop
         id="stop3583"
         style="stop-color:#ffffff;stop-opacity:1"
         offset="0" />
      <stop
         id="stop3585"
         style="stop-color:#ffffff;stop-opacity:0"
         offset="1" />
    </linearGradient>
    <linearGradient
       x1="62.75"
       y1="96.26342"
       x2="49"
       y2="82.75"
       id="linearGradient3705"
       xlink:href="#linearGradient3599"
       gradientUnits="userSpaceOnUse"
       gradientTransform="matrix(0.7669902,0,0,0.7669902,-0.8145051,-3.739269)" />
    <linearGradient
       id="linearGradient3181">
      <stop
         id="stop3183"
         style="stop-color:#000000;stop-opacity:0.41960785"
         offset="0" />
      <stop
         id="stop3185"
         style="stop-color:#98713b;stop-opacity:0"
         offset="1" />
    </linearGradient>
    <linearGradient
       x1="62.75"
       y1="96.26342"
       x2="49"
       y2="82.75"
       id="linearGradient3707"
       xlink:href="#linearGradient3599"
       gradientUnits="userSpaceOnUse"
       gradientTransform="matrix(0.3856985,0.7985247,0.8841857,-0.1651513,-36.612561,11.165888)" />
    <linearGradient
       id="linearGradient3188">
      <stop
         id="stop3190"
         style="stop-color:#000000;stop-opacity:0.41960785"
         offset="0" />
      <stop
         id="stop3192"
         style="stop-color:#98713b;stop-opacity:0"
         offset="1" />
    </linearGradient>
    <linearGradient
       inkscape:collect="always"
       id="linearGradient6975">
      <stop
         style="stop-color:#000000;stop-opacity:1;"
         offset="0"
         id="stop6977" />
      <stop
         style="stop-color:#000000;stop-opacity:0;"
         offset="1"
         id="stop6979" />
    </linearGradient>
    <radialGradient
       inkscape:collect="always"
       xlink:href="#linearGradient6975"
       id="radialGradient2417"
       gradientUnits="userSpaceOnUse"
       gradientTransform="matrix(1,0,0,0.282209,0,30.39355)"
       cx="26.78167"
       cy="42.343147"
       fx="26.78167"
       fy="42.343147"
       r="14.407301" />
    <linearGradient
       inkscape:collect="always"
       xlink:href="#linearGradient3881"
       id="linearGradient3801-7"
       x1="23.204165"
       y1="1053.158"
       x2="23.204165"
       y2="1004.8474"
       gradientUnits="userSpaceOnUse"
       gradientTransform="translate(0,-3.4765625e-5)" />
    <linearGradient
       id="linearGradient3881">
      <stop
         style="stop-color:#474845;stop-opacity:1;"
         offset="0"
         id="stop3883" />
      <stop
         style="stop-color:#838681;stop-opacity:1"
         offset="1"
         id="stop3885" />
    </linearGradient>
    <linearGradient
       y2="1004.8474"
       x2="23.204165"
       y1="1053.158"
       x1="23.204165"
       gradientUnits="userSpaceOnUse"
       id="linearGradient3044"
       xlink:href="#linearGradient3881"
       inkscape:collect="always"
       gradientTransform="translate(-83.573744,8.9739989)" />
  </defs>
  <sodipodi:namedview
     id="base"
     pagecolor="#ffffff"
     bordercolor="#666666"
     borderopacity="1.0"
     inkscape:pageopacity="0.0"
     inkscape:pageshadow="2"
     inkscape:zoom="5.6568545"
     inkscape:cx="2.8301389"
     inkscape:cy="9.7672975"
     inkscape:document-units="px"
     inkscape:current-layer="layer1"
     showgrid="false"
     inkscape:window-width="1280"
     inkscape:window-height="721"
     inkscape:window-x="0"
     inkscape:window-y="22"
     inkscape:window-maximized="1"
     inkscape:snap-midpoints="false" />
  <metadata
     id="metadata7">
    <rdf:RDF>
      <cc:Work
         rdf:about="">
        <dc:format>image/svg+xml</dc:format>
        <dc:type
           rdf:resource="http://purl.org/dc/dcmitype/StillImage" />
        <dc:title />
      </cc:Work>
    </rdf:RDF>
  </metadata>
  <g
     inkscape:label="Capa 1"
     inkscape:groupmode="layer"
     id="layer1"
     transform="translate(0,-1004.3622)">
    <rect
       style="fill:url(#linearGradient3801);fill-opacity:1.0;stroke:none"
       id="rect2991"
       width="48"
       height="48"
       x="0.088388346"
       y="1004.3622"
       ry="1.9445436" />
    <path
       style="opacity:0.15;fill:#ffffff;fill-opacity:1;stroke:none"
       d="m 0,1004.3622 0,48 16.78125,0 12.84375,-48 -29.625,0 z"
       id="rect3790"
       inkscape:connector-curvature="0" />
    <g
       id="g3037"
       transform="matrix(0.77924308,0,0,0.77924308,5.4055907,226.78594)">
      <path
         id="rect1644"
         d="m 16.375986,1009.4152 c -0.572669,0.1232 -1.082348,0.6093 -1.317005,1.1487 -0.170828,0.5295 0.174632,1.0363 0.590174,1.3079 0.405173,0.466 0.149854,1.1667 -0.315088,1.4739 -0.552832,0.6217 -1.427277,1.1229 -2.227039,0.6987 -0.401277,-0.1568 -0.655554,-0.5457 -1.007206,-0.7623 -0.626007,0.2498 -0.901576,0.9759 -1.444583,1.3582 -1.151077,1.0533 -1.8788466,2.4999 -2.4747454,3.9336 -1.0313263,2.6071 -1.1320019,5.8472 0.5464844,8.1936 0.1311617,0.3522 0.6320588,0.4054 0.4831378,-0.068 -0.1360398,-1.9155 0.026798,-4.0223 1.1024672,-5.6591 0.68557,-1.0952 2.068108,-1.4663 3.254312,-1.1719 1.023996,0.2041 2.048754,0.6571 2.694587,1.5483 3.447133,3.709 6.957829,7.3801 10.407182,11.0851 -0.19376,0.3907 -0.197591,0.8516 0.09213,1.1994 0.587024,0.6561 1.237238,1.2489 1.81795,1.9161 3.818378,4.0254 7.562525,8.1349 11.440915,12.0928 0.62363,0.3635 1.269311,-0.172 1.613975,-0.6777 0.506783,-0.5409 1.352997,-0.9935 1.408106,-1.8236 -0.134143,-0.8549 -1.012031,-1.2346 -1.467539,-1.8894 -4.022264,-4.2369 -7.964664,-8.5622 -12.047402,-12.732 -0.298655,-0.1811 -0.669136,-0.097 -0.964733,0.046 -3.66746,-3.8435 -7.307891,-7.7174 -10.931876,-11.613 -0.575691,-0.5157 -1.083643,-1.2414 -0.899544,-2.0687 0.137742,-0.7216 0.708282,-1.2751 1.25976,-1.6945 0.443085,-0.3274 0.941627,0.033 1.201855,0.4198 0.333689,0.4586 0.999305,0.5528 1.411098,0.1412 0.482553,-0.3757 1.048784,-1.0436 0.634007,-1.6818 -0.471947,-0.6532 -1.130721,-1.134 -1.634573,-1.7663 -0.945818,-0.9776 -1.814365,-2.0557 -2.863599,-2.9073 -0.115199,-0.044 -0.240672,-0.061 -0.363213,-0.048 z"
         style="fill:#ffffff;fill-opacity:1;stroke:none"
         inkscape:connector-curvature="0" />
      <g
         style="fill:#ffffff;fill-opacity:1;stroke:none"
         id="g7"
         transform="matrix(-0.07843968,0.00661073,-0.0070257,-0.0833636,50.495534,1045.5742)">
        <title
           id="title9">Layer 1</title>
        <g
           style="fill:#ffffff;fill-opacity:1;stroke:none"
           id="svg_2">
          <path
             stroke-miterlimit="4"
             id="rect5194"
             d="m 377.64664,187.47957 8.6484,9.22217 -232.78387,207.29502 -7.15833,14.42911 -34.2812,22.63809 -9.61393,-10.2517 26.29379,-31.15546 16.11126,-4.8822 232.78388,-207.29503 z"
             inkscape:connector-curvature="0"
             style="fill:#ffffff;fill-opacity:1;fill-rule:nonzero;stroke:none" />
          <path
             stroke-miterlimit="4"
             id="path6176"
             d="m 517.20001,13.00001 c 0,0 53.96405,8.72086 59.96234,63.940268 0,0 -140.26947,119.575352 -140.26947,119.575352 -20.82748,4.18498 -35.20837,11.02922 -44.90173,19.66117 -8.69022,7.7387 -21.32516,35.07592 -21.32516,35.07592 l -49.3624,-52.63712 c 0,0 28.43121,-11.15838 36.78143,-18.59428 9.14575,-8.66582 16.95822,-22.94016 22.91953,-42.94476 0,0 136.19546,-124.076549 136.19546,-124.076549 z"
             inkscape:connector-curvature="0"
             style="fill:#ffffff;fill-opacity:1;fill-rule:nonzero;stroke:none" />
        </g>
      </g>
    </g>
  </g>
</svg>
