<?xml version="1.0" encoding="UTF-8" standalone="no"?>
<!-- Created with Inkscape (http://www.inkscape.org/) -->

<svg
   xmlns:dc="http://purl.org/dc/elements/1.1/"
   xmlns:cc="http://creativecommons.org/ns#"
   xmlns:rdf="http://www.w3.org/1999/02/22-rdf-syntax-ns#"
   xmlns:svg="http://www.w3.org/2000/svg"
   xmlns="http://www.w3.org/2000/svg"
   xmlns:sodipodi="http://sodipodi.sourceforge.net/DTD/sodipodi-0.dtd"
   xmlns:inkscape="http://www.inkscape.org/namespaces/inkscape"
   width="32px"
   height="32px"
   id="svg3038"
   version="1.1"
   inkscape:version="0.48.4 r9939"
   sodipodi:docname="media-dvd.svg">
  <defs
     id="defs3040" />
  <sodipodi:namedview
     id="base"
     pagecolor="#ffffff"
     bordercolor="#666666"
     borderopacity="1.0"
     inkscape:pageopacity="0.0"
     inkscape:pageshadow="2"
     inkscape:zoom="11.197802"
     inkscape:cx="21.581922"
     inkscape:cy="13.457995"
     inkscape:current-layer="layer1"
     showgrid="true"
     inkscape:grid-bbox="true"
     inkscape:document-units="px"
     inkscape:window-width="1366"
     inkscape:window-height="712"
     inkscape:window-x="0"
     inkscape:window-y="27"
     inkscape:window-maximized="1">
    <inkscape:grid
       type="xygrid"
       id="grid3046" />
  </sodipodi:namedview>
  <metadata
     id="metadata3043">
    <rdf:RDF>
      <cc:Work
         rdf:about="">
        <dc:format>image/svg+xml</dc:format>
        <dc:type
           rdf:resource="http://purl.org/dc/dcmitype/StillImage" />
        <dc:title></dc:title>
      </cc:Work>
    </rdf:RDF>
  </metadata>
  <g
     id="layer1"
     inkscape:label="Layer 1"
     inkscape:groupmode="layer">
    <path
       style="fill:#919fa9;fill-opacity:1;stroke:none"
       d="M 16 1 C 7.7157287 1 1 7.7157288 1 16 C 1 24.284271 7.7157287 31 16 31 C 24.284271 31 31 24.284271 31 16 C 31 7.7157288 24.284271 1 16 1 z M 16 11 C 18.761424 11 21 13.238576 21 16 C 21 18.761424 18.761424 21 16 21 C 13.238576 21 11 18.761424 11 16 C 11 13.238576 13.238576 11 16 11 z "
       id="path3153" />
    <path
       style="fill:#919fa9;fill-opacity:1;stroke:none"
       d="M 16 12 C 13.790861 12 12 13.79086 12 16 C 12 18.209138 13.790861 20 16 20 C 18.209137 20 20 18.209138 20 16 C 20 13.79086 18.209137 12 16 12 z M 16 14 C 17.104569 14 18 14.895431 18 16 C 18 17.104569 17.104569 18 16 18 C 14.895431 18 14 17.104569 14 16 C 14 14.895431 14.895431 14 16 14 z "
       id="path3151" />
  </g>
</svg>
