<?xml version="1.0" encoding="UTF-8" standalone="no"?>
<!-- Created with Inkscape (http://www.inkscape.org/) -->

<svg
   xmlns:dc="http://purl.org/dc/elements/1.1/"
   xmlns:cc="http://creativecommons.org/ns#"
   xmlns:rdf="http://www.w3.org/1999/02/22-rdf-syntax-ns#"
   xmlns:svg="http://www.w3.org/2000/svg"
   xmlns="http://www.w3.org/2000/svg"
   xmlns:sodipodi="http://sodipodi.sourceforge.net/DTD/sodipodi-0.dtd"
   xmlns:inkscape="http://www.inkscape.org/namespaces/inkscape"
   width="32px"
   height="32px"
   id="svg3021"
   version="1.1"
   inkscape:version="0.48.4 r9939"
   sodipodi:docname="hdd_unmount.svg">
  <defs
     id="defs3023" />
  <sodipodi:namedview
     id="base"
     pagecolor="#ffffff"
     bordercolor="#666666"
     borderopacity="1.0"
     inkscape:pageopacity="0.0"
     inkscape:pageshadow="2"
     inkscape:zoom="11.197802"
     inkscape:cx="16"
     inkscape:cy="16"
     inkscape:current-layer="layer1"
     showgrid="true"
     inkscape:grid-bbox="true"
     inkscape:document-units="px"
     inkscape:window-width="1366"
     inkscape:window-height="712"
     inkscape:window-x="0"
     inkscape:window-y="27"
     inkscape:window-maximized="1">
    <inkscape:grid
       type="xygrid"
       id="grid3042" />
  </sodipodi:namedview>
  <metadata
     id="metadata3026">
    <rdf:RDF>
      <cc:Work
         rdf:about="">
        <dc:format>image/svg+xml</dc:format>
        <dc:type
           rdf:resource="http://purl.org/dc/dcmitype/StillImage" />
        <dc:title></dc:title>
      </cc:Work>
    </rdf:RDF>
  </metadata>
  <g
     id="layer1"
     inkscape:label="Layer 1"
     inkscape:groupmode="layer">
    <path
       style="fill:#919fa9;fill-opacity:1;stroke:none"
       d="m 16,6 c -4.420402,0 -8,3.5796598 -8,7.999927 0,4.420447 3.579598,8.021317 8,8.021317 4.420403,0 8,-3.60087 8,-8.021317 C 24,9.5796598 20.420403,6 16,6 z m 0,6.531897 c 0.814285,0 1.468084,0.653756 1.468084,1.46803 0,0.814274 -0.653799,1.48942 -1.468084,1.48942 -0.814285,0 -1.468086,-0.675146 -1.468086,-1.48942 0,-0.814274 0.653801,-1.46803 1.468086,-1.46803 z"
       id="path2985"
       inkscape:connector-curvature="0"
       sodipodi:nodetypes="ssssssssss" />
    <path
       style="font-size:medium;font-style:normal;font-variant:normal;font-weight:normal;font-stretch:normal;text-indent:0;text-align:start;text-decoration:none;line-height:normal;letter-spacing:normal;word-spacing:normal;text-transform:none;direction:ltr;block-progression:tb;writing-mode:lr-tb;text-anchor:start;baseline-shift:baseline;color:#000000;fill:#919fa9;fill-opacity:1;stroke:none;stroke-width:2;marker:none;visibility:visible;display:inline;overflow:visible;enable-background:accumulate;font-family:Sans;-inkscape-font-specification:Sans"
       d="m 6.5625,2.0000001 c -1.41144,0 -2.5625,1.1511 -2.5625,2.5625 L 4,27.476857 c 0,1.4115 1.15106,2.5938 2.5625,2.5938 l 18.838935,0 c 1.41144,0 2.5625,-1.1823 2.5625,-2.5938 l 0,-22.9143569 c 0,-1.4114 -1.15106,-2.5625 -2.5625,-2.5625 z m 0,2 18.838935,0 c 0.338034,0 0.5625,0.2245 0.5625,0.5625 l 0,22.9143569 c 0,0.3381 -0.224466,0.5938 -0.5625,0.5938 l -18.838935,0 C 6.224466,28.070657 6,27.814957 6,27.476857 L 6,4.5625001 c 0,-0.338 0.224466,-0.5625 0.5625,-0.5625 z"
       id="rect3016"
       inkscape:connector-curvature="0"
       sodipodi:nodetypes="ssssssssssssssssss" />
    <path
       style="fill:#919fa9;fill-opacity:1;stroke:none"
       d="m 18,22 4,5 2,0 0,-2 z"
       id="path3786"
       inkscape:connector-curvature="0"
       sodipodi:nodetypes="ccccc" />
  </g>
</svg>
