<?xml version="1.0" encoding="UTF-8" standalone="no"?>
<!-- Created with Inkscape (http://www.inkscape.org/) -->

<svg
   xmlns:dc="http://purl.org/dc/elements/1.1/"
   xmlns:cc="http://creativecommons.org/ns#"
   xmlns:rdf="http://www.w3.org/1999/02/22-rdf-syntax-ns#"
   xmlns:svg="http://www.w3.org/2000/svg"
   xmlns="http://www.w3.org/2000/svg"
   xmlns:sodipodi="http://sodipodi.sourceforge.net/DTD/sodipodi-0.dtd"
   xmlns:inkscape="http://www.inkscape.org/namespaces/inkscape"
   width="24"
   height="24"
   id="svg3051"
   version="1.1"
   inkscape:version="0.48.3.1 r9886"
   sodipodi:docname="dropboxstatus-x.svg">
  <defs
     id="defs3053" />
  <sodipodi:namedview
     id="base"
     pagecolor="#ffffff"
     bordercolor="#666666"
     borderopacity="1.0"
     inkscape:pageopacity="0.0"
     inkscape:pageshadow="2"
     inkscape:zoom="15.696217"
     inkscape:cx="7.6214255"
     inkscape:cy="8"
     inkscape:current-layer="layer1"
     showgrid="true"
     inkscape:grid-bbox="true"
     inkscape:document-units="px"
     inkscape:window-width="1366"
     inkscape:window-height="709"
     inkscape:window-x="0"
     inkscape:window-y="27"
     inkscape:window-maximized="1">
    <inkscape:grid
       type="xygrid"
       id="grid3846"
       empspacing="5"
       visible="true"
       enabled="true"
       snapvisiblegridlinesonly="true" />
  </sodipodi:namedview>
  <metadata
     id="metadata3056">
    <rdf:RDF>
      <cc:Work
         rdf:about="">
        <dc:format>image/svg+xml</dc:format>
        <dc:type
           rdf:resource="http://purl.org/dc/dcmitype/StillImage" />
        <dc:title></dc:title>
      </cc:Work>
    </rdf:RDF>
  </metadata>
  <g
     id="layer1"
     inkscape:label="Layer 1"
     inkscape:groupmode="layer"
     transform="translate(0,8)">
    <path
       style="opacity:0.8;fill:#000000;fill-opacity:1;stroke:none"
       d="M 9,-3 4,0 7,2 12,-1 9,-3 z m 3,2 5,3 3,-2 -5,-3 -3,2 z M 17,2 12,5 7,2 4,4 7,6 7,8 12,11 13,10.40625 13,5 18.5,5 20,4 17,2 z"
       id="path3105"
       inkscape:connector-curvature="0" />
    <path
       style="opacity:0.8;fill:#cc0000;fill-opacity:1;stroke:none"
       d="m 20,12 -2,0 0,-1 -2,0 0,1 -2,0 0,-2 1,0 0,-2 -1,0 0,-2 2,0 0,1 2,0 0,-1 2,0 0,2 -1,0 0,2 1,0 0,2 z"
       id="path2984"
       inkscape:connector-curvature="0" />
  </g>
</svg>
