<?xml version="1.0" encoding="UTF-8" standalone="no"?>
<!-- Created with Inkscape (http://www.inkscape.org/) -->

<svg
   xmlns:dc="http://purl.org/dc/elements/1.1/"
   xmlns:cc="http://creativecommons.org/ns#"
   xmlns:rdf="http://www.w3.org/1999/02/22-rdf-syntax-ns#"
   xmlns:svg="http://www.w3.org/2000/svg"
   xmlns="http://www.w3.org/2000/svg"
   xmlns:sodipodi="http://sodipodi.sourceforge.net/DTD/sodipodi-0.dtd"
   xmlns:inkscape="http://www.inkscape.org/namespaces/inkscape"
   id="svg3196"
   height="24"
   width="24"
   version="1.0"
   inkscape:version="0.48.4 r9939"
   sodipodi:docname="gpm-battery-empty.svg">
  <metadata
     id="metadata10">
    <rdf:RDF>
      <cc:Work
         rdf:about="">
        <dc:format>image/svg+xml</dc:format>
        <dc:type
           rdf:resource="http://purl.org/dc/dcmitype/StillImage" />
        <dc:title></dc:title>
      </cc:Work>
    </rdf:RDF>
  </metadata>
  <defs
     id="defs8" />
  <sodipodi:namedview
     pagecolor="#ffffff"
     bordercolor="#666666"
     borderopacity="1"
     objecttolerance="10"
     gridtolerance="10"
     guidetolerance="10"
     inkscape:pageopacity="0"
     inkscape:pageshadow="2"
     inkscape:window-width="1366"
     inkscape:window-height="712"
     id="namedview6"
     showgrid="true"
     inkscape:zoom="14.75"
     inkscape:cx="11.058639"
     inkscape:cy="10.332271"
     inkscape:window-x="0"
     inkscape:window-y="27"
     inkscape:window-maximized="1"
     inkscape:current-layer="svg3196">
    <inkscape:grid
       type="xygrid"
       id="grid2987"
       empspacing="5"
       visible="true"
       enabled="true"
       snapvisiblegridlinesonly="true" />
  </sodipodi:namedview>
  <g
     id="g14021-4-9"
     transform="translate(-108.00004,-163)"
     style="fill:#d42b2b;fill-opacity:1">
    <path
       sodipodi:nodetypes="ccccccccccccccccccccccccccc"
       inkscape:connector-curvature="0"
       id="rect14006-8-9"
       d="m 117.8125,167 c -0.4584,0.0875 -0.82072,0.5334 -0.8125,1 l 0,1 -1,0 c -0.0312,-0.001 -0.0625,-0.001 -0.0937,0 -0.49158,0.0463 -0.90838,0.50624 -0.90625,1 l 0,12 c 5e-5,0.52358 0.47642,0.99995 1,1 l 8,0 c 0.52358,-5e-5 0.99995,-0.47642 1,-1 l 0,-12 c -5e-5,-0.52358 -0.47642,-0.99995 -1,-1 l -1,0 0,-1 c -5e-5,-0.52358 -0.47642,-0.99995 -1,-1 l -4,0 c -0.0312,-0.001 -0.0625,-0.001 -0.0937,0 -0.0312,-0.001 -0.0625,-0.001 -0.0937,0 z m -0.8125,4 2,0 0,-2 2,0 0,2 2,0 0,10 -6,0 z"
       style="font-size:medium;font-style:normal;font-variant:normal;font-weight:normal;font-stretch:normal;text-indent:0;text-align:start;text-decoration:none;line-height:normal;letter-spacing:normal;word-spacing:normal;text-transform:none;direction:ltr;block-progression:tb;writing-mode:lr-tb;text-anchor:start;baseline-shift:baseline;color:#000000;fill:#d42b2b;fill-opacity:1;fill-rule:nonzero;stroke:none;stroke-width:2;marker:none;visibility:visible;display:inline;overflow:visible;enable-background:accumulate;font-family:Sans;-inkscape-font-specification:Sans" />
  </g>
</svg>
