<?xml version="1.0" encoding="UTF-8" standalone="no"?>
<!-- Created with Inkscape (http://www.inkscape.org/) -->

<svg
   xmlns:dc="http://purl.org/dc/elements/1.1/"
   xmlns:cc="http://creativecommons.org/ns#"
   xmlns:rdf="http://www.w3.org/1999/02/22-rdf-syntax-ns#"
   xmlns:svg="http://www.w3.org/2000/svg"
   xmlns="http://www.w3.org/2000/svg"
   xmlns:sodipodi="http://sodipodi.sourceforge.net/DTD/sodipodi-0.dtd"
   xmlns:inkscape="http://www.inkscape.org/namespaces/inkscape"
   id="svg2"
   height="24"
   width="24"
   version="1.1"
   viewBox="0 0 19.2 19.2"
   inkscape:version="0.48.4 r9939"
   sodipodi:docname="banshee-panel.svg">
  <metadata
     id="metadata10">
    <rdf:RDF>
      <cc:Work
         rdf:about="">
        <dc:format>image/svg+xml</dc:format>
        <dc:type
           rdf:resource="http://purl.org/dc/dcmitype/StillImage" />
      </cc:Work>
    </rdf:RDF>
  </metadata>
  <defs
     id="defs8" />
  <sodipodi:namedview
     pagecolor="#ffffff"
     bordercolor="#666666"
     borderopacity="1"
     objecttolerance="10"
     gridtolerance="10"
     guidetolerance="10"
     inkscape:pageopacity="0"
     inkscape:pageshadow="2"
     inkscape:window-width="1366"
     inkscape:window-height="709"
     id="namedview6"
     showgrid="true"
     inkscape:zoom="13.906433"
     inkscape:cx="13.697788"
     inkscape:cy="9.7064972"
     inkscape:window-x="0"
     inkscape:window-y="27"
     inkscape:window-maximized="1"
     inkscape:current-layer="svg2">
    <inkscape:grid
       type="xygrid"
       id="grid2987"
       empspacing="5"
       visible="true"
       enabled="true"
       snapvisiblegridlinesonly="true" />
  </sodipodi:namedview>
  <path
     style="font-size:medium;font-style:normal;font-variant:normal;font-weight:normal;font-stretch:normal;text-indent:0;text-align:start;text-decoration:none;line-height:normal;letter-spacing:normal;word-spacing:normal;text-transform:none;direction:ltr;block-progression:tb;writing-mode:lr-tb;text-anchor:start;baseline-shift:baseline;color:#000000;fill:#000000;fill-opacity:1;stroke:none;stroke-width:1.60000001999999997;marker:none;visibility:visible;display:inline;overflow:visible;enable-background:accumulate;font-family:Sans;-inkscape-font-specification:Sans;opacity:0.8"
     d="M 7.1875,3.1875 A 0.80008001,0.80008001 0 0 0 6.625,3.4375 L 4.21875,5.84375 a 0.80661934,0.80661934 0 1 0 1.15625,1.125 l 1.03125,-1.03125 0,3.96875 a 0.80008001,0.80008001 0 0 0 0,0.0625 c -4.146e-4,0.020879 0,0.041539 0,0.0625 a 0.80008001,0.80008001 0 0 0 0.0625,0.3125 0.80008001,0.80008001 0 0 0 0.03125,0.0625 c 0.2080867,1.760392 1.7055666,3.1875 3.5,3.1875 1.926992,0 3.59375,-1.622642 3.59375,-3.5625 0,-0.9699292 -0.44527,-1.8408311 -1.09375,-2.5 -0.64848,-0.6591689 -1.523637,-1.125 -2.5,-1.125 -0.7565035,0 -1.422007,0.318412 -2,0.75 L 8,4 A 0.80008001,0.80008001 0 0 0 7.1875,3.1875 z M 10,8 c 0.449537,0 0.979955,0.2546939 1.375,0.65625 C 11.770045,9.0578061 12,9.5752792 12,10.03125 12,10.943192 10.924808,12 10,12 9.0751917,12 8,10.943192 8,10.03125 8,9.5752792 8.2299674,9.0577559 8.625,8.65625 9.0200326,8.2547441 9.5504252,8 10,8 z"
     id="path5"
     inkscape:connector-curvature="0" />
  <path
     style="font-size:medium;font-style:normal;font-variant:normal;font-weight:normal;font-stretch:normal;text-indent:0;text-align:start;text-decoration:none;line-height:normal;letter-spacing:normal;word-spacing:normal;text-transform:none;direction:ltr;block-progression:tb;writing-mode:lr-tb;text-anchor:start;baseline-shift:baseline;color:#000000;fill:#000000;fill-opacity:1;stroke:none;stroke-width:1.59977054999999990;marker:none;visibility:visible;display:inline;overflow:visible;enable-background:accumulate;font-family:Sans;-inkscape-font-specification:Sans;opacity:0.8"
     d="M 9.375,4.03125 A 0.80918796,0.80918796 0 1 0 9.65625,5.625 c 1.79454,-0.1429585 3.709286,0.9965729 4.40625,2.65625 0.696965,1.6596785 0.171056,3.849994 -1.1875,5.03125 -1.358556,1.181256 -3.5782548,1.38955 -5.125,0.46875 -1.5467439,-0.920799 -2.4221544,-2.992728 -2.03125,-4.75 A 0.79996526,0.79996526 0 1 0 4.15625,8.6875 c -0.5488613,2.467352 0.5901328,5.128641 2.75,6.4375 l 0.03125,0.03125 c 2.1720419,1.293048 5.049996,1.048736 6.96875,-0.59375 l 0.03125,-0.03125 c 1.91859,-1.668203 2.578139,-4.499629 1.59375,-6.84375 -0.98439,-2.3441226 -3.465513,-3.858155 -6,-3.65625 a 0.79996526,0.79996526 0 0 0 -0.15625,0 z"
     id="path2819"
     inkscape:connector-curvature="0" />
</svg>
