<?xml version="1.0" encoding="UTF-8" standalone="no"?>
<!-- Created with Inkscape (http://www.inkscape.org/) -->

<svg
   xmlns:dc="http://purl.org/dc/elements/1.1/"
   xmlns:cc="http://creativecommons.org/ns#"
   xmlns:rdf="http://www.w3.org/1999/02/22-rdf-syntax-ns#"
   xmlns:svg="http://www.w3.org/2000/svg"
   xmlns="http://www.w3.org/2000/svg"
   xmlns:sodipodi="http://sodipodi.sourceforge.net/DTD/sodipodi-0.dtd"
   xmlns:inkscape="http://www.inkscape.org/namespaces/inkscape"
   width="24"
   height="24"
   id="svg2"
   version="1.1"
   inkscape:version="0.48.4 r9939"
   sodipodi:docname="empathy-offline.svg">
  <defs
     id="defs4" />
  <sodipodi:namedview
     id="base"
     pagecolor="#ffffff"
     bordercolor="#666666"
     borderopacity="1.0"
     inkscape:pageopacity="0.0"
     inkscape:pageshadow="2"
     inkscape:zoom="15.839192"
     inkscape:cx="-0.23359045"
     inkscape:cy="11.311968"
     inkscape:document-units="px"
     inkscape:current-layer="layer1"
     showgrid="true"
     inkscape:window-width="1366"
     inkscape:window-height="712"
     inkscape:window-x="0"
     inkscape:window-y="27"
     inkscape:window-maximized="1">
    <inkscape:grid
       type="xygrid"
       id="grid2985"
       empspacing="5"
       visible="true"
       enabled="true"
       snapvisiblegridlinesonly="true" />
  </sodipodi:namedview>
  <metadata
     id="metadata7">
    <rdf:RDF>
      <cc:Work
         rdf:about="">
        <dc:format>image/svg+xml</dc:format>
        <dc:type
           rdf:resource="http://purl.org/dc/dcmitype/StillImage" />
        <dc:title></dc:title>
      </cc:Work>
    </rdf:RDF>
  </metadata>
  <g
     inkscape:label="Ebene 1"
     inkscape:groupmode="layer"
     id="layer1"
     transform="translate(0,-1028.3622)">
    <path
       inkscape:connector-curvature="0"
       style="font-size:medium;font-style:normal;font-variant:normal;font-weight:normal;font-stretch:normal;text-indent:0;text-align:start;text-decoration:none;line-height:normal;letter-spacing:normal;word-spacing:normal;text-transform:none;direction:ltr;block-progression:tb;writing-mode:lr-tb;text-anchor:start;baseline-shift:baseline;color:#000000;fill:#555555;fill-opacity:1;fill-rule:nonzero;stroke:none;stroke-width:2;marker:none;visibility:visible;display:inline;overflow:visible;enable-background:accumulate;font-family:Sans;-inkscape-font-specification:Sans"
       d="m 4.9062541,1032.3626 c -0.49159,0.046 -0.90838,0.5062 -0.90625,1 l 0,10 c 5e-5,0.5235 0.47641,0.9999 1,1 l 7.9999999,0 4,4 0,-4 2,0 c 0.52358,-10e-5 0.99995,-0.4765 1,-1 l 0,-10 c -5e-5,-0.5236 -0.47642,-1 -1,-1 l -13.9999999,0 c -0.0312,-10e-4 -0.0625,-10e-4 -0.0937,0 z m 4,1.9687 a 1.0001,1.0001 0 0 1 0.8125,0.3125 l 2.2812499,2.2813 2.28125,-2.3125 a 1.016466,1.016466 0 1 1 1.4375,1.4375 l -2.28125,2.3125 2.28125,2.2812 a 1.016466,1.016466 0 1 1 -1.4375,1.4375 l -2.28125,-2.2812 -2.2812499,2.25 a 1.0001,1.0001 0 0 1 -1.71875,-0.5 1.0001,1.0001 0 0 1 0.28125,-0.9375 l 2.2812499,-2.25 -2.2812499,-2.2813 a 1.0001,1.0001 0 0 1 0.5,-1.7187 1.0001,1.0001 0 0 1 0.125,-0.031 z"
       id="rect14666-4" />
  </g>
</svg>
