<?xml version="1.0" encoding="UTF-8" standalone="no"?>
<!-- Created with Inkscape (http://www.inkscape.org/) -->

<svg
   xmlns:dc="http://purl.org/dc/elements/1.1/"
   xmlns:cc="http://creativecommons.org/ns#"
   xmlns:rdf="http://www.w3.org/1999/02/22-rdf-syntax-ns#"
   xmlns:svg="http://www.w3.org/2000/svg"
   xmlns="http://www.w3.org/2000/svg"
   xmlns:sodipodi="http://sodipodi.sourceforge.net/DTD/sodipodi-0.dtd"
   xmlns:inkscape="http://www.inkscape.org/namespaces/inkscape"
   version="1.0"
   width="24"
   height="24"
   id="svg3196"
   inkscape:version="0.48.4 r9939"
   sodipodi:docname="rhythmbox-notplaying.svg">
  <metadata
     id="metadata10">
    <rdf:RDF>
      <cc:Work
         rdf:about="">
        <dc:format>image/svg+xml</dc:format>
        <dc:type
           rdf:resource="http://purl.org/dc/dcmitype/StillImage" />
      </cc:Work>
    </rdf:RDF>
  </metadata>
  <sodipodi:namedview
     pagecolor="#ffffff"
     bordercolor="#666666"
     borderopacity="1"
     objecttolerance="10"
     gridtolerance="10"
     guidetolerance="10"
     inkscape:pageopacity="0"
     inkscape:pageshadow="2"
     inkscape:window-width="1366"
     inkscape:window-height="709"
     id="namedview8"
     showgrid="true"
     inkscape:zoom="27.812867"
     inkscape:cx="8.560473"
     inkscape:cy="10.535914"
     inkscape:window-x="0"
     inkscape:window-y="27"
     inkscape:window-maximized="1"
     inkscape:current-layer="svg3196">
    <inkscape:grid
       type="xygrid"
       id="grid2987" />
  </sodipodi:namedview>
  <defs
     id="defs3198" />
  <path
     style="opacity:0.8;fill:#000000;fill-opacity:1;stroke:none"
     d="m 6,5 0,13 1,0 0,1 7,0 0,-2.5 0,-1.5 4,0 L 18,5 17,5 17,4 7,4 7,5 z m 6,1 c 2.761424,0 4,1.2385763 4,4 0,2.761424 -1.238576,4 -4,4 C 9.2385763,14 8,12.761424 8,10 8,7.2385763 9.2385763,6 12,6 z"
     id="rect2989"
     inkscape:connector-curvature="0"
     sodipodi:nodetypes="ccccccccccccccsssss" />
  <path
     sodipodi:type="arc"
     style="opacity:0.8;fill:#000000;fill-opacity:1;stroke:none"
     id="path2999"
     sodipodi:cx="12"
     sodipodi:cy="10"
     sodipodi:rx="2"
     sodipodi:ry="2"
     d="m 14,10 a 2,2 0 1 1 -4,0 2,2 0 1 1 4,0 z" />
  <path
     style="fill:#000000;stroke:none;stroke-width:1px;stroke-linecap:butt;stroke-linejoin:miter;stroke-opacity:1;fill-opacity:1;opacity:0.8"
     d="m 20,20 -2,0 0,-4 2,0 z"
     id="path3007"
     inkscape:connector-curvature="0" />
  <path
     style="fill:#000000;stroke:none;stroke-width:1px;stroke-linecap:butt;stroke-linejoin:miter;stroke-opacity:1;fill-opacity:1;opacity:0.8"
     d="m 17,20 -2,0 0,-4 2,0 z"
     id="path3777"
     inkscape:connector-curvature="0" />
</svg>
