<?xml version="1.0" encoding="UTF-8" standalone="no"?>
<!-- Created with Inkscape (http://www.inkscape.org/) -->

<svg
   xmlns:dc="http://purl.org/dc/elements/1.1/"
   xmlns:cc="http://creativecommons.org/ns#"
   xmlns:rdf="http://www.w3.org/1999/02/22-rdf-syntax-ns#"
   xmlns:svg="http://www.w3.org/2000/svg"
   xmlns="http://www.w3.org/2000/svg"
   xmlns:sodipodi="http://sodipodi.sourceforge.net/DTD/sodipodi-0.dtd"
   xmlns:inkscape="http://www.inkscape.org/namespaces/inkscape"
   id="svg2"
   height="24"
   width="24"
   version="1.0"
   inkscape:version="0.48.4 r9939"
   sodipodi:docname="task-due.svg">
  <metadata
     id="metadata31">
    <rdf:RDF>
      <cc:Work
         rdf:about="">
        <dc:format>image/svg+xml</dc:format>
        <dc:type
           rdf:resource="http://purl.org/dc/dcmitype/StillImage" />
        <dc:title></dc:title>
      </cc:Work>
    </rdf:RDF>
  </metadata>
  <sodipodi:namedview
     pagecolor="#ffffff"
     bordercolor="#666666"
     borderopacity="1"
     objecttolerance="10"
     gridtolerance="10"
     guidetolerance="10"
     inkscape:pageopacity="0"
     inkscape:pageshadow="2"
     inkscape:window-width="1366"
     inkscape:window-height="709"
     id="namedview29"
     showgrid="true"
     inkscape:zoom="19.666667"
     inkscape:cx="13.813244"
     inkscape:cy="12.072456"
     inkscape:window-x="0"
     inkscape:window-y="27"
     inkscape:window-maximized="1"
     inkscape:current-layer="svg2">
    <inkscape:grid
       type="xygrid"
       id="grid3789" />
  </sodipodi:namedview>
  <defs
     id="defs4">
    <linearGradient
       id="linearGradient2990"
       y2="47.013"
       gradientUnits="userSpaceOnUse"
       x2="25.132"
       gradientTransform="matrix(.51431 0 0 .46669 -1.8439 -1.2)"
       y1="6.7287"
       x1="25.132">
      <stop
         id="stop3602"
         style="stop-color:#f4f4f4"
         offset="0" />
      <stop
         id="stop3604"
         style="stop-color:#dbdbdb"
         offset="1" />
    </linearGradient>
    <linearGradient
       id="linearGradient2992"
       y2="-.10106"
       gradientUnits="userSpaceOnUse"
       x2="-47.636"
       gradientTransform="matrix(.41530 0 0 .43675 28.711 -1.7201)"
       y1="17.518"
       x1="-56.333">
      <stop
         id="stop3933"
         style="stop-color:#787a75"
         offset="0" />
      <stop
         id="stop3935"
         style="stop-color:#cbcbcb"
         offset="1" />
    </linearGradient>
    <linearGradient
       id="linearGradient2906"
       y2="47.013"
       gradientUnits="userSpaceOnUse"
       x2="25.132"
       gradientTransform="matrix(.51431 0 0 .46669 -4.8439 -3.2)"
       y1="6.7287"
       x1="25.132">
      <stop
         id="stop3620"
         style="stop-color:#a68b60"
         offset="0" />
      <stop
         id="stop3622"
         style="stop-color:#9b784b"
         offset="1" />
    </linearGradient>
    <linearGradient
       id="linearGradient2933"
       y2="96.245"
       gradientUnits="userSpaceOnUse"
       x2="321.58"
       gradientTransform="matrix(.41035 0 0 .51289 -118.99 -42.965)"
       y1="86.05"
       x1="321.58">
      <stop
         id="stop3271"
         style="stop-color:#787878"
         offset="0" />
      <stop
         id="stop3273"
         style="stop-color:#bebebe"
         offset=".34447" />
      <stop
         id="stop3275"
         style="stop-color:#c8c8c8"
         offset=".37315" />
      <stop
         id="stop3277"
         style="stop-color:#e6e6e6"
         offset=".48991" />
      <stop
         id="stop3279"
         style="stop-color:#8c8c8c"
         offset="1" />
    </linearGradient>
    <linearGradient
       id="linearGradient2935"
       y2="40.186"
       gradientUnits="userSpaceOnUse"
       x2="22.452"
       gradientTransform="matrix(.41182 0 0 .51282 2.4498 -14.24)"
       y1="30.05"
       x1="22.452">
      <stop
         id="stop3261"
         style="stop-color:#787878"
         offset="0" />
      <stop
         id="stop3263"
         style="stop-color:#828282"
         offset=".36564" />
      <stop
         id="stop3267"
         style="stop-color:#464646"
         offset="1" />
    </linearGradient>
  </defs>
  <path
     style="opacity:0.8;fill:#000000;fill-opacity:1;stroke:none"
     d="M 7 5 C 5.892 5 5 5.892 5 7 L 5 17 C 5 18.108 5.892 19 7 19 L 10 19 L 17 19 C 18.108 19 19 18.108 19 17 L 19 7 C 19 5.892 18.108 5 17 5 L 14 5 L 7 5 z M 8 7 L 13 7 L 16 7 C 16 7 17 6.892 17 8 L 17 13.5625 C 17.05298 13.87507 17.06109 14.200774 17 14.5 L 17 16 C 17 16 17.108 17 16 17 L 12.46875 17 L 11 17 L 8 17 C 8 17 7 17.108 7 16 L 7 10.4375 C 6.947017 10.12493 6.9389098 9.799226 7 9.5 L 7 8 C 7 8 6.892 7 8 7 z M 8 8 L 8 10 L 10 12 L 8 14 L 8 16 L 10 16 L 12 14 L 14 16 L 16 16 L 16 14 L 14 12 L 16 10 L 16 8 L 14 8 L 12 10 L 10 8 L 8 8 z "
     id="rect3795" />
</svg>
