<?xml version="1.0" encoding="UTF-8" standalone="no"?>
<!-- Created with Inkscape (http://www.inkscape.org/) -->

<svg
   xmlns:dc="http://purl.org/dc/elements/1.1/"
   xmlns:cc="http://creativecommons.org/ns#"
   xmlns:rdf="http://www.w3.org/1999/02/22-rdf-syntax-ns#"
   xmlns:svg="http://www.w3.org/2000/svg"
   xmlns="http://www.w3.org/2000/svg"
   xmlns:sodipodi="http://sodipodi.sourceforge.net/DTD/sodipodi-0.dtd"
   xmlns:inkscape="http://www.inkscape.org/namespaces/inkscape"
   width="24"
   height="24"
   id="svg2"
   version="1.1"
   inkscape:version="0.48.4 r9939"
   sodipodi:docname="user-invisible.svg">
  <defs
     id="defs4" />
  <sodipodi:namedview
     id="base"
     pagecolor="#ffffff"
     bordercolor="#666666"
     borderopacity="1.0"
     inkscape:pageopacity="0.0"
     inkscape:pageshadow="2"
     inkscape:zoom="11.2"
     inkscape:cx="35.485487"
     inkscape:cy="2.690767"
     inkscape:document-units="px"
     inkscape:current-layer="layer1"
     showgrid="true"
     inkscape:window-width="1366"
     inkscape:window-height="709"
     inkscape:window-x="0"
     inkscape:window-y="27"
     inkscape:window-maximized="1">
    <inkscape:grid
       type="xygrid"
       id="grid2985"
       empspacing="5"
       visible="true"
       enabled="true"
       snapvisiblegridlinesonly="true" />
  </sodipodi:namedview>
  <metadata
     id="metadata7">
    <rdf:RDF>
      <cc:Work
         rdf:about="">
        <dc:format>image/svg+xml</dc:format>
        <dc:type
           rdf:resource="http://purl.org/dc/dcmitype/StillImage" />
        <dc:title />
      </cc:Work>
    </rdf:RDF>
  </metadata>
  <g
     inkscape:label="Ebene 1"
     inkscape:groupmode="layer"
     id="layer1"
     transform="translate(0,-1028.3622)">
    <path
       style="fill:#000000;fill-opacity:1;stroke:none;opacity:0.3"
       d="M 4 4 L 4 16 L 13 16 L 17 20 L 17 16 L 20 16 L 20 4 L 4 4 z M 5 5 L 6 5 L 6 6 L 7 6 L 7 5 L 8 5 L 8 6 L 9 6 L 9 5 L 10 5 L 10 6 L 11 6 L 11 5 L 12 5 L 12 6 L 13 6 L 13 5 L 14 5 L 14 6 L 15 6 L 15 5 L 16 5 L 16 6 L 17 6 L 17 5 L 18 5 L 18 6 L 19 6 L 19 7 L 18 7 L 18 8 L 19 8 L 19 9 L 18 9 L 18 10 L 19 10 L 19 11 L 18 11 L 18 12 L 19 12 L 19 13 L 18 13 L 18 14 L 19 14 L 19 15 L 18 15 L 18 14 L 17 14 L 17 15 L 16 15 L 16 14 L 15 14 L 15 15 L 14 15 L 14 14 L 13 14 L 13 15 L 12 15 L 12 14 L 11 14 L 11 15 L 10 15 L 10 14 L 9 14 L 9 15 L 8 15 L 8 14 L 7 14 L 7 15 L 6 15 L 6 14 L 5 14 L 5 13 L 6 13 L 6 12 L 5 12 L 5 11 L 6 11 L 6 10 L 5 10 L 5 9 L 6 9 L 6 8 L 5 8 L 5 7 L 6 7 L 6 6 L 5 6 L 5 5 z M 6 7 L 6 8 L 7 8 L 7 7 L 6 7 z M 7 7 L 8 7 L 8 6 L 7 6 L 7 7 z M 8 7 L 8 8 L 9 8 L 9 7 L 8 7 z M 9 7 L 10 7 L 10 6 L 9 6 L 9 7 z M 10 7 L 10 8 L 11 8 L 11 7 L 10 7 z M 11 7 L 12 7 L 12 6 L 11 6 L 11 7 z M 12 7 L 12 8 L 13 8 L 13 7 L 12 7 z M 13 7 L 14 7 L 14 6 L 13 6 L 13 7 z M 14 7 L 14 8 L 15 8 L 15 7 L 14 7 z M 15 7 L 16 7 L 16 6 L 15 6 L 15 7 z M 16 7 L 16 8 L 17 8 L 17 7 L 16 7 z M 17 7 L 18 7 L 18 6 L 17 6 L 17 7 z M 17 8 L 17 9 L 18 9 L 18 8 L 17 8 z M 17 9 L 16 9 L 16 10 L 17 10 L 17 9 z M 17 10 L 17 11 L 18 11 L 18 10 L 17 10 z M 17 11 L 16 11 L 16 12 L 17 12 L 17 11 z M 17 12 L 17 13 L 18 13 L 18 12 L 17 12 z M 17 13 L 16 13 L 16 14 L 17 14 L 17 13 z M 16 13 L 16 12 L 15 12 L 15 13 L 16 13 z M 15 13 L 14 13 L 14 14 L 15 14 L 15 13 z M 14 13 L 14 12 L 13 12 L 13 13 L 14 13 z M 13 13 L 12 13 L 12 14 L 13 14 L 13 13 z M 12 13 L 12 12 L 11 12 L 11 13 L 12 13 z M 11 13 L 10 13 L 10 14 L 11 14 L 11 13 z M 10 13 L 10 12 L 9 12 L 9 13 L 10 13 z M 9 13 L 8 13 L 8 14 L 9 14 L 9 13 z M 8 13 L 8 12 L 7 12 L 7 13 L 8 13 z M 7 13 L 6 13 L 6 14 L 7 14 L 7 13 z M 7 12 L 7 11 L 6 11 L 6 12 L 7 12 z M 7 11 L 8 11 L 8 10 L 7 10 L 7 11 z M 7 10 L 7 9 L 6 9 L 6 10 L 7 10 z M 7 9 L 8 9 L 8 8 L 7 8 L 7 9 z M 8 9 L 8 10 L 9 10 L 9 9 L 8 9 z M 9 9 L 10 9 L 10 8 L 9 8 L 9 9 z M 10 9 L 10 10 L 11 10 L 11 9 L 10 9 z M 11 9 L 12 9 L 12 8 L 11 8 L 11 9 z M 12 9 L 12 10 L 13 10 L 13 9 L 12 9 z M 13 9 L 14 9 L 14 8 L 13 8 L 13 9 z M 14 9 L 14 10 L 15 10 L 15 9 L 14 9 z M 15 9 L 16 9 L 16 8 L 15 8 L 15 9 z M 15 10 L 15 11 L 16 11 L 16 10 L 15 10 z M 15 11 L 14 11 L 14 12 L 15 12 L 15 11 z M 14 11 L 14 10 L 13 10 L 13 11 L 14 11 z M 13 11 L 12 11 L 12 12 L 13 12 L 13 11 z M 12 11 L 12 10 L 11 10 L 11 11 L 12 11 z M 11 11 L 10 11 L 10 12 L 11 12 L 11 11 z M 10 11 L 10 10 L 9 10 L 9 11 L 10 11 z M 9 11 L 8 11 L 8 12 L 9 12 L 9 11 z "
       transform="translate(0,1028.3622)"
       id="path2987" />
  </g>
</svg>
