<?xml version="1.0" encoding="UTF-8" standalone="no"?>
<!-- Generator: Adobe Illustrator 15.0.0, SVG Export Plug-In . SVG Version: 6.00 Build 0)  -->
<svg id="Layer_1" xmlns:rdf="http://www.w3.org/1999/02/22-rdf-syntax-ns#" xmlns="http://www.w3.org/2000/svg" enable-background="new 0 0 24 24" xml:space="preserve" height="24px" viewBox="0 0 24 24" width="24px" version="1.1" y="0px" x="0px" xmlns:cc="http://creativecommons.org/ns#" xmlns:dc="http://purl.org/dc/elements/1.1/"><metadata id="metadata3270"><rdf:RDF><cc:Work rdf:about=""><dc:format>image/svg+xml</dc:format><dc:type rdf:resource="http://purl.org/dc/dcmitype/StillImage"/><dc:title/></cc:Work></rdf:RDF></metadata>
<path id="path4697" style="opacity:.3;fill:#fff" d="m8.6562 8c-0.922 0-1.6562 0.7352-1.6562 1.6562v6.6875c0 0.92 0.7342 1.656 1.6562 1.656h6.6875c0.922 0 1.656-0.736 1.656-1.656v-6.6875c0-0.9213-0.734-1.6565-1.656-1.6565h-6.6875z"/>
<linearGradient id="path4699_1_" y2="-991.5" gradientUnits="userSpaceOnUse" x2="1237" gradientTransform="matrix(1,0,0,-1,-1225,-984.5)" y1="-1001.5" x1="1237">
	<stop id="stop3255" style="stop-color:#413f3b" offset="0"/>
	<stop id="stop3257" style="stop-color:#58564d" offset="1"/>
</linearGradient>
<radialGradient id="path4701_1_" gradientUnits="userSpaceOnUse" cy="-991.5" cx="1237" gradientTransform="matrix(1,0,0,-1,-1225,-984.5)" r="7">
	<stop id="stop3261" style="stop-color:#fff" offset="0"/>
	<stop id="stop3263" style="stop-color:#fff;stop-opacity:0" offset="1"/>
</radialGradient>
<path id="path3816" style="fill:#ede8e5" d="m8.6562 7c-0.922 0-1.6562 0.7352-1.6562 1.6562v6.6875c0 0.92 0.7342 1.656 1.6562 1.656h6.6875c0.922 0 1.656-0.736 1.656-1.656v-6.6875c0-0.9213-0.734-1.6565-1.656-1.6565h-6.6875z"/><path id="path4699" style="fill:url(#path4699_1_)" d="m8.6562 7c-0.922 0-1.6562 0.7352-1.6562 1.6562v6.6878c0 0.92 0.7342 1.656 1.6562 1.656h6.6878c0.922 0 1.656-0.736 1.656-1.656v-6.6878c0-0.921-0.734-1.6562-1.656-1.6562h-6.6878zm0.3438 2h6v6h-6v-6z"/><path id="path4701" style="fill:url(#path4701_1_)" d="m8.6562 7c-0.922 0-1.6562 0.7342-1.6562 1.6562v3.2188c0.572 0.586 1.2549 1.077 2 1.437v-4.312h6v4.312c0.745-0.36 1.428-0.851 2-1.437v-3.2188c0-0.922-0.734-1.6562-1.656-1.6562h-6.6878z"/></svg>
