<?xml version="1.0" encoding="UTF-8" standalone="no"?>
<!-- Generator: Adobe Illustrator 15.0.0, SVG Export Plug-In . SVG Version: 6.00 Build 0)  -->

<svg
   xmlns:dc="http://purl.org/dc/elements/1.1/"
   xmlns:cc="http://creativecommons.org/ns#"
   xmlns:rdf="http://www.w3.org/1999/02/22-rdf-syntax-ns#"
   xmlns:svg="http://www.w3.org/2000/svg"
   xmlns="http://www.w3.org/2000/svg"
   xmlns:sodipodi="http://sodipodi.sourceforge.net/DTD/sodipodi-0.dtd"
   xmlns:inkscape="http://www.inkscape.org/namespaces/inkscape"
   version="1.1"
   id="Layer_1"
   x="0px"
   y="0px"
   width="24px"
   height="24px"
   viewBox="0 0 24 24"
   enable-background="new 0 0 24 24"
   xml:space="preserve"
   inkscape:version="0.48.2 r9819"
   sodipodi:docname="user-offline-mono-light.svg"><metadata
   id="metadata3340"><rdf:RDF><cc:Work
       rdf:about=""><dc:format>image/svg+xml</dc:format><dc:type
         rdf:resource="http://purl.org/dc/dcmitype/StillImage" /></cc:Work></rdf:RDF></metadata><defs
   id="defs3338" /><sodipodi:namedview
   pagecolor="#ffffff"
   bordercolor="#666666"
   borderopacity="1"
   objecttolerance="10"
   gridtolerance="10"
   guidetolerance="10"
   inkscape:pageopacity="0"
   inkscape:pageshadow="2"
   inkscape:window-width="1440"
   inkscape:window-height="852"
   id="namedview3336"
   showgrid="false"
   inkscape:zoom="9.8333333"
   inkscape:cx="-6"
   inkscape:cy="12"
   inkscape:window-x="0"
   inkscape:window-y="0"
   inkscape:window-maximized="1"
   inkscape:current-layer="Layer_1" />
<path
   id="path4683_2_"
   connector-curvature="0"
   enable-background="new    "
   d="  M17.167,17.039l-3.056-3.046l3.051-3.04c-0.512-0.865-1.232-1.59-2.098-2.104l-3.057,3.047L8.945,8.84  c-0.871,0.52-1.601,1.248-2.113,2.121l3.057,3.048l-3.049,3.04c0.512,0.864,1.234,1.588,2.098,2.104l3.056-3.045l3.062,3.051  C15.924,18.643,16.652,17.912,17.167,17.039z"
   fill="#FFFFFF"
   opacity="0.3" />
<linearGradient
   id="path4683_1_"
   gradientUnits="userSpaceOnUse"
   x1="420"
   y1="-278.6577"
   x2="420"
   y2="-268.3398"
   gradientTransform="matrix(1 0 0 -1 -408 -260.5)">
	<stop
   offset="0"
   style="stop-color:#413f3b;stop-opacity:1;"
   id="stop3325" />
	<stop
   offset="1"
   style="stop-color:#58564d;stop-opacity:1;"
   id="stop3327" />
</linearGradient>
<path
   id="path4683"
   connector-curvature="0"
   d="M17.167,16.039l-3.056-3.046l3.051-3.04  c-0.512-0.865-1.232-1.59-2.098-2.104l-3.057,3.047L8.945,7.84c-0.871,0.52-1.601,1.248-2.113,2.121l3.057,3.048l-3.049,3.04  c0.512,0.864,1.234,1.588,2.098,2.104l3.056-3.045l3.062,3.051C15.924,17.643,16.652,16.912,17.167,16.039z"
   fill="url(#path4683_1_)" />
<radialGradient
   id="path4709_1_"
   cx="647.3779"
   cy="521.6562"
   r="5.0485"
   gradientTransform="matrix(1.1879 0 0 1.1879 -757.0201 -610.6855)"
   gradientUnits="userSpaceOnUse">
	<stop
   offset="0"
   style="stop-color:#FFFFFF"
   id="stop3331" />
	<stop
   offset="1"
   style="stop-color:#FFFFFF;stop-opacity:0"
   id="stop3333" />
</radialGradient>
<path
   id="path4709"
   connector-curvature="0"
   d="M8.938,7.844  c-0.871,0.518-1.58,1.252-2.094,2.125L9.875,13l-1.062,1.062C9.739,14.646,10.825,15,12.001,15c1.177,0,2.263-0.354,3.188-0.938  L14.125,13l3.031-3.062c-0.512-0.864-1.229-1.578-2.094-2.094L12,10.906L8.938,7.844z"
   fill="url(#path4709_1_)" />
</svg>