<?xml version="1.0" encoding="UTF-8" standalone="no"?>
<!-- Created with Inkscape (http://www.inkscape.org/) -->

<svg
   xmlns:dc="http://purl.org/dc/elements/1.1/"
   xmlns:cc="http://creativecommons.org/ns#"
   xmlns:rdf="http://www.w3.org/1999/02/22-rdf-syntax-ns#"
   xmlns:svg="http://www.w3.org/2000/svg"
   xmlns="http://www.w3.org/2000/svg"
   xmlns:sodipodi="http://sodipodi.sourceforge.net/DTD/sodipodi-0.dtd"
   xmlns:inkscape="http://www.inkscape.org/namespaces/inkscape"
   width="24"
   height="24"
   id="svg3019"
   version="1.1"
   inkscape:version="0.48.4 r9939"
   sodipodi:docname="gnome-dev-computer.svg">
  <defs
     id="defs3021" />
  <sodipodi:namedview
     id="base"
     pagecolor="#ffffff"
     bordercolor="#666666"
     borderopacity="1.0"
     inkscape:pageopacity="0.0"
     inkscape:pageshadow="2"
     inkscape:zoom="15.696216"
     inkscape:cx="8.6077752"
     inkscape:cy="9.0893096"
     inkscape:current-layer="layer1"
     showgrid="true"
     inkscape:grid-bbox="true"
     inkscape:document-units="px"
     inkscape:window-width="1366"
     inkscape:window-height="712"
     inkscape:window-x="0"
     inkscape:window-y="27"
     inkscape:window-maximized="1">
    <inkscape:grid
       type="xygrid"
       id="grid3027"
       empspacing="5"
       visible="true"
       enabled="true"
       snapvisiblegridlinesonly="true" />
  </sodipodi:namedview>
  <metadata
     id="metadata3024">
    <rdf:RDF>
      <cc:Work
         rdf:about="">
        <dc:format>image/svg+xml</dc:format>
        <dc:type
           rdf:resource="http://purl.org/dc/dcmitype/StillImage" />
        <dc:title></dc:title>
      </cc:Work>
    </rdf:RDF>
  </metadata>
  <g
     id="layer1"
     inkscape:label="Layer 1"
     inkscape:groupmode="layer"
     transform="translate(0,8)">
    <path
       style="font-size:medium;font-style:normal;font-variant:normal;font-weight:normal;font-stretch:normal;text-indent:0;text-align:start;text-decoration:none;line-height:normal;letter-spacing:normal;word-spacing:normal;text-transform:none;direction:ltr;block-progression:tb;writing-mode:lr-tb;text-anchor:start;baseline-shift:baseline;color:#000000;fill:#919fa9;fill-opacity:1;fill-rule:nonzero;stroke:none;stroke-width:2.99999952;marker:none;visibility:visible;display:inline;overflow:visible;enable-background:accumulate;font-family:Sans;-inkscape-font-specification:Sans"
       d="m 4.5375072,-2.9875 c -0.2927681,0.031 -0.5390741,0.30565 -0.5374997,0.6 l 0,10.80005 c 3.14e-5,0.31415 0.2858492,0.59995 0.5999997,0.6 l 5.3999978,0 0,1.0125 3.999998,0 0,-1.0125 5.399997,0 c 0.314151,-5e-5 0.599969,-0.28585 0.6,-0.6 L 20,-2.3875 c -3.1e-5,-0.3141 -0.285849,-0.5999 -0.6,-0.6 l -14.7999928,0 z m 1.8131032,1.9999991 c 0.024925,-0.005 0.050074,-0.005 0.075,0 l 11.1474416,0 c 0.209433,5e-5 0.399979,0.19055 0.399999,0.4 l 0,7.1993969 c -2e-5,0.20945 -0.190566,0.39995 -0.399999,0.4 l -11.1474416,0 c -0.2094335,-5e-5 -0.3999785,-0.19055 -0.3999995,-0.4 l 0,-7.1993969 c -0.0033,-0.18665 0.141639,-0.3652 0.3249995,-0.4 z M 7.500005,10.98745 7.500005,12 17,12 17,10.98745 z"
       id="rect4042"
       inkscape:connector-curvature="0"
       sodipodi:nodetypes="ccccccccccccccccccccccccccccc" />
  </g>
</svg>
