<?xml version="1.0" encoding="UTF-8" standalone="no"?>
<!-- Created with Inkscape (http://www.inkscape.org/) -->

<svg
   xmlns:dc="http://purl.org/dc/elements/1.1/"
   xmlns:cc="http://creativecommons.org/ns#"
   xmlns:rdf="http://www.w3.org/1999/02/22-rdf-syntax-ns#"
   xmlns:svg="http://www.w3.org/2000/svg"
   xmlns="http://www.w3.org/2000/svg"
   xmlns:sodipodi="http://sodipodi.sourceforge.net/DTD/sodipodi-0.dtd"
   xmlns:inkscape="http://www.inkscape.org/namespaces/inkscape"
   width="24"
   height="24"
   id="svg3019"
   version="1.1"
   inkscape:version="0.48.4 r9939"
   sodipodi:docname="gnome-stock-mic.svg">
  <defs
     id="defs3021" />
  <sodipodi:namedview
     id="base"
     pagecolor="#ffffff"
     bordercolor="#666666"
     borderopacity="1.0"
     inkscape:pageopacity="0.0"
     inkscape:pageshadow="2"
     inkscape:zoom="15.696216"
     inkscape:cx="3.7012104"
     inkscape:cy="16.170806"
     inkscape:current-layer="layer1"
     showgrid="true"
     inkscape:grid-bbox="true"
     inkscape:document-units="px"
     inkscape:window-width="1366"
     inkscape:window-height="712"
     inkscape:window-x="0"
     inkscape:window-y="27"
     inkscape:window-maximized="1">
    <inkscape:grid
       type="xygrid"
       id="grid3027"
       empspacing="5"
       visible="true"
       enabled="true"
       snapvisiblegridlinesonly="true" />
  </sodipodi:namedview>
  <metadata
     id="metadata3024">
    <rdf:RDF>
      <cc:Work
         rdf:about="">
        <dc:format>image/svg+xml</dc:format>
        <dc:type
           rdf:resource="http://purl.org/dc/dcmitype/StillImage" />
        <dc:title></dc:title>
      </cc:Work>
    </rdf:RDF>
  </metadata>
  <g
     id="layer1"
     inkscape:label="Layer 1"
     inkscape:groupmode="layer"
     transform="translate(0,8)">
    <path
       style="fill:#919fa9;fill-opacity:1;stroke:none"
       d="m 12,-4 c -1.656854,0 -3,1.3431458 -3,3 l 0,5.0089109 c 0,1.656854 1.343146,3.0000001 3,3.0000001 1.656854,0 3,-1.3431461 3,-3.0000001 L 15,-1 c 0,-1.6568542 -1.343146,-3 -3,-3 z"
       id="path3047"
       inkscape:connector-curvature="0"
       sodipodi:nodetypes="sssssss" />
    <path
       style="fill:#919fa9;fill-opacity:1;stroke:none"
       d="m 6,4 c 0,3.313708 2.6862915,6 6,6 3.313708,0 6,-2.686292 6,-6 L 16,4 C 16,6.209139 14.209139,8 12,8 9.790861,8 8,6.209139 8,4 L 6,4 z"
       id="path3054"
       inkscape:connector-curvature="0" />
    <path
       style="fill:#919fa9;fill-opacity:1;stroke:none"
       d="m 11,9 0,2 -1,0 0,1 4,0 0,-1 -1,0 0,-2 z"
       id="path3065"
       inkscape:connector-curvature="0" />
  </g>
</svg>
