<?xml version="1.0" encoding="UTF-8" standalone="no"?>
<!-- Created with Inkscape (http://www.inkscape.org/) -->

<svg
   xmlns:dc="http://purl.org/dc/elements/1.1/"
   xmlns:cc="http://creativecommons.org/ns#"
   xmlns:rdf="http://www.w3.org/1999/02/22-rdf-syntax-ns#"
   xmlns:svg="http://www.w3.org/2000/svg"
   xmlns="http://www.w3.org/2000/svg"
   xmlns:sodipodi="http://sodipodi.sourceforge.net/DTD/sodipodi-0.dtd"
   xmlns:inkscape="http://www.inkscape.org/namespaces/inkscape"
   width="24"
   height="24"
   id="svg3028"
   version="1.1"
   inkscape:version="0.48.4 r9939"
   sodipodi:docname="drive-removable-media-usb.svg">
  <defs
     id="defs3030" />
  <sodipodi:namedview
     id="base"
     pagecolor="#ffffff"
     bordercolor="#666666"
     borderopacity="1.0"
     inkscape:pageopacity="0.0"
     inkscape:pageshadow="2"
     inkscape:zoom="11.098901"
     inkscape:cx="-2.7551795"
     inkscape:cy="8.6127456"
     inkscape:current-layer="layer1"
     showgrid="true"
     inkscape:grid-bbox="true"
     inkscape:document-units="px"
     inkscape:window-width="1366"
     inkscape:window-height="712"
     inkscape:window-x="0"
     inkscape:window-y="27"
     inkscape:window-maximized="1">
    <inkscape:grid
       type="xygrid"
       id="grid3036"
       empspacing="5"
       visible="true"
       enabled="true"
       snapvisiblegridlinesonly="true" />
  </sodipodi:namedview>
  <metadata
     id="metadata3033">
    <rdf:RDF>
      <cc:Work
         rdf:about="">
        <dc:format>image/svg+xml</dc:format>
        <dc:type
           rdf:resource="http://purl.org/dc/dcmitype/StillImage" />
        <dc:title></dc:title>
      </cc:Work>
    </rdf:RDF>
  </metadata>
  <g
     id="layer1"
     inkscape:label="Layer 1"
     inkscape:groupmode="layer"
     transform="translate(0,8)">
    <path
       inkscape:connector-curvature="0"
       style="fill:#919fa9;fill-opacity:1;stroke:none"
       d="m 8.9125002,-4 c -0.5027295,0 -0.90625,0.4035204 -0.90625,0.90625 l 0,12.1875 c 0,0.502729 0.4035205,0.90625 0.90625,0.90625 l 0.09375,0 0,2 5.9874998,0 0,-2 0.09375,0 c 0.50273,0 0.90625,-0.403521 0.90625,-0.90625 l 0,-12.1875 C 15.99375,-3.5964796 15.59023,-4 15.0875,-4 z m 1.9874988,2.0193539 2.200001,0 c 0.50273,0 0.906251,0.4035205 0.906251,0.90625 l 0,8.1487921 c 0,0.502729 -0.403521,0.90625 -0.906251,0.90625 l -2.200001,0 c -0.502729,0 -0.9062496,-0.403521 -0.9062496,-0.90625 l 0,-8.1487921 c 0,-0.5027295 0.4035206,-0.90625 0.9062496,-0.90625 z M 9.9840724,9.990323 l 0.9999996,0 0,1 -0.9999996,0 z m 3.0000006,0 1,0 0,1 -1,0 z"
       id="rect3789"
       sodipodi:nodetypes="ssssccccsssssssssssssscccccccccc" />
  </g>
</svg>
