<?xml version="1.0" encoding="UTF-8" standalone="no"?>
<!-- Created with Inkscape (http://www.inkscape.org/) -->

<svg
   xmlns:dc="http://purl.org/dc/elements/1.1/"
   xmlns:cc="http://creativecommons.org/ns#"
   xmlns:rdf="http://www.w3.org/1999/02/22-rdf-syntax-ns#"
   xmlns:svg="http://www.w3.org/2000/svg"
   xmlns="http://www.w3.org/2000/svg"
   xmlns:sodipodi="http://sodipodi.sourceforge.net/DTD/sodipodi-0.dtd"
   xmlns:inkscape="http://www.inkscape.org/namespaces/inkscape"
   id="svg2"
   height="16"
   width="16"
   version="1.0"
   inkscape:version="0.48.4 r9939"
   sodipodi:docname="audio-volume-muted-blocking-panel.svg">
  <metadata
     id="metadata11">
    <rdf:RDF>
      <cc:Work
         rdf:about="">
        <dc:format>image/svg+xml</dc:format>
        <dc:type
           rdf:resource="http://purl.org/dc/dcmitype/StillImage" />
        <dc:title></dc:title>
      </cc:Work>
    </rdf:RDF>
  </metadata>
  <defs
     id="defs9" />
  <sodipodi:namedview
     pagecolor="#ffffff"
     bordercolor="#666666"
     borderopacity="1"
     objecttolerance="10"
     gridtolerance="10"
     guidetolerance="10"
     inkscape:pageopacity="0"
     inkscape:pageshadow="2"
     inkscape:window-width="1366"
     inkscape:window-height="712"
     id="namedview7"
     showgrid="true"
     inkscape:zoom="13.906433"
     inkscape:cx="-1.6269422"
     inkscape:cy="8.5772504"
     inkscape:window-x="0"
     inkscape:window-y="27"
     inkscape:window-maximized="1"
     inkscape:current-layer="svg2">
    <inkscape:grid
       type="xygrid"
       id="grid2988"
       empspacing="5"
       visible="true"
       enabled="true"
       snapvisiblegridlinesonly="true" />
  </sodipodi:namedview>
  <path
     style="font-size:medium;font-style:normal;font-variant:normal;font-weight:normal;font-stretch:normal;text-indent:0;text-align:start;text-decoration:none;line-height:normal;letter-spacing:normal;word-spacing:normal;text-transform:none;direction:ltr;block-progression:tb;writing-mode:lr-tb;text-anchor:start;baseline-shift:baseline;color:#000000;fill:#bebebe;fill-opacity:1;stroke:none;stroke-width:2;marker:none;visibility:visible;display:inline;overflow:visible;enable-background:accumulate;font-family:Sans;-inkscape-font-specification:Sans"
     d="m 5.8749997,2.0194942 c -0.22185,0.024 -0.4346597,0.12479 -0.5937497,0.28125 l -2.71875,2.7187507 -1.56250001,0 C 0.47641,5.0195449 5e-5,5.4959139 0,6.019495 l 0,4 c 5e-5,0.52358 0.47641,0.99995 0.99999999,1 l 1.56250001,0 2.71875,2.71875 c 0.5553597,0.5743 1.73753,0.0799 1.7187497,-0.71875 l 0,-10.0000008 c 0.004,-0.56796 -0.5614697,-1.07095 -1.125,-1 z m 4,2.9687505 a 1.0001,1.0001 0 0 0 -0.125,0.0312 A 1.0001,1.0001 0 0 0 9.25,6.738195 l 1.28125,1.2813 -1.3125,1.28125 a 1.0164662,1.0164662 0 1 0 1.4375,1.4375 l 1.3125,-1.28125 1.28125,1.28125 a 1.0164662,1.0164662 0 1 0 1.4375,-1.4375 l -1.28125,-1.28125 1.25,-1.28125 a 1.0001,1.0001 0 0 0 0.28125,-0.9375003 1.0001,1.0001 0 0 0 -1.71875,-0.5 L 11.96875,6.581995 10.6875,5.3007447 A 1.0001,1.0001 0 0 0 9.8749997,4.9882445 z"
     id="path10471-0-2-8-6"
     inkscape:connector-curvature="0" />
</svg>
