<?xml version="1.0" encoding="UTF-8" standalone="no"?>
<!-- Created with Inkscape (http://www.inkscape.org/) -->

<svg
   xmlns:dc="http://purl.org/dc/elements/1.1/"
   xmlns:cc="http://creativecommons.org/ns#"
   xmlns:rdf="http://www.w3.org/1999/02/22-rdf-syntax-ns#"
   xmlns:svg="http://www.w3.org/2000/svg"
   xmlns="http://www.w3.org/2000/svg"
   xmlns:sodipodi="http://sodipodi.sourceforge.net/DTD/sodipodi-0.dtd"
   xmlns:inkscape="http://www.inkscape.org/namespaces/inkscape"
   id="svg7384"
   version="1.1"
   height="16"
   width="16"
   inkscape:version="0.48.4 r9939"
   sodipodi:docname="audio-volume-high-symbolic.svg">
  <sodipodi:namedview
     pagecolor="#ffffff"
     bordercolor="#666666"
     borderopacity="1"
     objecttolerance="10"
     gridtolerance="10"
     guidetolerance="10"
     inkscape:pageopacity="0"
     inkscape:pageshadow="2"
     inkscape:window-width="816"
     inkscape:window-height="480"
     id="namedview23"
     showgrid="true"
     inkscape:zoom="14.75"
     inkscape:cx="13.694915"
     inkscape:cy="8"
     inkscape:window-x="0"
     inkscape:window-y="27"
     inkscape:window-maximized="0"
     inkscape:current-layer="svg7384">
    <inkscape:grid
       type="xygrid"
       id="grid3772" />
  </sodipodi:namedview>
  <title
     id="title9167">Gnome Symbolic Icon Theme</title>
  <metadata
     id="metadata90">
    <rdf:RDF>
      <cc:Work
         rdf:about="">
        <dc:format>image/svg+xml</dc:format>
        <dc:type
           rdf:resource="http://purl.org/dc/dcmitype/StillImage" />
        <dc:title>Gnome Symbolic Icon Theme</dc:title>
      </cc:Work>
    </rdf:RDF>
  </metadata>
  <defs
     id="defs7386">
    <clipPath
       id="clipPath6279-3">
      <rect
         x="26.85"
         y="220.75"
         id="rect6281-9"
         height="6.3750005"
         width="3.8250003"
         style="color:#bebebe;fill:#bebebe;fill-opacity:1;fill-rule:nonzero;stroke:none;stroke-width:2;marker:none;visibility:visible;display:inline;overflow:visible" />
    </clipPath>
    <clipPath
       id="clipPath6265-334">
      <rect
         x="26.96591"
         y="221.32954"
         id="rect6267-61"
         height="5.21591"
         width="2.8977277"
         style="color:#bebebe;fill:#bebebe;fill-opacity:1;fill-rule:nonzero;stroke:none;stroke-width:2;marker:none;visibility:visible;display:inline;overflow:visible" />
    </clipPath>
    <clipPath
       id="clipPath6259-5">
      <rect
         x="26.998718"
         y="221.50153"
         id="rect6261-61"
         height="4.8734746"
         width="1.8762827"
         style="color:#bebebe;fill:#bebebe;fill-opacity:1;stroke:none;stroke-width:2;marker:none;visibility:visible;display:inline;overflow:visible" />
    </clipPath>
  </defs>
  <g
     transform="translate(-41.0002,-197)"
     id="layer10" />
  <g
     transform="translate(-41.0002,-197)"
     id="layer11" />
  <g
     transform="translate(-41.0002,-197)"
     id="layer12" />
  <g
     transform="translate(-41.0002,-197)"
     id="layer13" />
  <g
     transform="translate(-41.0002,-197)"
     id="layer14" />
  <g
     transform="translate(-41.0002,-197)"
     id="layer15" />
  <path
     inkscape:connector-curvature="0"
     style="font-size:medium;font-style:normal;font-variant:normal;font-weight:normal;font-stretch:normal;text-indent:0;text-align:start;text-decoration:none;line-height:normal;letter-spacing:normal;word-spacing:normal;text-transform:none;direction:ltr;block-progression:tb;writing-mode:lr-tb;text-anchor:start;baseline-shift:baseline;color:#000000;fill:#bebebe;fill-opacity:1;stroke:none;stroke-width:2;marker:none;visibility:visible;display:inline;overflow:visible;enable-background:accumulate;font-family:Sans;-inkscape-font-specification:Sans"
     d="m 14.78125,0.96875017 a 1.0001,1.0001 0 0 0 0,0.03125 1.0001,1.0001 0 0 0 -0.78125,1 L 14,14 a 1.0001,1.0001 0 1 0 2,0 L 16,2.0000002 A 1.0001,1.0001 0 0 0 14.78125,0.96875017 z M 5.875,2.0000002 c -0.221847,0.024 -0.434655,0.12479 -0.59375,0.28125 l -2.71875,2.71875 -1.5625,0 c -0.523584,5e-5 -0.999948,0.47642 -1,1 L 0,10 c 5.2e-5,0.52358 0.476416,0.99995 1,1 l 1.5625,0 2.71875,2.71875 C 5.836616,14.29305 7.018788,13.79868 7,13 L 7,3.0000002 c 0.0044,-0.56796 -0.561468,-1.07095 -1.125,-1 z m 5.90625,0.96875 a 1.0001,1.0001 0 0 0 0,0.03125 1.0001,1.0001 0 0 0 -0.78125,1 L 11,12 a 1.0001,1.0001 0 1 0 2,0 l 0,-7.9999998 a 1.0001,1.0001 0 0 0 -1.21875,-1.03125 z m -3,2 a 1.0001,1.0001 0 0 0 0,0.03125 1.0001,1.0001 0 0 0 -0.78125,1 L 8,10 a 1.0001,1.0001 0 1 0 2,0 l 0,-3.9999998 a 1.0001,1.0001 0 0 0 -1.21875,-1.03125 z"
     id="path10471" />
</svg>
