<?xml version="1.0" encoding="UTF-8" standalone="no"?>
<!-- Created with Inkscape (http://www.inkscape.org/) -->

<svg
   xmlns:dc="http://purl.org/dc/elements/1.1/"
   xmlns:cc="http://creativecommons.org/ns#"
   xmlns:rdf="http://www.w3.org/1999/02/22-rdf-syntax-ns#"
   xmlns:svg="http://www.w3.org/2000/svg"
   xmlns="http://www.w3.org/2000/svg"
   xmlns:sodipodi="http://sodipodi.sourceforge.net/DTD/sodipodi-0.dtd"
   xmlns:inkscape="http://www.inkscape.org/namespaces/inkscape"
   width="16px"
   height="16px"
   id="svg3450"
   version="1.1"
   inkscape:version="0.48.4 r9939"
   sodipodi:docname="battery-full-charged-symbolic.svg">
  <defs
     id="defs3452" />
  <sodipodi:namedview
     id="base"
     pagecolor="#ffffff"
     bordercolor="#666666"
     borderopacity="1.0"
     inkscape:pageopacity="0.0"
     inkscape:pageshadow="2"
     inkscape:zoom="22.197802"
     inkscape:cx="21.402228"
     inkscape:cy="8"
     inkscape:current-layer="g14162"
     showgrid="true"
     inkscape:grid-bbox="true"
     inkscape:document-units="px"
     inkscape:window-width="1029"
     inkscape:window-height="708"
     inkscape:window-x="335"
     inkscape:window-y="27"
     inkscape:window-maximized="0">
    <inkscape:grid
       type="xygrid"
       id="grid3458" />
  </sodipodi:namedview>
  <metadata
     id="metadata3455">
    <rdf:RDF>
      <cc:Work
         rdf:about="">
        <dc:format>image/svg+xml</dc:format>
        <dc:type
           rdf:resource="http://purl.org/dc/dcmitype/StillImage" />
        <dc:title />
      </cc:Work>
    </rdf:RDF>
  </metadata>
  <g
     id="layer1"
     inkscape:label="Layer 1"
     inkscape:groupmode="layer">
    <g
       transform="translate(-217,-167)"
       id="g14162">
      <path
         sodipodi:nodetypes="ccccccccccccccccccccccccccc"
         inkscape:connector-curvature="0"
         id="rect14006-5-1-4"
         d="m 222.81246,167 c -0.4584,0.0875 -0.82072,0.5334 -0.8125,1 l 0,1 -1,0 c -0.0312,-0.001 -0.0625,-0.001 -0.0937,0 -0.49158,0.0463 -0.90838,0.50624 -0.90625,1 l 0,12 c 5e-5,0.52358 0.47642,0.99995 1,1 l 8,0 c 0.52358,-5e-5 0.99995,-0.47642 1,-1 l 0,-12 c -5e-5,-0.52358 -0.47642,-0.99995 -1,-1 l -1,0 0,-1 c -5e-5,-0.52358 -0.47642,-0.99995 -1,-1 l -4,0 c -0.0312,-0.001 -0.0625,-0.001 -0.0937,0 -0.0312,-0.001 -0.0625,-0.001 -0.0937,0 z m -0.8125,4 2,0 0,-2 2,0 0,2 2,0 0,10 -6,0 z"
         style="font-size:medium;font-style:normal;font-variant:normal;font-weight:normal;font-stretch:normal;text-indent:0;text-align:start;text-decoration:none;line-height:normal;letter-spacing:normal;word-spacing:normal;text-transform:none;direction:ltr;block-progression:tb;writing-mode:lr-tb;text-anchor:start;baseline-shift:baseline;color:#000000;fill:#dcdcdc;fill-opacity:1;fill-rule:nonzero;stroke:none;stroke-width:2;marker:none;visibility:visible;display:inline;overflow:visible;enable-background:accumulate;font-family:Sans;-inkscape-font-specification:Sans" />
      <path
         inkscape:connector-curvature="0"
         id="path14019-5-2-8"
         d="m 222.99996,180 0,-2 4,0 0,2 z"
         style="fill:#8ece4e;fill-opacity:1;stroke:none"
         class="success" />
      <path
         inkscape:connector-curvature="0"
         id="path14019-5-7-3-86"
         d="m 222.99996,177 0,-2 4,0 0,2 z"
         style="fill:#8ece4e;fill-opacity:1;stroke:none"
         class="success" />
      <path
         inkscape:connector-curvature="0"
         id="path14019-5-7-3-8-7"
         d="m 222.99996,174 0,-2 4,0 0,2 z"
         style="fill:#8ece4e;fill-opacity:1;stroke:none"
         class="success">
        <title
           id="title2988">info</title>
      </path>
    </g>
  </g>
</svg>
