<?xml version="1.0" encoding="UTF-8" standalone="no"?>
<!-- Created with Inkscape (http://www.inkscape.org/) -->

<svg
   xmlns:dc="http://purl.org/dc/elements/1.1/"
   xmlns:cc="http://creativecommons.org/ns#"
   xmlns:rdf="http://www.w3.org/1999/02/22-rdf-syntax-ns#"
   xmlns:svg="http://www.w3.org/2000/svg"
   xmlns="http://www.w3.org/2000/svg"
   xmlns:sodipodi="http://sodipodi.sourceforge.net/DTD/sodipodi-0.dtd"
   xmlns:inkscape="http://www.inkscape.org/namespaces/inkscape"
   width="16px"
   height="16px"
   id="svg3450"
   version="1.1"
   inkscape:version="0.48.4 r9939"
   sodipodi:docname="battery-caution-charging-symbolic.svg">
  <defs
     id="defs3452" />
  <sodipodi:namedview
     id="base"
     pagecolor="#ffffff"
     bordercolor="#666666"
     borderopacity="1.0"
     inkscape:pageopacity="0.0"
     inkscape:pageshadow="2"
     inkscape:zoom="22.197802"
     inkscape:cx="8"
     inkscape:cy="8"
     inkscape:current-layer="layer1"
     showgrid="true"
     inkscape:grid-bbox="true"
     inkscape:document-units="px"
     inkscape:window-width="682"
     inkscape:window-height="708"
     inkscape:window-x="682"
     inkscape:window-y="27"
     inkscape:window-maximized="0">
    <inkscape:grid
       type="xygrid"
       id="grid3458" />
  </sodipodi:namedview>
  <metadata
     id="metadata3455">
    <rdf:RDF>
      <cc:Work
         rdf:about="">
        <dc:format>image/svg+xml</dc:format>
        <dc:type
           rdf:resource="http://purl.org/dc/dcmitype/StillImage" />
        <dc:title />
      </cc:Work>
    </rdf:RDF>
  </metadata>
  <g
     id="layer1"
     inkscape:label="Layer 1"
     inkscape:groupmode="layer">
    <g
       transform="translate(-97.000052,-197)"
       id="g14515">
      <path
         sodipodi:nodetypes="ssccccccccccccccccccccsss"
         inkscape:connector-curvature="0"
         id="rect13922-0"
         d="m 103.00001,197 c -0.554,0 -1,0.446 -1,1 l 0,1 -1,0 c -0.0312,-0.001 -0.0625,-0.001 -0.0937,0 -0.49159,0.0463 -0.908381,0.50624 -0.90625,1 l 0,12 c 5e-5,0.52358 0.47641,0.99995 1,1 l 4,0 0,-2 -3,0 0,-10 2,0 0,-2 2,0 0,2 2,0 0,4 2,0 0,-5 c -5e-5,-0.52358 -0.47642,-0.99995 -1,-1 l -1,0 0,-1 c 0,-0.554 -0.446,-1 -1,-1 z"
         style="fill:#dcdcdc;fill-opacity:1;stroke:none" />
      <path
         sodipodi:nodetypes="ccccc"
         inkscape:connector-curvature="0"
         id="path13936-7"
         d="m 103.00001,210 0,-2 2,0 0,2 z"
         style="fill:#dcdcdc;fill-opacity:1;stroke:none" />
      <path
         id="rect13949-6-5-7-5"
         d="m 106.90625,206 c -0.49159,0.0463 -0.90838,0.50624 -0.90625,1 l 0,5 c 5e-5,0.52358 0.47641,0.99995 1,1 l 5,0 c 0.52358,-5e-5 0.99995,-0.47642 1,-1 l 0,-5 c -5e-5,-0.52358 -0.47642,-0.99995 -1,-1 l -5,0 c -0.0312,-0.001 -0.0625,-0.001 -0.0937,0 z m 1.09375,1 1,0 0,2 1,0 0,-2 1,0 0,2 1,0 0,2 -1,0 -1,0 0,1 -1,0 0,-1 -1,0 -1,0 0,-2 1,0 0,-2 z"
         style="font-size:medium;font-style:normal;font-variant:normal;font-weight:normal;font-stretch:normal;text-indent:0;text-align:start;text-decoration:none;line-height:normal;letter-spacing:normal;word-spacing:normal;text-transform:none;direction:ltr;block-progression:tb;writing-mode:lr-tb;text-anchor:start;baseline-shift:baseline;color:#000000;fill:#8ece4e;fill-opacity:1;fill-rule:nonzero;stroke:none;stroke-width:2;marker:none;visibility:visible;display:inline;overflow:visible;enable-background:accumulate;font-family:Sans;-inkscape-font-specification:Sans"
         inkscape:connector-curvature="0"
         class="success" />
    </g>
  </g>
</svg>
