<?xml version="1.0" encoding="UTF-8" standalone="no"?>
<!-- Created with Inkscape (http://www.inkscape.org/) -->

<svg
   xmlns:dc="http://purl.org/dc/elements/1.1/"
   xmlns:cc="http://creativecommons.org/ns#"
   xmlns:rdf="http://www.w3.org/1999/02/22-rdf-syntax-ns#"
   xmlns:svg="http://www.w3.org/2000/svg"
   xmlns="http://www.w3.org/2000/svg"
   xmlns:sodipodi="http://sodipodi.sourceforge.net/DTD/sodipodi-0.dtd"
   xmlns:inkscape="http://www.inkscape.org/namespaces/inkscape"
   width="16"
   height="16"
   id="svg14337"
   version="1.1"
   inkscape:version="0.48.4 r9939"
   sodipodi:docname="user-indeterminate-panel.svg">
  <defs
     id="defs14339" />
  <sodipodi:namedview
     id="base"
     pagecolor="#ffffff"
     bordercolor="#666666"
     borderopacity="1.0"
     inkscape:pageopacity="0.0"
     inkscape:pageshadow="2"
     inkscape:zoom="15.839192"
     inkscape:cx="-1.8234948"
     inkscape:cy="10.160888"
     inkscape:document-units="px"
     inkscape:current-layer="layer1"
     showgrid="true"
     inkscape:window-width="1366"
     inkscape:window-height="712"
     inkscape:window-x="0"
     inkscape:window-y="27"
     inkscape:window-maximized="1">
    <inkscape:grid
       type="xygrid"
       id="grid14345"
       empspacing="5"
       visible="true"
       enabled="true"
       snapvisiblegridlinesonly="true" />
  </sodipodi:namedview>
  <metadata
     id="metadata14342">
    <rdf:RDF>
      <cc:Work
         rdf:about="">
        <dc:format>image/svg+xml</dc:format>
        <dc:type
           rdf:resource="http://purl.org/dc/dcmitype/StillImage" />
        <dc:title></dc:title>
      </cc:Work>
    </rdf:RDF>
  </metadata>
  <g
     inkscape:label="Ebene 1"
     inkscape:groupmode="layer"
     id="layer1"
     transform="translate(0,-1036.3622)">
    <path
       inkscape:connector-curvature="0"
       style="font-size:medium;font-style:normal;font-variant:normal;font-weight:normal;font-stretch:normal;text-indent:0;text-align:start;text-decoration:none;line-height:normal;letter-spacing:normal;word-spacing:normal;text-transform:none;direction:ltr;block-progression:tb;writing-mode:lr-tb;text-anchor:start;baseline-shift:baseline;color:#000000;fill:#bebebe;fill-opacity:1;fill-rule:nonzero;stroke:none;stroke-width:2;marker:none;visibility:visible;display:inline;overflow:visible;enable-background:accumulate;font-family:Sans;-inkscape-font-specification:Sans"
       d="m 0.90625411,1036.3626 c -0.491584,0.046 -0.908379,0.5062 -0.9062499997769,1 l 0,10 c 5.19999999e-5,0.5235 0.4764159997769,0.9999 0.9999999897769,1 l 7.9999999,0 4,4 0,-4 2,0 c 0.52358,-10e-5 0.99995,-0.4765 1,-1 l 0,-10 c -5e-5,-0.5236 -0.47642,-1 -1,-1 l -13.9999999,0 c -0.03123,-10e-4 -0.06252,-10e-4 -0.09375,0 z m 3.09374999,5 c 0.55228,0 1,0.4477 1,1 0,0.5522 -0.44772,1 -1,1 -0.55228,0 -1,-0.4478 -1,-1 0,-0.5523 0.44772,-1 1,-1 z m 3.9999999,0 c 0.55228,0 1,0.4477 1,1 0,0.5522 -0.44772,1 -1,1 -0.55228,0 -1,-0.4478 -1,-1 0,-0.5523 0.44772,-1 1,-1 z m 4,0 c 0.55228,0 1,0.4477 1,1 0,0.5522 -0.44772,1 -1,1 -0.55228,0 -1,-0.4478 -1,-1 0,-0.5523 0.44772,-1 1,-1 z"
       id="rect14666-3" />
  </g>
</svg>
