<?xml version="1.0" encoding="UTF-8" standalone="no"?>
<!-- Created with Inkscape (http://www.inkscape.org/) -->

<svg
   xmlns:dc="http://purl.org/dc/elements/1.1/"
   xmlns:cc="http://creativecommons.org/ns#"
   xmlns:rdf="http://www.w3.org/1999/02/22-rdf-syntax-ns#"
   xmlns:svg="http://www.w3.org/2000/svg"
   xmlns="http://www.w3.org/2000/svg"
   xmlns:sodipodi="http://sodipodi.sourceforge.net/DTD/sodipodi-0.dtd"
   xmlns:inkscape="http://www.inkscape.org/namespaces/inkscape"
   width="48"
   height="48"
   id="svg2"
   version="1.1"
   inkscape:version="0.48.4 r9939"
   sodipodi:docname="notification-audio-volume-medium.svg">
  <defs
     id="defs4" />
  <sodipodi:namedview
     id="base"
     pagecolor="#ffffff"
     bordercolor="#666666"
     borderopacity="1.0"
     inkscape:pageopacity="0.0"
     inkscape:pageshadow="2"
     inkscape:zoom="0.99999996"
     inkscape:cx="26.858696"
     inkscape:cy="24.165391"
     inkscape:document-units="px"
     inkscape:current-layer="layer1"
     showgrid="false"
     showguides="false"
     inkscape:window-width="1366"
     inkscape:window-height="712"
     inkscape:window-x="0"
     inkscape:window-y="27"
     inkscape:window-maximized="1">
    <inkscape:grid
       type="xygrid"
       id="grid2989" />
  </sodipodi:namedview>
  <metadata
     id="metadata7">
    <rdf:RDF>
      <cc:Work
         rdf:about="">
        <dc:format>image/svg+xml</dc:format>
        <dc:type
           rdf:resource="http://purl.org/dc/dcmitype/StillImage" />
        <dc:title></dc:title>
      </cc:Work>
    </rdf:RDF>
  </metadata>
  <g
     inkscape:label="Capa 1"
     inkscape:groupmode="layer"
     id="layer1"
     transform="translate(0,-1004.3622)">
    <g
       id="g5418"
       style="opacity:0.3">
      <path
         id="path3123"
         d="m 24,1017.3622 c -6.075132,0 -11,4.9249 -11,11 0,6.0751 4.924868,11 11,11 6.075132,0 11,-4.9249 11,-11 0,-6.0751 -4.924868,-11 -11,-11 z m 0,7 c 2.209139,0 4,1.7909 4,4 0,2.2091 -1.790861,4 -4,4 -2.209139,0 -4,-1.7909 -4,-4 0,-2.2091 1.790861,-4 4,-4 z"
         style="fill:#555555;fill-opacity:1;stroke:none"
         inkscape:connector-curvature="0" />
      <path
         id="path3895"
         transform="translate(0,1004.3622)"
         d="M 24 9 C 15.715728 9 9 15.715728 9 24 C 9 32.284272 15.715728 39 24 39 C 32.284272 39 39 32.284272 39 24 C 39 15.715728 32.284272 9 24 9 z M 24 11 C 31.179702 11 37 16.820298 37 24 C 37 31.179702 31.179702 37 24 37 C 16.820298 37 11 31.179702 11 24 C 11 16.820298 16.820298 11 24 11 z "
         style="fill:#555555;fill-opacity:1;stroke:none" />
    </g>
  </g>
</svg>
