<?xml version="1.0" encoding="UTF-8" standalone="no"?>
<!-- Created with Inkscape (http://www.inkscape.org/) -->

<svg
   xmlns:dc="http://purl.org/dc/elements/1.1/"
   xmlns:cc="http://creativecommons.org/ns#"
   xmlns:rdf="http://www.w3.org/1999/02/22-rdf-syntax-ns#"
   xmlns:svg="http://www.w3.org/2000/svg"
   xmlns="http://www.w3.org/2000/svg"
   xmlns:sodipodi="http://sodipodi.sourceforge.net/DTD/sodipodi-0.dtd"
   xmlns:inkscape="http://www.inkscape.org/namespaces/inkscape"
   width="48"
   height="48"
   id="svg2"
   version="1.1"
   inkscape:version="0.48.4 r9939"
   sodipodi:docname="notification-audio-volume-off.svg">
  <defs
     id="defs4" />
  <sodipodi:namedview
     id="base"
     pagecolor="#ffffff"
     bordercolor="#666666"
     borderopacity="1.0"
     inkscape:pageopacity="0.0"
     inkscape:pageshadow="2"
     inkscape:zoom="0.99999996"
     inkscape:cx="26.858696"
     inkscape:cy="24.165391"
     inkscape:document-units="px"
     inkscape:current-layer="layer1"
     showgrid="true"
     showguides="false"
     inkscape:window-width="1366"
     inkscape:window-height="712"
     inkscape:window-x="0"
     inkscape:window-y="27"
     inkscape:window-maximized="1">
    <inkscape:grid
       type="xygrid"
       id="grid2989" />
  </sodipodi:namedview>
  <metadata
     id="metadata7">
    <rdf:RDF>
      <cc:Work
         rdf:about="">
        <dc:format>image/svg+xml</dc:format>
        <dc:type
           rdf:resource="http://purl.org/dc/dcmitype/StillImage" />
        <dc:title></dc:title>
      </cc:Work>
    </rdf:RDF>
  </metadata>
  <g
     inkscape:label="Capa 1"
     inkscape:groupmode="layer"
     id="layer1"
     transform="translate(0,-1004.3622)">
    <path
       style="fill:#555555;fill-opacity:1;stroke:none"
       d="M 24 9 C 21.31413 9 18.805705 9.7323296 16.625 10.96875 L 18.09375 12.4375 C 19.869618 11.527317 21.867323 11 24 11 C 26.132677 11 28.130382 11.527317 29.90625 12.4375 L 31.375 10.9375 C 29.197609 9.706144 26.679944 9 24 9 z M 24 13 C 22.431335 13 20.94405 13.34577 19.59375 13.9375 L 24 18.34375 L 28.40625 13.9375 C 27.05595 13.34577 25.568665 13 24 13 z M 37.03125 16.59375 L 35.5625 18.0625 C 36.480839 19.844577 37 21.857131 37 24 C 37 26.132677 36.472683 28.130382 35.5625 29.90625 L 37.03125 31.375 C 38.267673 29.194295 39 26.685879 39 24 C 39 21.304491 38.275922 18.779822 37.03125 16.59375 z M 10.96875 16.625 C 9.7323265 18.805705 9 21.314121 9 24 C 9 26.679953 9.706141 29.197609 10.9375 31.375 L 12.4375 29.90625 C 11.527317 28.130382 11 26.132677 11 24 C 11 21.867323 11.527317 19.869618 12.4375 18.09375 L 10.96875 16.625 z M 13.9375 19.59375 C 13.345772 20.944049 13 22.431343 13 24 C 13 25.568657 13.345772 27.055951 13.9375 28.40625 L 18.34375 24 L 13.9375 19.59375 z M 34.0625 19.59375 L 29.65625 24 L 34.0625 28.40625 C 34.654228 27.055951 35 25.568657 35 24 C 35 22.431343 34.654228 20.944049 34.0625 19.59375 z M 24 29.625 L 19.5625 34.0625 C 20.919705 34.661504 22.421161 35 24 35 C 25.568665 35 27.05595 34.65423 28.40625 34.0625 L 24 29.625 z M 18.0625 35.5625 L 16.59375 37.03125 C 18.779822 38.275919 21.304501 39 24 39 C 26.695499 39 29.220178 38.275919 31.40625 37.03125 L 29.90625 35.5625 C 28.130382 36.472683 26.132677 37 24 37 C 21.857131 37 19.844577 36.480839 18.0625 35.5625 z "
       transform="translate(0,1004.3622)"
       id="path3123" />
    <path
       style="font-size:medium;font-style:normal;font-variant:normal;font-weight:normal;font-stretch:normal;text-indent:0;text-align:start;text-decoration:none;line-height:normal;letter-spacing:normal;word-spacing:normal;text-transform:none;direction:ltr;block-progression:tb;writing-mode:lr-tb;text-anchor:start;baseline-shift:baseline;color:#000000;fill:#555555;fill-opacity:1;stroke:none;stroke-width:4;marker:none;visibility:visible;display:inline;overflow:visible;enable-background:accumulate;font-family:Sans;-inkscape-font-specification:Sans"
       d="m 37.301132,1014.7486 a 2.0002,2.0002 0 0 0 -2.695844,0.1768 l -10.606602,10.6066 -10.606602,-10.6066 a 2.0002,2.0002 0 1 0 -2.828427,2.8284 l 10.606602,10.6066 -10.606602,10.6066 a 2.0002,2.0002 0 1 0 2.828427,2.8284 l 10.606602,-10.6066 10.606602,10.6066 a 2.0002,2.0002 0 0 0 2.872621,0 2.0002,2.0002 0 0 0 -0.04419,-2.8284 l -10.606602,-10.6066 10.606602,-10.6066 a 2.0002,2.0002 0 0 0 0,-2.8726 2.0002,2.0002 0 0 0 -0.132583,-0.1326 z"
       id="path5931"
       inkscape:connector-curvature="0" />
  </g>
</svg>
