<?xml version="1.0" encoding="UTF-8" standalone="no"?>
<!-- Created with Inkscape (http://www.inkscape.org/) -->

<svg
   xmlns:dc="http://purl.org/dc/elements/1.1/"
   xmlns:cc="http://creativecommons.org/ns#"
   xmlns:rdf="http://www.w3.org/1999/02/22-rdf-syntax-ns#"
   xmlns:svg="http://www.w3.org/2000/svg"
   xmlns="http://www.w3.org/2000/svg"
   xmlns:sodipodi="http://sodipodi.sourceforge.net/DTD/sodipodi-0.dtd"
   xmlns:inkscape="http://www.inkscape.org/namespaces/inkscape"
   width="32px"
   height="32px"
   id="svg3016"
   version="1.1"
   inkscape:version="0.48.4 r9939"
   sodipodi:docname="Neues Dokument 1">
  <defs
     id="defs3018" />
  <sodipodi:namedview
     id="base"
     pagecolor="#ffffff"
     bordercolor="#666666"
     borderopacity="1.0"
     inkscape:pageopacity="0.0"
     inkscape:pageshadow="2"
     inkscape:zoom="11.197802"
     inkscape:cx="4.5245337"
     inkscape:cy="16"
     inkscape:current-layer="layer1"
     showgrid="true"
     inkscape:grid-bbox="true"
     inkscape:document-units="px"
     inkscape:window-width="1366"
     inkscape:window-height="709"
     inkscape:window-x="0"
     inkscape:window-y="27"
     inkscape:window-maximized="1">
    <inkscape:grid
       type="xygrid"
       id="grid3024" />
  </sodipodi:namedview>
  <metadata
     id="metadata3021">
    <rdf:RDF>
      <cc:Work
         rdf:about="">
        <dc:format>image/svg+xml</dc:format>
        <dc:type
           rdf:resource="http://purl.org/dc/dcmitype/StillImage" />
        <dc:title></dc:title>
      </cc:Work>
    </rdf:RDF>
  </metadata>
  <g
     id="layer1"
     inkscape:label="Layer 1"
     inkscape:groupmode="layer">
    <g
       transform="matrix(1.1331445,0,0,1.1331445,-13.491328,-4.5513271)"
       style="font-size:40px;font-style:normal;font-variant:normal;font-weight:normal;font-stretch:normal;line-height:125%;letter-spacing:0px;word-spacing:0px;fill:#bebebe;fill-opacity:1;stroke:none;font-family:Ubuntu;-inkscape-font-specification:Ubuntu"
       id="text3788">
      <path
         d="m 28.026096,11.536546 c -8e-6,2.240018 -0.08001,4.280015 -0.24,6.12 -0.160007,1.813345 -0.360007,3.626677 -0.6,5.44 l -2.32,0 c -0.240004,-1.813323 -0.440004,-3.626655 -0.6,-5.44 -0.160004,-1.839985 -0.240004,-3.879982 -0.24,-6.12 l 0,-7.5200004 4,0 0,7.5200004 m 0.68,18.04 c -8e-6,0.720001 -0.240008,1.346667 -0.72,1.88 -0.480007,0.533333 -1.13334,0.799999 -1.96,0.8 -0.826671,-10e-7 -1.480004,-0.266667 -1.96,-0.8 -0.480003,-0.533333 -0.720003,-1.159999 -0.72,-1.88 -3e-6,-0.719998 0.239997,-1.346664 0.72,-1.88 0.479996,-0.533329 1.133329,-0.799996 1.96,-0.8 0.82666,4e-6 1.479993,0.266671 1.96,0.8 0.479992,0.533336 0.719992,1.160002 0.72,1.88"
         id="path3793"
         inkscape:connector-curvature="0"
         style="fill:#bebebe;fill-opacity:1" />
    </g>
  </g>
</svg>
