<?xml version="1.0" encoding="UTF-8" standalone="no"?>
<!-- Created with Inkscape (http://www.inkscape.org/) -->

<svg
   xmlns:dc="http://purl.org/dc/elements/1.1/"
   xmlns:cc="http://creativecommons.org/ns#"
   xmlns:rdf="http://www.w3.org/1999/02/22-rdf-syntax-ns#"
   xmlns:svg="http://www.w3.org/2000/svg"
   xmlns="http://www.w3.org/2000/svg"
   xmlns:xlink="http://www.w3.org/1999/xlink"
   xmlns:sodipodi="http://sodipodi.sourceforge.net/DTD/sodipodi-0.dtd"
   xmlns:inkscape="http://www.inkscape.org/namespaces/inkscape"
   version="1.0"
   width="32"
   height="32"
   id="svg2527"
   inkscape:version="0.48.3.1 r9886"
   sodipodi:docname="bonobo-component-browser.svg">
  <metadata
     id="metadata27">
    <rdf:RDF>
      <cc:Work
         rdf:about="">
        <dc:format>image/svg+xml</dc:format>
        <dc:type
           rdf:resource="http://purl.org/dc/dcmitype/StillImage" />
        <dc:title></dc:title>
      </cc:Work>
    </rdf:RDF>
  </metadata>
  <sodipodi:namedview
     pagecolor="#ffffff"
     bordercolor="#666666"
     borderopacity="1"
     objecttolerance="10"
     gridtolerance="10"
     guidetolerance="10"
     inkscape:pageopacity="0"
     inkscape:pageshadow="2"
     inkscape:window-width="1366"
     inkscape:window-height="719"
     id="namedview25"
     showgrid="false"
     inkscape:zoom="11.753906"
     inkscape:cx="-22.821536"
     inkscape:cy="24"
     inkscape:window-x="0"
     inkscape:window-y="27"
     inkscape:window-maximized="1"
     inkscape:current-layer="svg2527" />
  <defs
     id="defs2529">
    <linearGradient
       id="linearGradient8838">
      <stop
         id="stop8840"
         style="stop-color:black;stop-opacity:1"
         offset="0" />
      <stop
         id="stop8842"
         style="stop-color:black;stop-opacity:0"
         offset="1" />
    </linearGradient>
    <radialGradient
       cx="62.625"
       cy="4.625"
       r="10.625"
       fx="62.625"
       fy="4.625"
       id="radialGradient2436"
       xlink:href="#linearGradient8838"
       gradientUnits="userSpaceOnUse"
       gradientTransform="matrix(2.1647059,0,0,0.7529402,-111.56471,36.517647)" />
    <linearGradient
       id="linearGradient3397">
      <stop
         id="stop3399"
         style="stop-color:#aaa;stop-opacity:1"
         offset="0" />
      <stop
         id="stop3401"
         style="stop-color:#8c8c8c;stop-opacity:1"
         offset="1" />
    </linearGradient>
    <linearGradient
       x1="37.201294"
       y1="1"
       x2="37.201294"
       y2="45"
       id="linearGradient2517"
       xlink:href="#linearGradient3397"
       gradientUnits="userSpaceOnUse" />
    <linearGradient
       x1="63.9995"
       y1="3.1001"
       x2="63.9995"
       y2="122.8994"
       id="linearGradient3309"
       gradientUnits="userSpaceOnUse">
      <stop
         id="stop3311"
         style="stop-color:#f6f6f6;stop-opacity:1"
         offset="0" />
      <stop
         id="stop3313"
         style="stop-color:#d2d2d2;stop-opacity:1"
         offset="1" />
    </linearGradient>
    <linearGradient
       x1="20.758585"
       y1="1"
       x2="20.758585"
       y2="45.017357"
       id="linearGradient2515"
       xlink:href="#linearGradient3309"
       gradientUnits="userSpaceOnUse" />
    <linearGradient
       id="linearGradient5128">
      <stop
         id="stop5130"
         style="stop-color:#e5e5e5;stop-opacity:1"
         offset="0" />
      <stop
         id="stop5132"
         style="stop-color:#ababab;stop-opacity:1"
         offset="1" />
    </linearGradient>
    <linearGradient
       x1="86.132919"
       y1="105.105"
       x2="84.63858"
       y2="20.895"
       id="linearGradient2512"
       xlink:href="#linearGradient5128"
       gradientUnits="userSpaceOnUse"
       gradientTransform="matrix(0.3244803,0,0,0.3244803,3.2332655,2.5577454)" />
    <linearGradient
       inkscape:collect="always"
       xlink:href="#linearGradient5128"
       id="linearGradient3006"
       gradientUnits="userSpaceOnUse"
       gradientTransform="matrix(0.3244803,0,0,0.3244803,-61.64809,4.5916437)"
       x1="86.132919"
       y1="105.105"
       x2="84.63858"
       y2="20.895" />
  </defs>
  <path
     inkscape:connector-curvature="0"
     style="opacity:1.0;fill:#2D2D2D;fill-opacity:1;fill-rule:nonzero;stroke:#000000;stroke-width:2.25;stroke-linecap:butt;stroke-linejoin:round;stroke-miterlimit:4;stroke-opacity:1;stroke-dasharray:none;stroke-dashoffset:0;marker:none;visibility:visible;display:block;overflow:visible;enable-background:accumulate"
     id="rect3267"
     d="m 14.084121,2.1250009 c -0.546048,0 -0.98819,0.4529748 -0.98819,1.0083573 l 0,1.9562138 c -0.976375,0.2601435 -1.909306,0.6530839 -2.7629,1.1495269 L 8.9414977,4.8475657 C 8.7451397,4.6512082 8.5099187,4.5472125 8.2558147,4.5450585 8.0017107,4.5428785 7.7430217,4.6343415 7.5499647,4.827399 L 4.8273989,7.5499639 c -0.3861142,0.386115 -0.3725475,0.9988177 0.020167,1.3915335 l 1.3915331,1.3915336 c -0.496443,0.853594 -0.8893834,1.786524 -1.1495276,2.762899 l -1.9562137,0 c -0.5553825,0 -1.008357,0.442141 -1.008357,0.98819 l 0,3.831759 c 0,0.546049 0.4529745,0.988191 1.008357,0.988191 l 1.9562137,0 c 0.2601442,0.976375 0.6530839,1.909305 1.1495276,2.762899 l -1.3915331,1.391534 c -0.392715,0.392715 -0.4062817,1.005418 -0.020167,1.391533 l 2.7225663,2.722565 c 0.386114,0.386115 0.998818,0.372547 1.391533,-0.02017 L 10.333031,25.7609 c 0.853594,0.496444 1.786525,0.889384 2.7629,1.149528 l 0,1.956213 c 0,0.555384 0.442141,1.008358 0.98819,1.008358 l 3.831759,0 c 0.546049,0 0.988191,-0.452974 0.988191,-1.008358 l 0,-1.956213 c 0.976375,-0.260144 1.909305,-0.653084 2.762899,-1.149528 l 1.391534,1.391534 c 0.392715,0.392715 1.005419,0.406282 1.391534,0.02017 l 2.722565,-2.722565 c 0.386115,-0.386115 0.372548,-0.998818 -0.02017,-1.391533 L 25.7609,21.666972 c 0.496444,-0.853594 0.889384,-1.786524 1.149527,-2.762899 l 1.956214,0 c 0.555382,0 1.008358,-0.442141 1.008358,-0.988191 l 0,-3.831759 c 0,-0.546048 -0.452976,-0.98819 -1.008358,-0.98819 l -1.956214,0 c -0.260141,-0.976378 -0.653081,-1.909308 -1.149525,-2.762902 l 1.391534,-1.3915336 c 0.392714,-0.392715 0.406282,-1.0054185 0.02017,-1.3915335 L 24.450038,4.827399 C 24.063923,4.441284 23.451219,4.4548507 23.058504,4.8475665 L 21.66697,6.2390997 C 20.813376,5.7426567 19.880446,5.3497162 18.904071,5.0895727 l 0,-1.9562137 c 0,-0.5553833 -0.442141,-1.0083573 -0.988191,-1.0083573 l -3.831759,0 z m 1.91588,9.6802321 c 2.315512,0 4.194767,1.879255 4.194767,4.194767 0,2.315512 -1.879255,4.194767 -4.194767,4.194767 -2.315512,0 -4.194767,-1.879255 -4.194767,-4.194767 0,-2.315512 1.879255,-4.194767 4.194767,-4.194767 z" />
</svg>
