<?xml version="1.0" encoding="UTF-8" standalone="no"?>
<!-- Created with Inkscape (http://www.inkscape.org/) -->

<svg
   xmlns:dc="http://purl.org/dc/elements/1.1/"
   xmlns:cc="http://creativecommons.org/ns#"
   xmlns:rdf="http://www.w3.org/1999/02/22-rdf-syntax-ns#"
   xmlns:svg="http://www.w3.org/2000/svg"
   xmlns="http://www.w3.org/2000/svg"
   xmlns:xlink="http://www.w3.org/1999/xlink"
   xmlns:sodipodi="http://sodipodi.sourceforge.net/DTD/sodipodi-0.dtd"
   xmlns:inkscape="http://www.inkscape.org/namespaces/inkscape"
   version="1.0"
   width="32"
   height="32"
   id="svg2527"
   inkscape:version="0.48.4 r9939"
   sodipodi:docname="bonobo-component-browser.svg">
  <metadata
     id="metadata27">
    <rdf:RDF>
      <cc:Work
         rdf:about="">
        <dc:format>image/svg+xml</dc:format>
        <dc:type
           rdf:resource="http://purl.org/dc/dcmitype/StillImage" />
        <dc:title></dc:title>
      </cc:Work>
    </rdf:RDF>
  </metadata>
  <sodipodi:namedview
     pagecolor="#ffffff"
     bordercolor="#666666"
     borderopacity="1"
     objecttolerance="10"
     gridtolerance="10"
     guidetolerance="10"
     inkscape:pageopacity="0"
     inkscape:pageshadow="2"
     inkscape:window-width="1366"
     inkscape:window-height="712"
     id="namedview25"
     showgrid="false"
     inkscape:zoom="11.753906"
     inkscape:cx="1.1704884"
     inkscape:cy="16.002659"
     inkscape:window-x="0"
     inkscape:window-y="27"
     inkscape:window-maximized="1"
     inkscape:current-layer="svg2527" />
  <defs
     id="defs2529">
    <linearGradient
       id="linearGradient8838">
      <stop
         id="stop8840"
         style="stop-color:black;stop-opacity:1"
         offset="0" />
      <stop
         id="stop8842"
         style="stop-color:black;stop-opacity:0"
         offset="1" />
    </linearGradient>
    <radialGradient
       cx="62.625"
       cy="4.625"
       r="10.625"
       fx="62.625"
       fy="4.625"
       id="radialGradient2436"
       xlink:href="#linearGradient8838"
       gradientUnits="userSpaceOnUse"
       gradientTransform="matrix(2.1647059,0,0,0.7529402,-111.56471,36.517647)" />
    <linearGradient
       id="linearGradient3397">
      <stop
         id="stop3399"
         style="stop-color:#aaa;stop-opacity:1"
         offset="0" />
      <stop
         id="stop3401"
         style="stop-color:#8c8c8c;stop-opacity:1"
         offset="1" />
    </linearGradient>
    <linearGradient
       x1="37.201294"
       y1="1"
       x2="37.201294"
       y2="45"
       id="linearGradient2517"
       xlink:href="#linearGradient3397"
       gradientUnits="userSpaceOnUse" />
    <linearGradient
       x1="63.9995"
       y1="3.1001"
       x2="63.9995"
       y2="122.8994"
       id="linearGradient3309"
       gradientUnits="userSpaceOnUse">
      <stop
         id="stop3311"
         style="stop-color:#f6f6f6;stop-opacity:1"
         offset="0" />
      <stop
         id="stop3313"
         style="stop-color:#d2d2d2;stop-opacity:1"
         offset="1" />
    </linearGradient>
    <linearGradient
       x1="20.758585"
       y1="1"
       x2="20.758585"
       y2="45.017357"
       id="linearGradient2515"
       xlink:href="#linearGradient3309"
       gradientUnits="userSpaceOnUse" />
    <linearGradient
       id="linearGradient5128">
      <stop
         id="stop5130"
         style="stop-color:#e5e5e5;stop-opacity:1"
         offset="0" />
      <stop
         id="stop5132"
         style="stop-color:#ababab;stop-opacity:1"
         offset="1" />
    </linearGradient>
    <linearGradient
       x1="86.132919"
       y1="105.105"
       x2="84.63858"
       y2="20.895"
       id="linearGradient2512"
       xlink:href="#linearGradient5128"
       gradientUnits="userSpaceOnUse"
       gradientTransform="matrix(0.3244803,0,0,0.3244803,3.2332655,2.5577454)" />
    <linearGradient
       inkscape:collect="always"
       xlink:href="#linearGradient5128"
       id="linearGradient3006"
       gradientUnits="userSpaceOnUse"
       gradientTransform="matrix(0.3244803,0,0,0.3244803,-61.64809,4.5916437)"
       x1="86.132919"
       y1="105.105"
       x2="84.63858"
       y2="20.895" />
  </defs>
  <path
     style="font-size:medium;font-style:normal;font-variant:normal;font-weight:normal;font-stretch:normal;text-indent:0;text-align:start;text-decoration:none;line-height:normal;letter-spacing:normal;word-spacing:normal;text-transform:none;direction:ltr;block-progression:tb;writing-mode:lr-tb;text-anchor:start;baseline-shift:baseline;color:#000000;fill:#555555#2d2d2d#bada55;fill-opacity:1;fill-rule:nonzero;stroke:none;stroke-width:2.25;marker:none;visibility:visible;display:block;overflow:visible;enable-background:accumulate;font-family:Sans;-inkscape-font-specification:Sans"
     d="m 14.09375,1 c -1.168211,0 -2.125,0.9725398 -2.125,2.125 l 0,1.21875 C 11.502393,4.5064787 11.063882,4.7231646 10.625,4.9375 L 9.75,4.0625 C 9.3764333,3.6889343 8.8051346,3.4109558 8.25,3.40625 7.7194187,3.4016981 7.172743,3.6085059 6.75,4.03125 L 4.03125,6.75 c -0.8162052,0.8162069 -0.7660055,2.2027418 0.03125,3 l 0.875,0.875 c -0.2143354,0.438882 -0.4310212,0.877393 -0.59375,1.34375 l -1.21875,0 c -1.1524588,0 -2.125,0.956789 -2.125,2.125 l 0,3.8125 c 0,1.168211 0.9725398,2.125 2.125,2.125 l 1.21875,0 c 0.1627287,0.466357 0.3794145,0.904868 0.59375,1.34375 l -0.875,0.875 c -0.7972577,0.797258 -0.8474562,2.183793 -0.03125,3 L 6.75,27.96875 c 0.8162077,0.81621 2.2027434,0.766011 3,-0.03125 l 0.875,-0.875 c 0.438883,0.214336 0.877393,0.431021 1.34375,0.59375 l 0,1.21875 c 0,1.152459 0.95679,2.125 2.125,2.125 l 3.8125,0 c 1.16821,0 2.125,-0.97254 2.125,-2.125 l 0,-1.21875 c 0.466357,-0.162729 0.904868,-0.379414 1.34375,-0.59375 l 0.875,0.875 c 0.797258,0.797258 2.183791,0.847453 3,0.03125 L 27.96875,25.25 c 0.816207,-0.816207 0.766012,-2.202744 -0.03125,-3 l -0.875,-0.875 c 0.214336,-0.438882 0.431021,-0.877393 0.59375,-1.34375 l 1.21875,0 c 1.152459,0 2.125,-0.956787 2.125,-2.125 l 0,-3.8125 c 0,-1.168213 -0.97254,-2.125 -2.125,-2.125 l -1.21875,0 C 27.493522,11.502391 27.276836,11.063883 27.0625,10.625 l 0.875,-0.875 c 0.797256,-0.7972577 0.847453,-2.1837904 0.03125,-3 L 25.25,4.03125 c -0.816207,-0.8162073 -2.202742,-0.7660096 -3,0.03125 l -0.875,0.875 C 20.936118,4.7231646 20.497607,4.5064787 20.03125,4.34375 l 0,-1.21875 C 20.03125,1.9725412 19.07446,1 17.90625,1 z M 16,12.9375 c 1.706817,0 3.0625,1.355683 3.0625,3.0625 0,1.706817 -1.355683,3.0625 -3.0625,3.0625 -1.706817,0 -3.0625,-1.355683 -3.0625,-3.0625 0,-1.706817 1.355683,-3.0625 3.0625,-3.0625 z"
     id="rect3267"
     inkscape:connector-curvature="0"
     sodipodi:nodetypes="ssccscsssccssssccssssccssssccssssccssssccssssccssssssss" />
</svg>