<?xml version="1.0" encoding="UTF-8" standalone="no"?>
<!-- Created with Inkscape (http://www.inkscape.org/) -->

<svg
   xmlns:dc="http://purl.org/dc/elements/1.1/"
   xmlns:cc="http://creativecommons.org/ns#"
   xmlns:rdf="http://www.w3.org/1999/02/22-rdf-syntax-ns#"
   xmlns:svg="http://www.w3.org/2000/svg"
   xmlns="http://www.w3.org/2000/svg"
   xmlns:xlink="http://www.w3.org/1999/xlink"
   xmlns:sodipodi="http://sodipodi.sourceforge.net/DTD/sodipodi-0.dtd"
   xmlns:inkscape="http://www.inkscape.org/namespaces/inkscape"
   id="svg3027"
   height="32"
   width="32"
   version="1.1"
   inkscape:version="0.48.4 r9939"
   sodipodi:docname="tag-new.svg">
  <sodipodi:namedview
     pagecolor="#ffffff"
     bordercolor="#666666"
     borderopacity="1"
     objecttolerance="10"
     gridtolerance="10"
     guidetolerance="10"
     inkscape:pageopacity="0"
     inkscape:pageshadow="2"
     inkscape:window-width="1366"
     inkscape:window-height="712"
     id="namedview41"
     showgrid="true"
     inkscape:zoom="4.9166665"
     inkscape:cx="11.037478"
     inkscape:cy="11.651076"
     inkscape:window-x="0"
     inkscape:window-y="27"
     inkscape:window-maximized="1"
     inkscape:current-layer="svg3027">
    <inkscape:grid
       type="xygrid"
       id="grid3018"
       empspacing="5"
       visible="true"
       enabled="true"
       snapvisiblegridlinesonly="true" />
  </sodipodi:namedview>
  <defs
     id="defs3029">
    <linearGradient
       id="linearGradient2865"
       y2="-0.024518"
       xlink:href="#linearGradient3251"
       gradientUnits="userSpaceOnUse"
       x2="17.591999"
       gradientTransform="matrix(2,0,0,2,-2,1.9989)"
       y1="7"
       x1="17.591999" />
    <linearGradient
       id="linearGradient3251">
      <stop
         id="stop3253"
         style="stop-color:#917f6e"
         offset="0" />
      <stop
         id="stop3255"
         style="stop-color:#cbbaa9"
         offset="1" />
    </linearGradient>
    <linearGradient
       id="linearGradient2979"
       y2="22.698"
       gradientUnits="userSpaceOnUse"
       x2="38.382"
       gradientTransform="matrix(2,0,0,2,-50,-4.0011)"
       y1="5.4849"
       x1="38.382">
      <stop
         id="stop4224-8"
         style="stop-color:#fff"
         offset="0" />
      <stop
         id="stop4226-7"
         style="stop-color:#fff;stop-opacity:0"
         offset="1" />
    </linearGradient>
    <linearGradient
       id="linearGradient2868"
       y2="7.0925002"
       gradientUnits="userSpaceOnUse"
       x2="40.007"
       gradientTransform="matrix(1.6599,0,0,1.6599,-35.909,-1.1011)"
       y1="12.911"
       x1="40.007">
      <stop
         id="stop4224"
         style="stop-color:#fff"
         offset="0" />
      <stop
         id="stop4226"
         style="stop-color:#fff;stop-opacity:0"
         offset="1" />
    </linearGradient>
    <linearGradient
       id="linearGradient2874"
       y2="24.034"
       gradientUnits="userSpaceOnUse"
       x2="39.905998"
       gradientTransform="matrix(2,0,0,2,-49.5,-4.5)"
       y1="6.1230001"
       x1="39.905998">
      <stop
         id="stop3245"
         style="stop-color:#fff4e9"
         offset="0" />
      <stop
         id="stop3247"
         style="stop-color:#e7d6c5"
         offset="1" />
    </linearGradient>
    <linearGradient
       id="linearGradient2876"
       y2="5"
       xlink:href="#linearGradient3251"
       gradientUnits="userSpaceOnUse"
       x2="32.015999"
       gradientTransform="matrix(2,0,0,2,-49.5,-4.5)"
       y1="24.011"
       x1="32.015999" />
    <radialGradient
       id="radialGradient3025"
       gradientUnits="userSpaceOnUse"
       cx="10.471"
       cy="20.146999"
       r="9.2146997"
       gradientTransform="matrix(1.9534,0,0,0.65114,-2.4545,24.881)">
      <stop
         id="stop3285"
         offset="0" />
      <stop
         id="stop3287"
         style="stop-opacity:0"
         offset="1" />
    </radialGradient>
    <linearGradient
       id="linearGradient5530"
       y2="38.273998"
       gradientUnits="userSpaceOnUse"
       x2="22.368999"
       gradientTransform="matrix(0.59882,0,0,0.5952,23.605,21.219)"
       y1="8.0323"
       x1="22.368999">
      <stop
         id="stop3945"
         style="stop-color:#fff"
         offset="0" />
      <stop
         id="stop3947"
         style="stop-color:#fff;stop-opacity:0"
         offset="1" />
    </linearGradient>
    <radialGradient
       id="radialGradient3419"
       gradientUnits="userSpaceOnUse"
       cx="69.447998"
       cy="51.695"
       r="31"
       gradientTransform="matrix(0,0.67924,-0.73892,0,72.903,-19.49)">
      <stop
         id="stop3244-5"
         style="stop-color:#eef87e"
         offset="0" />
      <stop
         id="stop3246-9"
         style="stop-color:#cde34f"
         offset=".26238" />
      <stop
         id="stop3248-7"
         style="stop-color:#93b723"
         offset=".66094" />
      <stop
         id="stop3250-8"
         style="stop-color:#5a7e0d"
         offset="1" />
    </radialGradient>
    <linearGradient
       id="linearGradient3421"
       y2="52.808998"
       gradientUnits="userSpaceOnUse"
       y1="123.19"
       gradientTransform="matrix(0.28214,0,0,0.28445,12.171,9.9582)"
       x2="72.421997"
       x1="72.421997">
      <stop
         id="stop2492-3"
         style="stop-color:#365f0e"
         offset="0" />
      <stop
         id="stop2494-8"
         style="stop-color:#84a718"
         offset="1" />
    </linearGradient>
  </defs>
  <metadata
     id="metadata3032">
    <rdf:RDF>
      <cc:Work
         rdf:about="">
        <dc:format>image/svg+xml</dc:format>
        <dc:type
           rdf:resource="http://purl.org/dc/dcmitype/StillImage" />
        <dc:title />
      </cc:Work>
    </rdf:RDF>
  </metadata>
  <path
     style="font-size:medium;font-style:normal;font-variant:normal;font-weight:normal;font-stretch:normal;text-indent:0;text-align:start;text-decoration:none;line-height:normal;letter-spacing:normal;word-spacing:normal;text-transform:none;direction:ltr;block-progression:tb;writing-mode:lr-tb;text-anchor:start;baseline-shift:baseline;color:#000000;fill:#555555;fill-opacity:1;stroke:none;stroke-width:2.25;marker:none;visibility:visible;display:inline;overflow:visible;enable-background:accumulate;font-family:Sans;-inkscape-font-specification:Sans"
     d="M 17.875 1 C 17.615248 1.030015 17.367363 1.1539576 17.1875 1.34375 L 1.34375 17.1875 C 0.92563822 17.604246 0.92563822 18.364504 1.34375 18.78125 L 13.21875 30.65625 C 13.635496 31.074362 14.395754 31.074362 14.8125 30.65625 L 19 26.46875 L 19 22 L 23 22 L 23 18 L 27.46875 18 L 30.65625 14.8125 C 30.866308 14.609935 30.992572 14.291722 31 14 L 31 2 C 30.999941 1.4109675 30.589033 1.0000589 30 1 L 17.96875 1 C 17.93752 0.998698 17.90623 0.998698 17.875 1 z M 24.46875 5.09375 C 25.82372 5.09375 26.90625 6.1762803 26.90625 7.53125 C 26.90625 8.8862197 25.82372 10 24.46875 10 C 23.11378 10 22 8.8862197 22 7.53125 C 22 6.1762803 23.11378 5.09375 24.46875 5.09375 z M 24.90625 19 C 24.398974 19.107968 23.988689 19.606485 24 20.125 L 24 23.03125 L 21.125 23.03125 C 20.535967 23.031308 20.00006 23.567216 20 24.15625 L 20 25.90625 C 20.00006 26.495282 20.535967 27.031191 21.125 27.03125 L 24 27.03125 L 24 29.875 C 24.000059 30.464033 24.535967 30.999941 25.125 31 L 26.875 31 C 27.464033 30.999941 27.999941 30.464033 28 29.875 L 28 27.03125 L 30.875 27.03125 C 31.464032 27.031191 31.99994 26.495282 32 25.90625 L 32 24.15625 C 31.99994 23.567216 31.464032 23.031308 30.875 23.03125 L 28 23.03125 L 28 20.125 C 27.999941 19.535967 27.464033 19.000059 26.875 19 L 25.125 19 C 25.04716 18.9918 24.984091 18.9918 24.90625 19 z "
     id="path3020" />
</svg>
