<?xml version="1.0" encoding="UTF-8" standalone="no"?>
<!-- Created with Inkscape (http://www.inkscape.org/) -->

<svg
   xmlns:dc="http://purl.org/dc/elements/1.1/"
   xmlns:cc="http://creativecommons.org/ns#"
   xmlns:rdf="http://www.w3.org/1999/02/22-rdf-syntax-ns#"
   xmlns:svg="http://www.w3.org/2000/svg"
   xmlns="http://www.w3.org/2000/svg"
   xmlns:xlink="http://www.w3.org/1999/xlink"
   xmlns:sodipodi="http://sodipodi.sourceforge.net/DTD/sodipodi-0.dtd"
   xmlns:inkscape="http://www.inkscape.org/namespaces/inkscape"
   width="48"
   height="48"
   id="svg2"
   version="1.1"
   inkscape:version="0.48.3.1 r9886"
   sodipodi:docname="AdobeReader10.svg">
  <defs
     id="defs4">
    <linearGradient
       id="linearGradient3795">
      <stop
         style="stop-color:#9f1e25;stop-opacity:1;"
         offset="0"
         id="stop3797" />
      <stop
         style="stop-color:#e16459;stop-opacity:1;"
         offset="1"
         id="stop3799" />
    </linearGradient>
    <linearGradient
       inkscape:collect="always"
       id="linearGradient3914">
      <stop
         style="stop-color:#59b3e1;stop-opacity:1;"
         offset="0"
         id="stop3916" />
      <stop
         style="stop-color:#59b3e1;stop-opacity:0;"
         offset="1"
         id="stop3918" />
    </linearGradient>
    <linearGradient
       id="linearGradient3698">
      <stop
         id="stop3700"
         offset="0"
         style="stop-color:#96d0e1;stop-opacity:1" />
      <stop
         style="stop-color:#89b7e1;stop-opacity:1"
         offset="0.67819428"
         id="stop3706" />
      <stop
         id="stop3702"
         offset="1"
         style="stop-color:#699dd3;stop-opacity:1" />
    </linearGradient>
    <linearGradient
       id="linearGradient3708">
      <stop
         id="stop3710"
         offset="0"
         style="stop-color:#658db6;stop-opacity:1" />
      <stop
         style="stop-color:#527fab;stop-opacity:1;"
         offset="0.76777935"
         id="stop3716" />
      <stop
         id="stop3712"
         offset="1"
         style="stop-color:#4071a0;stop-opacity:1" />
    </linearGradient>
    <linearGradient
       id="linearGradient3750">
      <stop
         style="stop-color:#d0e2f1;stop-opacity:1"
         offset="0"
         id="stop3752" />
      <stop
         id="stop3756"
         offset="0.85580856"
         style="stop-color:#cadef0;stop-opacity:1" />
      <stop
         style="stop-color:#95bee3;stop-opacity:1"
         offset="1"
         id="stop3754" />
    </linearGradient>
    <linearGradient
       id="linearGradient3803">
      <stop
         id="stop3805"
         offset="0"
         style="stop-color:#d7def0;stop-opacity:1;" />
      <stop
         style="stop-color:#ffffff;stop-opacity:1"
         offset="0.5"
         id="stop3811" />
      <stop
         id="stop3807"
         offset="1"
         style="stop-color:#d5def0;stop-opacity:1" />
    </linearGradient>
    <linearGradient
       inkscape:collect="always"
       xlink:href="#linearGradient3914"
       id="linearGradient3920"
       x1="6.8000002"
       y1="25.0625"
       x2="45.325001"
       y2="25.0625"
       gradientUnits="userSpaceOnUse" />
    <linearGradient
       inkscape:collect="always"
       xlink:href="#linearGradient3795"
       id="linearGradient3801"
       x1="23.204165"
       y1="1053.158"
       x2="23.204165"
       y2="1004.8474"
       gradientUnits="userSpaceOnUse" />
  </defs>
  <sodipodi:namedview
     id="base"
     pagecolor="#ffffff"
     bordercolor="#666666"
     borderopacity="1.0"
     inkscape:pageopacity="0.0"
     inkscape:pageshadow="2"
     inkscape:zoom="8.0000004"
     inkscape:cx="46.754216"
     inkscape:cy="27.715825"
     inkscape:document-units="px"
     inkscape:current-layer="layer1"
     showgrid="true"
     inkscape:window-width="1366"
     inkscape:window-height="709"
     inkscape:window-x="0"
     inkscape:window-y="27"
     inkscape:window-maximized="1">
    <inkscape:grid
       type="xygrid"
       id="grid3011" />
  </sodipodi:namedview>
  <metadata
     id="metadata7">
    <rdf:RDF>
      <cc:Work
         rdf:about="">
        <dc:format>image/svg+xml</dc:format>
        <dc:type
           rdf:resource="http://purl.org/dc/dcmitype/StillImage" />
        <dc:title />
      </cc:Work>
    </rdf:RDF>
  </metadata>
  <g
     inkscape:label="Capa 1"
     inkscape:groupmode="layer"
     id="layer1"
     transform="translate(0,-1004.3622)">
    <rect
       style="fill:url(#linearGradient3801);fill-opacity:1;stroke:none"
       id="rect2991"
       width="48"
       height="48"
       x="0"
       y="1004.3622"
       ry="1.9445436" />
    <path
       style="fill:#ffffff;fill-opacity:1;stroke:none"
       d="m 25.367423,1016.3005 c 0,0 0.91888,8.5378 -5.57128,19.8102 -6.49015,11.2724 -8.39328,9.7596 -9.07646,9.3692 -0.68317,-0.3903 -1.56154,-1.6591 1.31755,-4.1966 2.8791,-2.5375 4.00145,-2.4887 4.00145,-2.4887 0,0 -2.6351,1.6103 -3.65986,3.1719 -1.02476,1.5615 -1.85433,2.5375 -1.61034,2.9767 0.24399,0.4391 3.185697,-1.801 4.405647,-3.7041 1.93753,-3.0225 5.597983,-8.6419 7.305913,-14.0097 1.70794,-5.3678 2.88738,-10.9289 2.88738,-10.9289 z"
       id="path3848"
       inkscape:connector-curvature="0"
       sodipodi:nodetypes="cssscssssc" />
    <path
       style="fill:#ffffff;fill-opacity:1;stroke:none"
       d="m 41.364943,1036.0619 c 0,0 -0.14639,0.3904 -1.85433,0.244 -1.70794,-0.1464 -8.34449,-2.2447 -11.90676,-6.539 -3.56226,-4.2942 -3.85505,-10.1988 -4.09904,-13.2731 -0.24399,-3.0743 1.104859,-2.218 1.300059,-1.8276 0.305675,0.2578 0.456671,1.0956 0.456671,1.0956 0,0 -0.109563,-1.2586 -0.646343,-1.7954 -0.53678,-0.5368 -1.012797,-0.5469 -1.549577,0.3805 -0.53678,0.9272 -0.78077,3.5135 -0.34158,6.0022 0.43918,2.4887 2.24471,8.1981 4.48943,10.8332 2.24471,2.6351 6.73415,4.9286 10.05242,5.6118 3.31828,0.6831 4.09905,-0.732 4.09905,-0.732 z"
       id="path3850"
       inkscape:connector-curvature="0"
       sodipodi:nodetypes="csssccscssccc" />
    <path
       style="fill:#ffffff;fill-opacity:1;stroke:none"
       d="m 19.747353,1037.1842 c 0,0 6.44136,-2.0983 12.54113,-2.6839 6.09977,-0.5855 8.19809,0.049 8.73487,0.488 0.53678,0.4392 0.53678,0.9272 0.53678,0.9272 0,0 0.682258,-0.6786 0.233856,-1.3747 -0.3821,-0.7181 -0.965836,-1.3092 -5.796856,-1.1628 -4.83102,0.1464 -5.17261,0.3416 -9.61324,1.1711 -4.44064,0.8296 -6.63655,2.6351 -6.63654,2.6351 z"
       id="path3852"
       inkscape:connector-curvature="0"
       sodipodi:nodetypes="cccccscc" />
    <path
       inkscape:connector-curvature="0"
       style="opacity:0.15;fill:#ffffff;fill-opacity:1;stroke:none"
       d="m 2,1004.3622 c -1.108,0 -2,0.892 -2,2 l 0,44 c 0,1.108 0.892,2 2,2 l 14.78125,0 12.84375,-48 -27.625,0 z"
       id="rect3790" />
  </g>
</svg>
