<?xml version="1.0" encoding="UTF-8" standalone="no"?>
<!-- Created with Inkscape (http://www.inkscape.org/) -->

<svg
   xmlns:dc="http://purl.org/dc/elements/1.1/"
   xmlns:cc="http://creativecommons.org/ns#"
   xmlns:rdf="http://www.w3.org/1999/02/22-rdf-syntax-ns#"
   xmlns:svg="http://www.w3.org/2000/svg"
   xmlns="http://www.w3.org/2000/svg"
   xmlns:xlink="http://www.w3.org/1999/xlink"
   xmlns:sodipodi="http://sodipodi.sourceforge.net/DTD/sodipodi-0.dtd"
   xmlns:inkscape="http://www.inkscape.org/namespaces/inkscape"
   width="48"
   height="48"
   id="svg2"
   version="1.1"
   inkscape:version="0.48.3.1 r9886"
   sodipodi:docname="amarok.svg">
  <defs
     id="defs4">
    <linearGradient
       id="linearGradient3795">
      <stop
         style="stop-color:#3b819d;stop-opacity:1;"
         offset="0"
         id="stop3797" />
      <stop
         style="stop-color:#2e5b6c;stop-opacity:1;"
         offset="1"
         id="stop3799" />
    </linearGradient>
    <linearGradient
       id="linearGradient3698">
      <stop
         id="stop3700"
         offset="0"
         style="stop-color:#96d0e1;stop-opacity:1" />
      <stop
         style="stop-color:#89b7e1;stop-opacity:1"
         offset="0.67819428"
         id="stop3706" />
      <stop
         id="stop3702"
         offset="1"
         style="stop-color:#699dd3;stop-opacity:1" />
    </linearGradient>
    <linearGradient
       id="linearGradient3708">
      <stop
         id="stop3710"
         offset="0"
         style="stop-color:#658db6;stop-opacity:1" />
      <stop
         style="stop-color:#527fab;stop-opacity:1;"
         offset="0.76777935"
         id="stop3716" />
      <stop
         id="stop3712"
         offset="1"
         style="stop-color:#4071a0;stop-opacity:1" />
    </linearGradient>
    <linearGradient
       id="linearGradient3750">
      <stop
         style="stop-color:#d0e2f1;stop-opacity:1"
         offset="0"
         id="stop3752" />
      <stop
         id="stop3756"
         offset="0.85580856"
         style="stop-color:#cadef0;stop-opacity:1" />
      <stop
         style="stop-color:#95bee3;stop-opacity:1"
         offset="1"
         id="stop3754" />
    </linearGradient>
    <linearGradient
       id="linearGradient3803">
      <stop
         id="stop3805"
         offset="0"
         style="stop-color:#d7def0;stop-opacity:1;" />
      <stop
         style="stop-color:#ffffff;stop-opacity:1"
         offset="0.5"
         id="stop3811" />
      <stop
         id="stop3807"
         offset="1"
         style="stop-color:#d5def0;stop-opacity:1" />
    </linearGradient>
    <linearGradient
       inkscape:collect="always"
       xlink:href="#linearGradient3795"
       id="linearGradient3801"
       x1="23.204165"
       y1="1053.158"
       x2="23.204165"
       y2="1004.8474"
       gradientUnits="userSpaceOnUse"
       gradientTransform="translate(0,-2056.7244)" />
    <linearGradient
       inkscape:collect="always"
       xlink:href="#linearGradient3795"
       id="linearGradient3859"
       x1="26.192217"
       y1="1024.0002"
       x2="28.641211"
       y2="1024.0002"
       gradientUnits="userSpaceOnUse" />
    <linearGradient
       inkscape:collect="always"
       xlink:href="#linearGradient3795"
       id="linearGradient3867"
       gradientUnits="userSpaceOnUse"
       x1="26.192217"
       y1="1024.0002"
       x2="28.641211"
       y2="1024.0002" />
    <linearGradient
       inkscape:collect="always"
       xlink:href="#linearGradient3795"
       id="linearGradient3869"
       gradientUnits="userSpaceOnUse"
       x1="26.192217"
       y1="1024.0002"
       x2="28.641211"
       y2="1024.0002" />
    <linearGradient
       inkscape:collect="always"
       xlink:href="#linearGradient3795"
       id="linearGradient3871"
       gradientUnits="userSpaceOnUse"
       x1="26.192217"
       y1="1024.0002"
       x2="28.641211"
       y2="1024.0002" />
    <linearGradient
       inkscape:collect="always"
       xlink:href="#linearGradient3795"
       id="linearGradient3877"
       gradientUnits="userSpaceOnUse"
       x1="29.718235"
       y1="1027.8575"
       x2="22.811094"
       y2="1015.5485" />
    <linearGradient
       inkscape:collect="always"
       xlink:href="#linearGradient3795"
       id="linearGradient3879"
       gradientUnits="userSpaceOnUse"
       x1="17.196316"
       y1="1006.2238"
       x2="31.448042"
       y2="1030.9086" />
    <linearGradient
       inkscape:collect="always"
       xlink:href="#linearGradient3795"
       id="linearGradient3895"
       x1="21.973417"
       y1="34.43922"
       x2="42.475323"
       y2="24.798252"
       gradientUnits="userSpaceOnUse" />
    <linearGradient
       inkscape:collect="always"
       xlink:href="#linearGradient3635"
       id="linearGradient4043"
       gradientUnits="userSpaceOnUse"
       x1="24"
       y1="2.84375"
       x2="24"
       y2="42.84375" />
    <linearGradient
       id="linearGradient3635">
      <stop
         style="stop-color:#ffffff;stop-opacity:1;"
         offset="0"
         id="stop3637" />
      <stop
         style="stop-color:#dcdcdc;stop-opacity:1;"
         offset="1"
         id="stop3639" />
    </linearGradient>
  </defs>
  <sodipodi:namedview
     id="base"
     pagecolor="#ffffff"
     bordercolor="#666666"
     borderopacity="1.0"
     inkscape:pageopacity="0.0"
     inkscape:pageshadow="2"
     inkscape:zoom="11.313709"
     inkscape:cx="18.250526"
     inkscape:cy="22.387739"
     inkscape:document-units="px"
     inkscape:current-layer="layer1"
     showgrid="true"
     inkscape:window-width="1366"
     inkscape:window-height="709"
     inkscape:window-x="0"
     inkscape:window-y="27"
     inkscape:window-maximized="1">
    <inkscape:grid
       type="xygrid"
       id="grid3850" />
  </sodipodi:namedview>
  <metadata
     id="metadata7">
    <rdf:RDF>
      <cc:Work
         rdf:about="">
        <dc:format>image/svg+xml</dc:format>
        <dc:type
           rdf:resource="http://purl.org/dc/dcmitype/StillImage" />
        <dc:title />
      </cc:Work>
    </rdf:RDF>
  </metadata>
  <g
     inkscape:label="Capa 1"
     inkscape:groupmode="layer"
     id="layer1"
     transform="translate(0,-1004.3622)">
    <rect
       style="fill:url(#linearGradient3801);fill-opacity:1;stroke:none"
       id="rect2991"
       width="48"
       height="48"
       x="0"
       y="-1052.3622"
       ry="1.9445436"
       transform="scale(1,-1)" />
    <path
       inkscape:connector-curvature="0"
       id="path58"
       d="m 24.000001,1012.3622 c -8.836532,0 -15.9999575,7.1635 -15.9999575,15.9999 0,8.8366 7.1634255,16.0001 15.9999575,16.0001 8.83653,0 15.999955,-7.1635 15.999955,-16.0001 0,-8.8364 -7.163425,-15.9999 -15.999955,-15.9999 z m 0,2.0001 c 7.731964,0 13.99996,6.268 13.99996,13.9998 0,6.6144 -4.583708,12.1607 -10.749969,13.6251 -0.06276,-0.1254 -0.136907,-0.2599 -0.124999,-0.45 0.03461,-0.5553 0.05558,-1.2755 0.124999,-1.9 0.06947,-0.6247 0.322645,-5.8619 1.224996,-7.25 0.902235,-1.388 3.472676,-3.0514 4.374987,-3.225 0.902353,-0.1736 0.749999,-0.5378 0.749999,-0.8499 0,-0.3124 -0.157025,-0.996 -0.399999,-1.1001 -0.242896,-0.1037 -1.187672,0.5057 -1.499995,0.575 -0.312323,0.069 -1.816716,0.197 -2.024994,-0.15 -0.208204,-0.3473 1.682059,-3.8835 1.924994,-4.3 0.242973,-0.4165 0.351175,-0.9851 -0.1,-1.5749 -0.450982,-0.5901 -0.751489,-1.1752 -0.924997,-1.1752 -0.572295,0 -1.683552,1.3169 -2.099994,1.5251 -0.416444,0.2083 -3.712667,2.5585 -4.024989,2.9751 -0.312323,0.4164 -0.7239,0.5845 -1.174997,0.5499 -0.451099,-0.035 -1.889163,-0.053 -2.374992,0.225 -0.48591,0.2777 -2.719734,2.5473 -3.274993,2.8251 -0.555217,0.2775 -1.277939,0.4403 -1.624995,0.4749 -0.346978,0.035 -1.487672,1.307 -1.799995,1.55 -0.312323,0.2431 -2.777976,1.3169 -3.124992,1.5249 -0.347054,0.2083 2.533549,3.1308 2.949992,3.2002 0.395009,0.066 -0.22713,1.4792 -0.974997,1.6248 -1.902297,-2.3905 -3.049991,-5.4074 -3.049991,-8.7 0,-7.7318 6.267996,-13.9998 13.999962,-13.9998 z m -1.149998,12.7499 c 0.442875,-0.047 0.799998,0.025 0.799998,0.025 0.15875,0.3701 -0.587415,1.5163 -1.274996,1.675 -0.687426,0.1586 -2.272181,2.5039 -2.324993,1.975 -0.05304,-0.5288 0.631671,-2.2816 1.424995,-3.0749 0.396643,-0.3968 0.932122,-0.5537 1.374996,-0.6001 z"
       style="fill:#ffffff;fill-opacity:1" />
    <path
       inkscape:connector-curvature="0"
       style="opacity:0.15;fill:#ffffff;fill-opacity:1;stroke:none"
       d="m 2,1004.3622 c -1.108,0 -2,0.892 -2,2 l 0,44 c 0,1.108 0.892,2 2,2 l 14.78125,0 12.84375,-48 -27.625,0 z"
       id="rect3790" />
  </g>
</svg>
