<?xml version="1.0" encoding="UTF-8" standalone="no"?>
<!-- Created with Inkscape (http://www.inkscape.org/) -->

<svg
   xmlns:dc="http://purl.org/dc/elements/1.1/"
   xmlns:cc="http://creativecommons.org/ns#"
   xmlns:rdf="http://www.w3.org/1999/02/22-rdf-syntax-ns#"
   xmlns:svg="http://www.w3.org/2000/svg"
   xmlns="http://www.w3.org/2000/svg"
   xmlns:xlink="http://www.w3.org/1999/xlink"
   xmlns:sodipodi="http://sodipodi.sourceforge.net/DTD/sodipodi-0.dtd"
   xmlns:inkscape="http://www.inkscape.org/namespaces/inkscape"
   width="48"
   height="48"
   id="svg2"
   version="1.1"
   inkscape:version="0.48.4 r9939"
   sodipodi:docname="amazon-mp3-store-source.svg">
  <defs
     id="defs4">
    <linearGradient
       id="linearGradient3795">
      <stop
         style="stop-color:#b87c68;stop-opacity:1;"
         offset="0"
         id="stop3797" />
      <stop
         style="stop-color:#974e30;stop-opacity:1;"
         offset="1"
         id="stop3799" />
    </linearGradient>
    <linearGradient
       id="linearGradient3698">
      <stop
         id="stop3700"
         offset="0"
         style="stop-color:#8bce91;stop-opacity:1;" />
      <stop
         id="stop3702"
         offset="1"
         style="stop-color:#1c9038;stop-opacity:1;" />
    </linearGradient>
    <linearGradient
       id="linearGradient3708">
      <stop
         id="stop3710"
         offset="0"
         style="stop-color:#658db6;stop-opacity:1" />
      <stop
         style="stop-color:#527fab;stop-opacity:1;"
         offset="0.76777935"
         id="stop3716" />
      <stop
         id="stop3712"
         offset="1"
         style="stop-color:#4071a0;stop-opacity:1" />
    </linearGradient>
    <linearGradient
       id="linearGradient3750">
      <stop
         style="stop-color:#d0e2f1;stop-opacity:1"
         offset="0"
         id="stop3752" />
      <stop
         id="stop3756"
         offset="0.85580856"
         style="stop-color:#cadef0;stop-opacity:1" />
      <stop
         style="stop-color:#95bee3;stop-opacity:1"
         offset="1"
         id="stop3754" />
    </linearGradient>
    <linearGradient
       id="linearGradient3803">
      <stop
         id="stop3805"
         offset="0"
         style="stop-color:#d7def0;stop-opacity:1;" />
      <stop
         style="stop-color:#ffffff;stop-opacity:1"
         offset="0.5"
         id="stop3811" />
      <stop
         id="stop3807"
         offset="1"
         style="stop-color:#d5def0;stop-opacity:1" />
    </linearGradient>
    <linearGradient
       inkscape:collect="always"
       xlink:href="#linearGradient3698"
       id="linearGradient3801"
       x1="23.204165"
       y1="1053.158"
       x2="23.204165"
       y2="1004.8474"
       gradientUnits="userSpaceOnUse"
       gradientTransform="translate(0,-2056.7244)" />
    <linearGradient
       inkscape:collect="always"
       xlink:href="#linearGradient3795"
       id="linearGradient3859"
       x1="26.192217"
       y1="1024.0002"
       x2="28.641211"
       y2="1024.0002"
       gradientUnits="userSpaceOnUse" />
    <linearGradient
       inkscape:collect="always"
       xlink:href="#linearGradient3795"
       id="linearGradient3867"
       gradientUnits="userSpaceOnUse"
       x1="26.192217"
       y1="1024.0002"
       x2="28.641211"
       y2="1024.0002" />
    <linearGradient
       inkscape:collect="always"
       xlink:href="#linearGradient3795"
       id="linearGradient3869"
       gradientUnits="userSpaceOnUse"
       x1="26.192217"
       y1="1024.0002"
       x2="28.641211"
       y2="1024.0002" />
    <linearGradient
       inkscape:collect="always"
       xlink:href="#linearGradient3795"
       id="linearGradient3871"
       gradientUnits="userSpaceOnUse"
       x1="26.192217"
       y1="1024.0002"
       x2="28.641211"
       y2="1024.0002" />
    <linearGradient
       inkscape:collect="always"
       xlink:href="#linearGradient3795"
       id="linearGradient3877"
       gradientUnits="userSpaceOnUse"
       x1="29.718235"
       y1="1027.8575"
       x2="22.811094"
       y2="1015.5485" />
    <linearGradient
       inkscape:collect="always"
       xlink:href="#linearGradient3795"
       id="linearGradient3879"
       gradientUnits="userSpaceOnUse"
       x1="17.196316"
       y1="1006.2238"
       x2="31.448042"
       y2="1030.9086" />
    <linearGradient
       inkscape:collect="always"
       xlink:href="#linearGradient3795"
       id="linearGradient3895"
       x1="21.973417"
       y1="34.43922"
       x2="42.475323"
       y2="24.798252"
       gradientUnits="userSpaceOnUse" />
  </defs>
  <sodipodi:namedview
     id="base"
     pagecolor="#ffffff"
     bordercolor="#666666"
     borderopacity="1.0"
     inkscape:pageopacity="0.0"
     inkscape:pageshadow="2"
     inkscape:zoom="11.313709"
     inkscape:cx="10.389396"
     inkscape:cy="26.188818"
     inkscape:document-units="px"
     inkscape:current-layer="layer1"
     showgrid="true"
     inkscape:window-width="1366"
     inkscape:window-height="715"
     inkscape:window-x="0"
     inkscape:window-y="25"
     inkscape:window-maximized="1">
    <inkscape:grid
       type="xygrid"
       id="grid3850" />
  </sodipodi:namedview>
  <metadata
     id="metadata7">
    <rdf:RDF>
      <cc:Work
         rdf:about="">
        <dc:format>image/svg+xml</dc:format>
        <dc:type
           rdf:resource="http://purl.org/dc/dcmitype/StillImage" />
        <dc:title />
      </cc:Work>
    </rdf:RDF>
  </metadata>
  <g
     inkscape:label="Capa 1"
     inkscape:groupmode="layer"
     id="layer1"
     transform="translate(0,-1004.3622)">
    <rect
       style="fill:url(#linearGradient3801);fill-opacity:1.0;stroke:none"
       id="rect2991"
       width="48"
       height="48"
       x="0"
       y="-1052.3622"
       ry="1.9445436"
       transform="scale(1,-1)" />
    <path
       style="fill:#ffffff;fill-rule:evenodd;display:inline"
       d="M 24.0625 10.4375 C 20.579476 10.4375 16.690065 11.71025 15.875 15.96875 C 15.789066 16.42135 16.104798 16.65175 16.40625 16.71875 L 19.96875 17.09375 C 20.300573 17.07675 20.52963 16.7633 20.59375 16.4375 C 20.897825 14.9705 22.135789 14.28125 23.53125 14.28125 C 24.283515 14.28125 25.148209 14.55105 25.59375 15.21875 C 26.106052 15.96245 26.03125 16.98505 26.03125 17.84375 L 26.03125 18.3125 C 23.910627 18.5466 21.142676 18.7012 19.15625 19.5625 C 16.865078 20.5443 15.25 22.53215 15.25 25.46875 C 15.25 29.23145 17.636312 31.125 20.71875 31.125 C 23.319948 31.125 24.743742 30.5236 26.75 28.5 C 27.415669 29.4542 27.660004 29.90685 28.875 30.90625 C 29.146689 31.05045 29.477446 31.0296 29.71875 30.8125 C 30.449198 30.1697 31.783618 29.02685 32.53125 28.40625 C 32.83012 28.16425 32.796527 27.79775 32.5625 27.46875 C 31.894848 26.55575 31.15625 25.79165 31.15625 24.09375 L 31.15625 18.46875 C 31.15625 16.07825 31.342683 13.86365 29.5625 12.21875 C 28.161092 10.88585 25.842689 10.4375 24.0625 10.4375 z M 26.03125 21.21875 L 26.03125 22 C 26.03125 23.4108 26.062239 24.58805 25.34375 25.84375 C 24.762032 26.86475 23.839758 27.46875 22.8125 27.46875 C 21.41043 27.46875 20.59375 26.41015 20.59375 24.84375 C 20.59375 21.76065 23.386422 21.21875 26.03125 21.21875 z M 37.65625 30.375 C 36.53628 30.390312 35.221472 30.6394 34.21875 31.34375 C 33.910579 31.56175 33.938356 31.8525 34.28125 31.8125 C 35.409397 31.6764 37.927584 31.3644 38.375 31.9375 C 38.824101 32.5111 37.891215 34.8802 37.46875 35.9375 C 37.340966 36.2573 37.617301 36.39895 37.90625 36.15625 C 39.785928 34.58545 40.259703 31.2895 39.875 30.8125 C 39.683829 30.577 38.77622 30.359688 37.65625 30.375 z M 8.21875 31 C 7.985808 31.030755 7.9104581 31.308725 8.15625 31.53125 C 12.333359 35.30255 17.840142 37.5625 23.96875 37.5625 C 28.343101 37.5625 33.434715 36.2096 36.9375 33.625 C 37.51742 33.1975 36.998645 32.53065 36.40625 32.78125 C 32.478642 34.44745 28.227192 35.25 24.34375 35.25 C 18.587708 35.25 13.007528 33.6858 8.5 31.0625 C 8.4016338 31.00495 8.2963973 30.989748 8.21875 31 z "
       transform="translate(0,1004.3622)"
       id="path3673" />
    <path
       inkscape:connector-curvature="0"
       style="opacity:0.15;fill:#ffffff;fill-opacity:1;stroke:none"
       d="m 2,1004.3622 c -1.108,0 -2,0.892 -2,2 l 0,44 c 0,1.108 0.892,2 2,2 l 14.78125,0 12.84375,-48 -27.625,0 z"
       id="rect3790" />
  </g>
</svg>
