<?xml version="1.0" encoding="UTF-8" standalone="no"?>
<!-- Created with Inkscape (http://www.inkscape.org/) -->

<svg
   xmlns:dc="http://purl.org/dc/elements/1.1/"
   xmlns:cc="http://creativecommons.org/ns#"
   xmlns:rdf="http://www.w3.org/1999/02/22-rdf-syntax-ns#"
   xmlns:svg="http://www.w3.org/2000/svg"
   xmlns="http://www.w3.org/2000/svg"
   xmlns:xlink="http://www.w3.org/1999/xlink"
   xmlns:sodipodi="http://sodipodi.sourceforge.net/DTD/sodipodi-0.dtd"
   xmlns:inkscape="http://www.inkscape.org/namespaces/inkscape"
   width="48"
   height="48.000004"
   id="svg4340"
   version="1.1"
   inkscape:version="0.48.3.1 r9886"
   sodipodi:docname="as-icon.svg">
  <defs
     id="defs4342">
    <linearGradient
       id="linearGradient4932">
      <stop
         id="stop4934"
         offset="0"
         style="stop-color:#d86868;stop-opacity:1" />
      <stop
         id="stop4936"
         offset="1"
         style="stop-color:#bd3030;stop-opacity:1" />
    </linearGradient>
    <linearGradient
       inkscape:collect="always"
       xlink:href="#linearGradient3795"
       id="linearGradient3801"
       x1="23.204165"
       y1="1053.158"
       x2="23.204165"
       y2="1004.8474"
       gradientUnits="userSpaceOnUse"
       gradientTransform="translate(0,-2056.7244)" />
    <linearGradient
       id="linearGradient3795">
      <stop
         style="stop-color:#68b8d8;stop-opacity:1;"
         offset="0"
         id="stop3797" />
      <stop
         style="stop-color:#3097bd;stop-opacity:1;"
         offset="1"
         id="stop3799" />
    </linearGradient>
    <linearGradient
       y2="1004.8474"
       x2="23.204165"
       y1="1053.158"
       x1="23.204165"
       gradientTransform="translate(224.57143,-1606.4387)"
       gradientUnits="userSpaceOnUse"
       id="linearGradient4904"
       xlink:href="#linearGradient4932"
       inkscape:collect="always" />
  </defs>
  <sodipodi:namedview
     id="base"
     pagecolor="#ffffff"
     bordercolor="#666666"
     borderopacity="1.0"
     inkscape:pageopacity="0.0"
     inkscape:pageshadow="2"
     inkscape:zoom="3.959798"
     inkscape:cx="3.3591588"
     inkscape:cy="65.739377"
     inkscape:document-units="px"
     inkscape:current-layer="layer1"
     showgrid="false"
     width="0px"
     height="0px"
     fit-margin-top="0"
     fit-margin-left="0"
     fit-margin-right="0"
     fit-margin-bottom="0"
     inkscape:window-width="1040"
     inkscape:window-height="722"
     inkscape:window-x="78"
     inkscape:window-y="20"
     inkscape:window-maximized="0" />
  <metadata
     id="metadata4345">
    <rdf:RDF>
      <cc:Work
         rdf:about="">
        <dc:format>image/svg+xml</dc:format>
        <dc:type
           rdf:resource="http://purl.org/dc/dcmitype/StillImage" />
        <cc:license
           rdf:resource="" />
        <dc:title />
      </cc:Work>
    </rdf:RDF>
  </metadata>
  <g
     inkscape:label="Capa 1"
     inkscape:groupmode="layer"
     id="layer1"
     transform="translate(-224.57143,-554.07648)">
    <rect
       style="fill:url(#linearGradient4904);fill-opacity:1;stroke:none"
       id="rect2991"
       width="48"
       height="48"
       x="224.57143"
       y="-602.07648"
       ry="1.9445436"
       transform="scale(1,-1)" />
    <path
       inkscape:connector-curvature="0"
       style="opacity:0.15;fill:#ffffff;fill-opacity:1;stroke:none"
       d="m 224.57143,554.07648 0,48 16.78125,0 12.84375,-48 -29.625,0 z"
       id="rect3790" />
    <path
       d="m 240.67761,587.5795 c -0.63753,-0.0856 -1.77992,-0.44613 -2.53866,-0.80116 -4.94771,-2.31512 -6.9724,-8.1356 -4.53542,-13.03815 2.78752,-5.60771 10.38496,-7.03743 14.95586,-2.81445 1.32012,1.21963 1.91227,2.26372 3.89736,6.87201 2.07651,4.82052 2.46255,5.58696 3.13694,6.22825 0.71885,0.68355 1.38541,0.91101 2.66963,0.91101 2.10126,0 3.60051,-1.26191 3.60051,-3.03056 0,-1.49041 -0.54128,-1.97316 -3.29084,-2.93493 -4.18682,-1.46452 -5.54334,-2.80056 -5.54636,-5.46254 -0.001,-1.42807 0.37252,-2.38686 1.31173,-3.36145 1.35195,-1.40288 3.68539,-1.87761 5.74957,-1.16976 0.87446,0.29987 2.71613,1.89208 2.71613,2.3482 0,0.22078 -1.06526,0.8975 -1.65765,1.05304 -0.31045,0.0815 -0.58019,-0.0216 -0.94023,-0.3593 -0.73186,-0.68654 -1.22715,-0.89839 -2.10028,-0.89839 -1.51001,0 -2.44766,0.88756 -2.44766,2.31692 0,1.42561 0.59921,1.90991 3.57291,2.88785 4.10521,1.35002 5.31014,2.56708 5.33985,5.39357 0.0256,2.43697 -1.09693,4.19515 -3.34162,5.23381 -1.02165,0.47273 -1.36481,0.53272 -3.03248,0.53013 -2.37178,-0.004 -3.43975,-0.4276 -4.77112,-1.89369 -0.89428,-0.98475 -1.80449,-2.83388 -4.71406,-9.57673 -1.20616,-2.79525 -2.75801,-4.16047 -5.33925,-4.69716 -1.30275,-0.27087 -3.12496,-0.0217 -4.31689,0.59029 -1.1496,0.59024 -2.45106,1.92342 -3.06168,3.13629 -0.49984,0.99279 -0.55079,1.2691 -0.55079,2.98657 0,1.6411 0.0647,2.03085 0.48635,2.93347 0.63905,1.36768 1.89535,2.64066 3.2826,3.32617 0.99965,0.49396 1.31266,0.55356 2.90674,0.55356 1.53615,0 1.93416,-0.0697 2.84061,-0.49748 1.04452,-0.49293 2.44889,-1.71335 3.02097,-2.62523 l 0.29681,-0.47314 0.58775,1.30366 c 0.32324,0.71701 0.58773,1.40233 0.58773,1.52294 0,0.35618 -1.32461,1.54538 -2.53864,2.27915 -1.84585,1.11561 -3.96394,1.53242 -6.23642,1.22723 z"
       inkscape:connector-curvature="0"
       id="path3278"
       style="fill:#ffffff" />
  </g>
</svg>
