<?xml version="1.0" encoding="UTF-8" standalone="no"?>
<!-- Created with Inkscape (http://www.inkscape.org/) -->

<svg
   xmlns:dc="http://purl.org/dc/elements/1.1/"
   xmlns:cc="http://creativecommons.org/ns#"
   xmlns:rdf="http://www.w3.org/1999/02/22-rdf-syntax-ns#"
   xmlns:svg="http://www.w3.org/2000/svg"
   xmlns="http://www.w3.org/2000/svg"
   xmlns:xlink="http://www.w3.org/1999/xlink"
   xmlns:sodipodi="http://sodipodi.sourceforge.net/DTD/sodipodi-0.dtd"
   xmlns:inkscape="http://www.inkscape.org/namespaces/inkscape"
   width="48"
   height="48"
   id="svg2"
   version="1.1"
   inkscape:version="0.48.3.1 r9886"
   sodipodi:docname="assistant.svg">
  <defs
     id="defs4">
    <linearGradient
       id="linearGradient3799">
      <stop
         style="stop-color:#9ee05f;stop-opacity:1;"
         offset="0"
         id="stop3801" />
      <stop
         style="stop-color:#3e7a0b;stop-opacity:1;"
         offset="1"
         id="stop3803" />
    </linearGradient>
    <linearGradient
       id="linearGradient3795">
      <stop
         style="stop-color:#68b8d8;stop-opacity:1;"
         offset="0"
         id="stop3797" />
      <stop
         style="stop-color:#3097bd;stop-opacity:1;"
         offset="1"
         id="stop3799" />
    </linearGradient>
    <linearGradient
       id="linearGradient3698">
      <stop
         id="stop3700"
         offset="0"
         style="stop-color:#96d0e1;stop-opacity:1" />
      <stop
         style="stop-color:#89b7e1;stop-opacity:1"
         offset="0.67819428"
         id="stop3706" />
      <stop
         id="stop3702"
         offset="1"
         style="stop-color:#699dd3;stop-opacity:1" />
    </linearGradient>
    <linearGradient
       id="linearGradient3708">
      <stop
         id="stop3710"
         offset="0"
         style="stop-color:#658db6;stop-opacity:1" />
      <stop
         style="stop-color:#527fab;stop-opacity:1;"
         offset="0.76777935"
         id="stop3716" />
      <stop
         id="stop3712"
         offset="1"
         style="stop-color:#4071a0;stop-opacity:1" />
    </linearGradient>
    <linearGradient
       id="linearGradient3750">
      <stop
         style="stop-color:#d0e2f1;stop-opacity:1"
         offset="0"
         id="stop3752" />
      <stop
         id="stop3756"
         offset="0.85580856"
         style="stop-color:#cadef0;stop-opacity:1" />
      <stop
         style="stop-color:#95bee3;stop-opacity:1"
         offset="1"
         id="stop3754" />
    </linearGradient>
    <linearGradient
       id="linearGradient3803">
      <stop
         id="stop3805"
         offset="0"
         style="stop-color:#d7def0;stop-opacity:1;" />
      <stop
         style="stop-color:#ffffff;stop-opacity:1"
         offset="0.5"
         id="stop3811" />
      <stop
         id="stop3807"
         offset="1"
         style="stop-color:#d5def0;stop-opacity:1" />
    </linearGradient>
    <linearGradient
       inkscape:collect="always"
       xlink:href="#linearGradient3795"
       id="linearGradient3859"
       x1="26.192217"
       y1="1024.0002"
       x2="28.641211"
       y2="1024.0002"
       gradientUnits="userSpaceOnUse" />
    <linearGradient
       inkscape:collect="always"
       xlink:href="#linearGradient3795"
       id="linearGradient3867"
       gradientUnits="userSpaceOnUse"
       x1="26.192217"
       y1="1024.0002"
       x2="28.641211"
       y2="1024.0002" />
    <linearGradient
       inkscape:collect="always"
       xlink:href="#linearGradient3795"
       id="linearGradient3869"
       gradientUnits="userSpaceOnUse"
       x1="26.192217"
       y1="1024.0002"
       x2="28.641211"
       y2="1024.0002" />
    <linearGradient
       inkscape:collect="always"
       xlink:href="#linearGradient3795"
       id="linearGradient3871"
       gradientUnits="userSpaceOnUse"
       x1="26.192217"
       y1="1024.0002"
       x2="28.641211"
       y2="1024.0002" />
    <linearGradient
       inkscape:collect="always"
       xlink:href="#linearGradient3795"
       id="linearGradient3877"
       gradientUnits="userSpaceOnUse"
       x1="29.718235"
       y1="1027.8575"
       x2="22.811094"
       y2="1015.5485" />
    <linearGradient
       inkscape:collect="always"
       xlink:href="#linearGradient3795"
       id="linearGradient3879"
       gradientUnits="userSpaceOnUse"
       x1="17.196316"
       y1="1006.2238"
       x2="31.448042"
       y2="1030.9086" />
    <linearGradient
       inkscape:collect="always"
       xlink:href="#linearGradient3795"
       id="linearGradient3895"
       x1="21.973417"
       y1="34.43922"
       x2="42.475323"
       y2="24.798252"
       gradientUnits="userSpaceOnUse" />
    <inkscape:perspective
       sodipodi:type="inkscape:persp3d"
       inkscape:vp_x="0 : 0.5 : 1"
       inkscape:vp_y="0 : 1000 : 0"
       inkscape:vp_z="1 : 0.5 : 1"
       inkscape:persp3d-origin="0.5 : 0.33333333 : 1"
       id="perspective2861" />
    <inkscape:perspective
       id="perspective35"
       inkscape:persp3d-origin="305.65302 : 189.50401 : 1"
       inkscape:vp_z="611.30603 : 284.25601 : 1"
       inkscape:vp_y="0 : 1000 : 0"
       inkscape:vp_x="0 : 284.25601 : 1"
       sodipodi:type="inkscape:persp3d" />
    <linearGradient
       inkscape:collect="always"
       xlink:href="#linearGradient3799"
       id="linearGradient3805"
       x1="25.455843"
       y1="-1003.6135"
       x2="24.488701"
       y2="-1052.9341"
       gradientUnits="userSpaceOnUse" />
  </defs>
  <sodipodi:namedview
     id="base"
     pagecolor="#ffffff"
     bordercolor="#666666"
     borderopacity="1.0"
     inkscape:pageopacity="0.0"
     inkscape:pageshadow="2"
     inkscape:zoom="3.126738"
     inkscape:cx="-0.32228389"
     inkscape:cy="18.366849"
     inkscape:document-units="px"
     inkscape:current-layer="layer1"
     showgrid="true"
     inkscape:window-width="1280"
     inkscape:window-height="723"
     inkscape:window-x="0"
     inkscape:window-y="20"
     inkscape:window-maximized="1"
     showguides="true"
     inkscape:guide-bbox="true">
    <inkscape:grid
       type="xygrid"
       id="grid3850" />
  </sodipodi:namedview>
  <metadata
     id="metadata7">
    <rdf:RDF>
      <cc:Work
         rdf:about="">
        <dc:format>image/svg+xml</dc:format>
        <dc:type
           rdf:resource="http://purl.org/dc/dcmitype/StillImage" />
        <dc:title />
      </cc:Work>
    </rdf:RDF>
  </metadata>
  <g
     inkscape:label="Capa 1"
     inkscape:groupmode="layer"
     id="layer1"
     transform="translate(0,-1004.3622)">
    <path
       transform="scale(1,-1)"
       style="fill:url(#linearGradient3805);fill-opacity:1;stroke:none"
       d="m 1.9445436,-1052.3622 44.1109124,0 c 1.077278,0 1.944544,0.8673 1.944544,1.9446 l 0,44.1109 c 0,1.0773 -0.867266,1.9445 -1.944544,1.9445 l -44.1109124,0 C 0.86726645,-1004.3622 0,-1005.2294 0,-1006.3067 l 0,-44.1109 c 0,-1.0773 0.86726645,-1.9446 1.9445436,-1.9446 z"
       id="rect2991" />
    <path
       style="fill:#ffffff;stroke:none;fill-opacity:1;opacity:0.15"
       d="M 0 0 L 0 48 L 16.78125 48 L 29.625 0 L 0 0 z "
       transform="translate(0,1004.3622)"
       id="rect3790" />
    <path
       style="fill:#ffffff;fill-opacity:1;stroke:none"
       d="M 15.46875 8 C 10.897321 8 10.90625 10.90625 10.90625 10.90625 L 10.90625 37.9375 L 13 40 C 13 40 31.278409 37.5187 34.1875 36.6875 C 37.096591 35.8564 37.09375 33.34375 37.09375 33.34375 L 37.09375 11.3125 C 37.09375 11.3125 17.131087 8 15.46875 8 z M 21.21875 13.15625 C 27.127962 13.15625 27.125 19.96875 27.125 19.96875 L 27.125 26.78125 C 27.125 26.78125 27.113664 29.0738 25.75 30.4375 C 24.386335 31.8011 23.03125 32.25 23.03125 32.25 C 23.03125 32.25 23.02839 33.1704 23.9375 33.625 C 24.846609 34.0795 25.3125 34.0625 25.3125 34.0625 L 25.3125 35.875 C 25.3125 35.875 24.832414 36.34375 23.46875 36.34375 C 22.105085 36.34375 20.767055 35.4262 20.3125 34.0625 C 19.857946 32.6989 19.84375 32.25 19.84375 32.25 C 19.84375 32.25 18.732094 32.4821 17.125 30.875 C 16.215891 29.9659 15.28125 28.14495 15.28125 26.78125 L 15.28125 19.53125 C 15.28125 19.53125 15.309538 13.15625 21.21875 13.15625 z M 30.21875 14.09375 L 31.59375 14.09375 L 31.59375 17.71875 L 33.84375 17.71875 L 33.84375 19.53125 L 31.59375 19.53125 L 31.59375 28.1875 C 31.59375 28.1875 32.028391 29.09375 32.9375 29.09375 C 33.619332 29.09375 33.801135 28.815356 33.84375 28.6875 L 33.84375 30.4375 C 33.84375 30.4375 33.397774 31.34375 31.125 31.34375 C 28.852226 31.34375 28.84375 29.09375 28.84375 29.09375 L 28.84375 19.53125 L 27.9375 19.53125 L 27.9375 17.71875 L 28.84375 17.71875 L 30.21875 14.09375 z M 21.5 15.4375 C 19.227226 15.4375 19.21875 18.15625 19.21875 18.15625 L 19.21875 26.78125 C 19.21875 26.78125 19.227226 29.96875 21.5 29.96875 C 23.772773 29.96875 23.78125 26.78125 23.78125 26.78125 L 23.78125 17.6875 C 23.78125 17.6875 23.772773 15.4375 21.5 15.4375 z "
       transform="translate(0,1004.3622)"
       id="path3087" />
  </g>
</svg>
