<?xml version="1.0" encoding="UTF-8" standalone="no"?>
<!-- Created with Inkscape (http://www.inkscape.org/) -->

<svg
   xmlns:dc="http://purl.org/dc/elements/1.1/"
   xmlns:cc="http://creativecommons.org/ns#"
   xmlns:rdf="http://www.w3.org/1999/02/22-rdf-syntax-ns#"
   xmlns:svg="http://www.w3.org/2000/svg"
   xmlns="http://www.w3.org/2000/svg"
   xmlns:xlink="http://www.w3.org/1999/xlink"
   xmlns:sodipodi="http://sodipodi.sourceforge.net/DTD/sodipodi-0.dtd"
   xmlns:inkscape="http://www.inkscape.org/namespaces/inkscape"
   width="48"
   height="48"
   id="svg2"
   version="1.1"
   inkscape:version="0.48.3.1 r9886"
   sodipodi:docname="athena.svg"
   inkscape:export-filename="/home/joern/Bilder/Icons/NUTRIX-shell/apps/48/file-manager.png"
   inkscape:export-xdpi="180"
   inkscape:export-ydpi="180">
  <defs
     id="defs4">
    <linearGradient
       id="linearGradient3795">
      <stop
         style="stop-color:#bf4b17;stop-opacity:1;"
         offset="0"
         id="stop3797" />
      <stop
         style="stop-color:#e1aa59;stop-opacity:1;"
         offset="1"
         id="stop3799" />
    </linearGradient>
    <linearGradient
       inkscape:collect="always"
       id="linearGradient3914">
      <stop
         style="stop-color:#59b3e1;stop-opacity:1;"
         offset="0"
         id="stop3916" />
      <stop
         style="stop-color:#59b3e1;stop-opacity:0;"
         offset="1"
         id="stop3918" />
    </linearGradient>
    <linearGradient
       id="linearGradient3698">
      <stop
         id="stop3700"
         offset="0"
         style="stop-color:#96d0e1;stop-opacity:1" />
      <stop
         style="stop-color:#89b7e1;stop-opacity:1"
         offset="0.67819428"
         id="stop3706" />
      <stop
         id="stop3702"
         offset="1"
         style="stop-color:#699dd3;stop-opacity:1" />
    </linearGradient>
    <linearGradient
       id="linearGradient3708">
      <stop
         id="stop3710"
         offset="0"
         style="stop-color:#658db6;stop-opacity:1" />
      <stop
         style="stop-color:#527fab;stop-opacity:1;"
         offset="0.76777935"
         id="stop3716" />
      <stop
         id="stop3712"
         offset="1"
         style="stop-color:#4071a0;stop-opacity:1" />
    </linearGradient>
    <linearGradient
       id="linearGradient3750">
      <stop
         style="stop-color:#d0e2f1;stop-opacity:1"
         offset="0"
         id="stop3752" />
      <stop
         id="stop3756"
         offset="0.85580856"
         style="stop-color:#cadef0;stop-opacity:1" />
      <stop
         style="stop-color:#95bee3;stop-opacity:1"
         offset="1"
         id="stop3754" />
    </linearGradient>
    <linearGradient
       id="linearGradient3803">
      <stop
         id="stop3805"
         offset="0"
         style="stop-color:#d7def0;stop-opacity:1;" />
      <stop
         style="stop-color:#ffffff;stop-opacity:1"
         offset="0.5"
         id="stop3811" />
      <stop
         id="stop3807"
         offset="1"
         style="stop-color:#d5def0;stop-opacity:1" />
    </linearGradient>
    <linearGradient
       inkscape:collect="always"
       xlink:href="#linearGradient3914"
       id="linearGradient3920"
       x1="6.8000002"
       y1="25.0625"
       x2="45.325001"
       y2="25.0625"
       gradientUnits="userSpaceOnUse" />
    <linearGradient
       inkscape:collect="always"
       xlink:href="#linearGradient3795"
       id="linearGradient3801"
       x1="23.204165"
       y1="1053.158"
       x2="23.204165"
       y2="1004.8474"
       gradientUnits="userSpaceOnUse" />
  </defs>
  <sodipodi:namedview
     id="base"
     pagecolor="#ffffff"
     bordercolor="#666666"
     borderopacity="1.0"
     inkscape:pageopacity="0.0"
     inkscape:pageshadow="2"
     inkscape:zoom="8.0000004"
     inkscape:cx="47.031477"
     inkscape:cy="25.456625"
     inkscape:document-units="px"
     inkscape:current-layer="layer1"
     showgrid="true"
     inkscape:window-width="1366"
     inkscape:window-height="709"
     inkscape:window-x="0"
     inkscape:window-y="27"
     inkscape:window-maximized="1">
    <inkscape:grid
       type="xygrid"
       id="grid3009" />
  </sodipodi:namedview>
  <metadata
     id="metadata7">
    <rdf:RDF>
      <cc:Work
         rdf:about="">
        <dc:format>image/svg+xml</dc:format>
        <dc:type
           rdf:resource="http://purl.org/dc/dcmitype/StillImage" />
        <dc:title />
      </cc:Work>
    </rdf:RDF>
  </metadata>
  <g
     inkscape:label="Capa 1"
     inkscape:groupmode="layer"
     id="layer1"
     transform="translate(0,-1004.3622)">
    <rect
       style="fill:url(#linearGradient3801);fill-opacity:1;stroke:none"
       id="rect2991"
       width="48"
       height="48"
       x="0"
       y="1004.3622"
       ry="1.9445436" />
    <path
       style="fill:#ffffff;fill-opacity:1;stroke:none"
       d="m 24,1012.3622 -1.734459,4.036 0.46697,1.0674 c -2.817828,0.1948 -2.268138,0.7671 -2.268138,0.7671 0,0 -3.235432,0.6067 -3.235432,1.0674 0,0.022 -0.0043,0.017 0,0.033 -0.655326,0.3166 -1.292716,0.7585 -1.901233,1.234 -8.146146,11.0534 0.566995,13.6039 -1.367554,20.013 -0.417127,1.3819 -2.168073,3.7692 -2.168073,3.7692 0,0 3.539313,0.4336 5.003245,-3.7358 1.185785,-3.3772 -2.829453,-10.158 0.166775,-13.2085 4.232413,-4.3091 7.378869,4.5737 6.03725,5.8037 -1.341617,1.2297 -1.000649,1.5677 -1.000649,1.5677 L 24,1038.8457 l 2.001298,-4.0693 c 0,0 0.340968,-0.338 -1.000649,-1.5677 -1.341619,-1.23 1.804837,-10.1128 6.037249,-5.8037 2.996228,3.0504 -1.01901,9.8313 0.166775,13.2085 1.463932,4.1694 5.003245,3.7358 5.003245,3.7358 0,0 -1.750946,-2.3873 -2.168073,-3.7692 -1.934548,-6.4091 6.778593,-8.9596 -1.367553,-20.013 -0.608518,-0.4755 -1.245907,-0.9174 -1.901234,-1.234 0.0043,-0.016 0,-0.011 0,-0.033 0,-0.4607 -3.235432,-1.0674 -3.235432,-1.0674 0,0 0.54969,-0.5723 -2.268138,-0.7671 l 0.46697,-1.0674 L 24,1012.3622 z"
       id="path3996-5-41-5"
       inkscape:connector-curvature="0" />
    <path
       inkscape:connector-curvature="0"
       style="opacity:0.15;fill:#ffffff;fill-opacity:1;stroke:none"
       d="m 2,1004.3622 c -1.108,0 -2,0.892 -2,2 l 0,44 c 0,1.108 0.892,2 2,2 l 14.78125,0 12.84375,-48 -27.625,0 z"
       id="rect3790" />
  </g>
</svg>
