<?xml version="1.0" encoding="UTF-8" standalone="no"?>
<!-- Created with Inkscape (http://www.inkscape.org/) -->

<svg
   xmlns:dc="http://purl.org/dc/elements/1.1/"
   xmlns:cc="http://creativecommons.org/ns#"
   xmlns:rdf="http://www.w3.org/1999/02/22-rdf-syntax-ns#"
   xmlns:svg="http://www.w3.org/2000/svg"
   xmlns="http://www.w3.org/2000/svg"
   xmlns:xlink="http://www.w3.org/1999/xlink"
   xmlns:sodipodi="http://sodipodi.sourceforge.net/DTD/sodipodi-0.dtd"
   xmlns:inkscape="http://www.inkscape.org/namespaces/inkscape"
   width="48"
   height="48"
   id="svg2"
   version="1.1"
   inkscape:version="0.48.3.1 r9886"
   sodipodi:docname="audacity.svg">
  <defs
     id="defs4">
    <linearGradient
       id="linearGradient3846">
      <stop
         id="stop3848"
         offset="0"
         style="stop-color:#441bff;stop-opacity:1;" />
      <stop
         style="stop-color:#993df6;stop-opacity:1;"
         offset="0.5"
         id="stop3959" />
      <stop
         id="stop3850"
         offset="1"
         style="stop-color:#f34556;stop-opacity:1;" />
    </linearGradient>
    <linearGradient
       id="linearGradient3795">
      <stop
         style="stop-color:#000000;stop-opacity:1;"
         offset="0"
         id="stop3797" />
      <stop
         style="stop-color:#6d6d6d;stop-opacity:1;"
         offset="1"
         id="stop3799" />
    </linearGradient>
    <linearGradient
       id="linearGradient3698">
      <stop
         id="stop3700"
         offset="0"
         style="stop-color:#96d0e1;stop-opacity:1" />
      <stop
         style="stop-color:#89b7e1;stop-opacity:1"
         offset="0.67819428"
         id="stop3706" />
      <stop
         id="stop3702"
         offset="1"
         style="stop-color:#699dd3;stop-opacity:1" />
    </linearGradient>
    <linearGradient
       id="linearGradient3708">
      <stop
         id="stop3710"
         offset="0"
         style="stop-color:#658db6;stop-opacity:1" />
      <stop
         style="stop-color:#527fab;stop-opacity:1;"
         offset="0.76777935"
         id="stop3716" />
      <stop
         id="stop3712"
         offset="1"
         style="stop-color:#4071a0;stop-opacity:1" />
    </linearGradient>
    <linearGradient
       id="linearGradient3750">
      <stop
         style="stop-color:#d0e2f1;stop-opacity:1"
         offset="0"
         id="stop3752" />
      <stop
         id="stop3756"
         offset="0.85580856"
         style="stop-color:#cadef0;stop-opacity:1" />
      <stop
         style="stop-color:#95bee3;stop-opacity:1"
         offset="1"
         id="stop3754" />
    </linearGradient>
    <linearGradient
       id="linearGradient3803">
      <stop
         id="stop3805"
         offset="0"
         style="stop-color:#d7def0;stop-opacity:1;" />
      <stop
         style="stop-color:#ffffff;stop-opacity:1"
         offset="0.5"
         id="stop3811" />
      <stop
         id="stop3807"
         offset="1"
         style="stop-color:#d5def0;stop-opacity:1" />
    </linearGradient>
    <linearGradient
       inkscape:collect="always"
       xlink:href="#linearGradient3708"
       id="linearGradient3801"
       x1="45"
       y1="1002.3622"
       x2="45"
       y2="1052.3622"
       gradientUnits="userSpaceOnUse" />
    <radialGradient
       inkscape:collect="always"
       xlink:href="#linearGradient3763"
       id="radialGradient4338"
       gradientUnits="userSpaceOnUse"
       gradientTransform="matrix(1.98696,0,0,1.3025427,-22.470963,-7.9579534)"
       cx="22.767857"
       cy="26.303572"
       fx="22.767857"
       fy="26.303572"
       r="20.267857" />
    <linearGradient
       id="linearGradient3763">
      <stop
         id="stop3765"
         offset="0"
         style="stop-color:#ffffff;stop-opacity:1;" />
      <stop
         id="stop3767"
         offset="1"
         style="stop-color:#c1c1c1;stop-opacity:1;" />
    </linearGradient>
    <linearGradient
       inkscape:collect="always"
       xlink:href="#linearGradient3795"
       id="linearGradient3056"
       gradientUnits="userSpaceOnUse"
       x1="23.204165"
       y1="1058.2919"
       x2="23.204165"
       y2="988.18079"
       gradientTransform="scale(0.09401944,1)" />
    <linearGradient
       inkscape:collect="always"
       xlink:href="#linearGradient3883"
       id="linearGradient3974"
       gradientUnits="userSpaceOnUse"
       gradientTransform="matrix(0.90633037,0.42256981,-0.42256981,0.90633037,12.603256,995.40747)"
       x1="14.889573"
       y1="31.294256"
       x2="15.601078"
       y2="18.919888" />
    <linearGradient
       id="linearGradient3883">
      <stop
         style="stop-color:#ff00b7;stop-opacity:0.18085106;"
         offset="0"
         id="stop3885" />
      <stop
         style="stop-color:#999999;stop-opacity:0;"
         offset="1"
         id="stop3887" />
    </linearGradient>
    <linearGradient
       inkscape:collect="always"
       xlink:href="#linearGradient3789"
       id="linearGradient3976"
       gradientUnits="userSpaceOnUse"
       gradientTransform="translate(0,1004.3622)"
       x1="14.889573"
       y1="31.294256"
       x2="15.601078"
       y2="18.919888" />
    <linearGradient
       id="linearGradient3789">
      <stop
         style="stop-color:#ff0013;stop-opacity:0.18085106;"
         offset="0"
         id="stop3791" />
      <stop
         style="stop-color:#ffffff;stop-opacity:0"
         offset="1"
         id="stop3793" />
    </linearGradient>
    <linearGradient
       inkscape:collect="always"
       xlink:href="#linearGradient3802"
       id="linearGradient3978"
       gradientUnits="userSpaceOnUse"
       x1="8.837532"
       y1="1029.6663"
       x2="19.113844"
       y2="1029.6663" />
    <linearGradient
       id="linearGradient3802">
      <stop
         id="stop3804"
         offset="0"
         style="stop-color:#ffc300;stop-opacity:0.18039216;" />
      <stop
         id="stop3806"
         offset="1"
         style="stop-color:#ffffff;stop-opacity:0" />
    </linearGradient>
    <linearGradient
       inkscape:collect="always"
       xlink:href="#linearGradient3823"
       id="linearGradient3980"
       gradientUnits="userSpaceOnUse"
       x1="8.8624401"
       y1="1028.451"
       x2="19.059441"
       y2="1028.451" />
    <linearGradient
       id="linearGradient3823">
      <stop
         style="stop-color:#4d9600;stop-opacity:0.18039216;"
         offset="0"
         id="stop3825" />
      <stop
         style="stop-color:#ffffff;stop-opacity:0"
         offset="1"
         id="stop3827" />
    </linearGradient>
    <linearGradient
       inkscape:collect="always"
       xlink:href="#linearGradient3802"
       id="linearGradient3982"
       gradientUnits="userSpaceOnUse"
       x1="8.8729076"
       y1="1027.5348"
       x2="19.17152"
       y2="1027.5348" />
    <linearGradient
       id="linearGradient4063">
      <stop
         id="stop4065"
         offset="0"
         style="stop-color:#ffc300;stop-opacity:0.18039216;" />
      <stop
         id="stop4067"
         offset="1"
         style="stop-color:#ffffff;stop-opacity:0" />
    </linearGradient>
    <linearGradient
       inkscape:collect="always"
       xlink:href="#linearGradient3877"
       id="linearGradient3984"
       gradientUnits="userSpaceOnUse"
       x1="8.8799152"
       y1="1027.0327"
       x2="19.235598"
       y2="1027.0327" />
    <linearGradient
       id="linearGradient3877">
      <stop
         style="stop-color:#00dfff;stop-opacity:0.18039216;"
         offset="0"
         id="stop3879" />
      <stop
         style="stop-color:#ffffff;stop-opacity:0"
         offset="1"
         id="stop3881" />
    </linearGradient>
    <linearGradient
       inkscape:collect="always"
       xlink:href="#linearGradient3877"
       id="linearGradient3986"
       gradientUnits="userSpaceOnUse"
       x1="8.8905392"
       y1="1026.2065"
       x2="19.3482"
       y2="1026.2065" />
    <linearGradient
       id="linearGradient4074">
      <stop
         style="stop-color:#00dfff;stop-opacity:0.18039216;"
         offset="0"
         id="stop4076" />
      <stop
         style="stop-color:#ffffff;stop-opacity:0"
         offset="1"
         id="stop4078" />
    </linearGradient>
    <linearGradient
       inkscape:collect="always"
       xlink:href="#linearGradient3883"
       id="linearGradient4004"
       gradientUnits="userSpaceOnUse"
       gradientTransform="matrix(0.90633037,0.42256981,-0.42256981,0.90633037,12.603256,995.40747)"
       x1="14.889573"
       y1="31.294256"
       x2="15.601078"
       y2="18.919888" />
    <linearGradient
       id="linearGradient4081">
      <stop
         style="stop-color:#ff00b7;stop-opacity:0.18085106;"
         offset="0"
         id="stop4083" />
      <stop
         style="stop-color:#999999;stop-opacity:0;"
         offset="1"
         id="stop4085" />
    </linearGradient>
    <linearGradient
       inkscape:collect="always"
       xlink:href="#linearGradient3789"
       id="linearGradient4006"
       gradientUnits="userSpaceOnUse"
       gradientTransform="translate(0,1004.3622)"
       x1="14.889573"
       y1="31.294256"
       x2="15.601078"
       y2="18.919888" />
    <linearGradient
       id="linearGradient4088">
      <stop
         style="stop-color:#ff0013;stop-opacity:0.18085106;"
         offset="0"
         id="stop4090" />
      <stop
         style="stop-color:#ffffff;stop-opacity:0"
         offset="1"
         id="stop4092" />
    </linearGradient>
    <linearGradient
       inkscape:collect="always"
       xlink:href="#linearGradient3802"
       id="linearGradient4008"
       gradientUnits="userSpaceOnUse"
       x1="8.837532"
       y1="1029.6663"
       x2="19.113844"
       y2="1029.6663" />
    <linearGradient
       id="linearGradient4095">
      <stop
         id="stop4097"
         offset="0"
         style="stop-color:#ffc300;stop-opacity:0.18039216;" />
      <stop
         id="stop4099"
         offset="1"
         style="stop-color:#ffffff;stop-opacity:0" />
    </linearGradient>
    <linearGradient
       inkscape:collect="always"
       xlink:href="#linearGradient3823"
       id="linearGradient4010"
       gradientUnits="userSpaceOnUse"
       x1="8.8624401"
       y1="1028.451"
       x2="19.059441"
       y2="1028.451" />
    <linearGradient
       id="linearGradient4102">
      <stop
         style="stop-color:#4d9600;stop-opacity:0.18039216;"
         offset="0"
         id="stop4104" />
      <stop
         style="stop-color:#ffffff;stop-opacity:0"
         offset="1"
         id="stop4106" />
    </linearGradient>
    <linearGradient
       inkscape:collect="always"
       xlink:href="#linearGradient3802"
       id="linearGradient4012"
       gradientUnits="userSpaceOnUse"
       x1="8.8729076"
       y1="1027.5348"
       x2="19.17152"
       y2="1027.5348" />
    <linearGradient
       id="linearGradient4109">
      <stop
         id="stop4111"
         offset="0"
         style="stop-color:#ffc300;stop-opacity:0.18039216;" />
      <stop
         id="stop4113"
         offset="1"
         style="stop-color:#ffffff;stop-opacity:0" />
    </linearGradient>
    <linearGradient
       inkscape:collect="always"
       xlink:href="#linearGradient3877"
       id="linearGradient4014"
       gradientUnits="userSpaceOnUse"
       x1="8.8799152"
       y1="1027.0327"
       x2="19.235598"
       y2="1027.0327" />
    <linearGradient
       id="linearGradient4116">
      <stop
         style="stop-color:#00dfff;stop-opacity:0.18039216;"
         offset="0"
         id="stop4118" />
      <stop
         style="stop-color:#ffffff;stop-opacity:0"
         offset="1"
         id="stop4120" />
    </linearGradient>
    <linearGradient
       inkscape:collect="always"
       xlink:href="#linearGradient3877"
       id="linearGradient4016"
       gradientUnits="userSpaceOnUse"
       x1="8.8905392"
       y1="1026.2065"
       x2="19.3482"
       y2="1026.2065" />
    <linearGradient
       id="linearGradient4123">
      <stop
         style="stop-color:#00dfff;stop-opacity:0.18039216;"
         offset="0"
         id="stop4125" />
      <stop
         style="stop-color:#ffffff;stop-opacity:0"
         offset="1"
         id="stop4127" />
    </linearGradient>
    <linearGradient
       inkscape:collect="always"
       xlink:href="#linearGradient3883-4"
       id="linearGradient3161"
       gradientUnits="userSpaceOnUse"
       gradientTransform="matrix(-0.28915731,-0.95728159,0.95728159,-0.28915731,10.288649,1059.9179)"
       x1="14.889573"
       y1="31.294256"
       x2="15.601078"
       y2="18.919888" />
    <linearGradient
       id="linearGradient3883-4">
      <stop
         style="stop-color:#ff00b7;stop-opacity:0.18085106;"
         offset="0"
         id="stop3885-4" />
      <stop
         style="stop-color:#999999;stop-opacity:0;"
         offset="1"
         id="stop3887-3" />
    </linearGradient>
    <linearGradient
       inkscape:collect="always"
       xlink:href="#linearGradient3789-0"
       id="linearGradient3158"
       gradientUnits="userSpaceOnUse"
       gradientTransform="matrix(-0.66659036,-0.74542424,0.74542424,-0.66659036,25.29864,1063.1446)"
       x1="14.889573"
       y1="31.294256"
       x2="15.601078"
       y2="18.919888" />
    <linearGradient
       id="linearGradient3789-0">
      <stop
         style="stop-color:#ff0013;stop-opacity:0.18085106;"
         offset="0"
         id="stop3791-7" />
      <stop
         style="stop-color:#ffffff;stop-opacity:0"
         offset="1"
         id="stop3793-8" />
    </linearGradient>
    <linearGradient
       inkscape:collect="always"
       xlink:href="#linearGradient3802-6"
       id="linearGradient3155"
       gradientUnits="userSpaceOnUse"
       x1="8.837532"
       y1="1029.6663"
       x2="19.113844"
       y2="1029.6663"
       gradientTransform="matrix(-0.66659036,-0.74542424,0.74542424,-0.66659036,-723.37729,1732.6428)" />
    <linearGradient
       id="linearGradient3802-6">
      <stop
         id="stop3804-8"
         offset="0"
         style="stop-color:#ffc300;stop-opacity:0.18039216;" />
      <stop
         id="stop3806-8"
         offset="1"
         style="stop-color:#ffffff;stop-opacity:0" />
    </linearGradient>
    <linearGradient
       inkscape:collect="always"
       xlink:href="#linearGradient3823-4"
       id="linearGradient3152"
       gradientUnits="userSpaceOnUse"
       x1="8.8624401"
       y1="1028.451"
       x2="19.059441"
       y2="1028.451"
       gradientTransform="matrix(-0.66659036,-0.74542424,0.74542424,-0.66659036,-723.37729,1732.6428)" />
    <linearGradient
       id="linearGradient3823-4">
      <stop
         style="stop-color:#4d9600;stop-opacity:0.18039216;"
         offset="0"
         id="stop3825-3" />
      <stop
         style="stop-color:#ffffff;stop-opacity:0"
         offset="1"
         id="stop3827-1" />
    </linearGradient>
    <linearGradient
       inkscape:collect="always"
       xlink:href="#linearGradient3802-6"
       id="linearGradient3149"
       gradientUnits="userSpaceOnUse"
       x1="8.8729076"
       y1="1027.5348"
       x2="19.17152"
       y2="1027.5348"
       gradientTransform="matrix(-0.66659036,-0.74542424,0.74542424,-0.66659036,-723.37729,1732.6428)" />
    <linearGradient
       id="linearGradient4219">
      <stop
         id="stop4221"
         offset="0"
         style="stop-color:#ffc300;stop-opacity:0.18039216;" />
      <stop
         id="stop4223"
         offset="1"
         style="stop-color:#ffffff;stop-opacity:0" />
    </linearGradient>
    <linearGradient
       inkscape:collect="always"
       xlink:href="#linearGradient3877-4"
       id="linearGradient3146"
       gradientUnits="userSpaceOnUse"
       x1="8.8799152"
       y1="1027.0327"
       x2="19.235598"
       y2="1027.0327"
       gradientTransform="matrix(-0.66659036,-0.74542424,0.74542424,-0.66659036,-723.37729,1732.6428)" />
    <linearGradient
       id="linearGradient3877-4">
      <stop
         style="stop-color:#00dfff;stop-opacity:0.18039216;"
         offset="0"
         id="stop3879-9" />
      <stop
         style="stop-color:#ffffff;stop-opacity:0"
         offset="1"
         id="stop3881-2" />
    </linearGradient>
    <linearGradient
       inkscape:collect="always"
       xlink:href="#linearGradient3877-4"
       id="linearGradient3143"
       gradientUnits="userSpaceOnUse"
       x1="8.8905392"
       y1="1026.2065"
       x2="19.3482"
       y2="1026.2065"
       gradientTransform="matrix(-0.66659036,-0.74542424,0.74542424,-0.66659036,-723.09003,1732.9301)" />
    <linearGradient
       id="linearGradient4230">
      <stop
         style="stop-color:#00dfff;stop-opacity:0.18039216;"
         offset="0"
         id="stop4232" />
      <stop
         style="stop-color:#ffffff;stop-opacity:0"
         offset="1"
         id="stop4234" />
    </linearGradient>
    <linearGradient
       inkscape:collect="always"
       xlink:href="#linearGradient3981"
       id="linearGradient3200"
       gradientUnits="userSpaceOnUse"
       gradientTransform="matrix(-0.54749825,0.83680683,-0.83680683,-0.54749825,900.00556,1569.8524)"
       x1="8.8905392"
       y1="1026.2065"
       x2="19.3482"
       y2="1026.2065" />
    <linearGradient
       id="linearGradient3981">
      <stop
         id="stop3983"
         offset="0"
         style="stop-color:#9a9a9a;stop-opacity:0.18039216;" />
      <stop
         id="stop3985"
         offset="1"
         style="stop-color:#ffffff;stop-opacity:0" />
    </linearGradient>
    <linearGradient
       inkscape:collect="always"
       xlink:href="#linearGradient3883-4"
       id="linearGradient3196"
       gradientUnits="userSpaceOnUse"
       gradientTransform="matrix(0.28915731,0.95728159,-0.95728159,0.28915731,41.368212,996.47239)"
       x1="14.889573"
       y1="31.294256"
       x2="15.601078"
       y2="18.919888" />
    <linearGradient
       id="linearGradient4241">
      <stop
         style="stop-color:#ff00b7;stop-opacity:0.18085106;"
         offset="0"
         id="stop4243" />
      <stop
         style="stop-color:#999999;stop-opacity:0;"
         offset="1"
         id="stop4245" />
    </linearGradient>
    <linearGradient
       inkscape:collect="always"
       xlink:href="#linearGradient3789-0"
       id="linearGradient3193"
       gradientUnits="userSpaceOnUse"
       gradientTransform="matrix(0.66659036,0.74542424,-0.74542424,0.66659036,26.29193,993.04675)"
       x1="14.889573"
       y1="31.294256"
       x2="15.601078"
       y2="18.919888" />
    <linearGradient
       id="linearGradient4248">
      <stop
         style="stop-color:#ff0013;stop-opacity:0.18085106;"
         offset="0"
         id="stop4250" />
      <stop
         style="stop-color:#ffffff;stop-opacity:0"
         offset="1"
         id="stop4252" />
    </linearGradient>
    <linearGradient
       inkscape:collect="always"
       xlink:href="#linearGradient3802-6"
       id="linearGradient3190"
       gradientUnits="userSpaceOnUse"
       x1="8.837532"
       y1="1029.6663"
       x2="19.113844"
       y2="1029.6663"
       gradientTransform="matrix(0.66659036,0.74542424,-0.74542424,0.66659036,774.96786,323.54859)" />
    <linearGradient
       id="linearGradient4255">
      <stop
         id="stop4257"
         offset="0"
         style="stop-color:#ffc300;stop-opacity:0.18039216;" />
      <stop
         id="stop4259"
         offset="1"
         style="stop-color:#ffffff;stop-opacity:0" />
    </linearGradient>
    <linearGradient
       inkscape:collect="always"
       xlink:href="#linearGradient3823-4"
       id="linearGradient3187"
       gradientUnits="userSpaceOnUse"
       x1="8.8624401"
       y1="1028.451"
       x2="19.059441"
       y2="1028.451"
       gradientTransform="matrix(0.66659036,0.74542424,-0.74542424,0.66659036,774.96786,323.54859)" />
    <linearGradient
       id="linearGradient4262">
      <stop
         style="stop-color:#4d9600;stop-opacity:0.18039216;"
         offset="0"
         id="stop4264" />
      <stop
         style="stop-color:#ffffff;stop-opacity:0"
         offset="1"
         id="stop4266" />
    </linearGradient>
    <linearGradient
       inkscape:collect="always"
       xlink:href="#linearGradient3802-6"
       id="linearGradient3184"
       gradientUnits="userSpaceOnUse"
       x1="8.8729076"
       y1="1027.5348"
       x2="19.17152"
       y2="1027.5348"
       gradientTransform="matrix(0.66659036,0.74542424,-0.74542424,0.66659036,774.96786,323.54859)" />
    <linearGradient
       id="linearGradient4269">
      <stop
         id="stop4271"
         offset="0"
         style="stop-color:#ffc300;stop-opacity:0.18039216;" />
      <stop
         id="stop4273"
         offset="1"
         style="stop-color:#ffffff;stop-opacity:0" />
    </linearGradient>
    <linearGradient
       inkscape:collect="always"
       xlink:href="#linearGradient3877-4"
       id="linearGradient3181"
       gradientUnits="userSpaceOnUse"
       x1="8.8799152"
       y1="1027.0327"
       x2="19.235598"
       y2="1027.0327"
       gradientTransform="matrix(0.66659036,0.74542424,-0.74542424,0.66659036,774.96786,323.54859)" />
    <linearGradient
       id="linearGradient4276">
      <stop
         style="stop-color:#00dfff;stop-opacity:0.18039216;"
         offset="0"
         id="stop4278" />
      <stop
         style="stop-color:#ffffff;stop-opacity:0"
         offset="1"
         id="stop4280" />
    </linearGradient>
    <linearGradient
       inkscape:collect="always"
       xlink:href="#linearGradient3877-4"
       id="linearGradient3178"
       gradientUnits="userSpaceOnUse"
       x1="8.8905392"
       y1="1026.2065"
       x2="19.3482"
       y2="1026.2065"
       gradientTransform="matrix(0.66659036,0.74542424,-0.74542424,0.66659036,774.96786,323.54859)" />
    <linearGradient
       id="linearGradient4283">
      <stop
         style="stop-color:#00dfff;stop-opacity:0.18039216;"
         offset="0"
         id="stop4285" />
      <stop
         style="stop-color:#ffffff;stop-opacity:0"
         offset="1"
         id="stop4287" />
    </linearGradient>
    <linearGradient
       inkscape:collect="always"
       xlink:href="#linearGradient3993"
       id="linearGradient3991"
       gradientUnits="userSpaceOnUse"
       gradientTransform="matrix(0.48753066,-0.87310587,0.87310587,0.48753066,-884.25024,549.87747)"
       x1="8.8905392"
       y1="1026.2065"
       x2="19.3482"
       y2="1026.2065" />
    <linearGradient
       id="linearGradient3993">
      <stop
         style="stop-color:#000000;stop-opacity:0.43617022;"
         offset="0"
         id="stop3995" />
      <stop
         style="stop-color:#ffffff;stop-opacity:0"
         offset="1"
         id="stop3997" />
    </linearGradient>
    <linearGradient
       inkscape:collect="always"
       xlink:href="#linearGradient3993"
       id="linearGradient4001"
       gradientUnits="userSpaceOnUse"
       gradientTransform="matrix(0.57986909,-0.81470967,0.81470967,0.57986909,-826.68967,453.47007)"
       x1="8.8905392"
       y1="1026.2065"
       x2="19.3482"
       y2="1026.2065" />
    <linearGradient
       id="linearGradient4294">
      <stop
         style="stop-color:#000000;stop-opacity:0.43617022;"
         offset="0"
         id="stop4296" />
      <stop
         style="stop-color:#ffffff;stop-opacity:0"
         offset="1"
         id="stop4298" />
    </linearGradient>
    <linearGradient
       inkscape:collect="always"
       xlink:href="#linearGradient4009"
       id="linearGradient4007"
       gradientUnits="userSpaceOnUse"
       gradientTransform="matrix(0.71504921,-0.69907413,0.69907413,0.71504921,-711.31797,311.40924)"
       x1="8.8905392"
       y1="1026.2065"
       x2="19.3482"
       y2="1026.2065" />
    <linearGradient
       id="linearGradient4009">
      <stop
         style="stop-color:#9a9a9a;stop-opacity:0.64361703;"
         offset="0"
         id="stop4011" />
      <stop
         style="stop-color:#ffffff;stop-opacity:0"
         offset="1"
         id="stop4013" />
    </linearGradient>
    <linearGradient
       inkscape:collect="always"
       xlink:href="#linearGradient3846"
       id="linearGradient3941"
       x1="25.802549"
       y1="40.329281"
       x2="25.802549"
       y2="16.890156"
       gradientUnits="userSpaceOnUse" />
  </defs>
  <sodipodi:namedview
     id="base"
     pagecolor="#ffffff"
     bordercolor="#666666"
     borderopacity="1.0"
     inkscape:pageopacity="0.0"
     inkscape:pageshadow="2"
     inkscape:zoom="11.313708"
     inkscape:cx="32.719736"
     inkscape:cy="27.116665"
     inkscape:document-units="px"
     inkscape:current-layer="layer1"
     showgrid="true"
     inkscape:window-width="1366"
     inkscape:window-height="709"
     inkscape:window-x="0"
     inkscape:window-y="27"
     inkscape:window-maximized="1">
    <inkscape:grid
       type="xygrid"
       id="grid3148" />
  </sodipodi:namedview>
  <metadata
     id="metadata7">
    <rdf:RDF>
      <cc:Work
         rdf:about="">
        <dc:format>image/svg+xml</dc:format>
        <dc:type
           rdf:resource="http://purl.org/dc/dcmitype/StillImage" />
        <dc:title />
      </cc:Work>
    </rdf:RDF>
  </metadata>
  <g
     inkscape:label="Capa 1"
     inkscape:groupmode="layer"
     id="layer1"
     transform="translate(0,-1004.3622)">
    <path
       style="fill:url(#linearGradient3801);fill-opacity:1;stroke:none"
       d="m 2,1004.3622 43.896606,0 c 1.165281,0 2.103394,0.8672 2.103394,1.9445 l 0,44.1109 c 0,1.0773 -0.938113,1.9446 -2.103394,1.9446 L 2,1052.3622 c -1.16528013,0 -2,-0.8673 -2,-1.9446 l 0,-44.1109 c 0,-1.0773 0.83471986,-1.9445 2,-1.9445 z"
       id="rect2991"
       inkscape:connector-curvature="0"
       sodipodi:nodetypes="sssssssss" />
    <path
       style="color:#000000;fill:#ffffff;fill-opacity:1;fill-rule:nonzero;stroke:none;stroke-width:1.5;marker:none;visibility:visible;display:inline;overflow:visible;enable-background:accumulate"
       d="m 23.83755,1012.363 c -1.176249,0 -2.38476,0.1675 -3.573511,0.4873 -7.608038,2.0388 -12.1093734,9.8265 -10.070805,17.4344 l 2.328197,-0.5956 c -0.26505,-0.9862 -0.433153,-2.0163 -0.433153,-3.0862 0,-6.5634 5.293882,-11.8575 11.85756,-11.8575 6.563681,0 11.911705,5.2941 11.911705,11.8575 0,1.0699 -0.168134,2.1 -0.433153,3.0862 l 2.328197,0.5956 c 0.647932,-2.418 0.647932,-4.9452 0,-7.3636 -1.720042,-6.4189 -7.563307,-10.6217 -13.915037,-10.5581 z m 2.977926,18.0842 c -0.10607,-0.017 -0.208999,0.051 -0.27072,0.1083 -0.06172,0.055 -0.08069,0.1017 -0.108289,0.1624 -0.0552,0.1195 -0.07669,0.2633 -0.108288,0.4331 -0.06321,0.34 -0.127555,0.7918 -0.162432,1.3536 -0.06977,1.1236 -0.126082,2.6152 -0.162432,4.115 -0.03635,1.4997 -0.0723,2.9979 -0.162433,4.1149 -0.04507,0.5586 -0.0924,1.0484 -0.162432,1.3536 -0.0085,0.036 -0.04532,0.023 -0.05414,0.054 -0.06177,-0.2327 -0.123691,-0.5878 -0.162433,-1.0287 -0.07748,-0.8816 -0.07753,-2.0542 -0.108288,-3.2487 -0.03075,-1.1943 -0.08246,-2.3928 -0.162432,-3.3028 -0.03999,-0.455 -0.08549,-0.8473 -0.162432,-1.137 -0.03846,-0.1455 -0.09344,-0.2704 -0.162433,-0.379 -0.06899,-0.1092 -0.153041,-0.2166 -0.324864,-0.2166 -0.130397,0 -0.296279,0.081 -0.379009,0.1624 -0.08273,0.081 -0.117835,0.1665 -0.162433,0.2708 -0.08919,0.2096 -0.120503,0.4555 -0.162432,0.758 -0.08386,0.6048 -0.134347,1.3892 -0.162432,2.1657 -0.02809,0.7766 -0.03566,1.551 -0.108288,2.1117 -0.03632,0.2805 -0.109779,0.5189 -0.162433,0.6497 -0.02633,0.066 -0.04551,0.098 -0.05414,0.1083 -0.01178,0 -0.03567,-0.032 -0.05414,-0.054 -0.03077,-0.038 -0.07792,-0.1437 -0.108288,-0.2707 -0.06076,-0.2529 -0.08814,-0.6366 -0.108288,-1.0287 -0.02015,-0.3921 -0.01386,-0.8014 -0.108289,-1.1371 -0.04725,-0.168 -0.09581,-0.3045 -0.216576,-0.4331 -0.120763,-0.1282 -0.34808,-0.2247 -0.541441,-0.2166 -0.23379,0.017 -0.390285,0.1943 -0.487297,0.379 -0.09701,0.1847 -0.174511,0.3978 -0.216577,0.6498 -0.08413,0.5038 -0.08554,1.1593 -0.108288,1.7867 -0.02275,0.6276 -0.03869,1.2415 -0.108288,1.6785 -0.03133,0.1966 -0.120625,0.3397 -0.162432,0.4331 -0.01542,-0.038 -0.03831,-0.053 -0.05415,-0.1083 -0.06331,-0.2221 -0.120347,-0.5556 -0.162432,-0.9745 -0.08419,-0.8379 -0.126047,-1.9547 -0.162432,-3.0863 -0.03638,-1.1317 -0.0325,-2.2792 -0.108288,-3.1403 -0.03789,-0.4304 -0.09219,-0.8083 -0.162433,-1.0829 -0.03512,-0.1369 -0.09909,-0.2206 -0.162432,-0.3249 -0.06334,-0.1039 -0.152661,-0.2707 -0.324865,-0.2707 -0.162692,0 -0.31485,0.1196 -0.379009,0.2166 -0.06416,0.097 -0.07293,0.1991 -0.108288,0.3249 -0.07072,0.2514 -0.122825,0.5856 -0.162432,0.9745 -0.07922,0.778 -0.120503,1.7987 -0.162433,2.8155 -0.04193,1.0169 -0.0789,2.0172 -0.162432,2.7614 -0.04177,0.3722 -0.103714,0.6774 -0.162432,0.8663 -0.03505,-0.097 -0.135144,-0.209 -0.162433,-0.379 -0.06823,-0.425 -0.07383,-0.9737 -0.108288,-1.5702 -0.03446,-0.5964 -0.06963,-1.2041 -0.162432,-1.6785 -0.0464,-0.2372 -0.118147,-0.4764 -0.216577,-0.6497 -0.09843,-0.1733 -0.260517,-0.3249 -0.487297,-0.3249 -0.159781,0 -0.308451,0.1127 -0.379008,0.2166 -0.07055,0.104 -0.1261,0.192 -0.162433,0.3249 -0.07265,0.2659 -0.130725,0.6193 -0.162432,1.0287 -0.0634,0.8192 -0.03673,1.9062 -0.05414,2.978 -0.01741,1.0717 -0.07601,2.1359 -0.162432,2.9237 -0.04321,0.394 -0.09131,0.7192 -0.162433,0.9205 -0.0249,0.071 -0.03256,0.126 -0.05414,0.1624 -0.02627,-0.049 -0.07729,-0.1057 -0.108288,-0.2166 -0.04102,-0.1473 -0.08099,-0.4237 -0.108288,-0.6497 l 0.108288,0 -0.162432,-0.5414 c -0.0026,-0.029 0.0025,-0.079 0,-0.1083 -0.08563,-1.0077 -0.139995,-2.3447 -0.162433,-3.6818 -0.0231,-1.3764 -0.04584,-2.7479 -0.108288,-3.7901 -0.03122,-0.521 -0.04267,-0.9762 -0.108288,-1.2995 -0.03282,-0.1611 -0.102675,-0.2615 -0.162433,-0.379 -0.02989,-0.059 -0.04837,-0.1104 -0.108288,-0.1624 -0.05991,-0.052 -0.173122,-0.1118 -0.27072,-0.1083 -0.187786,0 -0.266952,0.1578 -0.324865,0.2707 -0.05792,0.1126 -0.07601,0.2262 -0.108288,0.379 -0.06454,0.3058 -0.130708,0.7056 -0.162433,1.1912 -0.03025,0.4632 -0.03867,1.1107 -0.05414,1.6785 l -1.299458,-4.9813 -2.923782,0.8122 c -1.5899304,0.4262 -2.4834984,2.038 -2.0574774,3.6276 l 1.516035,5.7393 c 0.4260224,1.59 2.0377284,2.5377 3.6276564,2.1116 l 0.433153,-0.1083 c 0.08283,0.037 0.173654,0.059 0.27072,0.054 0.170836,-0.017 0.301681,-0.1022 0.379009,-0.2166 l 1.191171,-0.3249 c 0.03575,0.1942 0.06439,0.4379 0.108288,0.5956 0.04583,0.1646 0.08218,0.3141 0.162432,0.4332 0.08026,0.1195 0.254893,0.2757 0.433153,0.2707 0.153198,0 0.292702,-0.1144 0.379009,-0.2166 0.0863,-0.1022 0.114162,-0.2425 0.162432,-0.379 0.09652,-0.2732 0.1712,-0.6151 0.216577,-1.0287 0.09077,-0.8275 0.09084,-1.9039 0.108288,-2.9779 0.01745,-1.0741 0.04727,-2.1355 0.108288,-2.9238 0.03051,-0.3942 0.05288,-0.7176 0.108288,-0.9205 0.01939,-0.071 0.03751,-0.1278 0.05414,-0.1624 0.0036,0 0.005,-0.033 0.05415,0.054 0.04908,0.087 0.0675,0.2789 0.108288,0.4873 0.08157,0.4169 0.128092,0.9761 0.162432,1.5702 0.03434,0.5943 0.08644,1.2051 0.162432,1.6785 0.038,0.2366 0.08084,0.4221 0.162433,0.5956 0.0408,0.087 0.08672,0.2017 0.162432,0.2707 0.07571,0.069 0.156316,0.1031 0.270721,0.1083 0.157702,0 0.307928,-0.1196 0.379008,-0.2166 0.07109,-0.097 0.123449,-0.1994 0.162433,-0.3249 0.07795,-0.2509 0.118892,-0.5868 0.162432,-0.9746 0.08706,-0.7757 0.120469,-1.7439 0.162432,-2.7613 0.04196,-1.0176 0.08611,-2.066 0.162433,-2.8155 0.03081,-0.3027 0.06615,-0.5126 0.108288,-0.7039 0.04539,0.2176 0.131367,0.5134 0.162432,0.8663 0.07343,0.8344 0.126013,1.9536 0.162433,3.0862 0.03642,1.1325 0.07525,2.2727 0.162432,3.1404 0.04359,0.434 0.08261,0.8031 0.162432,1.0829 0.03992,0.1403 0.09295,0.2192 0.162433,0.3248 0.06948,0.1057 0.159313,0.2631 0.324864,0.2708 0.231919,0.017 0.447023,-0.1995 0.541442,-0.379 0.09441,-0.1794 0.123171,-0.4032 0.162432,-0.6498 0.07852,-0.4929 0.1397,-1.1057 0.162432,-1.7326 0.02273,-0.6267 0.03361,-1.2313 0.108288,-1.6785 0.03734,-0.2236 0.05707,-0.3897 0.108289,-0.4873 0.05122,-0.097 0.09805,-0.1082 0.108288,-0.1082 0.06132,0 0.07501,0.02 0.108288,0.054 0.03328,0.035 0.07414,0.095 0.108288,0.2166 0.06832,0.2425 0.08828,0.6391 0.108289,1.0287 0.02001,0.3895 0.02758,0.8011 0.108288,1.137 0.04035,0.1681 0.10931,0.2996 0.216576,0.4332 0.107266,0.1334 0.297566,0.2166 0.487297,0.2166 0.131176,0 0.245248,-0.025 0.324865,-0.1083 0.07961,-0.081 0.120486,-0.2206 0.162432,-0.3249 0.08389,-0.2086 0.123345,-0.4562 0.162433,-0.758 0.07818,-0.6036 0.134364,-1.3897 0.162432,-2.1658 0.02807,-0.776 0.0307,-1.5521 0.108288,-2.1116 0.03879,-0.2798 0.107093,-0.4654 0.162432,-0.5956 0.013,0.035 0.04136,0.06 0.05415,0.1083 0.06177,0.2327 0.123691,0.588 0.162432,1.0288 0.07748,0.8817 0.07753,2.0543 0.108288,3.2486 0.03075,1.1945 0.08245,2.3928 0.162432,3.3028 0.03999,0.455 0.08549,0.8472 0.162433,1.137 0.03846,0.1456 0.09344,0.2704 0.162432,0.379 0.06899,0.1092 0.207182,0.2166 0.379009,0.2166 0.09914,0 0.155502,-0.055 0.216576,-0.1083 0.06108,-0.054 0.128924,-0.1 0.162433,-0.1624 0.06702,-0.1248 0.121802,-0.2561 0.162432,-0.4332 0.08124,-0.3539 0.116397,-0.8372 0.162432,-1.4077 0.09207,-1.1413 0.126048,-2.668 0.162433,-4.1691 0.03638,-1.5011 0.09385,-3.0106 0.162432,-4.115 0.02566,-0.4132 0.01681,-0.6954 0.05414,-0.9746 0.05132,0.3327 0.126515,0.729 0.162432,1.2454 0.08417,1.2091 0.17243,2.8331 0.216577,4.4398 0.04415,1.6068 0.08249,3.2336 0.162432,4.4398 0.03997,0.6029 0.09618,1.0958 0.162433,1.4619 0.03313,0.1831 0.05515,0.308 0.108288,0.4331 0.02658,0.062 0.05349,0.1577 0.108288,0.2166 0.0548,0.059 0.156438,0.1135 0.270721,0.1083 0.161548,-0.017 0.262435,-0.1195 0.324864,-0.2166 0.06243,-0.097 0.126568,-0.1991 0.162433,-0.3248 0.07175,-0.2518 0.120295,-0.5874 0.162432,-0.9746 0.08426,-0.7745 0.115704,-1.8056 0.162432,-2.8155 0.04673,-1.01 0.08124,-2.0155 0.162433,-2.7614 0.0406,-0.3728 0.106469,-0.6701 0.162432,-0.8663 0.03259,0.094 0.08251,0.1644 0.108288,0.3249 0.06742,0.4208 0.07481,1.0234 0.108288,1.6243 0.03347,0.601 0.06948,1.1985 0.162433,1.6785 0.04647,0.2399 0.117557,0.4745 0.216576,0.6497 0.09902,0.1752 0.312913,0.3249 0.541441,0.3249 0.129912,0 0.239342,-0.081 0.324865,-0.1625 0.08552,-0.08 0.11579,-0.1662 0.162432,-0.2707 0.09328,-0.2107 0.173523,-0.455 0.216577,-0.758 0.08611,-0.6061 0.08285,-1.3889 0.108288,-2.1658 0.02544,-0.7769 0.09301,-1.5506 0.162432,-2.1116 0.03472,-0.2803 0.05655,-0.5189 0.108289,-0.6497 0.01161,0.026 0.04236,0.018 0.05414,0.054 0.05887,0.1811 0.12629,0.5058 0.162432,0.8663 0.07227,0.7211 0.08554,1.6674 0.108288,2.6531 0.02275,0.9855 0.02687,2.0035 0.108288,2.7613 0.0311,0.2895 0.09754,0.4958 0.162433,0.7039 l -0.379009,1.4619 2.869638,0.758 c 1.589933,0.4261 3.20163,-0.5216 3.627655,-2.1116 l 1.516036,-5.7393 c 0.426021,-1.5896 -0.467549,-3.2014 -2.057477,-3.6276 l -2.923782,-0.8122 -0.487297,1.8409 c -0.02045,-0.052 -0.02288,-0.1174 -0.05414,-0.1624 -0.08453,-0.1213 -0.202935,-0.2166 -0.379009,-0.2166 -0.160821,0 -0.305346,0.1126 -0.379008,0.2166 -0.07367,0.1039 -0.123328,0.1881 -0.162433,0.3248 -0.07819,0.2736 -0.126359,0.6607 -0.162432,1.0829 -0.07215,0.8445 -0.08828,1.9277 -0.108288,3.0321 -0.0036,0.197 0.0033,0.3455 0,0.5414 l -0.541441,2.0575 c -0.03981,-0.6473 -0.09055,-1.343 -0.108289,-2.1116 -0.02273,-0.9852 -0.08658,-1.9502 -0.162432,-2.7072 -0.03793,-0.3784 -0.08109,-0.7246 -0.162432,-0.9746 -0.04067,-0.1248 -0.08544,-0.2278 -0.162433,-0.3249 -0.077,-0.097 -0.175078,-0.1624 -0.324864,-0.1624 -0.131176,0 -0.299593,0.025 -0.379009,0.1083 -0.07942,0.083 -0.12111,0.2204 -0.162432,0.3249 -0.08265,0.2089 -0.125078,0.4561 -0.162433,0.758 -0.07471,0.6036 -0.08289,1.39 -0.108288,2.1657 -0.0254,0.7757 -0.08308,1.5531 -0.162432,2.1117 -0.03968,0.2791 -0.05118,0.4666 -0.108289,0.5955 -0.02141,0.049 -0.09399,0.037 -0.108288,0.054 -0.04986,-0.088 -0.121508,-0.2761 -0.162432,-0.4873 -0.08183,-0.4226 -0.12908,-1.0255 -0.162432,-1.6243 -0.03335,-0.5988 -0.08705,-1.1536 -0.162433,-1.6244 -0.03768,-0.2352 -0.07875,-0.4785 -0.162432,-0.6497 -0.04184,-0.085 -0.08136,-0.149 -0.162432,-0.2166 -0.08107,-0.068 -0.210428,-0.1135 -0.324865,-0.1083 -0.161584,0 -0.262297,0.1196 -0.324865,0.2166 -0.06256,0.097 -0.07241,0.1991 -0.108288,0.3249 -0.07178,0.2514 -0.120295,0.5875 -0.162432,0.9746 -0.08427,0.7741 -0.169848,1.8055 -0.216577,2.8155 -0.04673,1.0099 -0.08124,2.0151 -0.162432,2.7613 -0.03032,0.2786 -0.06872,0.4626 -0.108288,0.6498 -0.05617,-0.3266 -0.124558,-0.7822 -0.162433,-1.3536 -0.07875,-1.1881 -0.118285,-2.7786 -0.162432,-4.3857 -0.04415,-1.607 -0.07696,-3.2118 -0.162432,-4.4398 -0.04274,-0.6143 -0.09212,-1.1344 -0.162433,-1.5161 -0.03515,-0.1909 -0.0548,-0.3565 -0.108288,-0.4873 -0.02675,-0.066 -0.06064,-0.1035 -0.108288,-0.1624 -0.04765,-0.059 -0.162242,-0.1451 -0.270721,-0.1624 z m 6.822158,3.032 c 0.02121,0.049 0.03335,0.086 0.05414,0.1625 l 0.270721,-0.1083 -0.595585,2.3282 c 0.01552,-0.4527 0.02258,-0.9842 0.05414,-1.3536 0.0347,-0.4065 0.102449,-0.7646 0.162432,-0.9746 0.009,-0.031 0.04487,-0.03 0.05414,-0.054 z m -18.192421,0.3249 c 0.04221,0.2677 0.08313,0.6089 0.108288,1.0287 0.06109,1.0199 0.08516,2.3577 0.108288,3.736 0.0076,0.4535 0.04857,0.9059 0.05414,1.3536 l -0.487297,-1.6785 c 4.14e-4,-0.02 -4.1e-4,-0.034 0,-0.054 0.02626,-1.26 0.04732,-2.5317 0.108289,-3.4653 0.02512,-0.3846 0.06785,-0.6718 0.108288,-0.9204 z"
       id="path3748"
       inkscape:connector-curvature="0" />
    <path
       inkscape:connector-curvature="0"
       style="opacity:0.15;fill:#ffffff;fill-opacity:1;stroke:none"
       d="m 2,1004.3622 c -1.108,0 -2,0.892 -2,2 l 0,44 c 0,1.108 0.892,2 2,2 l 14.78125,0 12.84375,-48 -27.625,0 z"
       id="rect3790" />
  </g>
</svg>
