<?xml version="1.0" encoding="UTF-8" standalone="no"?>
<!-- Created with Inkscape (http://www.inkscape.org/) -->

<svg
   xmlns:dc="http://purl.org/dc/elements/1.1/"
   xmlns:cc="http://creativecommons.org/ns#"
   xmlns:rdf="http://www.w3.org/1999/02/22-rdf-syntax-ns#"
   xmlns:svg="http://www.w3.org/2000/svg"
   xmlns="http://www.w3.org/2000/svg"
   xmlns:xlink="http://www.w3.org/1999/xlink"
   xmlns:sodipodi="http://sodipodi.sourceforge.net/DTD/sodipodi-0.dtd"
   xmlns:inkscape="http://www.inkscape.org/namespaces/inkscape"
   width="48"
   height="48"
   id="svg2"
   version="1.1"
   inkscape:version="0.48.4 r9939"
   sodipodi:docname="blender.svg">
  <defs
     id="defs4">
    <linearGradient
       id="linearGradient3795">
      <stop
         style="stop-color:#ec893c;stop-opacity:1;"
         offset="0"
         id="stop3797" />
      <stop
         style="stop-color:#ed7a3f;stop-opacity:1;"
         offset="1"
         id="stop3799" />
    </linearGradient>
    <linearGradient
       id="linearGradient3698">
      <stop
         id="stop3700"
         offset="0"
         style="stop-color:#96d0e1;stop-opacity:1" />
      <stop
         style="stop-color:#89b7e1;stop-opacity:1"
         offset="0.67819428"
         id="stop3706" />
      <stop
         id="stop3702"
         offset="1"
         style="stop-color:#699dd3;stop-opacity:1" />
    </linearGradient>
    <linearGradient
       id="linearGradient3708">
      <stop
         id="stop3710"
         offset="0"
         style="stop-color:#658db6;stop-opacity:1" />
      <stop
         style="stop-color:#527fab;stop-opacity:1;"
         offset="0.76777935"
         id="stop3716" />
      <stop
         id="stop3712"
         offset="1"
         style="stop-color:#4071a0;stop-opacity:1" />
    </linearGradient>
    <linearGradient
       id="linearGradient3750">
      <stop
         style="stop-color:#d0e2f1;stop-opacity:1"
         offset="0"
         id="stop3752" />
      <stop
         id="stop3756"
         offset="0.85580856"
         style="stop-color:#cadef0;stop-opacity:1" />
      <stop
         style="stop-color:#95bee3;stop-opacity:1"
         offset="1"
         id="stop3754" />
    </linearGradient>
    <linearGradient
       id="linearGradient3803">
      <stop
         id="stop3805"
         offset="0"
         style="stop-color:#d7def0;stop-opacity:1;" />
      <stop
         style="stop-color:#ffffff;stop-opacity:1"
         offset="0.5"
         id="stop3811" />
      <stop
         id="stop3807"
         offset="1"
         style="stop-color:#d5def0;stop-opacity:1" />
    </linearGradient>
    <linearGradient
       inkscape:collect="always"
       xlink:href="#linearGradient3795"
       id="linearGradient3801"
       x1="-3.5458357"
       y1="1008.155"
       x2="-3.5458357"
       y2="1050.3474"
       gradientUnits="userSpaceOnUse" />
    <linearGradient
       x1="48"
       y1="90"
       x2="48"
       y2="5.9877172"
       id="linearGradient3617"
       xlink:href="#ButtonColor"
       gradientUnits="userSpaceOnUse" />
    <linearGradient
       x1="58.650177"
       y1="122"
       x2="58.650177"
       y2="5.4252338"
       id="ButtonColor"
       gradientUnits="userSpaceOnUse"
       gradientTransform="matrix(1.0172414,0,0,1.0172414,-1.1034483,-1.1034483)">
      <stop
         id="stop3189"
         style="stop-color:#264b79;stop-opacity:1"
         offset="0" />
      <stop
         id="stop3191"
         style="stop-color:#6087b8;stop-opacity:1"
         offset="1" />
    </linearGradient>
    <linearGradient
       inkscape:collect="always"
       xlink:href="#linearGradient3795-8"
       id="linearGradient869"
       x1="-25.750002"
       y1="-1051.3623"
       x2="-25.750002"
       y2="-1006.1123"
       gradientUnits="userSpaceOnUse"
       gradientTransform="translate(1.9073486e-6,1.2948303e-4)" />
    <linearGradient
       id="linearGradient3795-8">
      <stop
         style="stop-color:#c2c2c2;stop-opacity:1"
         offset="0"
         id="stop3797-6" />
      <stop
         style="stop-color:#f3f3f3;stop-opacity:1"
         offset="1"
         id="stop3799-7" />
    </linearGradient>
  </defs>
  <sodipodi:namedview
     id="base"
     pagecolor="#ffffff"
     bordercolor="#666666"
     borderopacity="1.0"
     inkscape:pageopacity="0.0"
     inkscape:pageshadow="2"
     inkscape:zoom="11.313708"
     inkscape:cx="1.6295591"
     inkscape:cy="24.746892"
     inkscape:document-units="px"
     inkscape:current-layer="layer1"
     showgrid="true"
     inkscape:window-width="1366"
     inkscape:window-height="715"
     inkscape:window-x="0"
     inkscape:window-y="25"
     inkscape:window-maximized="1">
    <inkscape:grid
       type="xygrid"
       id="grid3014" />
  </sodipodi:namedview>
  <metadata
     id="metadata7">
    <rdf:RDF>
      <cc:Work
         rdf:about="">
        <dc:format>image/svg+xml</dc:format>
        <dc:type
           rdf:resource="http://purl.org/dc/dcmitype/StillImage" />
        <dc:title />
      </cc:Work>
    </rdf:RDF>
  </metadata>
  <g
     inkscape:label="Capa 1"
     inkscape:groupmode="layer"
     id="layer1"
     transform="translate(0,-1004.3622)">
    <rect
       style="fill:url(#linearGradient3801);fill-opacity:1;stroke:none"
       id="rect2991"
       width="48"
       height="48"
       x="0"
       y="1004.3622"
       ry="1.9445436" />
    <path
       style="font-size:xx-small;font-style:normal;font-variant:normal;font-weight:normal;font-stretch:normal;text-indent:0;text-align:start;text-decoration:none;line-height:normal;letter-spacing:normal;word-spacing:normal;text-transform:none;direction:ltr;block-progression:tb;writing-mode:lr-tb;text-anchor:start;color:#000000;fill:#ffffff;fill-opacity:1;fill-rule:evenodd;stroke:none;stroke-width:2;marker:none;visibility:visible;display:inline;overflow:visible;enable-background:accumulate;font-family:Abandoned Bitplane;-inkscape-font-specification:Abandoned Bitplane"
       d="M 24.84375 9.40625 C 24.315917 9.40625 23.788377 9.5902 23.34375 9.9375 C 22.897075 10.285 22.599516 10.7681 22.5625 11.3125 C 22.52548 11.8568 22.71368 12.40345 23.125 12.78125 L 23.125 12.8125 C 24.089711 13.661 25.089587 14.53635 26.0625 15.40625 L 15.15625 15.40625 C 14.380349 15.40625 13.720948 15.5999 13.21875 16 C 12.71655 16.4001 12.419169 16.98995 12.3125 17.65625 C 12.103694 18.96065 13.003117 20.4375 14.5 20.4375 L 19.25 20.4375 L 9.3125 28.65625 C 9.3135 28.65625 9.31106 28.63525 9.28125 28.65625 C 8.673282 29.17575 8.2566312 29.8901 8.09375 30.625 C 7.9308705 31.3599 8.0055148 32.1331 8.4375 32.75 C 9.315846 34.0036 11.08352 33.98 12.3125 32.875 L 17.53125 28.09375 C 17.53965 28.64945 17.666077 29.53575 17.875 30.28125 C 18.30398 31.80495 19.024091 33.1997 20.03125 34.4375 C 21.063916 35.707 22.319043 36.74685 23.78125 37.46875 C 25.319652 38.22705 26.995188 38.59685 28.71875 38.59375 C 30.442224 38.59375 32.08751 38.2013 33.625 37.4375 C 35.085786 36.709 36.374267 35.67915 37.40625 34.40625 C 38.410757 33.16395 39.133692 31.74285 39.5625 30.21875 C 39.779677 29.44715 39.912382 28.6615 39.96875 27.875 C 40.02295 27.1014 40.005 26.3354 39.90625 25.5625 C 39.714449 24.0538 39.249783 22.63155 38.53125 21.34375 C 37.9681 20.33375 37.223799 19.43805 36.40625 18.65625 L 36.4375 18.625 L 36.03125 18.28125 L 26.34375 10 C 26.344385 10.0005 26.3153 9.9405 26.3125 9.9375 L 26.28125 9.9375 C 25.861251 9.5862 25.36472 9.40525 24.84375 9.40625 z M 28.59375 18.125 C 33.596201 18.125 37.65625 22.185 37.65625 27.1875 C 37.65625 32.19 33.596201 36.21875 28.59375 36.21875 C 23.591298 36.21875 19.53125 32.19 19.53125 27.1875 C 19.53125 22.185 23.591298 18.125 28.59375 18.125 z M 28.5 24.53125 C 27.00354 24.53125 25.78125 25.75354 25.78125 27.25 C 25.78125 28.74646 27.00354 29.96875 28.5 29.96875 C 29.99646 29.96875 31.1875 28.74646 31.1875 27.25 C 31.1875 25.75354 29.99646 24.53125 28.5 24.53125 z "
       transform="translate(0,1004.3622)"
       id="path3722-8" />
    <path
       inkscape:connector-curvature="0"
       style="opacity:0.15;fill:#ffffff;fill-opacity:1;stroke:none"
       d="m 2,1004.3622 c -1.108,0 -2,0.892 -2,2 l 0,44 c 0,1.108 0.892,2 2,2 l 14.78125,0 12.84375,-48 -27.625,0 z"
       id="rect3790" />
  </g>
</svg>
