<?xml version="1.0" encoding="UTF-8" standalone="no"?>
<!-- Created with Inkscape (http://www.inkscape.org/) -->

<svg
   xmlns:dc="http://purl.org/dc/elements/1.1/"
   xmlns:cc="http://creativecommons.org/ns#"
   xmlns:rdf="http://www.w3.org/1999/02/22-rdf-syntax-ns#"
   xmlns:svg="http://www.w3.org/2000/svg"
   xmlns="http://www.w3.org/2000/svg"
   xmlns:xlink="http://www.w3.org/1999/xlink"
   xmlns:sodipodi="http://sodipodi.sourceforge.net/DTD/sodipodi-0.dtd"
   xmlns:inkscape="http://www.inkscape.org/namespaces/inkscape"
   width="48"
   height="48"
   id="svg944"
   version="1.1"
   inkscape:version="0.48.3.1 r9886"
   sodipodi:docname="bluefish-icon.svg">
  <defs
     id="defs946">
    <linearGradient
       id="linearGradient3766">
      <stop
         style="stop-color:#204a87;stop-opacity:1;"
         offset="0"
         id="stop3768" />
      <stop
         style="stop-color:#2872a5;stop-opacity:1;"
         offset="1"
         id="stop3770" />
    </linearGradient>
    <linearGradient
       id="linearGradient1528">
      <stop
         id="stop1530"
         offset="0"
         style="stop-color:#99cfe5;stop-opacity:1" />
      <stop
         id="stop1532"
         offset="1"
         style="stop-color:#1d5c73;stop-opacity:1" />
    </linearGradient>
    <linearGradient
       y2="1049.5842"
       x2="24.113745"
       y1="1007.2183"
       x1="24.113745"
       gradientTransform="matrix(0.96799712,0,0,1.0252613,0.76812014,-25.977808)"
       gradientUnits="userSpaceOnUse"
       id="linearGradient3030"
       xlink:href="#linearGradient3795"
       inkscape:collect="always" />
    <linearGradient
       id="linearGradient3795">
      <stop
         style="stop-color:#68b8d8;stop-opacity:1;"
         offset="0"
         id="stop3797" />
      <stop
         style="stop-color:#3097bd;stop-opacity:1;"
         offset="1"
         id="stop3799" />
    </linearGradient>
    <linearGradient
       inkscape:collect="always"
       xlink:href="#linearGradient3795-9"
       id="linearGradient3801"
       x1="23.204165"
       y1="1053.158"
       x2="23.204165"
       y2="1004.8474"
       gradientUnits="userSpaceOnUse"
       gradientTransform="translate(0,-2056.7244)" />
    <linearGradient
       id="linearGradient3795-9">
      <stop
         style="stop-color:#2c89a0;stop-opacity:1;"
         offset="0"
         id="stop3797-1" />
      <stop
         style="stop-color:#2c89a0;stop-opacity:1;"
         offset="1"
         id="stop3799-4" />
    </linearGradient>
    <linearGradient
       inkscape:collect="always"
       xlink:href="#linearGradient3766"
       id="linearGradient3772"
       x1="1645.6249"
       y1="-414.81989"
       x2="1645.6249"
       y2="-365.61871"
       gradientUnits="userSpaceOnUse" />
  </defs>
  <sodipodi:namedview
     id="base"
     pagecolor="#ffffff"
     bordercolor="#666666"
     borderopacity="1.0"
     inkscape:pageopacity="0.0"
     inkscape:pageshadow="2"
     inkscape:zoom="11.2"
     inkscape:cx="8.8988233"
     inkscape:cy="23.705829"
     inkscape:document-units="px"
     inkscape:current-layer="layer1"
     showgrid="true"
     width="0px"
     height="0px"
     fit-margin-top="0"
     fit-margin-left="0"
     fit-margin-right="0"
     fit-margin-bottom="0"
     inkscape:window-width="1366"
     inkscape:window-height="709"
     inkscape:window-x="0"
     inkscape:window-y="27"
     inkscape:window-maximized="1">
    <inkscape:grid
       type="xygrid"
       id="grid3001" />
  </sodipodi:namedview>
  <metadata
     id="metadata949">
    <rdf:RDF>
      <cc:Work
         rdf:about="">
        <dc:format>image/svg+xml</dc:format>
        <dc:type
           rdf:resource="http://purl.org/dc/dcmitype/StillImage" />
        <dc:title />
      </cc:Work>
    </rdf:RDF>
  </metadata>
  <g
     inkscape:label="Capa 1"
     inkscape:groupmode="layer"
     id="layer1"
     transform="translate(-1640.5564,-364.34714)">
    <rect
       style="fill:url(#linearGradient3772);fill-opacity:1;stroke:none"
       id="rect2991"
       width="48"
       height="48"
       x="1640.5564"
       y="-412.34714"
       ry="1.9445436"
       transform="scale(1,-1)" />
    <rect
       style="fill:none;stroke:none"
       id="rect1526"
       width="48"
       height="48"
       x="1640.5564"
       y="364.34714"
       ry="0" />
    <path
       style="fill:#ffffff;fill-opacity:1;stroke:none"
       d="M 39.53125 9.6875 C 39.53125 9.6875 35.927 10.23349 33.875 13.125 C 32.336 15.29363 32.4589 18.25148 32.625 19.59375 C 29.7893 15.79726 24.9367 12.1875 20.6875 12.1875 C 19.255 12.1875 17.8941 12.4781 16.625 13 C 15.9275 12.75953 14.379 12.30647 12.875 12.65625 C 10.8696 13.12262 9.8851 14.05663 8.8125 15.96875 C 7.7398 17.88088 8.00045 20.31773 8.09375 21.34375 C 8.18675 22.36977 8.875 23.15625 8.875 23.15625 L 8.9375 22.75 L 8.71875 22.59375 C 8.71875 22.59375 8.3442 20.88659 8.4375 20.09375 C 8.5305 19.30092 8.848 18.45051 9.6875 17.9375 C 10.2811 17.57469 10.7646 17.64058 11.125 17.71875 C 10.7895 18.24388 10.48305 18.79735 10.21875 19.375 C 10.09605 19.3231 9.98535 19.28125 9.84375 19.28125 C 9.27705 19.28125 8.8125 19.7146 8.8125 20.28125 C 8.8125 20.73244 9.0953 21.11258 9.5 21.25 C 9.1369 22.5045 8.9375 23.85975 8.9375 25.25 C 8.9375 27.05299 9.2805 28.81203 9.875 30.375 C 9.0156 30.8022 8.16145 31.82439 9.65625 32.84375 C 9.54875 32.88955 9.46355 32.92851 9.40625 33 C 8.66005 33.93274 10.34765 34.6591 11.09375 35.21875 C 11.49605 35.52041 12.6312 36.0018 14.1875 36.15625 C 16.0495 37.53495 18.2824 38.3125 20.6875 38.3125 C 25.472 38.3125 31.01565 34.32685 33.59375 29.9375 C 34.22765 30.42559 35.1089 31.05448 36.1875 31.59375 C 38.2395 32.61976 40 32.0625 40 32.0625 C 40 32.0625 37.77745 29.55204 37.03125 27.5 C 36.28505 25.44797 37.0965 22.55727 37.5625 21.53125 C 38.0289 20.50523 38.4365 15.64389 38.25 13.21875 C 38.0635 10.79362 39.53125 9.6875 39.53125 9.6875 z M 23.53125 13.28125 C 24.00155 13.30755 24.4154 13.43884 24.6875 13.5625 C 25.4129 13.89228 26.59375 15.71875 26.59375 15.71875 C 26.59375 15.71875 24.5308 13.0245 22.75 13.75 C 20.9693 14.4755 20.03815 15.97251 19.90625 17.09375 C 19.86925 17.4079 19.86275 17.75809 19.84375 18.0625 C 20.23825 17.84882 20.79135 17.64027 21.59375 17.59375 C 21.85765 17.57845 22.15385 17.60148 22.46875 17.625 C 24.779752 17.796187 25.849279 18.100503 26.65625 18.65625 L 26.71875 18.71875 C 26.767068 18.753433 26.828087 18.776013 26.875 18.8125 C 26.956608 18.875977 27.017927 18.957171 27.09375 19.03125 C 27.115414 19.052415 27.135083 19.071909 27.15625 19.09375 L 27.3125 19.21875 C 27.424107 19.308036 27.537409 19.43998 27.65625 19.59375 C 27.545349 18.705888 27.350854 17.328484 27.09375 16.75 L 26.75 15.9375 C 26.75 15.9375 27.540179 16.803571 28.03125 18.8125 C 28.522322 20.821428 29.008929 20.84375 28.875 22.09375 L 28.84375 22.3125 C 28.847164 22.334158 28.840756 22.3536 28.84375 22.375 C 28.863314 22.514815 28.875 22.65542 28.875 22.78125 C 28.875 23.941964 27.59375 26.03125 27.59375 26.03125 C 27.59375 26.03125 28.209822 24.825893 28.34375 23.21875 C 28.40315 22.505956 28.305936 22.013814 28.1875 21.65625 C 28.060576 22.945983 27.59667 25.277303 25.65625 25.8125 C 23.04745 26.53215 21.10715 26.46397 19.71875 23.78125 C 19.73675 23.86635 19.76025 23.95119 19.78125 24.03125 C 20.17705 25.54822 21.7123 26.94111 23.625 27.46875 C 24.5584 27.72626 25.3853 27.56578 26 27.34375 C 25.2831 27.66822 24.32385 28.00955 23.53125 27.9375 C 22.08025 27.80559 19.86475 26.32092 18.84375 24.71875 C 17.98305 23.36814 18.1829 22.12183 18.0625 19.96875 C 18.1395 17.99977 18.74725 15.92322 20.59375 14.40625 C 21.74795 13.45814 22.74745 13.23746 23.53125 13.28125 z M 24.6875 19.1875 C 23.9405 19.1875 23.34375 19.81555 23.34375 20.5625 C 23.34375 21.30946 23.9405 21.90625 24.6875 21.90625 C 25.4345 21.90625 26.03125 21.30946 26.03125 20.5625 C 26.03125 19.81555 25.4345 19.1875 24.6875 19.1875 z M 23.59375 28.8125 C 23.644312 28.830152 23.70875 28.87154 23.75 28.9375 C 24.0797 29.46514 23.53785 30.51774 22.21875 31.96875 C 20.89965 33.41975 19.84375 34.25 19.84375 34.25 C 19.84375 34.25 21.49985 32.57286 20.90625 32.375 C 20.31265 32.17714 19.4567 33.59096 15.9375 33.8125 C 13.7394 33.95086 10.15625 33.25 10.15625 33.25 C 10.15625 33.25 13.5937 33.74295 16.0625 33.375 C 18.7678 32.97175 21.66975 31.4028 20.21875 31.46875 C 18.76775 31.53475 17.9375 31.5 17.9375 31.5 C 17.9375 31.5 19.9206 30.9755 21.4375 30.25 C 22.5752 29.70587 23.0974 28.97051 23.4375 28.84375 C 23.4942 28.8226 23.543188 28.794848 23.59375 28.8125 z "
       transform="translate(1640.5564,364.34714)"
       id="path3068" />
    <path
       inkscape:connector-curvature="0"
       style="opacity:0.15;fill:#ffffff;fill-opacity:1;stroke:none"
       d="m 1642.5564,364.34714 c -1.108,0 -2,0.892 -2,2 l 0,44 c 0,1.108 0.892,2 2,2 l 14.7813,0 12.8437,-48 -27.625,0 z"
       id="rect3790" />
  </g>
</svg>
