<?xml version="1.0" encoding="UTF-8" standalone="no"?>
<!-- Created with Inkscape (http://www.inkscape.org/) -->

<svg
   xmlns:dc="http://purl.org/dc/elements/1.1/"
   xmlns:cc="http://creativecommons.org/ns#"
   xmlns:rdf="http://www.w3.org/1999/02/22-rdf-syntax-ns#"
   xmlns:svg="http://www.w3.org/2000/svg"
   xmlns="http://www.w3.org/2000/svg"
   xmlns:xlink="http://www.w3.org/1999/xlink"
   xmlns:sodipodi="http://sodipodi.sourceforge.net/DTD/sodipodi-0.dtd"
   xmlns:inkscape="http://www.inkscape.org/namespaces/inkscape"
   width="48"
   height="48"
   id="svg2"
   version="1.1"
   inkscape:version="0.48.3.1 r9886"
   sodipodi:docname="brasero.svg">
  <defs
     id="defs4">
    <linearGradient
       id="linearGradient3970">
      <stop
         id="stop3972"
         offset="0"
         style="stop-color:#f1c02e;stop-opacity:1;" />
      <stop
         id="stop3974"
         offset="1"
         style="stop-color:#aa1111;stop-opacity:1;" />
    </linearGradient>
    <linearGradient
       id="linearGradient3827">
      <stop
         id="stop3829"
         offset="0"
         style="stop-color:#f19c2e;stop-opacity:1;" />
      <stop
         id="stop3831"
         offset="1"
         style="stop-color:#aa2311;stop-opacity:1;" />
    </linearGradient>
    <linearGradient
       id="linearGradient3795">
      <stop
         style="stop-color:#f1672e;stop-opacity:1;"
         offset="0"
         id="stop3797" />
      <stop
         style="stop-color:#aa1111;stop-opacity:1;"
         offset="1"
         id="stop3799" />
    </linearGradient>
    <linearGradient
       id="linearGradient3698">
      <stop
         id="stop3700"
         offset="0"
         style="stop-color:#96d0e1;stop-opacity:1" />
      <stop
         style="stop-color:#89b7e1;stop-opacity:1"
         offset="0.67819428"
         id="stop3706" />
      <stop
         id="stop3702"
         offset="1"
         style="stop-color:#699dd3;stop-opacity:1" />
    </linearGradient>
    <linearGradient
       id="linearGradient3708">
      <stop
         id="stop3710"
         offset="0"
         style="stop-color:#658db6;stop-opacity:1" />
      <stop
         style="stop-color:#527fab;stop-opacity:1;"
         offset="0.76777935"
         id="stop3716" />
      <stop
         id="stop3712"
         offset="1"
         style="stop-color:#4071a0;stop-opacity:1" />
    </linearGradient>
    <linearGradient
       id="linearGradient3750">
      <stop
         style="stop-color:#d0e2f1;stop-opacity:1"
         offset="0"
         id="stop3752" />
      <stop
         id="stop3756"
         offset="0.85580856"
         style="stop-color:#cadef0;stop-opacity:1" />
      <stop
         style="stop-color:#95bee3;stop-opacity:1"
         offset="1"
         id="stop3754" />
    </linearGradient>
    <linearGradient
       id="linearGradient3803">
      <stop
         id="stop3805"
         offset="0"
         style="stop-color:#d7def0;stop-opacity:1;" />
      <stop
         style="stop-color:#ffffff;stop-opacity:1"
         offset="0.5"
         id="stop3811" />
      <stop
         id="stop3807"
         offset="1"
         style="stop-color:#d5def0;stop-opacity:1" />
    </linearGradient>
    <linearGradient
       inkscape:collect="always"
       xlink:href="#linearGradient3795"
       id="linearGradient3801"
       x1="23.204165"
       y1="1053.158"
       x2="23.204165"
       y2="1004.8474"
       gradientUnits="userSpaceOnUse"
       gradientTransform="translate(0,-2056.7244)" />
    <linearGradient
       inkscape:collect="always"
       xlink:href="#linearGradient3795"
       id="linearGradient3859"
       x1="26.192217"
       y1="1024.0002"
       x2="28.641211"
       y2="1024.0002"
       gradientUnits="userSpaceOnUse" />
    <linearGradient
       inkscape:collect="always"
       xlink:href="#linearGradient3795"
       id="linearGradient3867"
       gradientUnits="userSpaceOnUse"
       x1="26.192217"
       y1="1024.0002"
       x2="28.641211"
       y2="1024.0002" />
    <linearGradient
       inkscape:collect="always"
       xlink:href="#linearGradient3795"
       id="linearGradient3869"
       gradientUnits="userSpaceOnUse"
       x1="26.192217"
       y1="1024.0002"
       x2="28.641211"
       y2="1024.0002" />
    <linearGradient
       inkscape:collect="always"
       xlink:href="#linearGradient3795"
       id="linearGradient3871"
       gradientUnits="userSpaceOnUse"
       x1="26.192217"
       y1="1024.0002"
       x2="28.641211"
       y2="1024.0002" />
    <linearGradient
       inkscape:collect="always"
       xlink:href="#linearGradient3795"
       id="linearGradient3877"
       gradientUnits="userSpaceOnUse"
       x1="29.718235"
       y1="1027.8575"
       x2="22.811094"
       y2="1015.5485" />
    <linearGradient
       inkscape:collect="always"
       xlink:href="#linearGradient3795"
       id="linearGradient3879"
       gradientUnits="userSpaceOnUse"
       x1="17.196316"
       y1="1006.2238"
       x2="31.448042"
       y2="1030.9086" />
    <linearGradient
       inkscape:collect="always"
       xlink:href="#linearGradient3795"
       id="linearGradient3895"
       x1="21.973417"
       y1="34.43922"
       x2="42.475323"
       y2="24.798252"
       gradientUnits="userSpaceOnUse" />
    <linearGradient
       id="linearGradient3763">
      <stop
         id="stop3765"
         offset="0"
         style="stop-color:#ffffff;stop-opacity:1;" />
      <stop
         id="stop3767"
         offset="1"
         style="stop-color:#c1c1c1;stop-opacity:1;" />
    </linearGradient>
    <radialGradient
       inkscape:collect="always"
       xlink:href="#linearGradient3763"
       id="radialGradient3808"
       gradientUnits="userSpaceOnUse"
       gradientTransform="matrix(1.2003753,0,0,0.78690063,-3.3299724,3.3016891)"
       cx="22.767857"
       cy="26.303572"
       fx="22.767857"
       fy="26.303572"
       r="20.267857" />
    <linearGradient
       inkscape:collect="always"
       xlink:href="#linearGradient3827"
       id="linearGradient3825"
       x1="63.67313"
       y1="1041.9884"
       x2="63.67313"
       y2="1006.2715"
       gradientUnits="userSpaceOnUse"
       gradientTransform="translate(-0.37500035,2.8749999)" />
    <linearGradient
       inkscape:collect="always"
       xlink:href="#linearGradient3795"
       id="linearGradient3839"
       x1="55.672497"
       y1="1024.8722"
       x2="70.176575"
       y2="1024.8722"
       gradientUnits="userSpaceOnUse"
       gradientTransform="translate(-0.37500035,2.8749999)" />
    <linearGradient
       inkscape:collect="always"
       xlink:href="#linearGradient3795"
       id="linearGradient3960"
       x1="-38.500118"
       y1="935.18793"
       x2="-38.500118"
       y2="1097.2395"
       gradientUnits="userSpaceOnUse"
       gradientTransform="matrix(0,-0.46208232,0.46208232,0,-445.92782,979.1379)" />
    <linearGradient
       inkscape:collect="always"
       xlink:href="#linearGradient3970"
       id="linearGradient3968"
       x1="-38.500118"
       y1="935.18793"
       x2="-38.500118"
       y2="1097.2395"
       gradientUnits="userSpaceOnUse"
       gradientTransform="matrix(0,-0.46208232,0.46208232,0,-445.92782,979.1379)" />
    <radialGradient
       inkscape:collect="always"
       xlink:href="#linearGradient3763"
       id="radialGradient3980"
       gradientUnits="userSpaceOnUse"
       gradientTransform="matrix(1.2003753,0,0,0.78690063,-3.3299724,3.3016891)"
       cx="22.767857"
       cy="26.303572"
       fx="22.767857"
       fy="26.303572"
       r="20.267857" />
    <linearGradient
       inkscape:collect="always"
       xlink:href="#linearGradient3795"
       id="linearGradient3996"
       x1="85.990807"
       y1="1008.1664"
       x2="138.94048"
       y2="1008.1664"
       gradientUnits="userSpaceOnUse"
       gradientTransform="matrix(-0.09218395,-0.34403519,0.34403519,-0.09218395,-310.10775,1156.1242)" />
    <radialGradient
       inkscape:collect="always"
       xlink:href="#linearGradient3763"
       id="radialGradient4001"
       gradientUnits="userSpaceOnUse"
       gradientTransform="matrix(1.2003753,0,0,0.78690063,6.0842407,1006.2497)"
       cx="22.767857"
       cy="26.303572"
       fx="22.767857"
       fy="26.303572"
       r="20.267857" />
    <linearGradient
       inkscape:collect="always"
       xlink:href="#linearGradient3795"
       id="linearGradient4004"
       gradientUnits="userSpaceOnUse"
       gradientTransform="matrix(-0.09218395,-0.34403519,0.34403519,-0.09218395,-310.10775,154.762)"
       x1="85.990807"
       y1="1008.1664"
       x2="138.94048"
       y2="1008.1664" />
  </defs>
  <sodipodi:namedview
     id="base"
     pagecolor="#ffffff"
     bordercolor="#666666"
     borderopacity="1.0"
     inkscape:pageopacity="0.0"
     inkscape:pageshadow="2"
     inkscape:zoom="8.0000004"
     inkscape:cx="50.234838"
     inkscape:cy="21.275534"
     inkscape:document-units="px"
     inkscape:current-layer="layer1"
     showgrid="true"
     inkscape:window-width="1366"
     inkscape:window-height="709"
     inkscape:window-x="0"
     inkscape:window-y="27"
     inkscape:window-maximized="1">
    <inkscape:grid
       type="xygrid"
       id="grid3850" />
  </sodipodi:namedview>
  <metadata
     id="metadata7">
    <rdf:RDF>
      <cc:Work
         rdf:about="">
        <dc:format>image/svg+xml</dc:format>
        <dc:type
           rdf:resource="http://purl.org/dc/dcmitype/StillImage" />
        <dc:title />
      </cc:Work>
    </rdf:RDF>
  </metadata>
  <g
     inkscape:label="Capa 1"
     inkscape:groupmode="layer"
     id="layer1"
     transform="translate(0,-1004.3622)">
    <rect
       style="fill:url(#linearGradient3801);fill-opacity:1;stroke:none"
       id="rect2991"
       width="48"
       height="48"
       x="0"
       y="-1052.3622"
       ry="1.9445436"
       transform="scale(1,-1)" />
    <path
       style="font-size:medium;font-style:normal;font-variant:normal;font-weight:normal;font-stretch:normal;text-indent:0;text-align:start;text-decoration:none;line-height:normal;letter-spacing:normal;word-spacing:normal;text-transform:none;direction:ltr;block-progression:tb;writing-mode:lr-tb;text-anchor:start;baseline-shift:baseline;color:#000000;fill:#ffffff;fill-opacity:1;stroke:none;stroke-width:1;marker:none;visibility:visible;display:inline;overflow:visible;enable-background:accumulate;font-family:Sans;-inkscape-font-specification:Sans"
       d="m 24,1012.375 c -8.830635,0 -16,7.1694 -16,16 0,8.8307 7.169369,16 16,16 8.830631,0 16,-7.1693 16,-16 0,-8.8306 -7.169365,-16 -16,-16 z m 0,2.9872 c 7,0 13,6 13,13 0,7 -6,13 -13,13 -7,0 -13,-6 -13,-13 0,-7 6,-13 13,-13 z m 0,10.5128 c -1.377277,0 -2.5,1.1227 -2.5,2.5 0,1.3774 1.122753,2.5 2.5,2.5 1.377247,0 2.5,-1.1226 2.5,-2.5 0,-1.3773 -1.122723,-2.5 -2.5,-2.5 z m 0,1 c 0.845355,0 1.5,0.6547 1.5,1.5 0,0.8454 -0.654615,1.5 -1.5,1.5 -0.845385,0 -1.5,-0.6546 -1.5,-1.5 0,-0.8453 0.654645,-1.5 1.5,-1.5 z"
       id="path3031"
       inkscape:connector-curvature="0"
       sodipodi:nodetypes="ssssssssssssssssssss" />
    <path
       style="fill:#ffffff;fill-opacity:1;stroke:none"
       d="m 9,1032.3622 c 0,0 -1.346711,-0.454 1.049855,-2.8651 2.396565,-2.411 2.382114,-7.2187 2.382114,-7.2187 0,0 2.411016,2.3966 1.934593,3.8403 -0.476422,1.4438 -0.476422,1.4438 -0.476422,1.4438 0,0 1.920142,-0.9673 2.396565,-2.411 0.476424,-1.4437 -0.490873,-3.364 -0.01444,-4.8076 0.476424,-1.4437 2.872989,-3.8548 2.872989,-3.8548 0,0 -0.476423,1.4437 0.490874,3.3639 0.967295,1.9201 2.411015,2.3965 1.458169,5.2841 -0.952845,2.8873 -0.952845,2.8873 -0.952845,2.8873 0,0 2.396565,-2.4109 2.872988,-3.8547 C 23.490862,1022.726 23,1019.3622 23,1019.3622 c 0,0 3.854734,2.8729 3.378311,4.3166 -0.476422,1.4438 -0.476422,1.4438 -0.476422,1.4438 0,0 1.920142,-0.9674 2.396565,-2.411 0.476423,-1.4437 0.967296,1.9201 0.490874,3.3638 -0.476423,1.4438 0,0 0,0 l -0.476423,1.4438 c 0,0 1.920142,-0.9674 2.396565,-2.411 0.476423,-1.4439 0.952846,-2.8875 0.952846,-2.8875 0,0 0.967296,1.9201 0.490873,3.3638 -0.476422,1.4438 1.44372,0.4764 1.920143,-0.9672 0.476423,-1.4437 0.952845,-2.8875 0.952845,-2.8875 0,0 2.411017,2.3966 1.934594,3.8402 -0.476423,1.4439 1.086383,3.6797 2.039229,0.7922 0,-3 -3.411779,-10.8019 -9,-12 -1,0 -8.810303,-5.2331 -16,2 -7.1896967,7.233 -4.9174218,11.2148 -4.9174218,11.2148 z"
       id="path3809"
       inkscape:connector-curvature="0"
       sodipodi:nodetypes="cscscsscsscscscssccscsscsccscc" />
    <path
       inkscape:connector-curvature="0"
       style="opacity:0.15;fill:#ffffff;fill-opacity:1;stroke:none"
       d="m 2,1004.3622 c -1.108,0 -2,0.892 -2,2 l 0,44 c 0,1.108 0.892,2 2,2 l 14.78125,0 12.84375,-48 -27.625,0 z"
       id="rect3790" />
  </g>
</svg>
