<?xml version="1.0" encoding="UTF-8" standalone="no"?>
<!-- Created with Inkscape (http://www.inkscape.org/) -->

<svg
   xmlns:dc="http://purl.org/dc/elements/1.1/"
   xmlns:cc="http://creativecommons.org/ns#"
   xmlns:rdf="http://www.w3.org/1999/02/22-rdf-syntax-ns#"
   xmlns:svg="http://www.w3.org/2000/svg"
   xmlns="http://www.w3.org/2000/svg"
   xmlns:xlink="http://www.w3.org/1999/xlink"
   xmlns:sodipodi="http://sodipodi.sourceforge.net/DTD/sodipodi-0.dtd"
   xmlns:inkscape="http://www.inkscape.org/namespaces/inkscape"
   width="48"
   height="48"
   id="svg944"
   version="1.1"
   inkscape:version="0.48.3.1 r9886"
   sodipodi:docname="comix.svg">
  <defs
     id="defs946">
    <linearGradient
       id="linearGradient1528">
      <stop
         id="stop1530"
         offset="0"
         style="stop-color:#9ee48f;stop-opacity:1" />
      <stop
         id="stop1532"
         offset="1"
         style="stop-color:#4c9726;stop-opacity:1" />
    </linearGradient>
    <linearGradient
       y2="1049.5842"
       x2="24.113745"
       y1="1007.2183"
       x1="24.113745"
       gradientTransform="matrix(0.96799712,0,0,1.0252613,0.76812014,-25.977808)"
       gradientUnits="userSpaceOnUse"
       id="linearGradient3030"
       xlink:href="#linearGradient3795"
       inkscape:collect="always" />
    <linearGradient
       id="linearGradient3795">
      <stop
         style="stop-color:#68b8d8;stop-opacity:1;"
         offset="0"
         id="stop3797" />
      <stop
         style="stop-color:#3097bd;stop-opacity:1;"
         offset="1"
         id="stop3799" />
    </linearGradient>
    <linearGradient
       x1="-128"
       y1="64"
       x2="-67.417709"
       y2="38.740906"
       id="linearGradient4357"
       xlink:href="#linearGradient4335"
       gradientUnits="userSpaceOnUse"
       gradientTransform="matrix(0.706098,0,0,0.706098,130.63254,20.2435)" />
    <linearGradient
       id="linearGradient4335">
      <stop
         id="stop4337"
         style="stop-color:#000000;stop-opacity:1"
         offset="0" />
      <stop
         id="stop4339"
         style="stop-color:#19007b;stop-opacity:0.84705883"
         offset="1" />
    </linearGradient>
    <linearGradient
       inkscape:collect="always"
       xlink:href="#linearGradient3795-5"
       id="linearGradient3801"
       x1="23.204165"
       y1="1053.158"
       x2="23.204165"
       y2="1004.8474"
       gradientUnits="userSpaceOnUse"
       gradientTransform="translate(0,-2056.7244)" />
    <linearGradient
       id="linearGradient3795-5">
      <stop
         style="stop-color:#2c89a0;stop-opacity:1;"
         offset="0"
         id="stop3797-0" />
      <stop
         style="stop-color:#2c89a0;stop-opacity:1;"
         offset="1"
         id="stop3799-0" />
    </linearGradient>
    <linearGradient
       y2="1004.8474"
       x2="23.204165"
       y1="1053.158"
       x1="23.204165"
       gradientTransform="translate(1640.5564,-1416.7093)"
       gradientUnits="userSpaceOnUse"
       id="linearGradient900"
       xlink:href="#linearGradient1528"
       inkscape:collect="always" />
  </defs>
  <sodipodi:namedview
     id="base"
     pagecolor="#ffffff"
     bordercolor="#666666"
     borderopacity="1.0"
     inkscape:pageopacity="0.0"
     inkscape:pageshadow="2"
     inkscape:zoom="5.6568543"
     inkscape:cx="21.123777"
     inkscape:cy="28.303063"
     inkscape:document-units="px"
     inkscape:current-layer="layer1"
     showgrid="false"
     width="0px"
     height="0px"
     fit-margin-top="0"
     fit-margin-left="0"
     fit-margin-right="0"
     fit-margin-bottom="0"
     inkscape:window-width="1016"
     inkscape:window-height="672"
     inkscape:window-x="262"
     inkscape:window-y="22"
     inkscape:window-maximized="0" />
  <metadata
     id="metadata949">
    <rdf:RDF>
      <cc:Work
         rdf:about="">
        <dc:format>image/svg+xml</dc:format>
        <dc:type
           rdf:resource="http://purl.org/dc/dcmitype/StillImage" />
        <dc:title />
      </cc:Work>
    </rdf:RDF>
  </metadata>
  <g
     inkscape:label="Capa 1"
     inkscape:groupmode="layer"
     id="layer1"
     transform="translate(-1640.5564,-364.34714)">
    <rect
       style="fill:url(#linearGradient900);fill-opacity:1.0;stroke:none"
       id="rect2991"
       width="48"
       height="48"
       x="1640.5564"
       y="-412.34714"
       ry="1.9445436"
       transform="scale(1,-1)" />
    <rect
       style="fill:none;stroke:none"
       id="rect1526"
       width="48"
       height="48"
       x="1640.5564"
       y="364.34714"
       ry="0" />
    <g
       id="g1789"
       transform="matrix(0.86028839,0,0,0.86028839,232.46376,52.674108)">
      <path
         id="path1683"
         transform="translate(1640.5564,364.34714)"
         d="m 24,9.25 c -0.5258,0 -1.02345,0.03975 -1.53125,0.09375 C 22.06525,9.38665 21.6495,9.43615 21.25,9.5 l 0,0.03125 c -1.2985,0.22473 -2.5648,0.56749 -3.75,1.0625 -2.0702,0.86463 -3.63405,1.73977 -5.21875,3.28125 0.4766,0.92996 1.4009,2.56491 2,3.34375 l -4.625,0 c -0.9952,1.42538 -1.6473,2.55811 -2.1875,4.25 -0.5405,1.69189 -0.84375,3.50542 -0.84375,5.375 0,8.69581 6.3331,15.92423 14.625,17.34375 l 0,0.03125 c 0.3875,0.061 0.7935,0.0889 1.1875,0.125 0.5193,0.0476 1.0293,0.09375 1.5625,0.09375 0.074,9.2e-4 0.14435,0 0.21875,0 0.5346,0 1.07305,-0.04595 1.59375,-0.09375 0.3926,-0.0361 0.77015,-0.0642 1.15625,-0.125 l 0,-0.03125 c 8.2968,-1.41542 14.625,-8.64444 14.625,-17.34375 0,-1.86958 -0.30345,-3.68311 -0.84375,-5.375 -0.5403,-1.69189 -1.1925,-2.82462 -2.1875,-4.25 l -4.625,0 c 0.5991,-0.77884 1.5233,-2.41379 2,-3.34375 -1.5847,-1.54148 -3.14865,-2.41662 -5.21875,-3.28125 -1.1853,-0.49501 -2.4515,-0.83777 -3.75,-1.0625 l 0,-0.03125 C 26.56015,9.4347 26.1628,9.38704 25.75,9.34375 25.2511,9.29145 24.73495,9.25 24.21875,9.25 24.14475,9.24907 24.0743,9.25 24,9.25 z m -9.46875,15.6875 c 1.415651,0 2.5625,1.146849 2.5625,2.5625 0,1.415651 -1.146849,2.5625 -2.5625,2.5625 -1.415651,0 -2.5625,-1.146849 -2.5625,-2.5625 0,-1.415651 1.146849,-2.5625 2.5625,-2.5625 z m 19.15625,0 c 1.415651,0 2.5625,1.146849 2.5625,2.5625 0,1.415651 -1.146849,2.5625 -2.5625,2.5625 -1.415651,0 -2.5625,-1.146849 -2.5625,-2.5625 0,-1.415651 1.146849,-2.5625 2.5625,-2.5625 z m -22.3125,8.78125 9.875,0 5.71875,0 9.875,0 0,0.53125 -2.1875,0 c -0.035,1.84639 -1.30445,2.84419 -2.46875,3.9375 -1.178,-1.25799 -1.81805,-2.61595 -1.40625,-3.9375 l -3.8125,0 -5.71875,0 -3.8125,0 c 0.4118,1.32155 -0.22845,2.67951 -1.40625,3.9375 C 14.86695,37.09419 13.5975,36.09639 13.5625,34.25 l -2.1875,0 0,-0.53125 z"
         style="fill:#ffffff;fill-opacity:1;stroke:none"
         inkscape:connector-curvature="0" />
      <path
         sodipodi:nodetypes="cccc"
         inkscape:connector-curvature="0"
         id="path1713"
         d="m 1675.3024,381.1186 c 1.6012,-2.08161 2.0521,-3.99255 5.1654,-9.53038 1.282,1.3691 1.6035,7.12252 -1.4154,9.53038 z"
         style="fill:#ffffff;stroke:none" />
      <path
         style="fill:#ffffff;stroke:none"
         d="m 1653.8104,381.1186 c -1.6012,-2.08161 -2.0521,-3.99255 -5.1654,-9.53038 -1.282,1.3691 -1.6035,7.12252 1.4154,9.53038 z"
         id="path1717"
         inkscape:connector-curvature="0"
         sodipodi:nodetypes="cccc" />
    </g>
    <path
       inkscape:connector-curvature="0"
       style="opacity:0.15;fill:#ffffff;fill-opacity:1;stroke:none"
       d="m 1640.5564,364.34714 0,48 16.7813,0 12.8437,-48 -29.625,0 z"
       id="rect3790" />
  </g>
</svg>
