<?xml version="1.0" encoding="UTF-8" standalone="no"?>
<!-- Created with Inkscape (http://www.inkscape.org/) -->

<svg
   xmlns:dc="http://purl.org/dc/elements/1.1/"
   xmlns:cc="http://creativecommons.org/ns#"
   xmlns:rdf="http://www.w3.org/1999/02/22-rdf-syntax-ns#"
   xmlns:svg="http://www.w3.org/2000/svg"
   xmlns="http://www.w3.org/2000/svg"
   xmlns:xlink="http://www.w3.org/1999/xlink"
   xmlns:sodipodi="http://sodipodi.sourceforge.net/DTD/sodipodi-0.dtd"
   xmlns:inkscape="http://www.inkscape.org/namespaces/inkscape"
   width="48"
   height="48.000011"
   id="svg1604"
   version="1.1"
   inkscape:version="0.48.3.1 r9886"
   sodipodi:docname="DC++.svg">
  <defs
     id="defs1606">
    <linearGradient
       id="linearGradient2192">
      <stop
         id="stop2194"
         offset="0"
         style="stop-color:#9dd762;stop-opacity:1" />
      <stop
         id="stop2196"
         offset="1"
         style="stop-color:#5eae28;stop-opacity:1" />
    </linearGradient>
    <linearGradient
       inkscape:collect="always"
       xlink:href="#linearGradient3795"
       id="linearGradient3801"
       x1="23.204165"
       y1="1053.158"
       x2="23.204165"
       y2="1004.8474"
       gradientUnits="userSpaceOnUse"
       gradientTransform="translate(0,-2056.7244)" />
    <linearGradient
       id="linearGradient3795">
      <stop
         style="stop-color:#68b8d8;stop-opacity:1;"
         offset="0"
         id="stop3797" />
      <stop
         style="stop-color:#3097bd;stop-opacity:1;"
         offset="1"
         id="stop3799" />
    </linearGradient>
    <linearGradient
       y2="1004.8474"
       x2="23.204165"
       y1="1053.158"
       x1="23.204165"
       gradientTransform="translate(2273.1429,-1972.1529)"
       gradientUnits="userSpaceOnUse"
       id="linearGradient2169"
       xlink:href="#linearGradient2192"
       inkscape:collect="always" />
  </defs>
  <sodipodi:namedview
     id="base"
     pagecolor="#ffffff"
     bordercolor="#666666"
     borderopacity="1.0"
     inkscape:pageopacity="0.0"
     inkscape:pageshadow="2"
     inkscape:zoom="9.8994949"
     inkscape:cx="16.393677"
     inkscape:cy="23.434222"
     inkscape:document-units="px"
     inkscape:current-layer="layer1"
     showgrid="false"
     width="0px"
     height="0px"
     fit-margin-top="0"
     fit-margin-left="0"
     fit-margin-right="0"
     fit-margin-bottom="0"
     inkscape:window-width="1280"
     inkscape:window-height="721"
     inkscape:window-x="0"
     inkscape:window-y="22"
     inkscape:window-maximized="1" />
  <metadata
     id="metadata1609">
    <rdf:RDF>
      <cc:Work
         rdf:about="">
        <dc:format>image/svg+xml</dc:format>
        <dc:type
           rdf:resource="http://purl.org/dc/dcmitype/StillImage" />
        <dc:title />
        <cc:license
           rdf:resource="" />
      </cc:Work>
    </rdf:RDF>
  </metadata>
  <g
     inkscape:label="Capa 1"
     inkscape:groupmode="layer"
     id="layer1"
     transform="translate(-2273.1428,-919.79076)">
    <rect
       style="fill:url(#linearGradient2169);fill-opacity:1;stroke:none"
       id="rect2991"
       width="48"
       height="48"
       x="2273.1428"
       y="-967.79077"
       ry="1.9445436"
       transform="scale(1,-1)" />
    <path
       inkscape:connector-curvature="0"
       style="opacity:0.15;fill:#ffffff;fill-opacity:1;stroke:none"
       d="m 2273.1429,919.79076 0,48 16.7812,0 12.8438,-48 -29.625,0 z"
       id="rect3790" />
    <g
       id="g3898"
       transform="matrix(0.76003981,0,0,0.76003981,549.89889,226.27298)">
      <g
         transform="translate(4.3436566,-0.90913715)"
         id="g3891">
        <path
           inkscape:connector-curvature="0"
           style="font-size:medium;font-style:normal;font-variant:normal;font-weight:normal;font-stretch:normal;text-indent:0;text-align:start;text-decoration:none;line-height:normal;letter-spacing:normal;word-spacing:normal;text-transform:none;direction:ltr;block-progression:tb;writing-mode:lr-tb;text-anchor:start;baseline-shift:baseline;color:#000000;fill:#ffffff;fill-opacity:1;stroke:none;stroke-width:2;marker:none;visibility:visible;display:inline;overflow:visible;enable-background:accumulate;font-family:Sans;-inkscape-font-specification:Sans"
           d="m 16.65625,10.28125 c -4.8404,0 -8.8125,3.94088 -8.8125,8.78125 0,3.105904 1.7366017,5.719578 4.1875,7.28125 0.07645,-0.08205 0.108009,-0.202147 0.1875,-0.28125 0.415909,-0.413877 0.977716,-0.643538 1.46875,-0.96875 -2.254653,-1.102167 -3.84375,-3.349941 -3.84375,-6.03125 0,-3.75949 3.053,-6.78125 6.8125,-6.78125 3.7594,0 6.78125,3.02176 6.78125,6.78125 0,2.002337 -0.880711,3.761295 -2.25,5 0.209202,0.07053 0.454378,0.03944 0.65625,0.125 0.455055,0.192872 0.806521,0.548841 1.21875,0.8125 1.452368,-1.567329 2.375,-3.638324 2.375,-5.9375 0,-4.84037 -3.94095,-8.78125 -8.78125,-8.78125 z"
           id="path2999"
           transform="translate(2273.1428,919.79076)" />
        <path
           inkscape:connector-curvature="0"
           style="fill:#ffffff;fill-opacity:1;stroke:#ffffff;stroke-width:2.63144112;stroke-miterlimit:4;stroke-opacity:1;stroke-dasharray:none"
           d="m 29,16.65625 c -4.299931,0 -7.78125,3.481319 -7.78125,7.78125 0,0.232491 0.105042,0.428941 0.125,0.65625 0.03906,0.01578 0.08626,0.01486 0.125,0.03125 0.93147,0.393979 1.764281,0.951781 2.46875,1.65625 0.704469,0.704469 1.262271,1.53728 1.65625,2.46875 0.308949,0.730438 0.427782,1.550771 0.5,2.375 0.900042,0.36348 1.875981,0.59375 2.90625,0.59375 4.299931,0 7.78125,-3.481319 7.78125,-7.78125 0,-4.299931 -3.481319,-7.78125 -7.78125,-7.78125 z"
           id="path2999-6"
           transform="translate(2273.1428,919.79076)" />
        <path
           transform="translate(2274.9285,933.00505)"
           sodipodi:type="arc"
           style="fill:none;stroke:#ffffff;stroke-width:2.63144112;stroke-miterlimit:4;stroke-opacity:1;stroke-dasharray:none"
           id="path2999-9"
           sodipodi:cx="16.642857"
           sodipodi:cy="19.07144"
           sodipodi:rx="7.7857141"
           sodipodi:ry="7.7857141"
           d="m 24.428571,19.07144 c 0,4.299931 -3.485783,7.785714 -7.785714,7.785714 -4.299932,0 -7.7857146,-3.485783 -7.7857146,-7.785714 0,-4.299931 3.4857826,-7.785714 7.7857146,-7.785714 4.299931,0 7.785714,3.485783 7.785714,7.785714 z" />
      </g>
      <path
         transform="translate(2274.8936,920.85213)"
         d="m 44.042652,23.200766 c 0,11.074153 -8.977375,20.051529 -20.051529,20.051529 -11.074153,0 -20.0515287,-8.977376 -20.0515287,-20.051529 0,-11.074154 8.9773757,-20.0515293 20.0515287,-20.0515293 11.074154,0 20.051529,8.9773753 20.051529,20.0515293 z"
         sodipodi:ry="20.051529"
         sodipodi:rx="20.051529"
         sodipodi:cy="23.200766"
         sodipodi:cx="23.991123"
         id="path3896"
         style="fill:none;stroke:#ffffff;stroke-width:2.63144112;stroke-linecap:round;stroke-linejoin:round;stroke-miterlimit:4;stroke-opacity:1;stroke-dasharray:none"
         sodipodi:type="arc" />
    </g>
  </g>
</svg>
