<?xml version="1.0" encoding="UTF-8" standalone="no"?>
<!-- Created with Inkscape (http://www.inkscape.org/) -->

<svg
   xmlns:dc="http://purl.org/dc/elements/1.1/"
   xmlns:cc="http://creativecommons.org/ns#"
   xmlns:rdf="http://www.w3.org/1999/02/22-rdf-syntax-ns#"
   xmlns:svg="http://www.w3.org/2000/svg"
   xmlns="http://www.w3.org/2000/svg"
   xmlns:xlink="http://www.w3.org/1999/xlink"
   xmlns:sodipodi="http://sodipodi.sourceforge.net/DTD/sodipodi-0.dtd"
   xmlns:inkscape="http://www.inkscape.org/namespaces/inkscape"
   width="48"
   height="48"
   id="svg3066"
   version="1.1"
   inkscape:version="0.48.3.1 r9886"
   sodipodi:docname="desktop-effects.svg">
  <defs
     id="defs3068">
    <linearGradient
       id="linearGradient3879">
      <stop
         style="stop-color:#dbdbdb;stop-opacity:1;"
         offset="0"
         id="stop3881" />
      <stop
         style="stop-color:#a6a6a6;stop-opacity:1;"
         offset="1"
         id="stop3883" />
    </linearGradient>
    <linearGradient
       inkscape:collect="always"
       xlink:href="#linearGradient3795"
       id="linearGradient4079"
       gradientUnits="userSpaceOnUse"
       x1="23.204165"
       y1="1053.158"
       x2="23.204165"
       y2="1004.8474" />
    <linearGradient
       id="linearGradient3795">
      <stop
         style="stop-color:#c9c9c9;stop-opacity:1;"
         offset="0"
         id="stop3797" />
      <stop
         style="stop-color:#efefef;stop-opacity:1;"
         offset="1"
         id="stop3799" />
    </linearGradient>
    <linearGradient
       y2="1007.8653"
       x2="23.204165"
       y1="1053.158"
       x1="23.204165"
       gradientUnits="userSpaceOnUse"
       id="linearGradient3064"
       xlink:href="#linearGradient3881"
       inkscape:collect="always"
       gradientTransform="translate(0,2.9e-5)" />
    <radialGradient
       inkscape:collect="always"
       xlink:href="#linearGradient3879"
       id="radialGradient3885"
       cx="24"
       cy="1028.3622"
       fx="24"
       fy="1028.3622"
       r="18.056477"
       gradientTransform="matrix(1.4551505,0,0,1.088849,-10.923612,-91.368974)"
       gradientUnits="userSpaceOnUse" />
    <linearGradient
       inkscape:collect="always"
       xlink:href="#linearGradient3795"
       id="linearGradient3891"
       gradientUnits="userSpaceOnUse"
       gradientTransform="translate(-80.685935,-1004.3622)"
       x1="23.204165"
       y1="1053.158"
       x2="23.204165"
       y2="1037.6692" />
    <radialGradient
       inkscape:collect="always"
       xlink:href="#linearGradient3879"
       id="radialGradient3897"
       gradientUnits="userSpaceOnUse"
       gradientTransform="matrix(1.4551505,0,0,1.088849,-91.609552,-91.369007)"
       cx="24"
       cy="1028.3622"
       fx="24"
       fy="1028.3622"
       r="18.056477" />
    <linearGradient
       inkscape:collect="always"
       xlink:href="#linearGradient3881"
       id="linearGradient3801"
       x1="23.204165"
       y1="1053.158"
       x2="23.204165"
       y2="1004.8474"
       gradientUnits="userSpaceOnUse"
       gradientTransform="translate(0.08838834,8.6914063e-6)" />
    <linearGradient
       id="linearGradient3881">
      <stop
         style="stop-color:#474845;stop-opacity:1;"
         offset="0"
         id="stop3883-7" />
      <stop
         style="stop-color:#838681;stop-opacity:1"
         offset="1"
         id="stop3885" />
    </linearGradient>
  </defs>
  <sodipodi:namedview
     id="base"
     pagecolor="#ffffff"
     bordercolor="#666666"
     borderopacity="1.0"
     inkscape:pageopacity="0.0"
     inkscape:pageshadow="2"
     inkscape:zoom="11.2"
     inkscape:cx="23.581924"
     inkscape:cy="26.565044"
     inkscape:document-units="px"
     inkscape:current-layer="layer1"
     showgrid="true"
     inkscape:window-width="1366"
     inkscape:window-height="709"
     inkscape:window-x="0"
     inkscape:window-y="27"
     inkscape:window-maximized="1">
    <inkscape:grid
       type="xygrid"
       id="grid3789" />
  </sodipodi:namedview>
  <metadata
     id="metadata3071">
    <rdf:RDF>
      <cc:Work
         rdf:about="">
        <dc:format>image/svg+xml</dc:format>
        <dc:type
           rdf:resource="http://purl.org/dc/dcmitype/StillImage" />
        <dc:title />
      </cc:Work>
    </rdf:RDF>
  </metadata>
  <g
     inkscape:label="Capa 1"
     inkscape:groupmode="layer"
     id="layer1"
     transform="translate(0,-1004.3622)">
    <path
       style="fill:url(#linearGradient3064);fill-opacity:1;stroke:none"
       d="m 1.9375,1004.3622 c -1.07728,0 -1.9375,0.8602 -1.9375,1.9375 l 0,44.125 c 0,1.0773 0.86022,1.9375 1.9375,1.9375 l 44.125,0 c 1.07727,0 1.9375,-0.8602 1.9375,-1.9375 l 0,-44.125 c 0,-1.0773 -0.86023,-1.9375 -1.9375,-1.9375 z"
       id="rect4069"
       inkscape:connector-curvature="0"
       sodipodi:nodetypes="sssssssss" />
    <path
       style="font-size:medium;font-style:normal;font-variant:normal;font-weight:normal;font-stretch:normal;text-indent:0;text-align:start;text-decoration:none;line-height:normal;letter-spacing:normal;word-spacing:normal;text-transform:none;direction:ltr;block-progression:tb;writing-mode:lr-tb;text-anchor:start;baseline-shift:baseline;color:#000000;fill:#ffffff;fill-opacity:1;stroke:none;stroke-width:1;marker:none;visibility:visible;display:inline;overflow:visible;enable-background:accumulate;font-family:Sans;-inkscape-font-specification:Sans"
       d="m 8.9683036,1013.287 c -0.8362059,0.8337 -1.3888575,1.6498 -0.5550164,2.4859 l 28.0626138,28.1435 c 0.833842,0.8363 1.866801,0.5021 2.703008,-0.3317 0.836204,-0.8337 1.173391,-1.8658 0.33955,-2.702 l -28.062613,-28.1436 c -0.833841,-0.8363 -1.6513363,-0.2859 -2.4875424,0.5479 z m 5.3469224,5.3623 c 0.427968,-0.4267 0.828882,-0.69 1.255748,-0.2619 l 23.186825,23.2538 c 0.426726,0.4278 0.09063,0.7562 -0.337335,1.1829 -0.427968,0.4268 -0.760633,0.7584 -1.183926,0.334 l -23.186825,-23.2539 c -0.426726,-0.4278 -0.162452,-0.8282 0.265517,-1.2549 z"
       id="rect3002"
       inkscape:connector-curvature="0"
       sodipodi:nodetypes="ssssssssssssss" />
    <path
       style="fill:#ffffff;stroke:none;stroke-width:1px;stroke-linecap:butt;stroke-linejoin:miter;stroke-opacity:1;fill-opacity:1"
       d="m 16,25 -1,3 -3,1 3,1 1,3 1,-3 3,-1 -3,-1 z"
       id="path3776"
       inkscape:connector-curvature="0"
       transform="translate(0,1004.3622)" />
    <path
       style="fill:#ffffff;fill-opacity:1;stroke:none"
       d="m 33.5,1012.8622 -1.5,4.5 -4.5,1.5 4.5,1.5 1.5,4.5 1.5,-4.5 4.5,-1.5 -4.5,-1.5 z"
       id="path3776-4"
       inkscape:connector-curvature="0" />
    <path
       style="fill:#ffffff;fill-opacity:1;stroke:none"
       d="m 21,1012.3622 -1,3 -3,1 3,1 1,3 1,-3 3,-1 -3,-1 z"
       id="path3776-0"
       inkscape:connector-curvature="0" />
    <path
       inkscape:connector-curvature="0"
       style="opacity:0.15;fill:#ffffff;fill-opacity:1;stroke:none"
       d="m 2,1004.3622 c -1.108,0 -2,0.892 -2,2 l 0,44 c 0,1.108 0.892,2 2,2 l 14.78125,0 12.84375,-48 -27.625,0 z"
       id="rect3790" />
  </g>
</svg>
