<?xml version="1.0" encoding="UTF-8" standalone="no"?>
<!-- Created with Inkscape (http://www.inkscape.org/) -->

<svg
   xmlns:dc="http://purl.org/dc/elements/1.1/"
   xmlns:cc="http://creativecommons.org/ns#"
   xmlns:rdf="http://www.w3.org/1999/02/22-rdf-syntax-ns#"
   xmlns:svg="http://www.w3.org/2000/svg"
   xmlns="http://www.w3.org/2000/svg"
   xmlns:xlink="http://www.w3.org/1999/xlink"
   xmlns:sodipodi="http://sodipodi.sourceforge.net/DTD/sodipodi-0.dtd"
   xmlns:inkscape="http://www.inkscape.org/namespaces/inkscape"
   width="48"
   height="48"
   id="svg2"
   version="1.1"
   inkscape:version="0.48.3.1 r9886"
   sodipodi:docname="desura.svg">
  <defs
     id="defs4">
    <linearGradient
       id="linearGradient3795">
      <stop
         style="stop-color:#2497ea;stop-opacity:1;"
         offset="0"
         id="stop3797" />
      <stop
         style="stop-color:#116dad;stop-opacity:1;"
         offset="1"
         id="stop3799" />
    </linearGradient>
    <linearGradient
       id="linearGradient3698">
      <stop
         id="stop3700"
         offset="0"
         style="stop-color:#96d0e1;stop-opacity:1" />
      <stop
         style="stop-color:#89b7e1;stop-opacity:1"
         offset="0.67819428"
         id="stop3706" />
      <stop
         id="stop3702"
         offset="1"
         style="stop-color:#699dd3;stop-opacity:1" />
    </linearGradient>
    <linearGradient
       id="linearGradient3708">
      <stop
         id="stop3710"
         offset="0"
         style="stop-color:#658db6;stop-opacity:1" />
      <stop
         style="stop-color:#527fab;stop-opacity:1;"
         offset="0.76777935"
         id="stop3716" />
      <stop
         id="stop3712"
         offset="1"
         style="stop-color:#4071a0;stop-opacity:1" />
    </linearGradient>
    <linearGradient
       id="linearGradient3750">
      <stop
         style="stop-color:#d0e2f1;stop-opacity:1"
         offset="0"
         id="stop3752" />
      <stop
         id="stop3756"
         offset="0.85580856"
         style="stop-color:#cadef0;stop-opacity:1" />
      <stop
         style="stop-color:#95bee3;stop-opacity:1"
         offset="1"
         id="stop3754" />
    </linearGradient>
    <linearGradient
       id="linearGradient3803">
      <stop
         id="stop3805"
         offset="0"
         style="stop-color:#d7def0;stop-opacity:1;" />
      <stop
         style="stop-color:#ffffff;stop-opacity:1"
         offset="0.5"
         id="stop3811" />
      <stop
         id="stop3807"
         offset="1"
         style="stop-color:#d5def0;stop-opacity:1" />
    </linearGradient>
    <linearGradient
       inkscape:collect="always"
       xlink:href="#linearGradient3795"
       id="linearGradient3801"
       x1="23.204165"
       y1="1053.158"
       x2="23.204165"
       y2="1004.8474"
       gradientUnits="userSpaceOnUse"
       gradientTransform="translate(0,-2056.7244)" />
    <linearGradient
       inkscape:collect="always"
       xlink:href="#linearGradient3795"
       id="linearGradient3859"
       x1="26.192217"
       y1="1024.0002"
       x2="28.641211"
       y2="1024.0002"
       gradientUnits="userSpaceOnUse" />
    <linearGradient
       inkscape:collect="always"
       xlink:href="#linearGradient3795"
       id="linearGradient3867"
       gradientUnits="userSpaceOnUse"
       x1="26.192217"
       y1="1024.0002"
       x2="28.641211"
       y2="1024.0002" />
    <linearGradient
       inkscape:collect="always"
       xlink:href="#linearGradient3795"
       id="linearGradient3869"
       gradientUnits="userSpaceOnUse"
       x1="26.192217"
       y1="1024.0002"
       x2="28.641211"
       y2="1024.0002" />
    <linearGradient
       inkscape:collect="always"
       xlink:href="#linearGradient3795"
       id="linearGradient3871"
       gradientUnits="userSpaceOnUse"
       x1="26.192217"
       y1="1024.0002"
       x2="28.641211"
       y2="1024.0002" />
    <linearGradient
       inkscape:collect="always"
       xlink:href="#linearGradient3795"
       id="linearGradient3877"
       gradientUnits="userSpaceOnUse"
       x1="29.718235"
       y1="1027.8575"
       x2="22.811094"
       y2="1015.5485" />
    <linearGradient
       inkscape:collect="always"
       xlink:href="#linearGradient3795"
       id="linearGradient3879"
       gradientUnits="userSpaceOnUse"
       x1="17.196316"
       y1="1006.2238"
       x2="31.448042"
       y2="1030.9086" />
    <linearGradient
       inkscape:collect="always"
       xlink:href="#linearGradient3795"
       id="linearGradient3895"
       x1="21.973417"
       y1="34.43922"
       x2="42.475323"
       y2="24.798252"
       gradientUnits="userSpaceOnUse" />
    <linearGradient
       id="linearGradient3013">
      <stop
         style="stop-color:#60b5cc;stop-opacity:1;"
         offset="0"
         id="stop3015" />
      <stop
         style="stop-color:#ffffff;stop-opacity:1;"
         offset="1"
         id="stop3017" />
    </linearGradient>
    <linearGradient
       id="linearGradient3013-3">
      <stop
         style="stop-color:#414141;stop-opacity:0;"
         offset="0"
         id="stop3015-0" />
      <stop
         style="stop-color:#ffffff;stop-opacity:1;"
         offset="1"
         id="stop3017-7" />
    </linearGradient>
    <linearGradient
       inkscape:collect="always"
       xlink:href="#linearGradient3013-3"
       id="linearGradient6002"
       gradientUnits="userSpaceOnUse"
       gradientTransform="matrix(-1.001916,0,0,1,-560.92501,142.24199)"
       x1="136.74812"
       y1="89.953423"
       x2="175.71454"
       y2="165.946" />
    <linearGradient
       id="linearGradient3021">
      <stop
         style="stop-color:#60b5cc;stop-opacity:1;"
         offset="0"
         id="stop3023" />
      <stop
         style="stop-color:#ffffff;stop-opacity:1;"
         offset="1"
         id="stop3025" />
    </linearGradient>
    <linearGradient
       inkscape:collect="always"
       xlink:href="#linearGradient3013-3"
       id="linearGradient6004"
       gradientUnits="userSpaceOnUse"
       gradientTransform="matrix(1.001916,0,0,1,-927.00055,142.24199)"
       x1="136.74812"
       y1="89.953423"
       x2="175.71454"
       y2="165.946" />
    <linearGradient
       id="linearGradient3028">
      <stop
         style="stop-color:#60b5cc;stop-opacity:1;"
         offset="0"
         id="stop3030" />
      <stop
         style="stop-color:#ffffff;stop-opacity:1;"
         offset="1"
         id="stop3032" />
    </linearGradient>
    <linearGradient
       x1="116.29638"
       y1="32.374962"
       x2="116.29638"
       y2="226.17993"
       id="linearGradient2928"
       xlink:href="#linearGradient3202"
       gradientUnits="userSpaceOnUse"
       gradientTransform="matrix(0.32811093,0,0,0.34059034,6.3606404,3.973393)" />
    <linearGradient
       id="linearGradient3202">
      <stop
         id="stop3204"
         style="stop-color:#ffffff;stop-opacity:1"
         offset="0" />
      <stop
         id="stop3206"
         style="stop-color:#ced3d6;stop-opacity:1"
         offset="1" />
    </linearGradient>
    <linearGradient
       inkscape:collect="always"
       xlink:href="#linearGradient3899-9"
       id="linearGradient3075"
       gradientUnits="userSpaceOnUse"
       gradientTransform="matrix(0.0658217,0,0,0.0658217,13.852962,977.04244)"
       x1="251.56421"
       y1="625.38135"
       x2="251.56421"
       y2="989.64728" />
    <linearGradient
       id="linearGradient3899-9">
      <stop
         id="stop3901-3"
         style="stop-color:#fafafa;stop-opacity:1"
         offset="0" />
      <stop
         id="stop3903-0"
         style="stop-color:#e1e1e1;stop-opacity:1"
         offset="1" />
    </linearGradient>
    <linearGradient
       inkscape:collect="always"
       xlink:href="#linearGradient3795-4"
       id="linearGradient3150"
       gradientUnits="userSpaceOnUse"
       gradientTransform="matrix(0.96799712,0,0,1.0252613,0.76814895,-25.978139)"
       x1="24.113745"
       y1="1049.2139"
       x2="24.113745"
       y2="1007.5135" />
    <linearGradient
       id="linearGradient3795-4">
      <stop
         style="stop-color:#000000;stop-opacity:1;"
         offset="0"
         id="stop3797-4" />
      <stop
         style="stop-color:#6d6d6d;stop-opacity:1;"
         offset="1"
         id="stop3799-9" />
    </linearGradient>
    <linearGradient
       y2="1007.5135"
       x2="24.113745"
       y1="1049.2139"
       x1="24.113745"
       gradientTransform="matrix(0.96799712,0,0,1.0252613,0.76814892,-2082.7029)"
       gradientUnits="userSpaceOnUse"
       id="linearGradient3154"
       xlink:href="#linearGradient3795"
       inkscape:collect="always" />
    <linearGradient
       inkscape:collect="always"
       xlink:href="#linearGradient3795-6"
       id="linearGradient3801-6"
       x1="23.204165"
       y1="1053.158"
       x2="23.204165"
       y2="1004.8474"
       gradientUnits="userSpaceOnUse"
       gradientTransform="translate(0,-2056.7244)" />
    <linearGradient
       id="linearGradient3795-6">
      <stop
         style="stop-color:#7dcdec;stop-opacity:1;"
         offset="0"
         id="stop3797-3" />
      <stop
         style="stop-color:#236a88;stop-opacity:1;"
         offset="1"
         id="stop3799-3" />
    </linearGradient>
    <linearGradient
       y2="1004.8474"
       x2="23.204165"
       y1="1053.158"
       x1="23.204165"
       gradientTransform="translate(-8.1365967e-8,-2056.7244)"
       gradientUnits="userSpaceOnUse"
       id="linearGradient3047"
       xlink:href="#linearGradient3795"
       inkscape:collect="always" />
  </defs>
  <sodipodi:namedview
     id="base"
     pagecolor="#ffffff"
     bordercolor="#666666"
     borderopacity="1.0"
     inkscape:pageopacity="0.0"
     inkscape:pageshadow="2"
     inkscape:zoom="11.313709"
     inkscape:cx="20.314361"
     inkscape:cy="28.537233"
     inkscape:document-units="px"
     inkscape:current-layer="layer1"
     showgrid="true"
     inkscape:window-width="888"
     inkscape:window-height="708"
     inkscape:window-x="0"
     inkscape:window-y="27"
     inkscape:window-maximized="0">
    <inkscape:grid
       type="xygrid"
       id="grid3850" />
  </sodipodi:namedview>
  <metadata
     id="metadata7">
    <rdf:RDF>
      <cc:Work
         rdf:about="">
        <dc:format>image/svg+xml</dc:format>
        <dc:type
           rdf:resource="http://purl.org/dc/dcmitype/StillImage" />
        <dc:title />
      </cc:Work>
    </rdf:RDF>
  </metadata>
  <g
     inkscape:label="Capa 1"
     inkscape:groupmode="layer"
     id="layer1"
     transform="translate(0,-1004.3622)">
    <rect
       style="fill:url(#linearGradient3047);fill-opacity:1.0;stroke:none"
       id="rect2991"
       width="48"
       height="48"
       x="0"
       y="-1052.3622"
       ry="1.9445436"
       transform="scale(1,-1)" />
    <path
       style="fill:#ffffff;fill-opacity:1;display:inline"
       id="path3033"
       inkscape:connector-curvature="0"
       d="m 24.017911,1015.8636 c -0.02863,-0.012 -1.360888,1.1066 -2.964265,2.5 -2.322314,2.0182 -2.959001,2.5362 -3.10712,2.5357 -0.102251,-2e-4 -1.749055,-0.1547 -3.678544,-0.3572 -1.929488,-0.2023 -3.520225,-0.3547 -3.535687,-0.3392 -0.03041,0.03 -2.6953688,8.8432 -2.7321228,9.0357 -0.01578,0.083 1.051038,1.0287 3.6606868,3.2499 l 3.678543,3.1249 1.32142,0 c 0.72412,0 1.449092,-0.029 1.624987,-0.053 l 0.321427,-0.035 -3.874971,-3.2142 c -2.132642,-1.7638 -3.872857,-3.2492 -3.874972,-3.3037 -0.0023,-0.054 0.360335,-1.1966 0.803566,-2.5535 0.443231,-1.3567 0.884462,-2.7628 0.999993,-3.1249 0.208472,-0.6533 0.213946,-0.6632 0.428568,-0.6607 0.118951,0 1.531531,0.1592 3.124977,0.3571 l 2.892836,0.3572 2.26784,-1.9464 c 1.24734,-1.0776 2.34893,-2.0355 2.446411,-2.125 l 0.178569,-0.1607 1.785701,1.5356 c 0.979416,0.8475 2.075065,1.8055 2.446411,2.1251 l 0.678566,0.5714 3.089263,-0.3751 c 1.701313,-0.2101 3.096183,-0.3774 3.107118,-0.3571 0.03486,0.064 2.071415,6.3325 2.071415,6.3751 0,0.023 -1.752644,1.4925 -3.892828,3.2677 l -3.892829,3.2321 0.339284,0.035 c 0.181341,0.024 0.91077,0.051 1.624987,0.053 l 1.303562,0.017 3.660687,-3.1251 c 2.015162,-1.7127 3.668293,-3.1364 3.678544,-3.1785 0.01538,-0.063 -2.665911,-9.0944 -2.714266,-9.1428 -0.0084,-0.012 -1.605964,0.153 -3.553544,0.3573 -1.94758,0.2041 -3.614477,0.3675 -3.714258,0.3571 -0.127793,-0.013 -1.044964,-0.7583 -3.071405,-2.5179 -1.58232,-1.3739 -2.899929,-2.5077 -2.92855,-2.5178 z m -0.03572,5.4464 -1.642844,1.6607 -1.624988,1.6785 0,1.4466 c -0.0051,2.272 0.256495,4.2007 0.785708,5.8391 0.486534,1.5066 1.053941,2.5175 1.9107,3.375 0.287512,0.2878 0.538436,0.5178 0.571424,0.5178 0.132685,0 0.820521,-0.6777 1.178563,-1.1606 0.532551,-0.7184 0.979599,-1.6005 1.321419,-2.6429 0.554728,-1.6917 0.771816,-3.1667 0.821422,-5.607 l 0.03572,-1.768 -1.678558,-1.6785 -1.67856,-1.6607 z m 10.071354,3.3928 c -0.0168,-0.017 -0.971278,0.082 -2.124984,0.2144 -1.153706,0.1317 -2.139647,0.25 -2.178555,0.25 -0.04566,0 -0.07143,0.3106 -0.07143,0.875 0,2.9737 -1.070078,6.5585 -2.660694,8.9284 -0.368488,0.549 -0.404284,0.6528 -0.249998,0.5536 1.030191,-0.662 8.369583,-6.8706 8.339223,-7.0535 -0.03331,-0.2009 -1.022141,-3.7364 -1.053563,-3.7679 z m -20.106994,0.035 c -0.02765,0.029 -0.270798,0.9066 -0.553567,1.9463 l -0.517853,1.8752 0.17857,0.1785 c 1.723616,1.5092 6.453695,5.4705 7.571373,6.3392 0.387785,0.3013 0.721137,0.5288 0.732137,0.5179 0.01101,-0.012 -0.16809,-0.31 -0.410712,-0.6786 -1.557971,-2.3673 -2.492347,-5.4739 -2.642837,-8.7857 -0.02441,-0.537 -0.06738,-0.9643 -0.08928,-0.9643 -0.02189,0 -0.977193,-0.1186 -2.124984,-0.25 -1.147793,-0.1315 -2.115168,-0.2081 -2.142842,-0.1785 z m 6.196383,12.1785 -3.892828,0.017 3.874972,1.982 c 2.123817,1.0841 3.872868,1.9535 3.892828,1.9464 0.01994,-0.012 1.771907,-0.8872 3.892828,-1.9642 l 3.857114,-1.9642 -3.874971,-0.017 c -2.131596,-0.012 -5.616839,-0.012 -7.749943,0 z" />
    <path
       inkscape:connector-curvature="0"
       style="opacity:0.15;fill:#ffffff;fill-opacity:1;stroke:none"
       d="m 2,1004.3622 c -1.108,0 -2,0.892 -2,2 l 0,44 c 0,1.108 0.892,2 2,2 l 14.78125,0 12.84375,-48 -27.625,0 z"
       id="rect3790" />
  </g>
</svg>
