<?xml version="1.0" encoding="UTF-8" standalone="no"?>
<!-- Created with Inkscape (http://www.inkscape.org/) -->

<svg
   xmlns:dc="http://purl.org/dc/elements/1.1/"
   xmlns:cc="http://creativecommons.org/ns#"
   xmlns:rdf="http://www.w3.org/1999/02/22-rdf-syntax-ns#"
   xmlns:svg="http://www.w3.org/2000/svg"
   xmlns="http://www.w3.org/2000/svg"
   xmlns:xlink="http://www.w3.org/1999/xlink"
   xmlns:sodipodi="http://sodipodi.sourceforge.net/DTD/sodipodi-0.dtd"
   xmlns:inkscape="http://www.inkscape.org/namespaces/inkscape"
   width="48"
   height="48"
   id="svg2"
   version="1.1"
   inkscape:version="0.48.3.1 r9886"
   sodipodi:docname="firefox-3.0.svg">
  <defs
     id="defs4">
    <linearGradient
       id="linearGradient3795">
      <stop
         style="stop-color:#bf4b17;stop-opacity:1;"
         offset="0"
         id="stop3797" />
      <stop
         style="stop-color:#e1aa59;stop-opacity:1;"
         offset="1"
         id="stop3799" />
    </linearGradient>
    <linearGradient
       inkscape:collect="always"
       id="linearGradient3914">
      <stop
         style="stop-color:#59b3e1;stop-opacity:1;"
         offset="0"
         id="stop3916" />
      <stop
         style="stop-color:#59b3e1;stop-opacity:0;"
         offset="1"
         id="stop3918" />
    </linearGradient>
    <linearGradient
       id="linearGradient3698">
      <stop
         id="stop3700"
         offset="0"
         style="stop-color:#96d0e1;stop-opacity:1" />
      <stop
         style="stop-color:#89b7e1;stop-opacity:1"
         offset="0.67819428"
         id="stop3706" />
      <stop
         id="stop3702"
         offset="1"
         style="stop-color:#699dd3;stop-opacity:1" />
    </linearGradient>
    <linearGradient
       id="linearGradient3708">
      <stop
         id="stop3710"
         offset="0"
         style="stop-color:#658db6;stop-opacity:1" />
      <stop
         style="stop-color:#527fab;stop-opacity:1;"
         offset="0.76777935"
         id="stop3716" />
      <stop
         id="stop3712"
         offset="1"
         style="stop-color:#4071a0;stop-opacity:1" />
    </linearGradient>
    <linearGradient
       id="linearGradient3750">
      <stop
         style="stop-color:#d0e2f1;stop-opacity:1"
         offset="0"
         id="stop3752" />
      <stop
         id="stop3756"
         offset="0.85580856"
         style="stop-color:#cadef0;stop-opacity:1" />
      <stop
         style="stop-color:#95bee3;stop-opacity:1"
         offset="1"
         id="stop3754" />
    </linearGradient>
    <linearGradient
       id="linearGradient3803">
      <stop
         id="stop3805"
         offset="0"
         style="stop-color:#d7def0;stop-opacity:1;" />
      <stop
         style="stop-color:#ffffff;stop-opacity:1"
         offset="0.5"
         id="stop3811" />
      <stop
         id="stop3807"
         offset="1"
         style="stop-color:#d5def0;stop-opacity:1" />
    </linearGradient>
    <linearGradient
       inkscape:collect="always"
       xlink:href="#linearGradient3914"
       id="linearGradient3920"
       x1="6.8000002"
       y1="25.0625"
       x2="45.325001"
       y2="25.0625"
       gradientUnits="userSpaceOnUse" />
    <linearGradient
       inkscape:collect="always"
       xlink:href="#linearGradient3795"
       id="linearGradient3801"
       x1="23.204165"
       y1="1053.158"
       x2="23.204165"
       y2="1004.8474"
       gradientUnits="userSpaceOnUse" />
  </defs>
  <sodipodi:namedview
     id="base"
     pagecolor="#ffffff"
     bordercolor="#666666"
     borderopacity="1.0"
     inkscape:pageopacity="0.0"
     inkscape:pageshadow="2"
     inkscape:zoom="11.313709"
     inkscape:cx="39.429474"
     inkscape:cy="24.4954"
     inkscape:document-units="px"
     inkscape:current-layer="layer1"
     showgrid="true"
     inkscape:window-width="1366"
     inkscape:window-height="709"
     inkscape:window-x="0"
     inkscape:window-y="27"
     inkscape:window-maximized="1">
    <inkscape:grid
       type="xygrid"
       id="grid3019" />
  </sodipodi:namedview>
  <metadata
     id="metadata7">
    <rdf:RDF>
      <cc:Work
         rdf:about="">
        <dc:format>image/svg+xml</dc:format>
        <dc:type
           rdf:resource="http://purl.org/dc/dcmitype/StillImage" />
        <dc:title />
      </cc:Work>
    </rdf:RDF>
  </metadata>
  <g
     inkscape:label="Capa 1"
     inkscape:groupmode="layer"
     id="layer1"
     transform="translate(0,-1004.3622)">
    <rect
       style="fill:url(#linearGradient3801);fill-opacity:1;stroke:none"
       id="rect2991"
       width="48"
       height="48"
       x="0"
       y="1004.3622"
       ry="1.9445436" />
    <g
       id="g3789"
       transform="translate(-0.71352952,0.48347822)">
      <g
         transform="translate(0.37499994,0)"
         style="stroke:#ffffff"
         id="g3812">
        <path
           style="fill:none;stroke:#ffffff;stroke-width:0.41220227"
           d="m 20.976674,1039.6568 c -2.121498,-0.7502 -4.680725,-2.373 -6.15744,-3.9041 -1.397169,-1.4485 -2.64803,-3.694 -3.098113,-5.5612 -0.180189,-0.7476 -0.241674,-0.8821 -0.403347,-0.8821 -0.177923,0 -0.192574,-0.072 -0.21778,-1.0789 -0.01489,-0.5935 0.0094,-1.3509 0.05394,-1.6833 0.06494,-0.4846 0.05615,-0.5947 -0.04451,-0.556 -0.467895,0.1795 0.541659,-3.3811 1.257217,-4.4339 0.203648,-0.2999 0.238726,-0.4594 0.238726,-1.086 0,-0.8626 0.212611,-1.9732 0.480756,-2.5117 0.468522,-0.9409 0.737195,-1.3365 0.926709,-1.3647 0.169573,-0.025 0.215338,0.049 0.321003,0.5212 0.09975,0.4459 0.230652,0.6755 0.687182,1.206 0.45661,0.5305 0.602619,0.6443 0.767087,0.5976 0.435183,-0.1239 1.754989,-0.1657 2.253741,-0.07 l 0.524572,0.099 0.381511,-0.3708 c 0.59048,-0.5739 1.662869,-1.053 2.498449,-1.1162 0.953588,-0.071 0.996989,0.07 0.253941,0.8385 -0.520661,0.5377 -1.178677,1.5785 -1.178677,1.8644 0,0.069 0.160949,0.2928 0.357665,0.4978 l 0.357664,0.3723 1.287588,0.068 c 1.537358,0.082 1.673311,0.15 1.583974,0.8019 -0.08361,0.6099 -0.512747,1.0835 -1.522824,1.6804 -1.350895,0.7981 -1.252535,0.6679 -1.258854,1.6654 -0.0068,1.0627 -0.08348,1.1753 -0.60263,0.8836 -0.487089,-0.2738 -0.717988,-0.2636 -0.958672,0.041 -0.385686,0.4904 -0.216241,1.1683 0.439944,1.7604 0.523587,0.4725 0.961452,0.7146 1.532202,0.8474 0.574588,0.1338 1.139107,0.037 2.008034,-0.3484 1.088732,-0.4816 2.266976,-0.363 3.049496,0.3067 0.344461,0.295 0.402792,0.3983 0.402792,0.7133 0,0.4334 -0.07215,0.4908 -0.726733,0.5798 -0.383245,0.052 -0.681313,0.1946 -1.337691,0.64 -1.058519,0.7183 -1.807132,0.9806 -2.984427,1.0457 l -0.899953,0.049 0.280005,0.2326 c 0.384176,0.3192 0.758976,0.4691 1.376841,0.5506 0.288518,0.038 0.599682,0.109 0.691482,0.157 0.190685,0.1 0.222446,0.3329 0.05316,0.3891 -0.06257,0.021 0.16277,0.1166 0.500727,0.2123 1.122376,0.3188 2.821189,0.1674 3.347213,-0.2982 0.08666,-0.076 0.217952,-0.1258 0.291761,-0.1091 0.07381,0.016 0.352214,-0.1521 0.618683,-0.375 0.529684,-0.4432 0.791836,-0.5144 0.791836,-0.2147 0,0.5338 0.724372,-0.1639 1.215209,-1.1706 0.337936,-0.6932 0.676363,-1.7547 0.771556,-2.4201 0.07507,-0.5249 0.33642,-0.6889 0.48241,-0.3031 0.2038,0.539 0.320115,-1.6467 0.201376,-3.784 -0.04464,-0.8037 -0.03582,-0.8584 0.138212,-0.8584 0.108143,0 0.323116,0.1796 0.51395,0.4291 l 0.328052,0.4293 -0.06819,-0.6677 c -0.121505,-1.1896 -0.343623,-1.9832 -0.841082,-3.0043 -0.389517,-0.7997 -0.618859,-1.1333 -1.137794,-1.6551 -0.357465,-0.3596 -0.649935,-0.6923 -0.649935,-0.7393 0,-0.1966 0.690929,-0.067 1.282979,0.2425 l 0.629207,0.3281 -0.204441,-0.2872 c -0.603141,-0.8472 -2.131893,-2.2419 -2.934348,-2.6772 -0.336072,-0.1825 -0.401967,-0.4576 -0.109566,-0.4576 0.514506,0 3.278681,1.2922 3.48773,1.6305 0.127584,0.2063 0.210692,0.056 0.163533,-0.2952 -0.04205,-0.3136 -0.02272,-0.3815 0.108533,-0.3815 0.187079,0 1.030493,0.6109 1.433137,1.0381 0.154072,0.1634 0.351716,0.2972 0.439206,0.2972 0.187362,0 0.980983,0.819 1.386314,1.4307 0.707157,1.0671 0.971873,1.8968 1.058729,3.3187 0.04177,0.6839 0.0903,0.9518 0.159819,0.8822 0.35926,-0.3592 0.588308,0.4546 0.512937,1.8225 -0.03303,0.5991 -0.01604,0.9609 0.04684,0.9998 0.254341,0.1573 -0.203614,2.3112 -0.805546,3.7887 -0.386282,0.9483 -0.676984,1.4122 -1.555252,2.4813 -0.263855,0.3213 -0.557771,0.707 -0.653147,0.8572 l -0.173408,0.2733 0.310496,-0.1778 c 0.170775,-0.099 0.556265,-0.4031 0.856646,-0.6786 0.925663,-0.8488 1.113717,-0.5989 0.474379,0.6299 -0.463439,0.8908 -1.574485,2.0278 -2.753602,2.818 -0.438327,0.2938 -0.831106,0.5341 -0.872838,0.5341 -0.107408,0 -2.222686,0.8551 -2.284755,0.9236 -0.129299,0.1428 0.856391,-0.095 1.268965,-0.3059 0.550941,-0.2819 0.634993,-0.2903 0.634993,-0.064 0,0.3955 -1.128597,1.1589 -2.289046,1.5483 -0.83902,0.2814 -2.311276,0.5392 -3.552782,0.6219 -0.768792,0.051 -1.025305,0.1 -1.025305,0.1984 0,0.1791 -1.000794,0.1725 -1.970677,-0.014 -0.411154,-0.079 -0.758291,-0.143 -0.771404,-0.143 -0.01312,0 -0.02386,0.065 -0.02386,0.143 0,0.2151 -0.312433,0.1637 -1.452494,-0.2396 z m 3.646159,0.063 c 0,-0.098 0.285434,-0.1439 1.181154,-0.1918 1.349187,-0.072 2.87422,-0.3265 3.778444,-0.6304 0.580714,-0.1952 1.864077,-0.844 1.795516,-0.9077 -0.01707,-0.015 -0.288566,0.024 -0.603308,0.091 -0.314745,0.065 -0.77989,0.1499 -1.033664,0.1878 -0.413986,0.062 -0.457973,0.051 -0.428041,-0.1045 0.03426,-0.1778 1.421701,-0.8497 2.535068,-1.2277 1.308383,-0.4442 3.36068,-2.2052 3.993477,-3.427 l 0.347329,-0.6704 -0.370354,0.3483 c -0.758844,0.7136 -1.94407,1.3449 -1.94407,1.0354 0,-0.1045 0.391847,-0.6555 1.187521,-1.6699 1.011372,-1.2892 1.170811,-1.5449 1.550244,-2.4852 0.562152,-1.3933 0.985003,-3.1506 0.819544,-3.4061 -0.04183,-0.065 -0.07606,-0.6538 -0.07606,-1.3096 0,-1.308 -0.09831,-1.6864 -0.295982,-1.1392 -0.07322,0.2026 -0.121479,0.8749 -0.125956,1.7551 l -0.0072,1.4265 -0.353175,0.3618 c -0.404674,0.4145 -0.659329,0.4816 -0.557545,0.1471 0.690865,-2.2707 0.897444,-4.9558 0.494652,-6.4297 -0.160099,-0.5859 -0.47353,-1.2547 -0.864157,-1.8443 -0.404553,-0.6104 -1.198818,-1.4306 -1.385449,-1.4306 -0.08701,0 -0.306118,-0.1543 -0.486894,-0.3428 -0.180775,-0.1887 -0.51034,-0.4692 -0.732361,-0.6234 -0.60125,-0.4178 -0.423825,-0.095 0.468696,0.854 0.763531,0.8115 2.118382,2.757 2.230228,3.2026 0.09268,0.3694 -0.200825,0.3235 -0.399048,-0.062 -1.032864,-2.0098 -3.363195,-4.1403 -5.3064,-4.8513 l -0.500248,-0.1831 0.381505,0.3101 c 0.81358,0.6609 1.619427,1.4911 2.201932,2.2683 0.854436,1.1402 0.818374,1.3253 -0.132718,0.6815 -0.548677,-0.3714 -1.101685,-0.6815 -1.215654,-0.6815 -0.03409,0 0.152617,0.2348 0.414927,0.5218 0.595533,0.6517 1.379999,2.225 1.591116,3.1912 0.08516,0.3897 0.180512,1.1301 0.211898,1.6453 0.06656,1.0926 -0.03895,1.2073 -0.475365,0.5165 -0.145845,-0.2308 -0.329807,-0.4734 -0.408806,-0.5389 -0.125804,-0.1045 -0.134554,-0.068 -0.07049,0.3007 0.12322,0.7074 0.08937,3.6082 -0.04915,4.2111 -0.145671,0.6341 -0.320836,0.7059 -0.46509,0.1909 l -0.100144,-0.3577 -0.01204,0.2993 c -0.01863,0.4629 -0.455838,1.8776 -0.799318,2.5864 -0.544516,1.1236 -1.383528,1.7901 -1.581075,1.2561 -0.06701,-0.1811 -0.129948,-0.1452 -0.750296,0.4292 -0.676242,0.6261 -0.887191,0.7438 -0.887191,0.495 0,-0.1102 -0.06671,-0.1079 -0.405352,0.013 -0.270685,0.098 -0.753904,0.145 -1.454497,0.1444 -0.875957,0 -1.179031,-0.043 -1.836001,-0.256 -0.508662,-0.1647 -0.786858,-0.304 -0.786858,-0.3938 0,-0.077 0.09506,-0.1437 0.214597,-0.1495 0.193516,-0.012 -0.03496,-0.065 -0.949705,-0.2279 -0.346152,-0.062 -1.267807,-0.748 -1.267807,-0.9435 0,-0.096 0.245379,-0.1402 0.977612,-0.1755 1.257632,-0.061 1.968748,-0.3033 3.062081,-1.0453 0.656378,-0.4454 0.954447,-0.5881 1.337691,-0.64 0.589688,-0.08 0.726734,-0.1533 0.726734,-0.3891 0,-0.2737 -0.74483,-0.8495 -1.312387,-1.0145 -0.594828,-0.1729 -1.072414,-0.1174 -1.817609,0.2118 -1.510277,0.6667 -2.72415,0.5017 -3.862531,-0.5254 -0.489971,-0.4422 -0.637617,-0.7605 -0.637617,-1.3742 0,-0.3835 0.05262,-0.5834 0.2042,-0.7761 0.180355,-0.2294 0.25554,-0.2551 0.643793,-0.2205 0.241774,0.022 0.509586,0.071 0.595135,0.109 0.225269,0.1021 0.349209,-0.3365 0.296154,-1.0479 -0.05013,-0.6723 -0.107741,-0.6092 1.327049,-1.455 0.834804,-0.4922 1.337481,-0.9971 1.448355,-1.4547 0.108441,-0.4473 -0.124592,-0.5394 -1.55801,-0.6152 l -1.287583,-0.069 -0.357664,-0.3724 c -0.266381,-0.2774 -0.357664,-0.4531 -0.357664,-0.6883 0,-0.4457 0.527281,-1.3781 1.143408,-2.022 l 0.52346,-0.547 -0.546238,0.065 c -0.701132,0.083 -1.811221,0.6202 -2.329475,1.1285 l -0.398138,0.3905 -0.777486,-0.121 c -0.632782,-0.097 -0.939302,-0.097 -1.64689,0.012 l -0.869405,0.1248 -0.55407,-0.6127 c -0.354213,-0.3915 -0.589693,-0.7501 -0.652833,-0.9939 -0.200886,-0.7761 -0.226279,-0.7939 -0.465817,-0.3276 -0.119485,0.2327 -0.316192,0.6007 -0.437124,0.8181 -0.288806,0.5192 -0.52416,1.6853 -0.52416,2.5973 0,0.6224 -0.03536,0.7827 -0.238728,1.0819 -0.262944,0.387 -0.844799,1.7735 -1.005497,2.396 -0.05633,0.2182 -0.124201,0.4719 -0.15084,0.5637 -0.03149,0.1079 0.0038,0.1668 0.10105,0.1668 0.181851,0 0.181884,0.08 3.83e-4,0.8107 -0.0819,0.3293 -0.157638,1.1797 -0.178381,2.0029 -0.01983,0.7869 -0.01616,1.2482 0.0081,1.0253 0.05455,-0.5002 0.319293,-0.5793 0.319482,-0.095 1.94e-4,0.5942 0.478168,2.2768 0.941883,3.316 0.576081,1.291 1.499192,2.677 2.416391,3.6279 1.343846,1.3935 3.907158,3.0712 5.7376,3.7554 0.771663,0.2887 0.727818,0.2826 0.727818,0.101 0,-0.1702 0.0425,-0.1739 0.477516,-0.042 0.537873,0.1629 2.023661,0.4546 2.359944,0.4633 0.200347,0.012 0.309975,-0.038 0.309975,-0.1205 z m 3.094712,-6.4607 c -0.03071,-0.049 -0.09649,-0.065 -0.146176,-0.034 -0.04969,0.03 -0.06521,0.098 -0.0345,0.1462 0.03071,0.049 0.09648,0.065 0.146179,0.034 0.04969,-0.031 0.06522,-0.096 0.0345,-0.1461 z m -16.190962,-4.6415 c -0.02399,-0.092 -0.04362,-0.016 -0.04362,0.167 0,0.1835 0.01963,0.2587 0.04362,0.1669 0.02399,-0.092 0.02399,-0.242 0,-0.3339 z m 25.190788,-1.9273 -0.02939,-0.5043 -0.152639,0.6862 c -0.150189,0.6753 -0.14972,0.6834 0.02939,0.5043 0.142721,-0.1427 0.175669,-0.2909 0.152634,-0.6862 z m 0.08407,-1.9831 c -0.02399,-0.092 -0.04362,-0.016 -0.04362,0.1669 0,0.1835 0.01962,0.2587 0.04362,0.1669 0.02399,-0.092 0.02399,-0.2419 0,-0.3338 z m -3.022428,-6.0609 c 0,-0.016 -0.182406,-0.198 -0.405351,-0.4054 l -0.405352,-0.3771 0.377021,0.4055 c 0.350623,0.377 0.433682,0.4492 0.433682,0.377 z"
           id="path3030"
           inkscape:connector-curvature="0" />
      </g>
      <path
         sodipodi:nodetypes="cccccccccccccccccccccccccccccccccccccccccccccccccccccsccccccccccccccccccccccccccccccc"
         transform="translate(0,1004.3622)"
         inkscape:connector-curvature="0"
         id="path3787"
         d="m 21.345785,27.317128 2.452776,-0.265165 2.607456,-1.259534 0.994369,-0.508233 -0.243068,-0.90598 -1.789864,-0.508233 -1.878252,0.7513 -1.988738,-0.110485 -1.480504,-1.458408 -0.176777,-1.082757 0.486136,-0.397747 1.126951,0.243068 0.15468,-1.767767 1.811961,-1.259534 0.861786,-1.082757 -0.06629,-0.662913 -1.635185,-0.198874 -1.104854,-0.220971 -0.817592,-0.928077 0.486136,-0.950175 0.861786,-1.06066 0.132583,-0.574524 -2.055029,0.751301 -0.751301,0.817592 -1.370019,0.176777 -2.165515,-0.176777 -0.662912,-0.729204 -0.707107,-1.237437 -0.331456,0.0221 -1.038563,2.276 0,1.458408 -0.950175,2.231806 -0.751301,1.679378 0.132583,2.474874 0.309359,1.745669 c 0,0 0.640815,1.701476 0.685009,1.789864 0.0442,0.08839 1.657282,3.380854 1.657282,3.380854 l 1.149048,1.436311 1.436311,1.480505 1.414213,0.883883 3.822796,1.878252 c 0.386317,0.03799 0.881019,0.188533 0.751301,-0.309359 l 1.723573,0.309359 2.275999,-0.265165 3.137787,-0.464038 1.767766,-1.016466 1.21534,-1.21534 2.850524,-2.408582 0.883884,-1.613088 -1.756719,1.033039 0.187826,-0.988844 1.237436,-1.126952 1.325826,-2.872621 c 0,0 0.353553,-1.370019 0.353553,-1.502602 0,-0.132582 -0.08839,-1.657281 -0.08839,-1.657281 l -0.30936,-1.613087 -0.419844,-0.950175 -0.08839,-2.187612 -0.486136,-1.104854 -1.325825,-1.370019 -1.259534,-0.905981 -0.928077,-0.397747 -1.524699,-0.397748 -0.950175,-0.53033 -1.016466,-0.464039 -0.353553,-0.04419 2.474874,2.055029 0.7513,1.193243 -1.546796,-0.397748 1.568894,1.834058 0.574524,1.834058 0.287262,2.055029 0,0.707107 -0.972272,-0.950175 0.132583,1.347923 -0.132583,3.292465 -0.464039,-0.198873 -0.707106,1.347922 -1.082758,2.452776 -0.773398,0.08839 -1.259533,0.839689 -3.11569,0.198874 -0.931408,-0.568052 -2.714611,-1.221812 z"
         style="fill:#ffffff;stroke:none" />
    </g>
    <path
       inkscape:connector-curvature="0"
       style="opacity:0.15;fill:#ffffff;fill-opacity:1;stroke:none"
       d="M 2.0000001,1004.3622 C 0.892,1004.3622 0,1005.2542 0,1006.3622 l 0,44 c 0,1.108 0.892,2 2.0000001,2 l 14.7812499,0 12.84375,-48 -27.6249999,0 z"
       id="rect3790" />
  </g>
</svg>
