<?xml version="1.0" encoding="UTF-8" standalone="no"?>
<!-- Created with Inkscape (http://www.inkscape.org/) -->

<svg
   xmlns:dc="http://purl.org/dc/elements/1.1/"
   xmlns:cc="http://creativecommons.org/ns#"
   xmlns:rdf="http://www.w3.org/1999/02/22-rdf-syntax-ns#"
   xmlns:svg="http://www.w3.org/2000/svg"
   xmlns="http://www.w3.org/2000/svg"
   xmlns:xlink="http://www.w3.org/1999/xlink"
   xmlns:sodipodi="http://sodipodi.sourceforge.net/DTD/sodipodi-0.dtd"
   xmlns:inkscape="http://www.inkscape.org/namespaces/inkscape"
   width="48"
   height="48"
   id="svg2"
   version="1.1"
   inkscape:version="0.48.2 r9819"
   sodipodi:docname="flash.svg">
  <defs
     id="defs4">
    <linearGradient
       id="linearGradient3795">
      <stop
         style="stop-color:#9f1e25;stop-opacity:1;"
         offset="0"
         id="stop3797" />
      <stop
         style="stop-color:#e16459;stop-opacity:1;"
         offset="1"
         id="stop3799" />
    </linearGradient>
    <linearGradient
       inkscape:collect="always"
       id="linearGradient3914">
      <stop
         style="stop-color:#59b3e1;stop-opacity:1;"
         offset="0"
         id="stop3916" />
      <stop
         style="stop-color:#59b3e1;stop-opacity:0;"
         offset="1"
         id="stop3918" />
    </linearGradient>
    <linearGradient
       id="linearGradient3698">
      <stop
         id="stop3700"
         offset="0"
         style="stop-color:#96d0e1;stop-opacity:1" />
      <stop
         style="stop-color:#89b7e1;stop-opacity:1"
         offset="0.67819428"
         id="stop3706" />
      <stop
         id="stop3702"
         offset="1"
         style="stop-color:#699dd3;stop-opacity:1" />
    </linearGradient>
    <linearGradient
       id="linearGradient3708">
      <stop
         style="stop-color:#2d6aa6;stop-opacity:1;"
         offset="0"
         id="stop3716" />
      <stop
         id="stop3712"
         offset="1"
         style="stop-color:#1c7ddb;stop-opacity:1;" />
    </linearGradient>
    <linearGradient
       id="linearGradient3750">
      <stop
         style="stop-color:#d0e2f1;stop-opacity:1"
         offset="0"
         id="stop3752" />
      <stop
         id="stop3756"
         offset="0.85580856"
         style="stop-color:#cadef0;stop-opacity:1" />
      <stop
         style="stop-color:#95bee3;stop-opacity:1"
         offset="1"
         id="stop3754" />
    </linearGradient>
    <linearGradient
       id="linearGradient3803">
      <stop
         id="stop3805"
         offset="0"
         style="stop-color:#d7def0;stop-opacity:1;" />
      <stop
         style="stop-color:#ffffff;stop-opacity:1"
         offset="0.5"
         id="stop3811" />
      <stop
         id="stop3807"
         offset="1"
         style="stop-color:#d5def0;stop-opacity:1" />
    </linearGradient>
    <linearGradient
       inkscape:collect="always"
       xlink:href="#linearGradient3914"
       id="linearGradient3920"
       x1="6.8000002"
       y1="25.0625"
       x2="45.325001"
       y2="25.0625"
       gradientUnits="userSpaceOnUse" />
    <linearGradient
       inkscape:collect="always"
       xlink:href="#linearGradient3708"
       id="linearGradient3801"
       x1="23.204165"
       y1="1053.158"
       x2="23.204165"
       y2="1004.8474"
       gradientUnits="userSpaceOnUse" />
    <linearGradient
       x1="62.336792"
       y1="79.015236"
       x2="62.336792"
       y2="12.797539"
       id="linearGradient2936"
       xlink:href="#linearGradient3694"
       gradientUnits="userSpaceOnUse"
       gradientTransform="matrix(0.87485882,0,0,0.90698611,2.762671,6.33428)" />
    <linearGradient
       id="linearGradient3694">
      <stop
         id="stop3696"
         style="stop-color:#e6e6e6;stop-opacity:1"
         offset="0" />
      <stop
         id="stop3698"
         style="stop-color:#f5f5f5;stop-opacity:1"
         offset="1" />
    </linearGradient>
    <linearGradient
       x1="55"
       y1="18"
       x2="55"
       y2="112"
       id="linearGradient3831"
       xlink:href="#linearGradient3825"
       gradientUnits="userSpaceOnUse" />
    <linearGradient
       id="linearGradient3825">
      <stop
         id="stop3827"
         style="stop-color:#501616;stop-opacity:1"
         offset="0" />
      <stop
         id="stop3829"
         style="stop-color:#501616;stop-opacity:0"
         offset="1" />
    </linearGradient>
  </defs>
  <sodipodi:namedview
     id="base"
     pagecolor="#ffffff"
     bordercolor="#666666"
     borderopacity="1.0"
     inkscape:pageopacity="0.0"
     inkscape:pageshadow="2"
     inkscape:zoom="2.0000001"
     inkscape:cx="4.1834414"
     inkscape:cy="41.620661"
     inkscape:document-units="px"
     inkscape:current-layer="layer1"
     showgrid="false"
     inkscape:window-width="1280"
     inkscape:window-height="747"
     inkscape:window-x="0"
     inkscape:window-y="0"
     inkscape:window-maximized="1" />
  <metadata
     id="metadata7">
    <rdf:RDF>
      <cc:Work
         rdf:about="">
        <dc:format>image/svg+xml</dc:format>
        <dc:type
           rdf:resource="http://purl.org/dc/dcmitype/StillImage" />
        <dc:title></dc:title>
      </cc:Work>
    </rdf:RDF>
  </metadata>
  <g
     inkscape:label="Capa 1"
     inkscape:groupmode="layer"
     id="layer1"
     transform="translate(0,-1004.3622)">
    <rect
       style="fill:url(#linearGradient3801);fill-opacity:1.0;stroke:none"
       id="rect2991"
       width="48"
       height="48"
       x="0"
       y="1004.3622"
       ry="1.9445436" />
    <path
       style="fill:#ffffff;fill-rule:evenodd;stroke:none"
       id="path2181"
       inkscape:connector-curvature="0"
       d="m 17.238498,1018.329 c -0.416896,0.042 -0.750578,0.4809 -0.478986,0.9914 1.194346,2.4138 1.903371,4.1313 3.141258,6.7838 0.2234,-0.5075 0.357169,-0.8591 0.690631,-1.6152 -1.278439,-2.5236 -1.458261,-3.5872 -2.639993,-5.7367 -0.18893,-0.3213 -0.462771,-0.4484 -0.71291,-0.4233 z m 13.690091,0.089 c -0.260402,-0.012 -0.542358,0.1486 -0.71291,0.5458 -1.561046,3.4984 -4.432465,10.5771 -5.714415,13.4228 -0.729873,1.4836 0.575738,2.0771 1.069364,1.2587 1.652895,-3.4269 4.138631,-9.9937 5.948339,-14.1802 0.225105,-0.5557 -0.156378,-1.0279 -0.590378,-1.0471 z m -7.90884,4.5225 c -0.260401,-0.011 -0.520079,0.1486 -0.690631,0.5459 -1.561046,3.4983 -4.454745,10.5993 -5.736694,13.445 -0.729873,1.4836 0.562521,1.9141 1.12506,0.9579 1.652894,-3.4269 4.094074,-9.7151 5.903782,-13.9017 0.225105,-0.5557 -0.167516,-1.0279 -0.601517,-1.0471 z m 2.617714,0.6684 c -0.2604,-0.011 -0.520078,0.1263 -0.690631,0.5235 -1.561045,3.4983 -2.11551,5.2192 -3.397459,8.0648 -0.729873,1.4837 0.508903,1.9963 1.002529,0.9023 1.652894,-3.4269 1.877371,-4.257 3.687079,-8.4435 0.225105,-0.5558 -0.167517,-1.0279 -0.601518,-1.0471 z m 13.333637,0.4233 c -2.543156,0.6033 -4.583318,1.666 -6.884033,3.1189 -0.678629,-0.5329 -1.11684,-0.9732 -1.659743,-1.526 -0.176392,0.3249 -0.602535,1.218 -0.757466,1.4592 0.567757,0.5534 0.806783,0.887 1.258731,1.2142 -0.54377,0.3894 -0.538557,0.5133 -1.83797,1.6597 0.271451,0.5129 0.41918,1.0042 0.690631,1.5038 0.628842,-0.6757 1.094911,-1.218 2.450626,-2.1164 1.874918,0.9853 3.469205,2.016 6.739224,2.9185 l 0,-1.8492 c -1.546583,-0.4883 -3.806788,-1.1655 -5.213152,-2.1498 1.095228,-0.7715 2.570601,-1.5367 5.213152,-2.1499 l 0,-2.083 z m -29.9422,0.4678 0,1.76 c 1.554627,0.496 3.818494,1.2071 5.213151,2.1833 -1.095228,0.7715 -2.570602,1.5172 -5.213151,2.1276 l 0,2.1053 c 2.544535,-0.6047 4.605595,-1.6883 6.906311,-3.1413 0.678628,0.533 1.094561,0.9955 1.637464,1.5484 0.176392,-0.3249 0.613674,-1.2403 0.768605,-1.4815 -0.567757,-0.5534 -0.795644,-0.8647 -1.247591,-1.1919 0.543768,-0.3894 0.538555,-0.5133 1.837969,-1.6598 -0.271451,-0.5128 -0.41918,-1.0041 -0.690631,-1.5037 -0.628842,0.6757 -1.117189,1.218 -2.472904,2.1164 -1.853338,-0.974 -3.537038,-1.9696 -6.739223,-2.8628 z m 19.036911,5.7701 c -0.2234,0.5075 -0.379447,0.8368 -0.712909,1.5929 1.278438,2.5236 1.480539,3.6095 2.662271,5.759 0.503812,0.8569 1.626443,0.2486 1.191896,-0.5681 -1.194347,-2.4138 -1.90337,-4.1313 -3.141258,-6.7838 z" />
    <path
       style="fill:#ffffff;stroke:none;fill-opacity:1;opacity:0.15"
       d="M 0 0 L 0 48 L 16.78125 48 L 29.625 0 L 0 0 z "
       id="rect3790"
       transform="translate(0,1004.3622)" />
  </g>
</svg>
