<?xml version="1.0" encoding="UTF-8" standalone="no"?>
<!-- Created with Inkscape (http://www.inkscape.org/) -->

<svg
   xmlns:dc="http://purl.org/dc/elements/1.1/"
   xmlns:cc="http://creativecommons.org/ns#"
   xmlns:rdf="http://www.w3.org/1999/02/22-rdf-syntax-ns#"
   xmlns:svg="http://www.w3.org/2000/svg"
   xmlns="http://www.w3.org/2000/svg"
   xmlns:xlink="http://www.w3.org/1999/xlink"
   xmlns:sodipodi="http://sodipodi.sourceforge.net/DTD/sodipodi-0.dtd"
   xmlns:inkscape="http://www.inkscape.org/namespaces/inkscape"
   width="48"
   height="48"
   id="svg2"
   version="1.1"
   inkscape:version="0.48.4 r9939"
   sodipodi:docname="gimp.svg">
  <defs
     id="defs4">
    <linearGradient
       id="linearGradient3795">
      <stop
         style="stop-color:#a12e2e;stop-opacity:1;"
         offset="0"
         id="stop3797" />
      <stop
         style="stop-color:#eb68b6;stop-opacity:1;"
         offset="1"
         id="stop3799" />
    </linearGradient>
    <linearGradient
       inkscape:collect="always"
       id="linearGradient3914">
      <stop
         style="stop-color:#59b3e1;stop-opacity:1;"
         offset="0"
         id="stop3916" />
      <stop
         style="stop-color:#59b3e1;stop-opacity:0;"
         offset="1"
         id="stop3918" />
    </linearGradient>
    <linearGradient
       id="linearGradient3698">
      <stop
         id="stop3700"
         offset="0"
         style="stop-color:#96d0e1;stop-opacity:1" />
      <stop
         style="stop-color:#89b7e1;stop-opacity:1"
         offset="0.67819428"
         id="stop3706" />
      <stop
         id="stop3702"
         offset="1"
         style="stop-color:#699dd3;stop-opacity:1" />
    </linearGradient>
    <linearGradient
       id="linearGradient3708">
      <stop
         id="stop3710"
         offset="0"
         style="stop-color:#658db6;stop-opacity:1" />
      <stop
         style="stop-color:#527fab;stop-opacity:1;"
         offset="0.76777935"
         id="stop3716" />
      <stop
         id="stop3712"
         offset="1"
         style="stop-color:#4071a0;stop-opacity:1" />
    </linearGradient>
    <linearGradient
       id="linearGradient3750">
      <stop
         style="stop-color:#d0e2f1;stop-opacity:1"
         offset="0"
         id="stop3752" />
      <stop
         id="stop3756"
         offset="0.85580856"
         style="stop-color:#cadef0;stop-opacity:1" />
      <stop
         style="stop-color:#95bee3;stop-opacity:1"
         offset="1"
         id="stop3754" />
    </linearGradient>
    <linearGradient
       id="linearGradient3803">
      <stop
         id="stop3805"
         offset="0"
         style="stop-color:#d7def0;stop-opacity:1;" />
      <stop
         style="stop-color:#ffffff;stop-opacity:1"
         offset="0.5"
         id="stop3811" />
      <stop
         id="stop3807"
         offset="1"
         style="stop-color:#d5def0;stop-opacity:1" />
    </linearGradient>
    <linearGradient
       inkscape:collect="always"
       xlink:href="#linearGradient3914"
       id="linearGradient3920"
       x1="6.8000002"
       y1="25.0625"
       x2="45.325001"
       y2="25.0625"
       gradientUnits="userSpaceOnUse" />
    <linearGradient
       inkscape:collect="always"
       xlink:href="#linearGradient3795"
       id="linearGradient3801"
       x1="23.204165"
       y1="1053.158"
       x2="23.204165"
       y2="1004.8474"
       gradientUnits="userSpaceOnUse" />
  </defs>
  <sodipodi:namedview
     id="base"
     pagecolor="#ffffff"
     bordercolor="#666666"
     borderopacity="1.0"
     inkscape:pageopacity="0.0"
     inkscape:pageshadow="2"
     inkscape:zoom="8.0000004"
     inkscape:cx="13.780997"
     inkscape:cy="27.808947"
     inkscape:document-units="px"
     inkscape:current-layer="layer1"
     showgrid="false"
     inkscape:window-width="1366"
     inkscape:window-height="709"
     inkscape:window-x="0"
     inkscape:window-y="27"
     inkscape:window-maximized="1" />
  <metadata
     id="metadata7">
    <rdf:RDF>
      <cc:Work
         rdf:about="">
        <dc:format>image/svg+xml</dc:format>
        <dc:type
           rdf:resource="http://purl.org/dc/dcmitype/StillImage" />
        <dc:title />
      </cc:Work>
    </rdf:RDF>
  </metadata>
  <g
     inkscape:label="Capa 1"
     inkscape:groupmode="layer"
     id="layer1"
     transform="translate(0,-1004.3622)">
    <rect
       style="fill:url(#linearGradient3801);fill-opacity:1;stroke:none"
       id="rect2991"
       width="48"
       height="48"
       x="0"
       y="1004.3622"
       ry="1.9445436" />
    <path
       style="fill:#ffffff"
       d="m 23.272163,1042.1244 c -3.202835,-0.5993 -7.396496,-3.8171 -9.37528,-7.1936 -1.061782,-1.8117 -2.587572,-3.4659 -3.390642,-3.676 -3.5344014,-0.9243 -3.2589524,-7.3493 0.374293,-8.7306 5.315082,-2.0208 8.845267,3.9259 4.991995,8.4091 -1.027928,1.196 -0.992223,1.5213 0.368639,3.3585 5.341316,7.2106 15.258375,7.2048 19.658234,-0.013 1.202981,-1.973 1.48354,-3.7645 1.485803,-9.4872 l 0.0027,-7.0548 -2.985248,2.915 -2.985248,2.915 -2.88436,-2.8165 c -2.747385,-2.6828 -2.904529,-2.7394 -3.309097,-1.1923 -0.696026,2.6616 -2.389133,1.2843 -2.389133,-1.9434 0,-4.0692 1.927978,-4.2774 5.680091,-0.6136 l 2.902499,2.8342 2.902497,-2.8342 c 1.775848,-1.734 3.44158,-2.7286 4.291294,-2.562 1.257734,0.2464 1.388797,1.0806 1.388797,8.8398 0,7.7641 -0.175865,8.8818 -1.875164,11.9166 -2.745552,4.9037 -9.308943,7.9647 -14.852761,6.9275 z m -8.646685,-15.1274 c 0,-1.3678 -0.449084,-1.9295 -1.682539,-2.1046 -1.009222,-0.1435 -1.862486,0.2299 -2.132205,0.9328 -0.743079,1.9363 0.298437,3.5369 2.132205,3.2764 1.233455,-0.1751 1.682539,-0.7368 1.682539,-2.1046 z m 5.59734,0.7463 c 0,-0.4105 0.33584,-0.7463 0.746313,-0.7463 0.410471,0 0.746312,0.3358 0.746312,0.7463 0,0.4105 -0.335841,0.7463 -0.746312,0.7463 -0.410473,0 -0.746313,-0.3358 -0.746313,-0.7463 z m 7.463121,0 c 0,-0.4105 0.33584,-0.7463 0.746311,-0.7463 0.410473,0 0.746312,0.3358 0.746312,0.7463 0,0.4105 -0.335839,0.7463 -0.746312,0.7463 -0.410471,0 -0.746311,-0.3358 -0.746311,-0.7463 z"
       id="path3811"
       inkscape:connector-curvature="0" />
    <path
       inkscape:connector-curvature="0"
       style="opacity:0.15;fill:#ffffff;fill-opacity:1;stroke:none"
       d="m 2,1004.3622 c -1.108,0 -2,0.892 -2,2 l 0,44 c 0,1.108 0.892,2 2,2 l 14.78125,0 12.84375,-48 -27.625,0 z"
       id="rect3790" />
  </g>
</svg>
