<?xml version="1.0" encoding="UTF-8" standalone="no"?>
<!-- Created with Inkscape (http://www.inkscape.org/) -->

<svg
   xmlns:dc="http://purl.org/dc/elements/1.1/"
   xmlns:cc="http://creativecommons.org/ns#"
   xmlns:rdf="http://www.w3.org/1999/02/22-rdf-syntax-ns#"
   xmlns:svg="http://www.w3.org/2000/svg"
   xmlns="http://www.w3.org/2000/svg"
   xmlns:xlink="http://www.w3.org/1999/xlink"
   xmlns:sodipodi="http://sodipodi.sourceforge.net/DTD/sodipodi-0.dtd"
   xmlns:inkscape="http://www.inkscape.org/namespaces/inkscape"
   width="48"
   height="48"
   id="svg2"
   version="1.1"
   inkscape:version="0.48.3.1 r9886"
   sodipodi:docname="gnomine.svg">
  <defs
     id="defs4">
    <linearGradient
       id="linearGradient3795">
      <stop
         style="stop-color:#d09917;stop-opacity:1;"
         offset="0"
         id="stop3797" />
      <stop
         style="stop-color:#dfab0f;stop-opacity:1;"
         offset="1"
         id="stop3799" />
    </linearGradient>
    <linearGradient
       id="linearGradient3698">
      <stop
         id="stop3700"
         offset="0"
         style="stop-color:#96d0e1;stop-opacity:1" />
      <stop
         style="stop-color:#89b7e1;stop-opacity:1"
         offset="0.67819428"
         id="stop3706" />
      <stop
         id="stop3702"
         offset="1"
         style="stop-color:#699dd3;stop-opacity:1" />
    </linearGradient>
    <linearGradient
       id="linearGradient3708">
      <stop
         id="stop3710"
         offset="0"
         style="stop-color:#658db6;stop-opacity:1" />
      <stop
         style="stop-color:#527fab;stop-opacity:1;"
         offset="0.76777935"
         id="stop3716" />
      <stop
         id="stop3712"
         offset="1"
         style="stop-color:#4071a0;stop-opacity:1" />
    </linearGradient>
    <linearGradient
       id="linearGradient3750">
      <stop
         style="stop-color:#d0e2f1;stop-opacity:1"
         offset="0"
         id="stop3752" />
      <stop
         id="stop3756"
         offset="0.85580856"
         style="stop-color:#cadef0;stop-opacity:1" />
      <stop
         style="stop-color:#95bee3;stop-opacity:1"
         offset="1"
         id="stop3754" />
    </linearGradient>
    <linearGradient
       id="linearGradient3803">
      <stop
         id="stop3805"
         offset="0"
         style="stop-color:#d7def0;stop-opacity:1;" />
      <stop
         style="stop-color:#ffffff;stop-opacity:1"
         offset="0.5"
         id="stop3811" />
      <stop
         id="stop3807"
         offset="1"
         style="stop-color:#d5def0;stop-opacity:1" />
    </linearGradient>
    <linearGradient
       inkscape:collect="always"
       xlink:href="#linearGradient3788"
       id="linearGradient3801"
       x1="23.204165"
       y1="1053.158"
       x2="23.204165"
       y2="1004.8474"
       gradientUnits="userSpaceOnUse" />
    <linearGradient
       inkscape:collect="always"
       xlink:href="#linearGradient3795"
       id="linearGradient3796"
       x1="31.9375"
       y1="1032.8384"
       x2="38.787598"
       y2="1020.9307"
       gradientUnits="userSpaceOnUse" />
    <linearGradient
       inkscape:collect="always"
       xlink:href="#linearGradient3795"
       id="linearGradient3832"
       gradientUnits="userSpaceOnUse"
       x1="21.424297"
       y1="4.1364279"
       x2="30.480757"
       y2="11.095446" />
    <linearGradient
       inkscape:collect="always"
       xlink:href="#linearGradient3795"
       id="linearGradient3834"
       gradientUnits="userSpaceOnUse"
       gradientTransform="matrix(1,0,0,0.7051282,0,1008.7244)"
       x1="24.6875"
       y1="14.6875"
       x2="29.625"
       y2="14.6875" />
    <linearGradient
       inkscape:collect="always"
       xlink:href="#linearGradient3795"
       id="linearGradient4082"
       gradientUnits="userSpaceOnUse"
       x1="21.424297"
       y1="4.1364279"
       x2="30.480757"
       y2="11.095446" />
    <linearGradient
       inkscape:collect="always"
       xlink:href="#linearGradient3795"
       id="linearGradient4084"
       gradientUnits="userSpaceOnUse"
       gradientTransform="matrix(1,0,0,0.7051282,0,1008.7244)"
       x1="24.6875"
       y1="14.6875"
       x2="29.625"
       y2="14.6875" />
    <linearGradient
       inkscape:collect="always"
       xlink:href="#linearGradient3795"
       id="linearGradient4090"
       gradientUnits="userSpaceOnUse"
       x1="21.424297"
       y1="4.1364279"
       x2="30.480757"
       y2="11.095446" />
    <linearGradient
       inkscape:collect="always"
       xlink:href="#linearGradient3795"
       id="linearGradient4092"
       gradientUnits="userSpaceOnUse"
       gradientTransform="matrix(1,0,0,0.7051282,0,1008.7244)"
       x1="24.6875"
       y1="14.6875"
       x2="29.625"
       y2="14.6875" />
    <linearGradient
       inkscape:collect="always"
       xlink:href="#linearGradient3795"
       id="linearGradient4095"
       gradientUnits="userSpaceOnUse"
       gradientTransform="matrix(1,0,0,0.7051282,-513.45427,887.43594)"
       x1="24.6875"
       y1="14.6875"
       x2="29.625"
       y2="14.6875" />
    <linearGradient
       inkscape:collect="always"
       xlink:href="#linearGradient3795"
       id="linearGradient4102"
       gradientUnits="userSpaceOnUse"
       gradientTransform="matrix(1,0,0,0.7051282,-513.45427,887.43594)"
       x1="24.6875"
       y1="14.6875"
       x2="29.625"
       y2="14.6875" />
    <linearGradient
       inkscape:collect="always"
       xlink:href="#linearGradient3795"
       id="linearGradient4104"
       gradientUnits="userSpaceOnUse"
       x1="21.424297"
       y1="4.1364279"
       x2="30.480757"
       y2="11.095446" />
    <linearGradient
       inkscape:collect="always"
       xlink:href="#linearGradient3788"
       id="linearGradient3801-5"
       x1="23.204165"
       y1="1053.158"
       x2="23.204165"
       y2="1004.8474"
       gradientUnits="userSpaceOnUse" />
    <linearGradient
       id="linearGradient3788">
      <stop
         id="stop3790"
         offset="0"
         style="stop-color:#000000;stop-opacity:1;" />
      <stop
         id="stop3792"
         offset="1"
         style="stop-color:#5a5e60;stop-opacity:1;" />
    </linearGradient>
    <linearGradient
       y2="1004.8474"
       x2="23.204165"
       y1="1053.158"
       x1="23.204165"
       gradientUnits="userSpaceOnUse"
       id="linearGradient3038"
       xlink:href="#linearGradient3788"
       inkscape:collect="always"
       gradientTransform="translate(-90.999997,4.7500182)" />
  </defs>
  <sodipodi:namedview
     id="base"
     pagecolor="#ffffff"
     bordercolor="#666666"
     borderopacity="1.0"
     inkscape:pageopacity="0.0"
     inkscape:pageshadow="2"
     inkscape:zoom="5.6568545"
     inkscape:cx="7.0856229"
     inkscape:cy="31.903737"
     inkscape:document-units="px"
     inkscape:current-layer="layer1"
     showgrid="true"
     inkscape:window-width="1280"
     inkscape:window-height="721"
     inkscape:window-x="0"
     inkscape:window-y="22"
     inkscape:window-maximized="1">
    <inkscape:grid
       type="xygrid"
       id="grid3028" />
  </sodipodi:namedview>
  <metadata
     id="metadata7">
    <rdf:RDF>
      <cc:Work
         rdf:about="">
        <dc:format>image/svg+xml</dc:format>
        <dc:type
           rdf:resource="http://purl.org/dc/dcmitype/StillImage" />
        <dc:title></dc:title>
      </cc:Work>
    </rdf:RDF>
  </metadata>
  <g
     inkscape:label="Capa 1"
     inkscape:groupmode="layer"
     id="layer1"
     transform="translate(0,-1004.3622)">
    <rect
       style="fill:url(#linearGradient3801);fill-opacity:1.0;stroke:none"
       id="rect2991"
       width="48"
       height="48"
       x="0"
       y="1004.3622"
       ry="1.9445436" />
    <path
       style="fill:#ffffff;stroke:none;fill-opacity:1;opacity:0.15"
       d="M 0 0 L 0 48 L 16.78125 48 L 29.625 0 L 0 0 z "
       transform="translate(0,1004.3622)"
       id="rect3790" />
    <path
       style="fill:#ffffff;fill-opacity:1;stroke:none"
       d="M 24 8 C 23.446 8 23 8.446 23 9 L 23 10.03125 C 18.598168 10.341688 14.780797 12.710912 12.4375 16.15625 L 11.5 15.625 C 11.020222 15.348 10.43325 15.520222 10.15625 16 C 9.87925 16.479778 10.020222 17.098 10.5 17.375 L 11.40625 17.90625 C 10.51216 19.750173 10 21.813181 10 24 C 10 26.186819 10.51216 28.249827 11.40625 30.09375 L 10.5 30.625 C 10.020222 30.902 9.87925 31.520222 10.15625 32 C 10.43325 32.479778 11.020222 32.652 11.5 32.375 L 12.4375 31.84375 C 14.780797 35.289088 18.598168 37.658312 23 37.96875 L 23 39 C 23 39.554 23.446 40 24 40 C 24.554 40 25 39.554 25 39 L 25 37.96875 C 29.401832 37.658312 33.219203 35.289088 35.5625 31.84375 L 36.5 32.375 C 36.979778 32.652 37.56675 32.479778 37.84375 32 C 38.12075 31.520222 37.979778 30.902 37.5 30.625 L 36.59375 30.09375 C 37.48784 28.249827 38 26.186819 38 24 C 38 21.813181 37.48784 19.750173 36.59375 17.90625 L 37.5 17.375 C 37.979778 17.098 38.12075 16.479778 37.84375 16 C 37.56675 15.520222 36.979778 15.348 36.5 15.625 L 35.5625 16.15625 C 33.219203 12.710912 29.401832 10.341688 25 10.03125 L 25 9 C 25 8.446 24.554 8 24 8 z M 18.875 14.3125 C 19.261742 14.26404 19.66725 14.452666 19.875 14.8125 L 20.875 16.5625 C 21.152 17.042278 20.979778 17.62925 20.5 17.90625 C 20.020222 18.18325 19.402 18.042278 19.125 17.5625 L 18.125 15.8125 C 17.848 15.332722 18.020222 14.7145 18.5 14.4375 C 18.619945 14.36825 18.746086 14.328652 18.875 14.3125 z M 28.875 14.34375 C 28.97065 14.32726 29.059565 14.33164 29.15625 14.34375 C 29.285164 14.3599 29.411305 14.3995 29.53125 14.46875 C 30.011028 14.74575 30.18325 15.363972 29.90625 15.84375 L 28.90625 17.5625 C 28.62925 18.042278 28.011028 18.2145 27.53125 17.9375 C 27.051472 17.6605 26.87925 17.042278 27.15625 16.5625 L 28.15625 14.84375 C 28.312062 14.573875 28.588056 14.393225 28.875 14.34375 z M 14.0625 22.96875 L 16.0625 22.96875 C 16.6165 22.96875 17.0625 23.41475 17.0625 23.96875 C 17.0625 24.52275 16.6165 24.96875 16.0625 24.96875 L 14.0625 24.96875 C 13.5085 24.96875 13.0625 24.52275 13.0625 23.96875 C 13.0625 23.41475 13.5085 22.96875 14.0625 22.96875 z M 32 22.96875 L 34 22.96875 C 34.554 22.96875 35 23.41475 35 23.96875 C 35 24.52275 34.554 24.96875 34 24.96875 L 32 24.96875 C 31.446 24.96875 31 24.52275 31 23.96875 C 31 23.41475 31.446 22.96875 32 22.96875 z M 24 23 C 24.552285 23 25 23.447715 25 24 C 25 24.552285 24.552285 25 24 25 C 23.447715 25 23 24.552285 23 24 C 23 23.447715 23.447715 23 24 23 z M 19.875 30 C 19.96772 29.98351 20.059565 29.98789 20.15625 30 C 20.285164 30.01615 20.411305 30.087 20.53125 30.15625 C 21.011028 30.43325 21.18325 31.020222 20.90625 31.5 L 19.90625 33.25 C 19.62925 33.729778 19.011028 33.87075 18.53125 33.59375 C 18.051472 33.31675 17.9105 32.729778 18.1875 32.25 L 19.1875 30.5 C 19.343312 30.230125 19.596845 30.049475 19.875 30 z M 27.875 30.03125 C 28.261742 29.98279 28.66725 30.140166 28.875 30.5 L 29.875 32.25 C 30.152 32.729778 29.979778 33.348 29.5 33.625 C 29.020222 33.902 28.402 33.729778 28.125 33.25 L 27.125 31.5 C 26.848 31.020222 27.020222 30.43325 27.5 30.15625 C 27.619945 30.087 27.746086 30.047402 27.875 30.03125 z "
       transform="translate(0,1004.3622)"
       id="path3048" />
  </g>
</svg>
