<?xml version="1.0" encoding="UTF-8" standalone="no"?>
<!-- Created with Inkscape (http://www.inkscape.org/) -->

<svg
   xmlns:dc="http://purl.org/dc/elements/1.1/"
   xmlns:cc="http://creativecommons.org/ns#"
   xmlns:rdf="http://www.w3.org/1999/02/22-rdf-syntax-ns#"
   xmlns:svg="http://www.w3.org/2000/svg"
   xmlns="http://www.w3.org/2000/svg"
   xmlns:xlink="http://www.w3.org/1999/xlink"
   xmlns:sodipodi="http://sodipodi.sourceforge.net/DTD/sodipodi-0.dtd"
   xmlns:inkscape="http://www.inkscape.org/namespaces/inkscape"
   width="48"
   height="48"
   id="svg2"
   version="1.1"
   inkscape:version="0.48.4 r9939"
   sodipodi:docname="gnome-sudoku.svg">
  <defs
     id="defs4">
    <linearGradient
       id="linearGradient3841">
      <stop
         style="stop-color:#af8800;stop-opacity:1;"
         offset="0"
         id="stop3843" />
      <stop
         style="stop-color:#fcb152;stop-opacity:1;"
         offset="1"
         id="stop3845" />
    </linearGradient>
    <linearGradient
       id="linearGradient3828">
      <stop
         style="stop-color:#000000;stop-opacity:1;"
         offset="0"
         id="stop3830" />
      <stop
         style="stop-color:#ffffff;stop-opacity:1;"
         offset="1"
         id="stop3832" />
    </linearGradient>
    <linearGradient
       id="linearGradient3795">
      <stop
         style="stop-color:#52a2cc;stop-opacity:1;"
         offset="0"
         id="stop3797" />
      <stop
         style="stop-color:#59b3e1;stop-opacity:1;"
         offset="1"
         id="stop3799" />
    </linearGradient>
    <linearGradient
       inkscape:collect="always"
       id="linearGradient3914">
      <stop
         style="stop-color:#59b3e1;stop-opacity:1;"
         offset="0"
         id="stop3916" />
      <stop
         style="stop-color:#59b3e1;stop-opacity:0;"
         offset="1"
         id="stop3918" />
    </linearGradient>
    <linearGradient
       id="linearGradient3698">
      <stop
         id="stop3700"
         offset="0"
         style="stop-color:#96d0e1;stop-opacity:1" />
      <stop
         style="stop-color:#89b7e1;stop-opacity:1"
         offset="0.67819428"
         id="stop3706" />
      <stop
         id="stop3702"
         offset="1"
         style="stop-color:#699dd3;stop-opacity:1" />
    </linearGradient>
    <linearGradient
       id="linearGradient3708">
      <stop
         id="stop3710"
         offset="0"
         style="stop-color:#616161;stop-opacity:1;" />
      <stop
         id="stop3712"
         offset="1"
         style="stop-color:#c7c7c7;stop-opacity:1;" />
    </linearGradient>
    <linearGradient
       id="linearGradient3750">
      <stop
         style="stop-color:#d0e2f1;stop-opacity:1"
         offset="0"
         id="stop3752" />
      <stop
         id="stop3756"
         offset="0.85580856"
         style="stop-color:#cadef0;stop-opacity:1" />
      <stop
         style="stop-color:#95bee3;stop-opacity:1"
         offset="1"
         id="stop3754" />
    </linearGradient>
    <linearGradient
       id="linearGradient3803">
      <stop
         id="stop3805"
         offset="0"
         style="stop-color:#d7def0;stop-opacity:1;" />
      <stop
         style="stop-color:#ffffff;stop-opacity:1"
         offset="0.5"
         id="stop3811" />
      <stop
         id="stop3807"
         offset="1"
         style="stop-color:#d5def0;stop-opacity:1" />
    </linearGradient>
    <linearGradient
       inkscape:collect="always"
       xlink:href="#linearGradient3914"
       id="linearGradient3920"
       x1="6.8000002"
       y1="25.0625"
       x2="45.325001"
       y2="25.0625"
       gradientUnits="userSpaceOnUse" />
    <linearGradient
       inkscape:collect="always"
       xlink:href="#linearGradient3795"
       id="linearGradient3808"
       x1="14.772043"
       y1="1022.6282"
       x2="22.473551"
       y2="1022.6282"
       gradientUnits="userSpaceOnUse"
       gradientTransform="translate(-0.19126339,-0.01120898)" />
    <linearGradient
       inkscape:collect="always"
       xlink:href="#linearGradient3795"
       id="linearGradient3814"
       gradientUnits="userSpaceOnUse"
       x1="14.772043"
       y1="1022.6282"
       x2="22.473551"
       y2="1022.6282"
       gradientTransform="translate(-720.99931,-278.79005)" />
    <linearGradient
       inkscape:collect="always"
       xlink:href="#linearGradient3795"
       id="linearGradient3820"
       gradientUnits="userSpaceOnUse"
       x1="14.772043"
       y1="1022.6282"
       x2="22.473551"
       y2="1022.6282"
       gradientTransform="translate(3.1805569,11.087074)" />
    <linearGradient
       inkscape:collect="always"
       xlink:href="#linearGradient3795"
       id="linearGradient3826"
       gradientUnits="userSpaceOnUse"
       gradientTransform="translate(13.144228,14.539274)"
       x1="14.772043"
       y1="1022.6282"
       x2="22.473551"
       y2="1022.6282" />
    <linearGradient
       inkscape:collect="always"
       xlink:href="#linearGradient3708"
       id="linearGradient3874"
       gradientUnits="userSpaceOnUse"
       gradientTransform="translate(-0.19126339,-0.01120898)"
       x1="14.772043"
       y1="1022.6282"
       x2="22.473551"
       y2="1022.6282" />
    <linearGradient
       inkscape:collect="always"
       xlink:href="#linearGradient3708"
       id="linearGradient3876"
       gradientUnits="userSpaceOnUse"
       gradientTransform="translate(-720.99931,-278.79005)"
       x1="14.772043"
       y1="1022.6282"
       x2="22.473551"
       y2="1022.6282" />
    <linearGradient
       inkscape:collect="always"
       xlink:href="#linearGradient3708"
       id="linearGradient3878"
       gradientUnits="userSpaceOnUse"
       gradientTransform="translate(3.1805569,11.087074)"
       x1="14.772043"
       y1="1022.6282"
       x2="22.473551"
       y2="1022.6282" />
    <linearGradient
       inkscape:collect="always"
       xlink:href="#linearGradient3708"
       id="linearGradient3880"
       gradientUnits="userSpaceOnUse"
       gradientTransform="translate(13.144228,14.539274)"
       x1="14.772043"
       y1="1022.6282"
       x2="22.473551"
       y2="1022.6282" />
    <linearGradient
       inkscape:collect="always"
       xlink:href="#linearGradient3828"
       id="linearGradient3834"
       x1="24.492996"
       y1="1034.1074"
       x2="34.643936"
       y2="1034.1074"
       gradientUnits="userSpaceOnUse" />
    <linearGradient
       inkscape:collect="always"
       xlink:href="#linearGradient3828"
       id="linearGradient3838"
       gradientUnits="userSpaceOnUse"
       x1="24.492996"
       y1="1034.1074"
       x2="34.643936"
       y2="1034.1074" />
    <linearGradient
       inkscape:collect="always"
       xlink:href="#linearGradient3828"
       id="linearGradient3845"
       gradientUnits="userSpaceOnUse"
       x1="29.638937"
       y1="1041.6244"
       x2="29.638937"
       y2="1018.3306"
       gradientTransform="translate(21.664028,17.330677)" />
    <linearGradient
       inkscape:collect="always"
       xlink:href="#linearGradient3708"
       id="linearGradient3854"
       gradientUnits="userSpaceOnUse"
       gradientTransform="translate(3.1805569,11.087074)"
       x1="14.772043"
       y1="1022.6282"
       x2="22.473551"
       y2="1022.6282" />
    <linearGradient
       inkscape:collect="always"
       xlink:href="#linearGradient3708"
       id="linearGradient3860"
       gradientUnits="userSpaceOnUse"
       gradientTransform="translate(3.1805569,11.087074)"
       x1="14.772043"
       y1="1022.6282"
       x2="22.473551"
       y2="1022.6282" />
    <linearGradient
       inkscape:collect="always"
       xlink:href="#linearGradient3708"
       id="linearGradient3864"
       gradientUnits="userSpaceOnUse"
       gradientTransform="translate(22.594585,21.292751)"
       x1="14.772043"
       y1="1022.6282"
       x2="22.473551"
       y2="1022.6282" />
    <linearGradient
       inkscape:collect="always"
       xlink:href="#linearGradient3828"
       id="linearGradient3873"
       x1="33.07259"
       y1="1044.3131"
       x2="42.61853"
       y2="1044.3131"
       gradientUnits="userSpaceOnUse" />
    <linearGradient
       inkscape:collect="always"
       xlink:href="#linearGradient3828"
       id="linearGradient3877"
       gradientUnits="userSpaceOnUse"
       gradientTransform="translate(21.664028,28.114055)"
       x1="29.638937"
       y1="1041.6244"
       x2="29.638937"
       y2="1018.3306" />
    <linearGradient
       inkscape:collect="always"
       xlink:href="#linearGradient3828"
       id="linearGradient3892"
       gradientUnits="userSpaceOnUse"
       gradientTransform="translate(21.664028,28.114055)"
       x1="29.638937"
       y1="1041.6244"
       x2="29.638937"
       y2="1018.3306" />
    <linearGradient
       inkscape:collect="always"
       xlink:href="#linearGradient3828"
       id="linearGradient3899"
       gradientUnits="userSpaceOnUse"
       gradientTransform="translate(21.664028,17.330677)"
       x1="29.638937"
       y1="1041.6244"
       x2="29.638937"
       y2="1018.3306" />
    <linearGradient
       inkscape:collect="always"
       xlink:href="#linearGradient3828"
       id="linearGradient3909"
       gradientUnits="userSpaceOnUse"
       gradientTransform="translate(21.664028,17.330677)"
       x1="29.638937"
       y1="1041.6244"
       x2="29.638937"
       y2="1018.3306" />
    <linearGradient
       inkscape:collect="always"
       xlink:href="#linearGradient3828"
       id="linearGradient3915"
       gradientUnits="userSpaceOnUse"
       gradientTransform="translate(22.302216,18.515715)"
       x1="29.638937"
       y1="1041.6244"
       x2="29.638937"
       y2="1018.3306" />
    <linearGradient
       inkscape:collect="always"
       xlink:href="#linearGradient3828"
       id="linearGradient3922"
       gradientUnits="userSpaceOnUse"
       gradientTransform="translate(22.302216,18.515715)"
       x1="29.638937"
       y1="1041.6244"
       x2="29.638937"
       y2="1018.3306" />
    <linearGradient
       inkscape:collect="always"
       xlink:href="#linearGradient3828"
       id="linearGradient3932"
       gradientUnits="userSpaceOnUse"
       gradientTransform="translate(21.664028,17.330677)"
       x1="29.638937"
       y1="1041.6244"
       x2="29.638937"
       y2="1018.3306" />
    <linearGradient
       inkscape:collect="always"
       xlink:href="#linearGradient3828"
       id="linearGradient3937"
       gradientUnits="userSpaceOnUse"
       gradientTransform="translate(32.261074,7.5348397)"
       x1="29.638937"
       y1="1041.6244"
       x2="29.638937"
       y2="1018.3306" />
    <linearGradient
       inkscape:collect="always"
       xlink:href="#linearGradient3828"
       id="linearGradient3944"
       gradientUnits="userSpaceOnUse"
       gradientTransform="translate(32.261074,7.5348397)"
       x1="29.638937"
       y1="1041.6244"
       x2="29.638937"
       y2="1018.3306" />
    <linearGradient
       inkscape:collect="always"
       xlink:href="#linearGradient3828"
       id="linearGradient3949"
       gradientUnits="userSpaceOnUse"
       gradientTransform="translate(32.261074,7.5348397)"
       x1="29.638937"
       y1="1041.6244"
       x2="29.638937"
       y2="1018.3306" />
    <linearGradient
       inkscape:collect="always"
       xlink:href="#linearGradient3828"
       id="linearGradient3956"
       gradientUnits="userSpaceOnUse"
       gradientTransform="translate(32.261074,7.5348397)"
       x1="29.638937"
       y1="1041.6244"
       x2="29.638937"
       y2="1018.3306" />
    <linearGradient
       inkscape:collect="always"
       xlink:href="#linearGradient3828"
       id="linearGradient3976"
       gradientUnits="userSpaceOnUse"
       gradientTransform="translate(22.302216,18.515715)"
       x1="29.638937"
       y1="1041.6244"
       x2="29.638937"
       y2="1018.3306" />
    <linearGradient
       inkscape:collect="always"
       xlink:href="#linearGradient3828"
       id="linearGradient3978"
       gradientUnits="userSpaceOnUse"
       gradientTransform="translate(21.664028,28.114055)"
       x1="29.638937"
       y1="1041.6244"
       x2="29.638937"
       y2="1018.3306" />
    <linearGradient
       inkscape:collect="always"
       xlink:href="#linearGradient3828"
       id="linearGradient3980"
       gradientUnits="userSpaceOnUse"
       gradientTransform="translate(21.664028,17.330677)"
       x1="29.638937"
       y1="1041.6244"
       x2="29.638937"
       y2="1018.3306" />
    <linearGradient
       inkscape:collect="always"
       xlink:href="#linearGradient3828"
       id="linearGradient3982"
       gradientUnits="userSpaceOnUse"
       gradientTransform="translate(32.261074,7.5348397)"
       x1="29.638937"
       y1="1041.6244"
       x2="29.638937"
       y2="1018.3306" />
    <linearGradient
       inkscape:collect="always"
       xlink:href="#linearGradient3828"
       id="linearGradient3073"
       gradientUnits="userSpaceOnUse"
       gradientTransform="translate(32.261074,7.5348397)"
       x1="29.638937"
       y1="1041.6244"
       x2="29.638937"
       y2="1018.3306" />
    <linearGradient
       inkscape:collect="always"
       xlink:href="#linearGradient3828"
       id="linearGradient3080"
       gradientUnits="userSpaceOnUse"
       gradientTransform="translate(21.664028,17.330677)"
       x1="29.638937"
       y1="1041.6244"
       x2="29.638937"
       y2="1018.3306" />
    <linearGradient
       inkscape:collect="always"
       xlink:href="#linearGradient3828"
       id="linearGradient3087"
       gradientUnits="userSpaceOnUse"
       gradientTransform="translate(21.664028,28.114055)"
       x1="29.638937"
       y1="1041.6244"
       x2="29.638937"
       y2="1018.3306" />
    <linearGradient
       inkscape:collect="always"
       xlink:href="#linearGradient3828"
       id="linearGradient3094"
       gradientUnits="userSpaceOnUse"
       gradientTransform="translate(22.302216,18.515715)"
       x1="29.638937"
       y1="1041.6244"
       x2="29.638937"
       y2="1018.3306" />
    <linearGradient
       inkscape:collect="always"
       xlink:href="#linearGradient3841"
       id="linearGradient3847"
       x1="30"
       y1="1052.3622"
       x2="30"
       y2="1002.3622"
       gradientUnits="userSpaceOnUse" />
  </defs>
  <sodipodi:namedview
     id="base"
     pagecolor="#ffffff"
     bordercolor="#666666"
     borderopacity="1.0"
     inkscape:pageopacity="0.0"
     inkscape:pageshadow="2"
     inkscape:zoom="11.313708"
     inkscape:cx="33.463685"
     inkscape:cy="18.581716"
     inkscape:document-units="px"
     inkscape:current-layer="layer1"
     showgrid="true"
     inkscape:window-width="1366"
     inkscape:window-height="709"
     inkscape:window-x="0"
     inkscape:window-y="27"
     inkscape:window-maximized="1"
     showguides="true"
     inkscape:guide-bbox="true">
    <sodipodi:guide
       position="0,0"
       orientation="0,48"
       id="guide3070" />
    <sodipodi:guide
       position="48,0"
       orientation="-48,0"
       id="guide3072" />
    <sodipodi:guide
       position="48,48"
       orientation="0,-48"
       id="guide3074" />
    <sodipodi:guide
       position="0,48"
       orientation="48,0"
       id="guide3076" />
    <sodipodi:guide
       orientation="1,0"
       position="8,12.551145"
       id="guide3078" />
    <sodipodi:guide
       orientation="0,1"
       position="-27.223611,40"
       id="guide3080" />
    <sodipodi:guide
       orientation="0,1"
       position="-3.8890873,8"
       id="guide3082" />
    <sodipodi:guide
       orientation="1,0"
       position="40,26.516504"
       id="guide3084" />
    <inkscape:grid
       type="xygrid"
       id="grid3881" />
  </sodipodi:namedview>
  <metadata
     id="metadata7">
    <rdf:RDF>
      <cc:Work
         rdf:about="">
        <dc:format>image/svg+xml</dc:format>
        <dc:type
           rdf:resource="http://purl.org/dc/dcmitype/StillImage" />
        <dc:title />
      </cc:Work>
    </rdf:RDF>
  </metadata>
  <g
     inkscape:label="Capa 1"
     inkscape:groupmode="layer"
     id="layer1"
     transform="translate(0,-1004.3622)">
    <rect
       style="fill:url(#linearGradient3847);fill-opacity:1;stroke:none"
       id="rect2991"
       width="48"
       height="48"
       x="0"
       y="1004.3622"
       ry="1.9445436" />
    <path
       style="fill:#ffffff;fill-opacity:1;stroke:none"
       d="M 9.9375,8 C 8.8602228,8 8,8.8602228 8,9.9375 l 0,28.125 C 8,39.139777 8.8602228,40 9.9375,40 l 28.125,0 C 39.139777,40 40,39.139777 40,38.0625 L 40,9.9375 C 40,8.8602228 39.139777,8 38.0625,8 z m 2.722272,2.958947 22.768845,0 c 0.942617,0 1.6875,0.744883 1.6875,1.6875 l 0,22.693781 c 0,0.942617 -0.744883,1.6875 -1.6875,1.6875 l -22.768845,0 c -0.942617,0 -1.6875,-0.744883 -1.6875,-1.6875 l 0,-22.693781 c 0,-0.942617 0.744883,-1.6875 1.6875,-1.6875 z"
       transform="translate(0,1004.3622)"
       id="rect3849"
       inkscape:connector-curvature="0"
       sodipodi:nodetypes="ssssssssssssssssss" />
    <rect
       style="fill:#ffffff;fill-opacity:1;stroke:none"
       id="rect3870"
       width="28"
       height="1"
       x="10"
       y="1023.3622" />
    <rect
       style="fill:#ffffff;fill-opacity:1;stroke:none"
       id="rect3870-8"
       width="28"
       height="1"
       x="10"
       y="1032.3622" />
    <rect
       style="fill:#ffffff;fill-opacity:1;stroke:none"
       id="rect3870-9"
       width="28"
       height="1"
       x="1014.3622"
       y="-20"
       transform="matrix(0,1,-1,0,0,0)" />
    <rect
       style="fill:#ffffff;fill-opacity:1;stroke:none"
       id="rect3870-99"
       width="28"
       height="1"
       x="1014.3622"
       y="-29"
       transform="matrix(0,1,-1,0,0,0)" />
    <g
       style="font-size:8px;font-style:normal;font-weight:bold;line-height:125%;letter-spacing:0px;word-spacing:0px;fill:#ffffff;fill-opacity:1;stroke:none;font-family:Sans;-inkscape-font-specification:Sans Bold"
       id="text3915">
      <path
         d="m 12.847656,1016.5302 3.738281,0 0,1.1054 -2.539062,0 0,0.9024 c 0.114581,-0.031 0.229164,-0.055 0.34375,-0.07 0.117185,-0.018 0.238279,-0.027 0.363281,-0.027 0.710934,0 1.264319,0.1784 1.660156,0.5352 0.395829,0.3541 0.593745,0.8489 0.59375,1.4843 -5e-6,0.6302 -0.21615,1.1237 -0.648437,1.4805 -0.429691,0.3568 -1.027347,0.5352 -1.792969,0.5352 -0.330731,0 -0.658856,-0.033 -0.984375,-0.098 -0.322918,-0.063 -0.644532,-0.1588 -0.964843,-0.2891 l 0,-1.1835 c 0.317707,0.1822 0.618488,0.319 0.902343,0.4101 0.286457,0.091 0.555988,0.1367 0.808594,0.1367 0.364581,0 0.651039,-0.088 0.859375,-0.2656 0.210934,-0.1797 0.316403,-0.4219 0.316406,-0.7266 -3e-6,-0.3073 -0.105472,-0.5494 -0.316406,-0.7265 -0.208336,-0.1771 -0.494794,-0.2656 -0.859375,-0.2656 -0.216148,0 -0.446616,0.029 -0.691406,0.086 -0.244793,0.055 -0.507814,0.1406 -0.789063,0.2578 l 0,-3.2812"
         style=""
         id="path3959" />
    </g>
    <g
       style="font-size:8px;font-style:normal;font-weight:bold;line-height:125%;letter-spacing:0px;word-spacing:0px;fill:#ffffff;fill-opacity:1;stroke:none;font-family:Sans;-inkscape-font-specification:Sans Bold"
       id="text3915-3"
       transform="translate(-0.26516505,0)">
      <path
         d="m 23.862745,1021.2567 2.566407,0 0,1.1055 -4.238282,0 0,-1.1055 2.128907,-1.8789 c 0.190101,-0.1719 0.330726,-0.3398 0.421875,-0.5039 0.09114,-0.1641 0.136715,-0.3346 0.136718,-0.5117 -3e-6,-0.2735 -0.09245,-0.4935 -0.277343,-0.6602 -0.182295,-0.1666 -0.425784,-0.25 -0.730469,-0.25 -0.234377,0 -0.490887,0.051 -0.769531,0.1524 -0.278648,0.099 -0.576824,0.2474 -0.894532,0.4453 l 0,-1.2813 c 0.338541,-0.1119 0.673176,-0.1966 1.003907,-0.2539 0.330727,-0.06 0.654945,-0.09 0.972656,-0.09 0.697913,0 1.239579,0.1536 1.625,0.4609 0.388016,0.3073 0.582026,0.7357 0.582031,1.2852 -5e-6,0.3177 -0.08204,0.6146 -0.246094,0.8906 -0.164067,0.2734 -0.509118,0.6406 -1.035156,1.1016 l -1.246094,1.0937"
         id="path3962"
         inkscape:connector-curvature="0" />
    </g>
    <g
       style="font-size:8px;font-style:normal;font-weight:bold;line-height:125%;letter-spacing:0px;word-spacing:0px;fill:#ffffff;fill-opacity:1;stroke:none;font-family:Sans;-inkscape-font-specification:Sans Bold"
       id="text3915-8">
      <path
         d="m 25.168505,1028.2177 c 0.393225,0.1015 0.691402,0.2786 0.894531,0.5312 0.205724,0.25 0.308589,0.569 0.308594,0.957 -5e-6,0.5782 -0.221359,1.0183 -0.664063,1.3203 -0.442712,0.2995 -1.088545,0.4493 -1.9375,0.4493 -0.299481,0 -0.600262,-0.025 -0.902344,-0.074 -0.29948,-0.047 -0.596355,-0.1184 -0.890625,-0.2148 l 0,-1.1602 c 0.28125,0.1407 0.559895,0.2474 0.835938,0.3204 0.278644,0.07 0.552081,0.1054 0.820312,0.1054 0.398435,0 0.703123,-0.069 0.914063,-0.207 0.213538,-0.138 0.320309,-0.3359 0.320312,-0.5938 -3e-6,-0.2656 -0.109378,-0.4661 -0.328125,-0.6015 -0.216148,-0.138 -0.53646,-0.207 -0.960937,-0.207 l -0.601563,0 0,-0.9688 0.632813,0 c 0.377602,0 0.658851,-0.059 0.84375,-0.1758 0.184893,-0.1198 0.27734,-0.3008 0.277344,-0.5429 -4e-6,-0.224 -0.08985,-0.3972 -0.269532,-0.5196 -0.17969,-0.1224 -0.433596,-0.1836 -0.761718,-0.1836 -0.24219,0 -0.486981,0.027 -0.734375,0.082 -0.247397,0.055 -0.493491,0.1354 -0.738282,0.2421 l 0,-1.1015 c 0.296874,-0.083 0.591145,-0.1458 0.882813,-0.1875 0.291665,-0.042 0.578123,-0.063 0.859375,-0.063 0.757809,0 1.324215,0.125 1.699219,0.375 0.377599,0.2474 0.566401,0.6211 0.566406,1.1211 -5e-6,0.3411 -0.08985,0.6211 -0.269531,0.8398 -0.179692,0.2162 -0.445317,0.3685 -0.796875,0.4571"
         style=""
         id="path3965" />
    </g>
    <g
       style="font-size:8px;font-style:normal;font-weight:bold;line-height:125%;letter-spacing:0px;word-spacing:0px;fill:#ffffff;fill-opacity:1;stroke:none;font-family:Sans;-inkscape-font-specification:Sans Bold"
       id="text3915-4">
      <path
         d="m 31.154335,1040.2333 0,-1.0781 c 0.239582,0.1119 0.468749,0.1966 0.6875,0.2539 0.218748,0.055 0.434894,0.082 0.648438,0.082 0.447914,0 0.796872,-0.1237 1.046875,-0.3711 0.249996,-0.25 0.397131,-0.6198 0.441406,-1.1094 -0.177087,0.1302 -0.365889,0.2279 -0.566406,0.293 -0.200524,0.065 -0.417972,0.098 -0.652344,0.098 -0.596356,0 -1.078127,-0.1731 -1.445313,-0.5195 -0.364584,-0.3489 -0.546875,-0.8073 -0.546875,-1.375 0,-0.6276 0.203125,-1.1302 0.609375,-1.5078 0.408853,-0.3776 0.955727,-0.5664 1.640625,-0.5664 0.760414,0 1.348955,0.2565 1.765625,0.7695 0.416662,0.5131 0.624995,1.2383 0.625,2.1758 -5e-6,0.9636 -0.243494,1.7214 -0.730468,2.2734 -0.486983,0.5495 -1.154952,0.8243 -2.003907,0.8243 -0.273439,0 -0.535158,-0.021 -0.785156,-0.063 -0.250001,-0.039 -0.494793,-0.099 -0.734375,-0.1797 m 1.855469,-2.8086 c 0.263018,0 0.460934,-0.085 0.59375,-0.2539 0.132809,-0.1719 0.199215,-0.4284 0.199219,-0.7696 -4e-6,-0.3385 -0.06641,-0.5937 -0.199219,-0.7656 -0.132816,-0.1718 -0.330732,-0.2578 -0.59375,-0.2578 -0.263023,0 -0.46094,0.086 -0.59375,0.2578 -0.132815,0.1719 -0.199221,0.4271 -0.199219,0.7656 -2e-6,0.3412 0.0664,0.5977 0.199219,0.7696 0.13281,0.1693 0.330727,0.2539 0.59375,0.2539"
         style=""
         id="path3968" />
    </g>
    <path
       inkscape:connector-curvature="0"
       style="opacity:0.15;fill:#ffffff;fill-opacity:1;stroke:none"
       d="m 2,1004.3622 c -1.108,0 -2,0.892 -2,2 l 0,44 c 0,1.108 0.892,2 2,2 l 14.78125,0 12.84375,-48 -27.625,0 z"
       id="rect3790" />
  </g>
</svg>
