<?xml version="1.0" encoding="UTF-8" standalone="no"?>
<!-- Created with Inkscape (http://www.inkscape.org/) -->

<svg
   xmlns:dc="http://purl.org/dc/elements/1.1/"
   xmlns:cc="http://creativecommons.org/ns#"
   xmlns:rdf="http://www.w3.org/1999/02/22-rdf-syntax-ns#"
   xmlns:svg="http://www.w3.org/2000/svg"
   xmlns="http://www.w3.org/2000/svg"
   xmlns:xlink="http://www.w3.org/1999/xlink"
   xmlns:sodipodi="http://sodipodi.sourceforge.net/DTD/sodipodi-0.dtd"
   xmlns:inkscape="http://www.inkscape.org/namespaces/inkscape"
   width="48"
   height="48"
   id="svg2"
   version="1.1"
   inkscape:version="0.48.4 r9939"
   sodipodi:docname="gnome-remote-desktop.svg">
  <defs
     id="defs4">
    <linearGradient
       id="linearGradient3872">
      <stop
         style="stop-color:#418005;stop-opacity:1;"
         offset="0"
         id="stop3874" />
      <stop
         style="stop-color:#4e993b;stop-opacity:1;"
         offset="1"
         id="stop3876" />
    </linearGradient>
    <linearGradient
       id="linearGradient3795">
      <stop
         style="stop-color:#33c1f5;stop-opacity:1;"
         offset="0"
         id="stop3797" />
      <stop
         style="stop-color:#4d80a0;stop-opacity:1;"
         offset="1"
         id="stop3799" />
    </linearGradient>
    <linearGradient
       id="linearGradient3698">
      <stop
         id="stop3700"
         offset="0"
         style="stop-color:#96d0e1;stop-opacity:1" />
      <stop
         style="stop-color:#89b7e1;stop-opacity:1"
         offset="0.67819428"
         id="stop3706" />
      <stop
         id="stop3702"
         offset="1"
         style="stop-color:#699dd3;stop-opacity:1" />
    </linearGradient>
    <linearGradient
       id="linearGradient3708">
      <stop
         id="stop3710"
         offset="0"
         style="stop-color:#658db6;stop-opacity:1" />
      <stop
         style="stop-color:#527fab;stop-opacity:1;"
         offset="0.76777935"
         id="stop3716" />
      <stop
         id="stop3712"
         offset="1"
         style="stop-color:#4071a0;stop-opacity:1" />
    </linearGradient>
    <linearGradient
       id="linearGradient3750">
      <stop
         style="stop-color:#d0e2f1;stop-opacity:1"
         offset="0"
         id="stop3752" />
      <stop
         id="stop3756"
         offset="0.85580856"
         style="stop-color:#cadef0;stop-opacity:1" />
      <stop
         style="stop-color:#95bee3;stop-opacity:1"
         offset="1"
         id="stop3754" />
    </linearGradient>
    <linearGradient
       id="linearGradient3803">
      <stop
         id="stop3805"
         offset="0"
         style="stop-color:#d7def0;stop-opacity:1;" />
      <stop
         style="stop-color:#ffffff;stop-opacity:1"
         offset="0.5"
         id="stop3811" />
      <stop
         id="stop3807"
         offset="1"
         style="stop-color:#d5def0;stop-opacity:1" />
    </linearGradient>
    <linearGradient
       inkscape:collect="always"
       xlink:href="#linearGradient3795"
       id="linearGradient3859"
       x1="26.192217"
       y1="1024.0002"
       x2="28.641211"
       y2="1024.0002"
       gradientUnits="userSpaceOnUse" />
    <linearGradient
       inkscape:collect="always"
       xlink:href="#linearGradient3795"
       id="linearGradient3867"
       gradientUnits="userSpaceOnUse"
       x1="26.192217"
       y1="1024.0002"
       x2="28.641211"
       y2="1024.0002" />
    <linearGradient
       inkscape:collect="always"
       xlink:href="#linearGradient3795"
       id="linearGradient3869"
       gradientUnits="userSpaceOnUse"
       x1="26.192217"
       y1="1024.0002"
       x2="28.641211"
       y2="1024.0002" />
    <linearGradient
       inkscape:collect="always"
       xlink:href="#linearGradient3795"
       id="linearGradient3871"
       gradientUnits="userSpaceOnUse"
       x1="26.192217"
       y1="1024.0002"
       x2="28.641211"
       y2="1024.0002" />
    <linearGradient
       inkscape:collect="always"
       xlink:href="#linearGradient3795"
       id="linearGradient3877"
       gradientUnits="userSpaceOnUse"
       x1="29.718235"
       y1="1027.8575"
       x2="22.811094"
       y2="1015.5485" />
    <linearGradient
       inkscape:collect="always"
       xlink:href="#linearGradient3795"
       id="linearGradient3879"
       gradientUnits="userSpaceOnUse"
       x1="17.196316"
       y1="1006.2238"
       x2="31.448042"
       y2="1030.9086" />
    <linearGradient
       inkscape:collect="always"
       xlink:href="#linearGradient3795"
       id="linearGradient3895"
       x1="21.973417"
       y1="34.43922"
       x2="42.475323"
       y2="24.798252"
       gradientUnits="userSpaceOnUse" />
    <linearGradient
       inkscape:collect="always"
       xlink:href="#linearGradient3881"
       id="linearGradient3801-4"
       x1="42.649601"
       y1="1007.0192"
       x2="42.649601"
       y2="1049.8013"
       gradientUnits="userSpaceOnUse"
       gradientTransform="translate(0,-2056.7244)" />
    <linearGradient
       id="linearGradient3881">
      <stop
         style="stop-color:#474845;stop-opacity:1;"
         offset="0"
         id="stop3883" />
      <stop
         style="stop-color:#838681;stop-opacity:1"
         offset="1"
         id="stop3885" />
    </linearGradient>
    <linearGradient
       y2="1049.8013"
       x2="42.649601"
       y1="1007.0192"
       x1="42.649601"
       gradientTransform="translate(-80,-2066.7244)"
       gradientUnits="userSpaceOnUse"
       id="linearGradient3198"
       xlink:href="#linearGradient3881"
       inkscape:collect="always" />
    <linearGradient
       inkscape:collect="always"
       xlink:href="#linearGradient3872"
       id="linearGradient3880"
       x1="6.9666743"
       y1="-1052.3622"
       x2="6.9666743"
       y2="-1002.3622"
       gradientUnits="userSpaceOnUse" />
  </defs>
  <sodipodi:namedview
     id="base"
     pagecolor="#ffffff"
     bordercolor="#666666"
     borderopacity="1.0"
     inkscape:pageopacity="0.0"
     inkscape:pageshadow="2"
     inkscape:zoom="5.6568545"
     inkscape:cx="16.467177"
     inkscape:cy="28.079637"
     inkscape:document-units="px"
     inkscape:current-layer="layer1"
     showgrid="true"
     inkscape:window-width="1366"
     inkscape:window-height="709"
     inkscape:window-x="0"
     inkscape:window-y="27"
     inkscape:window-maximized="1">
    <inkscape:grid
       type="xygrid"
       id="grid3850" />
  </sodipodi:namedview>
  <metadata
     id="metadata7">
    <rdf:RDF>
      <cc:Work
         rdf:about="">
        <dc:format>image/svg+xml</dc:format>
        <dc:type
           rdf:resource="http://purl.org/dc/dcmitype/StillImage" />
        <dc:title />
      </cc:Work>
    </rdf:RDF>
  </metadata>
  <g
     inkscape:label="Capa 1"
     inkscape:groupmode="layer"
     id="layer1"
     transform="translate(0,-1004.3622)">
    <rect
       style="fill:url(#linearGradient3880);fill-opacity:1;stroke:none"
       id="rect2991"
       width="48"
       height="48"
       x="0"
       y="-1052.3622"
       ry="1.9445436"
       transform="scale(1,-1)" />
    <path
       style="font-size:medium;font-style:normal;font-variant:normal;font-weight:normal;font-stretch:normal;text-indent:0;text-align:start;text-decoration:none;line-height:normal;letter-spacing:normal;word-spacing:normal;text-transform:none;direction:ltr;block-progression:tb;writing-mode:lr-tb;text-anchor:start;baseline-shift:baseline;color:#000000;fill:#ffffff;fill-opacity:1;fill-rule:nonzero;stroke:none;stroke-width:2.99999952;marker:none;visibility:visible;display:inline;overflow:visible;enable-background:accumulate;font-family:Sans;-inkscape-font-specification:Sans"
       d="m 9.0750144,1013.3747 c -0.5855362,0.062 -1.0781482,0.6113 -1.0749995,1.2 l 0,21.6 c 6.28e-5,0.6283 0.5716984,1.1999 1.1999995,1.2 l 10.7999956,0 0,2.025 7.999996,0 0,-2.025 10.799994,0 c 0.628302,-10e-5 1.199937,-0.5717 1.2,-1.2 l 0,-21.6 c -6.3e-5,-0.6283 -0.571698,-1.1999 -1.2,-1.2 l -29.5999856,0 z m 1.5874986,2.025 c 0.04985,-0.01 0.100148,-0.01 0.15,0 l 26.372298,0 c 0.418867,10e-5 0.799958,0.3811 0.799999,0.8 l 0,18.4125 c -4.1e-5,0.4189 -0.381132,0.7999 -0.799999,0.8 l -26.372298,0 c -0.418867,-10e-5 -0.799957,-0.3811 -0.799999,-0.8 l 0,-18.4125 c -0.0066,-0.3733 0.283278,-0.7304 0.649999,-0.8 z m 4.362499,24.9875 0,2.025 18.99999,0 0,-2.025 z"
       id="rect4042"
       inkscape:connector-curvature="0"
       sodipodi:nodetypes="ccccccccccccccccccccccccccccc" />
    <g
       id="g3868"
       transform="matrix(1.0216716,0,0,1.0216716,0.47922999,-22.395072)">
      <path
         inkscape:connector-curvature="0"
         id="path3847"
         d="m 27.714099,1032.7237 c 0.552231,-0.3188 0.912597,-0.8885 1.097856,-1.5359 0.18531,-0.6474 0.21085,-1.4015 0.117969,-2.2332 -0.185664,-1.6632 -0.867623,-3.6278 -2.001723,-5.5921 -1.13415,-1.9644 -2.494441,-3.5371 -3.842027,-4.5296 -0.673769,-0.4962 -1.339609,-0.8511 -1.992969,-1.0144 -0.653309,-0.1632 -1.326875,-0.136 -1.879106,0.1828 -0.167418,0.097 -0.307649,0.2245 -0.440264,0.3624 l -0.01563,-0.027 c 0,0 -1.301327,1.0439 -2.095833,2.8699 -0.794506,1.826 -1.081906,4.5011 0.739544,7.6559 1.82145,3.1548 4.28185,4.2435 6.260456,4.4684 1.978606,0.225 3.533333,-0.3801 3.533333,-0.3801 l -0.01563,-0.027 c 0.185775,-0.046 0.366596,-0.1034 0.534014,-0.2001 z m -0.5,-0.866 c -0.284782,0.1644 -0.639266,0.1862 -1.116025,0.067 -0.476759,-0.1192 -1.060114,-0.3696 -1.658714,-0.8105 -1.197151,-0.8816 -2.498337,-2.3897 -3.573337,-4.2517 -1.075,-1.862 -1.730414,-3.7428 -1.895413,-5.2205 -0.08245,-0.7387 -0.0077,-1.3692 0.127464,-1.8417 0.135159,-0.4725 0.331243,-0.7686 0.616025,-0.933 0.284782,-0.1644 0.639267,-0.1862 1.116026,-0.067 0.476758,0.1192 1.060163,0.3697 1.658713,0.8105 1.197201,0.8817 2.498337,2.3897 3.573337,4.2517 1.075,1.862 1.730464,3.7429 1.895413,5.2205 0.0825,0.7388 0.0077,1.3692 -0.127463,1.8417 -0.135159,0.4725 -0.331244,0.7686 -0.616026,0.933 z m -2.645252,0.4808 c -0.243792,0 -0.502769,0.01 -0.771454,-0.024 -1.72882,-0.1965 -3.850896,-1.045 -5.529446,-3.9523 -1.67855,-2.9073 -1.352274,-5.1693 -0.658054,-6.7648 0.107892,-0.2479 0.244898,-0.4679 0.365204,-0.6799 0.0013,0.2742 -0.0098,0.5576 0.02318,0.8526 0.185714,1.6633 0.867573,3.6277 2.001723,5.5921 1.1341,1.9643 2.494491,3.5372 3.842027,4.5296 0.239024,0.176 0.490011,0.3082 0.726823,0.4464 z"
         style="font-size:medium;font-style:normal;font-variant:normal;font-weight:normal;font-stretch:normal;text-indent:0;text-align:start;text-decoration:none;line-height:normal;letter-spacing:normal;word-spacing:normal;text-transform:none;direction:ltr;block-progression:tb;writing-mode:lr-tb;text-anchor:start;baseline-shift:baseline;color:#000000;fill:#ffffff;fill-opacity:1;stroke:none;stroke-width:1;marker:none;visibility:visible;display:inline;overflow:visible;enable-background:accumulate;font-family:Sans;-inkscape-font-specification:Sans" />
      <path
         sodipodi:nodetypes="ccccsc"
         transform="translate(0,1004.3622)"
         inkscape:connector-curvature="0"
         id="path3864"
         d="m 20,21 8,-4 1,1 -6.972272,7.027728 C 22.027728,25.027728 22,26 21,24 20,22 20,21 20,21 z"
         style="fill:#ffffff;fill-opacity:1;stroke:none" />
      <path
         transform="matrix(1.1809573,0,0,1.1809573,-4.7627048,1000.7643)"
         d="M 30,17.5 C 30,18.328427 29.328427,19 28.5,19 27.671573,19 27,18.328427 27,17.5 27,16.671573 27.671573,16 28.5,16 c 0.828427,0 1.5,0.671573 1.5,1.5 z"
         sodipodi:ry="1.5"
         sodipodi:rx="1.5"
         sodipodi:cy="17.5"
         sodipodi:cx="28.5"
         id="path3866"
         style="fill:#ffffff;fill-opacity:1;stroke:none"
         sodipodi:type="arc" />
    </g>
    <path
       inkscape:connector-curvature="0"
       style="opacity:0.15;fill:#ffffff;fill-opacity:1;stroke:none"
       d="m 2,1004.3622 c -1.108,0 -2,0.892 -2,2 l 0,44 c 0,1.108 0.892,2 2,2 l 14.78125,0 12.84375,-48 -27.625,0 z"
       id="rect3790" />
  </g>
</svg>
