<?xml version="1.0" encoding="UTF-8" standalone="no"?>
<!-- Created with Inkscape (http://www.inkscape.org/) -->

<svg
   xmlns:dc="http://purl.org/dc/elements/1.1/"
   xmlns:cc="http://creativecommons.org/ns#"
   xmlns:rdf="http://www.w3.org/1999/02/22-rdf-syntax-ns#"
   xmlns:svg="http://www.w3.org/2000/svg"
   xmlns="http://www.w3.org/2000/svg"
   xmlns:xlink="http://www.w3.org/1999/xlink"
   xmlns:sodipodi="http://sodipodi.sourceforge.net/DTD/sodipodi-0.dtd"
   xmlns:inkscape="http://www.inkscape.org/namespaces/inkscape"
   width="48"
   height="48"
   id="svg2"
   version="1.1"
   inkscape:version="0.48.4 r9939"
   sodipodi:docname="gpicview.svg">
  <defs
     id="defs4">
    <linearGradient
       id="linearGradient3795">
      <stop
         style="stop-color:#000000;stop-opacity:1;"
         offset="0"
         id="stop3797" />
      <stop
         style="stop-color:#5a5e60;stop-opacity:1;"
         offset="1"
         id="stop3799" />
    </linearGradient>
    <linearGradient
       inkscape:collect="always"
       id="linearGradient3914">
      <stop
         style="stop-color:#59b3e1;stop-opacity:1;"
         offset="0"
         id="stop3916" />
      <stop
         style="stop-color:#59b3e1;stop-opacity:0;"
         offset="1"
         id="stop3918" />
    </linearGradient>
    <linearGradient
       id="linearGradient3698">
      <stop
         id="stop3700"
         offset="0"
         style="stop-color:#96d0e1;stop-opacity:1" />
      <stop
         style="stop-color:#89b7e1;stop-opacity:1"
         offset="0.67819428"
         id="stop3706" />
      <stop
         id="stop3702"
         offset="1"
         style="stop-color:#699dd3;stop-opacity:1" />
    </linearGradient>
    <linearGradient
       id="linearGradient3708">
      <stop
         id="stop3710"
         offset="0"
         style="stop-color:#658db6;stop-opacity:1" />
      <stop
         style="stop-color:#527fab;stop-opacity:1;"
         offset="0.76777935"
         id="stop3716" />
      <stop
         id="stop3712"
         offset="1"
         style="stop-color:#4071a0;stop-opacity:1" />
    </linearGradient>
    <linearGradient
       id="linearGradient3750">
      <stop
         style="stop-color:#d0e2f1;stop-opacity:1"
         offset="0"
         id="stop3752" />
      <stop
         id="stop3756"
         offset="0.85580856"
         style="stop-color:#cadef0;stop-opacity:1" />
      <stop
         style="stop-color:#95bee3;stop-opacity:1"
         offset="1"
         id="stop3754" />
    </linearGradient>
    <linearGradient
       id="linearGradient3803">
      <stop
         id="stop3805"
         offset="0"
         style="stop-color:#d7def0;stop-opacity:1;" />
      <stop
         style="stop-color:#ffffff;stop-opacity:1"
         offset="0.5"
         id="stop3811" />
      <stop
         id="stop3807"
         offset="1"
         style="stop-color:#d5def0;stop-opacity:1" />
    </linearGradient>
    <linearGradient
       inkscape:collect="always"
       xlink:href="#linearGradient3914"
       id="linearGradient3920"
       x1="6.8000002"
       y1="25.0625"
       x2="45.325001"
       y2="25.0625"
       gradientUnits="userSpaceOnUse" />
    <linearGradient
       inkscape:collect="always"
       xlink:href="#linearGradient3795"
       id="linearGradient3801"
       x1="23.204165"
       y1="1053.158"
       x2="23.204165"
       y2="1004.8474"
       gradientUnits="userSpaceOnUse" />
    <linearGradient
       inkscape:collect="always"
       xlink:href="#linearGradient6504"
       id="linearGradient6461-7"
       gradientUnits="userSpaceOnUse"
       gradientTransform="matrix(1.025792,0,0,1.1190459,6.1124174,1004.7058)"
       x1="20"
       y1="28"
       x2="20"
       y2="26" />
    <linearGradient
       id="linearGradient6504">
      <stop
         offset="0"
         style="stop-color:#dcdcdc"
         id="stop6506" />
      <stop
         offset="1"
         style="stop-color:#fff"
         id="stop6508" />
    </linearGradient>
    <linearGradient
       inkscape:collect="always"
       xlink:href="#linearGradient6504"
       id="linearGradient6457-8"
       gradientUnits="userSpaceOnUse"
       gradientTransform="matrix(1.0231063,0,0,1.0172873,5.2309538,1007.2738)"
       x1="16"
       y1="27.045"
       x2="16"
       y2="16" />
    <linearGradient
       id="linearGradient3156">
      <stop
         offset="0"
         style="stop-color:#dcdcdc"
         id="stop3158" />
      <stop
         offset="1"
         style="stop-color:#fff"
         id="stop3160" />
    </linearGradient>
    <linearGradient
       y2="26"
       x2="20"
       y1="28"
       x1="20"
       gradientTransform="matrix(1.025792,0,0,1.1190459,5.9503442,1005.6461)"
       gradientUnits="userSpaceOnUse"
       id="linearGradient3164"
       xlink:href="#linearGradient6504"
       inkscape:collect="always" />
  </defs>
  <sodipodi:namedview
     id="base"
     pagecolor="#ffffff"
     bordercolor="#666666"
     borderopacity="1.0"
     inkscape:pageopacity="0.0"
     inkscape:pageshadow="2"
     inkscape:zoom="5.6568545"
     inkscape:cx="30.72104"
     inkscape:cy="2.9131946"
     inkscape:document-units="px"
     inkscape:current-layer="layer1"
     showgrid="true"
     inkscape:window-width="1366"
     inkscape:window-height="709"
     inkscape:window-x="0"
     inkscape:window-y="27"
     inkscape:window-maximized="1">
    <inkscape:grid
       type="xygrid"
       id="grid3795" />
  </sodipodi:namedview>
  <metadata
     id="metadata7">
    <rdf:RDF>
      <cc:Work
         rdf:about="">
        <dc:format>image/svg+xml</dc:format>
        <dc:type
           rdf:resource="http://purl.org/dc/dcmitype/StillImage" />
        <dc:title />
      </cc:Work>
    </rdf:RDF>
  </metadata>
  <g
     inkscape:label="Capa 1"
     inkscape:groupmode="layer"
     id="layer1"
     transform="translate(0,-1004.3622)">
    <rect
       style="fill:url(#linearGradient3801);fill-opacity:1;stroke:none"
       id="rect2991"
       width="48"
       height="48"
       x="0"
       y="1004.3622"
       ry="1.9445436" />
    <path
       inkscape:connector-curvature="0"
       style="font-size:medium;font-style:normal;font-variant:normal;font-weight:normal;font-stretch:normal;text-indent:0;text-align:start;text-decoration:none;line-height:normal;letter-spacing:normal;word-spacing:normal;text-transform:none;direction:ltr;block-progression:tb;writing-mode:lr-tb;text-anchor:start;baseline-shift:baseline;color:#000000;fill:#ffffff;fill-opacity:1;fill-rule:nonzero;stroke:none;stroke-width:3.00000024;marker:none;visibility:visible;display:inline;overflow:visible;enable-background:accumulate;font-family:Sans;-inkscape-font-specification:Sans"
       d="m 12.156366,1012.3622 0.187493,0 23.437388,0 c 1.209135,0.02 2.26719,1.2366 2.24999,2.5625 l 0,26.9374 c -0.012,1.3051 -1.059856,2.4799 -2.24999,2.4999 l -23.437388,0 c -1.209109,0.02 -2.299891,-1.174 -2.31249,-2.4999 l 0,-26.9374 c -0.02052,-1.2663 0.97424,-2.4545 2.124997,-2.5625 z m -0.156366,2 0,24 24,0 0,-24 z"
       id="path3912-4"
       sodipodi:nodetypes="ccccccccccccccc" />
    <path
       style="font-size:medium;font-style:normal;font-variant:normal;font-weight:normal;font-stretch:normal;text-indent:0;text-align:start;text-decoration:none;line-height:normal;letter-spacing:normal;word-spacing:normal;text-transform:none;direction:ltr;block-progression:tb;writing-mode:lr-tb;text-anchor:start;baseline-shift:baseline;color:#000000;fill:#ffffff;fill-opacity:1;stroke:none;stroke-width:3;marker:none;visibility:visible;display:inline;overflow:visible;enable-background:accumulate;font-family:Sans;-inkscape-font-specification:Sans"
       d="m 23.993923,1019.3513 c -0.232265,0 -0.454727,0.021 -0.678623,0.029 -2.734088,0.1033 -4.848975,0.7972 -6.314147,1.5261 -1.585155,0.7882 -2.507955,1.6727 -2.507955,1.6727 -0.520033,0.5236 -0.517127,1.4691 0.0061,1.9895 0.523242,0.5204 1.473854,0.5233 2.000248,0.01 0,0 0.392563,-0.3846 1.26873,-0.8804 -0.257357,0.6999 -0.383569,1.4463 -0.383569,2.2304 0,3.6138 2.975815,6.5735 6.6092,6.5735 3.633385,0 6.6092,-2.9598 6.6092,-6.5735 0,-0.7842 -0.126212,-1.5306 -0.383569,-2.2304 0.876167,0.4958 1.26873,0.8804 1.26873,0.8804 0.524081,0.5276 1.485108,0.5305 2.012401,0.01 0.527294,-0.5245 0.524411,-1.4803 -0.006,-2.0016 0,0 -0.922801,-0.8845 -2.507956,-1.6727 -1.465172,-0.7288 -3.580059,-1.4228 -6.314147,-1.5261 -0.221469,-0.023 -0.451536,-0.029 -0.678623,-0.029 z m 0,2.066 c 2.102581,0 5.014123,0.958 5.014123,4.5077 0,3.1077 -1.983464,4.9495 -5.014123,4.9495 -2.986464,0 -4.969929,-1.886 -4.969929,-4.9495 0,-3.152 2.867348,-4.5077 4.969929,-4.5077 z"
       id="path3029"
       inkscape:connector-curvature="0"
       sodipodi:nodetypes="scccsccsssccscccssssss" />
    <path
       transform="matrix(0.94417148,0,0,0.93909329,1.3338078,1003.3867)"
       sodipodi:type="arc"
       style="opacity:1;fill:#ffffff;fill-opacity:1;stroke:#ffffff;stroke-width:3.18596815999999983;stroke-linecap:round;stroke-linejoin:round;stroke-miterlimit:4;stroke-opacity:1;stroke-dasharray:none"
       id="path3835"
       sodipodi:cx="24"
       sodipodi:cy="24"
       sodipodi:rx="1"
       sodipodi:ry="1"
       d="m 25,24 c 0,0.552285 -0.447715,1 -1,1 -0.552285,0 -1,-0.447715 -1,-1 0,-0.552285 0.447715,-1 1,-1 0.552285,0 1,0.447715 1,1 z" />
    <path
       inkscape:connector-curvature="0"
       style="opacity:0.15;fill:#ffffff;fill-opacity:1;stroke:none"
       d="m 2,1004.3622 c -1.108,0 -2,0.892 -2,2 l 0,44 c 0,1.108 0.892,2 2,2 l 14.78125,0 12.84375,-48 -27.625,0 z"
       id="rect3790" />
  </g>
</svg>
