<?xml version="1.0" encoding="UTF-8" standalone="no"?>
<!-- Created with Inkscape (http://www.inkscape.org/) -->

<svg
   xmlns:dc="http://purl.org/dc/elements/1.1/"
   xmlns:cc="http://creativecommons.org/ns#"
   xmlns:rdf="http://www.w3.org/1999/02/22-rdf-syntax-ns#"
   xmlns:svg="http://www.w3.org/2000/svg"
   xmlns="http://www.w3.org/2000/svg"
   xmlns:xlink="http://www.w3.org/1999/xlink"
   xmlns:sodipodi="http://sodipodi.sourceforge.net/DTD/sodipodi-0.dtd"
   xmlns:inkscape="http://www.inkscape.org/namespaces/inkscape"
   width="48"
   height="48"
   id="svg2"
   version="1.1"
   inkscape:version="0.48.2 r9819"
   sodipodi:docname="abiword.svg">
  <defs
     id="defs4"><linearGradient
   id="linearGradient3795">
  <stop
     style="stop-color:#68b8d8;stop-opacity:1;"
     offset="0"
     id="stop3797" />
  <stop
     style="stop-color:#3097bd;stop-opacity:1;"
     offset="1"
     id="stop3799" />
</linearGradient>
<linearGradient
   id="linearGradient3698">
  <stop
     id="stop3700"
     offset="0"
     style="stop-color:#96d0e1;stop-opacity:1" />
  <stop
     style="stop-color:#89b7e1;stop-opacity:1"
     offset="0.67819428"
     id="stop3706" />
  <stop
     id="stop3702"
     offset="1"
     style="stop-color:#699dd3;stop-opacity:1" />
</linearGradient>
<linearGradient
   id="linearGradient3708">
  <stop
     id="stop3710"
     offset="0"
     style="stop-color:#658db6;stop-opacity:1" />
  <stop
     style="stop-color:#527fab;stop-opacity:1;"
     offset="0.76777935"
     id="stop3716" />
  <stop
     id="stop3712"
     offset="1"
     style="stop-color:#4071a0;stop-opacity:1" />
</linearGradient>
<linearGradient
   id="linearGradient3750">
  <stop
     style="stop-color:#d0e2f1;stop-opacity:1"
     offset="0"
     id="stop3752" />
  <stop
     id="stop3756"
     offset="0.85580856"
     style="stop-color:#cadef0;stop-opacity:1" />
  <stop
     style="stop-color:#95bee3;stop-opacity:1"
     offset="1"
     id="stop3754" />
</linearGradient>
<linearGradient
   id="linearGradient3803">
  <stop
     id="stop3805"
     offset="0"
     style="stop-color:#d7def0;stop-opacity:1;" />
  <stop
     style="stop-color:#ffffff;stop-opacity:1"
     offset="0.5"
     id="stop3811" />
  <stop
     id="stop3807"
     offset="1"
     style="stop-color:#d5def0;stop-opacity:1" />
</linearGradient>
<linearGradient
   inkscape:collect="always"
   xlink:href="#linearGradient3795"
   id="linearGradient3859"
   x1="26.192217"
   y1="1024.0002"
   x2="28.641211"
   y2="1024.0002"
   gradientUnits="userSpaceOnUse" />
<linearGradient
   inkscape:collect="always"
   xlink:href="#linearGradient3795"
   id="linearGradient3867"
   gradientUnits="userSpaceOnUse"
   x1="26.192217"
   y1="1024.0002"
   x2="28.641211"
   y2="1024.0002" />
<linearGradient
   inkscape:collect="always"
   xlink:href="#linearGradient3795"
   id="linearGradient3869"
   gradientUnits="userSpaceOnUse"
   x1="26.192217"
   y1="1024.0002"
   x2="28.641211"
   y2="1024.0002" />
<linearGradient
   inkscape:collect="always"
   xlink:href="#linearGradient3795"
   id="linearGradient3871"
   gradientUnits="userSpaceOnUse"
   x1="26.192217"
   y1="1024.0002"
   x2="28.641211"
   y2="1024.0002" />
<linearGradient
   inkscape:collect="always"
   xlink:href="#linearGradient3795"
   id="linearGradient3877"
   gradientUnits="userSpaceOnUse"
   x1="29.718235"
   y1="1027.8575"
   x2="22.811094"
   y2="1015.5485" />
<linearGradient
   inkscape:collect="always"
   xlink:href="#linearGradient3795"
   id="linearGradient3879"
   gradientUnits="userSpaceOnUse"
   x1="17.196316"
   y1="1006.2238"
   x2="31.448042"
   y2="1030.9086" />
<linearGradient
   inkscape:collect="always"
   xlink:href="#linearGradient3795"
   id="linearGradient3895"
   x1="21.973417"
   y1="34.43922"
   x2="42.475323"
   y2="24.798252"
   gradientUnits="userSpaceOnUse" />
<inkscape:perspective
   sodipodi:type="inkscape:persp3d"
   inkscape:vp_x="0 : 0.5 : 1"
   inkscape:vp_y="0 : 1000 : 0"
   inkscape:vp_z="1 : 0.5 : 1"
   inkscape:persp3d-origin="0.5 : 0.33333333 : 1"
   id="perspective2861" />

	
	
<inkscape:perspective
   id="perspective35"
   inkscape:persp3d-origin="305.65302 : 189.50401 : 1"
   inkscape:vp_z="611.30603 : 284.25601 : 1"
   inkscape:vp_y="0 : 1000 : 0"
   inkscape:vp_x="0 : 284.25601 : 1"
   sodipodi:type="inkscape:persp3d" />
</defs>
  <sodipodi:namedview
     id="base"
     pagecolor="#ffffff"
     bordercolor="#666666"
     borderopacity="1.0"
     inkscape:pageopacity="0.0"
     inkscape:pageshadow="2"
     inkscape:zoom="11.313709"
     inkscape:cx="21.494784"
     inkscape:cy="31.669202"
     inkscape:document-units="px"
     inkscape:current-layer="layer1"
     showgrid="false"
     inkscape:window-width="1280"
     inkscape:window-height="746"
     inkscape:window-x="0"
     inkscape:window-y="0"
     inkscape:window-maximized="1">
    <inkscape:grid
       type="xygrid"
       id="grid3850" />
  </sodipodi:namedview>
  <metadata
     id="metadata7">
    <rdf:RDF>
      <cc:Work
         rdf:about="">
        <dc:format>image/svg+xml</dc:format>
        <dc:type
           rdf:resource="http://purl.org/dc/dcmitype/StillImage" />
        <dc:title></dc:title>
      </cc:Work>
    </rdf:RDF>
  </metadata>
  <g
     inkscape:label="Capa 1"
     inkscape:groupmode="layer"
     id="layer1"
     transform="translate(0,-1004.3622)">
    <rect
       style="fill:#94c147;fill-opacity:1;stroke:none"
       id="rect2991"
       width="48"
       height="48"
       x="0"
       y="-1052.3622"
       ry="1.9445436"
       transform="scale(1,-1)" />
    <g
       id="g3032"
       transform="matrix(0.57841109,0,0,0.57841109,9.7275693,432.85438)"
       style="fill:#ffffff">
      <path
         d="m 40.369276,1021.5755 c -1.436957,0 -2.602511,1.1836 -2.602511,2.6429 v 10.328 c 0,1.4598 1.165554,2.6429 2.602511,2.6429 1.436957,0 2.601292,-1.183 2.601292,-2.6429 v -10.328 c 1.02e-4,-1.4593 -1.164233,-2.6429 -2.601292,-2.6429 z m -31.3872651,0 c -1.437769,0 -2.602105,1.1836 -2.602105,2.6429 v 10.328 c 0,1.4598 1.164232,2.6429 2.602105,2.6429 1.4375661,0 2.6026121,-1.183 2.6026121,-2.6429 v -10.328 c -8.06e-4,-1.4593 -1.165553,-2.6429 -2.6026121,-2.6429 z"
         id="path23"
         style="fill:#ffffff"
         inkscape:connector-curvature="0" />
      <path
         d="m 13.149868,1021.6562 v 18.869 c 0,1.1209 0.908878,2.0294 2.029739,2.0294 h 2.317395 v 5.7458 c 0,1.4595 1.165045,2.6425 2.602612,2.6425 1.437059,0 2.602613,-1.183 2.602613,-2.6425 v -5.7458 h 4.05054 v 5.7458 c 0,1.4595 1.164334,2.6425 2.601291,2.6425 1.436958,0 2.602512,-1.183 2.602512,-2.6425 v -5.7458 h 2.318715 c 1.119541,0 2.028521,-0.9093 2.028521,-2.0294 v -18.869 H 13.149868 l 0,0 z"
         id="path25"
         style="fill:#ffffff"
         inkscape:connector-curvature="0" />
      <path
         d="m 30.1637,1011.8788 2.138828,-3.1053 c 0.126459,-0.1847 0.09538,-0.4265 -0.07059,-0.5413 -0.166276,-0.114 -0.403044,-0.058 -0.530721,0.1271 l -2.221916,3.2249 c -1.463061,-0.5771 -3.089656,-0.8983 -4.803706,-0.8983 -1.713541,0 -3.34105,0.3212 -4.804112,0.8983 l -2.221916,-3.2249 c -0.127677,-0.1847 -0.364546,-0.2413 -0.53072,-0.1271 -0.166174,0.1142 -0.197662,0.3564 -0.07069,0.5413 l 2.138829,3.1053 c -3.399049,1.5815 -5.784701,4.5876 -6.088405,8.0961 H 36.25282 c -0.303805,-3.5085 -2.689457,-6.5145 -6.089115,-8.0961 z m -10.372157,4.8933 c -0.707459,0 -1.281551,-0.5735 -1.281551,-1.2814 0,-0.7068 0.573585,-1.2809 1.281551,-1.2809 0.707965,0 1.280128,0.5741 1.280128,1.2809 0,0.7074 -0.572874,1.2814 -1.280128,1.2814 z m 9.928179,0 c -0.707966,0 -1.280738,-0.5735 -1.280738,-1.2814 0,-0.7068 0.572874,-1.2809 1.280738,-1.2809 0.708068,0 1.28084,0.5741 1.28084,1.2809 0,0.7074 -0.572873,1.2814 -1.28084,1.2814 z"
         id="path27"
         style="fill:#ffffff"
         inkscape:connector-curvature="0" />
    </g>
    <path
       style="fill:#ffffff;stroke:none;fill-opacity:1;opacity:0.15"
       d="M 0 0 L 0 48 L 16.78125 48 L 29.625 0 L 0 0 z "
       transform="translate(0,1004.3622)"
       id="rect3790" />
    <g
       id="g4000">
      <path
         style="fill:#94c147;fill-opacity:1"
         d="m 25.778876,1026.4247 c -1.372484,0.3405 -3.90625,2.0249 -3.90625,2.5938 0,0.1379 0.133274,0.3332 0.3125,0.4375 0.331322,0.1928 0.665234,0.1875 0.875,0.1875 0.768461,-0.042 1.69875,-0.09 2.125,0.2187 0.07341,0.3875 -0.98053,1.3316 -2.21875,2.0313 -1.262949,0.7138 -0.461826,0.5338 0.96875,-0.2188 1.313599,-0.691 2.26811,-1.5459 2.1875,-1.9687 -0.05119,-0.2685 -0.297022,-0.3248 -1.375,-0.3438 -0.533218,-0.01 -0.83529,10e-5 -1.0625,-0.031 -0.2098,-0.014 -0.437496,0.012 -0.65625,-0.125 -0.292693,-0.214 -0.292729,-0.272 0,-0.7188 0.344848,-0.5263 1.570731,-1.4222 2.5625,-1.875 0.404662,-0.1863 0.482287,-0.2605 0.1875,-0.1875 z"
         id="path3864"
         inkscape:connector-curvature="0"
         sodipodi:nodetypes="cscccccscccccc" />
    </g>
  </g>
</svg>
