<?xml version="1.0" encoding="UTF-8" standalone="no"?>
<!-- Created with Inkscape (http://www.inkscape.org/) -->

<svg
   xmlns:dc="http://purl.org/dc/elements/1.1/"
   xmlns:cc="http://creativecommons.org/ns#"
   xmlns:rdf="http://www.w3.org/1999/02/22-rdf-syntax-ns#"
   xmlns:svg="http://www.w3.org/2000/svg"
   xmlns="http://www.w3.org/2000/svg"
   xmlns:xlink="http://www.w3.org/1999/xlink"
   xmlns:sodipodi="http://sodipodi.sourceforge.net/DTD/sodipodi-0.dtd"
   xmlns:inkscape="http://www.inkscape.org/namespaces/inkscape"
   width="48"
   height="48"
   id="svg2"
   version="1.1"
   inkscape:version="0.48.3.1 r9886"
   sodipodi:docname="ubuntuone.svg">
  <defs
     id="defs4">
    <linearGradient
       id="linearGradient3795">
      <stop
         style="stop-color:#cd5c24;stop-opacity:1;"
         offset="0"
         id="stop3797" />
      <stop
         style="stop-color:#ff6700;stop-opacity:1;"
         offset="1"
         id="stop3799" />
    </linearGradient>
    <linearGradient
       inkscape:collect="always"
       id="linearGradient3914">
      <stop
         style="stop-color:#59b3e1;stop-opacity:1;"
         offset="0"
         id="stop3916" />
      <stop
         style="stop-color:#59b3e1;stop-opacity:0;"
         offset="1"
         id="stop3918" />
    </linearGradient>
    <linearGradient
       id="linearGradient3698">
      <stop
         id="stop3700"
         offset="0"
         style="stop-color:#96d0e1;stop-opacity:1" />
      <stop
         style="stop-color:#89b7e1;stop-opacity:1"
         offset="0.67819428"
         id="stop3706" />
      <stop
         id="stop3702"
         offset="1"
         style="stop-color:#699dd3;stop-opacity:1" />
    </linearGradient>
    <linearGradient
       id="linearGradient3708">
      <stop
         id="stop3710"
         offset="0"
         style="stop-color:#658db6;stop-opacity:1" />
      <stop
         style="stop-color:#527fab;stop-opacity:1;"
         offset="0.76777935"
         id="stop3716" />
      <stop
         id="stop3712"
         offset="1"
         style="stop-color:#4071a0;stop-opacity:1" />
    </linearGradient>
    <linearGradient
       id="linearGradient3750">
      <stop
         style="stop-color:#d0e2f1;stop-opacity:1"
         offset="0"
         id="stop3752" />
      <stop
         id="stop3756"
         offset="0.85580856"
         style="stop-color:#cadef0;stop-opacity:1" />
      <stop
         style="stop-color:#95bee3;stop-opacity:1"
         offset="1"
         id="stop3754" />
    </linearGradient>
    <linearGradient
       id="linearGradient3803">
      <stop
         id="stop3805"
         offset="0"
         style="stop-color:#d7def0;stop-opacity:1;" />
      <stop
         style="stop-color:#ffffff;stop-opacity:1"
         offset="0.5"
         id="stop3811" />
      <stop
         id="stop3807"
         offset="1"
         style="stop-color:#d5def0;stop-opacity:1" />
    </linearGradient>
    <linearGradient
       inkscape:collect="always"
       xlink:href="#linearGradient3914"
       id="linearGradient3920"
       x1="6.8000002"
       y1="25.0625"
       x2="45.325001"
       y2="25.0625"
       gradientUnits="userSpaceOnUse" />
    <linearGradient
       inkscape:collect="always"
       xlink:href="#linearGradient3795"
       id="linearGradient3801"
       x1="23.204165"
       y1="1053.158"
       x2="23.204165"
       y2="1004.8474"
       gradientUnits="userSpaceOnUse" />
  </defs>
  <sodipodi:namedview
     id="base"
     pagecolor="#ffffff"
     bordercolor="#666666"
     borderopacity="1.0"
     inkscape:pageopacity="0.0"
     inkscape:pageshadow="2"
     inkscape:zoom="5"
     inkscape:cx="12.026254"
     inkscape:cy="36.484453"
     inkscape:document-units="px"
     inkscape:current-layer="layer1"
     showgrid="false"
     inkscape:window-width="1301"
     inkscape:window-height="744"
     inkscape:window-x="65"
     inkscape:window-y="24"
     inkscape:window-maximized="1" />
  <metadata
     id="metadata7">
    <rdf:RDF>
      <cc:Work
         rdf:about="">
        <dc:format>image/svg+xml</dc:format>
        <dc:type
           rdf:resource="http://purl.org/dc/dcmitype/StillImage" />
        <dc:title></dc:title>
      </cc:Work>
    </rdf:RDF>
  </metadata>
  <g
     inkscape:label="Capa 1"
     inkscape:groupmode="layer"
     id="layer1"
     transform="translate(0,-1004.3622)">
    <rect
       style="fill:url(#linearGradient3801);fill-opacity:1;stroke:none"
       id="rect2991"
       width="48"
       height="48"
       x="0"
       y="1004.3622"
       ry="1.9445436" />
    <path
       style="fill:#ffffff;stroke:none;fill-opacity:1;opacity:0.15"
       d="M 0 0 L 0 48 L 16.78125 48 L 29.625 0 L 0 0 z "
       id="rect3790"
       transform="translate(0,1004.3622)" />
    <g
       id="normal"
       transform="matrix(0.04917787,0,0,0.04917787,181.00969,1017.2632)"
       inkscape:label="#g3132"
       style="fill:#ffffff;fill-opacity:1">
      <rect
         y="-79.323952"
         x="-3518.0396"
         height="650.69916"
         width="650.69916"
         id="rect3134"
         style="opacity:0.00100002;fill:#ffffff;fill-opacity:1;stroke:none" />
      <g
         id="g4412"
         transform="translate(2.3239781,21.816943)"
         style="fill:#ffffff;fill-opacity:1">
        <path
           inkscape:connector-curvature="0"
           style="fill:#ffffff;fill-opacity:1;fill-rule:nonzero;stroke:none"
           d="m -3235.7166,-88.804688 4.8125,120.176001 c 19.7021,-12.432812 41.6668,-20.510764 64.3582,-23.8928601 l -69.1707,-96.2831409 z m 232.0488,27.349699 -86.9971,75.270981 c 15.0928,4.929631 29.7222,12.133283 43.346,21.62219 4.7057,3.277442 9.1633,6.77097 13.4207,10.438299 l 30.2304,-107.33147 z m -139.697,103.264601 c -40.6089,0.39787 -80.4219,19.785234 -105.3997,55.648334 -2.0647,2.964464 -3.9768,5.980194 -5.7614,9.048784 34.7853,5.8972 65.0538,25.10786 87.1327,51.4459 0,0.005 0.034,-0.005 0.034,0 8.4159,-2.40934 17.2896,-3.76185 26.5702,-3.76185 54.3003,0 99.208,44.44571 99.9433,98.5877 1.783,-2.23294 3.5287,-4.5351 5.1853,-6.91368 40.9892,-58.85227 26.554,-139.7827 -32.2977,-180.772359 -22.9888,-16.011581 -49.3751,-23.537871 -75.4066,-23.282829 z m -258.4157,33.721128 60.732,44.6 c 14.336,-7.38958 30.0078,-12.37212 46.5995,-14.43738 3.5647,-8.248233 7.8291,-16.33343 12.8445,-24.096206 l -120.176,-6.066414 z m 416.2103,41.85487 c 6.6285,19.28363 9.7461,39.70692 9.0826,60.12189 l 96.1476,-40.46535 -105.2302,-19.65654 z m -286.1721,63.40928 c 2.6909,37.79426 21.8292,74.09315 55.3433,97.43542 28.6785,19.97423 62.5747,26.74579 94.5547,21.65608 l -8.9471,-3.9652 12.6073,-33.48389 c 0.9437,-2.50554 1.4234,-4.94789 1.4234,-8.3032 0,-13.67587 -10.3525,-24.02842 -24.0284,-24.02842 -5.3311,0 -10.5028,2.04175 -15.2169,5.96474 l -36.7035,30.56931 -21.4866,-42.73603 c -12.7141,-25.30105 -33.7726,-41.035 -57.5462,-43.10881 z m -28.6036,40.56702 -49.582,56.08891 0,22.3339 -11.0822,3.82963 91.9791,-24.90958 c -14.3355,-17.05066 -24.8405,-36.59906 -31.3149,-57.34286 z m 293.7974,45.88785 c -2.9434,4.17896 -6.0327,8.20987 -9.286,12.03115 15.9247,18.26755 27.4381,40.44172 33.0772,64.76491 l 24.0623,13.11565 -47.8535,-89.91171 z m -191.5835,60.69803 18.5043,105.23025 41.516,-95.77478 c -20.1727,0.54566 -40.5466,-2.53227 -60.0203,-9.45547 z"
           id="path3930" />
        <path
           inkscape:connector-curvature="0"
           id="path3936"
           style="fill:#ffffff;fill-opacity:1;fill-rule:evenodd"
           d="m -3277.1131,129.00847 c 41.874,0 77.7584,26.34171 96.836,64.30609 10.74,-8.93758 24.4576,-14.72162 39.5114,-14.72162 34.2133,0 61.9807,27.76735 61.9807,61.98065 0,7.68309 -1.314,14.90019 -3.8726,21.69316 38.9115,17.37938 65.8532,56.74947 65.8532,102.26813 0,61.80715 -49.758,111.56511 -111.5652,111.56511 H -3351.49 c -61.8071,0 -111.5652,-49.75796 -111.5652,-111.56511 0,-48.96471 31.4366,-90.26862 75.1453,-105.36715 0,-2.10733 -0.7685,-4.05353 -0.7685,-6.19805 0,-68.42668 49.9812,-123.96121 111.5653,-123.96121 z" />
        <path
           style="fill:#ffffff;fill-opacity:1;fill-rule:nonzero;stroke:none"
           d="m -3235.7166,-88.804686 0.5761,14.369606 59.9525,83.4386094 c 2.8666,-0.5832466 5.7487,-1.093822 8.6421,-1.5250761 l -69.1707,-96.2831393 z m 232.0488,27.349699 -86.9971,75.270979 c 3.6919,1.205869 7.352,2.554805 10.9805,4.03298 l 70.9669,-61.375842 5.0497,-17.928117 z m -139.697,103.264601 c -40.6089,0.39787 -80.4219,19.785234 -105.3997,55.648334 -2.0647,2.964462 -3.9768,5.980212 -5.7614,9.048792 2.6493,0.44913 5.2674,0.99201 7.8626,1.59286 25.0741,-33.99313 63.8068,-52.346826 103.2985,-52.733754 26.0315,-0.255041 52.4178,7.271249 75.4066,23.28283 34.2136,23.829474 53.4172,61.166144 55.445,99.807774 2.2444,-43.30775 -17.239,-86.753849 -55.445,-113.364007 -22.9888,-16.011581 -49.3751,-23.537871 -75.4066,-23.282829 z m -258.4157,33.721128 19.826,14.57295 92.6908,4.6769 c 2.3286,-4.477092 4.8773,-8.877543 7.6592,-13.183436 l -120.176,-6.066414 z m 416.2103,41.854878 c 1.6199,4.71277 3.0397,9.50357 4.2363,14.33572 l 78.6939,14.70851 22.3,-9.38769 -105.2302,-19.65654 z m -291.5268,11.62447 c -61.5841,0 -111.5678,55.54507 -111.5678,123.97175 0,1.1205 0.2123,2.18897 0.4067,3.25349 4.7214,-63.60928 52.7019,-113.66901 111.1611,-113.66901 41.874,0 77.7478,26.32606 96.8254,64.29044 10.74,-8.93758 24.4626,-14.70852 39.5164,-14.70852 31.9218,0 58.2313,24.18023 61.6131,55.20776 0.2383,-2.22439 0.3728,-4.47037 0.3728,-6.77812 0,-34.21328 -27.7726,-61.98587 -61.9859,-61.98587 -15.0538,0 -28.7764,5.77093 -39.5164,14.70851 -19.0776,-37.96438 -54.9514,-64.29043 -96.8254,-64.29043 z m -111.3983,130.37707 c -43.4079,15.26159 -74.5593,56.41358 -74.5593,105.16247 0,2.34571 0.096,4.67261 0.2372,6.98146 2.6707,-46.0592 33.1616,-84.37375 74.8982,-98.79104 0,-2.10734 -0.7456,-4.05746 -0.7456,-6.20198 0,-2.40239 0.048,-4.78212 0.1695,-7.15091 z m 308.9804,4.37188 c -0.6435,4.16144 -1.6912,8.18698 -3.1518,12.06505 36.966,16.51047 63.1226,52.88127 65.646,95.50366 0.1331,-2.24162 0.2034,-4.50185 0.2034,-6.77812 0,-44.27956 -25.4903,-82.73036 -62.6976,-100.79059 z m 72.9664,3.49073 c -2.9434,4.17898 -6.0327,8.20987 -9.286,12.03116 1.8953,2.1742 3.7223,4.39452 5.4903,6.67644 1.285,-1.69351 2.5631,-3.40142 3.7957,-5.15137 l 37.6863,70.83132 10.1672,5.52416 -47.8535,-89.91171 z"
           id="path3873"
           inkscape:connector-curvature="0" />
      </g>
    </g>
  </g>
</svg>
