<?xml version="1.0" encoding="UTF-8" standalone="no"?>
<!-- Created with Inkscape (http://www.inkscape.org/) -->

<svg
   xmlns:dc="http://purl.org/dc/elements/1.1/"
   xmlns:cc="http://creativecommons.org/ns#"
   xmlns:rdf="http://www.w3.org/1999/02/22-rdf-syntax-ns#"
   xmlns:svg="http://www.w3.org/2000/svg"
   xmlns="http://www.w3.org/2000/svg"
   xmlns:xlink="http://www.w3.org/1999/xlink"
   xmlns:sodipodi="http://sodipodi.sourceforge.net/DTD/sodipodi-0.dtd"
   xmlns:inkscape="http://www.inkscape.org/namespaces/inkscape"
   width="48"
   height="48"
   id="svg2"
   version="1.1"
   inkscape:version="0.48.4 r9939"
   sodipodi:docname="input-keyboard.svg">
  <defs
     id="defs4">
    <linearGradient
       id="linearGradient3795">
      <stop
         style="stop-color:#68b89c;stop-opacity:1;"
         offset="0"
         id="stop3797" />
      <stop
         style="stop-color:#309784;stop-opacity:1;"
         offset="1"
         id="stop3799" />
    </linearGradient>
    <linearGradient
       id="linearGradient3698">
      <stop
         id="stop3700"
         offset="0"
         style="stop-color:#96d0e1;stop-opacity:1" />
      <stop
         style="stop-color:#89b7e1;stop-opacity:1"
         offset="0.67819428"
         id="stop3706" />
      <stop
         id="stop3702"
         offset="1"
         style="stop-color:#699dd3;stop-opacity:1" />
    </linearGradient>
    <linearGradient
       id="linearGradient3708">
      <stop
         id="stop3710"
         offset="0"
         style="stop-color:#658db6;stop-opacity:1" />
      <stop
         style="stop-color:#527fab;stop-opacity:1;"
         offset="0.76777935"
         id="stop3716" />
      <stop
         id="stop3712"
         offset="1"
         style="stop-color:#4071a0;stop-opacity:1" />
    </linearGradient>
    <linearGradient
       id="linearGradient3750">
      <stop
         style="stop-color:#d0e2f1;stop-opacity:1"
         offset="0"
         id="stop3752" />
      <stop
         id="stop3756"
         offset="0.85580856"
         style="stop-color:#cadef0;stop-opacity:1" />
      <stop
         style="stop-color:#95bee3;stop-opacity:1"
         offset="1"
         id="stop3754" />
    </linearGradient>
    <linearGradient
       id="linearGradient3803">
      <stop
         id="stop3805"
         offset="0"
         style="stop-color:#d7def0;stop-opacity:1;" />
      <stop
         style="stop-color:#ffffff;stop-opacity:1"
         offset="0.5"
         id="stop3811" />
      <stop
         id="stop3807"
         offset="1"
         style="stop-color:#d5def0;stop-opacity:1" />
    </linearGradient>
    <linearGradient
       inkscape:collect="always"
       xlink:href="#linearGradient3881"
       id="linearGradient3801"
       x1="42.649601"
       y1="1005.2031"
       x2="42.649601"
       y2="1052.2235"
       gradientUnits="userSpaceOnUse"
       gradientTransform="translate(0,-2056.7244)" />
    <linearGradient
       inkscape:collect="always"
       xlink:href="#linearGradient3795"
       id="linearGradient3859"
       x1="26.192217"
       y1="1024.0002"
       x2="28.641211"
       y2="1024.0002"
       gradientUnits="userSpaceOnUse" />
    <linearGradient
       inkscape:collect="always"
       xlink:href="#linearGradient3795"
       id="linearGradient3867"
       gradientUnits="userSpaceOnUse"
       x1="26.192217"
       y1="1024.0002"
       x2="28.641211"
       y2="1024.0002" />
    <linearGradient
       inkscape:collect="always"
       xlink:href="#linearGradient3795"
       id="linearGradient3869"
       gradientUnits="userSpaceOnUse"
       x1="26.192217"
       y1="1024.0002"
       x2="28.641211"
       y2="1024.0002" />
    <linearGradient
       inkscape:collect="always"
       xlink:href="#linearGradient3795"
       id="linearGradient3871"
       gradientUnits="userSpaceOnUse"
       x1="26.192217"
       y1="1024.0002"
       x2="28.641211"
       y2="1024.0002" />
    <linearGradient
       inkscape:collect="always"
       xlink:href="#linearGradient3795"
       id="linearGradient3877"
       gradientUnits="userSpaceOnUse"
       x1="29.718235"
       y1="1027.8575"
       x2="22.811094"
       y2="1015.5485" />
    <linearGradient
       inkscape:collect="always"
       xlink:href="#linearGradient3795"
       id="linearGradient3879"
       gradientUnits="userSpaceOnUse"
       x1="17.196316"
       y1="1006.2238"
       x2="31.448042"
       y2="1030.9086" />
    <linearGradient
       inkscape:collect="always"
       xlink:href="#linearGradient3795"
       id="linearGradient3895"
       x1="21.973417"
       y1="34.43922"
       x2="42.475323"
       y2="24.798252"
       gradientUnits="userSpaceOnUse" />
    <linearGradient
       inkscape:collect="always"
       xlink:href="#linearGradient3881"
       id="linearGradient3801-3"
       x1="45"
       y1="1004.3622"
       x2="45"
       y2="1054.3622"
       gradientUnits="userSpaceOnUse"
       gradientTransform="translate(0,-2056.7244)" />
    <linearGradient
       id="linearGradient3881">
      <stop
         style="stop-color:#474845;stop-opacity:1;"
         offset="0"
         id="stop3883" />
      <stop
         style="stop-color:#838681;stop-opacity:1"
         offset="1"
         id="stop3885" />
    </linearGradient>
    <linearGradient
       y2="1054.3622"
       x2="45"
       y1="1004.3622"
       x1="45"
       gradientTransform="translate(-120.16652,-2056.6828)"
       gradientUnits="userSpaceOnUse"
       id="linearGradient3034"
       xlink:href="#linearGradient3881"
       inkscape:collect="always" />
  </defs>
  <sodipodi:namedview
     id="base"
     pagecolor="#ffffff"
     bordercolor="#666666"
     borderopacity="1.0"
     inkscape:pageopacity="0.0"
     inkscape:pageshadow="2"
     inkscape:zoom="8.0000004"
     inkscape:cx="11.635625"
     inkscape:cy="27.14481"
     inkscape:document-units="px"
     inkscape:current-layer="layer1"
     showgrid="true"
     inkscape:window-width="1366"
     inkscape:window-height="712"
     inkscape:window-x="0"
     inkscape:window-y="27"
     inkscape:window-maximized="1">
    <inkscape:grid
       type="xygrid"
       id="grid3850" />
  </sodipodi:namedview>
  <metadata
     id="metadata7">
    <rdf:RDF>
      <cc:Work
         rdf:about="">
        <dc:format>image/svg+xml</dc:format>
        <dc:type
           rdf:resource="http://purl.org/dc/dcmitype/StillImage" />
        <dc:title />
      </cc:Work>
    </rdf:RDF>
  </metadata>
  <g
     inkscape:label="Capa 1"
     inkscape:groupmode="layer"
     id="layer1"
     transform="translate(0,-1004.3622)">
    <path
       style="font-size:medium;font-style:normal;font-variant:normal;font-weight:normal;font-stretch:normal;text-indent:0;text-align:start;text-decoration:none;line-height:normal;letter-spacing:normal;word-spacing:normal;text-transform:none;direction:ltr;block-progression:tb;writing-mode:lr-tb;text-anchor:start;baseline-shift:baseline;color:#000000;fill:#729fcf;fill-opacity:1;stroke:none;stroke-width:2;marker:none;visibility:visible;display:inline;overflow:visible;enable-background:accumulate;font-family:Sans;-inkscape-font-specification:Sans"
       d="m 10.8125,1025.375 c -1.5421614,0 -2.8125,1.2703 -2.8125,2.8125 l 0,10.375 c 0,1.5422 1.2703386,2.8125 2.8125,2.8125 l 26.375,0 c 1.542161,0 2.8125,-1.2703 2.8125,-2.8125 l 0,-10.375 c 0,-1.5422 -1.270339,-2.8125 -2.8125,-2.8125 l -26.375,0 z m 0,2 26.375,0 c 0.468756,0 0.8125,0.3437 0.8125,0.8125 l 0,10.375 c 0,0.4688 -0.343744,0.8125 -0.8125,0.8125 l -26.375,0 c -0.468756,0 -0.8125,-0.3437 -0.8125,-0.8125 l 0,-10.375 c 0,-0.4688 0.343744,-0.8125 0.8125,-0.8125 z"
       id="rect3124"
       inkscape:connector-curvature="0" />
    <path
       style="font-size:medium;font-style:normal;font-variant:normal;font-weight:normal;font-stretch:normal;text-indent:0;text-align:start;text-decoration:none;line-height:normal;letter-spacing:normal;word-spacing:normal;text-transform:none;direction:ltr;block-progression:tb;writing-mode:lr-tb;text-anchor:start;baseline-shift:baseline;color:#000000;fill:#729fcf;fill-opacity:1;stroke:none;stroke-width:1px;marker:none;visibility:visible;display:inline;overflow:visible;enable-background:accumulate;font-family:Sans;-inkscape-font-specification:Sans"
       d="m 26,1017.875 c -2.166667,0 -3.787106,1.0734 -5.0625,2.0938 -0.637697,0.5101 -1.19147,1.0248 -1.6875,1.375 -0.49603,0.3501 -0.916667,0.5312 -1.25,0.5312 -0.9375,0 -1.538382,-0.1855 -1.90625,-0.4062 -0.367868,-0.2208 -0.531623,-0.4699 -0.625,-0.75 -0.186754,-0.5603 0,-1.1876 0,-1.1876 l -0.9375,-0.3124 c 0,0 -0.313246,0.8727 0,1.8124 0.156623,0.4699 0.492868,0.9395 1.0625,1.2813 0.569632,0.3418 1.34375,0.5625 2.40625,0.5625 0.666667,0 1.24603,-0.3189 1.8125,-0.7188 0.56647,-0.3998 1.137697,-0.9164 1.75,-1.4062 1.224606,-0.9797 2.604167,-1.875 4.4375,-1.875 0.833333,0 1.40775,0.3666 1.90625,1.0312 0.4985,0.6647 0.853261,1.6006 1.09375,2.5626 0.480978,1.9239 0.5,3.9062 0.5,3.9062 l 1,0 c 0,0 0.01902,-2.0489 -0.5,-4.125 -0.259511,-1.038 -0.65475,-2.1022 -1.28125,-2.9375 -0.6265,-0.8353 -1.552083,-1.4375 -2.71875,-1.4375 z"
       id="path3894"
       inkscape:connector-curvature="0" />
    <rect
       style="fill:#729fcf;fill-opacity:1;stroke:none"
       id="rect3896"
       width="2"
       height="3"
       x="14"
       y="1017.3622" />
    <rect
       style="fill:#729fcf;fill-opacity:1;stroke:none"
       id="rect3896-4"
       width="1.3333217"
       height="1.9999826"
       x="14.313135"
       y="1016.3622" />
    <path
       style="fill:#729fcf;fill-opacity:1;stroke:none"
       d="m 17,1036.3622 0,2 13,0 0,-2 z"
       id="path3916"
       inkscape:connector-curvature="0" />
    <path
       style="fill:#729fcf;fill-opacity:1;stroke:none"
       d="m 16,1036.3622 0,2 -2,0 0,-2 z"
       id="path3918"
       inkscape:connector-curvature="0" />
    <path
       style="fill:#729fcf;fill-opacity:1;stroke:none"
       d="m 13,1036.3622 0,2 -2,0 0,-2 z"
       id="path3918-6"
       inkscape:connector-curvature="0" />
    <path
       style="fill:#729fcf;fill-opacity:1;stroke:none"
       d="m 35,1036.3622 0,2 -1,0 0,-2 z"
       id="path3918-2"
       inkscape:connector-curvature="0" />
    <path
       style="fill:#729fcf;fill-opacity:1;stroke:none"
       d="m 33,1036.3622 0,2 -2,0 0,-2 z"
       id="path3918-6-5"
       inkscape:connector-curvature="0" />
    <path
       style="fill:#729fcf;fill-opacity:1;stroke:none"
       d="m 37,1036.3622 0,2 -1,0 0,-2 z"
       id="path3918-2-2"
       inkscape:connector-curvature="0" />
    <path
       style="fill:#729fcf;fill-opacity:1;stroke:none"
       d="m 18,1028.3622 0,2 -2,0 0,-2 z"
       id="path3918-9"
       inkscape:connector-curvature="0" />
    <path
       style="fill:#729fcf;fill-opacity:1;stroke:none"
       d="m 15,1028.3622 0,2 -2,0 0,-2 z"
       id="path3918-6-8"
       inkscape:connector-curvature="0" />
    <path
       style="fill:#729fcf;fill-opacity:1;stroke:none"
       d="m 12,1028.3622 0,2 -1,0 0,-2 z"
       id="path3918-2-7"
       inkscape:connector-curvature="0" />
    <path
       style="fill:#729fcf;fill-opacity:1;stroke:none"
       d="m 21,1028.3622 0,2 -2,0 0,-2 z"
       id="path3918-9-4"
       inkscape:connector-curvature="0" />
    <path
       style="fill:#729fcf;fill-opacity:1;stroke:none"
       d="m 24,1028.3622 0,2 -2,0 0,-2 z"
       id="path3918-9-2"
       inkscape:connector-curvature="0" />
    <path
       style="fill:#729fcf;fill-opacity:1;stroke:none"
       d="m 27,1028.3622 0,2 -2,0 0,-2 z"
       id="path3918-9-20"
       inkscape:connector-curvature="0" />
    <path
       style="fill:#729fcf;fill-opacity:1;stroke:none"
       d="m 30,1028.3622 0,2 -2,0 0,-2 z"
       id="path3918-9-0"
       inkscape:connector-curvature="0" />
    <path
       style="fill:#729fcf;fill-opacity:1;stroke:none"
       d="m 35,1028.3622 0,2 -4,0 0,-2 z"
       id="path3918-9-9"
       inkscape:connector-curvature="0" />
    <path
       style="fill:#729fcf;fill-opacity:1;stroke:none"
       d="m 33,1031.3622 2,0 0,4 -2,0 z"
       id="path3918-9-9-9"
       inkscape:connector-curvature="0" />
    <path
       style="fill:#729fcf;fill-opacity:1;stroke:none"
       d="m 32,1033.3622 0,2 -2,0 0,-2 z"
       id="path3918-9-0-2"
       inkscape:connector-curvature="0" />
    <path
       style="fill:#729fcf;fill-opacity:1;stroke:none"
       d="m 29,1033.3622 0,2 -2,0 0,-2 z"
       id="path3918-9-0-3"
       inkscape:connector-curvature="0" />
    <path
       style="fill:#729fcf;fill-opacity:1;stroke:none"
       d="m 26,1033.3622 0,2 -2,0 0,-2 z"
       id="path3918-9-0-22"
       inkscape:connector-curvature="0" />
    <path
       style="fill:#729fcf;fill-opacity:1;stroke:none"
       d="m 23,1033.3622 0,2 -2,0 0,-2 z"
       id="path3918-9-0-6"
       inkscape:connector-curvature="0" />
    <path
       style="fill:#729fcf;fill-opacity:1;stroke:none"
       d="m 20,1033.3622 0,2 -2,0 0,-2 z"
       id="path3918-9-0-226"
       inkscape:connector-curvature="0" />
    <path
       style="fill:#729fcf;fill-opacity:1;stroke:none"
       d="m 17,1033.3622 0,2 -2,0 0,-2 z"
       id="path3918-9-0-64"
       inkscape:connector-curvature="0" />
    <path
       style="fill:#729fcf;fill-opacity:1;stroke:none"
       d="m 14,1033.3622 0,2 -3,0 0,-2 z"
       id="path3918-9-0-33"
       inkscape:connector-curvature="0" />
    <path
       style="fill:#729fcf;fill-opacity:1;stroke:none"
       d="m 37,1028.3622 0,2 -1,0 0,-2 z"
       id="path3918-2-2-0"
       inkscape:connector-curvature="0" />
    <path
       style="fill:#729fcf;fill-opacity:1;stroke:none"
       d="m 37,1033.3622 0,2 -1,0 0,-2 z"
       id="path3918-2-2-6"
       inkscape:connector-curvature="0" />
    <path
       style="fill:#729fcf;fill-opacity:1;stroke:none"
       d="m 37,1031.3622 0,1 -1,0 0,-1 z"
       id="path3918-2-2-6-3"
       inkscape:connector-curvature="0" />
    <path
       style="fill:#729fcf;fill-opacity:1;stroke:none"
       d="m 31,1031.3622 0,1 -2,0 0,-1 z"
       id="path3918-2-2-6-3-6"
       inkscape:connector-curvature="0" />
    <path
       style="fill:#729fcf;fill-opacity:1;stroke:none"
       d="m 28,1031.3622 0,1 -2,0 0,-1 z"
       id="path3918-2-2-6-3-6-0"
       inkscape:connector-curvature="0" />
    <path
       style="fill:#729fcf;fill-opacity:1;stroke:none"
       d="m 25,1031.3622 0,1 -2,0 0,-1 z"
       id="path3918-2-2-6-3-6-08"
       inkscape:connector-curvature="0" />
    <path
       style="fill:#729fcf;fill-opacity:1;stroke:none"
       d="m 22,1031.3622 0,1 -2,0 0,-1 z"
       id="path3918-2-2-6-3-6-7"
       inkscape:connector-curvature="0" />
    <path
       style="fill:#729fcf;fill-opacity:1;stroke:none"
       d="m 19,1031.3622 0,1 -2,0 0,-1 z"
       id="path3918-2-2-6-3-6-4"
       inkscape:connector-curvature="0" />
    <path
       style="fill:#729fcf;fill-opacity:1;stroke:none"
       d="m 16,1031.3622 0,1 -2,0 0,-1 z"
       id="path3918-2-2-6-3-6-9"
       inkscape:connector-curvature="0" />
    <path
       style="fill:#729fcf;fill-opacity:1;stroke:none"
       d="m 13,1031.3622 0,1 -2,0 0,-1 z"
       id="path3918-2-2-6-3-6-5"
       inkscape:connector-curvature="0" />
    <path
       style="fill:#729fcf;fill-opacity:1;stroke:none"
       d="m 33,1031.3622 0,1 -1,0 0,-1 z"
       id="path3918-2-2-6-3-1"
       inkscape:connector-curvature="0" />
  </g>
</svg>
