<?xml version="1.0" encoding="UTF-8" standalone="no"?>
<!-- Created with Inkscape (http://www.inkscape.org/) -->

<svg
   xmlns:dc="http://purl.org/dc/elements/1.1/"
   xmlns:cc="http://creativecommons.org/ns#"
   xmlns:rdf="http://www.w3.org/1999/02/22-rdf-syntax-ns#"
   xmlns:svg="http://www.w3.org/2000/svg"
   xmlns="http://www.w3.org/2000/svg"
   xmlns:xlink="http://www.w3.org/1999/xlink"
   xmlns:sodipodi="http://sodipodi.sourceforge.net/DTD/sodipodi-0.dtd"
   xmlns:inkscape="http://www.inkscape.org/namespaces/inkscape"
   width="48"
   height="48.000004"
   id="svg4340"
   version="1.1"
   inkscape:version="0.48.4 r9939"
   sodipodi:docname="lastfm.svg">
  <defs
     id="defs4342">
    <linearGradient
       id="linearGradient4932">
      <stop
         id="stop4934"
         offset="0"
         style="stop-color:#d86868;stop-opacity:1" />
      <stop
         id="stop4936"
         offset="1"
         style="stop-color:#bd3030;stop-opacity:1" />
    </linearGradient>
    <linearGradient
       inkscape:collect="always"
       xlink:href="#linearGradient3795"
       id="linearGradient3801"
       x1="23.204165"
       y1="1053.158"
       x2="23.204165"
       y2="1004.8474"
       gradientUnits="userSpaceOnUse"
       gradientTransform="translate(0,-2056.7244)" />
    <linearGradient
       id="linearGradient3795">
      <stop
         style="stop-color:#68b8d8;stop-opacity:1;"
         offset="0"
         id="stop3797" />
      <stop
         style="stop-color:#3097bd;stop-opacity:1;"
         offset="1"
         id="stop3799" />
    </linearGradient>
    <linearGradient
       y2="1004.8474"
       x2="23.204165"
       y1="1053.158"
       x1="23.204165"
       gradientTransform="translate(224.57143,-1606.4387)"
       gradientUnits="userSpaceOnUse"
       id="linearGradient4904"
       xlink:href="#linearGradient4932"
       inkscape:collect="always" />
  </defs>
  <sodipodi:namedview
     id="base"
     pagecolor="#ffffff"
     bordercolor="#666666"
     borderopacity="1.0"
     inkscape:pageopacity="0.0"
     inkscape:pageshadow="2"
     inkscape:zoom="5.6"
     inkscape:cx="24.255386"
     inkscape:cy="20.133079"
     inkscape:document-units="px"
     inkscape:current-layer="layer1"
     showgrid="false"
     width="0px"
     height="0px"
     fit-margin-top="0"
     fit-margin-left="0"
     fit-margin-right="0"
     fit-margin-bottom="0"
     inkscape:window-width="1040"
     inkscape:window-height="708"
     inkscape:window-x="78"
     inkscape:window-y="27"
     inkscape:window-maximized="0" />
  <metadata
     id="metadata4345">
    <rdf:RDF>
      <cc:Work
         rdf:about="">
        <dc:format>image/svg+xml</dc:format>
        <dc:type
           rdf:resource="http://purl.org/dc/dcmitype/StillImage" />
        <cc:license
           rdf:resource="" />
        <dc:title />
      </cc:Work>
    </rdf:RDF>
  </metadata>
  <g
     inkscape:label="Capa 1"
     inkscape:groupmode="layer"
     id="layer1"
     transform="translate(-224.57143,-554.07648)">
    <rect
       style="fill:url(#linearGradient4904);fill-opacity:1;stroke:none"
       id="rect2991"
       width="48"
       height="48"
       x="224.57143"
       y="-602.07648"
       ry="1.9445436"
       transform="scale(1,-1)" />
    <path
       d="m 242.28439,585.64518 c -0.50776,-0.0682 -1.41762,-0.35532 -2.02192,-0.63809 -3.94061,-1.84388 -5.55318,-6.47961 -3.61224,-10.38425 2.22012,-4.46627 8.27112,-5.60498 11.91162,-2.24158 1.05141,0.97138 1.52303,1.80295 3.10406,5.47323 1.65384,3.83931 1.9613,4.44974 2.49842,4.9605 0.57253,0.54441 1.10341,0.72557 2.12623,0.72557 1.67355,0 2.86763,-1.00505 2.86763,-2.41369 0,-1.18704 -0.4311,-1.57153 -2.62099,-2.33753 -3.3346,-1.16642 -4.41501,-2.23051 -4.41741,-4.35065 -0.001,-1.13739 0.29669,-1.90102 1.04473,-2.67723 1.07676,-1.11733 2.93523,-1.49543 4.57925,-0.93166 0.69647,0.23883 2.16327,1.50695 2.16327,1.87023 0,0.17584 -0.84843,0.71481 -1.32024,0.83869 -0.24726,0.0649 -0.46209,-0.0172 -0.74885,-0.28616 -0.58289,-0.5468 -0.97736,-0.71553 -1.67277,-0.71553 -1.20265,0 -1.94944,0.7069 -1.94944,1.84532 0,1.13543 0.47724,1.52115 2.84565,2.30003 3.2696,1.07523 4.22927,2.04456 4.25293,4.29572 0.0204,1.94093 -0.87365,3.34123 -2.66144,4.16848 -0.81369,0.3765 -1.087,0.42428 -2.41522,0.42222 -1.88901,-0.003 -2.7396,-0.34056 -3.79997,-1.50823 -0.71225,-0.78431 -1.43719,-2.25705 -3.75452,-7.62741 -0.96065,-2.22628 -2.19662,-3.31361 -4.25245,-3.74106 -1.03758,-0.21573 -2.48888,-0.0173 -3.4382,0.47014 -0.9156,0.4701 -1.95215,1.53191 -2.43848,2.4979 -0.3981,0.79071 -0.43868,1.01078 -0.43868,2.37866 0,1.30706 0.0515,1.61748 0.38736,2.33637 0.50897,1.08929 1.50955,2.10316 2.61443,2.64913 0.79617,0.39342 1.04547,0.44089 2.31508,0.44089 1.22347,0 1.54046,-0.0555 2.26241,-0.39622 0.83191,-0.3926 1.95042,-1.3646 2.40605,-2.09087 l 0.2364,-0.37683 0.46811,1.0383 c 0.25745,0.57106 0.4681,1.11689 0.4681,1.21295 0,0.28368 -1.05499,1.23082 -2.0219,1.81523 -1.47013,0.88853 -3.15709,1.2205 -4.96701,0.97743 z"
       inkscape:connector-curvature="0"
       id="path3278"
       style="fill:#ffffff" />
    <path
       inkscape:connector-curvature="0"
       style="opacity:0.15;fill:#ffffff;fill-opacity:1;stroke:none"
       d="m 226.57143,554.07648 c -1.108,0 -2,0.892 -2,2 l 0,44 c 0,1.108 0.892,2 2,2 l 14.78125,0 12.84375,-48 -27.625,0 z"
       id="rect3790" />
  </g>
</svg>
