<?xml version="1.0" encoding="UTF-8" standalone="no"?>
<!-- Created with Inkscape (http://www.inkscape.org/) -->

<svg
   xmlns:dc="http://purl.org/dc/elements/1.1/"
   xmlns:cc="http://creativecommons.org/ns#"
   xmlns:rdf="http://www.w3.org/1999/02/22-rdf-syntax-ns#"
   xmlns:svg="http://www.w3.org/2000/svg"
   xmlns="http://www.w3.org/2000/svg"
   xmlns:xlink="http://www.w3.org/1999/xlink"
   xmlns:sodipodi="http://sodipodi.sourceforge.net/DTD/sodipodi-0.dtd"
   xmlns:inkscape="http://www.inkscape.org/namespaces/inkscape"
   width="48"
   height="48"
   id="svg2"
   version="1.1"
   inkscape:version="0.48.2 r9819"
   sodipodi:docname="dropbox.svg">
  <defs
     id="defs4">
    <linearGradient
       id="linearGradient3795">
      <stop
         style="stop-color:#7dcdec;stop-opacity:1;"
         offset="0"
         id="stop3797" />
      <stop
         style="stop-color:#236a88;stop-opacity:1;"
         offset="1"
         id="stop3799" />
    </linearGradient>
    <linearGradient
       id="linearGradient3698">
      <stop
         id="stop3700"
         offset="0"
         style="stop-color:#96d0e1;stop-opacity:1" />
      <stop
         style="stop-color:#89b7e1;stop-opacity:1"
         offset="0.67819428"
         id="stop3706" />
      <stop
         id="stop3702"
         offset="1"
         style="stop-color:#699dd3;stop-opacity:1" />
    </linearGradient>
    <linearGradient
       id="linearGradient3708">
      <stop
         id="stop3710"
         offset="0"
         style="stop-color:#658db6;stop-opacity:1" />
      <stop
         style="stop-color:#527fab;stop-opacity:1;"
         offset="0.76777935"
         id="stop3716" />
      <stop
         id="stop3712"
         offset="1"
         style="stop-color:#4071a0;stop-opacity:1" />
    </linearGradient>
    <linearGradient
       id="linearGradient3750">
      <stop
         style="stop-color:#d0e2f1;stop-opacity:1"
         offset="0"
         id="stop3752" />
      <stop
         id="stop3756"
         offset="0.85580856"
         style="stop-color:#cadef0;stop-opacity:1" />
      <stop
         style="stop-color:#95bee3;stop-opacity:1"
         offset="1"
         id="stop3754" />
    </linearGradient>
    <linearGradient
       id="linearGradient3803">
      <stop
         id="stop3805"
         offset="0"
         style="stop-color:#d7def0;stop-opacity:1;" />
      <stop
         style="stop-color:#ffffff;stop-opacity:1"
         offset="0.5"
         id="stop3811" />
      <stop
         id="stop3807"
         offset="1"
         style="stop-color:#d5def0;stop-opacity:1" />
    </linearGradient>
    <linearGradient
       inkscape:collect="always"
       xlink:href="#linearGradient3795"
       id="linearGradient3801"
       x1="23.204165"
       y1="1053.158"
       x2="23.204165"
       y2="1004.8474"
       gradientUnits="userSpaceOnUse"
       gradientTransform="translate(0,-2056.7244)" />
    <linearGradient
       inkscape:collect="always"
       xlink:href="#linearGradient3795"
       id="linearGradient3859"
       x1="26.192217"
       y1="1024.0002"
       x2="28.641211"
       y2="1024.0002"
       gradientUnits="userSpaceOnUse" />
    <linearGradient
       inkscape:collect="always"
       xlink:href="#linearGradient3795"
       id="linearGradient3867"
       gradientUnits="userSpaceOnUse"
       x1="26.192217"
       y1="1024.0002"
       x2="28.641211"
       y2="1024.0002" />
    <linearGradient
       inkscape:collect="always"
       xlink:href="#linearGradient3795"
       id="linearGradient3869"
       gradientUnits="userSpaceOnUse"
       x1="26.192217"
       y1="1024.0002"
       x2="28.641211"
       y2="1024.0002" />
    <linearGradient
       inkscape:collect="always"
       xlink:href="#linearGradient3795"
       id="linearGradient3871"
       gradientUnits="userSpaceOnUse"
       x1="26.192217"
       y1="1024.0002"
       x2="28.641211"
       y2="1024.0002" />
    <linearGradient
       inkscape:collect="always"
       xlink:href="#linearGradient3795"
       id="linearGradient3877"
       gradientUnits="userSpaceOnUse"
       x1="29.718235"
       y1="1027.8575"
       x2="22.811094"
       y2="1015.5485" />
    <linearGradient
       inkscape:collect="always"
       xlink:href="#linearGradient3795"
       id="linearGradient3879"
       gradientUnits="userSpaceOnUse"
       x1="17.196316"
       y1="1006.2238"
       x2="31.448042"
       y2="1030.9086" />
    <linearGradient
       inkscape:collect="always"
       xlink:href="#linearGradient3795"
       id="linearGradient3895"
       x1="21.973417"
       y1="34.43922"
       x2="42.475323"
       y2="24.798252"
       gradientUnits="userSpaceOnUse" />
    <linearGradient
       id="linearGradient3013">
      <stop
         style="stop-color:#60b5cc;stop-opacity:1;"
         offset="0"
         id="stop3015" />
      <stop
         style="stop-color:#ffffff;stop-opacity:1;"
         offset="1"
         id="stop3017" />
    </linearGradient>
    <linearGradient
       id="linearGradient3013-3">
      <stop
         style="stop-color:#414141;stop-opacity:0;"
         offset="0"
         id="stop3015-0" />
      <stop
         style="stop-color:#ffffff;stop-opacity:1;"
         offset="1"
         id="stop3017-7" />
    </linearGradient>
    <linearGradient
       inkscape:collect="always"
       xlink:href="#linearGradient3013-3"
       id="linearGradient6002"
       gradientUnits="userSpaceOnUse"
       gradientTransform="matrix(-1.001916,0,0,1,-560.92501,142.24199)"
       x1="136.74812"
       y1="89.953423"
       x2="175.71454"
       y2="165.946" />
    <linearGradient
       id="linearGradient3021">
      <stop
         style="stop-color:#60b5cc;stop-opacity:1;"
         offset="0"
         id="stop3023" />
      <stop
         style="stop-color:#ffffff;stop-opacity:1;"
         offset="1"
         id="stop3025" />
    </linearGradient>
    <linearGradient
       inkscape:collect="always"
       xlink:href="#linearGradient3013-3"
       id="linearGradient6004"
       gradientUnits="userSpaceOnUse"
       gradientTransform="matrix(1.001916,0,0,1,-927.00055,142.24199)"
       x1="136.74812"
       y1="89.953423"
       x2="175.71454"
       y2="165.946" />
    <linearGradient
       id="linearGradient3028">
      <stop
         style="stop-color:#60b5cc;stop-opacity:1;"
         offset="0"
         id="stop3030" />
      <stop
         style="stop-color:#ffffff;stop-opacity:1;"
         offset="1"
         id="stop3032" />
    </linearGradient>
    <linearGradient
       x1="116.29638"
       y1="32.374962"
       x2="116.29638"
       y2="226.17993"
       id="linearGradient2928"
       xlink:href="#linearGradient3202"
       gradientUnits="userSpaceOnUse"
       gradientTransform="matrix(0.32811093,0,0,0.34059034,6.3606404,3.973393)" />
    <linearGradient
       id="linearGradient3202">
      <stop
         id="stop3204"
         style="stop-color:#ffffff;stop-opacity:1"
         offset="0" />
      <stop
         id="stop3206"
         style="stop-color:#ced3d6;stop-opacity:1"
         offset="1" />
    </linearGradient>
  </defs>
  <sodipodi:namedview
     id="base"
     pagecolor="#ffffff"
     bordercolor="#666666"
     borderopacity="1.0"
     inkscape:pageopacity="0.0"
     inkscape:pageshadow="2"
     inkscape:zoom="11.313709"
     inkscape:cx="22.945541"
     inkscape:cy="21.264961"
     inkscape:document-units="px"
     inkscape:current-layer="layer1"
     showgrid="false"
     inkscape:window-width="1280"
     inkscape:window-height="747"
     inkscape:window-x="0"
     inkscape:window-y="0"
     inkscape:window-maximized="1">
    <inkscape:grid
       type="xygrid"
       id="grid3850" />
  </sodipodi:namedview>
  <metadata
     id="metadata7">
    <rdf:RDF>
      <cc:Work
         rdf:about="">
        <dc:format>image/svg+xml</dc:format>
        <dc:type
           rdf:resource="http://purl.org/dc/dcmitype/StillImage" />
        <dc:title></dc:title>
      </cc:Work>
    </rdf:RDF>
  </metadata>
  <g
     inkscape:label="Capa 1"
     inkscape:groupmode="layer"
     id="layer1"
     transform="translate(0,-1004.3622)">
    <rect
       style="fill:url(#linearGradient3801);fill-opacity:1;stroke:none"
       id="rect2991"
       width="48"
       height="48"
       x="0"
       y="-1052.3622"
       ry="1.9445436"
       transform="scale(1,-1)" />
    <path
       d="m 23.999996,1014.4549 c -1.709273,0 -3.091206,1.3846 -3.090693,3.0906 -3.86e-4,1.2873 0.809209,2.3502 1.931683,2.8131 l 0,1.0503 -4.636039,0 c -0.205224,0 -0.386337,0.1682 -0.386337,0.3864 l 0,1.159 c 0,0.2182 0.167811,0.3863 0.386337,0.3863 l 4.636039,0 0,14.2945 c 0,0.3969 -0.662356,0.4052 -1.038279,0.4467 -0.550753,0 -0.885597,-0.144 -1.412544,-0.2898 -1.190018,-0.348 -2.326074,-0.8302 -3.416664,-1.4125 -0.459171,-0.2546 -0.907408,-0.5028 -1.315959,-0.8331 -0.176092,-0.1502 -0.380906,-0.3674 -0.362191,-0.6157 0.02379,-0.1879 0.118966,-0.3882 0.325972,-0.4226 0.186572,-0.029 0.354162,0.071 0.51914,0.1328 0.142219,0.061 0.240063,-0.1111 0.217314,-0.2293 -0.02288,-0.3115 -0.128414,-0.5997 -0.289753,-0.8693 -0.335672,-0.5521 -0.852244,-0.9628 -1.388397,-1.3159 -0.572436,-0.3656 -1.182685,-0.7676 -1.545346,-1.3522 -0.07215,-0.1081 -0.152268,-0.2869 -0.313899,-0.2294 -0.224692,0.073 -0.348722,0.2931 -0.458774,0.4829 -0.309642,0.5892 -0.464045,1.2249 -0.603651,1.8713 -0.114766,0.5143 -0.136672,1.0575 -0.09658,1.5816 0.0415,0.5244 0.07739,1.0557 0.289752,1.5453 0.133738,0.3218 0.369189,0.5813 0.603651,0.8331 0.149609,-0.1582 0.305718,-0.328 0.458775,-0.4829 0.198346,-0.1992 0.446165,-0.3284 0.736454,-0.2898 0.3951,0.051 0.751934,0.2903 1.062425,0.5192 0.437349,0.34 0.846207,0.6959 1.291814,1.0262 0.705114,0.5388 1.482845,0.9333 2.2818,1.3159 0.665642,0.3091 1.349582,0.6179 2.04034,0.8693 0.123703,0.054 0.260395,0.051 0.386337,0.096 1.243207,0.5171 2.290526,1.1189 3.151058,2.1973 0.0012,0.015 -0.0012,0.046 0,0.06 0.0099,-0.013 0.02629,-0.024 0.03622,-0.036 0.0099,0.013 0.02635,0.024 0.03622,0.036 0.0065,-0.03 -0.0064,-0.067 0,-0.097 0.857835,-1.066 1.915391,-1.6471 3.151058,-2.1611 0.125943,-0.045 0.262633,-0.043 0.386336,-0.096 0.69076,-0.2514 1.374699,-0.5602 2.040341,-0.8693 0.798956,-0.3826 1.576686,-0.7771 2.2818,-1.3159 0.445606,-0.3303 0.854465,-0.6862 1.291813,-1.0262 0.310492,-0.2289 0.667327,-0.4683 1.062426,-0.5192 0.290289,-0.039 0.538108,0.091 0.736454,0.2898 0.153056,0.1549 0.309165,0.3247 0.458775,0.4829 0.234462,-0.2518 0.469912,-0.5113 0.603651,-0.8331 0.212361,-0.4896 0.248252,-1.0209 0.289752,-1.5453 0.04009,-0.5241 0.01818,-1.0673 -0.09658,-1.5816 -0.139608,-0.6464 -0.294009,-1.2821 -0.603651,-1.8713 -0.110052,-0.1898 -0.234081,-0.41 -0.458775,-0.4829 -0.161628,-0.057 -0.241757,0.1213 -0.313898,0.2294 -0.362663,0.5846 -0.972911,0.9866 -1.545347,1.3522 -0.536154,0.3531 -1.052724,0.7638 -1.388397,1.3159 -0.161339,0.2696 -0.266862,0.5578 -0.289752,0.8693 -0.02275,0.1182 0.0751,0.2907 0.217314,0.2293 0.164978,-0.062 0.332567,-0.1623 0.51914,-0.1328 0.207006,0.035 0.302184,0.2347 0.325971,0.4226 0.01872,0.2483 -0.186098,0.4655 -0.36219,0.6157 -0.40855,0.3303 -0.856788,0.5785 -1.315959,0.8331 -1.090591,0.5823 -2.226646,1.0645 -3.416665,1.4125 -0.526947,0.1458 -0.86179,0.2864 -1.412543,0.2898 -0.473196,0.084 -1.038279,-0.1726 -1.038279,-0.4467 l 0,-14.2945 4.636039,0 c 0.178619,0 0.386336,-0.1549 0.386336,-0.3863 l 0,-1.159 c 0,-0.2249 -0.181112,-0.3864 -0.386336,-0.3864 l -4.636039,0 0,-1.0503 c 1.122472,-0.4629 1.93207,-1.5258 1.931683,-2.8131 5.05e-4,-1.706 -1.381427,-3.0906 -3.090693,-3.0906 z m -0.06037,1.5091 c 0.829742,0 1.509378,0.6568 1.509128,1.485 2.48e-4,0.8282 -0.679386,1.5091 -1.509128,1.5091 -0.829745,0 -1.52145,-0.6809 -1.5212,-1.5091 -2.49e-4,-0.8282 0.691456,-1.485 1.5212,-1.485 z"
       inkscape:connector-curvature="0"
       id="path1919"
       style="fill:#ffffff;fill-opacity:1;fill-rule:nonzero;stroke:none;display:inline" />
    <path
       style="fill:#ffffff;stroke:none;fill-opacity:1;opacity:0.15"
       d="M 0 0 L 0 48 L 16.78125 48 L 29.625 0 L 0 0 z "
       transform="translate(0,1004.3622)"
       id="rect3790" />
  </g>
</svg>
