<?xml version="1.0" encoding="UTF-8" standalone="no"?>
<!-- Created with Inkscape (http://www.inkscape.org/) -->

<svg
   xmlns:dc="http://purl.org/dc/elements/1.1/"
   xmlns:cc="http://creativecommons.org/ns#"
   xmlns:rdf="http://www.w3.org/1999/02/22-rdf-syntax-ns#"
   xmlns:svg="http://www.w3.org/2000/svg"
   xmlns="http://www.w3.org/2000/svg"
   xmlns:xlink="http://www.w3.org/1999/xlink"
   xmlns:sodipodi="http://sodipodi.sourceforge.net/DTD/sodipodi-0.dtd"
   xmlns:inkscape="http://www.inkscape.org/namespaces/inkscape"
   width="48"
   height="48"
   id="svg2"
   version="1.1"
   inkscape:version="0.48.3.1 r9886"
   sodipodi:docname="qreator.svg">
  <defs
     id="defs4">
    <linearGradient
       id="linearGradient3795">
      <stop
         style="stop-color:#cd5c24;stop-opacity:1;"
         offset="0"
         id="stop3797" />
      <stop
         style="stop-color:#ff6700;stop-opacity:1;"
         offset="1"
         id="stop3799" />
    </linearGradient>
    <linearGradient
       inkscape:collect="always"
       id="linearGradient3914">
      <stop
         style="stop-color:#59b3e1;stop-opacity:1;"
         offset="0"
         id="stop3916" />
      <stop
         style="stop-color:#59b3e1;stop-opacity:0;"
         offset="1"
         id="stop3918" />
    </linearGradient>
    <linearGradient
       id="linearGradient3698">
      <stop
         id="stop3700"
         offset="0"
         style="stop-color:#96d0e1;stop-opacity:1" />
      <stop
         style="stop-color:#89b7e1;stop-opacity:1"
         offset="0.67819428"
         id="stop3706" />
      <stop
         id="stop3702"
         offset="1"
         style="stop-color:#699dd3;stop-opacity:1" />
    </linearGradient>
    <linearGradient
       id="linearGradient3708">
      <stop
         id="stop3710"
         offset="0"
         style="stop-color:#658db6;stop-opacity:1" />
      <stop
         style="stop-color:#527fab;stop-opacity:1;"
         offset="0.76777935"
         id="stop3716" />
      <stop
         id="stop3712"
         offset="1"
         style="stop-color:#4071a0;stop-opacity:1" />
    </linearGradient>
    <linearGradient
       id="linearGradient3750">
      <stop
         style="stop-color:#d0e2f1;stop-opacity:1"
         offset="0"
         id="stop3752" />
      <stop
         id="stop3756"
         offset="0.85580856"
         style="stop-color:#cadef0;stop-opacity:1" />
      <stop
         style="stop-color:#95bee3;stop-opacity:1"
         offset="1"
         id="stop3754" />
    </linearGradient>
    <linearGradient
       id="linearGradient3803">
      <stop
         id="stop3805"
         offset="0"
         style="stop-color:#d7def0;stop-opacity:1;" />
      <stop
         style="stop-color:#ffffff;stop-opacity:1"
         offset="0.5"
         id="stop3811" />
      <stop
         id="stop3807"
         offset="1"
         style="stop-color:#d5def0;stop-opacity:1" />
    </linearGradient>
    <linearGradient
       inkscape:collect="always"
       xlink:href="#linearGradient3914"
       id="linearGradient3920"
       x1="6.8000002"
       y1="25.0625"
       x2="45.325001"
       y2="25.0625"
       gradientUnits="userSpaceOnUse" />
    <linearGradient
       inkscape:collect="always"
       xlink:href="#linearGradient3795"
       id="linearGradient3801"
       x1="23.204165"
       y1="1053.158"
       x2="23.204165"
       y2="1004.8474"
       gradientUnits="userSpaceOnUse" />
  </defs>
  <sodipodi:namedview
     id="base"
     pagecolor="#ffffff"
     bordercolor="#666666"
     borderopacity="1.0"
     inkscape:pageopacity="0.0"
     inkscape:pageshadow="2"
     inkscape:zoom="3.5355339"
     inkscape:cx="-33.47409"
     inkscape:cy="-17.959368"
     inkscape:document-units="px"
     inkscape:current-layer="layer1"
     showgrid="false"
     inkscape:window-width="1280"
     inkscape:window-height="721"
     inkscape:window-x="0"
     inkscape:window-y="22"
     inkscape:window-maximized="1" />
  <metadata
     id="metadata7">
    <rdf:RDF>
      <cc:Work
         rdf:about="">
        <dc:format>image/svg+xml</dc:format>
        <dc:type
           rdf:resource="http://purl.org/dc/dcmitype/StillImage" />
        <dc:title />
      </cc:Work>
    </rdf:RDF>
  </metadata>
  <g
     inkscape:label="Capa 1"
     inkscape:groupmode="layer"
     id="layer1"
     transform="translate(0,-1004.3622)">
    <rect
       style="fill:url(#linearGradient3801);fill-opacity:1;stroke:none"
       id="rect2991"
       width="48"
       height="48"
       x="0"
       y="1004.3622"
       ry="1.9445436" />
    <path
       style="fill:#ffffff;stroke:none;fill-opacity:1;opacity:0.15"
       d="M 0 0 L 0 48 L 16.78125 48 L 29.625 0 L 0 0 z "
       id="rect3790"
       transform="translate(0,1004.3622)" />
    <g
       id="text6110-1-8-2"
       style="font-size:220.81851196px;font-style:normal;font-weight:normal;line-height:125%;letter-spacing:0px;word-spacing:0px;fill:#fff8c1;fill-opacity:1;stroke:none;font-family:Sans"
       transform="matrix(0.04171372,0,0,0.04113493,-48.809893,998.2314)" />
    <path
       style="fill:#ffffff;stroke:none;fill-opacity:1"
       id="path3093"
       d="m 8,1012.3622 0,1.5238 0,1.5238 0,1.5238 0,1.5238 0,1.5238 0,1.5239 0,1.5238 1.52381,0 1.523809,0 1.52381,0 1.523809,0 1.52381,0 1.523809,0 1.52381,0 0,-1.5238 0,-1.5239 0,-1.5238 0,-1.5238 0,-1.5238 0,-1.5238 0,-1.5238 -1.52381,0 -1.523809,0 -1.52381,0 -1.523809,0 -1.52381,0 -1.523809,0 -1.52381,0 z m 12.190476,0 0,1.5238 0,1.5238 1.52381,0 0,-1.5238 1.523809,0 0,-1.5238 -1.523809,0 -1.52381,0 z m 3.047619,1.5238 0,1.5238 1.52381,0 0,-1.5238 -1.52381,0 z m 1.52381,1.5238 0,1.5238 1.523809,0 1.52381,0 0,-1.5238 0,-1.5238 0,-1.5238 -1.52381,0 0,1.5238 0,1.5238 -1.523809,0 z m 0,1.5238 -1.52381,0 -1.523809,0 -1.52381,0 0,1.5238 1.52381,0 1.523809,0 0,1.5238 -1.523809,0 0,1.5239 1.523809,0 0,1.5238 1.52381,0 0,-1.5238 1.523809,0 0,1.5238 -1.523809,0 0,1.5238 -1.52381,0 0,1.5238 1.52381,0 1.523809,0 0,1.5238 1.52381,0 0,-1.5238 0,-1.5238 0,-1.5238 0,-1.5238 0,-1.5239 -1.52381,0 0,-1.5238 -1.523809,0 0,-1.5238 z m 1.523809,10.6667 -1.523809,0 0,1.5238 -1.52381,0 0,1.5238 0,1.5238 1.52381,0 0,1.5238 0,1.5238 -1.52381,0 -1.523809,0 0,-1.5238 1.523809,0 0,-1.5238 -1.523809,0 0,-1.5238 0,-1.5238 -1.52381,0 0,-1.5238 1.52381,0 0,1.5238 1.523809,0 0,-1.5238 0,-1.5238 -1.523809,0 -1.52381,0 0,-1.5238 -1.523809,0 -1.52381,0 -1.523809,0 0,1.5238 -1.52381,0 0,1.5238 -1.523809,0 0,-1.5238 1.523809,0 0,-1.5238 -1.523809,0 -1.52381,0 0,1.5238 -1.523809,0 0,1.5238 0,1.5238 0,1.5238 1.523809,0 0,-1.5238 1.52381,0 1.523809,0 1.52381,0 0,-1.5238 1.523809,0 0,-1.5238 1.52381,0 0,1.5238 -1.52381,0 0,1.5238 1.52381,0 0,1.5238 -1.52381,0 0,1.5238 1.52381,0 1.523809,0 0,1.5238 0,1.5238 0,1.5239 1.52381,0 0,1.5238 1.523809,0 1.52381,0 1.523809,0 0,1.5238 -1.523809,0 -1.52381,0 -1.523809,0 0,-1.5238 -1.52381,0 0,1.5238 0,1.5238 1.52381,0 0,1.5238 -1.52381,0 0,1.5238 1.52381,0 1.523809,0 0,-1.5238 1.52381,0 0,1.5238 1.523809,0 1.52381,0 1.523809,0 1.52381,0 0,-1.5238 1.523809,0 0,1.5238 1.52381,0 1.523809,0 1.52381,0 0,-1.5238 -1.52381,0 -1.523809,0 0,-1.5238 -1.52381,0 0,-1.5238 -1.523809,0 0,1.5238 -1.52381,0 -1.523809,0 0,1.5238 -1.52381,0 0,-1.5238 1.52381,0 0,-1.5238 0,-1.5238 0,-1.5238 1.523809,0 0,-1.5239 -1.523809,0 -1.52381,0 0,-1.5238 1.52381,0 0,-1.5238 0,-1.5238 0,-1.5238 -1.52381,0 0,-1.5238 z m 4.571429,12.1905 0,-1.5238 -1.52381,0 0,1.5238 1.52381,0 z m 3.047619,1.5238 1.523809,0 1.52381,0 0,-1.5238 -1.52381,0 -1.523809,0 0,1.5238 z m 3.047619,-1.5238 1.523809,0 0,-1.5238 0,-1.5238 0,-1.5239 0,-1.5238 -1.523809,0 -1.52381,0 -1.523809,0 0,-1.5238 -1.52381,0 0,1.5238 -1.523809,0 0,1.5238 0,1.5239 1.523809,0 0,-1.5239 1.52381,0 0,1.5239 0,1.5238 1.523809,0 1.52381,0 0,1.5238 z m -4.571429,-7.6191 0,-1.5238 -1.523809,0 -1.52381,0 0,1.5238 1.52381,0 1.523809,0 z m 1.52381,0 1.523809,0 0,-1.5238 0,-1.5238 0,-1.5238 1.52381,0 0,1.5238 1.523809,0 0,1.5238 1.52381,0 0,-1.5238 0,-1.5238 -1.52381,0 0,-1.5238 1.52381,0 0,-1.5238 -1.52381,0 -1.523809,0 0,1.5238 -1.52381,0 0,-1.5238 -1.523809,0 0,1.5238 -1.52381,0 0,1.5238 1.52381,0 0,1.5238 0,1.5238 0,1.5238 z m -1.52381,-4.5714 -1.523809,0 0,1.5238 1.523809,0 0,-1.5238 z m 6.095238,3.0476 -1.523809,0 0,1.5238 1.523809,0 0,-1.5238 z m -21.333333,0 0,-1.5238 -1.523809,0 0,1.5238 1.523809,0 z m -1.523809,0 -1.52381,0 -1.523809,0 -1.52381,0 0,1.5238 1.52381,0 1.523809,0 1.52381,0 0,-1.5238 z m -6.095238,0 -1.52381,0 0,1.5238 1.52381,0 0,-1.5238 z m 0,-4.5714 0,-1.5238 -1.52381,0 0,1.5238 1.52381,0 z m 10.666666,-1.5238 1.52381,0 0,-1.5238 0,-1.5238 -1.52381,0 0,1.5238 0,1.5238 z m 9.142857,-12.1905 0,1.5238 0,1.5238 0,1.5238 0,1.5238 0,1.5238 0,1.5239 0,1.5238 1.52381,0 1.523809,0 1.52381,0 1.523809,0 1.52381,0 1.523809,0 1.52381,0 0,-1.5238 0,-1.5239 0,-1.5238 0,-1.5238 0,-1.5238 0,-1.5238 0,-1.5238 -1.52381,0 -1.523809,0 -1.52381,0 -1.523809,0 -1.52381,0 -1.523809,0 -1.52381,0 z m -19.809523,1.5238 1.523809,0 1.52381,0 1.523809,0 1.52381,0 1.523809,0 0,1.5238 0,1.5238 0,1.5238 0,1.5238 0,1.5239 -1.523809,0 -1.52381,0 -1.523809,0 -1.52381,0 -1.523809,0 0,-1.5239 0,-1.5238 0,-1.5238 0,-1.5238 0,-1.5238 z m 21.333333,0 1.523809,0 1.52381,0 1.523809,0 1.52381,0 1.523809,0 0,1.5238 0,1.5238 0,1.5238 0,1.5238 0,1.5239 -1.523809,0 -1.52381,0 -1.523809,0 -1.52381,0 -1.523809,0 0,-1.5239 0,-1.5238 0,-1.5238 0,-1.5238 0,-1.5238 z m -19.809524,1.5238 0,1.5238 0,1.5238 0,1.5238 1.52381,0 1.523809,0 1.52381,0 0,-1.5238 0,-1.5238 0,-1.5238 -1.52381,0 -1.523809,0 -1.52381,0 z m 21.333333,0 0,1.5238 0,1.5238 0,1.5238 1.52381,0 1.523809,0 1.52381,0 0,-1.5238 0,-1.5238 0,-1.5238 -1.52381,0 -1.523809,0 -1.52381,0 z m -3.047619,9.1429 0,1.5238 1.52381,0 0,-1.5238 -1.52381,0 z M 8,1033.6955 l 0,1.5238 0,1.5239 0,1.5238 0,1.5238 0,1.5238 0,1.5238 0,1.5238 1.52381,0 1.523809,0 1.52381,0 1.523809,0 1.52381,0 1.523809,0 1.52381,0 0,-1.5238 0,-1.5238 0,-1.5238 0,-1.5238 0,-1.5238 0,-1.5239 0,-1.5238 -1.52381,0 -1.523809,0 -1.52381,0 -1.523809,0 -1.52381,0 -1.523809,0 -1.52381,0 z m 1.52381,1.5238 1.523809,0 1.52381,0 1.523809,0 1.52381,0 1.523809,0 0,1.5239 0,1.5238 0,1.5238 0,1.5238 0,1.5238 -1.523809,0 -1.52381,0 -1.523809,0 -1.52381,0 -1.523809,0 0,-1.5238 0,-1.5238 0,-1.5238 0,-1.5238 0,-1.5239 z m 1.523809,1.5239 0,1.5238 0,1.5238 0,1.5238 1.52381,0 1.523809,0 1.52381,0 0,-1.5238 0,-1.5238 0,-1.5238 -1.52381,0 -1.523809,0 -1.52381,0 z m 27.428571,4.5714 0,1.5238 1.52381,0 0,-1.5238 -1.52381,0 z"
       inkscape:connector-curvature="0" />
  </g>
</svg>
