<?xml version="1.0" encoding="UTF-8" standalone="no"?>
<!-- Created with Inkscape (http://www.inkscape.org/) -->

<svg
   xmlns:dc="http://purl.org/dc/elements/1.1/"
   xmlns:cc="http://creativecommons.org/ns#"
   xmlns:rdf="http://www.w3.org/1999/02/22-rdf-syntax-ns#"
   xmlns:svg="http://www.w3.org/2000/svg"
   xmlns="http://www.w3.org/2000/svg"
   xmlns:xlink="http://www.w3.org/1999/xlink"
   xmlns:sodipodi="http://sodipodi.sourceforge.net/DTD/sodipodi-0.dtd"
   xmlns:inkscape="http://www.inkscape.org/namespaces/inkscape"
   width="48"
   height="48"
   id="svg2"
   version="1.1"
   inkscape:version="0.48.3.1 r9886"
   sodipodi:docname="assistant.svg">
  <defs
     id="defs4">
    <linearGradient
       id="linearGradient3799">
      <stop
         style="stop-color:#9ee05f;stop-opacity:1;"
         offset="0"
         id="stop3801" />
      <stop
         style="stop-color:#3e7a0b;stop-opacity:1;"
         offset="1"
         id="stop3803" />
    </linearGradient>
    <linearGradient
       id="linearGradient3795">
      <stop
         style="stop-color:#68b8d8;stop-opacity:1;"
         offset="0"
         id="stop3797" />
      <stop
         style="stop-color:#3097bd;stop-opacity:1;"
         offset="1"
         id="stop3799" />
    </linearGradient>
    <linearGradient
       id="linearGradient3698">
      <stop
         id="stop3700"
         offset="0"
         style="stop-color:#96d0e1;stop-opacity:1" />
      <stop
         style="stop-color:#89b7e1;stop-opacity:1"
         offset="0.67819428"
         id="stop3706" />
      <stop
         id="stop3702"
         offset="1"
         style="stop-color:#699dd3;stop-opacity:1" />
    </linearGradient>
    <linearGradient
       id="linearGradient3708">
      <stop
         id="stop3710"
         offset="0"
         style="stop-color:#658db6;stop-opacity:1" />
      <stop
         style="stop-color:#527fab;stop-opacity:1;"
         offset="0.76777935"
         id="stop3716" />
      <stop
         id="stop3712"
         offset="1"
         style="stop-color:#4071a0;stop-opacity:1" />
    </linearGradient>
    <linearGradient
       id="linearGradient3750">
      <stop
         style="stop-color:#d0e2f1;stop-opacity:1"
         offset="0"
         id="stop3752" />
      <stop
         id="stop3756"
         offset="0.85580856"
         style="stop-color:#cadef0;stop-opacity:1" />
      <stop
         style="stop-color:#95bee3;stop-opacity:1"
         offset="1"
         id="stop3754" />
    </linearGradient>
    <linearGradient
       id="linearGradient3803">
      <stop
         id="stop3805"
         offset="0"
         style="stop-color:#d7def0;stop-opacity:1;" />
      <stop
         style="stop-color:#ffffff;stop-opacity:1"
         offset="0.5"
         id="stop3811" />
      <stop
         id="stop3807"
         offset="1"
         style="stop-color:#d5def0;stop-opacity:1" />
    </linearGradient>
    <linearGradient
       inkscape:collect="always"
       xlink:href="#linearGradient3795"
       id="linearGradient3859"
       x1="26.192217"
       y1="1024.0002"
       x2="28.641211"
       y2="1024.0002"
       gradientUnits="userSpaceOnUse" />
    <linearGradient
       inkscape:collect="always"
       xlink:href="#linearGradient3795"
       id="linearGradient3867"
       gradientUnits="userSpaceOnUse"
       x1="26.192217"
       y1="1024.0002"
       x2="28.641211"
       y2="1024.0002" />
    <linearGradient
       inkscape:collect="always"
       xlink:href="#linearGradient3795"
       id="linearGradient3869"
       gradientUnits="userSpaceOnUse"
       x1="26.192217"
       y1="1024.0002"
       x2="28.641211"
       y2="1024.0002" />
    <linearGradient
       inkscape:collect="always"
       xlink:href="#linearGradient3795"
       id="linearGradient3871"
       gradientUnits="userSpaceOnUse"
       x1="26.192217"
       y1="1024.0002"
       x2="28.641211"
       y2="1024.0002" />
    <linearGradient
       inkscape:collect="always"
       xlink:href="#linearGradient3795"
       id="linearGradient3877"
       gradientUnits="userSpaceOnUse"
       x1="29.718235"
       y1="1027.8575"
       x2="22.811094"
       y2="1015.5485" />
    <linearGradient
       inkscape:collect="always"
       xlink:href="#linearGradient3795"
       id="linearGradient3879"
       gradientUnits="userSpaceOnUse"
       x1="17.196316"
       y1="1006.2238"
       x2="31.448042"
       y2="1030.9086" />
    <linearGradient
       inkscape:collect="always"
       xlink:href="#linearGradient3795"
       id="linearGradient3895"
       x1="21.973417"
       y1="34.43922"
       x2="42.475323"
       y2="24.798252"
       gradientUnits="userSpaceOnUse" />
    <inkscape:perspective
       sodipodi:type="inkscape:persp3d"
       inkscape:vp_x="0 : 0.5 : 1"
       inkscape:vp_y="0 : 1000 : 0"
       inkscape:vp_z="1 : 0.5 : 1"
       inkscape:persp3d-origin="0.5 : 0.33333333 : 1"
       id="perspective2861" />
    <inkscape:perspective
       id="perspective35"
       inkscape:persp3d-origin="305.65302 : 189.50401 : 1"
       inkscape:vp_z="611.30603 : 284.25601 : 1"
       inkscape:vp_y="0 : 1000 : 0"
       inkscape:vp_x="0 : 284.25601 : 1"
       sodipodi:type="inkscape:persp3d" />
    <linearGradient
       inkscape:collect="always"
       xlink:href="#linearGradient3799"
       id="linearGradient3805"
       x1="25.455843"
       y1="-1003.6135"
       x2="24.488701"
       y2="-1052.9341"
       gradientUnits="userSpaceOnUse" />
  </defs>
  <sodipodi:namedview
     id="base"
     pagecolor="#ffffff"
     bordercolor="#666666"
     borderopacity="1.0"
     inkscape:pageopacity="0.0"
     inkscape:pageshadow="2"
     inkscape:zoom="8.8437506"
     inkscape:cx="15.591736"
     inkscape:cy="22.103122"
     inkscape:document-units="px"
     inkscape:current-layer="layer1"
     showgrid="true"
     inkscape:window-width="1280"
     inkscape:window-height="721"
     inkscape:window-x="0"
     inkscape:window-y="22"
     inkscape:window-maximized="1"
     showguides="true"
     inkscape:guide-bbox="true">
    <inkscape:grid
       type="xygrid"
       id="grid3850" />
  </sodipodi:namedview>
  <metadata
     id="metadata7">
    <rdf:RDF>
      <cc:Work
         rdf:about="">
        <dc:format>image/svg+xml</dc:format>
        <dc:type
           rdf:resource="http://purl.org/dc/dcmitype/StillImage" />
        <dc:title></dc:title>
      </cc:Work>
    </rdf:RDF>
  </metadata>
  <g
     inkscape:label="Capa 1"
     inkscape:groupmode="layer"
     id="layer1"
     transform="translate(0,-1004.3622)">
    <path
       transform="scale(1,-1)"
       style="fill:url(#linearGradient3805);fill-opacity:1;stroke:none"
       d="m 1.9445436,-1052.3622 44.1109124,0 c 1.077278,0 1.944544,0.8673 1.944544,1.9446 l 0,44.1109 c 0,1.0773 -0.867266,1.9445 -1.944544,1.9445 l -44.1109124,0 C 0.86726645,-1004.3622 0,-1005.2294 0,-1006.3067 l 0,-44.1109 c 0,-1.0773 0.86726645,-1.9446 1.9445436,-1.9446 z"
       id="rect2991" />
    <path
       style="fill:#ffffff;stroke:none;fill-opacity:1;opacity:0.15"
       d="M 0 0 L 0 48 L 16.78125 48 L 29.625 0 L 0 0 z "
       transform="translate(0,1004.3622)"
       id="rect3790" />
    <path
       style="fill:#fffffd;fill-opacity:1;stroke:none"
       d="m 24,1013.8622 c -8.836556,0 -16,6.268 -16,14 0,4.662 2.619975,8.768 6.625,11.3125 -0.146464,0.5358 -0.331906,1.1013 -0.625,1.6875 -1,2 -2,2 -2,2 0,0 3,0 5,-1 0.422511,-0.2113 0.791747,-0.5557 1.125,-0.9687 1.821711,0.6308 3.796785,0.9687 5.875,0.9687 8.836556,0 16,-6.268 16,-14 0,-7.732 -7.163444,-14 -16,-14 z m -3,3.375 c 5.909212,0 5.90625,6.8125 5.90625,6.8125 l 0,6.8125 c 0,0 -0.01134,2.2926 -1.375,3.6563 -1.363665,1.3636 -2.71875,1.8125 -2.71875,1.8125 0,0 -0.0029,0.9204 0.90625,1.375 0.909109,0.4545 1.375,0.4375 1.375,0.4375 l 0,1.8125 c 0,0 -0.480086,0.4687 -1.84375,0.4687 -1.363665,0 -2.701695,-0.9175 -3.15625,-2.2812 -0.454554,-1.3636 -0.46875,-1.8125 -0.46875,-1.8125 0,0 -1.111656,0.2321 -2.71875,-1.375 -0.909109,-0.9091 -1.84375,-2.7301 -1.84375,-4.0938 l 0,-7.25 c 0,0 0.02829,-6.375 5.9375,-6.375 z m 9,0.9375 1.375,0 0,3.625 2.25,0 0,1.8125 -2.25,0 0,8.6563 c 0,0 0.434641,0.9062 1.34375,0.9062 0.681832,0 0.863635,-0.2783 0.90625,-0.4062 l 0,1.75 c 0,0 -0.445976,0.9062 -2.71875,0.9062 -2.272774,0 -2.28125,-2.25 -2.28125,-2.25 l 0,-9.5625 -0.90625,0 0,-1.8125 0.90625,0 1.375,-3.625 z m -8.71875,1.3438 c -2.272774,0 -2.28125,2.7187 -2.28125,2.7187 l 0,8.625 c 0,0 0.0085,3.1875 2.28125,3.1875 2.272773,0 2.28125,-3.1875 2.28125,-3.1875 l 0,-9.0937 c 0,0 -0.0085,-2.25 -2.28125,-2.25 z"
       id="path3018"
       inkscape:connector-curvature="0" />
  </g>
</svg>
