<?xml version="1.0" encoding="UTF-8" standalone="no"?>
<!-- Created with Inkscape (http://www.inkscape.org/) -->

<svg
   xmlns:dc="http://purl.org/dc/elements/1.1/"
   xmlns:cc="http://creativecommons.org/ns#"
   xmlns:rdf="http://www.w3.org/1999/02/22-rdf-syntax-ns#"
   xmlns:svg="http://www.w3.org/2000/svg"
   xmlns="http://www.w3.org/2000/svg"
   xmlns:xlink="http://www.w3.org/1999/xlink"
   xmlns:sodipodi="http://sodipodi.sourceforge.net/DTD/sodipodi-0.dtd"
   xmlns:inkscape="http://www.inkscape.org/namespaces/inkscape"
   width="48"
   height="48"
   id="svg2"
   version="1.1"
   inkscape:version="0.48.3.1 r9886"
   sodipodi:docname="qtlinguistic.svg">
  <defs
     id="defs4">
    <linearGradient
       id="linearGradient3799">
      <stop
         style="stop-color:#9ee05f;stop-opacity:1;"
         offset="0"
         id="stop3801" />
      <stop
         style="stop-color:#3e7a0b;stop-opacity:1;"
         offset="1"
         id="stop3803" />
    </linearGradient>
    <linearGradient
       id="linearGradient3795">
      <stop
         style="stop-color:#68b8d8;stop-opacity:1;"
         offset="0"
         id="stop3797" />
      <stop
         style="stop-color:#3097bd;stop-opacity:1;"
         offset="1"
         id="stop3799" />
    </linearGradient>
    <linearGradient
       id="linearGradient3698">
      <stop
         id="stop3700"
         offset="0"
         style="stop-color:#96d0e1;stop-opacity:1" />
      <stop
         style="stop-color:#89b7e1;stop-opacity:1"
         offset="0.67819428"
         id="stop3706" />
      <stop
         id="stop3702"
         offset="1"
         style="stop-color:#699dd3;stop-opacity:1" />
    </linearGradient>
    <linearGradient
       id="linearGradient3708">
      <stop
         id="stop3710"
         offset="0"
         style="stop-color:#658db6;stop-opacity:1" />
      <stop
         style="stop-color:#527fab;stop-opacity:1;"
         offset="0.76777935"
         id="stop3716" />
      <stop
         id="stop3712"
         offset="1"
         style="stop-color:#4071a0;stop-opacity:1" />
    </linearGradient>
    <linearGradient
       id="linearGradient3750">
      <stop
         style="stop-color:#d0e2f1;stop-opacity:1"
         offset="0"
         id="stop3752" />
      <stop
         id="stop3756"
         offset="0.85580856"
         style="stop-color:#cadef0;stop-opacity:1" />
      <stop
         style="stop-color:#95bee3;stop-opacity:1"
         offset="1"
         id="stop3754" />
    </linearGradient>
    <linearGradient
       id="linearGradient3803">
      <stop
         id="stop3805"
         offset="0"
         style="stop-color:#d7def0;stop-opacity:1;" />
      <stop
         style="stop-color:#ffffff;stop-opacity:1"
         offset="0.5"
         id="stop3811" />
      <stop
         id="stop3807"
         offset="1"
         style="stop-color:#d5def0;stop-opacity:1" />
    </linearGradient>
    <linearGradient
       inkscape:collect="always"
       xlink:href="#linearGradient3795"
       id="linearGradient3859"
       x1="26.192217"
       y1="1024.0002"
       x2="28.641211"
       y2="1024.0002"
       gradientUnits="userSpaceOnUse" />
    <linearGradient
       inkscape:collect="always"
       xlink:href="#linearGradient3795"
       id="linearGradient3867"
       gradientUnits="userSpaceOnUse"
       x1="26.192217"
       y1="1024.0002"
       x2="28.641211"
       y2="1024.0002" />
    <linearGradient
       inkscape:collect="always"
       xlink:href="#linearGradient3795"
       id="linearGradient3869"
       gradientUnits="userSpaceOnUse"
       x1="26.192217"
       y1="1024.0002"
       x2="28.641211"
       y2="1024.0002" />
    <linearGradient
       inkscape:collect="always"
       xlink:href="#linearGradient3795"
       id="linearGradient3871"
       gradientUnits="userSpaceOnUse"
       x1="26.192217"
       y1="1024.0002"
       x2="28.641211"
       y2="1024.0002" />
    <linearGradient
       inkscape:collect="always"
       xlink:href="#linearGradient3795"
       id="linearGradient3877"
       gradientUnits="userSpaceOnUse"
       x1="29.718235"
       y1="1027.8575"
       x2="22.811094"
       y2="1015.5485" />
    <linearGradient
       inkscape:collect="always"
       xlink:href="#linearGradient3795"
       id="linearGradient3879"
       gradientUnits="userSpaceOnUse"
       x1="17.196316"
       y1="1006.2238"
       x2="31.448042"
       y2="1030.9086" />
    <linearGradient
       inkscape:collect="always"
       xlink:href="#linearGradient3795"
       id="linearGradient3895"
       x1="21.973417"
       y1="34.43922"
       x2="42.475323"
       y2="24.798252"
       gradientUnits="userSpaceOnUse" />
    <inkscape:perspective
       sodipodi:type="inkscape:persp3d"
       inkscape:vp_x="0 : 0.5 : 1"
       inkscape:vp_y="0 : 1000 : 0"
       inkscape:vp_z="1 : 0.5 : 1"
       inkscape:persp3d-origin="0.5 : 0.33333333 : 1"
       id="perspective2861" />
    <inkscape:perspective
       id="perspective35"
       inkscape:persp3d-origin="305.65302 : 189.50401 : 1"
       inkscape:vp_z="611.30603 : 284.25601 : 1"
       inkscape:vp_y="0 : 1000 : 0"
       inkscape:vp_x="0 : 284.25601 : 1"
       sodipodi:type="inkscape:persp3d" />
    <linearGradient
       inkscape:collect="always"
       xlink:href="#linearGradient3799"
       id="linearGradient3805"
       x1="25.455843"
       y1="-1003.6135"
       x2="24.488701"
       y2="-1052.9341"
       gradientUnits="userSpaceOnUse" />
  </defs>
  <sodipodi:namedview
     id="base"
     pagecolor="#ffffff"
     bordercolor="#666666"
     borderopacity="1.0"
     inkscape:pageopacity="0.0"
     inkscape:pageshadow="2"
     inkscape:zoom="6.253476"
     inkscape:cx="10.874528"
     inkscape:cy="12.977464"
     inkscape:document-units="px"
     inkscape:current-layer="layer1"
     showgrid="true"
     inkscape:window-width="1280"
     inkscape:window-height="721"
     inkscape:window-x="0"
     inkscape:window-y="22"
     inkscape:window-maximized="1"
     showguides="true"
     inkscape:guide-bbox="true">
    <inkscape:grid
       type="xygrid"
       id="grid3850" />
  </sodipodi:namedview>
  <metadata
     id="metadata7">
    <rdf:RDF>
      <cc:Work
         rdf:about="">
        <dc:format>image/svg+xml</dc:format>
        <dc:type
           rdf:resource="http://purl.org/dc/dcmitype/StillImage" />
        <dc:title></dc:title>
      </cc:Work>
    </rdf:RDF>
  </metadata>
  <g
     inkscape:label="Capa 1"
     inkscape:groupmode="layer"
     id="layer1"
     transform="translate(0,-1004.3622)">
    <path
       transform="scale(1,-1)"
       style="fill:url(#linearGradient3805);fill-opacity:1;stroke:none"
       d="m 1.9445436,-1052.3622 44.1109124,0 c 1.077278,0 1.944544,0.8673 1.944544,1.9446 l 0,44.1109 c 0,1.0773 -0.867266,1.9445 -1.944544,1.9445 l -44.1109124,0 C 0.86726645,-1004.3622 0,-1005.2294 0,-1006.3067 l 0,-44.1109 c 0,-1.0773 0.86726645,-1.9446 1.9445436,-1.9446 z"
       id="rect2991" />
    <path
       style="fill:#ffffff;stroke:none;fill-opacity:1;opacity:0.15"
       d="M 0 0 L 0 48 L 16.78125 48 L 29.625 0 L 0 0 z "
       transform="translate(0,1004.3622)"
       id="rect3790" />
    <path
       style="fill:#ffffff;fill-opacity:1;stroke:none"
       d="M 22 8 L 22 11.15625 C 19.899383 11.47975 17.954551 12.2976 16.3125 13.5 L 14.09375 11.28125 L 11.28125 14.09375 L 13.5 16.3125 C 12.297555 17.9546 11.479801 19.8994 11.15625 22 L 8 22 L 8 26 L 11.15625 26 C 11.479801 28.1006 12.297555 30.0454 13.5 31.6875 L 11.28125 33.90625 L 14.09375 36.71875 L 16.3125 34.5 C 17.954551 35.7024 19.899383 36.52015 22 36.84375 L 22 40 L 26 40 L 26 36.84375 C 28.100617 36.52015 30.045449 35.7024 31.6875 34.5 L 33.90625 36.71875 L 36.71875 33.90625 L 34.5 31.6875 C 35.702445 30.0454 36.520199 28.1006 36.84375 26 L 40 26 L 40 22 L 36.84375 22 C 36.520199 19.8994 35.702445 17.9546 34.5 16.3125 L 36.71875 14.09375 L 33.90625 11.28125 L 31.6875 13.5 C 30.045449 12.2976 28.100617 11.47975 26 11.15625 L 26 8 L 22 8 z M 21 12.875 C 26.909212 12.875 26.90625 19.6875 26.90625 19.6875 L 26.90625 26.5 C 26.90625 26.5 26.89491 28.79255 25.53125 30.15625 C 24.167585 31.51985 22.8125 31.96875 22.8125 31.96875 C 22.8125 31.96875 22.8096 32.88915 23.71875 33.34375 C 24.627859 33.79825 25.09375 33.78125 25.09375 33.78125 L 25.09375 35.59375 C 25.09375 35.59375 24.613664 36.0625 23.25 36.0625 C 21.886335 36.0625 20.548305 35.14495 20.09375 33.78125 C 19.639196 32.41765 19.625 31.96875 19.625 31.96875 C 19.625 31.96875 18.513344 32.20085 16.90625 30.59375 C 15.997141 29.68465 15.0625 27.8637 15.0625 26.5 L 15.0625 19.25 C 15.0625 19.25 15.09079 12.875 21 12.875 z M 30 13.8125 L 31.375 13.8125 L 31.375 17.4375 L 33.625 17.4375 L 33.625 19.25 L 31.375 19.25 L 31.375 27.90625 C 31.375 27.90625 31.809641 28.8125 32.71875 28.8125 C 33.400582 28.8125 33.582385 28.53415 33.625 28.40625 L 33.625 30.15625 C 33.625 30.15625 33.179024 31.0625 30.90625 31.0625 C 28.633476 31.0625 28.625 28.8125 28.625 28.8125 L 28.625 19.25 L 27.71875 19.25 L 27.71875 17.4375 L 28.625 17.4375 L 30 13.8125 z M 21.28125 15.15625 C 19.008476 15.15625 19 17.875 19 17.875 L 19 26.5 C 19 26.5 19.0085 29.6875 21.28125 29.6875 C 23.554023 29.6875 23.5625 26.5 23.5625 26.5 L 23.5625 17.40625 C 23.5625 17.40625 23.554 15.15625 21.28125 15.15625 z "
       transform="translate(0,1004.3622)"
       id="path3019" />
  </g>
</svg>
