<?xml version="1.0" encoding="UTF-8" standalone="no"?>
<!-- Created with Inkscape (http://www.inkscape.org/) -->

<svg
   xmlns:dc="http://purl.org/dc/elements/1.1/"
   xmlns:cc="http://creativecommons.org/ns#"
   xmlns:rdf="http://www.w3.org/1999/02/22-rdf-syntax-ns#"
   xmlns:svg="http://www.w3.org/2000/svg"
   xmlns="http://www.w3.org/2000/svg"
   xmlns:xlink="http://www.w3.org/1999/xlink"
   xmlns:sodipodi="http://sodipodi.sourceforge.net/DTD/sodipodi-0.dtd"
   xmlns:inkscape="http://www.inkscape.org/namespaces/inkscape"
   width="48"
   height="48"
   id="svg2"
   version="1.1"
   inkscape:version="0.48.3.1 r9886"
   sodipodi:docname="seahorse.svg">
  <defs
     id="defs4">
    <linearGradient
       id="linearGradient3948">
      <stop
         style="stop-color:#888a85;stop-opacity:1;"
         offset="0"
         id="stop3950" />
      <stop
         style="stop-color:#9c9e98;stop-opacity:1;"
         offset="1"
         id="stop3952" />
    </linearGradient>
    <linearGradient
       id="linearGradient3795">
      <stop
         style="stop-color:#e8e8e8;stop-opacity:1;"
         offset="0"
         id="stop3797" />
      <stop
         style="stop-color:#cdcdcd;stop-opacity:1;"
         offset="1"
         id="stop3799" />
    </linearGradient>
    <linearGradient
       id="linearGradient3698">
      <stop
         id="stop3700"
         offset="0"
         style="stop-color:#96d0e1;stop-opacity:1" />
      <stop
         style="stop-color:#89b7e1;stop-opacity:1"
         offset="0.67819428"
         id="stop3706" />
      <stop
         id="stop3702"
         offset="1"
         style="stop-color:#699dd3;stop-opacity:1" />
    </linearGradient>
    <linearGradient
       id="linearGradient3708">
      <stop
         id="stop3710"
         offset="0"
         style="stop-color:#658db6;stop-opacity:1" />
      <stop
         style="stop-color:#527fab;stop-opacity:1;"
         offset="0.76777935"
         id="stop3716" />
      <stop
         id="stop3712"
         offset="1"
         style="stop-color:#4071a0;stop-opacity:1" />
    </linearGradient>
    <linearGradient
       id="linearGradient3750">
      <stop
         style="stop-color:#d0e2f1;stop-opacity:1"
         offset="0"
         id="stop3752" />
      <stop
         id="stop3756"
         offset="0.85580856"
         style="stop-color:#cadef0;stop-opacity:1" />
      <stop
         style="stop-color:#95bee3;stop-opacity:1"
         offset="1"
         id="stop3754" />
    </linearGradient>
    <linearGradient
       id="linearGradient3803">
      <stop
         id="stop3805"
         offset="0"
         style="stop-color:#d7def0;stop-opacity:1;" />
      <stop
         style="stop-color:#ffffff;stop-opacity:1"
         offset="0.5"
         id="stop3811" />
      <stop
         id="stop3807"
         offset="1"
         style="stop-color:#d5def0;stop-opacity:1" />
    </linearGradient>
    <linearGradient
       inkscape:collect="always"
       xlink:href="#linearGradient3795"
       id="linearGradient3859"
       x1="26.192217"
       y1="1024.0002"
       x2="28.641211"
       y2="1024.0002"
       gradientUnits="userSpaceOnUse" />
    <linearGradient
       inkscape:collect="always"
       xlink:href="#linearGradient3795"
       id="linearGradient3867"
       gradientUnits="userSpaceOnUse"
       x1="26.192217"
       y1="1024.0002"
       x2="28.641211"
       y2="1024.0002" />
    <linearGradient
       inkscape:collect="always"
       xlink:href="#linearGradient3795"
       id="linearGradient3869"
       gradientUnits="userSpaceOnUse"
       x1="26.192217"
       y1="1024.0002"
       x2="28.641211"
       y2="1024.0002" />
    <linearGradient
       inkscape:collect="always"
       xlink:href="#linearGradient3795"
       id="linearGradient3871"
       gradientUnits="userSpaceOnUse"
       x1="26.192217"
       y1="1024.0002"
       x2="28.641211"
       y2="1024.0002" />
    <linearGradient
       inkscape:collect="always"
       xlink:href="#linearGradient3795"
       id="linearGradient3877"
       gradientUnits="userSpaceOnUse"
       x1="29.718235"
       y1="1027.8575"
       x2="22.811094"
       y2="1015.5485" />
    <linearGradient
       inkscape:collect="always"
       xlink:href="#linearGradient3795"
       id="linearGradient3879"
       gradientUnits="userSpaceOnUse"
       x1="17.196316"
       y1="1006.2238"
       x2="31.448042"
       y2="1030.9086" />
    <linearGradient
       inkscape:collect="always"
       xlink:href="#linearGradient3795"
       id="linearGradient3895"
       x1="21.973417"
       y1="34.43922"
       x2="42.475323"
       y2="24.798252"
       gradientUnits="userSpaceOnUse" />
    <radialGradient
       id="radialGradient4036-3"
       gradientUnits="userSpaceOnUse"
       cx="213.74001"
       cy="846.39001"
       r="25.774"
       gradientTransform="matrix(2.1446,0.54333,-0.23563,0.93006,-92.14468,107.95031)">
      <stop
         id="stop4012-29"
         style="stop-color:#fff"
         offset="0" />
      <stop
         id="stop4014-0"
         style="stop-color:#fff;stop-opacity:0"
         offset="1" />
    </radialGradient>
    <clipPath
       id="clipPath4157"
       clipPathUnits="userSpaceOnUse">
      <path
         inkscape:connector-curvature="0"
         id="path4159"
         style="color:#000000;fill:#f57900;fill-rule:evenodd;enable-background:new"
         d="m 269.47,688.53 c 15.602,15.625 19.169,37.385 19.169,37.385 0,0 -21.729,-3.5724 -37.33,-19.197 -15.602,-15.625 -19.169,-37.385 -19.169,-37.385 0,0 21.729,3.5724 37.33,19.197 z" />
    </clipPath>
    <filter
       id="filter4161"
       width="1.2402"
       y="-0.11991"
       x="-0.12009"
       height="1.2398"
       color-interpolation-filters="sRGB">
      <feGaussianBlur
         id="feGaussianBlur4163"
         stdDeviation="2.8270453" />
    </filter>
    <clipPath
       id="clipPath4083"
       clipPathUnits="userSpaceOnUse">
      <path
         inkscape:connector-curvature="0"
         id="path4085"
         style="color:#000000;fill:#729fcf;fill-rule:evenodd;enable-background:new"
         d="m 515.87,745.01 c 15.602,15.625 19.169,37.385 19.169,37.385 0,0 -21.729,-3.5724 -37.33,-19.197 -15.602,-15.625 -19.169,-37.385 -19.169,-37.385 0,0 21.729,3.5724 37.33,19.197 z" />
    </clipPath>
    <filter
       id="filter4087"
       width="1.2402"
       y="-0.11991"
       x="-0.12009"
       height="1.2398"
       color-interpolation-filters="sRGB">
      <feGaussianBlur
         id="feGaussianBlur4089"
         stdDeviation="2.8270455" />
    </filter>
    <clipPath
       id="clipPath4071"
       clipPathUnits="userSpaceOnUse">
      <path
         inkscape:connector-curvature="0"
         id="path4073"
         style="color:#000000;fill:#afea2c;fill-rule:evenodd;enable-background:new"
         d="m 515.87,706.72 c -15.602,15.625 -37.33,19.197 -37.33,19.197 0,0 3.5672,-21.76 19.169,-37.385 15.6018,-15.625 37.33,-19.197 37.33,-19.197 0,0 -3.5672,21.76 -19.169,37.385 z" />
    </clipPath>
    <filter
       id="filter4075"
       width="1.2402"
       y="-0.11991"
       x="-0.12009"
       height="1.2398"
       color-interpolation-filters="sRGB">
      <feGaussianBlur
         id="feGaussianBlur4077"
         stdDeviation="2.8270455" />
    </filter>
    <clipPath
       id="clipPath4133"
       clipPathUnits="userSpaceOnUse">
      <path
         inkscape:connector-curvature="0"
         id="path4135"
         style="color:#000000;fill:#65c808;fill-rule:evenodd;enable-background:new"
         d="m 538.47,738.73 c -22.064,0 -39.951,-12.861 -39.951,-12.861 0,0 17.887,-12.861 39.951,-12.861 22.064,0 39.951,12.861 39.951,12.861 0,0 -17.887,12.861 -39.951,12.861 z" />
    </clipPath>
    <filter
       id="filter4137"
       width="1.1586"
       y="-0.24639"
       x="-0.079314999"
       height="1.4928"
       color-interpolation-filters="sRGB">
      <feGaussianBlur
         id="feGaussianBlur4139"
         stdDeviation="2.6406015" />
    </filter>
    <clipPath
       id="clipPath4197"
       clipPathUnits="userSpaceOnUse">
      <path
         inkscape:connector-curvature="0"
         id="path4199"
         style="color:#000000;fill:#75507b;fill-rule:evenodd;enable-background:new"
         d="m 299.47,763.2 c -15.602,15.625 -37.33,19.197 -37.33,19.197 0,0 3.5672,-21.76 19.169,-37.385 15.6018,-15.625 37.33,-19.197 37.33,-19.197 0,0 -3.5672,21.76 -19.169,37.385 z" />
    </clipPath>
    <filter
       id="filter4201"
       width="1.2402"
       y="-0.11991"
       x="-0.12009"
       height="1.2398"
       color-interpolation-filters="sRGB">
      <feGaussianBlur
         id="feGaussianBlur4203"
         stdDeviation="2.8270453" />
    </filter>
    <clipPath
       id="clipPath4181"
       clipPathUnits="userSpaceOnUse">
      <path
         inkscape:connector-curvature="0"
         id="path4183"
         style="color:#000000;fill:#ef2929;fill-rule:evenodd;enable-background:new"
         d="m 348.71,698.73 c -22.064,0 -39.951,-12.861 -39.951,-12.861 0,0 17.887,-12.861 39.951,-12.861 22.064,0 39.951,12.861 39.951,12.861 0,0 -17.887,12.861 -39.951,12.861 z" />
    </clipPath>
    <filter
       id="filter4189"
       width="1.1586"
       y="-0.24639"
       x="-0.079314999"
       height="1.4928"
       color-interpolation-filters="sRGB">
      <feGaussianBlur
         id="feGaussianBlur4191"
         stdDeviation="2.6406013" />
    </filter>
    <clipPath
       id="clipPath4145"
       clipPathUnits="userSpaceOnUse">
      <path
         inkscape:connector-curvature="0"
         id="path4147"
         style="color:#000000;fill:#3465a4;fill-rule:evenodd;enable-background:new"
         d="m 401.43,865.8 c 0,22.097 -12.842,40.01 -12.842,40.01 0,0 -12.842,-17.913 -12.842,-40.01 0,-22.097 12.842,-40.01 12.842,-40.01 0,0 12.842,17.913 12.842,40.01 z" />
    </clipPath>
    <filter
       id="filter4149"
       width="1.4938999"
       y="-0.079258002"
       x="-0.24693"
       height="1.1585"
       color-interpolation-filters="sRGB">
      <feGaussianBlur
         id="feGaussianBlur4151"
         stdDeviation="2.642588" />
    </filter>
    <clipPath
       id="clipPath4169"
       clipPathUnits="userSpaceOnUse">
      <path
         inkscape:connector-curvature="0"
         id="path4171"
         style="color:#000000;fill:#edd400;fill-rule:evenodd;enable-background:new"
         d="m 471.43,685.93 c 0,22.097 -12.842,40.01 -12.842,40.01 0,0 -12.842,-17.913 -12.842,-40.01 0,-22.097 12.842,-40.01 12.842,-40.01 0,0 12.842,17.913 12.842,40.01 z" />
    </clipPath>
    <filter
       id="filter4173"
       width="1.4938999"
       y="-0.079258002"
       x="-0.24693"
       height="1.1585"
       color-interpolation-filters="sRGB">
      <feGaussianBlur
         id="feGaussianBlur4175"
         stdDeviation="2.642588" />
    </filter>
    <radialGradient
       gradientTransform="matrix(2.1446,0.54333,-0.23563,0.93006,-46.185,-798.23)"
       r="25.774"
       cy="846.39"
       cx="213.74"
       gradientUnits="userSpaceOnUse"
       id="radialGradient4036-3-6">
      <stop
         offset="0"
         style="stop-color:#fff"
         id="stop4012-29-2" />
      <stop
         offset="1"
         style="stop-color:#fff;stop-opacity:0"
         id="stop4014-0-5" />
    </radialGradient>
    <radialGradient
       gradientTransform="matrix(0.66762,-1.2556,0.62963,0.33477,-513.52,163.93)"
       r="25.774"
       cy="689.06"
       cx="174.42"
       gradientUnits="userSpaceOnUse"
       id="radialGradient4036-6">
      <stop
         offset="0"
         style="stop-color:#fff"
         id="stop4012-3" />
      <stop
         offset="1"
         style="stop-color:#fff;stop-opacity:0"
         id="stop4014-4" />
    </radialGradient>
    <radialGradient
       gradientTransform="matrix(-0.59883,-1.0815,1.5121,-0.83725,-944.83,910.25)"
       r="25.774"
       cy="714.44"
       cx="196.29"
       gradientUnits="userSpaceOnUse"
       id="radialGradient4036-9">
      <stop
         offset="0"
         style="stop-color:#fff"
         id="stop4012-2" />
      <stop
         offset="1"
         style="stop-color:#fff;stop-opacity:0"
         id="stop4014-51" />
    </radialGradient>
    <radialGradient
       gradientTransform="matrix(-7.1009,-3.7574,0.65284,-1.2338,945.4,1718.8)"
       r="25.774"
       cy="803.94"
       cx="190.11"
       gradientUnits="userSpaceOnUse"
       id="radialGradient4036">
      <stop
         offset="0"
         style="stop-color:#fff"
         id="stop4012-4" />
      <stop
         offset="1"
         style="stop-color:#fff;stop-opacity:0"
         id="stop4014-5" />
    </radialGradient>
    <filter
       color-interpolation-filters="sRGB"
       id="filter4144">
      <feGaussianBlur
         stdDeviation="0.52449438"
         id="feGaussianBlur4146" />
    </filter>
    <linearGradient
       x1="177.02"
       y1="715.69"
       x2="190.87"
       gradientUnits="userSpaceOnUse"
       y2="745.97"
       id="linearGradient4042">
      <stop
         offset="0"
         style="stop-color:#e3e3e1"
         id="stop4117" />
      <stop
         offset="1"
         style="stop-color:#7f8376"
         id="stop4119" />
    </linearGradient>
    <filter
       color-interpolation-filters="sRGB"
       height="1.2398"
       x="-.12009"
       y="-.11991"
       width="1.2402"
       id="filter4161-2">
      <feGaussianBlur
         stdDeviation="2.8270453"
         id="feGaussianBlur4163-7" />
    </filter>
    <clipPath
       clipPathUnits="userSpaceOnUse"
       id="clipPath4157-4">
      <path
         d="m269.47 688.53c15.602 15.625 19.169 37.385 19.169 37.385s-21.729-3.5724-37.33-19.197c-15.602-15.625-19.169-37.385-19.169-37.385s21.729 3.5724 37.33 19.197z"
         style="color:#000000;fill-rule:evenodd;enable-background:new;fill:#f57900"
         id="path4159-8" />
    </clipPath>
    <filter
       color-interpolation-filters="sRGB"
       height="1.2398"
       x="-.12009"
       y="-.11991"
       width="1.2402"
       id="filter4087-4">
      <feGaussianBlur
         stdDeviation="2.8270455"
         id="feGaussianBlur4089-4" />
    </filter>
    <clipPath
       clipPathUnits="userSpaceOnUse"
       id="clipPath4083-1">
      <path
         d="m515.87 745.01c15.602 15.625 19.169 37.385 19.169 37.385s-21.729-3.5724-37.33-19.197c-15.602-15.625-19.169-37.385-19.169-37.385s21.729 3.5724 37.33 19.197z"
         style="color:#000000;fill-rule:evenodd;enable-background:new;fill:#729fcf"
         id="path4085-9" />
    </clipPath>
    <filter
       color-interpolation-filters="sRGB"
       height="1.2398"
       x="-.12009"
       y="-.11991"
       width="1.2402"
       id="filter4075-6">
      <feGaussianBlur
         stdDeviation="2.8270455"
         id="feGaussianBlur4077-0" />
    </filter>
    <clipPath
       clipPathUnits="userSpaceOnUse"
       id="clipPath4071-8">
      <path
         d="m515.87 706.72c-15.602 15.625-37.33 19.197-37.33 19.197s3.5672-21.76 19.169-37.385 37.33-19.197 37.33-19.197-3.5672 21.76-19.169 37.385z"
         style="color:#000000;fill-rule:evenodd;enable-background:new;fill:#afea2c"
         id="path4073-0" />
    </clipPath>
    <filter
       color-interpolation-filters="sRGB"
       height="1.4928"
       x="-.079315"
       y="-.24639"
       width="1.1586"
       id="filter4137-2">
      <feGaussianBlur
         stdDeviation="2.6406015"
         id="feGaussianBlur4139-6" />
    </filter>
    <clipPath
       clipPathUnits="userSpaceOnUse"
       id="clipPath4133-7">
      <path
         d="m538.47 738.73c-22.064 0-39.951-12.861-39.951-12.861s17.887-12.861 39.951-12.861 39.951 12.861 39.951 12.861-17.887 12.861-39.951 12.861z"
         style="color:#000000;fill-rule:evenodd;enable-background:new;fill:#65c808"
         id="path4135-5" />
    </clipPath>
    <filter
       color-interpolation-filters="sRGB"
       height="1.2398"
       x="-.12009"
       y="-.11991"
       width="1.2402"
       id="filter4201-7">
      <feGaussianBlur
         stdDeviation="2.8270453"
         id="feGaussianBlur4203-3" />
    </filter>
    <clipPath
       clipPathUnits="userSpaceOnUse"
       id="clipPath4197-9">
      <path
         d="m299.47 763.2c-15.602 15.625-37.33 19.197-37.33 19.197s3.5672-21.76 19.169-37.385 37.33-19.197 37.33-19.197-3.5672 21.76-19.169 37.385z"
         style="color:#000000;fill-rule:evenodd;enable-background:new;fill:#75507b"
         id="path4199-2" />
    </clipPath>
    <filter
       color-interpolation-filters="sRGB"
       height="1.4928"
       x="-.079315"
       y="-.24639"
       width="1.1586"
       id="filter4189-0">
      <feGaussianBlur
         stdDeviation="2.6406013"
         id="feGaussianBlur4191-5" />
    </filter>
    <clipPath
       clipPathUnits="userSpaceOnUse"
       id="clipPath4181-1">
      <path
         d="m348.71 698.73c-22.064 0-39.951-12.861-39.951-12.861s17.887-12.861 39.951-12.861 39.951 12.861 39.951 12.861-17.887 12.861-39.951 12.861z"
         style="color:#000000;fill-rule:evenodd;enable-background:new;fill:#ef2929"
         id="path4183-8" />
    </clipPath>
    <filter
       color-interpolation-filters="sRGB"
       height="1.1585"
       x="-.24693"
       y="-.079258"
       width="1.4939"
       id="filter4149-2">
      <feGaussianBlur
         stdDeviation="2.642588"
         id="feGaussianBlur4151-0" />
    </filter>
    <clipPath
       clipPathUnits="userSpaceOnUse"
       id="clipPath4145-6">
      <path
         d="m401.43 865.8c0 22.097-12.842 40.01-12.842 40.01s-12.842-17.913-12.842-40.01 12.842-40.01 12.842-40.01 12.842 17.913 12.842 40.01z"
         style="color:#000000;fill-rule:evenodd;enable-background:new;fill:#3465a4"
         id="path4147-6" />
    </clipPath>
    <filter
       color-interpolation-filters="sRGB"
       height="1.1585"
       x="-.24693"
       y="-.079258"
       width="1.4939"
       id="filter4173-0">
      <feGaussianBlur
         stdDeviation="2.642588"
         id="feGaussianBlur4175-6" />
    </filter>
    <clipPath
       clipPathUnits="userSpaceOnUse"
       id="clipPath4169-3">
      <path
         d="m471.43 685.93c0 22.097-12.842 40.01-12.842 40.01s-12.842-17.913-12.842-40.01 12.842-40.01 12.842-40.01 12.842 17.913 12.842 40.01z"
         style="color:#000000;fill-rule:evenodd;enable-background:new;fill:#edd400"
         id="path4171-8" />
    </clipPath>
    <filter
       color-interpolation-filters="sRGB"
       id="filter4123">
      <feGaussianBlur
         stdDeviation="0.26224718"
         id="feGaussianBlur4125" />
    </filter>
    <clipPath
       clipPathUnits="userSpaceOnUse"
       id="clipPath3983">
      <path
         d="m184.12 701.5a2.2363 2.2363 0 0 0 -1.4688 0.90625s-3.328 4.7671-4.0312 11.156c-5.0181-4.0229-10.75-5.0625-10.75-5.0625a2.2363 2.2363 0 0 0 -2.5938 2.5625s1.034 5.7649 5.0625 10.781c-6.3978 0.70283-11.188 4.0312-11.188 4.0312a2.2363 2.2363 0 0 0 0 3.625s4.7948 3.3031 11.188 4c-4.0285 5.0164-5.0625 10.781-5.0625 10.781a2.2363 2.2363 0 0 0 2.5938 2.5625s5.7319-1.0396 10.75-5.0625c0.70267 6.3934 4.0312 11.188 4.0312 11.188a2.2363 2.2363 0 0 0 3.625 0s3.3111-4.8145 4-11.219c5.0262 4.0467 10.781 5.0938 10.781 5.0938a2.2363 2.2363 0 0 0 2.5938 -2.5938s-1.0624-5.7373-5.0938-10.75c6.397-0.69632 11.219-4 11.219-4a2.2363 2.2363 0 0 0 0 -3.625s-4.8167-3.329-11.219-4.0312c4.0313-5.0127 5.0938-10.75 5.0938-10.75a2.2363 2.2363 0 0 0 -2.59 -2.6s-5.755 1.047-10.781 5.0938c-0.69265-6.3936-4-11.188-4-11.188a2.2363 2.2363 0 0 0 -2.16 -0.91z"
         style="color:#000000;fill-rule:evenodd;enable-background:new;fill:#eeeeec"
         id="path3985" />
    </clipPath>
    <radialGradient
       r="15.678572"
       fy="1040.3323"
       fx="24"
       cy="1040.3323"
       cx="24"
       gradientTransform="matrix(1,0,0,0.22551253,0,805.72436)"
       gradientUnits="userSpaceOnUse"
       id="radialGradient3823"
       xlink:href="#linearGradient2679"
       inkscape:collect="always" />
    <radialGradient
       r="18.885624"
       fy="12.12002"
       fx="18.737123"
       cy="12.12002"
       cx="18.737123"
       gradientUnits="userSpaceOnUse"
       id="radialGradient3821"
       xlink:href="#linearGradient2679"
       inkscape:collect="always" />
    <radialGradient
       gradientUnits="userSpaceOnUse"
       r="18.885624"
       fy="12.12002"
       fx="18.737123"
       cy="12.12002"
       cx="18.737123"
       id="radialGradient4021"
       xlink:href="#linearGradient2679"
       inkscape:collect="always" />
    <radialGradient
       gradientUnits="userSpaceOnUse"
       gradientTransform="matrix(1,0,0,0.22551253,0,805.72436)"
       r="15.678572"
       fy="1040.3323"
       fx="24"
       cy="1040.3323"
       cx="24"
       id="radialGradient4019"
       xlink:href="#linearGradient2679"
       inkscape:collect="always" />
    <inkscape:perspective
       sodipodi:type="inkscape:persp3d"
       inkscape:vp_x="0 : 24 : 1"
       inkscape:vp_y="0 : 1000 : 0"
       inkscape:vp_z="48 : 24 : 1"
       inkscape:persp3d-origin="24 : 16 : 1"
       id="perspective68" />
    <linearGradient
       id="linearGradient4061">
      <stop
         id="stop4063"
         offset="0"
         style="stop-color:#474845;stop-opacity:1;" />
      <stop
         id="stop4065"
         offset="1"
         style="stop-color:#838681;stop-opacity:1" />
    </linearGradient>
    <linearGradient
       id="linearGradient3881">
      <stop
         style="stop-color:#474845;stop-opacity:1;"
         offset="0"
         id="stop3883" />
      <stop
         style="stop-color:#838681;stop-opacity:1"
         offset="1"
         id="stop3885" />
    </linearGradient>
    <linearGradient
       id="linearGradient2684">
      <stop
         id="stop2686"
         offset="0"
         style="stop-color:#ffffff;stop-opacity:1;" />
      <stop
         id="stop2688"
         offset="1"
         style="stop-color:#000000;stop-opacity:1;" />
    </linearGradient>
    <linearGradient
       id="linearGradient2584">
      <stop
         style="stop-color:#000000;stop-opacity:1;"
         offset="0"
         id="stop2586" />
      <stop
         style="stop-color:#ffffff;stop-opacity:0;"
         offset="1"
         id="stop2588" />
    </linearGradient>
    <linearGradient
       id="linearGradient5075">
      <stop
         style="stop-color:#adb0a8;stop-opacity:1;"
         offset="0"
         id="stop5077" />
      <stop
         style="stop-color:#464744;stop-opacity:1"
         offset="1"
         id="stop5079" />
    </linearGradient>
    <linearGradient
       gradientUnits="userSpaceOnUse"
       y2="36"
       x2="23.750401"
       y1="13.658564"
       x1="24.476166"
       id="linearGradient2322"
       xlink:href="#linearGradient2316"
       inkscape:collect="always" />
    <radialGradient
       r="8.75"
       fy="147.99352"
       fx="64.227074"
       cy="147.99352"
       cx="64.227074"
       gradientTransform="matrix(0.222659,-0.996273,2.129992,0.476041,-308.946,20.8517)"
       gradientUnits="userSpaceOnUse"
       id="radialGradient1439"
       xlink:href="#linearGradient2679"
       inkscape:collect="always" />
    <radialGradient
       r="8.75"
       fy="147.99352"
       fx="64.227074"
       cy="147.99352"
       cx="64.227074"
       gradientTransform="matrix(0.222659,-0.996273,2.129992,0.476041,-290.946,20.8517)"
       gradientUnits="userSpaceOnUse"
       id="radialGradient1436"
       xlink:href="#linearGradient2679"
       inkscape:collect="always" />
    <linearGradient
       y2="115.13713"
       x2="49.667324"
       y1="112.94963"
       x1="49.430401"
       gradientTransform="translate(-44.99051,-97.26213)"
       gradientUnits="userSpaceOnUse"
       id="linearGradient1426"
       xlink:href="#linearGradient2584"
       inkscape:collect="always" />
    <linearGradient
       y2="142.18799"
       x2="54.896976"
       y1="156"
       x1="54.988514"
       gradientTransform="translate(-47.9996,-121)"
       gradientUnits="userSpaceOnUse"
       id="linearGradient1401"
       xlink:href="#linearGradient5075"
       inkscape:collect="always" />
    <linearGradient
       inkscape:collect="always"
       id="linearGradient2679">
      <stop
         style="stop-color:#ffffff;stop-opacity:1"
         offset="0"
         id="stop2681" />
      <stop
         style="stop-color:#d3d7cf"
         offset="1"
         id="stop2683" />
    </linearGradient>
    <linearGradient
       id="linearGradient2316">
      <stop
         id="stop2318"
         offset="0"
         style="stop-color:#000000;stop-opacity:1;" />
      <stop
         id="stop2320"
         offset="1"
         style="stop-color:#ffffff;stop-opacity:0.65979379;" />
    </linearGradient>
    <linearGradient
       id="linearGradient8666">
      <stop
         style="stop-color:#f5f5f5;stop-opacity:1;"
         offset="0"
         id="stop8668" />
      <stop
         style="stop-color:#f5f5f5;stop-opacity:0;"
         offset="1"
         id="stop8670" />
    </linearGradient>
    <linearGradient
       id="linearGradient8658">
      <stop
         style="stop-color:#000000;stop-opacity:1;"
         offset="0"
         id="stop8660" />
      <stop
         style="stop-color:#000000;stop-opacity:0;"
         offset="1"
         id="stop8662" />
    </linearGradient>
    <linearGradient
       id="linearGradient8645">
      <stop
         style="stop-color:#333333;stop-opacity:1;"
         offset="0"
         id="stop8647" />
      <stop
         style="stop-color:#333333;stop-opacity:0;"
         offset="1"
         id="stop8649" />
    </linearGradient>
    <linearGradient
       id="linearGradient8635">
      <stop
         id="stop8637"
         offset="0"
         style="stop-color:#333333;stop-opacity:1;" />
      <stop
         id="stop8639"
         offset="1"
         style="stop-color:#f0f0f0;stop-opacity:0;" />
    </linearGradient>
    <linearGradient
       id="linearGradient8657">
      <stop
         style="stop-color:#ffffff;stop-opacity:1;"
         offset="0"
         id="stop8659" />
      <stop
         style="stop-color:#dce1e5;stop-opacity:1;"
         offset="1"
         id="stop8661" />
    </linearGradient>
    <linearGradient
       id="linearGradient8649">
      <stop
         style="stop-color:#8c8c8c;stop-opacity:1;"
         offset="0"
         id="stop8651" />
      <stop
         style="stop-color:#f0f0f0;stop-opacity:0;"
         offset="1"
         id="stop8653" />
    </linearGradient>
    <linearGradient
       id="linearGradient8636">
      <stop
         style="stop-color:#646464;stop-opacity:1;"
         offset="0"
         id="stop8638" />
      <stop
         style="stop-color:#333333;stop-opacity:1;"
         offset="1"
         id="stop8640" />
    </linearGradient>
    <inkscape:perspective
       sodipodi:type="inkscape:persp3d"
       inkscape:vp_x="0 : 526.18109 : 1"
       inkscape:vp_y="0 : 1000 : 0"
       inkscape:vp_z="744.09448 : 526.18109 : 1"
       inkscape:persp3d-origin="372.04724 : 350.78739 : 1"
       id="perspective10" />
    <inkscape:perspective
       id="perspective7856"
       inkscape:persp3d-origin="372.04724 : 350.78739 : 1"
       inkscape:vp_z="744.09448 : 526.18109 : 1"
       inkscape:vp_y="0 : 1000 : 0"
       inkscape:vp_x="0 : 526.18109 : 1"
       sodipodi:type="inkscape:persp3d" />
    <radialGradient
       inkscape:collect="always"
       xlink:href="#linearGradient8636"
       id="radialGradient8642"
       cx="70.458"
       cy="73.199226"
       fx="70.458"
       fy="73.199226"
       r="55.811367"
       gradientTransform="matrix(2.1073751,0,0,2.1073803,-78.023434,-81.059384)"
       gradientUnits="userSpaceOnUse" />
    <radialGradient
       inkscape:collect="always"
       xlink:href="#linearGradient8657"
       id="radialGradient8665"
       cx="70.458"
       cy="73.199226"
       fx="70.458"
       fy="73.199226"
       r="55.811367"
       gradientTransform="matrix(1,0,0,1.0000025,0,-1.8169358e-4)"
       gradientUnits="userSpaceOnUse" />
    <linearGradient
       inkscape:collect="always"
       xlink:href="#linearGradient8645"
       id="linearGradient8651"
       x1="70.205498"
       y1="7.3844137"
       x2="70.205498"
       y2="34.237083"
       gradientUnits="userSpaceOnUse" />
    <linearGradient
       inkscape:collect="always"
       xlink:href="#linearGradient8645"
       id="linearGradient8664"
       x1="70.458"
       y1="14.799726"
       x2="70.458"
       y2="87.977859"
       gradientUnits="userSpaceOnUse" />
    <linearGradient
       inkscape:collect="always"
       xlink:href="#linearGradient8666"
       id="linearGradient8672"
       x1="70.205498"
       y1="14.045123"
       x2="70.205498"
       y2="60.825073"
       gradientUnits="userSpaceOnUse" />
    <radialGradient
       inkscape:collect="always"
       xlink:href="#linearGradient8636"
       id="radialGradient8689"
       cx="70.458"
       cy="73.199226"
       fx="70.458"
       fy="73.199226"
       r="60.276276"
       gradientTransform="matrix(1.8914286,0,0,1.7898877,-62.808273,-57.81917)"
       gradientUnits="userSpaceOnUse" />
    <radialGradient
       inkscape:collect="always"
       xlink:href="#linearGradient8657"
       id="radialGradient8699"
       gradientUnits="userSpaceOnUse"
       gradientTransform="matrix(1,0,0,1.0000025,0,-1.8169358e-4)"
       cx="70.458"
       cy="73.199226"
       fx="70.458"
       fy="73.199226"
       r="55.811367" />
    <linearGradient
       inkscape:collect="always"
       xlink:href="#linearGradient8645"
       id="linearGradient8701"
       gradientUnits="userSpaceOnUse"
       x1="70.458"
       y1="14.799726"
       x2="70.458"
       y2="87.977859" />
    <linearGradient
       inkscape:collect="always"
       xlink:href="#linearGradient8666"
       id="linearGradient8703"
       gradientUnits="userSpaceOnUse"
       x1="70.205498"
       y1="-7.918128"
       x2="70.205498"
       y2="60.825073" />
    <radialGradient
       inkscape:collect="always"
       xlink:href="#linearGradient8636"
       id="radialGradient8705"
       gradientUnits="userSpaceOnUse"
       gradientTransform="matrix(1.8914286,0,0,1.7898877,-62.808273,-57.81917)"
       cx="70.458"
       cy="73.199226"
       fx="70.458"
       fy="73.199226"
       r="60.276276" />
    <inkscape:perspective
       id="perspective8732"
       inkscape:persp3d-origin="372.04724 : 350.78739 : 1"
       inkscape:vp_z="744.09448 : 526.18109 : 1"
       inkscape:vp_y="0 : 1000 : 0"
       inkscape:vp_x="0 : 526.18109 : 1"
       sodipodi:type="inkscape:persp3d" />
    <linearGradient
       id="linearGradient3761">
      <stop
         style="stop-color:#2d2d2d;stop-opacity:1"
         offset="0"
         id="stop3763" />
      <stop
         style="stop-color:#a7a7a7;stop-opacity:1"
         offset="1"
         id="stop3765" />
    </linearGradient>
    <linearGradient
       id="linearGradient3017">
      <stop
         style="stop-color:#2d2d2d;stop-opacity:1"
         offset="0"
         id="stop3019" />
      <stop
         style="stop-color:#a7a7a7;stop-opacity:1"
         offset="1"
         id="stop3021" />
    </linearGradient>
    <inkscape:perspective
       id="perspective2447"
       inkscape:persp3d-origin="372.04724 : 350.78739 : 1"
       inkscape:vp_z="744.09448 : 526.18109 : 1"
       inkscape:vp_y="0 : 1000 : 0"
       inkscape:vp_x="0 : 526.18109 : 1"
       sodipodi:type="inkscape:persp3d" />
    <radialGradient
       inkscape:collect="always"
       xlink:href="#linearGradient5075-4"
       id="radialGradient3962"
       cx="24.131573"
       cy="1027.5085"
       fx="24.131573"
       fy="1027.5085"
       r="15.999846"
       gradientTransform="matrix(0.1929033,0.98121777,-0.4726024,0.09291165,503.45444,909.13509)"
       gradientUnits="userSpaceOnUse" />
    <radialGradient
       inkscape:collect="always"
       xlink:href="#linearGradient5075-4"
       id="radialGradient3962-3"
       cx="24.131573"
       cy="1027.5085"
       fx="24.131573"
       fy="1027.5085"
       r="15.999846"
       gradientTransform="matrix(0.35511065,0.93482427,-0.45025703,0.17103863,478.2024,829.1008)"
       gradientUnits="userSpaceOnUse" />
    <linearGradient
       id="linearGradient5075-4">
      <stop
         style="stop-color:#adb0a8;stop-opacity:1;"
         offset="0"
         id="stop5077-1" />
      <stop
         style="stop-color:#464744;stop-opacity:1"
         offset="1"
         id="stop5079-8" />
    </linearGradient>
    <linearGradient
       inkscape:collect="always"
       xlink:href="#linearGradient3948"
       id="linearGradient3954"
       x1="25.875002"
       y1="-1052.2373"
       x2="25.875002"
       y2="-1003.7372"
       gradientUnits="userSpaceOnUse" />
  </defs>
  <sodipodi:namedview
     id="base"
     pagecolor="#ffffff"
     bordercolor="#666666"
     borderopacity="1.0"
     inkscape:pageopacity="0.0"
     inkscape:pageshadow="2"
     inkscape:zoom="8.0000004"
     inkscape:cx="-3.6681478"
     inkscape:cy="16.147139"
     inkscape:document-units="px"
     inkscape:current-layer="layer1"
     showgrid="false"
     inkscape:window-width="1280"
     inkscape:window-height="721"
     inkscape:window-x="0"
     inkscape:window-y="22"
     inkscape:window-maximized="1">
    <inkscape:grid
       type="xygrid"
       id="grid3850" />
  </sodipodi:namedview>
  <metadata
     id="metadata7">
    <rdf:RDF>
      <cc:Work
         rdf:about="">
        <dc:format>image/svg+xml</dc:format>
        <dc:type
           rdf:resource="http://purl.org/dc/dcmitype/StillImage" />
        <dc:title />
      </cc:Work>
    </rdf:RDF>
  </metadata>
  <g
     inkscape:label="Capa 1"
     inkscape:groupmode="layer"
     id="layer1"
     transform="translate(0,-1004.3622)">
    <rect
       style="fill:url(#linearGradient3954);fill-opacity:1;stroke:none"
       id="rect2991"
       width="48"
       height="48"
       x="0"
       y="-1052.3622"
       ry="1.9445436"
       transform="scale(1,-1)" />
    <path
       style="fill:#ffffff;stroke:none;fill-opacity:1;opacity:0.15"
       d="M 0 0 L 0 48 L 16.78125 48 L 29.625 0 L 0 0 z "
       transform="translate(0,1004.3622)"
       id="rect3790" />
    <path
       id="path2451-8"
       d="m 26.526231,1015.4093 c 0.205175,-0.1295 0.566628,-0.3101 0.803512,-0.4013 1.099731,-0.4235 2.114735,-0.4086 3.500743,0.052 l 0.598587,0.1963 0.437017,-0.1314 c 0.834977,-0.251 2.1133,-0.2434 3.115005,0.018 0.872624,0.2284 1.416807,0.4946 2.215255,1.1067 0.628597,0.478 0.677054,0.5239 1.097188,1.0188 1.214959,1.4346 1.76162,2.9692 1.702085,4.7809 -0.02026,0.6133 -0.04878,0.79 -0.219828,1.3619 -0.338286,1.1321 -0.405126,1.5103 -0.356114,2.0201 0.02464,0.2495 0.06658,0.5265 0.09294,0.6156 0.07287,0.2257 -0.0472,1.1005 -0.222127,1.6723 -0.173277,0.5659 -0.502277,1.1477 -0.992064,1.7542 -0.492062,0.6093 -0.735541,0.7964 -1.463312,1.1248 -0.924304,0.4172 -1.752075,0.5588 -2.692,0.4602 -0.374961,-0.04 -0.59081,-0.098 -1.077951,-0.2924 -0.720254,-0.287 -0.849307,-0.3486 -1.045113,-0.4967 -0.07995,-0.062 -0.312418,-0.2343 -0.513257,-0.385 -0.200809,-0.1505 -0.396592,-0.3091 -0.433893,-0.3542 l -0.06877,-0.08 -0.705162,0.5958 c -0.388143,0.3277 -0.731292,0.5967 -0.761948,0.5991 -0.167611,0.012 -0.361676,-0.1465 -0.712076,-0.5661 -0.192969,-0.2316 -0.372777,-0.4466 -0.399788,-0.4769 -0.03761,-0.043 -0.122068,-0.012 -0.378569,0.1479 -0.356858,0.2201 -0.64727,0.4894 -1.167324,1.0849 -0.370245,0.4233 -0.635053,0.6063 -1.061497,0.734 -0.255768,0.077 -0.873996,0.04 -1.021,-0.061 -0.078,-0.046 -0.07942,-0.046 -0.140861,0.1348 -0.03698,0.1032 -0.09867,0.334 -0.138871,0.5159 -0.04068,0.1819 -0.08885,0.3437 -0.108058,0.3602 -0.01926,0.017 -0.04552,0.071 -0.05701,0.1209 -0.01994,0.079 -0.120166,0.102 -0.683847,0.1702 -0.36344,0.043 -0.699917,0.072 -0.747757,0.065 -0.07635,-0.012 -0.08696,0 -0.08476,0.088 -4.7e-4,0.054 -0.01537,0.1092 -0.03374,0.1243 -0.01716,0.014 -0.06582,0.1762 -0.104903,0.359 -0.03925,0.1826 -0.10104,0.4063 -0.13599,0.4978 l -0.06334,0.1669 -0.244709,0.032 c -0.134417,0.018 -0.46141,0.031 -0.72645,0.03 -0.470599,0 -0.719403,0.037 -0.93638,0.1432 -0.08754,0.044 -0.111777,0.1104 -0.14967,0.3314 -0.02349,0.1535 -0.07454,0.3838 -0.113853,0.5124 l -0.07114,0.2337 -0.171066,0.035 c -0.09557,0.019 -0.522279,0.026 -0.950863,0.018 -0.428565,-0.012 -0.790305,0 -0.803603,0.034 -0.04294,0.09 -0.266017,1.1366 -0.253785,1.1948 0.02043,0.077 -0.421498,0.092 -0.96919,0.034 -0.469948,-0.05 -0.792977,0 -0.879572,0.1263 -0.02891,0.044 -0.06939,0.2143 -0.08832,0.3767 -0.08307,0.7125 -0.222497,1.1916 -0.40966,1.4076 -0.105202,0.1219 -0.125684,0.1266 -0.258395,0.071 -0.262924,-0.1104 -0.539073,-0.108 -0.673901,0 -0.180929,0.1531 -0.313583,0.4317 -0.363116,0.7632 -0.09085,0.6043 -0.196326,0.9156 -0.380875,1.1229 -0.14496,0.1617 -0.157961,0.1665 -0.377858,0.1417 -0.125477,-0.014 -0.240063,-0.017 -0.254741,0 -0.01411,0.012 -0.08399,0 -0.15291,-0.024 -0.168596,-0.059 -0.210397,-0.017 -0.278707,0.2971 -0.03202,0.1447 -0.07317,0.2767 -0.0922,0.2929 -0.01926,0.017 -0.06294,0.108 -0.09546,0.2032 -0.03304,0.095 -0.104627,0.2552 -0.158295,0.3544 l -0.09779,0.1801 -2.071822,-0.3244 -2.0719062,-0.3248 -0.1163,-0.2532 c -0.34486,-0.7669 -0.379743,-1.8575 -0.0889,-2.699 l 0.137522,-0.3981 8.6560492,-7.3227 c 4.852712,-4.1051 8.651526,-7.3422 8.646082,-7.3676 -0.0065,-0.024 -0.12186,-0.2231 -0.25986,-0.4401 -0.33599,-0.5322 -0.562302,-1.0607 -0.816852,-1.9123 -0.191445,-0.6358 -0.220868,-0.7781 -0.232645,-1.3504 -0.01963,-0.6388 0.0317,-1.1137 0.159267,-1.4748 0.03557,-0.1032 0.08086,-0.2615 0.09661,-0.3464 0.05483,-0.294 0.560102,-1.0853 1.0328,-1.6171 0.381848,-0.43 0.416894,-0.4595 0.917491,-0.7754 z m 9.13144,4.0133 c 1.590689,1.8616 2.086475,2.4251 2.169135,2.4615 l 0.107278,0.048 0.0981,-0.2748 c 0.200348,-0.5618 0.178474,-1.1831 -0.07033,-2.0082 -0.163022,-0.5389 -0.242491,-0.6918 -0.612751,-1.2421 -0.302118,-0.4423 -0.580898,-0.692 -1.160407,-1.0373 -0.509256,-0.3078 -0.748097,-0.3889 -1.351645,-0.4845 -0.335707,-0.053 -0.561355,-0.054 -0.809953,-0.012 -0.189571,0.034 -0.364201,0.079 -0.387676,0.097 -0.03536,0.03 0.303698,0.4399 2.01892,2.4483 z"
       style="fill:#ffffff;fill-opacity:1"
       inkscape:connector-curvature="0" />
  </g>
</svg>
