<?xml version="1.0" encoding="UTF-8" standalone="no"?>
<!-- Created with Inkscape (http://www.inkscape.org/) -->

<svg
   xmlns:dc="http://purl.org/dc/elements/1.1/"
   xmlns:cc="http://creativecommons.org/ns#"
   xmlns:rdf="http://www.w3.org/1999/02/22-rdf-syntax-ns#"
   xmlns:svg="http://www.w3.org/2000/svg"
   xmlns="http://www.w3.org/2000/svg"
   xmlns:xlink="http://www.w3.org/1999/xlink"
   xmlns:sodipodi="http://sodipodi.sourceforge.net/DTD/sodipodi-0.dtd"
   xmlns:inkscape="http://www.inkscape.org/namespaces/inkscape"
   width="48"
   height="48"
   id="svg2"
   version="1.1"
   inkscape:version="0.48.3.1 r9886"
   sodipodi:docname="gnome-settings-theme.svg">
  <defs
     id="defs4">
    <linearGradient
       id="linearGradient3795">
      <stop
         style="stop-color:#d868d3;stop-opacity:1;"
         offset="0"
         id="stop3797" />
      <stop
         style="stop-color:#bd3096;stop-opacity:1;"
         offset="1"
         id="stop3799" />
    </linearGradient>
    <linearGradient
       id="linearGradient3698">
      <stop
         id="stop3700"
         offset="0"
         style="stop-color:#96d0e1;stop-opacity:1" />
      <stop
         style="stop-color:#89b7e1;stop-opacity:1"
         offset="0.67819428"
         id="stop3706" />
      <stop
         id="stop3702"
         offset="1"
         style="stop-color:#699dd3;stop-opacity:1" />
    </linearGradient>
    <linearGradient
       id="linearGradient3708">
      <stop
         id="stop3710"
         offset="0"
         style="stop-color:#658db6;stop-opacity:1" />
      <stop
         style="stop-color:#527fab;stop-opacity:1;"
         offset="0.76777935"
         id="stop3716" />
      <stop
         id="stop3712"
         offset="1"
         style="stop-color:#4071a0;stop-opacity:1" />
    </linearGradient>
    <linearGradient
       id="linearGradient3750">
      <stop
         style="stop-color:#d0e2f1;stop-opacity:1"
         offset="0"
         id="stop3752" />
      <stop
         id="stop3756"
         offset="0.85580856"
         style="stop-color:#cadef0;stop-opacity:1" />
      <stop
         style="stop-color:#95bee3;stop-opacity:1"
         offset="1"
         id="stop3754" />
    </linearGradient>
    <linearGradient
       id="linearGradient3803">
      <stop
         id="stop3805"
         offset="0"
         style="stop-color:#d7def0;stop-opacity:1;" />
      <stop
         style="stop-color:#ffffff;stop-opacity:1"
         offset="0.5"
         id="stop3811" />
      <stop
         id="stop3807"
         offset="1"
         style="stop-color:#d5def0;stop-opacity:1" />
    </linearGradient>
    <linearGradient
       inkscape:collect="always"
       xlink:href="#linearGradient3795"
       id="linearGradient3801"
       x1="23.204165"
       y1="1053.158"
       x2="23.204165"
       y2="1004.8474"
       gradientUnits="userSpaceOnUse"
       gradientTransform="translate(0,-2056.7244)" />
    <linearGradient
       inkscape:collect="always"
       xlink:href="#linearGradient3795"
       id="linearGradient3859"
       x1="26.192217"
       y1="1024.0002"
       x2="28.641211"
       y2="1024.0002"
       gradientUnits="userSpaceOnUse" />
    <linearGradient
       inkscape:collect="always"
       xlink:href="#linearGradient3795"
       id="linearGradient3867"
       gradientUnits="userSpaceOnUse"
       x1="26.192217"
       y1="1024.0002"
       x2="28.641211"
       y2="1024.0002" />
    <linearGradient
       inkscape:collect="always"
       xlink:href="#linearGradient3795"
       id="linearGradient3869"
       gradientUnits="userSpaceOnUse"
       x1="26.192217"
       y1="1024.0002"
       x2="28.641211"
       y2="1024.0002" />
    <linearGradient
       inkscape:collect="always"
       xlink:href="#linearGradient3795"
       id="linearGradient3871"
       gradientUnits="userSpaceOnUse"
       x1="26.192217"
       y1="1024.0002"
       x2="28.641211"
       y2="1024.0002" />
    <linearGradient
       inkscape:collect="always"
       xlink:href="#linearGradient3795"
       id="linearGradient3877"
       gradientUnits="userSpaceOnUse"
       x1="29.718235"
       y1="1027.8575"
       x2="22.811094"
       y2="1015.5485" />
    <linearGradient
       inkscape:collect="always"
       xlink:href="#linearGradient3795"
       id="linearGradient3879"
       gradientUnits="userSpaceOnUse"
       x1="17.196316"
       y1="1006.2238"
       x2="31.448042"
       y2="1030.9086" />
    <linearGradient
       inkscape:collect="always"
       xlink:href="#linearGradient3795"
       id="linearGradient3895"
       x1="21.973417"
       y1="34.43922"
       x2="42.475323"
       y2="24.798252"
       gradientUnits="userSpaceOnUse" />
    <linearGradient
       inkscape:collect="always"
       xlink:href="#linearGradient4902"
       id="linearGradient4908"
       x1="21.6875"
       y1="12.093906"
       x2="21.6875"
       y2="7.7189064"
       gradientUnits="userSpaceOnUse"
       gradientTransform="translate(-0.707105,0)" />
    <linearGradient
       id="linearGradient4902">
      <stop
         style="stop-color:#204a87;stop-opacity:1;"
         offset="0"
         id="stop4904" />
      <stop
         style="stop-color:#173561;stop-opacity:1;"
         offset="1"
         id="stop4906" />
    </linearGradient>
    <radialGradient
       inkscape:collect="always"
       xlink:href="#linearGradient2454"
       id="radialGradient2438"
       gradientUnits="userSpaceOnUse"
       gradientTransform="scale(1.925808,0.519262)"
       cx="12.57571"
       cy="67.501709"
       fx="12.57571"
       fy="67.501709"
       r="8.7662792" />
    <linearGradient
       inkscape:collect="always"
       id="linearGradient2454">
      <stop
         style="stop-color:#000000;stop-opacity:1;"
         offset="0"
         id="stop2456" />
      <stop
         style="stop-color:#000000;stop-opacity:0;"
         offset="1"
         id="stop2458" />
    </linearGradient>
    <linearGradient
       inkscape:collect="always"
       xlink:href="#linearGradient4910"
       id="linearGradient2440"
       gradientUnits="userSpaceOnUse"
       gradientTransform="translate(1.084646,0)"
       x1="22.0625"
       y1="20.90625"
       x2="24.673225"
       y2="20.90625" />
    <linearGradient
       id="linearGradient4910">
      <stop
         style="stop-color:#6a6352;stop-opacity:1;"
         offset="0"
         id="stop4912" />
      <stop
         style="stop-color:#3b372e;stop-opacity:1;"
         offset="1"
         id="stop4914" />
    </linearGradient>
    <radialGradient
       inkscape:collect="always"
       xlink:href="#linearGradient4872"
       id="radialGradient2442"
       gradientUnits="userSpaceOnUse"
       gradientTransform="matrix(1,0,0,1.28125,1.084646,-9.461426)"
       cx="28.0625"
       cy="36.908916"
       fx="28.0625"
       fy="36.908916"
       r="7.5" />
    <linearGradient
       id="linearGradient4872">
      <stop
         style="stop-color:#e5d28f;stop-opacity:1;"
         offset="0"
         id="stop4874" />
      <stop
         style="stop-color:#ab8f2a;stop-opacity:1;"
         offset="1"
         id="stop4876" />
    </linearGradient>
    <linearGradient
       inkscape:collect="always"
       xlink:href="#linearGradient4892"
       id="linearGradient2444"
       gradientUnits="userSpaceOnUse"
       gradientTransform="translate(1.084646,0)"
       x1="28.513193"
       y1="37.765625"
       x2="28.421637"
       y2="30.828125" />
    <linearGradient
       inkscape:collect="always"
       id="linearGradient4892">
      <stop
         style="stop-color:#ffffff;stop-opacity:1;"
         offset="0"
         id="stop4894" />
      <stop
         style="stop-color:#ffffff;stop-opacity:0;"
         offset="1"
         id="stop4896" />
    </linearGradient>
    <linearGradient
       inkscape:collect="always"
       xlink:href="#linearGradient4882"
       id="linearGradient2446"
       gradientUnits="userSpaceOnUse"
       gradientTransform="matrix(1,0,0,0.876289,1.084646,3.151418)"
       x1="28.625"
       y1="25.296875"
       x2="28.625"
       y2="28" />
    <linearGradient
       id="linearGradient4882">
      <stop
         style="stop-color:#e7e5e0;stop-opacity:1;"
         offset="0"
         id="stop4884" />
      <stop
         style="stop-color:#ffffff;stop-opacity:1;"
         offset="1"
         id="stop4886" />
    </linearGradient>
    <linearGradient
       inkscape:collect="always"
       xlink:href="#linearGradient4920"
       id="linearGradient2448"
       gradientUnits="userSpaceOnUse"
       gradientTransform="translate(1.084646,0)"
       x1="27.90625"
       y1="18.057989"
       x2="28.84375"
       y2="21.214239" />
    <linearGradient
       inkscape:collect="always"
       id="linearGradient4920">
      <stop
         style="stop-color:#2c65b9;stop-opacity:1;"
         offset="0"
         id="stop4922" />
      <stop
         style="stop-color:#2c65b9;stop-opacity:0;"
         offset="1"
         id="stop4924" />
    </linearGradient>
    <linearGradient
       inkscape:collect="always"
       xlink:href="#linearGradient4892"
       id="linearGradient3107"
       gradientUnits="userSpaceOnUse"
       gradientTransform="matrix(1.3607871,0,0,1.362169,-13.601902,991.15913)"
       x1="28.513193"
       y1="37.765625"
       x2="28.421637"
       y2="30.828125" />
    <linearGradient
       y2="7.7189064"
       x2="21.6875"
       y1="12.093906"
       x1="21.6875"
       gradientTransform="translate(-2.6726889,1004.0583)"
       gradientUnits="userSpaceOnUse"
       id="linearGradient3140-0"
       xlink:href="#linearGradient4902-2"
       inkscape:collect="always" />
    <linearGradient
       id="linearGradient4902-2">
      <stop
         style="stop-color:#204a87;stop-opacity:1;"
         offset="0"
         id="stop4904-9" />
      <stop
         style="stop-color:#173561;stop-opacity:1;"
         offset="1"
         id="stop4906-1" />
    </linearGradient>
    <linearGradient
       y2="7.7189064"
       x2="21.6875"
       y1="12.093906"
       x1="21.6875"
       gradientTransform="matrix(-0.99996908,0.00786463,-0.00786463,-0.99996908,50.40967,1022.5459)"
       gradientUnits="userSpaceOnUse"
       id="linearGradient3132"
       xlink:href="#linearGradient4902-2"
       inkscape:collect="always" />
    <linearGradient
       inkscape:collect="always"
       xlink:href="#linearGradient4902-2"
       id="linearGradient3151"
       gradientUnits="userSpaceOnUse"
       gradientTransform="matrix(-0.99996908,0.00786463,-0.00786463,-0.99996908,96.534668,1033.9209)"
       x1="21.6875"
       y1="12.093906"
       x2="21.6875"
       y2="7.7189064" />
  </defs>
  <sodipodi:namedview
     id="base"
     pagecolor="#ffffff"
     bordercolor="#666666"
     borderopacity="1.0"
     inkscape:pageopacity="0.0"
     inkscape:pageshadow="2"
     inkscape:zoom="8.0000004"
     inkscape:cx="15.594606"
     inkscape:cy="24.12736"
     inkscape:document-units="px"
     inkscape:current-layer="layer1"
     showgrid="false"
     inkscape:window-width="1301"
     inkscape:window-height="744"
     inkscape:window-x="65"
     inkscape:window-y="24"
     inkscape:window-maximized="1">
    <inkscape:grid
       type="xygrid"
       id="grid3850" />
  </sodipodi:namedview>
  <metadata
     id="metadata7">
    <rdf:RDF>
      <cc:Work
         rdf:about="">
        <dc:format>image/svg+xml</dc:format>
        <dc:type
           rdf:resource="http://purl.org/dc/dcmitype/StillImage" />
        <dc:title></dc:title>
      </cc:Work>
    </rdf:RDF>
  </metadata>
  <g
     inkscape:label="Capa 1"
     inkscape:groupmode="layer"
     id="layer1"
     transform="translate(0,-1004.3622)">
    <rect
       style="fill:url(#linearGradient3801);fill-opacity:1;stroke:none"
       id="rect2991"
       width="48"
       height="48"
       x="0"
       y="-1052.3622"
       ry="1.9445436"
       transform="scale(1,-1)" />
    <path
       style="fill:#ffffff;stroke:none;fill-opacity:1;opacity:0.15"
       d="M 0 0 L 0 48 L 16.78125 48 L 29.625 0 L 0 0 z "
       transform="translate(0,1004.3622)"
       id="rect3790" />
    <path
       id="text2735"
       d="m 17.015809,1032.2866 0.383354,0 c 0.113981,0 0.201376,0.025 0.262169,0.077 0.06119,0.051 0.09178,0.1223 0.09178,0.2161 -2e-6,0.095 -0.03059,0.1665 -0.09178,0.2174 -0.06079,0.051 -0.148182,0.075 -0.262169,0.075 l -0.152382,0 0,0.3111 -0.230972,0 0,-0.8966 m 0.230972,0.1675 0,0.2504 0.127791,0 c 0.0448,0 0.07938,-0.012 0.103786,-0.033 0.0244,-0.022 0.03659,-0.053 0.03659,-0.094 0,-0.04 -0.01224,-0.072 -0.03659,-0.092 -0.0244,-0.022 -0.05898,-0.033 -0.103786,-0.033 l -0.127791,0 m 1.078075,-0.016 c -0.0704,0 -0.124988,0.027 -0.163781,0.078 -0.03879,0.052 -0.05818,0.1254 -0.05818,0.2198 0,0.095 0.01939,0.1672 0.05818,0.2192 0.03879,0.052 0.09339,0.078 0.163781,0.078 0.07079,0 0.125587,-0.026 0.164382,-0.078 0.03879,-0.052 0.05818,-0.1251 0.05818,-0.2192 -1e-6,-0.095 -0.01939,-0.1677 -0.05818,-0.2198 -0.03879,-0.052 -0.09361,-0.078 -0.164382,-0.078 m 0,-0.1676 c 0.143983,0 0.256771,0.041 0.338362,0.1238 0.08159,0.083 0.122388,0.1963 0.122388,0.3416 -1e-6,0.145 -0.04079,0.2587 -0.122388,0.3411 -0.0816,0.083 -0.194379,0.1238 -0.338362,0.1238 -0.143584,0 -0.256371,-0.041 -0.33836,-0.1238 -0.0816,-0.083 -0.12239,-0.1961 -0.12239,-0.3411 0,-0.1453 0.0408,-0.2591 0.12239,-0.3416 0.08199,-0.083 0.194776,-0.1238 0.33836,-0.1238 m 0.634727,0.016 0.257971,0 0.325762,0.6149 0,-0.6149 0.218975,0 0,0.8966 -0.257971,0 -0.325762,-0.615 0,0.615 -0.218975,0 0,-0.8966 m 0.902296,0 0.252571,0 0.203976,0.3194 0.203976,-0.3194 0.253171,0 -0.34136,0.5189 0,0.3777 -0.230973,0 0,-0.3777 -0.341361,-0.5189"
       style="font-size:0.9029026px;font-style:normal;font-variant:normal;font-weight:bold;font-stretch:normal;writing-mode:lr-tb;text-anchor:start;fill:#4a4a4a;fill-opacity:1;stroke:none;font-family:Bitstream Vera Sans"
       inkscape:connector-curvature="0" />
    <path
       style="color:#000000;fill:#ffffff;fill-opacity:1;fill-rule:nonzero;stroke:#ffffff;stroke-width:1.21036541;stroke-linecap:butt;stroke-linejoin:miter;stroke-miterlimit:4;stroke-opacity:1;stroke-dasharray:none;stroke-dashoffset:0;marker:none;visibility:visible;display:inline;overflow:visible"
       d="m 16.76066,1024.5323 17.690233,0 c 0,0 0.255147,-6.4703 -1.445837,-8.088 -1.613813,-1.5346 -3.912263,-1.1918 -3.912263,-1.1918 l -0.08504,0.6811 c 0,0 -0.850491,-0.596 -2.381376,-0.6811 -1.530886,-0.085 -2.636525,0.085 -2.636525,0.085 l 0.510294,0.5108 c 0,0 -2.126228,-0.8513 -4.16741,-0.8513 -2.04118,0 -2.466427,0.085 -2.466427,0.085 l 0.765444,0.4256 c 0,0 -1.700985,-0.7663 -3.061772,-0.7663 -1.360786,0 -2.551476,0.596 -2.551476,0.596 0,0 1.956131,1.0217 2.721575,2.3838 0.765442,1.3621 1.020589,6.8108 1.020589,6.8108 z"
       id="path4900"
       sodipodi:nodetypes="cczccsccsccscsc"
       inkscape:connector-curvature="0" />
    <path
       style="color:#000000;fill:#ffffff;fill-opacity:1;fill-rule:nonzero;stroke:#ffffff;stroke-width:1.21036541;stroke-linecap:butt;stroke-linejoin:miter;stroke-miterlimit:4;stroke-opacity:1;stroke-dasharray:none;stroke-dashoffset:0;marker:none;visibility:visible;display:inline;overflow:visible"
       d="m 15.825119,1024.5748 0,5.9596 c 0,1.2915 1.048558,2.3411 2.338853,2.3411 l 4.422558,0 c -0.325581,3.2669 -0.969541,5.7296 -0.807967,8.5685 0.101208,1.7784 1.640367,4.0865 4.082361,4.0865 2.18702,0 3.759738,-2.1339 3.912263,-4.2567 0.170098,-2.3674 -0.889403,-5.1253 -1.360787,-8.3983 l 4.124885,0 c 1.290299,0 2.338854,-1.0496 2.338854,-2.3411 l 0,-5.9596 c 0,0 -19.05102,0 -19.05102,0 z"
       id="rect4400"
       sodipodi:nodetypes="ccccszsccccc"
       inkscape:connector-curvature="0" />
    <path
       sodipodi:nodetypes="cszscc"
       id="path4890"
       d="m 23.989842,1031.2282 c -0.260464,2.6134 -1.213051,7.387 -1.083793,9.6583 0.08097,1.4225 0.89922,3.3761 2.852816,3.3761 1.749615,0 2.657888,-1.7289 2.779907,-3.4273 0.136078,-1.8939 -1.042012,-6.9887 -1.41912,-9.6071 l -3.12981,0 z"
       style="opacity:0.57309941;color:#000000;fill:none;stroke:url(#linearGradient3107);stroke-width:1.21036541;stroke-linecap:butt;stroke-linejoin:miter;stroke-miterlimit:4;stroke-opacity:1;stroke-dasharray:none;stroke-dashoffset:0;marker:none;visibility:visible;display:inline;overflow:visible"
       inkscape:connector-curvature="0" />
    <path
       sodipodi:nodetypes="ccccccc"
       id="path4880"
       d="m 16.505512,1025.1894 0,5.172 c 0,1.1301 0.832441,1.8358 1.961447,1.8358 l 13.852388,0 c 1.129011,0 1.876398,-0.7057 1.876398,-1.8358 l 0,-5.172 c 0,0 -17.690233,0 -17.690233,0 z"
       style="color:#000000;fill:#ffffff;fill-opacity:1;fill-rule:nonzero;stroke:none;stroke-width:1;marker:none;visibility:visible;display:inline;overflow:visible"
       inkscape:connector-curvature="0" />
    <path
       style="color:#000000;fill:#ffffff;fill-opacity:1;fill-rule:nonzero;stroke:none;stroke-width:1;marker:none;visibility:visible;display:inline;overflow:visible"
       d="m 33.345253,1025.2559 0,2.6112 c 0,0.5579 -0.51208,1.0071 -1.148164,1.0071 l -13.69292,0 c -0.636083,0 -1.148164,-0.4492 -1.148164,-1.0071 l 0,-2.6112 c 0,0 15.989248,0 15.989248,0 z"
       id="rect3119"
       sodipodi:nodetypes="ccccccc"
       inkscape:connector-curvature="0" />
    <path
       style="color:#000000;fill:#ffffff;fill-opacity:1;fill-rule:nonzero;stroke:none;stroke-width:1;marker:none;visibility:visible;display:inline;overflow:visible"
       d="m 14.591906,1015.5079 c 0,0 1.57341,0.9791 1.956132,2.4264 0.382721,1.4473 0.595344,2.852 0.595344,2.852 l 1.063113,-2.3413 1.19069,1.1494 0.425247,-1.873 2.551476,0.6811 -0.680395,-1.4047 2.721575,1.2769 -0.08504,-0.9364 1.148164,1.0216 0.935541,-0.8513 2.04118,0.8939 1.190689,-1.1494 1.700984,1.1068 c 0,0 -0.297672,-0.7662 -0.127574,-0.7235 0.170099,0.042 1.65846,0.5533 1.65846,0.5533 l 0.382722,0.4682 c 0,0 -0.25929,-1.3043 -0.850493,-1.8303 -1.148163,-1.0218 -2.764099,-0.9367 -2.764099,-0.9367 l -0.170099,1.192 c 0,0 -1.403311,-0.979 -2.593999,-1.1493 -1.190689,-0.1703 -2.381378,0.043 -2.381378,0.043 l -0.255148,0.511 c 0,0 -1.488361,-0.5961 -2.806622,-0.7237 -1.318264,-0.1277 -3.019247,-0.085 -3.019247,-0.085 l -0.08504,0.4682 c 0,0 -1.233213,-0.5959 -1.786032,-0.6385 -0.552821,-0.043 -1.913608,0.043 -1.956132,0 z"
       id="path4918"
       sodipodi:nodetypes="cscccccccccccccsccsccsccsccsc"
       inkscape:connector-curvature="0" />
    <path
       sodipodi:type="arc"
       style="opacity:0.51461989;color:#000000;fill:#ffffff;fill-opacity:1;fill-rule:nonzero;stroke:none;stroke-width:1;marker:none;visibility:visible;display:inline;overflow:visible"
       id="path4928"
       sodipodi:cx="29.125"
       sodipodi:cy="36.5"
       sodipodi:rx="1.125"
       sodipodi:ry="1.125"
       d="m 30.25,36.5 a 1.125,1.125 0 1 1 -2.25,0 1.125,1.125 0 1 1 2.25,0 z"
       transform="matrix(1.2095887,0,0,1.210817,-10.1141,996.68348)" />
  </g>
</svg>
