<?xml version="1.0" encoding="UTF-8" standalone="no"?>
<!-- Created with Inkscape (http://www.inkscape.org/) -->

<svg
   xmlns:dc="http://purl.org/dc/elements/1.1/"
   xmlns:cc="http://creativecommons.org/ns#"
   xmlns:rdf="http://www.w3.org/1999/02/22-rdf-syntax-ns#"
   xmlns:svg="http://www.w3.org/2000/svg"
   xmlns="http://www.w3.org/2000/svg"
   xmlns:xlink="http://www.w3.org/1999/xlink"
   xmlns:sodipodi="http://sodipodi.sourceforge.net/DTD/sodipodi-0.dtd"
   xmlns:inkscape="http://www.inkscape.org/namespaces/inkscape"
   width="48"
   height="48"
   id="svg2"
   version="1.1"
   inkscape:version="0.48.3.1 r9886"
   sodipodi:docname="software-center.svg">
  <defs
     id="defs4">
    <linearGradient
       id="linearGradient3880">
      <stop
         style="stop-color:#000000;stop-opacity:1;"
         offset="0"
         id="stop3882" />
      <stop
         style="stop-color:#ffffff;stop-opacity:1;"
         offset="1"
         id="stop3884" />
    </linearGradient>
    <linearGradient
       id="linearGradient3870">
      <stop
         style="stop-color:#000000;stop-opacity:0.47340426;"
         offset="0"
         id="stop3872" />
      <stop
         style="stop-color:#000000;stop-opacity:0;"
         offset="1"
         id="stop3874" />
    </linearGradient>
    <linearGradient
       id="linearGradient3795">
      <stop
         style="stop-color:#cd5c24;stop-opacity:1;"
         offset="0"
         id="stop3797" />
      <stop
         style="stop-color:#ff6700;stop-opacity:1;"
         offset="1"
         id="stop3799" />
    </linearGradient>
    <linearGradient
       inkscape:collect="always"
       id="linearGradient3914">
      <stop
         style="stop-color:#59b3e1;stop-opacity:1;"
         offset="0"
         id="stop3916" />
      <stop
         style="stop-color:#59b3e1;stop-opacity:0;"
         offset="1"
         id="stop3918" />
    </linearGradient>
    <linearGradient
       id="linearGradient3698">
      <stop
         id="stop3700"
         offset="0"
         style="stop-color:#96d0e1;stop-opacity:1" />
      <stop
         style="stop-color:#89b7e1;stop-opacity:1"
         offset="0.67819428"
         id="stop3706" />
      <stop
         id="stop3702"
         offset="1"
         style="stop-color:#699dd3;stop-opacity:1" />
    </linearGradient>
    <linearGradient
       id="linearGradient3708">
      <stop
         id="stop3710"
         offset="0"
         style="stop-color:#658db6;stop-opacity:1" />
      <stop
         style="stop-color:#527fab;stop-opacity:1;"
         offset="0.76777935"
         id="stop3716" />
      <stop
         id="stop3712"
         offset="1"
         style="stop-color:#4071a0;stop-opacity:1" />
    </linearGradient>
    <linearGradient
       id="linearGradient3750">
      <stop
         style="stop-color:#d0e2f1;stop-opacity:1"
         offset="0"
         id="stop3752" />
      <stop
         id="stop3756"
         offset="0.85580856"
         style="stop-color:#cadef0;stop-opacity:1" />
      <stop
         style="stop-color:#95bee3;stop-opacity:1"
         offset="1"
         id="stop3754" />
    </linearGradient>
    <linearGradient
       id="linearGradient3803">
      <stop
         id="stop3805"
         offset="0"
         style="stop-color:#d7def0;stop-opacity:1;" />
      <stop
         style="stop-color:#ffffff;stop-opacity:1"
         offset="0.5"
         id="stop3811" />
      <stop
         id="stop3807"
         offset="1"
         style="stop-color:#d5def0;stop-opacity:1" />
    </linearGradient>
    <linearGradient
       inkscape:collect="always"
       xlink:href="#linearGradient3914"
       id="linearGradient3920"
       x1="6.8000002"
       y1="25.0625"
       x2="45.325001"
       y2="25.0625"
       gradientUnits="userSpaceOnUse" />
    <linearGradient
       inkscape:collect="always"
       xlink:href="#linearGradient3795"
       id="linearGradient3801"
       x1="23.204165"
       y1="1053.158"
       x2="23.204165"
       y2="1004.8474"
       gradientUnits="userSpaceOnUse" />
    <linearGradient
       inkscape:collect="always"
       xlink:href="#linearGradient3635"
       id="linearGradient2962"
       gradientUnits="userSpaceOnUse"
       gradientTransform="matrix(0.33911974,0,0,0.33911974,6.3369476,1011.3633)"
       x1="45.382812"
       y1="0.028305121"
       x2="45.382812"
       y2="93.81749" />
    <linearGradient
       id="linearGradient3635">
      <stop
         style="stop-color:#ffffff;stop-opacity:1;"
         offset="0"
         id="stop3637" />
      <stop
         style="stop-color:#dcdcdc;stop-opacity:1;"
         offset="1"
         id="stop3639" />
    </linearGradient>
    <linearGradient
       inkscape:collect="always"
       xlink:href="#linearGradient3635"
       id="linearGradient3856"
       x1="23.663969"
       y1="1026.5491"
       x2="23.663969"
       y2="1016.9882"
       gradientUnits="userSpaceOnUse" />
    <linearGradient
       inkscape:collect="always"
       xlink:href="#linearGradient3635"
       id="linearGradient3864"
       x1="17.4375"
       y1="1035.6594"
       x2="-3.5355842"
       y2="1062.2844"
       gradientUnits="userSpaceOnUse" />
    <linearGradient
       inkscape:collect="always"
       xlink:href="#linearGradient3870"
       id="linearGradient3876"
       x1="23.412399"
       y1="96.141907"
       x2="23.412399"
       y2="-0.22190553"
       gradientUnits="userSpaceOnUse" />
    <linearGradient
       inkscape:collect="always"
       xlink:href="#linearGradient3880"
       id="linearGradient3886"
       x1="23.895184"
       y1="55.435028"
       x2="23.895184"
       y2="30.675968"
       gradientUnits="userSpaceOnUse" />
  </defs>
  <sodipodi:namedview
     id="base"
     pagecolor="#ffffff"
     bordercolor="#666666"
     borderopacity="1.0"
     inkscape:pageopacity="0.0"
     inkscape:pageshadow="2"
     inkscape:zoom="8.0000002"
     inkscape:cx="7.81121"
     inkscape:cy="18.018373"
     inkscape:document-units="px"
     inkscape:current-layer="layer1"
     showgrid="true"
     inkscape:window-width="1280"
     inkscape:window-height="721"
     inkscape:window-x="0"
     inkscape:window-y="22"
     inkscape:window-maximized="1"
     showguides="true"
     inkscape:guide-bbox="true">
    <inkscape:grid
       type="xygrid"
       id="grid3011" />
  </sodipodi:namedview>
  <metadata
     id="metadata7">
    <rdf:RDF>
      <cc:Work
         rdf:about="">
        <dc:format>image/svg+xml</dc:format>
        <dc:type
           rdf:resource="http://purl.org/dc/dcmitype/StillImage" />
        <dc:title></dc:title>
      </cc:Work>
    </rdf:RDF>
  </metadata>
  <g
     inkscape:label="Capa 1"
     inkscape:groupmode="layer"
     id="layer1"
     transform="translate(0,-1004.3622)">
    <rect
       style="fill:url(#linearGradient3801);fill-opacity:1;stroke:none"
       id="rect2991"
       width="48"
       height="48"
       x="0"
       y="1004.3622"
       ry="1.9445436" />
    <path
       style="fill:#ffffff;stroke:none;fill-opacity:1;opacity:0.15"
       d="M 0 0 L 0 48 L 16.78125 48 L 29.625 0 L 0 0 z "
       transform="translate(0,1004.3622)"
       id="rect3790" />
    <path
       style="fill:#2e3436;fill-opacity:1;stroke:none"
       d="m -144.87015,1005.7549 c -0.0386,0 -0.0577,0.014 -0.0577,0.014 0,0 -7.46109,0.536 -7.79086,0.5771 -0.32977,0.041 -0.4184,0.4472 -0.4184,0.4472 l -0.40397,6.1461 2.48153,-0.2452 c 0,0 0.31741,-2.9371 0.31741,-3.3905 0,-0.4535 0.11542,-0.779 0.11542,-0.779 0,0 2.64229,-0.1588 2.97207,-0.1588 0.32977,0 0.17313,0.5772 0.17313,0.5772 l -0.31741,3.6068 2.79894,-0.1876 c 0,0 0.47611,-5.6946 0.47611,-6.1893 0,-0.371 -0.23033,-0.4184 -0.34626,-0.4184 z m 3.75115,1.7313 c -0.92485,0.04 -1.39806,0.165 -2.15945,0.1587 l -0.12985,2.4382 1.23609,-0.1587 c 0.75187,-0.2863 0.4184,1.6592 0.4184,1.6592 l -0.0577,0.4472 2.74123,-0.2453 0.23084,-3.3327 c -0.12366,-1.0578 -0.1347,-0.9133 -1.35618,-0.9666 -0.30537,-0.013 -0.61508,-0.013 -0.92337,0 z m 3.71233,5.2685 -24,2 -1.00515,19.4722 4.00515,0.5278 0,-6 3.03183,0.3581 0,6.074 17.96817,2.5679 0,-25 z m 2,0 0.0298,25.0002 3.97015,-4.0002 -1,-18 -3,-3 z"
       id="path27258-4"
       inkscape:connector-curvature="0"
       sodipodi:nodetypes="ccccccscscccscccccccccccccccccccccccccccc" />
    <path
       style="fill:#ffffff;fill-opacity:1;stroke:none"
       d="M 9.21875 15 C 8.5425184 15 8 15.552636 8 16.25 L 8 37.75 C 8 38.447364 8.5425184 39 9.21875 39 L 38.78125 39 C 39.457482 39 40 38.447364 40 37.75 L 40 16.25 C 40 15.552636 39.457482 15 38.78125 15 L 9.21875 15 z M 27.625 19 C 27.925347 18.978773 28.250876 19.056862 28.53125 19.21875 C 29.27891 19.65045 29.525467 20.59595 29.09375 21.34375 C 28.66203 22.09145 27.71641 22.33795 26.96875 21.90625 C 26.220953 21.47465 25.97453 20.52895 26.40625 19.78125 C 26.67599 19.313937 27.124422 19.035379 27.625 19 z M 24.40625 20.15625 C 24.76345 20.170475 25.11999 20.21025 25.46875 20.28125 C 25.366997 21.16065 25.778384 22.06055 26.59375 22.53125 C 27.409381 23.00225 28.414327 22.93465 29.125 22.40625 C 29.4125 22.73195 29.649326 23.07805 29.875 23.46875 C 30.376023 24.33665 30.669613 25.28225 30.75 26.21875 L 28.0625 26.1875 C 27.891307 25.0388 27.208903 24.0008 26.125 23.375 C 24.993956 22.722 23.673111 22.66845 22.5625 23.15625 L 21.21875 20.84375 C 22.236888 20.3408 23.334651 20.113575 24.40625 20.15625 z M 20.28125 21.40625 L 21.625 23.75 C 21.27821 24.0392 20.98889 24.3986 20.75 24.8125 C 19.77653 26.4985 20.179749 28.6063 21.625 29.8125 L 20.28125 32.125 C 19.551083 31.5957 18.917556 30.92535 18.4375 30.09375 C 18.20368 29.68895 18.015343 29.27105 17.875 28.84375 C 18.145943 28.65695 18.355783 28.39765 18.53125 28.09375 C 19.149516 27.02275 18.821624 25.68175 17.78125 25.03125 C 18.172507 23.61805 19.023483 22.31095 20.28125 21.40625 z M 16.4375 25.40625 C 16.737847 25.38504 17.063378 25.431863 17.34375 25.59375 C 18.091413 26.02535 18.33797 27.0023 17.90625 27.75 C 17.474533 28.4978 16.528914 28.7442 15.78125 28.3125 C 15.033453 27.8808 14.787033 26.9353 15.21875 26.1875 C 15.488489 25.720188 15.936922 25.4416 16.4375 25.40625 z M 28.0625 27.3125 L 30.75 27.3125 C 30.62568 28.8383 29.976664 30.3183 28.875 31.4375 C 27.788027 30.8453 26.434907 31.20315 25.8125 32.28125 C 25.63423 32.58995 25.52444 32.9169 25.5 33.25 C 24.037527 33.5534 22.531797 33.36975 21.21875 32.71875 L 22.5625 30.375 C 24.382314 31.1817 26.54483 30.5128 27.5625 28.75 C 27.828233 28.2897 27.996134 27.8087 28.0625 27.3125 z M 27.65625 31.875 C 27.956597 31.853776 28.282127 31.9319 28.5625 32.09375 C 29.310296 32.52545 29.556721 33.47105 29.125 34.21875 C 28.693417 34.96645 27.747664 35.21295 27 34.78125 C 26.252203 34.34955 26.00578 33.40395 26.4375 32.65625 C 26.70724 32.188938 27.155672 31.910374 27.65625 31.875 z "
       transform="translate(0,1004.3622)"
       id="rect3024" />
    <path
       style="fill:#ffffff;fill-opacity:1;stroke:none"
       d="m 20,1019.3622 0,-3 8,0 0,3 3,0 0,-3 c 0,0 0,-3 -3,-3 -2.909091,0 -8,0 -8,0 0,0 -3,0 -3,3 0,2.9091 0,3 0,3 z"
       id="path3794"
       inkscape:connector-curvature="0"
       sodipodi:nodetypes="ccccccscscc" />
  </g>
</svg>
