<?xml version="1.0" encoding="UTF-8" standalone="no"?>
<!-- Created with Inkscape (http://www.inkscape.org/) -->

<svg
   xmlns:dc="http://purl.org/dc/elements/1.1/"
   xmlns:cc="http://creativecommons.org/ns#"
   xmlns:rdf="http://www.w3.org/1999/02/22-rdf-syntax-ns#"
   xmlns:svg="http://www.w3.org/2000/svg"
   xmlns="http://www.w3.org/2000/svg"
   xmlns:xlink="http://www.w3.org/1999/xlink"
   xmlns:sodipodi="http://sodipodi.sourceforge.net/DTD/sodipodi-0.dtd"
   xmlns:inkscape="http://www.inkscape.org/namespaces/inkscape"
   width="48"
   height="48.000023"
   id="svg2254"
   version="1.1"
   inkscape:version="0.48.3.1 r9886"
   sodipodi:docname="WorldOfGoo.svg">
  <defs
     id="defs2256">
    <linearGradient
       id="linearGradient2839">
      <stop
         id="stop2841"
         offset="0"
         style="stop-color:#a87dd8;stop-opacity:1;" />
      <stop
         id="stop2843"
         offset="1"
         style="stop-color:#411a68;stop-opacity:1;" />
    </linearGradient>
    <linearGradient
       inkscape:collect="always"
       xlink:href="#linearGradient3795"
       id="linearGradient3801"
       x1="23.204165"
       y1="1053.158"
       x2="23.204165"
       y2="1004.8474"
       gradientUnits="userSpaceOnUse"
       gradientTransform="translate(0,-2056.7244)" />
    <linearGradient
       id="linearGradient3795">
      <stop
         style="stop-color:#68b8d8;stop-opacity:1;"
         offset="0"
         id="stop3797" />
      <stop
         style="stop-color:#3097bd;stop-opacity:1;"
         offset="1"
         id="stop3799" />
    </linearGradient>
    <linearGradient
       y2="1004.8474"
       x2="23.204165"
       y1="1053.158"
       x1="23.204165"
       gradientTransform="translate(1913.1429,-1240.7244)"
       gradientUnits="userSpaceOnUse"
       id="linearGradient2818"
       xlink:href="#linearGradient2839"
       inkscape:collect="always" />
  </defs>
  <sodipodi:namedview
     id="base"
     pagecolor="#ffffff"
     bordercolor="#666666"
     borderopacity="1.0"
     inkscape:pageopacity="0.0"
     inkscape:pageshadow="2"
     inkscape:zoom="7.590625"
     inkscape:cx="22.153304"
     inkscape:cy="21.366974"
     inkscape:document-units="px"
     inkscape:current-layer="layer1"
     showgrid="false"
     width="0px"
     height="0px"
     fit-margin-top="0"
     fit-margin-left="0"
     fit-margin-right="0"
     fit-margin-bottom="0"
     inkscape:window-width="1280"
     inkscape:window-height="721"
     inkscape:window-x="0"
     inkscape:window-y="22"
     inkscape:window-maximized="1" />
  <metadata
     id="metadata2259">
    <rdf:RDF>
      <cc:Work
         rdf:about="">
        <dc:format>image/svg+xml</dc:format>
        <dc:type
           rdf:resource="http://purl.org/dc/dcmitype/StillImage" />
        <cc:license
           rdf:resource="" />
        <dc:title />
      </cc:Work>
    </rdf:RDF>
  </metadata>
  <g
     inkscape:label="Capa 1"
     inkscape:groupmode="layer"
     id="layer1"
     transform="translate(-1913.1428,-188.36217)">
    <rect
       style="fill:url(#linearGradient2818);fill-opacity:1;stroke:none"
       id="rect2991"
       width="48"
       height="48"
       x="1913.1428"
       y="-236.36217"
       ry="1.9445436"
       transform="scale(1,-1)" />
    <path
       inkscape:connector-curvature="0"
       style="opacity:0.15;fill:#ffffff;fill-opacity:1;stroke:none"
       d="m 1913.1429,188.36219 0,48 16.7812,0 12.8438,-48 -29.625,0 z"
       id="rect3790" />
    <g
       id="g3864"
       transform="matrix(1.0009791,0,0,1.0009791,-2.9917777,-1.3441087)">
      <path
         inkscape:connector-curvature="0"
         id="path3795"
         d="m 1938.2525,197.51288 c -2.0779,0 -4.056,0.40366 -5.875,1.125 -0.9498,-0.54425 -2.0492,-0.875 -3.2188,-0.875 -3.5807,0 -6.5,2.91925 -6.5,6.5 0,1.13376 0.2989,2.19553 0.8125,3.125 -0.7855,1.88958 -1.2187,3.95302 -1.2187,6.125 0,8.82017 7.181,15.96875 16,15.96875 8.819,0 15.9687,-7.1498 15.9687,-15.96875 0,-2.63688 -0.685,-5.09174 -1.8125,-7.28125 0.049,-0.34694 0.094,-0.70232 0.094,-1.0625 0,-4.181 -3.4128,-7.59375 -7.5938,-7.59375 -0.9166,0 -1.7797,0.20067 -2.5937,0.5 -0.01,-0.006 -0.023,0.005 -0.031,0 -0.033,-0.0201 -0.054,-0.0527 -0.094,-0.0625 -1.2562,-0.32017 -2.5701,-0.5 -3.9375,-0.5 z m 6.6562,1.0625 c 3.6406,0 6.5938,2.95319 6.5938,6.59375 0,0.40046 -0.025,0.80665 -0.094,1.1875 -0.7231,2.79013 -3.2307,4.875 -6.25,4.875 -3.5845,0 -6.5,-2.91553 -6.5,-6.5 0,-1.51362 0.5339,-2.87543 1.4063,-3.96875 0.073,-0.081 0.142,-0.17273 0.2187,-0.25 1.1861,-1.1938 2.8047,-1.9375 4.625,-1.9375 z m -15.75,0.1875 c 0.9662,0 1.8677,0.28225 2.6563,0.71875 0.037,0.083 0.1042,0.1419 0.1875,0.1875 0.4121,0.23768 0.787,0.51292 1.125,0.84375 0.2586,0.25311 0.4822,0.54483 0.6875,0.84375 0.5287,0.84496 0.8437,1.83483 0.8437,2.90625 0,3.0403 -2.4597,5.5 -5.5,5.5 -1.3301,0 -2.5494,-0.46576 -3.5,-1.25 -0.1133,-0.0935 -0.2383,-0.17912 -0.3437,-0.28125 -0.01,-0.0106 -0.021,-0.0205 -0.031,-0.0313 -0.01,-0.0102 -0.021,-0.021 -0.031,-0.0313 -0.3081,-0.32907 -0.561,-0.69914 -0.7813,-1.09375 -0.026,-0.0486 -0.053,-0.0921 -0.094,-0.125 -0.024,-0.0188 -0.035,-0.0487 -0.063,-0.0625 -0.4231,-0.77935 -0.6563,-1.67491 -0.6563,-2.625 0,-3.04031 2.4597,-5.5 5.5,-5.5 z"
         style="font-size:medium;font-style:normal;font-variant:normal;font-weight:normal;font-stretch:normal;text-indent:0;text-align:start;text-decoration:none;line-height:normal;letter-spacing:normal;word-spacing:normal;text-transform:none;direction:ltr;block-progression:tb;writing-mode:lr-tb;text-anchor:start;baseline-shift:baseline;color:#000000;fill:#ffffff;fill-opacity:1;fill-rule:nonzero;stroke:none;stroke-width:1;marker:none;visibility:visible;display:inline;overflow:visible;enable-background:accumulate;font-family:Sans;-inkscape-font-specification:Sans" />
      <path
         transform="matrix(1.3571429,0,0,1.3571429,1907.779,183.10426)"
         d="m 18.707288,15.459883 c 0,1.018623 -0.825757,1.84438 -1.844381,1.84438 -1.018623,0 -1.84438,-0.825757 -1.84438,-1.84438 0,-1.018623 0.825757,-1.844381 1.84438,-1.844381 1.018624,0 1.844381,0.825758 1.844381,1.844381 z"
         sodipodi:ry="1.8443804"
         sodipodi:rx="1.8443804"
         sodipodi:cy="15.459883"
         sodipodi:cx="16.862907"
         id="path3837"
         style="fill:#ffffff;fill-opacity:1;stroke:none"
         sodipodi:type="arc" />
      <path
         transform="matrix(1.5357143,0,0,1.5357143,1920.3791,178.96028)"
         d="m 18.707288,15.459883 c 0,1.018623 -0.825757,1.84438 -1.844381,1.84438 -1.018623,0 -1.84438,-0.825757 -1.84438,-1.84438 0,-1.018623 0.825757,-1.844381 1.84438,-1.844381 1.018624,0 1.844381,0.825758 1.844381,1.844381 z"
         sodipodi:ry="1.8443804"
         sodipodi:rx="1.8443804"
         sodipodi:cy="15.459883"
         sodipodi:cx="16.862907"
         id="path3837-2"
         style="fill:#ffffff;fill-opacity:1;stroke:none"
         sodipodi:type="arc" />
    </g>
  </g>
</svg>
