<?xml version="1.0" encoding="UTF-8" standalone="no"?>
<!-- Created with Inkscape (http://www.inkscape.org/) -->

<svg
   xmlns:dc="http://purl.org/dc/elements/1.1/"
   xmlns:cc="http://creativecommons.org/ns#"
   xmlns:rdf="http://www.w3.org/1999/02/22-rdf-syntax-ns#"
   xmlns:svg="http://www.w3.org/2000/svg"
   xmlns="http://www.w3.org/2000/svg"
   xmlns:xlink="http://www.w3.org/1999/xlink"
   xmlns:sodipodi="http://sodipodi.sourceforge.net/DTD/sodipodi-0.dtd"
   xmlns:inkscape="http://www.inkscape.org/namespaces/inkscape"
   width="48"
   height="48"
   id="svg2"
   version="1.1"
   inkscape:version="0.48.3.1 r9886"
   sodipodi:docname="stormcloud.svg">
  <defs
     id="defs4">
    <linearGradient
       id="linearGradient3795">
      <stop
         style="stop-color:#68b8d8;stop-opacity:1;"
         offset="0"
         id="stop3797" />
      <stop
         style="stop-color:#3097bd;stop-opacity:1;"
         offset="1"
         id="stop3799" />
    </linearGradient>
    <linearGradient
       id="linearGradient3698">
      <stop
         id="stop3700"
         offset="0"
         style="stop-color:#96d0e1;stop-opacity:1" />
      <stop
         style="stop-color:#89b7e1;stop-opacity:1"
         offset="0.67819428"
         id="stop3706" />
      <stop
         id="stop3702"
         offset="1"
         style="stop-color:#699dd3;stop-opacity:1" />
    </linearGradient>
    <linearGradient
       id="linearGradient3708">
      <stop
         id="stop3710"
         offset="0"
         style="stop-color:#658db6;stop-opacity:1" />
      <stop
         style="stop-color:#527fab;stop-opacity:1;"
         offset="0.76777935"
         id="stop3716" />
      <stop
         id="stop3712"
         offset="1"
         style="stop-color:#4071a0;stop-opacity:1" />
    </linearGradient>
    <linearGradient
       id="linearGradient3750">
      <stop
         style="stop-color:#d0e2f1;stop-opacity:1"
         offset="0"
         id="stop3752" />
      <stop
         id="stop3756"
         offset="0.85580856"
         style="stop-color:#cadef0;stop-opacity:1" />
      <stop
         style="stop-color:#95bee3;stop-opacity:1"
         offset="1"
         id="stop3754" />
    </linearGradient>
    <linearGradient
       id="linearGradient3803">
      <stop
         id="stop3805"
         offset="0"
         style="stop-color:#d7def0;stop-opacity:1;" />
      <stop
         style="stop-color:#ffffff;stop-opacity:1"
         offset="0.5"
         id="stop3811" />
      <stop
         id="stop3807"
         offset="1"
         style="stop-color:#d5def0;stop-opacity:1" />
    </linearGradient>
    <linearGradient
       inkscape:collect="always"
       xlink:href="#linearGradient3708"
       id="linearGradient3801"
       x1="23.204165"
       y1="1053.158"
       x2="23.204165"
       y2="1004.8474"
       gradientUnits="userSpaceOnUse"
       gradientTransform="translate(0,-2056.7244)" />
    <linearGradient
       inkscape:collect="always"
       xlink:href="#linearGradient3795"
       id="linearGradient3859"
       x1="26.192217"
       y1="1024.0002"
       x2="28.641211"
       y2="1024.0002"
       gradientUnits="userSpaceOnUse" />
    <linearGradient
       inkscape:collect="always"
       xlink:href="#linearGradient3795"
       id="linearGradient3867"
       gradientUnits="userSpaceOnUse"
       x1="26.192217"
       y1="1024.0002"
       x2="28.641211"
       y2="1024.0002" />
    <linearGradient
       inkscape:collect="always"
       xlink:href="#linearGradient3795"
       id="linearGradient3869"
       gradientUnits="userSpaceOnUse"
       x1="26.192217"
       y1="1024.0002"
       x2="28.641211"
       y2="1024.0002" />
    <linearGradient
       inkscape:collect="always"
       xlink:href="#linearGradient3795"
       id="linearGradient3871"
       gradientUnits="userSpaceOnUse"
       x1="26.192217"
       y1="1024.0002"
       x2="28.641211"
       y2="1024.0002" />
    <linearGradient
       inkscape:collect="always"
       xlink:href="#linearGradient3795"
       id="linearGradient3877"
       gradientUnits="userSpaceOnUse"
       x1="29.718235"
       y1="1027.8575"
       x2="22.811094"
       y2="1015.5485" />
    <linearGradient
       inkscape:collect="always"
       xlink:href="#linearGradient3795"
       id="linearGradient3879"
       gradientUnits="userSpaceOnUse"
       x1="17.196316"
       y1="1006.2238"
       x2="31.448042"
       y2="1030.9086" />
    <linearGradient
       inkscape:collect="always"
       xlink:href="#linearGradient3795"
       id="linearGradient3895"
       x1="21.973417"
       y1="34.43922"
       x2="42.475323"
       y2="24.798252"
       gradientUnits="userSpaceOnUse" />
  </defs>
  <sodipodi:namedview
     id="base"
     pagecolor="#ffffff"
     bordercolor="#666666"
     borderopacity="1.0"
     inkscape:pageopacity="0.0"
     inkscape:pageshadow="2"
     inkscape:zoom="2.8284273"
     inkscape:cx="-71.561402"
     inkscape:cy="-25.036705"
     inkscape:document-units="px"
     inkscape:current-layer="layer1"
     showgrid="false"
     inkscape:window-width="1280"
     inkscape:window-height="721"
     inkscape:window-x="0"
     inkscape:window-y="22"
     inkscape:window-maximized="1">
    <inkscape:grid
       type="xygrid"
       id="grid3850" />
  </sodipodi:namedview>
  <metadata
     id="metadata7">
    <rdf:RDF>
      <cc:Work
         rdf:about="">
        <dc:format>image/svg+xml</dc:format>
        <dc:type
           rdf:resource="http://purl.org/dc/dcmitype/StillImage" />
        <dc:title></dc:title>
      </cc:Work>
    </rdf:RDF>
  </metadata>
  <g
     inkscape:label="Capa 1"
     inkscape:groupmode="layer"
     id="layer1"
     transform="translate(0,-1004.3622)">
    <rect
       style="fill:url(#linearGradient3801);fill-opacity:1.0;stroke:none"
       id="rect2991"
       width="48"
       height="48"
       x="0"
       y="-1052.3622"
       ry="1.9445436"
       transform="scale(1,-1)" />
    <path
       style="fill:#ffffff;stroke:none;fill-opacity:1;opacity:0.15"
       d="M 0 0 L 0 48 L 16.78125 48 L 29.625 0 L 0 0 z "
       transform="translate(0,1004.3622)"
       id="rect3790" />
    <path
       style="fill:#ffffff"
       inkscape:connector-curvature="0"
       d="m 8,1023.9944 c 0,-1.6065 0.30198,-3.1166 0.90656,-4.5301 0.60458,-1.4134 1.43774,-2.6492 2.49933,-3.7074 1.0615,-1.058 2.29756,-1.8885 3.70817,-2.491 1.41062,-0.6024 2.92944,-0.9037 4.55685,-0.9037 2.17599,0 4.15536,0.5485 5.93811,1.6452 1.78243,1.097 3.18324,2.5258 4.20203,4.2868 0.24693,-0.031 0.48982,-0.062 0.72916,-0.093 0.23894,-0.031 0.4823,-0.046 0.72915,-0.046 1.20419,0 2.3349,0.2281 3.39252,0.6835 1.05755,0.4559 1.98404,1.0815 2.77916,1.8769 0.79504,0.7959 1.42034,1.7227 1.87576,2.7806 0.45549,1.0583 0.6832,2.1898 0.6832,3.3947 0,1.2049 -0.22771,2.3367 -0.6832,3.3946 -0.45542,1.0583 -1.08072,1.9812 -1.87576,2.769 -0.79512,0.7879 -1.72161,1.4135 -2.77884,1.8769 -1.05755,0.4634 -2.18826,0.6952 -3.39244,0.6952 h -0.74118 l 2.59305,-3.2545 c 1.14194,-0.3875 2.0833,-1.0768 2.82408,-2.0689 0.74078,-0.9916 1.11149,-2.1383 1.11149,-3.4403 0,-0.79 -0.15059,-1.5416 -0.45146,-2.2545 -0.30126,-0.7129 -0.71001,-1.3327 -1.22696,-1.8599 -0.51703,-0.5268 -1.13474,-0.9413 -1.85227,-1.2436 -0.71761,-0.302 -1.46994,-0.4533 -2.25707,-0.4533 -1.14225,0 -2.1839,0.3013 -3.12526,0.9037 -0.21616,-0.9395 -0.58655,-1.8193 -1.11118,-2.639 -0.52493,-0.8197 -1.16543,-1.5286 -1.92179,-2.1264 -0.75636,-0.5978 -1.59379,-1.0692 -2.51198,-1.4138 -0.91819,-0.3446 -1.89427,-0.5174 -2.92832,-0.5174 -1.20419,0 -2.33854,0.2317 -3.40336,0.6951 -1.06514,0.4634 -1.99092,1.0892 -2.77805,1.8769 -0.78713,0.7879 -1.4084,1.7111 -1.86389,2.7691 -0.45542,1.0582 -0.68281,2.1897 -0.68281,3.3946 0,0.9732 0.15818,1.9117 0.47463,2.8154 0.31637,0.9037 0.74838,1.7187 1.29649,2.4446 0.5478,0.7263 1.20387,1.3595 1.96782,1.9 0.76396,0.5409 1.601,0.9348 2.51191,1.1817 l -0.99562,2.7575 c -1.1803,-0.386 -2.27083,-0.9345 -3.2723,-1.6453 -1.00147,-0.7103 -1.86714,-1.5445 -2.59701,-2.5025 -0.72994,-0.9577 -1.30052,-2.0312 -1.7118,-3.2209 C 8.20564,1026.5356 8,1025.292 8,1023.9944 z m 10.9529,11.6321 3.58836,-10.1723 h 7.31606 l -4.3758,7.2295 h 5.04706 l -9.39936,11.6785 2.61582,-8.7357 H 18.9529 z"
       id="path37" />
  </g>
</svg>
