<?xml version="1.0" encoding="UTF-8" standalone="no"?>
<!-- Created with Inkscape (http://www.inkscape.org/) -->

<svg
   xmlns:dc="http://purl.org/dc/elements/1.1/"
   xmlns:cc="http://creativecommons.org/ns#"
   xmlns:rdf="http://www.w3.org/1999/02/22-rdf-syntax-ns#"
   xmlns:svg="http://www.w3.org/2000/svg"
   xmlns="http://www.w3.org/2000/svg"
   xmlns:xlink="http://www.w3.org/1999/xlink"
   xmlns:sodipodi="http://sodipodi.sourceforge.net/DTD/sodipodi-0.dtd"
   xmlns:inkscape="http://www.inkscape.org/namespaces/inkscape"
   width="48"
   height="48"
   id="svg2"
   version="1.1"
   inkscape:version="0.48.3.1 r9886"
   sodipodi:docname="synapse.svg">
  <defs
     id="defs4">
    <linearGradient
       id="linearGradient3795">
      <stop
         style="stop-color:#48af7a;stop-opacity:1;"
         offset="0"
         id="stop3797" />
      <stop
         style="stop-color:#36c9a5;stop-opacity:1;"
         offset="1"
         id="stop3799" />
    </linearGradient>
    <linearGradient
       id="linearGradient3698">
      <stop
         id="stop3700"
         offset="0"
         style="stop-color:#96d0e1;stop-opacity:1" />
      <stop
         style="stop-color:#89b7e1;stop-opacity:1"
         offset="0.67819428"
         id="stop3706" />
      <stop
         id="stop3702"
         offset="1"
         style="stop-color:#699dd3;stop-opacity:1" />
    </linearGradient>
    <linearGradient
       id="linearGradient3708">
      <stop
         id="stop3710"
         offset="0"
         style="stop-color:#658db6;stop-opacity:1" />
      <stop
         style="stop-color:#527fab;stop-opacity:1;"
         offset="0.76777935"
         id="stop3716" />
      <stop
         id="stop3712"
         offset="1"
         style="stop-color:#4071a0;stop-opacity:1" />
    </linearGradient>
    <linearGradient
       id="linearGradient3750">
      <stop
         style="stop-color:#d0e2f1;stop-opacity:1"
         offset="0"
         id="stop3752" />
      <stop
         id="stop3756"
         offset="0.85580856"
         style="stop-color:#cadef0;stop-opacity:1" />
      <stop
         style="stop-color:#95bee3;stop-opacity:1"
         offset="1"
         id="stop3754" />
    </linearGradient>
    <linearGradient
       id="linearGradient3803">
      <stop
         id="stop3805"
         offset="0"
         style="stop-color:#d7def0;stop-opacity:1;" />
      <stop
         style="stop-color:#ffffff;stop-opacity:1"
         offset="0.5"
         id="stop3811" />
      <stop
         id="stop3807"
         offset="1"
         style="stop-color:#d5def0;stop-opacity:1" />
    </linearGradient>
    <linearGradient
       inkscape:collect="always"
       xlink:href="#linearGradient3795"
       id="linearGradient3801"
       x1="23.204165"
       y1="1053.158"
       x2="23.204165"
       y2="1004.8474"
       gradientUnits="userSpaceOnUse" />
    <linearGradient
       inkscape:collect="always"
       xlink:href="#linearGradient3919"
       id="linearGradient4038"
       x1="260.03125"
       y1="92.121216"
       x2="260.03125"
       y2="419.87878"
       gradientUnits="userSpaceOnUse" />
    <linearGradient
       id="linearGradient3919">
      <stop
         id="stop3921"
         offset="0"
         style="stop-color:#00a070;stop-opacity:1;" />
      <stop
         id="stop3923"
         offset="1"
         style="stop-color:#11ffeb;stop-opacity:1;" />
    </linearGradient>
    <clipPath
       clipPathUnits="userSpaceOnUse"
       id="clipPath4063">
      <path
         style="fill:url(#linearGradient4067);fill-opacity:1;stroke:none"
         d="M 240,92.121216 240,129 c -52.45501,6.5377 -95.05053,44.80985 -107.96875,95 l 33.1875,0 c 13.61057,-36.22794 49.64746,-64.48252 89.03125,-64.21875 0.95497,-0.0253 1.92176,-0.0369 2.875,-0.0312 14.29865,0.0853 28.35374,3.63533 41.09375,10 22.94737,10.32987 39.98645,30.74431 48.3125,54.25 l 33.4375,0 C 367.05053,173.80985 324.45501,135.5377 272,129 l 0,-36.878784 z M 132.03125,288 C 144.94947,338.19015 187.54499,376.4623 240,383 l 0,36.87878 32,0 L 272,383 c 52.45501,-6.5377 95.05053,-44.80985 107.96875,-95 L 347,288 c -12.9362,38.16182 -52.91943,65.60507 -93.34375,64.1875 -39.35846,0.19888 -75.06281,-27.91764 -88.375,-64.1875 z"
         id="path4065"
         clip-path="url(#clipPath4127-2)"
         inkscape:connector-curvature="0"
         sodipodi:nodetypes="cccccccccccccccccccccc" />
    </clipPath>
    <linearGradient
       y2="419.87878"
       x2="260.03125"
       y1="92.121216"
       x1="260.03125"
       gradientUnits="userSpaceOnUse"
       id="linearGradient3202"
       xlink:href="#linearGradient3919"
       inkscape:collect="always" />
    <clipPath
       clipPathUnits="userSpaceOnUse"
       id="clipPath4254">
      <path
         style="fill:url(#linearGradient4258);fill-opacity:1;stroke:none;display:inline"
         d="m 256,176 c -44.18278,0 -80,35.64044 -80,80 0,0 -0.53033,7.51472 1.76777,16 l 122.85723,0 c -3.3167,9.26456 -9.26562,17.57666 -17.34375,23.125 -18.58481,14.67263 -46.73117,9.33733 -62.5625,-7.125 l -38.03125,0 c 12.35038,28.24167 40.51668,48 73.3125,48 44.18278,0 80,-35.81722 80,-80 0,0 0,-8.22183 -1.59099,-16 L 211.5,240 c 6.91612,-17.48162 23.43148,-31.64803 42.625,-31.8125 0.96047,-0.0463 1.91732,-0.0507 2.875,-0.0312 12.86627,0.2609 25.35078,6.36236 34.03125,15.84375 l 38.28125,0 C 316.96212,195.75833 288.79582,176 256,176 z"
         id="path4256"
         inkscape:connector-curvature="0"
         sodipodi:nodetypes="sscccccsscccsccs"
         clip-path="url(#clipPath4174-8)"
         transform="translate(0,-1.7889608)" />
    </clipPath>
  </defs>
  <sodipodi:namedview
     id="base"
     pagecolor="#ffffff"
     bordercolor="#666666"
     borderopacity="1.0"
     inkscape:pageopacity="0.0"
     inkscape:pageshadow="2"
     inkscape:zoom="5.6568543"
     inkscape:cx="-10.22584"
     inkscape:cy="19.771229"
     inkscape:document-units="px"
     inkscape:current-layer="layer1"
     showgrid="false"
     inkscape:window-width="1280"
     inkscape:window-height="721"
     inkscape:window-x="0"
     inkscape:window-y="22"
     inkscape:window-maximized="1" />
  <metadata
     id="metadata7">
    <rdf:RDF>
      <cc:Work
         rdf:about="">
        <dc:format>image/svg+xml</dc:format>
        <dc:type
           rdf:resource="http://purl.org/dc/dcmitype/StillImage" />
        <dc:title />
      </cc:Work>
    </rdf:RDF>
  </metadata>
  <g
     inkscape:label="Capa 1"
     inkscape:groupmode="layer"
     id="layer1"
     transform="translate(0,-1004.3622)">
    <rect
       style="fill:url(#linearGradient3801);fill-opacity:1;stroke:none"
       id="rect2991"
       width="48"
       height="48"
       x="0"
       y="1004.3622"
       ry="1.9445436" />
    <g
       id="g4078"
       transform="matrix(1.3477585,0,0,1.3553589,-9.4461516,-362.32634)">
      <path
         sodipodi:nodetypes="cccccccccccccccccccccc"
         transform="matrix(0.0720349,0,0,0.0720349,6.3751967,1007.6257)"
         inkscape:connector-curvature="0"
         clip-path="url(#clipPath4063)"
         id="path3214"
         d="M 240,92.121216 240,129 c -52.45501,6.5377 -95.05053,44.80985 -107.96875,95 l 33.1875,0 c 13.61057,-36.22794 49.64746,-64.48252 89.03125,-64.21875 0.95497,-0.0253 1.92176,-0.0369 2.875,-0.0312 14.29865,0.0853 28.35374,3.63533 41.09375,10 22.94737,10.32987 39.98645,30.74431 48.3125,54.25 l 33.4375,0 C 367.05053,173.80985 324.45501,135.5377 272,129 l 0,-36.878784 z M 132.03125,288 C 144.94947,338.19015 187.54499,376.4623 240,383 l 0,36.87878 32,0 L 272,383 c 52.45501,-6.5377 95.05053,-44.80985 107.96875,-95 L 347,288 c -12.9362,38.16182 -52.91943,65.60507 -93.34375,64.1875 -39.35846,0.19888 -75.06281,-27.91764 -88.375,-64.1875 z"
         style="fill:#ffffff;fill-opacity:1;stroke:none;display:inline" />
      <path
         transform="matrix(0.06344999,0,0,0.06344999,8.5746115,1009.8802)"
         clip-path="url(#clipPath4254)"
         sodipodi:nodetypes="sscccccsscccsccs"
         inkscape:connector-curvature="0"
         id="path4189-8"
         d="m 256,176 c -44.18278,0 -80,35.64044 -80,80 0,0 -0.53033,7.51472 1.76777,16 l 122.85723,0 c -3.3167,9.26456 -9.26562,17.57666 -17.34375,23.125 -18.58481,14.67263 -46.73117,9.33733 -62.5625,-7.125 l -38.03125,0 c 12.35038,28.24167 40.51668,48 73.3125,48 44.18278,0 80,-35.81722 80,-80 0,0 0,-8.22183 -1.59099,-16 L 211.5,240 c 6.91612,-17.48162 23.43148,-31.64803 42.625,-31.8125 0.96047,-0.0463 1.91732,-0.0507 2.875,-0.0312 12.86627,0.2609 25.35078,6.36236 34.03125,15.84375 l 38.28125,0 C 316.96212,195.75833 288.79582,176 256,176 z"
         style="fill:#ffffff;stroke:none;display:inline" />
    </g>
    <path
       style="fill:#ffffff;stroke:none;fill-opacity:1;opacity:0.15"
       d="M 0 0 L 0 48 L 16.78125 48 L 29.625 0 L 0 0 z "
       transform="translate(0,1004.3622)"
       id="rect3790" />
  </g>
</svg>
