<?xml version="1.0" encoding="UTF-8" standalone="no"?>
<!-- Created with Inkscape (http://www.inkscape.org/) -->

<svg
   xmlns:dc="http://purl.org/dc/elements/1.1/"
   xmlns:cc="http://creativecommons.org/ns#"
   xmlns:rdf="http://www.w3.org/1999/02/22-rdf-syntax-ns#"
   xmlns:svg="http://www.w3.org/2000/svg"
   xmlns="http://www.w3.org/2000/svg"
   xmlns:xlink="http://www.w3.org/1999/xlink"
   xmlns:sodipodi="http://sodipodi.sourceforge.net/DTD/sodipodi-0.dtd"
   xmlns:inkscape="http://www.inkscape.org/namespaces/inkscape"
   width="48"
   height="48"
   id="svg2"
   version="1.1"
   inkscape:version="0.48.3.1 r9886"
   sodipodi:docname="system-software-update.svg">
  <defs
     id="defs4">
    <linearGradient
       id="linearGradient3780">
      <stop
         style="stop-color:#4e9a06;stop-opacity:1;"
         offset="0"
         id="stop3782" />
      <stop
         style="stop-color:#99ca08;stop-opacity:1;"
         offset="1"
         id="stop3784" />
    </linearGradient>
    <linearGradient
       id="linearGradient3795">
      <stop
         style="stop-color:#68d871;stop-opacity:1;"
         offset="0"
         id="stop3797" />
      <stop
         style="stop-color:#30bd41;stop-opacity:1;"
         offset="1"
         id="stop3799" />
    </linearGradient>
    <linearGradient
       id="linearGradient3698">
      <stop
         id="stop3700"
         offset="0"
         style="stop-color:#96d0e1;stop-opacity:1" />
      <stop
         style="stop-color:#89b7e1;stop-opacity:1"
         offset="0.67819428"
         id="stop3706" />
      <stop
         id="stop3702"
         offset="1"
         style="stop-color:#699dd3;stop-opacity:1" />
    </linearGradient>
    <linearGradient
       id="linearGradient3708">
      <stop
         id="stop3710"
         offset="0"
         style="stop-color:#658db6;stop-opacity:1" />
      <stop
         style="stop-color:#527fab;stop-opacity:1;"
         offset="0.76777935"
         id="stop3716" />
      <stop
         id="stop3712"
         offset="1"
         style="stop-color:#4071a0;stop-opacity:1" />
    </linearGradient>
    <linearGradient
       id="linearGradient3750">
      <stop
         style="stop-color:#d0e2f1;stop-opacity:1"
         offset="0"
         id="stop3752" />
      <stop
         id="stop3756"
         offset="0.85580856"
         style="stop-color:#cadef0;stop-opacity:1" />
      <stop
         style="stop-color:#95bee3;stop-opacity:1"
         offset="1"
         id="stop3754" />
    </linearGradient>
    <linearGradient
       id="linearGradient3803">
      <stop
         style="stop-color:#ffffff;stop-opacity:1"
         offset="0"
         id="stop3811" />
      <stop
         id="stop3807"
         offset="1"
         style="stop-color:#ffffff;stop-opacity:0;" />
    </linearGradient>
    <linearGradient
       inkscape:collect="always"
       xlink:href="#linearGradient3795"
       id="linearGradient3859"
       x1="26.192217"
       y1="1024.0002"
       x2="28.641211"
       y2="1024.0002"
       gradientUnits="userSpaceOnUse" />
    <linearGradient
       inkscape:collect="always"
       xlink:href="#linearGradient3795"
       id="linearGradient3867"
       gradientUnits="userSpaceOnUse"
       x1="26.192217"
       y1="1024.0002"
       x2="28.641211"
       y2="1024.0002" />
    <linearGradient
       inkscape:collect="always"
       xlink:href="#linearGradient3795"
       id="linearGradient3869"
       gradientUnits="userSpaceOnUse"
       x1="26.192217"
       y1="1024.0002"
       x2="28.641211"
       y2="1024.0002" />
    <linearGradient
       inkscape:collect="always"
       xlink:href="#linearGradient3795"
       id="linearGradient3871"
       gradientUnits="userSpaceOnUse"
       x1="26.192217"
       y1="1024.0002"
       x2="28.641211"
       y2="1024.0002" />
    <linearGradient
       inkscape:collect="always"
       xlink:href="#linearGradient3795"
       id="linearGradient3877"
       gradientUnits="userSpaceOnUse"
       x1="29.718235"
       y1="1027.8575"
       x2="22.811094"
       y2="1015.5485" />
    <linearGradient
       inkscape:collect="always"
       xlink:href="#linearGradient3795"
       id="linearGradient3879"
       gradientUnits="userSpaceOnUse"
       x1="17.196316"
       y1="1006.2238"
       x2="31.448042"
       y2="1030.9086" />
    <linearGradient
       inkscape:collect="always"
       xlink:href="#linearGradient3795"
       id="linearGradient3895"
       x1="21.973417"
       y1="34.43922"
       x2="42.475323"
       y2="24.798252"
       gradientUnits="userSpaceOnUse" />
    <linearGradient
       inkscape:collect="always"
       xlink:href="#linearGradient3780"
       id="linearGradient3786"
       x1="35.25"
       y1="-1051.6122"
       x2="35.25"
       y2="-1004.1122"
       gradientUnits="userSpaceOnUse" />
  </defs>
  <sodipodi:namedview
     id="base"
     pagecolor="#ffffff"
     bordercolor="#666666"
     borderopacity="1.0"
     inkscape:pageopacity="0.0"
     inkscape:pageshadow="2"
     inkscape:zoom="8.0000004"
     inkscape:cx="34.960172"
     inkscape:cy="16.44155"
     inkscape:document-units="px"
     inkscape:current-layer="layer1"
     showgrid="true"
     inkscape:window-width="1280"
     inkscape:window-height="721"
     inkscape:window-x="0"
     inkscape:window-y="22"
     inkscape:window-maximized="1">
    <inkscape:grid
       type="xygrid"
       id="grid3850" />
  </sodipodi:namedview>
  <metadata
     id="metadata7">
    <rdf:RDF>
      <cc:Work
         rdf:about="">
        <dc:format>image/svg+xml</dc:format>
        <dc:type
           rdf:resource="http://purl.org/dc/dcmitype/StillImage" />
        <dc:title />
      </cc:Work>
    </rdf:RDF>
  </metadata>
  <g
     inkscape:label="Capa 1"
     inkscape:groupmode="layer"
     id="layer1"
     transform="translate(0,-1004.3622)">
    <rect
       style="fill:url(#linearGradient3786);fill-opacity:1;stroke:none"
       id="rect2991"
       width="48"
       height="48"
       x="0"
       y="-1052.3622"
       ry="1.9445436"
       transform="scale(1,-1)" />
    <path
       style="fill:#ffffff;stroke:none;fill-opacity:1;opacity:0.15"
       d="M 0 0 L 0 48 L 16.78125 48 L 29.625 0 L 0 0 z "
       transform="translate(0,1004.3622)"
       id="rect3790" />
    <path
       style="fill:#ffffff;fill-opacity:1;stroke:none"
       d="M 9.21875 15 C 8.5425184 15 8 15.552636 8 16.25 L 8 37.75 C 8 38.447364 8.5425184 39 9.21875 39 L 38.78125 39 C 39.457482 39 40 38.447364 40 37.75 L 40 16.25 C 40 15.552636 39.457482 15 38.78125 15 L 9.21875 15 z M 24.03125 19 L 30 28 L 27 28 L 27 35 L 21 35 L 21 28 L 18 28 L 24.03125 19 z "
       transform="translate(0,1004.3622)"
       id="rect3024" />
    <path
       style="fill:#ffffff;fill-opacity:1;stroke:none"
       d="m 20,1019.3622 0,-3 8,0 0,3 3,0 0,-3 c 0,0 0,-3 -3,-3 -2.909091,0 -8,0 -8,0 0,0 -3,0 -3,3 0,2.9091 0,3 0,3 z"
       id="path3794"
       inkscape:connector-curvature="0"
       sodipodi:nodetypes="ccccccscscc" />
    <path
       style="font-size:medium;font-style:normal;font-variant:normal;font-weight:normal;font-stretch:normal;text-indent:0;text-align:start;text-decoration:none;line-height:normal;letter-spacing:normal;word-spacing:normal;text-transform:none;direction:ltr;block-progression:tb;writing-mode:lr-tb;text-anchor:start;baseline-shift:baseline;color:#000000;fill:#2e3436;fill-opacity:1;stroke:none;stroke-width:10;marker:none;visibility:visible;display:inline;overflow:visible;enable-background:accumulate;font-family:Sans;-inkscape-font-specification:Sans"
       d="m 70.549774,1018.361 c -4.172259,0 -7.133044,3.4027 -7.133044,7.5749 0,3.2569 1.634816,6.0349 4.52919,7.1014 l 0.331399,-1.8937 c -2.009153,-0.8735 -3.272743,-2.8688 -3.272743,-5.2077 0,-3.1489 2.396378,-5.1571 5.545198,-5.1571 3.080494,0 4.544911,2.1271 4.34778,4.7735 -0.0391,0.663 -0.333046,1.3436 -0.708369,1.7202 -0.408673,0.4099 -0.700393,0.6981 -1.288895,0.8877 -1.055396,0.3399 -0.920434,0.3196 -1.131438,0.3204 l -1.278256,-1.5386 c -0.181058,-0.2186 -0.605907,-0.1124 -0.6628,0.1657 l -1.195406,6.8142 c -0.03373,0.2131 0.151206,0.4339 0.366907,0.438 l 6.829202,-0.021 c 0.292022,0.01 0.487658,-0.407 0.295893,-0.6273 L 75,1032.3622 c 0.348678,-0.2109 0.821391,-0.5464 1.372942,-1.2191 0.840452,-1.025 1.662845,-2.6931 1.739848,-5.2078 l 0.01184,0 c 0,-0.055 0.0011,-0.1106 0,-0.1657 0.0012,-0.072 0,-0.1399 0,-0.213 -2e-6,-0.02 -0.0082,-0.039 -0.01184,-0.059 -0.2276,-3.9705 -3.537373,-7.1371 -7.563016,-7.1371 z"
       id="path3794-6"
       inkscape:connector-curvature="0"
       sodipodi:nodetypes="ssccsscssccccccccscccccs" />
  </g>
</svg>
