<?xml version="1.0" encoding="UTF-8" standalone="no"?>
<!-- Created with Inkscape (http://www.inkscape.org/) -->

<svg
   xmlns:dc="http://purl.org/dc/elements/1.1/"
   xmlns:cc="http://creativecommons.org/ns#"
   xmlns:rdf="http://www.w3.org/1999/02/22-rdf-syntax-ns#"
   xmlns:svg="http://www.w3.org/2000/svg"
   xmlns="http://www.w3.org/2000/svg"
   xmlns:sodipodi="http://sodipodi.sourceforge.net/DTD/sodipodi-0.dtd"
   xmlns:inkscape="http://www.inkscape.org/namespaces/inkscape"
   width="254"
   height="36"
   id="svg3220"
   version="1.1"
   inkscape:version="0.48.2 r9819"
   sodipodi:docname="Nuevo documento 1">
  <defs
     id="defs3222" />
  <sodipodi:namedview
     id="base"
     pagecolor="#ffffff"
     bordercolor="#666666"
     borderopacity="1.0"
     inkscape:pageopacity="0.0"
     inkscape:pageshadow="2"
     inkscape:zoom="2.8"
     inkscape:cx="138.20017"
     inkscape:cy="86.302412"
     inkscape:document-units="px"
     inkscape:current-layer="layer1"
     showgrid="false"
     inkscape:window-width="1280"
     inkscape:window-height="747"
     inkscape:window-x="0"
     inkscape:window-y="0"
     inkscape:window-maximized="1" />
  <metadata
     id="metadata3225">
    <rdf:RDF>
      <cc:Work
         rdf:about="">
        <dc:format>image/svg+xml</dc:format>
        <dc:type
           rdf:resource="http://purl.org/dc/dcmitype/StillImage" />
        <dc:title></dc:title>
      </cc:Work>
    </rdf:RDF>
  </metadata>
  <g
     inkscape:label="Capa 1"
     inkscape:groupmode="layer"
     id="layer1"
     transform="translate(0,-1016.3622)">
    <g
       transform="translate(1.9273661,983.39137)"
       id="g3996">
      <g
         id="g3200">
        <g
           id="g3053"
           transform="matrix(1.2552647,0,0,1.2552647,-6.0349366,-9.5564712)">
          <path
             transform="matrix(1.1595745,0,0,1.1595745,-4.3387633,27.43617)"
             d="M 22,11.5625 C 22,13.184836 20.684836,14.5 19.0625,14.5 17.440164,14.5 16.125,13.184836 16.125,11.5625 16.125,9.9401635 17.440164,8.625 19.0625,8.625 20.684836,8.625 22,9.9401635 22,11.5625 z"
             sodipodi:ry="2.9375"
             sodipodi:rx="2.9375"
             sodipodi:cy="11.5625"
             sodipodi:cx="19.0625"
             id="path3041"
             style="fill:#999999;fill-opacity:0.07843137;stroke:none"
             sodipodi:type="arc" />
          <path
             sodipodi:type="arc"
             style="fill:#999999;fill-opacity:0.07843137;stroke:none"
             id="path3047"
             sodipodi:cx="19.0625"
             sodipodi:cy="11.5625"
             sodipodi:rx="2.9375"
             sodipodi:ry="2.9375"
             d="M 22,11.5625 C 22,13.184836 20.684836,14.5 19.0625,14.5 17.440164,14.5 16.125,13.184836 16.125,11.5625 16.125,9.9401635 17.440164,8.625 19.0625,8.625 20.684836,8.625 22,9.9401635 22,11.5625 z"
             transform="matrix(1.1595745,0,0,1.1595745,-4.3387633,42.18617)" />
        </g>
        <g
           id="g3057"
           transform="matrix(0.62763234,1.0870911,-1.0870911,0.62763234,57.533518,1.3943222)">
          <path
             sodipodi:type="arc"
             style="fill:#999999;fill-opacity:0.07843137;stroke:none"
             id="path3059"
             sodipodi:cx="19.0625"
             sodipodi:cy="11.5625"
             sodipodi:rx="2.9375"
             sodipodi:ry="2.9375"
             d="M 22,11.5625 C 22,13.184836 20.684836,14.5 19.0625,14.5 17.440164,14.5 16.125,13.184836 16.125,11.5625 16.125,9.9401635 17.440164,8.625 19.0625,8.625 20.684836,8.625 22,9.9401635 22,11.5625 z"
             transform="matrix(1.1595745,0,0,1.1595745,-4.3387633,27.43617)" />
          <path
             transform="matrix(1.1595745,0,0,1.1595745,-4.3387633,42.18617)"
             d="M 22,11.5625 C 22,13.184836 20.684836,14.5 19.0625,14.5 17.440164,14.5 16.125,13.184836 16.125,11.5625 16.125,9.9401635 17.440164,8.625 19.0625,8.625 20.684836,8.625 22,9.9401635 22,11.5625 z"
             sodipodi:ry="2.9375"
             sodipodi:rx="2.9375"
             sodipodi:cy="11.5625"
             sodipodi:cx="19.0625"
             id="path3061"
             style="fill:#999999;fill-opacity:0.07843137;stroke:none"
             sodipodi:type="arc" />
        </g>
        <g
           transform="matrix(-0.62763234,1.0870911,-1.0870911,-0.62763234,79.834081,61.921616)"
           id="g3063">
          <path
             transform="matrix(1.1595745,0,0,1.1595745,-4.3387633,27.43617)"
             d="M 22,11.5625 C 22,13.184836 20.684836,14.5 19.0625,14.5 17.440164,14.5 16.125,13.184836 16.125,11.5625 16.125,9.9401635 17.440164,8.625 19.0625,8.625 20.684836,8.625 22,9.9401635 22,11.5625 z"
             sodipodi:ry="2.9375"
             sodipodi:rx="2.9375"
             sodipodi:cy="11.5625"
             sodipodi:cx="19.0625"
             id="path3065"
             style="fill:#999999;fill-opacity:0.07843137;stroke:none"
             sodipodi:type="arc" />
          <path
             sodipodi:type="arc"
             style="fill:#999999;fill-opacity:0.07843137;stroke:none"
             id="path3067"
             sodipodi:cx="19.0625"
             sodipodi:cy="11.5625"
             sodipodi:rx="2.9375"
             sodipodi:ry="2.9375"
             d="M 22,11.5625 C 22,13.184836 20.684836,14.5 19.0625,14.5 17.440164,14.5 16.125,13.184836 16.125,11.5625 16.125,9.9401635 17.440164,8.625 19.0625,8.625 20.684836,8.625 22,9.9401635 22,11.5625 z"
             transform="matrix(1.1595745,0,0,1.1595745,-4.3387633,42.18617)" />
        </g>
      </g>
      <g
         transform="translate(-1.3559952,0)"
         id="g3192">
        <path
           transform="matrix(1.4555729,0,0,1.4555729,26.143768,24.883185)"
           d="M 22,11.5625 C 22,13.184836 20.684836,14.5 19.0625,14.5 17.440164,14.5 16.125,13.184836 16.125,11.5625 16.125,9.9401635 17.440164,8.625 19.0625,8.625 20.684836,8.625 22,9.9401635 22,11.5625 z"
           sodipodi:ry="2.9375"
           sodipodi:rx="2.9375"
           sodipodi:cy="11.5625"
           sodipodi:cx="19.0625"
           id="path3071"
           style="fill:#969696;fill-opacity:0.78431373;stroke:none"
           sodipodi:type="arc" />
        <path
           sodipodi:type="arc"
           style="fill:#999999;fill-opacity:0.07843137;stroke:none"
           id="path3073"
           sodipodi:cx="19.0625"
           sodipodi:cy="11.5625"
           sodipodi:rx="2.9375"
           sodipodi:ry="2.9375"
           d="M 22,11.5625 C 22,13.184836 20.684836,14.5 19.0625,14.5 17.440164,14.5 16.125,13.184836 16.125,11.5625 16.125,9.9401635 17.440164,8.625 19.0625,8.625 20.684836,8.625 22,9.9401635 22,11.5625 z"
           transform="matrix(1.4555729,0,0,1.4555729,26.143768,43.398339)" />
        <path
           sodipodi:type="arc"
           style="fill:#999999;fill-opacity:0.07843137;stroke:none"
           id="path3077"
           sodipodi:cx="19.0625"
           sodipodi:cy="11.5625"
           sodipodi:rx="2.9375"
           sodipodi:ry="2.9375"
           d="M 22,11.5625 C 22,13.184836 20.684836,14.5 19.0625,14.5 17.440164,14.5 16.125,13.184836 16.125,11.5625 16.125,9.9401635 17.440164,8.625 19.0625,8.625 20.684836,8.625 22,9.9401635 22,11.5625 z"
           transform="matrix(0.72778646,1.2605631,-1.2605631,0.72778646,62.609754,13.897519)" />
        <path
           transform="matrix(0.72778646,1.2605631,-1.2605631,0.72778646,46.57516,23.155096)"
           d="M 22,11.5625 C 22,13.184836 20.684836,14.5 19.0625,14.5 17.440164,14.5 16.125,13.184836 16.125,11.5625 16.125,9.9401635 17.440164,8.625 19.0625,8.625 20.684836,8.625 22,9.9401635 22,11.5625 z"
           sodipodi:ry="2.9375"
           sodipodi:rx="2.9375"
           sodipodi:cy="11.5625"
           sodipodi:cx="19.0625"
           id="path3079"
           style="fill:#999999;fill-opacity:0.07843137;stroke:none"
           sodipodi:type="arc" />
        <path
           transform="matrix(-0.72778646,1.2605631,-1.2605631,-0.72778646,90.356612,39.985157)"
           d="M 22,11.5625 C 22,13.184836 20.684836,14.5 19.0625,14.5 17.440164,14.5 16.125,13.184836 16.125,11.5625 16.125,9.9401635 17.440164,8.625 19.0625,8.625 20.684836,8.625 22,9.9401635 22,11.5625 z"
           sodipodi:ry="2.9375"
           sodipodi:rx="2.9375"
           sodipodi:cy="11.5625"
           sodipodi:cx="19.0625"
           id="path3083"
           style="fill:#999999;fill-opacity:0.07843137;stroke:none"
           sodipodi:type="arc" />
        <path
           sodipodi:type="arc"
           style="fill:#969696;fill-opacity:0.39215896;stroke:none"
           id="path3085"
           sodipodi:cx="19.0625"
           sodipodi:cy="11.5625"
           sodipodi:rx="2.9375"
           sodipodi:ry="2.9375"
           d="M 22,11.5625 C 22,13.184836 20.684836,14.5 19.0625,14.5 17.440164,14.5 16.125,13.184836 16.125,11.5625 16.125,9.9401635 17.440164,8.625 19.0625,8.625 20.684836,8.625 22,9.9401635 22,11.5625 z"
           transform="matrix(-0.72778646,1.2605631,-1.2605631,-0.72778646,74.322018,30.72758)" />
      </g>
      <g
         transform="translate(0.26477051,0)"
         id="g3184">
        <path
           sodipodi:type="arc"
           style="fill:#969696;fill-opacity:0.39215686;stroke:none"
           id="path3093"
           sodipodi:cx="19.0625"
           sodipodi:cy="11.5625"
           sodipodi:rx="2.9375"
           sodipodi:ry="2.9375"
           d="M 22,11.5625 C 22,13.184836 20.684836,14.5 19.0625,14.5 17.440164,14.5 16.125,13.184836 16.125,11.5625 16.125,9.9401635 17.440164,8.625 19.0625,8.625 20.684836,8.625 22,9.9401635 22,11.5625 z"
           transform="matrix(1.4555729,0,0,1.4555729,60.792001,24.883185)" />
        <path
           transform="matrix(1.4555729,0,0,1.4555729,60.792001,43.398339)"
           d="M 22,11.5625 C 22,13.184836 20.684836,14.5 19.0625,14.5 17.440164,14.5 16.125,13.184836 16.125,11.5625 16.125,9.9401635 17.440164,8.625 19.0625,8.625 20.684836,8.625 22,9.9401635 22,11.5625 z"
           sodipodi:ry="2.9375"
           sodipodi:rx="2.9375"
           sodipodi:cy="11.5625"
           sodipodi:cx="19.0625"
           id="path3095"
           style="fill:#999999;fill-opacity:0.07843137;stroke:none"
           sodipodi:type="arc" />
        <path
           transform="matrix(0.72778646,1.2605631,-1.2605631,0.72778646,97.257987,13.897519)"
           d="M 22,11.5625 C 22,13.184836 20.684836,14.5 19.0625,14.5 17.440164,14.5 16.125,13.184836 16.125,11.5625 16.125,9.9401635 17.440164,8.625 19.0625,8.625 20.684836,8.625 22,9.9401635 22,11.5625 z"
           sodipodi:ry="2.9375"
           sodipodi:rx="2.9375"
           sodipodi:cy="11.5625"
           sodipodi:cx="19.0625"
           id="path3097"
           style="fill:#969696;fill-opacity:0.78431373;stroke:none"
           sodipodi:type="arc" />
        <path
           sodipodi:type="arc"
           style="fill:#999999;fill-opacity:0.07843137;stroke:none"
           id="path3099"
           sodipodi:cx="19.0625"
           sodipodi:cy="11.5625"
           sodipodi:rx="2.9375"
           sodipodi:ry="2.9375"
           d="M 22,11.5625 C 22,13.184836 20.684836,14.5 19.0625,14.5 17.440164,14.5 16.125,13.184836 16.125,11.5625 16.125,9.9401635 17.440164,8.625 19.0625,8.625 20.684836,8.625 22,9.9401635 22,11.5625 z"
           transform="matrix(0.72778646,1.2605631,-1.2605631,0.72778646,81.223393,23.155096)" />
        <path
           sodipodi:type="arc"
           style="fill:#999999;fill-opacity:0.07843137;stroke:none"
           id="path3101"
           sodipodi:cx="19.0625"
           sodipodi:cy="11.5625"
           sodipodi:rx="2.9375"
           sodipodi:ry="2.9375"
           d="M 22,11.5625 C 22,13.184836 20.684836,14.5 19.0625,14.5 17.440164,14.5 16.125,13.184836 16.125,11.5625 16.125,9.9401635 17.440164,8.625 19.0625,8.625 20.684836,8.625 22,9.9401635 22,11.5625 z"
           transform="matrix(-0.72778646,1.2605631,-1.2605631,-0.72778646,125.00484,39.985157)" />
        <path
           transform="matrix(-0.72778646,1.2605631,-1.2605631,-0.72778646,108.97025,30.72758)"
           d="M 22,11.5625 C 22,13.184836 20.684836,14.5 19.0625,14.5 17.440164,14.5 16.125,13.184836 16.125,11.5625 16.125,9.9401635 17.440164,8.625 19.0625,8.625 20.684836,8.625 22,9.9401635 22,11.5625 z"
           sodipodi:ry="2.9375"
           sodipodi:rx="2.9375"
           sodipodi:cy="11.5625"
           sodipodi:cx="19.0625"
           id="path3103"
           style="fill:#999999;fill-opacity:0.07843137;stroke:none"
           sodipodi:type="arc" />
      </g>
      <g
         transform="translate(0.47132874,0)"
         id="g3176">
        <path
           transform="matrix(1.4555729,0,0,1.4555729,96.854447,24.883185)"
           d="M 22,11.5625 C 22,13.184836 20.684836,14.5 19.0625,14.5 17.440164,14.5 16.125,13.184836 16.125,11.5625 16.125,9.9401635 17.440164,8.625 19.0625,8.625 20.684836,8.625 22,9.9401635 22,11.5625 z"
           sodipodi:ry="2.9375"
           sodipodi:rx="2.9375"
           sodipodi:cy="11.5625"
           sodipodi:cx="19.0625"
           id="path3105"
           style="fill:#999999;fill-opacity:0.07843137;stroke:none"
           sodipodi:type="arc" />
        <path
           sodipodi:type="arc"
           style="fill:#999999;fill-opacity:0.07843137;stroke:none"
           id="path3107"
           sodipodi:cx="19.0625"
           sodipodi:cy="11.5625"
           sodipodi:rx="2.9375"
           sodipodi:ry="2.9375"
           d="M 22,11.5625 C 22,13.184836 20.684836,14.5 19.0625,14.5 17.440164,14.5 16.125,13.184836 16.125,11.5625 16.125,9.9401635 17.440164,8.625 19.0625,8.625 20.684836,8.625 22,9.9401635 22,11.5625 z"
           transform="matrix(1.4555729,0,0,1.4555729,96.854447,43.398339)" />
        <path
           sodipodi:type="arc"
           style="fill:#969696;fill-opacity:0.39215686;stroke:none"
           id="path3109"
           sodipodi:cx="19.0625"
           sodipodi:cy="11.5625"
           sodipodi:rx="2.9375"
           sodipodi:ry="2.9375"
           d="M 22,11.5625 C 22,13.184836 20.684836,14.5 19.0625,14.5 17.440164,14.5 16.125,13.184836 16.125,11.5625 16.125,9.9401635 17.440164,8.625 19.0625,8.625 20.684836,8.625 22,9.9401635 22,11.5625 z"
           transform="matrix(0.72778646,1.2605631,-1.2605631,0.72778646,133.32043,13.897519)" />
        <path
           transform="matrix(0.72778646,1.2605631,-1.2605631,0.72778646,117.28584,23.155096)"
           d="M 22,11.5625 C 22,13.184836 20.684836,14.5 19.0625,14.5 17.440164,14.5 16.125,13.184836 16.125,11.5625 16.125,9.9401635 17.440164,8.625 19.0625,8.625 20.684836,8.625 22,9.9401635 22,11.5625 z"
           sodipodi:ry="2.9375"
           sodipodi:rx="2.9375"
           sodipodi:cy="11.5625"
           sodipodi:cx="19.0625"
           id="path3111"
           style="fill:#999999;fill-opacity:0.07843137;stroke:none"
           sodipodi:type="arc" />
        <path
           transform="matrix(-0.72778646,1.2605631,-1.2605631,-0.72778646,161.06729,39.985157)"
           d="M 22,11.5625 C 22,13.184836 20.684836,14.5 19.0625,14.5 17.440164,14.5 16.125,13.184836 16.125,11.5625 16.125,9.9401635 17.440164,8.625 19.0625,8.625 20.684836,8.625 22,9.9401635 22,11.5625 z"
           sodipodi:ry="2.9375"
           sodipodi:rx="2.9375"
           sodipodi:cy="11.5625"
           sodipodi:cx="19.0625"
           id="path3113"
           style="fill:#969696;fill-opacity:0.78431373;stroke:none"
           sodipodi:type="arc" />
        <path
           sodipodi:type="arc"
           style="fill:#999999;fill-opacity:0.07843137;stroke:none"
           id="path3115"
           sodipodi:cx="19.0625"
           sodipodi:cy="11.5625"
           sodipodi:rx="2.9375"
           sodipodi:ry="2.9375"
           d="M 22,11.5625 C 22,13.184836 20.684836,14.5 19.0625,14.5 17.440164,14.5 16.125,13.184836 16.125,11.5625 16.125,9.9401635 17.440164,8.625 19.0625,8.625 20.684836,8.625 22,9.9401635 22,11.5625 z"
           transform="matrix(-0.72778646,1.2605631,-1.2605631,-0.72778646,145.0327,30.72758)" />
      </g>
      <g
         transform="translate(1.2082062,0)"
         id="g3168">
        <path
           sodipodi:type="arc"
           style="fill:#999999;fill-opacity:0.07843137;stroke:none"
           id="path3117"
           sodipodi:cx="19.0625"
           sodipodi:cy="11.5625"
           sodipodi:rx="2.9375"
           sodipodi:ry="2.9375"
           d="M 22,11.5625 C 22,13.184836 20.684836,14.5 19.0625,14.5 17.440164,14.5 16.125,13.184836 16.125,11.5625 16.125,9.9401635 17.440164,8.625 19.0625,8.625 20.684836,8.625 22,9.9401635 22,11.5625 z"
           transform="matrix(1.4555729,0,0,1.4555729,132.38656,24.883185)" />
        <path
           transform="matrix(1.4555729,0,0,1.4555729,132.38656,43.398339)"
           d="M 22,11.5625 C 22,13.184836 20.684836,14.5 19.0625,14.5 17.440164,14.5 16.125,13.184836 16.125,11.5625 16.125,9.9401635 17.440164,8.625 19.0625,8.625 20.684836,8.625 22,9.9401635 22,11.5625 z"
           sodipodi:ry="2.9375"
           sodipodi:rx="2.9375"
           sodipodi:cy="11.5625"
           sodipodi:cx="19.0625"
           id="path3119"
           style="fill:#969696;fill-opacity:0.78431373;stroke:none"
           sodipodi:type="arc" />
        <path
           transform="matrix(0.72778646,1.2605631,-1.2605631,0.72778646,168.85255,13.897519)"
           d="M 22,11.5625 C 22,13.184836 20.684836,14.5 19.0625,14.5 17.440164,14.5 16.125,13.184836 16.125,11.5625 16.125,9.9401635 17.440164,8.625 19.0625,8.625 20.684836,8.625 22,9.9401635 22,11.5625 z"
           sodipodi:ry="2.9375"
           sodipodi:rx="2.9375"
           sodipodi:cy="11.5625"
           sodipodi:cx="19.0625"
           id="path3121"
           style="fill:#999999;fill-opacity:0.07843137;stroke:none"
           sodipodi:type="arc" />
        <path
           sodipodi:type="arc"
           style="fill:#999999;fill-opacity:0.07843137;stroke:none"
           id="path3123"
           sodipodi:cx="19.0625"
           sodipodi:cy="11.5625"
           sodipodi:rx="2.9375"
           sodipodi:ry="2.9375"
           d="M 22,11.5625 C 22,13.184836 20.684836,14.5 19.0625,14.5 17.440164,14.5 16.125,13.184836 16.125,11.5625 16.125,9.9401635 17.440164,8.625 19.0625,8.625 20.684836,8.625 22,9.9401635 22,11.5625 z"
           transform="matrix(0.72778646,1.2605631,-1.2605631,0.72778646,152.81796,23.155096)" />
        <path
           sodipodi:type="arc"
           style="fill:#969696;fill-opacity:0.39215686;stroke:none"
           id="path3125"
           sodipodi:cx="19.0625"
           sodipodi:cy="11.5625"
           sodipodi:rx="2.9375"
           sodipodi:ry="2.9375"
           d="M 22,11.5625 C 22,13.184836 20.684836,14.5 19.0625,14.5 17.440164,14.5 16.125,13.184836 16.125,11.5625 16.125,9.9401635 17.440164,8.625 19.0625,8.625 20.684836,8.625 22,9.9401635 22,11.5625 z"
           transform="matrix(-0.72778646,1.2605631,-1.2605631,-0.72778646,196.59941,39.985157)" />
        <path
           transform="matrix(-0.72778646,1.2605631,-1.2605631,-0.72778646,180.56482,30.72758)"
           d="M 22,11.5625 C 22,13.184836 20.684836,14.5 19.0625,14.5 17.440164,14.5 16.125,13.184836 16.125,11.5625 16.125,9.9401635 17.440164,8.625 19.0625,8.625 20.684836,8.625 22,9.9401635 22,11.5625 z"
           sodipodi:ry="2.9375"
           sodipodi:rx="2.9375"
           sodipodi:cy="11.5625"
           sodipodi:cx="19.0625"
           id="path3127"
           style="fill:#999999;fill-opacity:0.07843137;stroke:none"
           sodipodi:type="arc" />
      </g>
      <g
         transform="translate(-0.70655823,0)"
         id="g3211">
        <path
           transform="matrix(1.4555729,0,0,1.4555729,170.57033,24.883185)"
           d="M 22,11.5625 C 22,13.184836 20.684836,14.5 19.0625,14.5 17.440164,14.5 16.125,13.184836 16.125,11.5625 16.125,9.9401635 17.440164,8.625 19.0625,8.625 20.684836,8.625 22,9.9401635 22,11.5625 z"
           sodipodi:ry="2.9375"
           sodipodi:rx="2.9375"
           sodipodi:cy="11.5625"
           sodipodi:cx="19.0625"
           id="path3129"
           style="fill:#999999;fill-opacity:0.07843137;stroke:none"
           sodipodi:type="arc" />
        <g
           id="g3161">
          <path
             transform="matrix(1.4555729,0,0,1.4555729,170.57033,43.398339)"
             d="M 22,11.5625 C 22,13.184836 20.684836,14.5 19.0625,14.5 17.440164,14.5 16.125,13.184836 16.125,11.5625 16.125,9.9401635 17.440164,8.625 19.0625,8.625 20.684836,8.625 22,9.9401635 22,11.5625 z"
             sodipodi:ry="2.9375"
             sodipodi:rx="2.9375"
             sodipodi:cy="11.5625"
             sodipodi:cx="19.0625"
             id="path3131"
             style="fill:#999999;fill-opacity:0.07843137;stroke:none"
             sodipodi:type="arc" />
          <path
             transform="matrix(0.72778646,1.2605631,-1.2605631,0.72778646,207.03632,13.897519)"
             d="M 22,11.5625 C 22,13.184836 20.684836,14.5 19.0625,14.5 17.440164,14.5 16.125,13.184836 16.125,11.5625 16.125,9.9401635 17.440164,8.625 19.0625,8.625 20.684836,8.625 22,9.9401635 22,11.5625 z"
             sodipodi:ry="2.9375"
             sodipodi:rx="2.9375"
             sodipodi:cy="11.5625"
             sodipodi:cx="19.0625"
             id="path3133"
             style="fill:#999999;fill-opacity:0.07843137;stroke:none"
             sodipodi:type="arc" />
          <path
             sodipodi:type="arc"
             style="fill:#969696;fill-opacity:0.39215686;stroke:none"
             id="path3135"
             sodipodi:cx="19.0625"
             sodipodi:cy="11.5625"
             sodipodi:rx="2.9375"
             sodipodi:ry="2.9375"
             d="M 22,11.5625 C 22,13.184836 20.684836,14.5 19.0625,14.5 17.440164,14.5 16.125,13.184836 16.125,11.5625 16.125,9.9401635 17.440164,8.625 19.0625,8.625 20.684836,8.625 22,9.9401635 22,11.5625 z"
             transform="matrix(0.72778646,1.2605631,-1.2605631,0.72778646,191.00173,23.155096)" />
          <path
             sodipodi:type="arc"
             style="fill:#999999;fill-opacity:0.07843137;stroke:none"
             id="path3137"
             sodipodi:cx="19.0625"
             sodipodi:cy="11.5625"
             sodipodi:rx="2.9375"
             sodipodi:ry="2.9375"
             d="M 22,11.5625 C 22,13.184836 20.684836,14.5 19.0625,14.5 17.440164,14.5 16.125,13.184836 16.125,11.5625 16.125,9.9401635 17.440164,8.625 19.0625,8.625 20.684836,8.625 22,9.9401635 22,11.5625 z"
             transform="matrix(-0.72778646,1.2605631,-1.2605631,-0.72778646,234.78318,39.985157)" />
          <path
             transform="matrix(-0.72778646,1.2605631,-1.2605631,-0.72778646,218.74859,30.72758)"
             d="M 22,11.5625 C 22,13.184836 20.684836,14.5 19.0625,14.5 17.440164,14.5 16.125,13.184836 16.125,11.5625 16.125,9.9401635 17.440164,8.625 19.0625,8.625 20.684836,8.625 22,9.9401635 22,11.5625 z"
             sodipodi:ry="2.9375"
             sodipodi:rx="2.9375"
             sodipodi:cy="11.5625"
             sodipodi:cx="19.0625"
             id="path3139"
             style="fill:#969696;fill-opacity:0.78431373;stroke:none"
             sodipodi:type="arc" />
        </g>
      </g>
      <g
         transform="translate(-0.5,0)"
         id="g3153">
        <path
           sodipodi:type="arc"
           style="fill:#969696;fill-opacity:0.78431373;stroke:none"
           id="path3141"
           sodipodi:cx="19.0625"
           sodipodi:cy="11.5625"
           sodipodi:rx="2.9375"
           sodipodi:ry="2.9375"
           d="M 22,11.5625 C 22,13.184836 20.684836,14.5 19.0625,14.5 17.440164,14.5 16.125,13.184836 16.125,11.5625 16.125,9.9401635 17.440164,8.625 19.0625,8.625 20.684836,8.625 22,9.9401635 22,11.5625 z"
           transform="matrix(1.4555729,0,0,1.4555729,206.63278,24.883185)" />
        <path
           transform="matrix(1.4555729,0,0,1.4555729,206.63278,43.398339)"
           d="M 22,11.5625 C 22,13.184836 20.684836,14.5 19.0625,14.5 17.440164,14.5 16.125,13.184836 16.125,11.5625 16.125,9.9401635 17.440164,8.625 19.0625,8.625 20.684836,8.625 22,9.9401635 22,11.5625 z"
           sodipodi:ry="2.9375"
           sodipodi:rx="2.9375"
           sodipodi:cy="11.5625"
           sodipodi:cx="19.0625"
           id="path3143"
           style="fill:#999999;fill-opacity:0.07843137;stroke:none"
           sodipodi:type="arc" />
        <path
           transform="matrix(0.72778646,1.2605631,-1.2605631,0.72778646,243.09877,13.897519)"
           d="M 22,11.5625 C 22,13.184836 20.684836,14.5 19.0625,14.5 17.440164,14.5 16.125,13.184836 16.125,11.5625 16.125,9.9401635 17.440164,8.625 19.0625,8.625 20.684836,8.625 22,9.9401635 22,11.5625 z"
           sodipodi:ry="2.9375"
           sodipodi:rx="2.9375"
           sodipodi:cy="11.5625"
           sodipodi:cx="19.0625"
           id="path3145"
           style="fill:#999999;fill-opacity:0.07843137;stroke:none"
           sodipodi:type="arc" />
        <path
           sodipodi:type="arc"
           style="fill:#999999;fill-opacity:0.07843137;stroke:none"
           id="path3147"
           sodipodi:cx="19.0625"
           sodipodi:cy="11.5625"
           sodipodi:rx="2.9375"
           sodipodi:ry="2.9375"
           d="M 22,11.5625 C 22,13.184836 20.684836,14.5 19.0625,14.5 17.440164,14.5 16.125,13.184836 16.125,11.5625 16.125,9.9401635 17.440164,8.625 19.0625,8.625 20.684836,8.625 22,9.9401635 22,11.5625 z"
           transform="matrix(0.72778646,1.2605631,-1.2605631,0.72778646,227.06418,23.155096)" />
        <path
           sodipodi:type="arc"
           style="fill:#999999;fill-opacity:0.07843137;stroke:none"
           id="path3149"
           sodipodi:cx="19.0625"
           sodipodi:cy="11.5625"
           sodipodi:rx="2.9375"
           sodipodi:ry="2.9375"
           d="M 22,11.5625 C 22,13.184836 20.684836,14.5 19.0625,14.5 17.440164,14.5 16.125,13.184836 16.125,11.5625 16.125,9.9401635 17.440164,8.625 19.0625,8.625 20.684836,8.625 22,9.9401635 22,11.5625 z"
           transform="matrix(-0.72778646,1.2605631,-1.2605631,-0.72778646,270.84563,39.985157)" />
        <path
           transform="matrix(-0.72778646,1.2605631,-1.2605631,-0.72778646,254.81104,30.72758)"
           d="M 22,11.5625 C 22,13.184836 20.684836,14.5 19.0625,14.5 17.440164,14.5 16.125,13.184836 16.125,11.5625 16.125,9.9401635 17.440164,8.625 19.0625,8.625 20.684836,8.625 22,9.9401635 22,11.5625 z"
           sodipodi:ry="2.9375"
           sodipodi:rx="2.9375"
           sodipodi:cy="11.5625"
           sodipodi:cx="19.0625"
           id="path3151"
           style="fill:#969696;fill-opacity:0.39215686;stroke:none"
           sodipodi:type="arc" />
      </g>
    </g>
    <rect
       style="fill:none;stroke:none"
       id="rect4228"
       width="254"
       height="36"
       x="-6.6424377e-09"
       y="1016.3622" />
  </g>
</svg>
