<?xml version="1.0" encoding="UTF-8" standalone="no"?>
<!-- Created with Inkscape (http://www.inkscape.org/) -->

<svg
   xmlns:dc="http://purl.org/dc/elements/1.1/"
   xmlns:cc="http://creativecommons.org/ns#"
   xmlns:rdf="http://www.w3.org/1999/02/22-rdf-syntax-ns#"
   xmlns:svg="http://www.w3.org/2000/svg"
   xmlns="http://www.w3.org/2000/svg"
   xmlns:sodipodi="http://sodipodi.sourceforge.net/DTD/sodipodi-0.dtd"
   xmlns:inkscape="http://www.inkscape.org/namespaces/inkscape"
   id="svg3396"
   height="48"
   width="48"
   version="1.0"
   inkscape:version="0.48.3.1 r9886"
   sodipodi:docname="application-archive-blank.svg">
  <metadata
     id="metadata64">
    <rdf:RDF>
      <cc:Work
         rdf:about="">
        <dc:format>image/svg+xml</dc:format>
        <dc:type
           rdf:resource="http://purl.org/dc/dcmitype/StillImage" />
        <dc:title></dc:title>
      </cc:Work>
    </rdf:RDF>
  </metadata>
  <sodipodi:namedview
     pagecolor="#ffffff"
     bordercolor="#666666"
     borderopacity="1"
     objecttolerance="10"
     gridtolerance="10"
     guidetolerance="10"
     inkscape:pageopacity="0"
     inkscape:pageshadow="2"
     inkscape:window-width="1280"
     inkscape:window-height="721"
     id="namedview62"
     showgrid="true"
     inkscape:zoom="5.9374525"
     inkscape:cx="-13.288029"
     inkscape:cy="10.138703"
     inkscape:window-x="0"
     inkscape:window-y="22"
     inkscape:window-maximized="1"
     inkscape:current-layer="svg3396">
    <inkscape:grid
       type="xygrid"
       id="grid3906" />
  </sodipodi:namedview>
  <defs
     id="defs3398">
    <radialGradient
       id="radialGradient2661"
       gradientUnits="userSpaceOnUse"
       cy="35.127"
       cx="23.071"
       gradientTransform="matrix(1.0638,0.013724,-0.009553,0.23168,118.76592,36.591726)"
       r="10.319">
      <stop
         id="stop2093"
         offset="0" />
      <stop
         id="stop2095"
         style="stop-opacity:0"
         offset="1" />
    </radialGradient>
    <linearGradient
       id="linearGradient2658"
       y2="46.073"
       gradientUnits="userSpaceOnUse"
       x2="28.857"
       y1="26"
       x1="28.857"
       gradientTransform="translate(106.84292,-0.48127441)">
      <stop
         id="stop3499"
         style="stop-color:#699536"
         offset="0" />
      <stop
         id="stop3501"
         style="stop-color:#587d2d"
         offset="1" />
    </linearGradient>
    <linearGradient
       id="linearGradient2656"
       y2="32.485"
       gradientUnits="userSpaceOnUse"
       x2="24.104"
       gradientTransform="matrix(0.89889,0,0,0.89347,121.37892,14.952726)"
       y1="15.169"
       x1="24.104">
      <stop
         id="stop2266"
         style="stop-color:#d7e866"
         offset="0" />
      <stop
         id="stop2268"
         style="stop-color:#8cab2a"
         offset="1" />
    </linearGradient>
    <linearGradient
       id="linearGradient2653"
       y2="47.273"
       gradientUnits="userSpaceOnUse"
       x2="24.139"
       gradientTransform="matrix(0.53994,0,0,0.53668,129.99392,23.012726)"
       y1="6.5317"
       x1="24.139">
      <stop
         id="stop4224"
         style="stop-color:#fff"
         offset="0" />
      <stop
         id="stop4226"
         style="stop-color:#fff;stop-opacity:0"
         offset="1" />
    </linearGradient>
    <radialGradient
       id="radialGradient2455"
       gradientUnits="userSpaceOnUse"
       cy="5.0172"
       cx="3"
       gradientTransform="matrix(-1.2749e-8,1.7143,-2.1593,-1.46e-8,12.809,2.857)"
       r="21">
      <stop
         id="stop3486"
         style="stop-color:#bdbdbd"
         offset="0" />
      <stop
         id="stop3488"
         style="stop-color:#d0d0d0"
         offset="1" />
    </radialGradient>
    <linearGradient
       id="linearGradient2453"
       y2="16.19"
       gradientUnits="userSpaceOnUse"
       x2="62.989"
       gradientTransform="translate(-50.941,0)"
       y1="13.183"
       x1="62.989">
      <stop
         id="stop6406"
         style="stop-color:#f9f9f9"
         offset="0" />
      <stop
         id="stop6408"
         style="stop-color:#c9c9c9"
         offset="1" />
    </linearGradient>
    <radialGradient
       id="radialGradient7600-312"
       gradientUnits="userSpaceOnUse"
       cy="486.65"
       cx="605.71"
       gradientTransform="matrix(-0.03213,0,0,0.037059,23.363,25.412)"
       r="117.14">
      <stop
         id="stop2681"
         offset="0" />
      <stop
         id="stop2683"
         style="stop-opacity:0"
         offset="1" />
    </radialGradient>
    <radialGradient
       id="radialGradient7598-526"
       gradientUnits="userSpaceOnUse"
       cy="486.65"
       cx="605.71"
       gradientTransform="matrix(0.03213,0,0,0.037059,24.637,25.412)"
       r="117.14">
      <stop
         id="stop2675"
         offset="0" />
      <stop
         id="stop2677"
         style="stop-opacity:0"
         offset="1" />
    </radialGradient>
    <linearGradient
       id="linearGradient7596-975"
       y2="609.51"
       gradientUnits="userSpaceOnUse"
       x2="302.86"
       gradientTransform="matrix(0.08284,0,0,0.037059,-5.9408,25.412)"
       y1="366.65"
       x1="302.86">
      <stop
         id="stop2667"
         style="stop-opacity:0"
         offset="0" />
      <stop
         id="stop2669"
         offset=".5" />
      <stop
         id="stop2671"
         style="stop-opacity:0"
         offset="1" />
    </linearGradient>
    <linearGradient
       id="linearGradient2446"
       y2="15.944"
       gradientUnits="userSpaceOnUse"
       x2="65.34"
       gradientTransform="translate(-53.765,-0.11419)"
       y1="45.114"
       x1="82.453">
      <stop
         id="stop3624"
         style="stop-color:#bb2b12"
         offset="0" />
      <stop
         id="stop3626"
         style="stop-color:#cd7233"
         offset="1" />
    </linearGradient>
    <radialGradient
       id="radialGradient2444"
       gradientUnits="userSpaceOnUse"
       cy="14.113"
       cx="63.969"
       gradientTransform="matrix(1.5647,-9.5143e-8,6.1772e-8,1.0159,-86.213,8.1461)"
       r="23.097">
      <stop
         id="stop3618"
         style="stop-color:#f0c178"
         offset="0" />
      <stop
         id="stop3270"
         style="stop-color:#e18941"
         offset=".5" />
      <stop
         id="stop3620"
         style="stop-color:#ec4f18"
         offset="1" />
    </radialGradient>
    <linearGradient
       id="linearGradient2441"
       y2="36.658"
       gradientUnits="userSpaceOnUse"
       x2="22.809"
       gradientTransform="matrix(1.1447,0,0,0.99775,-3.4661,1.0988)"
       y1="49.629"
       x1="22.935">
      <stop
         id="stop2661"
         style="stop-color:#0a0a0a;stop-opacity:.498"
         offset="0" />
      <stop
         id="stop2663"
         style="stop-color:#0a0a0a;stop-opacity:0"
         offset="1" />
    </linearGradient>
    <radialGradient
       id="radialGradient2438"
       gradientUnits="userSpaceOnUse"
       cy="8.3021"
       cx="7.2647"
       gradientTransform="matrix(0,1.208,-1.6272,0,26.372,8.2665)"
       r="20.98">
      <stop
         id="stop2693"
         style="stop-color:#fff;stop-opacity:0.4"
         offset="0" />
      <stop
         id="stop2695"
         style="stop-color:#fff;stop-opacity:0"
         offset="1" />
    </radialGradient>
    <linearGradient
       id="linearGradient2435"
       y2="33.955"
       gradientUnits="userSpaceOnUse"
       x2="15.215"
       y1="22.292"
       x1="11.566">
      <stop
         id="stop2687"
         style="stop-color:#fff;stop-opacity:.27451"
         offset="0" />
      <stop
         id="stop2689"
         style="stop-color:#fff;stop-opacity:.078431"
         offset="1" />
    </linearGradient>
  </defs>
  <path
     style="opacity:0.8;fill:#000000;fill-opacity:1;stroke:none"
     d="M 9.25 25.03125 C 8.5507577 25.064709 8.0625 25.23245 8.0625 26 L 8.0625 42.15625 C 8.0625 43.17965 8.921416 44 10 44 L 38.09375 44 C 39.172334 44 40.0625 43.17965 40.0625 42.15625 L 40.0625 26 C 40.0625 24.9772 39.172334 25.03125 38.09375 25.03125 L 10 25.03125 C 9.730354 25.03125 9.4830808 25.0201 9.25 25.03125 z M 17.09375 29.34375 L 18.9375 29.34375 L 18.9375 30.875 L 17.09375 30.875 L 17.09375 29.34375 z M 23.1875 31.46875 C 24.230346 31.468756 24.9763 31.680745 25.4375 32.09375 C 25.902131 32.503323 26.156244 33.167923 26.15625 34.09375 L 26.15625 37.375 L 24.28125 37.375 L 24.28125 36.53125 C 24.03344 36.882309 23.747253 37.150738 23.4375 37.3125 C 23.127739 37.470821 22.756483 37.53125 22.3125 37.53125 C 21.713633 37.53125 21.2189 37.378867 20.84375 37.03125 C 20.47204 36.680192 20.28125 36.213815 20.28125 35.65625 C 20.28125 34.978227 20.535363 34.472894 21 34.15625 C 21.468077 33.839613 22.189389 33.687504 23.1875 33.6875 L 24.28125 33.6875 L 24.28125 33.53125 C 24.281246 33.238705 24.168093 33.040483 23.9375 32.90625 C 23.706899 32.768584 23.332475 32.687504 22.84375 32.6875 C 22.447946 32.687504 22.090732 32.73335 21.75 32.8125 C 21.409265 32.89166 21.105048 32.997933 20.8125 33.15625 L 20.8125 31.75 C 21.2083 31.65364 21.600755 31.57944 22 31.53125 C 22.399241 31.47963 22.788254 31.46876 23.1875 31.46875 z M 31.65625 31.46875 C 31.7182 31.468756 31.771469 31.46185 31.84375 31.46875 C 31.91602 31.47215 32.018575 31.48279 32.15625 31.5 L 32.15625 33.1875 C 31.994483 33.11179 31.849258 33.065672 31.6875 33.03125 C 31.529175 32.99339 31.349258 32.96876 31.1875 32.96875 C 30.712534 32.968754 30.351878 33.099938 30.09375 33.40625 C 29.839057 33.709128 29.718748 34.150864 29.71875 34.71875 L 29.71875 37.375 L 27.875 37.375 L 27.875 31.59375 L 29.71875 31.59375 L 29.71875 32.5625 C 29.956228 32.183912 30.22493 31.890843 30.53125 31.71875 C 30.841003 31.543227 31.226026 31.468756 31.65625 31.46875 z M 17.09375 31.59375 L 18.9375 31.59375 L 18.9375 37.28125 C 18.937497 38.055644 18.746706 38.656372 18.375 39.0625 C 18.003289 39.472066 17.486808 39.656247 16.78125 39.65625 L 15.84375 39.65625 L 15.84375 38.46875 L 16.1875 38.46875 C 16.538558 38.468749 16.775463 38.37707 16.90625 38.21875 C 17.037035 38.060429 17.093749 37.745887 17.09375 37.28125 L 17.09375 31.59375 z M 23.3125 34.78125 C 22.927021 34.781253 22.633677 34.83797 22.4375 34.96875 C 22.24476 35.099539 22.156248 35.307812 22.15625 35.5625 C 22.156248 35.79654 22.22012 35.990773 22.375 36.125 C 22.533318 36.255787 22.752465 36.312501 23.03125 36.3125 C 23.378864 36.312501 23.700015 36.185308 23.9375 35.9375 C 24.174977 35.686254 24.281246 35.375153 24.28125 35 L 24.28125 34.78125 L 23.3125 34.78125 z "
     id="rect3310" />
  <path
     style="opacity:0.8;fill:#000000;fill-opacity:1;stroke:none"
     d="m 13.053097,17.0242 -4,6 14,0 0,-9 -7,0 c -1,0 -3,3 -3,3 z m 12,-3 0,9 14,0 -4,-6 c 0,0 -2,-3 -3,-3 z"
     id="path4080"
     inkscape:connector-curvature="0"
     sodipodi:nodetypes="cccccccccccc" />
</svg>
