<?xml version="1.0" encoding="UTF-8" standalone="no"?>
<!-- Created with Inkscape (http://www.inkscape.org/) -->

<svg
   xmlns:dc="http://purl.org/dc/elements/1.1/"
   xmlns:cc="http://creativecommons.org/ns#"
   xmlns:rdf="http://www.w3.org/1999/02/22-rdf-syntax-ns#"
   xmlns:svg="http://www.w3.org/2000/svg"
   xmlns="http://www.w3.org/2000/svg"
   xmlns:xlink="http://www.w3.org/1999/xlink"
   xmlns:sodipodi="http://sodipodi.sourceforge.net/DTD/sodipodi-0.dtd"
   xmlns:inkscape="http://www.inkscape.org/namespaces/inkscape"
   id="svg3508"
   height="48"
   width="48"
   version="1.0"
   inkscape:version="0.48.4 r9939"
   sodipodi:docname="application-blank.svg">
  <metadata
     id="metadata62">
    <rdf:RDF>
      <cc:Work
         rdf:about="">
        <dc:format>image/svg+xml</dc:format>
        <dc:type
           rdf:resource="http://purl.org/dc/dcmitype/StillImage" />
        <dc:title></dc:title>
      </cc:Work>
    </rdf:RDF>
  </metadata>
  <sodipodi:namedview
     pagecolor="#ffffff"
     bordercolor="#666666"
     borderopacity="1"
     objecttolerance="10"
     gridtolerance="10"
     guidetolerance="10"
     inkscape:pageopacity="0"
     inkscape:pageshadow="2"
     inkscape:window-width="1280"
     inkscape:window-height="709"
     id="namedview60"
     showgrid="true"
     inkscape:zoom="8.0000001"
     inkscape:cx="-11.620386"
     inkscape:cy="9.0241195"
     inkscape:window-x="0"
     inkscape:window-y="27"
     inkscape:window-maximized="1"
     inkscape:current-layer="svg3508">
    <inkscape:grid
       type="xygrid"
       id="grid3816" />
  </sodipodi:namedview>
  <defs
     id="defs3510">
    <linearGradient
       id="linearGradient3824">
      <stop
         style="stop-color:#e4e6e2;stop-opacity:1;"
         offset="0"
         id="stop3826" />
      <stop
         id="stop3834"
         offset="0.5"
         style="stop-color:#d7dad3;stop-opacity:1;" />
      <stop
         style="stop-color:#b7beb1;stop-opacity:1;"
         offset="1"
         id="stop3828" />
    </linearGradient>
    <linearGradient
       id="linearGradient3156"
       y2="36"
       gradientUnits="userSpaceOnUse"
       x2="-.097514"
       gradientTransform="matrix(0.72415,0,0,0.73599,74.074876,5.5950852)"
       y1="36"
       x1="36.5">
      <stop
         id="stop3916"
         style="stop-color:#c02cbb"
         offset="0" />
      <stop
         id="stop3918"
         style="stop-color:#b329ae;stop-opacity:.49804"
         offset=".79722" />
      <stop
         id="stop3920"
         style="stop-color:#982394;stop-opacity:0"
         offset="1" />
    </linearGradient>
    <linearGradient
       id="linearGradient3154"
       y2="15.5"
       gradientUnits="userSpaceOnUse"
       x2="-.073089"
       gradientTransform="matrix(0.72415,0,0,0.73599,74.074876,5.5950852)"
       y1="15.5"
       x1="23.997">
      <stop
         id="stop3700"
         style="stop-color:#ce7ecc"
         offset="0" />
      <stop
         id="stop3702"
         style="stop-color:#c056bc;stop-opacity:.81569"
         offset=".76279" />
      <stop
         id="stop3704"
         style="stop-color:#f8c9f7;stop-opacity:0"
         offset="1" />
    </linearGradient>
    <linearGradient
       id="linearGradient3151"
       y2="-.43754"
       gradientUnits="userSpaceOnUse"
       x2="20.484"
       gradientTransform="matrix(0,-0.86253,0.84866,0,75.365876,45.413085)"
       y1="12.82"
       x1="20.484">
      <stop
         id="stop2189"
         style="stop-color:#fff;stop-opacity:.64341"
         offset="0" />
      <stop
         id="stop2191"
         style="stop-color:#fff;stop-opacity:0"
         offset="1" />
    </linearGradient>
    <linearGradient
       id="linearGradient5060">
      <stop
         id="stop5062"
         offset="0" />
      <stop
         id="stop5064"
         style="stop-opacity:0"
         offset="1" />
    </linearGradient>
    <linearGradient
       id="linearGradient3104">
      <stop
         id="stop3106"
         style="stop-color:#aaa"
         offset="0" />
      <stop
         id="stop3108"
         style="stop-color:#c8c8c8"
         offset="1" />
    </linearGradient>
    <filter
       id="filter3248"
       y="-.16434"
       x="-.14846"
       height="1.3287"
       width="1.2969">
      <feGaussianBlur
         id="feGaussianBlur3250"
         stdDeviation="0.77391625" />
    </filter>
    <linearGradient
       id="linearGradient2432"
       y2="5.4565"
       gradientUnits="userSpaceOnUse"
       x2="36.358"
       gradientTransform="matrix(0.9977,0,0,1.0407,57.259676,-6.7147148)"
       y1="8.059"
       x1="32.892">
      <stop
         id="stop8591"
         style="stop-color:#fefefe"
         offset="0" />
      <stop
         id="stop8593"
         style="stop-color:#cbcbcb"
         offset="1" />
    </linearGradient>
    <linearGradient
       id="linearGradient2439"
       y2="3.3639"
       xlink:href="#linearGradient3104"
       gradientUnits="userSpaceOnUse"
       x2="22.004"
       gradientTransform="translate(55.113776,-8.6560148)"
       y1="47.813"
       x1="22.004" />
    <linearGradient
       id="linearGradient2442"
       y2="46.017"
       gradientUnits="userSpaceOnUse"
       x2="24"
       gradientTransform="matrix(1,0,0,0.97778,57.095876,-6.5755848)"
       y1="2"
       x1="24">
      <stop
         id="stop3213"
         style="stop-color:#fff"
         offset="0" />
      <stop
         id="stop3215"
         style="stop-color:#fff;stop-opacity:0"
         offset="1" />
    </linearGradient>
    <radialGradient
       id="radialGradient2445"
       gradientUnits="userSpaceOnUse"
       cy="112.3"
       cx="102"
       gradientTransform="matrix(0.3617,0,0,-0.39078,57.946936,41.908085)"
       r="139.56">
      <stop
         id="stop41"
         style="stop-color:#b7b8b9"
         offset="0" />
      <stop
         id="stop47"
         style="stop-color:#ececec"
         offset=".18851" />
      <stop
         id="stop49"
         style="stop-color:#fafafa;stop-opacity:0"
         offset=".25718" />
      <stop
         id="stop51"
         style="stop-color:#fff;stop-opacity:0"
         offset=".30111" />
      <stop
         id="stop53"
         style="stop-color:#fafafa;stop-opacity:0"
         offset=".53130" />
      <stop
         id="stop55"
         style="stop-color:#ebecec;stop-opacity:0"
         offset=".84490" />
      <stop
         id="stop57"
         style="stop-color:#e1e2e3;stop-opacity:0"
         offset="1" />
    </radialGradient>
    <linearGradient
       id="linearGradient2448"
       y2="47.013"
       gradientUnits="userSpaceOnUse"
       x2="25.132"
       gradientTransform="matrix(1,0,0,0.95617,57.095876,-7.5238148)"
       y1=".98521"
       x1="25.132">
      <stop
         id="stop3602"
         style="stop-color:#f4f4f4"
         offset="0" />
      <stop
         id="stop3604"
         style="stop-color:#dbdbdb"
         offset="1" />
    </linearGradient>
    <linearGradient
       id="linearGradient2450"
       y2="2.9062"
       xlink:href="#linearGradient3104"
       gradientUnits="userSpaceOnUse"
       x2="-51.786"
       gradientTransform="matrix(0.8075,0,0,0.89483,116.50588,-8.5895148)"
       y1="50.786"
       x1="-51.786" />
    <radialGradient
       id="radialGradient2453"
       xlink:href="#linearGradient5060"
       gradientUnits="userSpaceOnUse"
       cy="486.65"
       cx="605.71"
       gradientTransform="matrix(0.02304,0,0,0.0147,83.456876,31.431085)"
       r="117.14" />
    <radialGradient
       id="radialGradient2456"
       xlink:href="#linearGradient5060"
       gradientUnits="userSpaceOnUse"
       cy="486.65"
       cx="605.71"
       gradientTransform="matrix(-0.02304,0,0,0.0147,78.718876,31.431085)"
       r="117.14" />
    <linearGradient
       id="linearGradient2459"
       y2="609.51"
       gradientUnits="userSpaceOnUse"
       x2="302.86"
       gradientTransform="matrix(0.067325,0,0,0.0147,56.754736,31.431085)"
       y1="366.65"
       x1="302.86">
      <stop
         id="stop5050"
         style="stop-opacity:0"
         offset="0" />
      <stop
         id="stop5056"
         offset=".5" />
      <stop
         id="stop5052"
         style="stop-opacity:0"
         offset="1" />
    </linearGradient>
    <linearGradient
       inkscape:collect="always"
       xlink:href="#linearGradient5060"
       id="linearGradient3822"
       x1="25.555555"
       y1="13.571428"
       x2="33.555557"
       y2="5.8571424"
       gradientUnits="userSpaceOnUse"
       gradientTransform="matrix(1.125,0,0,1.1666667,-3.75,-1.8333333)" />
    <radialGradient
       inkscape:collect="always"
       xlink:href="#linearGradient3824"
       id="radialGradient3832"
       cx="24.000002"
       cy="24"
       fx="24.000002"
       fy="24"
       r="14.999999"
       gradientTransform="matrix(1.5333333,0.53333324,-0.61088738,1.7563015,1.8612975,-30.951234)"
       gradientUnits="userSpaceOnUse" />
  </defs>
  <path
     style="font-size:medium;font-style:normal;font-variant:normal;font-weight:normal;font-stretch:normal;text-indent:0;text-align:start;text-decoration:none;line-height:normal;letter-spacing:normal;word-spacing:normal;text-transform:none;direction:ltr;block-progression:tb;writing-mode:lr-tb;text-anchor:start;baseline-shift:baseline;opacity:1;color:#000000;fill:url(#radialGradient3832);fill-opacity:1;stroke:none;stroke-width:0.59999999999999998;marker:none;visibility:visible;display:inline;overflow:visible;enable-background:accumulate;font-family:Sans;-inkscape-font-specification:Sans;stroke-miterlimit:4;stroke-dasharray:none;stroke-opacity:1"
     d="M 10.352222,4.0020356 C 9.6156987,4.0787465 8.9960613,4.7660772 9.0000217,5.5019592 l 0,36.9981168 C 9.0001006,43.285413 9.7191392,43.999922 10.509455,44 l 26.981112,0 C 38.280883,43.999922 38.999921,43.285413 39,42.500076 L 39,9 32,4 10.509455,4.00204 c -0.05236,-0.00271 -0.104869,-0.00271 -0.157233,-4.4e-6 z"
     id="rect3039-8"
     inkscape:connector-curvature="0"
     sodipodi:nodetypes="cccccccccc" />
  <path
     style="fill:url(#linearGradient3822);fill-opacity:1;stroke:none"
     d="M 32,4 32,9 39,9 39,7.5 33.375,4 z"
     id="path3814"
     inkscape:connector-curvature="0"
     sodipodi:nodetypes="cccccc" />
  <g
     transform="matrix(0.68750003,0,0,0.68750003,7.4999992,-682.99905)"
     id="g3015"
     style="fill:#ce5c00">
    <path
       inkscape:connector-curvature="0"
       id="path3722-8"
       d="m 24.839078,1013.7693 c -0.527833,0 -1.064997,0.1946 -1.509624,0.5419 -0.446675,0.3475 -0.737149,0.8105 -0.774165,1.3549 -0.03702,0.5443 0.169304,1.0931 0.580624,1.4709 l 0,0.038 c 0.964711,0.8485 1.968917,1.7236 2.94183,2.5935 l -10.915738,0 c -0.775901,0 -1.433216,0.1805 -1.935414,0.5806 -0.5022,0.4001 -0.82233,0.9982 -0.928999,1.6645 -0.208806,1.3044 0.709489,2.787 2.206372,2.787 l 4.76112,0 -9.9480312,8.2062 c 10e-4,0 -0.0089,-0.021 -0.03871,0 -0.607968,0.5195 -1.037076,1.2391 -1.1999572,1.974 -0.1628795,0.7349 -0.08361,1.5121 0.3483752,2.129 0.878346,1.2536 2.6418492,1.2215 3.8708292,0.1165 l 5.225619,-4.7611 c 0.0084,0.5557 0.139451,1.4222 0.348374,2.1677 0.42898,1.5237 1.160506,2.9427 2.167665,4.1805 1.032666,1.2695 2.292497,2.2973 3.754704,3.0192 1.538402,0.7583 3.192391,1.1256 4.915953,1.1225 1.723474,0 3.378462,-0.3975 4.915952,-1.1613 1.460786,-0.7285 2.76143,-1.7463 3.793413,-3.0192 1.004507,-1.2423 1.700148,-2.6564 2.128956,-4.1805 0.217177,-0.7716 0.369423,-1.5746 0.425791,-2.3611 0.0542,-0.7736 0.02133,-1.5496 -0.07742,-2.3225 -0.191801,-1.5087 -0.636257,-2.9315 -1.35479,-4.2193 -0.56315,-1.01 -1.311407,-1.889 -2.128956,-2.6708 l 0.03871,-0.038 -0.425792,-0.3483 -9.677072,-8.2836 c 6.35e-4,5e-4 -0.03591,-0.035 -0.03871,-0.038 -0.0054,0 -0.0332,0 -0.03871,0 -0.419999,-0.3513 -0.911236,-0.5429 -1.432206,-0.5419 z m 3.754704,8.7094 c 5.002451,0 9.05774,4.0553 9.05774,9.0578 0,5.0025 -4.055289,9.0577 -9.05774,9.0577 -5.002452,0 -9.05774,-4.0552 -9.05774,-9.0577 0,-5.0025 4.055288,-9.0578 9.05774,-9.0578 z"
       style="font-size:xx-small;font-style:normal;font-variant:normal;font-weight:normal;font-stretch:normal;text-indent:0;text-align:start;text-decoration:none;line-height:normal;letter-spacing:normal;word-spacing:normal;text-transform:none;direction:ltr;block-progression:tb;writing-mode:lr-tb;text-anchor:start;color:#000000;fill:#ce5c00;fill-opacity:1;fill-rule:evenodd;stroke:none;stroke-width:2;marker:none;visibility:visible;display:inline;overflow:visible;enable-background:accumulate;font-family:Abandoned Bitplane;-inkscape-font-specification:Abandoned Bitplane" />
    <path
       transform="matrix(1.0082159,0,0,1.0082159,2.3395635,1005.8414)"
       d="m 28.625,25.5625 c 0,1.484265 -1.203235,2.6875 -2.6875,2.6875 -1.484265,0 -2.6875,-1.203235 -2.6875,-2.6875 0,-1.484265 1.203235,-2.6875 2.6875,-2.6875 1.484265,0 2.6875,1.203235 2.6875,2.6875 z"
       sodipodi:ry="2.6875"
       sodipodi:rx="2.6875"
       sodipodi:cy="25.5625"
       sodipodi:cx="25.9375"
       id="path852-9"
       style="fill:#ce5c00;fill-opacity:1;stroke:none"
       sodipodi:type="arc" />
  </g>
</svg>
