<?xml version="1.0" encoding="UTF-8" standalone="no"?>
<!-- Created with Inkscape (http://www.inkscape.org/) -->

<svg
   xmlns:dc="http://purl.org/dc/elements/1.1/"
   xmlns:cc="http://creativecommons.org/ns#"
   xmlns:rdf="http://www.w3.org/1999/02/22-rdf-syntax-ns#"
   xmlns:svg="http://www.w3.org/2000/svg"
   xmlns="http://www.w3.org/2000/svg"
   xmlns:sodipodi="http://sodipodi.sourceforge.net/DTD/sodipodi-0.dtd"
   xmlns:inkscape="http://www.inkscape.org/namespaces/inkscape"
   id="svg3396"
   height="48"
   width="48"
   version="1.0"
   inkscape:version="0.48.3.1 r9886"
   sodipodi:docname="application-archive-blank.svg">
  <metadata
     id="metadata64">
    <rdf:RDF>
      <cc:Work
         rdf:about="">
        <dc:format>image/svg+xml</dc:format>
        <dc:type
           rdf:resource="http://purl.org/dc/dcmitype/StillImage" />
        <dc:title></dc:title>
      </cc:Work>
    </rdf:RDF>
  </metadata>
  <sodipodi:namedview
     pagecolor="#ffffff"
     bordercolor="#666666"
     borderopacity="1"
     objecttolerance="10"
     gridtolerance="10"
     guidetolerance="10"
     inkscape:pageopacity="0"
     inkscape:pageshadow="2"
     inkscape:window-width="1280"
     inkscape:window-height="721"
     id="namedview62"
     showgrid="true"
     inkscape:zoom="5.9374525"
     inkscape:cx="19.579762"
     inkscape:cy="14.916353"
     inkscape:window-x="0"
     inkscape:window-y="22"
     inkscape:window-maximized="1"
     inkscape:current-layer="svg3396">
    <inkscape:grid
       type="xygrid"
       id="grid3906" />
  </sodipodi:namedview>
  <defs
     id="defs3398">
    <radialGradient
       id="radialGradient2661"
       gradientUnits="userSpaceOnUse"
       cy="35.127"
       cx="23.071"
       gradientTransform="matrix(1.0638,0.013724,-0.009553,0.23168,118.76592,36.591726)"
       r="10.319">
      <stop
         id="stop2093"
         offset="0" />
      <stop
         id="stop2095"
         style="stop-opacity:0"
         offset="1" />
    </radialGradient>
    <linearGradient
       id="linearGradient2658"
       y2="46.073"
       gradientUnits="userSpaceOnUse"
       x2="28.857"
       y1="26"
       x1="28.857"
       gradientTransform="translate(106.84292,-0.48127441)">
      <stop
         id="stop3499"
         style="stop-color:#699536"
         offset="0" />
      <stop
         id="stop3501"
         style="stop-color:#587d2d"
         offset="1" />
    </linearGradient>
    <linearGradient
       id="linearGradient2656"
       y2="32.485"
       gradientUnits="userSpaceOnUse"
       x2="24.104"
       gradientTransform="matrix(0.89889,0,0,0.89347,121.37892,14.952726)"
       y1="15.169"
       x1="24.104">
      <stop
         id="stop2266"
         style="stop-color:#d7e866"
         offset="0" />
      <stop
         id="stop2268"
         style="stop-color:#8cab2a"
         offset="1" />
    </linearGradient>
    <linearGradient
       id="linearGradient2653"
       y2="47.273"
       gradientUnits="userSpaceOnUse"
       x2="24.139"
       gradientTransform="matrix(0.53994,0,0,0.53668,129.99392,23.012726)"
       y1="6.5317"
       x1="24.139">
      <stop
         id="stop4224"
         style="stop-color:#fff"
         offset="0" />
      <stop
         id="stop4226"
         style="stop-color:#fff;stop-opacity:0"
         offset="1" />
    </linearGradient>
    <radialGradient
       id="radialGradient2455"
       gradientUnits="userSpaceOnUse"
       cy="5.0172"
       cx="3"
       gradientTransform="matrix(-1.2749e-8,1.7143,-2.1593,-1.46e-8,12.809,2.857)"
       r="21">
      <stop
         id="stop3486"
         style="stop-color:#bdbdbd"
         offset="0" />
      <stop
         id="stop3488"
         style="stop-color:#d0d0d0"
         offset="1" />
    </radialGradient>
    <linearGradient
       id="linearGradient2453"
       y2="16.19"
       gradientUnits="userSpaceOnUse"
       x2="62.989"
       gradientTransform="translate(-50.941,0)"
       y1="13.183"
       x1="62.989">
      <stop
         id="stop6406"
         style="stop-color:#f9f9f9"
         offset="0" />
      <stop
         id="stop6408"
         style="stop-color:#c9c9c9"
         offset="1" />
    </linearGradient>
    <radialGradient
       id="radialGradient7600-312"
       gradientUnits="userSpaceOnUse"
       cy="486.65"
       cx="605.71"
       gradientTransform="matrix(-0.03213,0,0,0.037059,23.363,25.412)"
       r="117.14">
      <stop
         id="stop2681"
         offset="0" />
      <stop
         id="stop2683"
         style="stop-opacity:0"
         offset="1" />
    </radialGradient>
    <radialGradient
       id="radialGradient7598-526"
       gradientUnits="userSpaceOnUse"
       cy="486.65"
       cx="605.71"
       gradientTransform="matrix(0.03213,0,0,0.037059,24.637,25.412)"
       r="117.14">
      <stop
         id="stop2675"
         offset="0" />
      <stop
         id="stop2677"
         style="stop-opacity:0"
         offset="1" />
    </radialGradient>
    <linearGradient
       id="linearGradient7596-975"
       y2="609.51"
       gradientUnits="userSpaceOnUse"
       x2="302.86"
       gradientTransform="matrix(0.08284,0,0,0.037059,-5.9408,25.412)"
       y1="366.65"
       x1="302.86">
      <stop
         id="stop2667"
         style="stop-opacity:0"
         offset="0" />
      <stop
         id="stop2669"
         offset=".5" />
      <stop
         id="stop2671"
         style="stop-opacity:0"
         offset="1" />
    </linearGradient>
    <linearGradient
       id="linearGradient2446"
       y2="15.944"
       gradientUnits="userSpaceOnUse"
       x2="65.34"
       gradientTransform="translate(-53.765,-0.11419)"
       y1="45.114"
       x1="82.453">
      <stop
         id="stop3624"
         style="stop-color:#bb2b12"
         offset="0" />
      <stop
         id="stop3626"
         style="stop-color:#cd7233"
         offset="1" />
    </linearGradient>
    <radialGradient
       id="radialGradient2444"
       gradientUnits="userSpaceOnUse"
       cy="14.113"
       cx="63.969"
       gradientTransform="matrix(1.5647,-9.5143e-8,6.1772e-8,1.0159,-86.213,8.1461)"
       r="23.097">
      <stop
         id="stop3618"
         style="stop-color:#f0c178"
         offset="0" />
      <stop
         id="stop3270"
         style="stop-color:#e18941"
         offset=".5" />
      <stop
         id="stop3620"
         style="stop-color:#ec4f18"
         offset="1" />
    </radialGradient>
    <linearGradient
       id="linearGradient2441"
       y2="36.658"
       gradientUnits="userSpaceOnUse"
       x2="22.809"
       gradientTransform="matrix(1.1447,0,0,0.99775,-3.4661,1.0988)"
       y1="49.629"
       x1="22.935">
      <stop
         id="stop2661"
         style="stop-color:#0a0a0a;stop-opacity:.498"
         offset="0" />
      <stop
         id="stop2663"
         style="stop-color:#0a0a0a;stop-opacity:0"
         offset="1" />
    </linearGradient>
    <radialGradient
       id="radialGradient2438"
       gradientUnits="userSpaceOnUse"
       cy="8.3021"
       cx="7.2647"
       gradientTransform="matrix(0,1.208,-1.6272,0,26.372,8.2665)"
       r="20.98">
      <stop
         id="stop2693"
         style="stop-color:#fff;stop-opacity:0.4"
         offset="0" />
      <stop
         id="stop2695"
         style="stop-color:#fff;stop-opacity:0"
         offset="1" />
    </radialGradient>
    <linearGradient
       id="linearGradient2435"
       y2="33.955"
       gradientUnits="userSpaceOnUse"
       x2="15.215"
       y1="22.292"
       x1="11.566">
      <stop
         id="stop2687"
         style="stop-color:#fff;stop-opacity:.27451"
         offset="0" />
      <stop
         id="stop2689"
         style="stop-color:#fff;stop-opacity:.078431"
         offset="1" />
    </linearGradient>
  </defs>
  <path
     style="opacity:0.8;fill:#000000;fill-opacity:1;stroke:none"
     d="M 9.25 25.03125 C 8.5507577 25.064709 8.0625 25.23245 8.0625 26 L 8.0625 42.15625 C 8.0625 43.17965 8.921416 44 10 44 L 38.09375 44 C 39.172334 44 40.0625 43.17965 40.0625 42.15625 L 40.0625 26 C 40.0625 24.9772 39.172334 25.03125 38.09375 25.03125 L 10 25.03125 C 9.730354 25.03125 9.4830808 25.0201 9.25 25.03125 z M 20 30.28125 C 20.416675 30.281256 20.776785 30.36744 21.09375 30.53125 C 21.410707 30.695078 21.705205 30.928681 21.96875 31.28125 L 21.96875 30.40625 L 23.90625 30.40625 L 23.90625 35.78125 C 23.906243 36.742816 23.577736 37.494285 22.96875 38 C 22.363315 38.509272 21.497625 38.749997 20.34375 38.75 C 19.969804 38.749997 19.59901 38.71324 19.25 38.65625 C 18.900985 38.59926 18.571323 38.523772 18.21875 38.40625 L 18.21875 36.90625 C 18.553516 37.098562 18.866975 37.251153 19.1875 37.34375 C 19.508019 37.43991 19.832164 37.499999 20.15625 37.5 C 20.783045 37.499999 21.239214 37.336723 21.53125 37.0625 C 21.823277 36.788276 21.968745 36.365313 21.96875 35.78125 L 21.96875 35.375 C 21.705205 35.724013 21.410707 35.992427 21.09375 36.15625 C 20.776785 36.320071 20.416675 36.40625 20 36.40625 C 19.269919 36.40625 18.66472 36.104629 18.1875 35.53125 C 17.710277 34.954312 17.468749 34.234092 17.46875 33.34375 C 17.468749 32.449854 17.710277 31.694823 18.1875 31.125 C 18.66472 30.551628 19.269919 30.281256 20 30.28125 z M 25.4375 30.40625 L 30.65625 30.40625 L 30.65625 31.75 L 27.53125 35.03125 L 30.65625 35.03125 L 30.65625 36.40625 L 25.3125 36.40625 L 25.3125 35.0625 L 28.46875 31.78125 L 25.4375 31.78125 L 25.4375 30.40625 z M 20.71875 31.65625 C 20.323436 31.656256 20.002051 31.801723 19.78125 32.09375 C 19.560443 32.385785 19.468748 32.80955 19.46875 33.34375 C 19.468748 33.892202 19.56756 34.308843 19.78125 34.59375 C 19.994928 34.875098 20.30919 35.000002 20.71875 35 C 21.117618 35.000002 21.404193 34.854533 21.625 34.5625 C 21.8458 34.270471 21.968745 33.874395 21.96875 33.34375 C 21.968745 32.80955 21.8458 32.385785 21.625 32.09375 C 21.404193 31.801723 21.117618 31.656256 20.71875 31.65625 z "
     id="rect3310" />
  <path
     style="opacity:0.8;fill:#000000;fill-opacity:1;stroke:none"
     d="m 13.053097,17.0242 -4,6 14,0 0,-9 -7,0 c -1,0 -3,3 -3,3 z m 12,-3 0,9 14,0 -4,-6 c 0,0 -2,-3 -3,-3 z"
     id="path4080"
     inkscape:connector-curvature="0"
     sodipodi:nodetypes="cccccccccccc" />
</svg>
