<?xml version="1.0" encoding="UTF-8" standalone="no"?>
<!-- Created with Inkscape (http://www.inkscape.org/) -->

<svg
   xmlns:dc="http://purl.org/dc/elements/1.1/"
   xmlns:cc="http://creativecommons.org/ns#"
   xmlns:rdf="http://www.w3.org/1999/02/22-rdf-syntax-ns#"
   xmlns:svg="http://www.w3.org/2000/svg"
   xmlns="http://www.w3.org/2000/svg"
   xmlns:sodipodi="http://sodipodi.sourceforge.net/DTD/sodipodi-0.dtd"
   xmlns:inkscape="http://www.inkscape.org/namespaces/inkscape"
   id="svg3396"
   height="48"
   width="48"
   version="1.0"
   inkscape:version="0.48.3.1 r9886"
   sodipodi:docname="application-7zip.svg">
  <metadata
     id="metadata64">
    <rdf:RDF>
      <cc:Work
         rdf:about="">
        <dc:format>image/svg+xml</dc:format>
        <dc:type
           rdf:resource="http://purl.org/dc/dcmitype/StillImage" />
        <dc:title></dc:title>
      </cc:Work>
    </rdf:RDF>
  </metadata>
  <sodipodi:namedview
     pagecolor="#ffffff"
     bordercolor="#666666"
     borderopacity="1"
     objecttolerance="10"
     gridtolerance="10"
     guidetolerance="10"
     inkscape:pageopacity="0"
     inkscape:pageshadow="2"
     inkscape:window-width="1280"
     inkscape:window-height="723"
     id="namedview62"
     showgrid="true"
     inkscape:zoom="11.874905"
     inkscape:cx="32.669328"
     inkscape:cy="29.316459"
     inkscape:window-x="0"
     inkscape:window-y="20"
     inkscape:window-maximized="1"
     inkscape:current-layer="svg3396">
    <inkscape:grid
       type="xygrid"
       id="grid3906" />
  </sodipodi:namedview>
  <defs
     id="defs3398">
    <radialGradient
       id="radialGradient2661"
       gradientUnits="userSpaceOnUse"
       cy="35.127"
       cx="23.071"
       gradientTransform="matrix(1.0638,0.013724,-0.009553,0.23168,118.76592,36.591726)"
       r="10.319">
      <stop
         id="stop2093"
         offset="0" />
      <stop
         id="stop2095"
         style="stop-opacity:0"
         offset="1" />
    </radialGradient>
    <linearGradient
       id="linearGradient2658"
       y2="46.073"
       gradientUnits="userSpaceOnUse"
       x2="28.857"
       y1="26"
       x1="28.857"
       gradientTransform="translate(106.84292,-0.48127441)">
      <stop
         id="stop3499"
         style="stop-color:#699536"
         offset="0" />
      <stop
         id="stop3501"
         style="stop-color:#587d2d"
         offset="1" />
    </linearGradient>
    <linearGradient
       id="linearGradient2656"
       y2="32.485"
       gradientUnits="userSpaceOnUse"
       x2="24.104"
       gradientTransform="matrix(0.89889,0,0,0.89347,121.37892,14.952726)"
       y1="15.169"
       x1="24.104">
      <stop
         id="stop2266"
         style="stop-color:#d7e866"
         offset="0" />
      <stop
         id="stop2268"
         style="stop-color:#8cab2a"
         offset="1" />
    </linearGradient>
    <linearGradient
       id="linearGradient2653"
       y2="47.273"
       gradientUnits="userSpaceOnUse"
       x2="24.139"
       gradientTransform="matrix(0.53994,0,0,0.53668,129.99392,23.012726)"
       y1="6.5317"
       x1="24.139">
      <stop
         id="stop4224"
         style="stop-color:#fff"
         offset="0" />
      <stop
         id="stop4226"
         style="stop-color:#fff;stop-opacity:0"
         offset="1" />
    </linearGradient>
    <radialGradient
       id="radialGradient2455"
       gradientUnits="userSpaceOnUse"
       cy="5.0172"
       cx="3"
       gradientTransform="matrix(-1.2749e-8,1.7143,-2.1593,-1.46e-8,12.809,2.857)"
       r="21">
      <stop
         id="stop3486"
         style="stop-color:#bdbdbd"
         offset="0" />
      <stop
         id="stop3488"
         style="stop-color:#d0d0d0"
         offset="1" />
    </radialGradient>
    <linearGradient
       id="linearGradient2453"
       y2="16.19"
       gradientUnits="userSpaceOnUse"
       x2="62.989"
       gradientTransform="translate(-50.941,0)"
       y1="13.183"
       x1="62.989">
      <stop
         id="stop6406"
         style="stop-color:#f9f9f9"
         offset="0" />
      <stop
         id="stop6408"
         style="stop-color:#c9c9c9"
         offset="1" />
    </linearGradient>
    <radialGradient
       id="radialGradient7600-312"
       gradientUnits="userSpaceOnUse"
       cy="486.65"
       cx="605.71"
       gradientTransform="matrix(-0.03213,0,0,0.037059,23.363,25.412)"
       r="117.14">
      <stop
         id="stop2681"
         offset="0" />
      <stop
         id="stop2683"
         style="stop-opacity:0"
         offset="1" />
    </radialGradient>
    <radialGradient
       id="radialGradient7598-526"
       gradientUnits="userSpaceOnUse"
       cy="486.65"
       cx="605.71"
       gradientTransform="matrix(0.03213,0,0,0.037059,24.637,25.412)"
       r="117.14">
      <stop
         id="stop2675"
         offset="0" />
      <stop
         id="stop2677"
         style="stop-opacity:0"
         offset="1" />
    </radialGradient>
    <linearGradient
       id="linearGradient7596-975"
       y2="609.51"
       gradientUnits="userSpaceOnUse"
       x2="302.86"
       gradientTransform="matrix(0.08284,0,0,0.037059,-5.9408,25.412)"
       y1="366.65"
       x1="302.86">
      <stop
         id="stop2667"
         style="stop-opacity:0"
         offset="0" />
      <stop
         id="stop2669"
         offset=".5" />
      <stop
         id="stop2671"
         style="stop-opacity:0"
         offset="1" />
    </linearGradient>
    <linearGradient
       id="linearGradient2446"
       y2="15.944"
       gradientUnits="userSpaceOnUse"
       x2="65.34"
       gradientTransform="translate(-53.765,-0.11419)"
       y1="45.114"
       x1="82.453">
      <stop
         id="stop3624"
         style="stop-color:#bb2b12"
         offset="0" />
      <stop
         id="stop3626"
         style="stop-color:#cd7233"
         offset="1" />
    </linearGradient>
    <radialGradient
       id="radialGradient2444"
       gradientUnits="userSpaceOnUse"
       cy="14.113"
       cx="63.969"
       gradientTransform="matrix(1.5647,-9.5143e-8,6.1772e-8,1.0159,-86.213,8.1461)"
       r="23.097">
      <stop
         id="stop3618"
         style="stop-color:#f0c178"
         offset="0" />
      <stop
         id="stop3270"
         style="stop-color:#e18941"
         offset=".5" />
      <stop
         id="stop3620"
         style="stop-color:#ec4f18"
         offset="1" />
    </radialGradient>
    <linearGradient
       id="linearGradient2441"
       y2="36.658"
       gradientUnits="userSpaceOnUse"
       x2="22.809"
       gradientTransform="matrix(1.1447,0,0,0.99775,-3.4661,1.0988)"
       y1="49.629"
       x1="22.935">
      <stop
         id="stop2661"
         style="stop-color:#0a0a0a;stop-opacity:.498"
         offset="0" />
      <stop
         id="stop2663"
         style="stop-color:#0a0a0a;stop-opacity:0"
         offset="1" />
    </linearGradient>
    <radialGradient
       id="radialGradient2438"
       gradientUnits="userSpaceOnUse"
       cy="8.3021"
       cx="7.2647"
       gradientTransform="matrix(0,1.208,-1.6272,0,26.372,8.2665)"
       r="20.98">
      <stop
         id="stop2693"
         style="stop-color:#fff;stop-opacity:0.4"
         offset="0" />
      <stop
         id="stop2695"
         style="stop-color:#fff;stop-opacity:0"
         offset="1" />
    </radialGradient>
    <linearGradient
       id="linearGradient2435"
       y2="33.955"
       gradientUnits="userSpaceOnUse"
       x2="15.215"
       y1="22.292"
       x1="11.566">
      <stop
         id="stop2687"
         style="stop-color:#fff;stop-opacity:.27451"
         offset="0" />
      <stop
         id="stop2689"
         style="stop-color:#fff;stop-opacity:.078431"
         offset="1" />
    </linearGradient>
  </defs>
  <path
     style="font-size:medium;font-style:normal;font-variant:normal;font-weight:normal;font-stretch:normal;text-indent:0;text-align:start;text-decoration:none;line-height:normal;letter-spacing:normal;word-spacing:normal;text-transform:none;direction:ltr;block-progression:tb;writing-mode:lr-tb;text-anchor:start;baseline-shift:baseline;opacity:0.8;color:#000000;fill:#000000;fill-opacity:1;fill-rule:nonzero;stroke:none;stroke-width:3.00000024;marker:none;visibility:visible;display:inline;overflow:visible;enable-background:accumulate;font-family:Sans;-inkscape-font-specification:Sans"
     d="M 5.1875 8 C 4.5111319 8.1439566 3.9849192 8.8086463 4 9.5 L 4 37.5 C 4.0000786 38.285377 4.7146233 38.999921 5.5 39 L 42.5 39 C 43.285377 38.999921 43.999921 38.285377 44 37.5 L 44 12.53125 C 43.999921 11.745873 43.285377 11.031329 42.5 11.03125 L 28 11.03125 L 28 9.5 C 27.999921 8.7146233 27.285377 8.0000786 26.5 8 L 5.5 8 C 5.3962117 7.9891307 5.2912883 7.9891307 5.1875 8 z M 9 11 L 12 11 L 12 14 L 15 14 L 15 17 L 12 17 L 12 20 L 15 20 L 15 23 L 12 23 L 12 26 L 15 26 L 15 29 L 12 29 L 12 32 L 15 32 L 15 35 L 12 35 L 12 32 L 9 32 L 9 29 L 12 29 L 12 26 L 9 26 L 9 23 L 12 23 L 12 20 L 9 20 L 9 17 L 12 17 L 12 14 L 9 14 L 9 11 z M 35.125 19.96875 L 36.96875 19.96875 L 36.96875 21.46875 L 35.125 21.46875 L 35.125 19.96875 z M 25.96875 22.09375 C 27.011596 22.093756 27.75755 22.274495 28.21875 22.6875 C 28.683381 23.097073 28.906244 23.761673 28.90625 24.6875 L 28.90625 28 L 27.0625 28 L 27.0625 27.15625 C 26.81469 27.507309 26.528504 27.744488 26.21875 27.90625 C 25.908989 28.064571 25.537733 28.15625 25.09375 28.15625 C 24.494883 28.15625 24.00015 27.972617 23.625 27.625 C 23.25329 27.273942 23.0625 26.807565 23.0625 26.25 C 23.0625 25.571977 23.285363 25.097894 23.75 24.78125 C 24.218077 24.464613 24.970639 24.312504 25.96875 24.3125 L 27.0625 24.3125 L 27.0625 24.15625 C 27.062496 23.863705 26.949343 23.634233 26.71875 23.5 C 26.488149 23.362334 26.113725 23.312505 25.625 23.3125 C 25.229196 23.312505 24.871982 23.35834 24.53125 23.4375 C 24.190515 23.51666 23.855047 23.622933 23.5625 23.78125 L 23.5625 22.375 C 23.9583 22.27864 24.350755 22.20444 24.75 22.15625 C 25.149241 22.10463 25.569503 22.09376 25.96875 22.09375 z M 33.875 22.09375 C 33.93695 22.093756 33.990218 22.08682 34.0625 22.09375 C 34.13477 22.09715 34.237325 22.1078 34.375 22.125 L 34.40625 23.78125 C 34.244482 23.70554 34.068007 23.659422 33.90625 23.625 C 33.747924 23.58714 33.599258 23.5625 33.4375 23.5625 C 32.962535 23.562504 32.570628 23.724938 32.3125 24.03125 C 32.057808 24.334128 31.937497 24.775864 31.9375 25.34375 L 31.9375 28 L 30.09375 28 L 30.09375 22.21875 L 31.9375 22.21875 L 31.9375 23.15625 C 32.174978 22.777662 32.443681 22.515843 32.75 22.34375 C 33.059754 22.168227 33.444777 22.093756 33.875 22.09375 z M 35.125 22.21875 L 36.96875 22.21875 L 36.96875 27.90625 C 36.968747 28.680644 36.777957 29.250122 36.40625 29.65625 C 36.034539 30.065816 35.486808 30.281247 34.78125 30.28125 L 33.875 30.28125 L 33.875 29.0625 L 34.1875 29.0625 C 34.538559 29.062499 34.775463 29.002071 34.90625 28.84375 C 35.037036 28.685429 35.124999 28.370887 35.125 27.90625 L 35.125 22.21875 z M 26.09375 25.40625 C 25.708271 25.406253 25.414927 25.46297 25.21875 25.59375 C 25.02601 25.724539 24.937498 25.932812 24.9375 26.1875 C 24.937498 26.42154 25.001372 26.584523 25.15625 26.71875 C 25.314568 26.849538 25.533715 26.906251 25.8125 26.90625 C 26.160113 26.906251 26.450015 26.810308 26.6875 26.5625 C 26.924976 26.311254 27.062496 26.000153 27.0625 25.625 L 27.0625 25.40625 L 26.09375 25.40625 z "
     id="path3912" />
</svg>
