<?xml version="1.0" encoding="UTF-8" standalone="no"?>
<!-- Created with Inkscape (http://www.inkscape.org/) -->

<svg
   xmlns:dc="http://purl.org/dc/elements/1.1/"
   xmlns:cc="http://creativecommons.org/ns#"
   xmlns:rdf="http://www.w3.org/1999/02/22-rdf-syntax-ns#"
   xmlns:svg="http://www.w3.org/2000/svg"
   xmlns="http://www.w3.org/2000/svg"
   xmlns:sodipodi="http://sodipodi.sourceforge.net/DTD/sodipodi-0.dtd"
   xmlns:inkscape="http://www.inkscape.org/namespaces/inkscape"
   id="svg3396"
   height="48"
   width="48"
   version="1.0"
   inkscape:version="0.48.3.1 r9886"
   sodipodi:docname="gnome-mime-application-x-lzma-compressed-tar.svg">
  <metadata
     id="metadata64">
    <rdf:RDF>
      <cc:Work
         rdf:about="">
        <dc:format>image/svg+xml</dc:format>
        <dc:type
           rdf:resource="http://purl.org/dc/dcmitype/StillImage" />
        <dc:title></dc:title>
      </cc:Work>
    </rdf:RDF>
  </metadata>
  <sodipodi:namedview
     pagecolor="#ffffff"
     bordercolor="#666666"
     borderopacity="1"
     objecttolerance="10"
     gridtolerance="10"
     guidetolerance="10"
     inkscape:pageopacity="0"
     inkscape:pageshadow="2"
     inkscape:window-width="1280"
     inkscape:window-height="723"
     id="namedview62"
     showgrid="true"
     inkscape:zoom="5.9374525"
     inkscape:cx="47.677553"
     inkscape:cy="13.021345"
     inkscape:window-x="0"
     inkscape:window-y="20"
     inkscape:window-maximized="1"
     inkscape:current-layer="svg3396">
    <inkscape:grid
       type="xygrid"
       id="grid3906" />
  </sodipodi:namedview>
  <defs
     id="defs3398">
    <radialGradient
       id="radialGradient2661"
       gradientUnits="userSpaceOnUse"
       cy="35.127"
       cx="23.071"
       gradientTransform="matrix(1.0638,0.013724,-0.009553,0.23168,118.76592,36.591726)"
       r="10.319">
      <stop
         id="stop2093"
         offset="0" />
      <stop
         id="stop2095"
         style="stop-opacity:0"
         offset="1" />
    </radialGradient>
    <linearGradient
       id="linearGradient2658"
       y2="46.073"
       gradientUnits="userSpaceOnUse"
       x2="28.857"
       y1="26"
       x1="28.857"
       gradientTransform="translate(106.84292,-0.48127441)">
      <stop
         id="stop3499"
         style="stop-color:#699536"
         offset="0" />
      <stop
         id="stop3501"
         style="stop-color:#587d2d"
         offset="1" />
    </linearGradient>
    <linearGradient
       id="linearGradient2656"
       y2="32.485"
       gradientUnits="userSpaceOnUse"
       x2="24.104"
       gradientTransform="matrix(0.89889,0,0,0.89347,121.37892,14.952726)"
       y1="15.169"
       x1="24.104">
      <stop
         id="stop2266"
         style="stop-color:#d7e866"
         offset="0" />
      <stop
         id="stop2268"
         style="stop-color:#8cab2a"
         offset="1" />
    </linearGradient>
    <linearGradient
       id="linearGradient2653"
       y2="47.273"
       gradientUnits="userSpaceOnUse"
       x2="24.139"
       gradientTransform="matrix(0.53994,0,0,0.53668,129.99392,23.012726)"
       y1="6.5317"
       x1="24.139">
      <stop
         id="stop4224"
         style="stop-color:#fff"
         offset="0" />
      <stop
         id="stop4226"
         style="stop-color:#fff;stop-opacity:0"
         offset="1" />
    </linearGradient>
    <radialGradient
       id="radialGradient2455"
       gradientUnits="userSpaceOnUse"
       cy="5.0172"
       cx="3"
       gradientTransform="matrix(-1.2749e-8,1.7143,-2.1593,-1.46e-8,12.809,2.857)"
       r="21">
      <stop
         id="stop3486"
         style="stop-color:#bdbdbd"
         offset="0" />
      <stop
         id="stop3488"
         style="stop-color:#d0d0d0"
         offset="1" />
    </radialGradient>
    <linearGradient
       id="linearGradient2453"
       y2="16.19"
       gradientUnits="userSpaceOnUse"
       x2="62.989"
       gradientTransform="translate(-50.941,0)"
       y1="13.183"
       x1="62.989">
      <stop
         id="stop6406"
         style="stop-color:#f9f9f9"
         offset="0" />
      <stop
         id="stop6408"
         style="stop-color:#c9c9c9"
         offset="1" />
    </linearGradient>
    <radialGradient
       id="radialGradient7600-312"
       gradientUnits="userSpaceOnUse"
       cy="486.65"
       cx="605.71"
       gradientTransform="matrix(-0.03213,0,0,0.037059,23.363,25.412)"
       r="117.14">
      <stop
         id="stop2681"
         offset="0" />
      <stop
         id="stop2683"
         style="stop-opacity:0"
         offset="1" />
    </radialGradient>
    <radialGradient
       id="radialGradient7598-526"
       gradientUnits="userSpaceOnUse"
       cy="486.65"
       cx="605.71"
       gradientTransform="matrix(0.03213,0,0,0.037059,24.637,25.412)"
       r="117.14">
      <stop
         id="stop2675"
         offset="0" />
      <stop
         id="stop2677"
         style="stop-opacity:0"
         offset="1" />
    </radialGradient>
    <linearGradient
       id="linearGradient7596-975"
       y2="609.51"
       gradientUnits="userSpaceOnUse"
       x2="302.86"
       gradientTransform="matrix(0.08284,0,0,0.037059,-5.9408,25.412)"
       y1="366.65"
       x1="302.86">
      <stop
         id="stop2667"
         style="stop-opacity:0"
         offset="0" />
      <stop
         id="stop2669"
         offset=".5" />
      <stop
         id="stop2671"
         style="stop-opacity:0"
         offset="1" />
    </linearGradient>
    <linearGradient
       id="linearGradient2446"
       y2="15.944"
       gradientUnits="userSpaceOnUse"
       x2="65.34"
       gradientTransform="translate(-53.765,-0.11419)"
       y1="45.114"
       x1="82.453">
      <stop
         id="stop3624"
         style="stop-color:#bb2b12"
         offset="0" />
      <stop
         id="stop3626"
         style="stop-color:#cd7233"
         offset="1" />
    </linearGradient>
    <radialGradient
       id="radialGradient2444"
       gradientUnits="userSpaceOnUse"
       cy="14.113"
       cx="63.969"
       gradientTransform="matrix(1.5647,-9.5143e-8,6.1772e-8,1.0159,-86.213,8.1461)"
       r="23.097">
      <stop
         id="stop3618"
         style="stop-color:#f0c178"
         offset="0" />
      <stop
         id="stop3270"
         style="stop-color:#e18941"
         offset=".5" />
      <stop
         id="stop3620"
         style="stop-color:#ec4f18"
         offset="1" />
    </radialGradient>
    <linearGradient
       id="linearGradient2441"
       y2="36.658"
       gradientUnits="userSpaceOnUse"
       x2="22.809"
       gradientTransform="matrix(1.1447,0,0,0.99775,-3.4661,1.0988)"
       y1="49.629"
       x1="22.935">
      <stop
         id="stop2661"
         style="stop-color:#0a0a0a;stop-opacity:.498"
         offset="0" />
      <stop
         id="stop2663"
         style="stop-color:#0a0a0a;stop-opacity:0"
         offset="1" />
    </linearGradient>
    <radialGradient
       id="radialGradient2438"
       gradientUnits="userSpaceOnUse"
       cy="8.3021"
       cx="7.2647"
       gradientTransform="matrix(0,1.208,-1.6272,0,26.372,8.2665)"
       r="20.98">
      <stop
         id="stop2693"
         style="stop-color:#fff;stop-opacity:0.4"
         offset="0" />
      <stop
         id="stop2695"
         style="stop-color:#fff;stop-opacity:0"
         offset="1" />
    </radialGradient>
    <linearGradient
       id="linearGradient2435"
       y2="33.955"
       gradientUnits="userSpaceOnUse"
       x2="15.215"
       y1="22.292"
       x1="11.566">
      <stop
         id="stop2687"
         style="stop-color:#fff;stop-opacity:.27451"
         offset="0" />
      <stop
         id="stop2689"
         style="stop-color:#fff;stop-opacity:.078431"
         offset="1" />
    </linearGradient>
  </defs>
  <path
     style="font-size:medium;font-style:normal;font-variant:normal;font-weight:normal;font-stretch:normal;text-indent:0;text-align:start;text-decoration:none;line-height:normal;letter-spacing:normal;word-spacing:normal;text-transform:none;direction:ltr;block-progression:tb;writing-mode:lr-tb;text-anchor:start;baseline-shift:baseline;opacity:0.8;color:#000000;fill:#000000;fill-opacity:1;fill-rule:nonzero;stroke:none;stroke-width:3.00000024;marker:none;visibility:visible;display:inline;overflow:visible;enable-background:accumulate;font-family:Sans;-inkscape-font-specification:Sans"
     d="M 5.1875 8 C 4.5111319 8.1439566 3.9849192 8.8086463 4 9.5 L 4 37.5 C 4.0000786 38.285377 4.7146233 38.999921 5.5 39 L 42.5 39 C 43.285377 38.999921 43.999921 38.285377 44 37.5 L 44 12.53125 C 43.999921 11.745873 43.285377 11.031329 42.5 11.03125 L 28 11.03125 L 28 9.5 C 27.999921 8.7146233 27.285377 8.0000786 26.5 8 L 5.5 8 C 5.3962117 7.9891307 5.2912883 7.9891307 5.1875 8 z M 9 11 L 12 11 L 12 14 L 15 14 L 15 17 L 12 17 L 12 20 L 15 20 L 15 23 L 12 23 L 12 26 L 15 26 L 15 29 L 12 29 L 12 32 L 15 32 L 15 35 L 12 35 L 12 32 L 9 32 L 9 29 L 12 29 L 12 26 L 9 26 L 9 23 L 12 23 L 12 20 L 9 20 L 9 17 L 12 17 L 12 14 L 9 14 L 9 11 z M 33.8125 19.96875 L 35.65625 19.96875 L 35.65625 23.0625 C 35.910937 22.725214 36.190239 22.470826 36.5 22.3125 C 36.809754 22.150743 37.159811 22.093756 37.5625 22.09375 C 38.274938 22.093756 38.854741 22.369616 39.3125 22.9375 C 39.770246 23.501952 39.999993 24.23359 40 25.125 C 39.999993 26.016416 39.770246 26.744612 39.3125 27.3125 C 38.854741 27.876948 38.274938 28.15625 37.5625 28.15625 C 37.159811 28.15625 36.809754 28.064571 36.5 27.90625 C 36.190239 27.744488 35.910937 27.493542 35.65625 27.15625 L 35.65625 28 L 33.8125 28 L 33.8125 19.96875 z M 23.28125 22.09375 C 23.584121 22.093756 23.894947 22.10119 24.1875 22.15625 C 24.483486 22.20788 24.769945 22.299562 25.0625 22.40625 L 25.0625 23.90625 C 24.811246 23.734166 24.535935 23.613857 24.28125 23.53125 C 24.029998 23.44865 23.771894 23.406255 23.5 23.40625 C 22.983733 23.406255 22.601604 23.540881 22.3125 23.84375 C 22.026832 24.143187 21.874997 24.584648 21.875 25.125 C 21.874997 25.665357 22.026832 26.072127 22.3125 26.375 C 22.601604 26.674433 22.983733 26.812502 23.5 26.8125 C 23.789103 26.812502 24.085614 26.773545 24.34375 26.6875 C 24.605318 26.60146 24.842222 26.481148 25.0625 26.3125 L 25.0625 27.84375 C 24.773387 27.950445 24.486928 28.010874 24.1875 28.0625 C 23.891505 28.11757 23.580679 28.15625 23.28125 28.15625 C 22.238397 28.15625 21.432287 27.877222 20.84375 27.34375 C 20.255209 26.806838 19.9375 26.078367 19.9375 25.125 C 19.9375 24.171638 20.255209 23.408476 20.84375 22.875 C 21.432287 22.338093 22.238397 22.093756 23.28125 22.09375 z M 29.125 22.09375 C 30.167846 22.093756 30.9138 22.274495 31.375 22.6875 C 31.83963 23.097073 32.062494 23.761673 32.0625 24.6875 L 32.0625 28 L 30.21875 28 L 30.21875 27.15625 C 29.970939 27.507309 29.684754 27.744488 29.375 27.90625 C 29.065239 28.064571 28.693983 28.15625 28.25 28.15625 C 27.651133 28.15625 27.1564 27.972617 26.78125 27.625 C 26.40954 27.273942 26.21875 26.807565 26.21875 26.25 C 26.21875 25.571977 26.472863 25.097894 26.9375 24.78125 C 27.405577 24.464613 28.126889 24.312504 29.125 24.3125 L 30.21875 24.3125 L 30.21875 24.15625 C 30.218745 23.863705 30.105593 23.634233 29.875 23.5 C 29.644399 23.362334 29.269975 23.312505 28.78125 23.3125 C 28.385446 23.312505 28.028231 23.35834 27.6875 23.4375 C 27.346765 23.51666 27.011298 23.622933 26.71875 23.78125 L 26.71875 22.375 C 27.11455 22.27864 27.538255 22.20444 27.9375 22.15625 C 28.336741 22.10463 28.725754 22.09376 29.125 22.09375 z M 36.875 23.40625 C 36.479195 23.406254 36.182135 23.582456 35.96875 23.875 C 35.7588 24.164111 35.656248 24.577765 35.65625 25.125 C 35.656248 25.672241 35.7588 26.082453 35.96875 26.375 C 36.182135 26.664109 36.479195 26.812501 36.875 26.8125 C 37.270797 26.812501 37.57474 26.664109 37.78125 26.375 C 37.991192 26.085895 38.093745 25.675682 38.09375 25.125 C 38.093745 24.574323 37.991192 24.132861 37.78125 23.84375 C 37.57474 23.554648 37.270797 23.406254 36.875 23.40625 z M 29.25 25.40625 C 28.86452 25.406253 28.571178 25.46297 28.375 25.59375 C 28.18226 25.724539 28.093748 25.932812 28.09375 26.1875 C 28.093748 26.42154 28.157621 26.584523 28.3125 26.71875 C 28.470817 26.849538 28.689965 26.906251 28.96875 26.90625 C 29.316364 26.906251 29.606265 26.810308 29.84375 26.5625 C 30.081227 26.311254 30.218745 26.000153 30.21875 25.625 L 30.21875 25.40625 L 29.25 25.40625 z "
     id="path3912" />
</svg>
