<?xml version="1.0" encoding="UTF-8" standalone="no"?>
<!-- Created with Inkscape (http://www.inkscape.org/) -->

<svg
   xmlns:dc="http://purl.org/dc/elements/1.1/"
   xmlns:cc="http://creativecommons.org/ns#"
   xmlns:rdf="http://www.w3.org/1999/02/22-rdf-syntax-ns#"
   xmlns:svg="http://www.w3.org/2000/svg"
   xmlns="http://www.w3.org/2000/svg"
   xmlns:xlink="http://www.w3.org/1999/xlink"
   xmlns:sodipodi="http://sodipodi.sourceforge.net/DTD/sodipodi-0.dtd"
   xmlns:inkscape="http://www.inkscape.org/namespaces/inkscape"
   id="svg3508"
   height="48"
   width="48"
   version="1.0"
   inkscape:version="0.48.4 r9939"
   sodipodi:docname="application-x-class-file.svg">
  <metadata
     id="metadata62">
    <rdf:RDF>
      <cc:Work
         rdf:about="">
        <dc:format>image/svg+xml</dc:format>
        <dc:type
           rdf:resource="http://purl.org/dc/dcmitype/StillImage" />
        <dc:title></dc:title>
      </cc:Work>
    </rdf:RDF>
  </metadata>
  <sodipodi:namedview
     pagecolor="#ffffff"
     bordercolor="#666666"
     borderopacity="1"
     objecttolerance="10"
     gridtolerance="10"
     guidetolerance="10"
     inkscape:pageopacity="0"
     inkscape:pageshadow="2"
     inkscape:window-width="1280"
     inkscape:window-height="709"
     id="namedview60"
     showgrid="true"
     inkscape:zoom="2.8284272"
     inkscape:cx="-12.357651"
     inkscape:cy="19.657906"
     inkscape:window-x="0"
     inkscape:window-y="27"
     inkscape:window-maximized="1"
     inkscape:current-layer="svg3508">
    <inkscape:grid
       type="xygrid"
       id="grid3816" />
  </sodipodi:namedview>
  <defs
     id="defs3510">
    <linearGradient
       id="linearGradient3824">
      <stop
         style="stop-color:#e4e6e2;stop-opacity:1;"
         offset="0"
         id="stop3826" />
      <stop
         id="stop3834"
         offset="0.5"
         style="stop-color:#d7dad3;stop-opacity:1;" />
      <stop
         style="stop-color:#b7beb1;stop-opacity:1;"
         offset="1"
         id="stop3828" />
    </linearGradient>
    <linearGradient
       id="linearGradient3156"
       y2="36"
       gradientUnits="userSpaceOnUse"
       x2="-.097514"
       gradientTransform="matrix(0.72415,0,0,0.73599,74.074876,5.5950852)"
       y1="36"
       x1="36.5">
      <stop
         id="stop3916"
         style="stop-color:#c02cbb"
         offset="0" />
      <stop
         id="stop3918"
         style="stop-color:#b329ae;stop-opacity:.49804"
         offset=".79722" />
      <stop
         id="stop3920"
         style="stop-color:#982394;stop-opacity:0"
         offset="1" />
    </linearGradient>
    <linearGradient
       id="linearGradient3154"
       y2="15.5"
       gradientUnits="userSpaceOnUse"
       x2="-.073089"
       gradientTransform="matrix(0.72415,0,0,0.73599,74.074876,5.5950852)"
       y1="15.5"
       x1="23.997">
      <stop
         id="stop3700"
         style="stop-color:#ce7ecc"
         offset="0" />
      <stop
         id="stop3702"
         style="stop-color:#c056bc;stop-opacity:.81569"
         offset=".76279" />
      <stop
         id="stop3704"
         style="stop-color:#f8c9f7;stop-opacity:0"
         offset="1" />
    </linearGradient>
    <linearGradient
       id="linearGradient3151"
       y2="-.43754"
       gradientUnits="userSpaceOnUse"
       x2="20.484"
       gradientTransform="matrix(0,-0.86253,0.84866,0,75.365876,45.413085)"
       y1="12.82"
       x1="20.484">
      <stop
         id="stop2189"
         style="stop-color:#fff;stop-opacity:.64341"
         offset="0" />
      <stop
         id="stop2191"
         style="stop-color:#fff;stop-opacity:0"
         offset="1" />
    </linearGradient>
    <linearGradient
       id="linearGradient5060">
      <stop
         id="stop5062"
         offset="0" />
      <stop
         id="stop5064"
         style="stop-opacity:0"
         offset="1" />
    </linearGradient>
    <linearGradient
       id="linearGradient3104">
      <stop
         id="stop3106"
         style="stop-color:#aaa"
         offset="0" />
      <stop
         id="stop3108"
         style="stop-color:#c8c8c8"
         offset="1" />
    </linearGradient>
    <filter
       id="filter3248"
       y="-.16434"
       x="-.14846"
       height="1.3287"
       width="1.2969">
      <feGaussianBlur
         id="feGaussianBlur3250"
         stdDeviation="0.77391625" />
    </filter>
    <linearGradient
       id="linearGradient2432"
       y2="5.4565"
       gradientUnits="userSpaceOnUse"
       x2="36.358"
       gradientTransform="matrix(0.9977,0,0,1.0407,57.259676,-6.7147148)"
       y1="8.059"
       x1="32.892">
      <stop
         id="stop8591"
         style="stop-color:#fefefe"
         offset="0" />
      <stop
         id="stop8593"
         style="stop-color:#cbcbcb"
         offset="1" />
    </linearGradient>
    <linearGradient
       id="linearGradient2439"
       y2="3.3639"
       xlink:href="#linearGradient3104"
       gradientUnits="userSpaceOnUse"
       x2="22.004"
       gradientTransform="translate(55.113776,-8.6560148)"
       y1="47.813"
       x1="22.004" />
    <linearGradient
       id="linearGradient2442"
       y2="46.017"
       gradientUnits="userSpaceOnUse"
       x2="24"
       gradientTransform="matrix(1,0,0,0.97778,57.095876,-6.5755848)"
       y1="2"
       x1="24">
      <stop
         id="stop3213"
         style="stop-color:#fff"
         offset="0" />
      <stop
         id="stop3215"
         style="stop-color:#fff;stop-opacity:0"
         offset="1" />
    </linearGradient>
    <radialGradient
       id="radialGradient2445"
       gradientUnits="userSpaceOnUse"
       cy="112.3"
       cx="102"
       gradientTransform="matrix(0.3617,0,0,-0.39078,57.946936,41.908085)"
       r="139.56">
      <stop
         id="stop41"
         style="stop-color:#b7b8b9"
         offset="0" />
      <stop
         id="stop47"
         style="stop-color:#ececec"
         offset=".18851" />
      <stop
         id="stop49"
         style="stop-color:#fafafa;stop-opacity:0"
         offset=".25718" />
      <stop
         id="stop51"
         style="stop-color:#fff;stop-opacity:0"
         offset=".30111" />
      <stop
         id="stop53"
         style="stop-color:#fafafa;stop-opacity:0"
         offset=".53130" />
      <stop
         id="stop55"
         style="stop-color:#ebecec;stop-opacity:0"
         offset=".84490" />
      <stop
         id="stop57"
         style="stop-color:#e1e2e3;stop-opacity:0"
         offset="1" />
    </radialGradient>
    <linearGradient
       id="linearGradient2448"
       y2="47.013"
       gradientUnits="userSpaceOnUse"
       x2="25.132"
       gradientTransform="matrix(1,0,0,0.95617,57.095876,-7.5238148)"
       y1=".98521"
       x1="25.132">
      <stop
         id="stop3602"
         style="stop-color:#f4f4f4"
         offset="0" />
      <stop
         id="stop3604"
         style="stop-color:#dbdbdb"
         offset="1" />
    </linearGradient>
    <linearGradient
       id="linearGradient2450"
       y2="2.9062"
       xlink:href="#linearGradient3104"
       gradientUnits="userSpaceOnUse"
       x2="-51.786"
       gradientTransform="matrix(0.8075,0,0,0.89483,116.50588,-8.5895148)"
       y1="50.786"
       x1="-51.786" />
    <radialGradient
       id="radialGradient2453"
       xlink:href="#linearGradient5060"
       gradientUnits="userSpaceOnUse"
       cy="486.65"
       cx="605.71"
       gradientTransform="matrix(0.02304,0,0,0.0147,83.456876,31.431085)"
       r="117.14" />
    <radialGradient
       id="radialGradient2456"
       xlink:href="#linearGradient5060"
       gradientUnits="userSpaceOnUse"
       cy="486.65"
       cx="605.71"
       gradientTransform="matrix(-0.02304,0,0,0.0147,78.718876,31.431085)"
       r="117.14" />
    <linearGradient
       id="linearGradient2459"
       y2="609.51"
       gradientUnits="userSpaceOnUse"
       x2="302.86"
       gradientTransform="matrix(0.067325,0,0,0.0147,56.754736,31.431085)"
       y1="366.65"
       x1="302.86">
      <stop
         id="stop5050"
         style="stop-opacity:0"
         offset="0" />
      <stop
         id="stop5056"
         offset=".5" />
      <stop
         id="stop5052"
         style="stop-opacity:0"
         offset="1" />
    </linearGradient>
    <linearGradient
       inkscape:collect="always"
       xlink:href="#linearGradient5060"
       id="linearGradient3822"
       x1="25.555555"
       y1="13.571428"
       x2="33.555557"
       y2="5.8571424"
       gradientUnits="userSpaceOnUse"
       gradientTransform="matrix(1.125,0,0,1.1666667,-3.75,-1.8333333)" />
    <radialGradient
       inkscape:collect="always"
       xlink:href="#linearGradient3824"
       id="radialGradient3832"
       cx="24.000002"
       cy="24"
       fx="24.000002"
       fy="24"
       r="14.999999"
       gradientTransform="matrix(1.5333333,0.53333324,-0.61088738,1.7563015,1.8612975,-30.951234)"
       gradientUnits="userSpaceOnUse" />
    <filter
       color-interpolation-filters="sRGB"
       inkscape:collect="always"
       id="filter7743">
      <feGaussianBlur
         inkscape:collect="always"
         stdDeviation="0.29512732"
         id="feGaussianBlur7745" />
    </filter>
  </defs>
  <path
     style="font-size:medium;font-style:normal;font-variant:normal;font-weight:normal;font-stretch:normal;text-indent:0;text-align:start;text-decoration:none;line-height:normal;letter-spacing:normal;word-spacing:normal;text-transform:none;direction:ltr;block-progression:tb;writing-mode:lr-tb;text-anchor:start;baseline-shift:baseline;opacity:1;color:#000000;fill:url(#radialGradient3832);fill-opacity:1;stroke:none;stroke-width:0.59999999999999998;marker:none;visibility:visible;display:inline;overflow:visible;enable-background:accumulate;font-family:Sans;-inkscape-font-specification:Sans;stroke-miterlimit:4;stroke-dasharray:none;stroke-opacity:1"
     d="M 10.352222,4.0020356 C 9.6156987,4.0787465 8.9960613,4.7660772 9.0000217,5.5019592 l 0,36.9981168 C 9.0001006,43.285413 9.7191392,43.999922 10.509455,44 l 26.981112,0 C 38.280883,43.999922 38.999921,43.285413 39,42.500076 L 39,9 32,4 10.509455,4.00204 c -0.05236,-0.00271 -0.104869,-0.00271 -0.157233,-4.4e-6 z"
     id="rect3039-8"
     inkscape:connector-curvature="0"
     sodipodi:nodetypes="cccccccccc" />
  <path
     style="fill:url(#linearGradient3822);fill-opacity:1;stroke:none"
     d="M 32,4 32,9 39,9 39,7.5 33.375,4 z"
     id="path3814"
     inkscape:connector-curvature="0"
     sodipodi:nodetypes="cccccc" />
  <path
     style="fill:#3465a4;fill-opacity:1;fill-rule:evenodd;stroke:none"
     d="m 19.493461,14.870865 c -0.207356,2.4e-5 -0.420301,0.01779 -0.633234,0.04222 -1.064665,0.122138 -2.191089,0.544911 -3.208387,1.224252 -0.410985,0.274453 -0.793345,0.594559 -1.160929,0.949852 -0.178337,0.172373 -0.363162,0.337309 -0.527696,0.527695 -0.0034,0.0039 0.0034,0.01723 0,0.02111 -0.163879,0.19041 -0.316627,0.383341 -0.464371,0.591018 -0.0058,0.008 -0.01537,0.01305 -0.02111,0.02111 -0.302499,0.424587 -0.560865,0.879417 -0.780989,1.372008 -0.194934,0.436221 -0.348809,0.90773 -0.464372,1.393115 -0.01345,0.05715 -0.02997,0.111059 -0.04222,0.168863 -0.0014,0.0067 0.0014,0.01443 0,0.02111 -0.0071,0.03414 -0.01439,0.07117 -0.02111,0.105539 -0.103734,0.523621 -0.173136,1.073109 -0.168863,1.64641 0.0022,0.296028 0.02835,0.564703 0.04222,0.844312 0.02736,0.551796 0.08048,1.088098 0.147755,1.583085 9.05e-4,0.0067 -9.12e-4,0.01446 0,0.02111 0.102004,0.744087 0.250633,1.426026 0.422156,2.068565 0.0017,0.0063 -0.0017,0.0148 0,0.02111 0.114835,0.424873 0.243849,0.831885 0.37994,1.224253 0.0021,0.0062 -0.0021,0.01493 0,0.02111 0.273439,0.790443 0.59232,1.521417 0.907636,2.237428 0.0025,0.0057 -0.0025,0.01538 0,0.02111 0.317936,0.721453 0.629227,1.406848 0.928744,2.131889 l 0.02111,0 3.525004,-1.477547 c -0.206103,-0.422223 -0.434346,-0.824035 -0.65434,-1.224272 -0.118823,-0.219035 -0.220843,-0.424086 -0.337725,-0.633235 -0.281843,-0.504331 -0.555619,-0.96666 -0.780989,-1.372007 l 0,-0.04222 C 16.40983,28.034244 16.24298,27.725084 16.13732,27.49333 c -0.263456,-0.577928 -0.492532,-1.070171 -0.67545,-1.519762 -0.271204,-0.666585 -0.459058,-1.238734 -0.569911,-1.794164 -0.0013,-0.0068 0.0013,-0.01432 0,-0.02111 -0.03679,-0.18728 -0.06433,-0.358367 -0.08443,-0.548803 -0.04019,-0.380874 -0.0431,-0.783761 -0.02111,-1.224253 0.02127,-0.425871 0.0644,-0.80928 0.147755,-1.16093 0.04168,-0.175825 0.09089,-0.345503 0.147754,-0.506587 0.284341,-0.805425 0.766898,-1.4409 1.414223,-2.068565 0.515473,-0.496635 1.122555,-0.875205 1.815272,-1.097606 0.132005,-0.04238 0.263078,-0.07448 0.401048,-0.105539 0.232991,-0.05245 0.468244,-0.108145 0.717666,-0.126647 0.383659,-0.02846 0.782794,-0.01596 1.203145,0.04221 0.007,9.51e-4 0.01405,-9.76e-4 0.02111,0 0.427666,0.06044 0.82087,0.157324 1.182037,0.274402 0.0144,0.0047 0.02792,0.01636 0.04222,0.02111 0.189397,0.06289 0.376929,0.135104 0.548803,0.211078 0.13893,0.06138 0.273195,0.121064 0.401049,0.18997 0.0277,0.01498 0.05724,0.02691 0.08443,0.04222 0.118718,0.06669 0.228513,0.138677 0.337725,0.211078 0.03367,0.02235 0.07276,0.04048 0.105539,0.06332 0.09695,0.06762 0.185021,0.139572 0.274402,0.211078 0.04137,0.03296 0.08686,0.07184 0.126646,0.105539 0.12335,0.1045 0.229203,0.206181 0.337725,0.316617 0.06373,0.06474 0.131088,0.12371 0.189971,0.189971 0.30366,0.342532 0.534045,0.700903 0.717665,1.05539 0.0074,0.01427 0.0139,0.02797 0.02111,0.04222 0.08482,0.171528 0.14666,0.341344 0.211078,0.506587 -3.058422,0.352856 -4.164752,2.533933 -4.411532,4.601502 -1.173325,-0.412352 -1.841758,-1.372057 -1.941918,-2.765123 -0.09611,-1.33739 1.197964,-2.687317 3.292818,-2.005241 0.337171,0.10972 0.360001,-0.49497 -0.02111,-0.802097 -0.981131,-0.790668 -4.867967,-0.488404 -4.854796,2.617368 0.01029,2.432729 1.649841,4.192111 3.503896,4.685934 0.327342,2.76918 3.777834,5.995278 7.70435,5.994617 3.317682,-1.82e-4 7.529746,-3.169636 7.493272,-8.063183 -0.03531,-4.736551 -1.630367,-7.273602 -2.828446,-10.173963 l -3.546117,1.477551 c 0.814235,1.668166 1.882121,3.332353 2.258536,4.158239 1.053823,2.31172 1.438883,3.346023 1.350899,5.108089 -0.08507,1.703201 -0.673991,2.731722 -1.709732,3.736082 -1.035728,1.004178 -2.447344,1.52445 -4.158238,1.287576 -2.749299,-0.380601 -4.079835,-2.0671 -4.601503,-3.440572 0.904861,-0.104427 1.64563,-0.362851 2.237428,-0.738774 0.173447,-0.110177 0.335801,-0.230996 0.48548,-0.358832 0.04916,-0.04214 0.101113,-0.08278 0.147754,-0.126647 0.10121,-0.09464 0.184377,-0.193469 0.274402,-0.295509 0.09164,-0.103876 0.172708,-0.206036 0.253294,-0.316618 0.03273,-0.04491 0.07457,-0.08074 0.105539,-0.126646 0.02345,-0.03485 0.04087,-0.07015 0.06332,-0.105539 0.07664,-0.120358 0.145576,-0.254065 0.211078,-0.379941 0.08817,-0.169429 0.162882,-0.350658 0.232186,-0.527695 0.01134,-0.02934 0.03136,-0.05493 0.04222,-0.08443 0.05535,-0.148487 0.104386,-0.291548 0.147754,-0.443264 0.006,-0.02127 0.01531,-0.042 0.02111,-0.06332 0.04365,-0.159048 0.07389,-0.324928 0.105539,-0.485479 0.03617,-0.183432 0.08362,-0.365957 0.105539,-0.548803 1.162001,0.415815 1.821176,1.379302 1.920811,2.765122 0.09611,1.337303 -1.197971,2.687406 -3.292818,2.005242 -0.337185,-0.109625 -0.359995,0.49497 0.02111,0.802097 0.981132,0.790756 4.867968,0.48831 4.854796,-2.617368 -0.01025,-2.422752 -1.637933,-4.162774 -3.482788,-4.664826 -0.0093,-0.08272 -0.02735,-0.169808 -0.04222,-0.253294 -0.0062,-0.03501 -0.01392,-0.07042 -0.02111,-0.105539 -0.01178,-0.05689 -0.02796,-0.111738 -0.04222,-0.168862 -0.02975,-0.120347 -0.06511,-0.237858 -0.105539,-0.358833 -0.06154,-0.184113 -0.126012,-0.364934 -0.211078,-0.548803 -0.02153,-0.04637 -0.04036,-0.101483 -0.06332,-0.147755 -0.06722,-0.135316 -0.15308,-0.267134 -0.232186,-0.401048 -0.102772,-0.173978 -0.21604,-0.357682 -0.337724,-0.527695 -0.02933,-0.04088 -0.05405,-0.08607 -0.08443,-0.126647 -0.09944,-0.13319 -0.206321,-0.250493 -0.316617,-0.37994 -0.02874,-0.03366 -0.05499,-0.07217 -0.08443,-0.10554 -0.115199,-0.13059 -0.254339,-0.254408 -0.379941,-0.37994 -0.160755,-0.160667 -0.330051,-0.31374 -0.506587,-0.464372 -0.02964,-0.02523 -0.05437,-0.05952 -0.08443,-0.08443 -0.151973,-0.126161 -0.302157,-0.241446 -0.464372,-0.358833 -0.191194,-0.138357 -0.386904,-0.276693 -0.591019,-0.401048 -0.02145,-0.01309 -0.04174,-0.02929 -0.06332,-0.04222 -0.588959,-0.351996 -1.228231,-0.640346 -1.899703,-0.844312 -0.01454,-0.0044 -0.02764,-0.01678 -0.04221,-0.02111 -0.458636,-0.136401 -0.930631,-0.225311 -1.414224,-0.274401 -0.241796,-0.02455 -0.492717,-0.04224 -0.738773,-0.04222 z m 6.015725,7.535487 c -8.42e-4,0.0081 9.07e-4,0.01298 0,0.02111 -0.01334,0.109265 -0.03796,0.218699 -0.06332,0.337725 -0.01655,0.08411 -0.04032,0.165598 -0.06332,0.253294 -0.01332,0.04854 -0.02685,0.09847 -0.04222,0.147755 -0.03825,0.12761 -0.07384,0.250025 -0.126647,0.37994 -0.02744,0.06623 -0.07418,0.123843 -0.105539,0.18997 -0.424831,0.905324 -1.224583,1.767606 -2.59626,1.878595 0.119894,-1.161245 0.900908,-3.050904 2.997308,-3.208387 z"
     id="path3607"
     inkscape:connector-curvature="0" />
</svg>
