<?xml version="1.0" encoding="UTF-8" standalone="no"?>
<!-- Created with Inkscape (http://www.inkscape.org/) -->

<svg
   xmlns:dc="http://purl.org/dc/elements/1.1/"
   xmlns:cc="http://creativecommons.org/ns#"
   xmlns:rdf="http://www.w3.org/1999/02/22-rdf-syntax-ns#"
   xmlns:svg="http://www.w3.org/2000/svg"
   xmlns="http://www.w3.org/2000/svg"
   xmlns:sodipodi="http://sodipodi.sourceforge.net/DTD/sodipodi-0.dtd"
   xmlns:inkscape="http://www.inkscape.org/namespaces/inkscape"
   id="svg3396"
   height="48"
   width="48"
   version="1.0"
   inkscape:version="0.48.3.1 r9886"
   sodipodi:docname="application-x-gzip.svg">
  <metadata
     id="metadata64">
    <rdf:RDF>
      <cc:Work
         rdf:about="">
        <dc:format>image/svg+xml</dc:format>
        <dc:type
           rdf:resource="http://purl.org/dc/dcmitype/StillImage" />
        <dc:title></dc:title>
      </cc:Work>
    </rdf:RDF>
  </metadata>
  <sodipodi:namedview
     pagecolor="#ffffff"
     bordercolor="#666666"
     borderopacity="1"
     objecttolerance="10"
     gridtolerance="10"
     guidetolerance="10"
     inkscape:pageopacity="0"
     inkscape:pageshadow="2"
     inkscape:window-width="1280"
     inkscape:window-height="723"
     id="namedview62"
     showgrid="true"
     inkscape:zoom="16.793652"
     inkscape:cx="44.540466"
     inkscape:cy="20.829443"
     inkscape:window-x="0"
     inkscape:window-y="20"
     inkscape:window-maximized="1"
     inkscape:current-layer="svg3396">
    <inkscape:grid
       type="xygrid"
       id="grid3906" />
  </sodipodi:namedview>
  <defs
     id="defs3398">
    <radialGradient
       id="radialGradient2661"
       gradientUnits="userSpaceOnUse"
       cy="35.127"
       cx="23.071"
       gradientTransform="matrix(1.0638,0.013724,-0.009553,0.23168,118.76592,36.591726)"
       r="10.319">
      <stop
         id="stop2093"
         offset="0" />
      <stop
         id="stop2095"
         style="stop-opacity:0"
         offset="1" />
    </radialGradient>
    <linearGradient
       id="linearGradient2658"
       y2="46.073"
       gradientUnits="userSpaceOnUse"
       x2="28.857"
       y1="26"
       x1="28.857"
       gradientTransform="translate(106.84292,-0.48127441)">
      <stop
         id="stop3499"
         style="stop-color:#699536"
         offset="0" />
      <stop
         id="stop3501"
         style="stop-color:#587d2d"
         offset="1" />
    </linearGradient>
    <linearGradient
       id="linearGradient2656"
       y2="32.485"
       gradientUnits="userSpaceOnUse"
       x2="24.104"
       gradientTransform="matrix(0.89889,0,0,0.89347,121.37892,14.952726)"
       y1="15.169"
       x1="24.104">
      <stop
         id="stop2266"
         style="stop-color:#d7e866"
         offset="0" />
      <stop
         id="stop2268"
         style="stop-color:#8cab2a"
         offset="1" />
    </linearGradient>
    <linearGradient
       id="linearGradient2653"
       y2="47.273"
       gradientUnits="userSpaceOnUse"
       x2="24.139"
       gradientTransform="matrix(0.53994,0,0,0.53668,129.99392,23.012726)"
       y1="6.5317"
       x1="24.139">
      <stop
         id="stop4224"
         style="stop-color:#fff"
         offset="0" />
      <stop
         id="stop4226"
         style="stop-color:#fff;stop-opacity:0"
         offset="1" />
    </linearGradient>
    <radialGradient
       id="radialGradient2455"
       gradientUnits="userSpaceOnUse"
       cy="5.0172"
       cx="3"
       gradientTransform="matrix(-1.2749e-8,1.7143,-2.1593,-1.46e-8,12.809,2.857)"
       r="21">
      <stop
         id="stop3486"
         style="stop-color:#bdbdbd"
         offset="0" />
      <stop
         id="stop3488"
         style="stop-color:#d0d0d0"
         offset="1" />
    </radialGradient>
    <linearGradient
       id="linearGradient2453"
       y2="16.19"
       gradientUnits="userSpaceOnUse"
       x2="62.989"
       gradientTransform="translate(-50.941,0)"
       y1="13.183"
       x1="62.989">
      <stop
         id="stop6406"
         style="stop-color:#f9f9f9"
         offset="0" />
      <stop
         id="stop6408"
         style="stop-color:#c9c9c9"
         offset="1" />
    </linearGradient>
    <radialGradient
       id="radialGradient7600-312"
       gradientUnits="userSpaceOnUse"
       cy="486.65"
       cx="605.71"
       gradientTransform="matrix(-0.03213,0,0,0.037059,23.363,25.412)"
       r="117.14">
      <stop
         id="stop2681"
         offset="0" />
      <stop
         id="stop2683"
         style="stop-opacity:0"
         offset="1" />
    </radialGradient>
    <radialGradient
       id="radialGradient7598-526"
       gradientUnits="userSpaceOnUse"
       cy="486.65"
       cx="605.71"
       gradientTransform="matrix(0.03213,0,0,0.037059,24.637,25.412)"
       r="117.14">
      <stop
         id="stop2675"
         offset="0" />
      <stop
         id="stop2677"
         style="stop-opacity:0"
         offset="1" />
    </radialGradient>
    <linearGradient
       id="linearGradient7596-975"
       y2="609.51"
       gradientUnits="userSpaceOnUse"
       x2="302.86"
       gradientTransform="matrix(0.08284,0,0,0.037059,-5.9408,25.412)"
       y1="366.65"
       x1="302.86">
      <stop
         id="stop2667"
         style="stop-opacity:0"
         offset="0" />
      <stop
         id="stop2669"
         offset=".5" />
      <stop
         id="stop2671"
         style="stop-opacity:0"
         offset="1" />
    </linearGradient>
    <linearGradient
       id="linearGradient2446"
       y2="15.944"
       gradientUnits="userSpaceOnUse"
       x2="65.34"
       gradientTransform="translate(-53.765,-0.11419)"
       y1="45.114"
       x1="82.453">
      <stop
         id="stop3624"
         style="stop-color:#bb2b12"
         offset="0" />
      <stop
         id="stop3626"
         style="stop-color:#cd7233"
         offset="1" />
    </linearGradient>
    <radialGradient
       id="radialGradient2444"
       gradientUnits="userSpaceOnUse"
       cy="14.113"
       cx="63.969"
       gradientTransform="matrix(1.5647,-9.5143e-8,6.1772e-8,1.0159,-86.213,8.1461)"
       r="23.097">
      <stop
         id="stop3618"
         style="stop-color:#f0c178"
         offset="0" />
      <stop
         id="stop3270"
         style="stop-color:#e18941"
         offset=".5" />
      <stop
         id="stop3620"
         style="stop-color:#ec4f18"
         offset="1" />
    </radialGradient>
    <linearGradient
       id="linearGradient2441"
       y2="36.658"
       gradientUnits="userSpaceOnUse"
       x2="22.809"
       gradientTransform="matrix(1.1447,0,0,0.99775,-3.4661,1.0988)"
       y1="49.629"
       x1="22.935">
      <stop
         id="stop2661"
         style="stop-color:#0a0a0a;stop-opacity:.498"
         offset="0" />
      <stop
         id="stop2663"
         style="stop-color:#0a0a0a;stop-opacity:0"
         offset="1" />
    </linearGradient>
    <radialGradient
       id="radialGradient2438"
       gradientUnits="userSpaceOnUse"
       cy="8.3021"
       cx="7.2647"
       gradientTransform="matrix(0,1.208,-1.6272,0,26.372,8.2665)"
       r="20.98">
      <stop
         id="stop2693"
         style="stop-color:#fff;stop-opacity:0.4"
         offset="0" />
      <stop
         id="stop2695"
         style="stop-color:#fff;stop-opacity:0"
         offset="1" />
    </radialGradient>
    <linearGradient
       id="linearGradient2435"
       y2="33.955"
       gradientUnits="userSpaceOnUse"
       x2="15.215"
       y1="22.292"
       x1="11.566">
      <stop
         id="stop2687"
         style="stop-color:#fff;stop-opacity:.27451"
         offset="0" />
      <stop
         id="stop2689"
         style="stop-color:#fff;stop-opacity:.078431"
         offset="1" />
    </linearGradient>
  </defs>
  <path
     style="font-size:medium;font-style:normal;font-variant:normal;font-weight:normal;font-stretch:normal;text-indent:0;text-align:start;text-decoration:none;line-height:normal;letter-spacing:normal;word-spacing:normal;text-transform:none;direction:ltr;block-progression:tb;writing-mode:lr-tb;text-anchor:start;baseline-shift:baseline;opacity:0.8;color:#000000;fill:#000000;fill-opacity:1;fill-rule:nonzero;stroke:none;stroke-width:3.00000024;marker:none;visibility:visible;display:inline;overflow:visible;enable-background:accumulate;font-family:Sans;-inkscape-font-specification:Sans"
     d="M 5.1875 8 C 4.5111319 8.1439566 3.9849192 8.8086463 4 9.5 L 4 37.5 C 4.0000786 38.285377 4.7146233 38.999921 5.5 39 L 42.5 39 C 43.285377 38.999921 43.999921 38.285377 44 37.5 L 44 12.53125 C 43.999921 11.745873 43.285377 11.031329 42.5 11.03125 L 28 11.03125 L 28 9.5 C 27.999921 8.7146233 27.285377 8.0000786 26.5 8 L 5.5 8 C 5.3962117 7.9891307 5.2912883 7.9891307 5.1875 8 z M 9 11 L 12 11 L 12 14 L 15 14 L 15 17 L 12 17 L 12 20 L 15 20 L 15 23 L 12 23 L 12 26 L 15 26 L 15 29 L 12 29 L 12 32 L 15 32 L 15 35 L 12 35 L 12 32 L 9 32 L 9 29 L 12 29 L 12 26 L 9 26 L 9 23 L 12 23 L 12 20 L 9 20 L 9 17 L 12 17 L 12 14 L 9 14 L 9 11 z M 23.0625 19.9375 L 24.90625 19.9375 L 24.90625 21.46875 L 23.0625 21.46875 L 23.0625 19.9375 z M 29.15625 22.0625 C 30.199096 22.062506 30.94505 22.274495 31.40625 22.6875 C 31.870881 23.097073 32.124994 23.761673 32.125 24.6875 L 32.125 27.96875 L 30.25 27.96875 L 30.25 27.125 C 30.00219 27.476059 29.716003 27.744488 29.40625 27.90625 C 29.096489 28.064571 28.725233 28.125 28.28125 28.125 C 27.682383 28.125 27.18765 27.972617 26.8125 27.625 C 26.44079 27.273942 26.25 26.807565 26.25 26.25 C 26.25 25.571977 26.504113 25.066644 26.96875 24.75 C 27.436827 24.433363 28.158139 24.281254 29.15625 24.28125 L 30.25 24.28125 L 30.25 24.125 C 30.249996 23.832455 30.136843 23.634233 29.90625 23.5 C 29.675649 23.362334 29.301225 23.281254 28.8125 23.28125 C 28.416696 23.281254 28.059482 23.3271 27.71875 23.40625 C 27.378015 23.48541 27.073798 23.591683 26.78125 23.75 L 26.78125 22.34375 C 27.17705 22.24739 27.569505 22.17319 27.96875 22.125 C 28.367991 22.07338 28.757004 22.06251 29.15625 22.0625 z M 37.625 22.0625 C 37.68695 22.062506 37.740219 22.05557 37.8125 22.0625 C 37.88477 22.0659 37.987325 22.07654 38.125 22.09375 L 38.125 23.78125 C 37.963233 23.70554 37.818008 23.659422 37.65625 23.625 C 37.497925 23.58714 37.318008 23.56251 37.15625 23.5625 C 36.681284 23.562504 36.320628 23.693688 36.0625 24 C 35.807807 24.302878 35.687498 24.744614 35.6875 25.3125 L 35.6875 27.96875 L 33.84375 27.96875 L 33.84375 22.1875 L 35.6875 22.1875 L 35.6875 23.15625 C 35.924978 22.777662 36.19368 22.484593 36.5 22.3125 C 36.809753 22.136977 37.194776 22.062506 37.625 22.0625 z M 23.0625 22.1875 L 24.90625 22.1875 L 24.90625 27.875 C 24.906247 28.649394 24.715456 29.250122 24.34375 29.65625 C 23.972039 30.065816 23.455558 30.249997 22.75 30.25 L 21.8125 30.25 L 21.8125 29.0625 L 22.15625 29.0625 C 22.507308 29.062499 22.744213 28.970821 22.875 28.8125 C 23.005785 28.654179 23.062499 28.339637 23.0625 27.875 L 23.0625 22.1875 z M 29.28125 25.375 C 28.895771 25.375003 28.602427 25.43172 28.40625 25.5625 C 28.21351 25.693289 28.124998 25.901562 28.125 26.15625 C 28.124998 26.39029 28.188872 26.584523 28.34375 26.71875 C 28.502068 26.849537 28.721215 26.906251 29 26.90625 C 29.347614 26.906251 29.668765 26.779058 29.90625 26.53125 C 30.143727 26.280004 30.249996 25.968903 30.25 25.59375 L 30.25 25.375 L 29.28125 25.375 z "
     id="path3912" />
</svg>
