<?xml version="1.0" encoding="UTF-8" standalone="no"?>
<!-- Created with Inkscape (http://www.inkscape.org/) -->

<svg
   xmlns:dc="http://purl.org/dc/elements/1.1/"
   xmlns:cc="http://creativecommons.org/ns#"
   xmlns:rdf="http://www.w3.org/1999/02/22-rdf-syntax-ns#"
   xmlns:svg="http://www.w3.org/2000/svg"
   xmlns="http://www.w3.org/2000/svg"
   xmlns:xlink="http://www.w3.org/1999/xlink"
   xmlns:sodipodi="http://sodipodi.sourceforge.net/DTD/sodipodi-0.dtd"
   xmlns:inkscape="http://www.inkscape.org/namespaces/inkscape"
   width="48"
   height="48"
   id="svg6387"
   version="1.1"
   inkscape:version="0.48.3.1 r9886"
   sodipodi:docname="application-x-deb.svg">
  <defs
     id="defs6389">
    <linearGradient
       y2="426.41534"
       x2="261.1684"
       y1="468.59735"
       x1="261.1684"
       gradientTransform="matrix(1.0693277,0,0,1.0693277,-255.23011,549.53937)"
       gradientUnits="userSpaceOnUse"
       id="linearGradient3067"
       xlink:href="#linearGradient3811"
       inkscape:collect="always" />
    <linearGradient
       id="linearGradient3811">
      <stop
         id="stop3813"
         offset="0"
         style="stop-color:#8a7440;stop-opacity:1;" />
      <stop
         style="stop-color:#9c7a28;stop-opacity:1;"
         offset="0.32327268"
         id="stop3815" />
      <stop
         style="stop-color:#b49851;stop-opacity:1;"
         offset="0.69999999"
         id="stop3817" />
      <stop
         id="stop3819"
         offset="1"
         style="stop-color:#d6ba6e;stop-opacity:1;" />
    </linearGradient>
    <linearGradient
       y2="1002.9312"
       x2="24.113745"
       y1="1065.1559"
       x1="24.113745"
       gradientTransform="matrix(0.96799712,0,0,1.0252613,237.8948,-606.5607)"
       gradientUnits="userSpaceOnUse"
       id="linearGradient3321"
       xlink:href="#linearGradient3811-3"
       inkscape:collect="always" />
    <linearGradient
       id="linearGradient3811-3">
      <stop
         id="stop3813-1"
         offset="0"
         style="stop-color:#8a6c40;stop-opacity:1;" />
      <stop
         style="stop-color:#9c7728;stop-opacity:1;"
         offset="0.32327268"
         id="stop3815-4" />
      <stop
         style="stop-color:#b49851;stop-opacity:1;"
         offset="0.69999999"
         id="stop3817-6" />
      <stop
         id="stop3819-4"
         offset="1"
         style="stop-color:#d6ba6e;stop-opacity:1;" />
    </linearGradient>
    <linearGradient
       y2="1002.9312"
       x2="24.113745"
       y1="1065.1559"
       x1="24.113745"
       gradientTransform="matrix(0.96799712,0,0,1.0252613,102.48228,-381.9778)"
       gradientUnits="userSpaceOnUse"
       id="linearGradient3982"
       xlink:href="#linearGradient3811-3"
       inkscape:collect="always" />
    <linearGradient
       inkscape:collect="always"
       xlink:href="#linearGradient3811"
       id="linearGradient3013"
       gradientUnits="userSpaceOnUse"
       gradientTransform="matrix(1.0693277,0,0,1.0693277,-255.23011,549.53937)"
       x1="261.1684"
       y1="468.59735"
       x2="261.1684"
       y2="426.41534" />
    <linearGradient
       inkscape:collect="always"
       xlink:href="#linearGradient3811"
       id="linearGradient3018"
       gradientUnits="userSpaceOnUse"
       gradientTransform="matrix(1.0693277,0,0,1.0693277,-153.51582,193.53937)"
       x1="261.1684"
       y1="468.59735"
       x2="261.1684"
       y2="426.41534" />
  </defs>
  <sodipodi:namedview
     id="base"
     pagecolor="#ffffff"
     bordercolor="#666666"
     borderopacity="1.0"
     inkscape:pageopacity="0.0"
     inkscape:pageshadow="2"
     inkscape:zoom="5.6"
     inkscape:cx="21.278396"
     inkscape:cy="19.138696"
     inkscape:document-units="px"
     inkscape:current-layer="layer1"
     showgrid="false"
     fit-margin-top="0"
     fit-margin-left="0"
     fit-margin-right="0"
     fit-margin-bottom="0"
     inkscape:window-width="1280"
     inkscape:window-height="654"
     inkscape:window-x="0"
     inkscape:window-y="18"
     inkscape:window-maximized="1" />
  <metadata
     id="metadata6392">
    <rdf:RDF>
      <cc:Work
         rdf:about="">
        <dc:format>image/svg+xml</dc:format>
        <dc:type
           rdf:resource="http://purl.org/dc/dcmitype/StillImage" />
        <dc:title />
      </cc:Work>
    </rdf:RDF>
  </metadata>
  <g
     inkscape:label="Capa 1"
     inkscape:groupmode="layer"
     id="layer1"
     transform="translate(-101.71429,-648.36218)">
    <rect
       style="fill:url(#linearGradient3982);fill-opacity:1;stroke:#7d7d7d;stroke-width:0.39848712;stroke-miterlimit:4;stroke-opacity:1;stroke-dasharray:none"
       id="rect2992"
       width="44.601513"
       height="44.601513"
       x="103.41353"
       y="650.0614"
       ry="5.6755357" />
    <rect
       style="opacity:0.35648151;fill:none;stroke:none"
       id="rect4543"
       width="48"
       height="48"
       x="101.71429"
       y="648.36218" />
    <path
       inkscape:connector-curvature="0"
       style="fill:#ffffff;fill-opacity:1"
       d="m 127.15716,659.98688 c -0.38296,0.031 -0.76351,0.046 -1.14098,0.094 l 0.16299,0.026 c 0.27672,-0.1008 0.68288,-0.052 0.97799,-0.1201 z m -1.67287,0.1801 c -0.62317,0.037 -1.49389,0.3646 -1.22678,0.069 -1.01656,0.4535 -2.82121,1.0908 -3.83475,2.0417 l -0.0257,-0.2144 c -0.46449,0.5564 -2.03003,1.6621 -2.15329,2.3849 l -0.1201,0.026 c -0.24104,0.4085 -0.40115,0.8749 -0.59195,1.2955 -0.31542,0.5383 -0.46566,0.2071 -0.42036,0.2917 -0.62097,1.26 -0.92645,2.3224 -1.19246,3.1913 0.18997,0.283 0.006,1.7062 0.0772,2.8482 -0.31076,5.6395 3.95485,11.1159 8.62175,12.3793 0.68329,0.2446 1.69978,0.2338 2.56508,0.2574 -1.02096,-0.2915 -1.14957,-0.1501 -2.14472,-0.4976 -0.7165,-0.3378 -0.87305,-0.7262 -1.38119,-1.1668 l 0.19731,0.3604 c -0.99624,-0.3518 -0.57911,-0.4386 -1.38977,-0.6949 l 0.21447,-0.2831 c -0.32284,-0.025 -0.8491,-0.544 -0.99515,-0.8322 l -0.36031,0.017 c -0.42359,-0.5232 -0.64245,-0.8998 -0.62626,-1.1925 l -0.1201,0.1973 c -0.12848,-0.2209 -1.55813,-1.9579 -0.81499,-1.5527 -0.13726,-0.1254 -0.32511,-0.205 -0.52331,-0.5662 l 0.15442,-0.1802 c -0.35688,-0.4601 -0.65735,-1.0476 -0.63484,-1.2439 0.1897,0.2572 0.32401,0.3078 0.45468,0.3517 -0.90291,-2.24 -0.95445,-0.1234 -1.63856,-2.2819 l 0.14584,-0.01 c -0.11063,-0.1674 -0.177,-0.3539 -0.26595,-0.5318 l 0.0601,-0.6262 c -0.65007,-0.7506 -0.18022,-3.1892 -0.0858,-4.5297 0.0645,-0.5447 0.53841,-1.1304 0.90078,-2.0418 l -0.22305,-0.034 c 0.4225,-0.7377 2.42254,-2.9618 3.34576,-2.8481 0.4472,-0.5609 -0.0923,-0.01 -0.18016,-0.1459 0.98225,-1.0155 1.29328,-0.7174 1.95598,-0.9008 0.71431,-0.4236 -0.61328,0.1629 -0.27452,-0.163 1.23535,-0.3154 0.87504,-0.7153 2.48787,-0.8751 0.0695,0.039 0.003,0.079 -0.0944,0.1116 1.13601,-0.3064 2.99707,-0.146 4.26369,0.4375 1.67925,0.7851 3.57079,3.1099 3.64601,5.2932 l 0.0772,0.026 c -0.0417,0.8675 0.13204,1.8658 -0.17158,2.7882 l 0.19732,-0.4204 c 0.02,0.6504 -0.1905,0.9715 -0.38605,1.5356 l -0.35174,0.1716 c -0.28962,0.563 0.0268,0.3581 -0.18015,0.8064 -0.45269,0.4022 -1.37804,1.259 -1.67288,1.3383 -0.21468,-0.01 0.1501,-0.2551 0.19731,-0.3517 -0.60587,0.4161 -0.48899,0.6305 -1.41551,0.8836 l -0.0257,-0.06 c -2.28623,1.0756 -5.46274,-1.0625 -5.42183,-3.9719 -0.0236,0.1844 -0.0696,0.1403 -0.12011,0.2144 -0.11804,-1.4959 0.68542,-2.9973 2.05035,-3.6117 1.33418,-0.6596 2.90514,-0.3935 3.86049,0.4976 -0.52435,-0.6874 -1.57522,-1.4144 -2.81387,-1.3469 -1.21284,0.019 -2.34841,0.7924 -2.72808,1.63 -0.62069,0.3901 -0.6907,1.511 -0.96083,1.7157 -0.36456,2.6789 0.68542,3.8287 2.46213,5.1902 0.27892,0.1879 0.0828,0.2169 0.12011,0.3604 -0.58968,-0.2757 -1.13461,-0.6894 -1.57851,-1.2011 0.23581,0.3443 0.49442,0.6799 0.82357,0.9437 -0.55646,-0.1878 -1.30186,-1.3511 -1.51846,-1.3984 0.95864,1.718 3.89391,3.0186 5.43042,2.3764 -0.70992,0.025 -1.62038,0.011 -2.41924,-0.2831 -0.33547,-0.1726 -0.785,-0.5255 -0.70347,-0.592 2.09544,0.7819 4.25951,0.5866 6.07383,-0.8664 0.4612,-0.3591 0.9609,-0.9695 1.10667,-0.978 -0.19144,0.288 -0.0197,0.1931 -0.0858,0.3603 0.34369,-0.6072 -0.21316,-0.26 0.42895,-1.1924 l 0.24878,0.3431 c -0.0922,-0.6157 0.76448,-1.3597 0.67773,-2.3334 0.0981,-0.1486 0.15899,-0.066 0.163,0.1372 -0.011,-0.1821 -0.0333,-0.3609 0,-0.6434 0.0793,0.2101 0.18558,0.4388 0.24021,0.6606 -0.18777,-0.7332 0.18757,-1.2377 0.2831,-1.6643 -0.0933,-0.041 -0.28955,0.3248 -0.33457,-0.5405 0.007,-0.3764 0.10823,-0.1994 0.14584,-0.2917 -0.073,-0.041 -0.26828,-0.3293 -0.38605,-0.8836 0.0846,-0.1298 0.22648,0.3408 0.34315,0.3603 -0.0739,-0.4398 -0.20067,-0.7775 -0.20589,-1.1152 -0.34013,-0.711 -0.11901,0.09 -0.39463,-0.3089 -0.36127,-1.1294 0.29814,-0.2595 0.34316,-0.7721 0.54795,0.7948 0.86015,2.029 1.00372,2.5394 -0.10926,-0.6218 -0.28955,-1.2271 -0.50615,-1.8102 0.16746,0.069 -0.27006,-1.2804 0.21447,-0.386 -0.51775,-1.9055 -2.21128,-3.6857 -3.77469,-4.5211 0.18969,0.1746 0.4299,0.3935 0.34315,0.429 -0.77745,-0.4621 -0.64321,-0.4997 -0.75494,-0.6949 -0.6325,-0.2575 -0.67032,0.02 -1.08951,0 -1.19363,-0.6328 -1.42327,-0.5642 -2.52219,-0.9608 l 0.0515,0.2316 c -0.79035,-0.2627 -0.92095,0.099 -1.77582,0 -0.0513,-0.039 0.27253,-0.1418 0.54047,-0.1802 -0.76345,0.1008 -0.72694,-0.151 -1.47557,0.026 0.18339,-0.1284 0.3785,-0.2156 0.57479,-0.326 z m 9.13648,10.8523 c 0.004,0.2028 -0.0498,0.5244 -0.15442,0.8665 0.15896,-0.4167 0.16783,-0.6449 0.15442,-0.8665 z m -8.51881,-10.715 c 0.2188,0.038 0.46546,0.068 0.42895,0.1201 0.23911,-0.053 0.30129,-0.099 -0.42895,-0.1201 z m 0.42895,0.1201 -0.14584,0.034 0.13726,-0.017 0.009,-0.017 z m -1.24394,2.1704 c -0.13729,0.041 -0.30664,0.083 -0.37747,0.1459 0.11224,-0.055 0.23929,-0.1055 0.37747,-0.1459 z m -8.8448,2.6939 c 0.0634,0.5907 -0.44411,0.819 0.11153,0.4289 0.29895,-0.6737 -0.11564,-0.1844 -0.11153,-0.4289 z m -0.45468,1.8788 c -0.35495,0.4535 -0.15997,0.549 -0.19731,0.8578 0.12848,-0.3937 0.1479,-0.6295 0.19731,-0.8578 z m 14.61837,2.7366 c -0.0505,0 -0.11317,0.1341 -0.14584,0.2745 0.0749,0.04 0.13205,0.52 0.2059,0.223 0.0247,-0.3689 -0.01,-0.4989 -0.0601,-0.4975 z m 4.48674,1.2439 -0.0601,0.1544 c -0.10926,0.7841 -0.3461,1.5614 -0.71204,2.2819 0.40327,-0.7592 0.66256,-1.5944 0.7721,-2.4363 z m -4.75268,0.2831 c -0.0546,0.2713 -0.2037,0.5074 -0.34316,0.755 -0.76674,0.4825 -0.0719,-0.2907 0,-0.5834 -0.82357,1.038 -0.10706,0.6186 -0.13726,0.9094 0.24433,-0.3369 0.41838,-0.6991 0.48042,-1.081 z m -1.67288,1.5785 c -0.33245,0.082 -0.67025,0.082 -1.0123,0.052 -0.40959,0.01 0.074,0.2093 0.60909,0.2917 0.14825,-0.1156 0.28434,-0.2295 0.40321,-0.3432 z m -5.17305,0.06 c 0.09,0.3324 0.27343,0.6103 0.4461,0.9007 l -0.12868,-0.3689 c -0.14275,-0.1575 -0.22188,-0.3433 -0.31742,-0.5318 z m -0.31742,0.5576 -0.06,0.2831 c 0.26904,0.3657 0.4879,0.7689 0.83215,1.0552 -0.24652,-0.4826 -0.43333,-0.6842 -0.77209,-1.3383 z"
       id="path2820" />
  </g>
</svg>
