<?xml version="1.0" encoding="UTF-8" standalone="no"?>
<!-- Created with Inkscape (http://www.inkscape.org/) -->

<svg
   xmlns:dc="http://purl.org/dc/elements/1.1/"
   xmlns:cc="http://creativecommons.org/ns#"
   xmlns:rdf="http://www.w3.org/1999/02/22-rdf-syntax-ns#"
   xmlns:svg="http://www.w3.org/2000/svg"
   xmlns="http://www.w3.org/2000/svg"
   xmlns:xlink="http://www.w3.org/1999/xlink"
   xmlns:sodipodi="http://sodipodi.sourceforge.net/DTD/sodipodi-0.dtd"
   xmlns:inkscape="http://www.inkscape.org/namespaces/inkscape"
   id="svg3508"
   height="48"
   width="48"
   version="1.0"
   inkscape:version="0.48.3.1 r9886"
   sodipodi:docname="application-x-cd-image.svg">
  <metadata
     id="metadata62">
    <rdf:RDF>
      <cc:Work
         rdf:about="">
        <dc:format>image/svg+xml</dc:format>
        <dc:type
           rdf:resource="http://purl.org/dc/dcmitype/StillImage" />
        <dc:title></dc:title>
      </cc:Work>
    </rdf:RDF>
  </metadata>
  <sodipodi:namedview
     pagecolor="#ffffff"
     bordercolor="#666666"
     borderopacity="1"
     objecttolerance="10"
     gridtolerance="10"
     guidetolerance="10"
     inkscape:pageopacity="0"
     inkscape:pageshadow="2"
     inkscape:window-width="1280"
     inkscape:window-height="723"
     id="namedview60"
     showgrid="true"
     inkscape:zoom="9.8333338"
     inkscape:cx="29.931433"
     inkscape:cy="24.186862"
     inkscape:window-x="0"
     inkscape:window-y="20"
     inkscape:window-maximized="1"
     inkscape:current-layer="svg3508">
    <inkscape:grid
       type="xygrid"
       id="grid3816" />
  </sodipodi:namedview>
  <defs
     id="defs3510">
    <linearGradient
       id="linearGradient3156"
       y2="36"
       gradientUnits="userSpaceOnUse"
       x2="-.097514"
       gradientTransform="matrix(0.72415,0,0,0.73599,74.074876,5.5950852)"
       y1="36"
       x1="36.5">
      <stop
         id="stop3916"
         style="stop-color:#c02cbb"
         offset="0" />
      <stop
         id="stop3918"
         style="stop-color:#b329ae;stop-opacity:.49804"
         offset=".79722" />
      <stop
         id="stop3920"
         style="stop-color:#982394;stop-opacity:0"
         offset="1" />
    </linearGradient>
    <linearGradient
       id="linearGradient3154"
       y2="15.5"
       gradientUnits="userSpaceOnUse"
       x2="-.073089"
       gradientTransform="matrix(0.72415,0,0,0.73599,74.074876,5.5950852)"
       y1="15.5"
       x1="23.997">
      <stop
         id="stop3700"
         style="stop-color:#ce7ecc"
         offset="0" />
      <stop
         id="stop3702"
         style="stop-color:#c056bc;stop-opacity:.81569"
         offset=".76279" />
      <stop
         id="stop3704"
         style="stop-color:#f8c9f7;stop-opacity:0"
         offset="1" />
    </linearGradient>
    <linearGradient
       id="linearGradient3151"
       y2="-.43754"
       gradientUnits="userSpaceOnUse"
       x2="20.484"
       gradientTransform="matrix(0,-0.86253,0.84866,0,75.365876,45.413085)"
       y1="12.82"
       x1="20.484">
      <stop
         id="stop2189"
         style="stop-color:#fff;stop-opacity:.64341"
         offset="0" />
      <stop
         id="stop2191"
         style="stop-color:#fff;stop-opacity:0"
         offset="1" />
    </linearGradient>
    <linearGradient
       id="linearGradient5060">
      <stop
         id="stop5062"
         offset="0" />
      <stop
         id="stop5064"
         style="stop-opacity:0"
         offset="1" />
    </linearGradient>
    <linearGradient
       id="linearGradient3104">
      <stop
         id="stop3106"
         style="stop-color:#aaa"
         offset="0" />
      <stop
         id="stop3108"
         style="stop-color:#c8c8c8"
         offset="1" />
    </linearGradient>
    <filter
       id="filter3248"
       y="-.16434"
       x="-.14846"
       height="1.3287"
       width="1.2969">
      <feGaussianBlur
         id="feGaussianBlur3250"
         stdDeviation="0.77391625" />
    </filter>
    <linearGradient
       id="linearGradient2432"
       y2="5.4565"
       gradientUnits="userSpaceOnUse"
       x2="36.358"
       gradientTransform="matrix(0.9977,0,0,1.0407,57.259676,-6.7147148)"
       y1="8.059"
       x1="32.892">
      <stop
         id="stop8591"
         style="stop-color:#fefefe"
         offset="0" />
      <stop
         id="stop8593"
         style="stop-color:#cbcbcb"
         offset="1" />
    </linearGradient>
    <linearGradient
       id="linearGradient2439"
       y2="3.3639"
       xlink:href="#linearGradient3104"
       gradientUnits="userSpaceOnUse"
       x2="22.004"
       gradientTransform="translate(55.113776,-8.6560148)"
       y1="47.813"
       x1="22.004" />
    <linearGradient
       id="linearGradient2442"
       y2="46.017"
       gradientUnits="userSpaceOnUse"
       x2="24"
       gradientTransform="matrix(1,0,0,0.97778,57.095876,-6.5755848)"
       y1="2"
       x1="24">
      <stop
         id="stop3213"
         style="stop-color:#fff"
         offset="0" />
      <stop
         id="stop3215"
         style="stop-color:#fff;stop-opacity:0"
         offset="1" />
    </linearGradient>
    <radialGradient
       id="radialGradient2445"
       gradientUnits="userSpaceOnUse"
       cy="112.3"
       cx="102"
       gradientTransform="matrix(0.3617,0,0,-0.39078,57.946936,41.908085)"
       r="139.56">
      <stop
         id="stop41"
         style="stop-color:#b7b8b9"
         offset="0" />
      <stop
         id="stop47"
         style="stop-color:#ececec"
         offset=".18851" />
      <stop
         id="stop49"
         style="stop-color:#fafafa;stop-opacity:0"
         offset=".25718" />
      <stop
         id="stop51"
         style="stop-color:#fff;stop-opacity:0"
         offset=".30111" />
      <stop
         id="stop53"
         style="stop-color:#fafafa;stop-opacity:0"
         offset=".53130" />
      <stop
         id="stop55"
         style="stop-color:#ebecec;stop-opacity:0"
         offset=".84490" />
      <stop
         id="stop57"
         style="stop-color:#e1e2e3;stop-opacity:0"
         offset="1" />
    </radialGradient>
    <linearGradient
       id="linearGradient2448"
       y2="47.013"
       gradientUnits="userSpaceOnUse"
       x2="25.132"
       gradientTransform="matrix(1,0,0,0.95617,57.095876,-7.5238148)"
       y1=".98521"
       x1="25.132">
      <stop
         id="stop3602"
         style="stop-color:#f4f4f4"
         offset="0" />
      <stop
         id="stop3604"
         style="stop-color:#dbdbdb"
         offset="1" />
    </linearGradient>
    <linearGradient
       id="linearGradient2450"
       y2="2.9062"
       xlink:href="#linearGradient3104"
       gradientUnits="userSpaceOnUse"
       x2="-51.786"
       gradientTransform="matrix(0.8075,0,0,0.89483,116.50588,-8.5895148)"
       y1="50.786"
       x1="-51.786" />
    <radialGradient
       id="radialGradient2453"
       xlink:href="#linearGradient5060"
       gradientUnits="userSpaceOnUse"
       cy="486.65"
       cx="605.71"
       gradientTransform="matrix(0.02304,0,0,0.0147,83.456876,31.431085)"
       r="117.14" />
    <radialGradient
       id="radialGradient2456"
       xlink:href="#linearGradient5060"
       gradientUnits="userSpaceOnUse"
       cy="486.65"
       cx="605.71"
       gradientTransform="matrix(-0.02304,0,0,0.0147,78.718876,31.431085)"
       r="117.14" />
    <linearGradient
       id="linearGradient2459"
       y2="609.51"
       gradientUnits="userSpaceOnUse"
       x2="302.86"
       gradientTransform="matrix(0.067325,0,0,0.0147,56.754736,31.431085)"
       y1="366.65"
       x1="302.86">
      <stop
         id="stop5050"
         style="stop-opacity:0"
         offset="0" />
      <stop
         id="stop5056"
         offset=".5" />
      <stop
         id="stop5052"
         style="stop-opacity:0"
         offset="1" />
    </linearGradient>
  </defs>
  <path
     style="font-size:medium;font-style:normal;font-variant:normal;font-weight:normal;font-stretch:normal;text-indent:0;text-align:start;text-decoration:none;line-height:normal;letter-spacing:normal;word-spacing:normal;text-transform:none;direction:ltr;block-progression:tb;writing-mode:lr-tb;text-anchor:start;baseline-shift:baseline;opacity:0.8;color:#000000;fill:#000000;fill-opacity:1;stroke:none;stroke-width:3.00000024;marker:none;visibility:visible;display:inline;overflow:visible;enable-background:accumulate;font-family:Sans;-inkscape-font-specification:Sans"
     d="M 10.352222,4.0020356 C 9.6156987,4.0787465 8.9960613,4.7660772 9.0000217,5.5019592 l 0,36.9981168 C 9.0001006,43.285413 9.7191392,43.999922 10.509455,44 l 26.981112,0 C 38.280883,43.999922 38.999921,43.285413 39,42.500076 L 39,8.0187799 C 38,7 33.954345,4.9979644 33,4 l -22.490545,0.00204 c -0.05236,-0.00271 -0.104869,-0.00271 -0.157233,0 z M 12.018888,7.0018829 30,7 l 0,4 6,0 -0.01886,30.000153 -23.962247,0 z"
     id="rect3039"
     inkscape:connector-curvature="0"
     sodipodi:nodetypes="ccccccccccccccccc" />
  <path
     style="font-size:medium;font-style:normal;font-variant:normal;font-weight:normal;font-stretch:normal;text-indent:0;text-align:start;text-decoration:none;line-height:normal;letter-spacing:normal;word-spacing:normal;text-transform:none;direction:ltr;block-progression:tb;writing-mode:lr-tb;text-anchor:start;baseline-shift:baseline;opacity:0.8;color:#000000;fill:#000000;fill-opacity:1;stroke:none;stroke-width:1px;marker:none;visibility:visible;display:inline;overflow:visible;enable-background:accumulate;font-family:Sans;-inkscape-font-specification:Sans"
     d="M 32 14.5 C 31.635035 14.5 31.330861 14.707996 31.15625 15 L 20.5625 15 C 20.5625 15 19.213007 15.0029 17.84375 15.6875 C 16.474493 16.372128 15.0625 17.833333 15.0625 20.5 C 15.0625 23.166667 16.474493 24.627872 17.84375 25.3125 C 19.213007 25.997128 20.5625 26 20.5625 26 L 22 26 L 22 26.625 L 18.46875 30.15625 C 18.324162 30.075026 18.177646 30 18 30 C 17.447715 30 17 30.447715 17 31 C 17 31.552285 17.447715 32 18 32 C 18.552285 32 19 31.552285 19 31 C 19 30.822354 18.924974 30.675838 18.84375 30.53125 L 22.375 27 L 25 27 L 25 26 L 27.5 26 C 27.5 26 28.650507 25.9971 29.78125 26.5625 C 30.911993 27.127872 32 28.166667 32 30.5 C 32 32.833333 30.911993 33.872128 29.78125 34.4375 C 28.650507 35.002872 27.5 35 27.5 35 L 16.84375 35 C 16.669139 34.707996 16.364965 34.5 16 34.5 C 15.447715 34.5 15 34.947715 15 35.5 C 15 36.052285 15.447715 36.5 16 36.5 C 16.364965 36.5 16.669139 36.292004 16.84375 36 L 27.5 36 C 27.5 36 28.849493 35.9971 30.21875 35.3125 C 31.588007 34.627872 33 33.166667 33 30.5 C 33 27.833333 31.588007 26.372128 30.21875 25.6875 C 28.849493 25.002872 27.5 25 27.5 25 L 25 25 L 25 24.375 L 28.53125 20.84375 C 28.675838 20.924974 28.822354 21 29 21 C 29.552285 21 30 20.552285 30 20 C 30 19.447715 29.552285 19 29 19 C 28.447715 19 28 19.447715 28 20 C 28 20.177646 28.075026 20.324162 28.15625 20.46875 L 24.625 24 L 22 24 L 22 25 L 20.5625 25 C 20.5625 25 19.411993 25.0029 18.28125 24.4375 C 17.150507 23.872128 16.0625 22.833333 16.0625 20.5 C 16.0625 18.166667 17.150507 17.127872 18.28125 16.5625 C 19.411993 15.997128 20.5625 16 20.5625 16 L 31.15625 16 C 31.330861 16.292004 31.635035 16.5 32 16.5 C 32.552285 16.5 33 16.052285 33 15.5 C 33 14.947715 32.552285 14.5 32 14.5 z "
     id="path5989" />
</svg>
