<?xml version="1.0" encoding="UTF-8" standalone="no"?>
<!-- Created with Inkscape (http://www.inkscape.org/) -->

<svg
   xmlns:dc="http://purl.org/dc/elements/1.1/"
   xmlns:cc="http://creativecommons.org/ns#"
   xmlns:rdf="http://www.w3.org/1999/02/22-rdf-syntax-ns#"
   xmlns:svg="http://www.w3.org/2000/svg"
   xmlns="http://www.w3.org/2000/svg"
   xmlns:xlink="http://www.w3.org/1999/xlink"
   xmlns:sodipodi="http://sodipodi.sourceforge.net/DTD/sodipodi-0.dtd"
   xmlns:inkscape="http://www.inkscape.org/namespaces/inkscape"
   width="48"
   height="48"
   id="svg2"
   version="1.1"
   inkscape:version="0.48.4 r9939"
   sodipodi:docname="camera-web.svg">
  <defs
     id="defs4">
    <linearGradient
       inkscape:collect="always"
       xlink:href="#linearGradient3881"
       id="linearGradient3801"
       x1="42.649601"
       y1="1007.0192"
       x2="42.649601"
       y2="1049.8013"
       gradientUnits="userSpaceOnUse"
       gradientTransform="translate(0,-2056.7244)" />
    <linearGradient
       id="linearGradient3881">
      <stop
         style="stop-color:#474845;stop-opacity:1;"
         offset="0"
         id="stop3883" />
      <stop
         style="stop-color:#838681;stop-opacity:1"
         offset="1"
         id="stop3885" />
    </linearGradient>
    <linearGradient
       y2="1049.8013"
       x2="42.649601"
       y1="1007.0192"
       x1="42.649601"
       gradientTransform="translate(-5.8876037e-8,-2056.7244)"
       gradientUnits="userSpaceOnUse"
       id="linearGradient3216"
       xlink:href="#linearGradient3881"
       inkscape:collect="always" />
  </defs>
  <sodipodi:namedview
     id="base"
     pagecolor="#ffffff"
     bordercolor="#666666"
     borderopacity="1.0"
     inkscape:pageopacity="0.0"
     inkscape:pageshadow="2"
     inkscape:zoom="5.6"
     inkscape:cx="-58.077615"
     inkscape:cy="21.913027"
     inkscape:document-units="px"
     inkscape:current-layer="layer1"
     showgrid="true"
     inkscape:window-width="1366"
     inkscape:window-height="712"
     inkscape:window-x="0"
     inkscape:window-y="27"
     inkscape:window-maximized="1">
    <inkscape:grid
       type="xygrid"
       id="grid3775"
       empspacing="5"
       visible="true"
       enabled="true"
       snapvisiblegridlinesonly="true" />
  </sodipodi:namedview>
  <metadata
     id="metadata7">
    <rdf:RDF>
      <cc:Work
         rdf:about="">
        <dc:format>image/svg+xml</dc:format>
        <dc:type
           rdf:resource="http://purl.org/dc/dcmitype/StillImage" />
        <dc:title />
      </cc:Work>
    </rdf:RDF>
  </metadata>
  <g
     inkscape:label="Capa 1"
     inkscape:groupmode="layer"
     id="layer1"
     transform="translate(0,-1004.3622)">
    <rect
       style="fill:none;stroke:none"
       id="rect2995"
       width="48"
       height="48"
       x="0"
       y="1004.3622"
       ry="1.8835796" />
    <path
       style="fill:#919fa9;fill-opacity:1;stroke:none"
       d="M 24 8 C 17.372583 8 12 13.3726 12 20 C 12 26.6274 17.372583 32 24 32 C 30.627417 32 36 26.6274 36 20 C 36 13.3726 30.627417 8 24 8 z M 24 13 C 27.860071 13 31 16.1399 31 20 C 31 23.8601 27.860071 27 24 27 C 20.139929 27 17 23.8601 17 20 C 17 16.1399 20.139929 13 24 13 z M 24 14 C 20.680369 14 18 16.6804 18 20 C 18 23.3196 20.680369 26 24 26 C 27.319631 26 30 23.3196 30 20 C 30 16.6804 27.319631 14 24 14 z M 24 17 C 26 17 27 18 27 20 C 27 22 26 23 24 23 C 22 23 21 22 21 20 C 21 18 22 17 24 17 z M 21 33.0625 L 21 36.0625 L 27 36.0625 L 27 33.0625 L 21 33.0625 z M 16 37.0625 L 16 39.0625 L 32 39.0625 L 32 37.0625 L 16 37.0625 z "
       transform="translate(0,1004.3622)"
       id="rect3104" />
  </g>
</svg>
