<?xml version="1.0" encoding="UTF-8" standalone="no"?>
<!-- Created with Inkscape (http://www.inkscape.org/) -->

<svg
   xmlns:dc="http://purl.org/dc/elements/1.1/"
   xmlns:cc="http://creativecommons.org/ns#"
   xmlns:rdf="http://www.w3.org/1999/02/22-rdf-syntax-ns#"
   xmlns:svg="http://www.w3.org/2000/svg"
   xmlns="http://www.w3.org/2000/svg"
   xmlns:xlink="http://www.w3.org/1999/xlink"
   xmlns:sodipodi="http://sodipodi.sourceforge.net/DTD/sodipodi-0.dtd"
   xmlns:inkscape="http://www.inkscape.org/namespaces/inkscape"
   width="48"
   height="48"
   id="svg2"
   version="1.1"
   inkscape:version="0.48.3.1 r9886"
   sodipodi:docname="camera-web.svg">
  <defs
     id="defs4">
    <linearGradient
       inkscape:collect="always"
       xlink:href="#linearGradient3881"
       id="linearGradient3801"
       x1="42.649601"
       y1="1007.0192"
       x2="42.649601"
       y2="1049.8013"
       gradientUnits="userSpaceOnUse"
       gradientTransform="translate(0,-2056.7244)" />
    <linearGradient
       id="linearGradient3881">
      <stop
         style="stop-color:#474845;stop-opacity:1;"
         offset="0"
         id="stop3883" />
      <stop
         style="stop-color:#838681;stop-opacity:1"
         offset="1"
         id="stop3885" />
    </linearGradient>
    <linearGradient
       y2="1049.8013"
       x2="42.649601"
       y1="1007.0192"
       x1="42.649601"
       gradientTransform="translate(-5.8876037e-8,-2056.7244)"
       gradientUnits="userSpaceOnUse"
       id="linearGradient3216"
       xlink:href="#linearGradient3881"
       inkscape:collect="always" />
  </defs>
  <sodipodi:namedview
     id="base"
     pagecolor="#ffffff"
     bordercolor="#666666"
     borderopacity="1.0"
     inkscape:pageopacity="0.0"
     inkscape:pageshadow="2"
     inkscape:zoom="22.4"
     inkscape:cx="20.047385"
     inkscape:cy="21.913027"
     inkscape:document-units="px"
     inkscape:current-layer="layer1"
     showgrid="true"
     inkscape:window-width="1280"
     inkscape:window-height="721"
     inkscape:window-x="0"
     inkscape:window-y="22"
     inkscape:window-maximized="1">
    <inkscape:grid
       type="xygrid"
       id="grid3775"
       empspacing="5"
       visible="true"
       enabled="true"
       snapvisiblegridlinesonly="true" />
  </sodipodi:namedview>
  <metadata
     id="metadata7">
    <rdf:RDF>
      <cc:Work
         rdf:about="">
        <dc:format>image/svg+xml</dc:format>
        <dc:type
           rdf:resource="http://purl.org/dc/dcmitype/StillImage" />
        <dc:title></dc:title>
      </cc:Work>
    </rdf:RDF>
  </metadata>
  <g
     inkscape:label="Capa 1"
     inkscape:groupmode="layer"
     id="layer1"
     transform="translate(0,-1004.3622)">
    <rect
       style="fill:url(#linearGradient3216);fill-opacity:1;stroke:none"
       id="rect2991"
       width="48"
       height="48"
       x="5.887604e-08"
       y="-1052.3622"
       ry="1.9445436"
       transform="scale(1,-1)" />
    <path
       inkscape:connector-curvature="0"
       style="opacity:0.15;fill:#ffffff;fill-opacity:1;stroke:none"
       d="m -5.8876037e-8,1004.3622 0,48 16.781250058876036,0 12.84375,-48 -29.625000058876036,0 z"
       id="rect3790" />
    <rect
       style="fill:none;stroke:none"
       id="rect2995"
       width="48"
       height="48"
       x="0"
       y="1004.3622"
       ry="1.8835796" />
    <rect
       style="fill:#f8fff2;fill-opacity:1;stroke:none"
       id="rect3104"
       width="16"
       height="2"
       x="16"
       y="1041.4304" />
    <path
       inkscape:connector-curvature="0"
       style="fill:#f8fff2;fill-opacity:1;stroke:none"
       d="m 24,1012.3622 c -6.627417,0 -12,5.3726 -12,12 0,6.6274 5.372583,12 12,12 6.627417,0 12,-5.3726 12,-12 0,-6.6274 -5.372583,-12 -12,-12 z m 0,5 c 3.860071,0 7,3.1399 7,7 0,3.8601 -3.139929,7 -7,7 -3.860071,0 -7,-3.1399 -7,-7 0,-3.8601 3.139929,-7 7,-7 z m 0,1 c -3.319631,0 -6,2.6804 -6,6 0,3.3196 2.680369,6 6,6 3.319631,0 6,-2.6804 6,-6 0,-3.3196 -2.680369,-6 -6,-6 z m 0,3 c 2,0 3,1 3,3 0,2 -1,3 -3,3 -2,0 -3,-1 -3,-3 0,-2 1,-3 3,-3 z"
       id="path3874"
       sodipodi:nodetypes="ssssssssssssssssssss" />
    <path
       style="fill:#f8fff2;fill-opacity:1;stroke:none"
       d="m 21,1037.4304 0,3 6,0 0,-3 z"
       id="path3876"
       inkscape:connector-curvature="0" />
  </g>
</svg>
