<?xml version="1.0" encoding="UTF-8" standalone="no"?>
<!-- Created with Inkscape (http://www.inkscape.org/) -->

<svg
   xmlns:dc="http://purl.org/dc/elements/1.1/"
   xmlns:cc="http://creativecommons.org/ns#"
   xmlns:rdf="http://www.w3.org/1999/02/22-rdf-syntax-ns#"
   xmlns:svg="http://www.w3.org/2000/svg"
   xmlns="http://www.w3.org/2000/svg"
   xmlns:xlink="http://www.w3.org/1999/xlink"
   xmlns:sodipodi="http://sodipodi.sourceforge.net/DTD/sodipodi-0.dtd"
   xmlns:inkscape="http://www.inkscape.org/namespaces/inkscape"
   width="48"
   height="48"
   id="svg2"
   version="1.1"
   inkscape:version="0.48.4 r9939"
   sodipodi:docname="input-tablet.svg">
  <defs
     id="defs4">
    <linearGradient
       id="linearGradient3795">
      <stop
         style="stop-color:#9278a8;stop-opacity:1;"
         offset="0"
         id="stop3797" />
      <stop
         style="stop-color:#754d8f;stop-opacity:1;"
         offset="1"
         id="stop3799" />
    </linearGradient>
    <linearGradient
       id="linearGradient3698">
      <stop
         id="stop3700"
         offset="0"
         style="stop-color:#96d0e1;stop-opacity:1" />
      <stop
         style="stop-color:#89b7e1;stop-opacity:1"
         offset="0.67819428"
         id="stop3706" />
      <stop
         id="stop3702"
         offset="1"
         style="stop-color:#699dd3;stop-opacity:1" />
    </linearGradient>
    <linearGradient
       id="linearGradient3708">
      <stop
         id="stop3710"
         offset="0"
         style="stop-color:#658db6;stop-opacity:1" />
      <stop
         style="stop-color:#527fab;stop-opacity:1;"
         offset="0.76777935"
         id="stop3716" />
      <stop
         id="stop3712"
         offset="1"
         style="stop-color:#4071a0;stop-opacity:1" />
    </linearGradient>
    <linearGradient
       id="linearGradient3750">
      <stop
         style="stop-color:#d0e2f1;stop-opacity:1"
         offset="0"
         id="stop3752" />
      <stop
         id="stop3756"
         offset="0.85580856"
         style="stop-color:#cadef0;stop-opacity:1" />
      <stop
         style="stop-color:#95bee3;stop-opacity:1"
         offset="1"
         id="stop3754" />
    </linearGradient>
    <linearGradient
       id="linearGradient3803">
      <stop
         id="stop3805"
         offset="0"
         style="stop-color:#d7def0;stop-opacity:1;" />
      <stop
         style="stop-color:#ffffff;stop-opacity:1"
         offset="0.5"
         id="stop3811" />
      <stop
         id="stop3807"
         offset="1"
         style="stop-color:#d5def0;stop-opacity:1" />
    </linearGradient>
    <linearGradient
       inkscape:collect="always"
       xlink:href="#linearGradient3795"
       id="linearGradient3801"
       x1="23.204165"
       y1="1053.158"
       x2="23.204165"
       y2="1004.8474"
       gradientUnits="userSpaceOnUse"
       gradientTransform="translate(0,-2056.7244)" />
    <linearGradient
       inkscape:collect="always"
       xlink:href="#linearGradient3795"
       id="linearGradient3859"
       x1="26.192217"
       y1="1024.0002"
       x2="28.641211"
       y2="1024.0002"
       gradientUnits="userSpaceOnUse" />
    <linearGradient
       inkscape:collect="always"
       xlink:href="#linearGradient3795"
       id="linearGradient3867"
       gradientUnits="userSpaceOnUse"
       x1="26.192217"
       y1="1024.0002"
       x2="28.641211"
       y2="1024.0002" />
    <linearGradient
       inkscape:collect="always"
       xlink:href="#linearGradient3795"
       id="linearGradient3869"
       gradientUnits="userSpaceOnUse"
       x1="26.192217"
       y1="1024.0002"
       x2="28.641211"
       y2="1024.0002" />
    <linearGradient
       inkscape:collect="always"
       xlink:href="#linearGradient3795"
       id="linearGradient3871"
       gradientUnits="userSpaceOnUse"
       x1="26.192217"
       y1="1024.0002"
       x2="28.641211"
       y2="1024.0002" />
    <linearGradient
       inkscape:collect="always"
       xlink:href="#linearGradient3795"
       id="linearGradient3877"
       gradientUnits="userSpaceOnUse"
       x1="29.718235"
       y1="1027.8575"
       x2="22.811094"
       y2="1015.5485" />
    <linearGradient
       inkscape:collect="always"
       xlink:href="#linearGradient3795"
       id="linearGradient3879"
       gradientUnits="userSpaceOnUse"
       x1="17.196316"
       y1="1006.2238"
       x2="31.448042"
       y2="1030.9086" />
    <linearGradient
       inkscape:collect="always"
       xlink:href="#linearGradient3795"
       id="linearGradient3895"
       x1="21.973417"
       y1="34.43922"
       x2="42.475323"
       y2="24.798252"
       gradientUnits="userSpaceOnUse" />
    <linearGradient
       y2="1004.8474"
       x2="23.204165"
       y1="1053.158"
       x1="23.204165"
       gradientUnits="userSpaceOnUse"
       id="linearGradient3036"
       xlink:href="#linearGradient3881"
       inkscape:collect="always"
       gradientTransform="translate(0,1.7382813e-5)" />
    <linearGradient
       id="linearGradient3881">
      <stop
         style="stop-color:#474845;stop-opacity:1;"
         offset="0"
         id="stop3883" />
      <stop
         style="stop-color:#838681;stop-opacity:1"
         offset="1"
         id="stop3885" />
    </linearGradient>
    <linearGradient
       y2="1004.8474"
       x2="23.204165"
       y1="1053.158"
       x1="23.204165"
       gradientUnits="userSpaceOnUse"
       id="linearGradient3055"
       xlink:href="#linearGradient3881"
       inkscape:collect="always"
       gradientTransform="translate(0,3.4382813e-5)" />
  </defs>
  <sodipodi:namedview
     id="base"
     pagecolor="#ffffff"
     bordercolor="#666666"
     borderopacity="1.0"
     inkscape:pageopacity="0.0"
     inkscape:pageshadow="2"
     inkscape:zoom="22.627417"
     inkscape:cx="33.136803"
     inkscape:cy="20.984941"
     inkscape:document-units="px"
     inkscape:current-layer="layer1"
     showgrid="true"
     inkscape:window-width="1366"
     inkscape:window-height="712"
     inkscape:window-x="0"
     inkscape:window-y="27"
     inkscape:window-maximized="1"
     showguides="true"
     inkscape:guide-bbox="true">
    <inkscape:grid
       type="xygrid"
       id="grid3850" />
  </sodipodi:namedview>
  <metadata
     id="metadata7">
    <rdf:RDF>
      <cc:Work
         rdf:about="">
        <dc:format>image/svg+xml</dc:format>
        <dc:type
           rdf:resource="http://purl.org/dc/dcmitype/StillImage" />
        <dc:title />
      </cc:Work>
    </rdf:RDF>
  </metadata>
  <g
     inkscape:label="Capa 1"
     inkscape:groupmode="layer"
     id="layer1"
     transform="translate(0,-1004.3622)">
    <rect
       rx="1.7286626"
       style="fill:#919fa9;fill-opacity:1;stroke:none"
       id="rect3017"
       width="25.871502"
       height="25.91518"
       x="8.0883894"
       y="1013.4443"
       ry="1.7286626" />
    <path
       style="fill:#919fa9;stroke:none;fill-opacity:1"
       d="m 38.930708,1038.6782 -0.04432,-18.549 0.603656,-1.4968 0.478482,1.4125 L 40,1038.6782 z"
       id="path3021"
       inkscape:connector-curvature="0"
       sodipodi:nodetypes="cccccc" />
    <path
       style="font-size:medium;font-style:normal;font-variant:normal;font-weight:normal;font-stretch:normal;text-indent:0;text-align:start;text-decoration:none;line-height:normal;letter-spacing:normal;word-spacing:normal;text-transform:none;direction:ltr;block-progression:tb;writing-mode:lr-tb;text-anchor:start;baseline-shift:baseline;color:#000000;fill:#919fa9;fill-opacity:1;stroke:none;stroke-width:0.33080380999999998;marker:none;visibility:visible;display:inline;overflow:visible;enable-background:accumulate;font-family:Sans;-inkscape-font-specification:Sans"
       d="m 39.15625,1038.4062 c -0.01971,0.2366 0.04246,0.6368 0.09375,1.0313 0.04261,0.3278 0.04839,0.5346 0.0625,0.625 -0.07396,0.037 -0.146815,0.086 -0.3125,0.1563 -0.11598,0.049 -0.2441,0.096 -0.34375,0.125 -0.09965,0.029 -0.177428,0.025 -0.15625,0.031 -0.01598,-0.014 -0.03272,-0.03 -0.0625,-0.062 -0.05956,-0.066 -0.157207,-0.1746 -0.25,-0.2813 -0.185586,-0.2133 -0.415542,-0.4736 -0.6875,-0.6874 -0.271958,-0.2139 -0.568888,-0.3902 -0.90625,-0.375 -0.337362,0.015 -0.685882,0.2574 -0.9375,0.7187 -0.486121,0.8912 -0.443038,1.4984 -0.5,1.8437 -0.02848,0.1727 -0.07393,0.2604 -0.1875,0.3438 -0.113569,0.083 -0.337789,0.1577 -0.75,0.2188 -0.864943,0.1281 -1.545898,0.3774 -2.03125,0.4062 -0.242676,0.014 -0.449745,-0.017 -0.59375,-0.125 -0.144005,-0.1075 -0.247558,-0.3011 -0.34375,-0.6562 -0.394295,-1.4559 0.03125,-2.5 0.03125,-2.5 l -0.3125,-0.125 c 0,0 -0.483067,1.1658 -0.0625,2.7187 0.107523,0.397 0.276731,0.6771 0.5,0.8437 0.223269,0.1667 0.49505,0.2045 0.78125,0.1876 0.572399,-0.034 1.266291,-0.2837 2.09375,-0.4063 0.43399,-0.064 0.682996,-0.1716 0.875,-0.3125 0.192004,-0.1409 0.2783,-0.3239 0.3125,-0.5312 0.0684,-0.4147 0.0459,-0.9175 0.5,-1.75 0.218494,-0.4006 0.414878,-0.5219 0.625,-0.5313 0.210122,-0.01 0.477502,0.092 0.71875,0.2813 0.241248,0.1896 0.443312,0.4474 0.625,0.6562 0.09084,0.1044 0.18334,0.2078 0.25,0.2812 0.03333,0.037 0.06359,0.066 0.09375,0.094 0.03016,0.027 0.05491,0.042 0.125,0.062 0.130871,0.037 0.223035,0 0.34375,-0.031 0.120715,-0.035 0.252006,-0.072 0.375,-0.125 0.245988,-0.1048 0.46875,-0.2187 0.46875,-0.2187 l 0.09375,-0.062 0,-0.125 c 0,0 -0.07443,-0.3297 -0.125,-0.7188 -0.05057,-0.389 -0.07413,-0.8604 -0.0625,-1 l -0.34375,0 z"
       id="path3025"
       inkscape:connector-curvature="0" />
  </g>
</svg>
