<?xml version="1.0" encoding="UTF-8" standalone="no"?>
<!-- Created with Inkscape (http://www.inkscape.org/) -->

<svg
   xmlns:dc="http://purl.org/dc/elements/1.1/"
   xmlns:cc="http://creativecommons.org/ns#"
   xmlns:rdf="http://www.w3.org/1999/02/22-rdf-syntax-ns#"
   xmlns:svg="http://www.w3.org/2000/svg"
   xmlns="http://www.w3.org/2000/svg"
   xmlns:xlink="http://www.w3.org/1999/xlink"
   xmlns:sodipodi="http://sodipodi.sourceforge.net/DTD/sodipodi-0.dtd"
   xmlns:inkscape="http://www.inkscape.org/namespaces/inkscape"
   width="48"
   height="48"
   id="svg2"
   version="1.1"
   inkscape:version="0.48.4 r9939"
   sodipodi:docname="input-keyboard.svg">
  <defs
     id="defs4">
    <linearGradient
       id="linearGradient3795">
      <stop
         style="stop-color:#68b89c;stop-opacity:1;"
         offset="0"
         id="stop3797" />
      <stop
         style="stop-color:#309784;stop-opacity:1;"
         offset="1"
         id="stop3799" />
    </linearGradient>
    <linearGradient
       id="linearGradient3698">
      <stop
         id="stop3700"
         offset="0"
         style="stop-color:#96d0e1;stop-opacity:1" />
      <stop
         style="stop-color:#89b7e1;stop-opacity:1"
         offset="0.67819428"
         id="stop3706" />
      <stop
         id="stop3702"
         offset="1"
         style="stop-color:#699dd3;stop-opacity:1" />
    </linearGradient>
    <linearGradient
       id="linearGradient3708">
      <stop
         id="stop3710"
         offset="0"
         style="stop-color:#658db6;stop-opacity:1" />
      <stop
         style="stop-color:#527fab;stop-opacity:1;"
         offset="0.76777935"
         id="stop3716" />
      <stop
         id="stop3712"
         offset="1"
         style="stop-color:#4071a0;stop-opacity:1" />
    </linearGradient>
    <linearGradient
       id="linearGradient3750">
      <stop
         style="stop-color:#d0e2f1;stop-opacity:1"
         offset="0"
         id="stop3752" />
      <stop
         id="stop3756"
         offset="0.85580856"
         style="stop-color:#cadef0;stop-opacity:1" />
      <stop
         style="stop-color:#95bee3;stop-opacity:1"
         offset="1"
         id="stop3754" />
    </linearGradient>
    <linearGradient
       id="linearGradient3803">
      <stop
         id="stop3805"
         offset="0"
         style="stop-color:#d7def0;stop-opacity:1;" />
      <stop
         style="stop-color:#ffffff;stop-opacity:1"
         offset="0.5"
         id="stop3811" />
      <stop
         id="stop3807"
         offset="1"
         style="stop-color:#d5def0;stop-opacity:1" />
    </linearGradient>
    <linearGradient
       inkscape:collect="always"
       xlink:href="#linearGradient3881"
       id="linearGradient3801"
       x1="42.649601"
       y1="1005.2031"
       x2="42.649601"
       y2="1052.2235"
       gradientUnits="userSpaceOnUse"
       gradientTransform="translate(0,-2056.7244)" />
    <linearGradient
       inkscape:collect="always"
       xlink:href="#linearGradient3795"
       id="linearGradient3859"
       x1="26.192217"
       y1="1024.0002"
       x2="28.641211"
       y2="1024.0002"
       gradientUnits="userSpaceOnUse" />
    <linearGradient
       inkscape:collect="always"
       xlink:href="#linearGradient3795"
       id="linearGradient3867"
       gradientUnits="userSpaceOnUse"
       x1="26.192217"
       y1="1024.0002"
       x2="28.641211"
       y2="1024.0002" />
    <linearGradient
       inkscape:collect="always"
       xlink:href="#linearGradient3795"
       id="linearGradient3869"
       gradientUnits="userSpaceOnUse"
       x1="26.192217"
       y1="1024.0002"
       x2="28.641211"
       y2="1024.0002" />
    <linearGradient
       inkscape:collect="always"
       xlink:href="#linearGradient3795"
       id="linearGradient3871"
       gradientUnits="userSpaceOnUse"
       x1="26.192217"
       y1="1024.0002"
       x2="28.641211"
       y2="1024.0002" />
    <linearGradient
       inkscape:collect="always"
       xlink:href="#linearGradient3795"
       id="linearGradient3877"
       gradientUnits="userSpaceOnUse"
       x1="29.718235"
       y1="1027.8575"
       x2="22.811094"
       y2="1015.5485" />
    <linearGradient
       inkscape:collect="always"
       xlink:href="#linearGradient3795"
       id="linearGradient3879"
       gradientUnits="userSpaceOnUse"
       x1="17.196316"
       y1="1006.2238"
       x2="31.448042"
       y2="1030.9086" />
    <linearGradient
       inkscape:collect="always"
       xlink:href="#linearGradient3795"
       id="linearGradient3895"
       x1="21.973417"
       y1="34.43922"
       x2="42.475323"
       y2="24.798252"
       gradientUnits="userSpaceOnUse" />
    <linearGradient
       inkscape:collect="always"
       xlink:href="#linearGradient3881"
       id="linearGradient3801-3"
       x1="45"
       y1="1004.3622"
       x2="45"
       y2="1054.3622"
       gradientUnits="userSpaceOnUse"
       gradientTransform="translate(0,-2056.7244)" />
    <linearGradient
       id="linearGradient3881">
      <stop
         style="stop-color:#474845;stop-opacity:1;"
         offset="0"
         id="stop3883" />
      <stop
         style="stop-color:#838681;stop-opacity:1"
         offset="1"
         id="stop3885" />
    </linearGradient>
    <linearGradient
       y2="1054.3622"
       x2="45"
       y1="1004.3622"
       x1="45"
       gradientTransform="translate(-120.16652,-2056.6828)"
       gradientUnits="userSpaceOnUse"
       id="linearGradient3034"
       xlink:href="#linearGradient3881"
       inkscape:collect="always" />
  </defs>
  <sodipodi:namedview
     id="base"
     pagecolor="#ffffff"
     bordercolor="#666666"
     borderopacity="1.0"
     inkscape:pageopacity="0.0"
     inkscape:pageshadow="2"
     inkscape:zoom="8.0000004"
     inkscape:cx="-15.489374"
     inkscape:cy="27.14481"
     inkscape:document-units="px"
     inkscape:current-layer="layer1"
     showgrid="true"
     inkscape:window-width="1366"
     inkscape:window-height="712"
     inkscape:window-x="0"
     inkscape:window-y="27"
     inkscape:window-maximized="1">
    <inkscape:grid
       type="xygrid"
       id="grid3850" />
  </sodipodi:namedview>
  <metadata
     id="metadata7">
    <rdf:RDF>
      <cc:Work
         rdf:about="">
        <dc:format>image/svg+xml</dc:format>
        <dc:type
           rdf:resource="http://purl.org/dc/dcmitype/StillImage" />
        <dc:title></dc:title>
      </cc:Work>
    </rdf:RDF>
  </metadata>
  <g
     inkscape:label="Capa 1"
     inkscape:groupmode="layer"
     id="layer1"
     transform="translate(0,-1004.3622)">
    <path
       style="font-size:medium;font-style:normal;font-variant:normal;font-weight:normal;font-stretch:normal;text-indent:0;text-align:start;text-decoration:none;line-height:normal;letter-spacing:normal;word-spacing:normal;text-transform:none;direction:ltr;block-progression:tb;writing-mode:lr-tb;text-anchor:start;baseline-shift:baseline;color:#000000;fill:#919fa9;fill-opacity:1;stroke:none;stroke-width:2;marker:none;visibility:visible;display:inline;overflow:visible;enable-background:accumulate;font-family:Sans;-inkscape-font-specification:Sans"
       d="M 14.3125 12 L 14.3125 13 L 14 13 L 14 16 L 14.40625 16 C 14.420933 16.213961 14.452939 16.421325 14.53125 16.65625 C 14.687873 17.12615 15.024118 17.5957 15.59375 17.9375 C 16.163382 18.2793 16.9375 18.5 18 18.5 C 18.666667 18.5 19.24603 18.18115 19.8125 17.78125 C 20.37897 17.38145 20.950197 16.8648 21.5625 16.375 C 22.787106 15.3953 24.166667 14.5 26 14.5 C 26.833333 14.5 27.40775 14.86665 27.90625 15.53125 C 28.40475 16.19595 28.759511 17.13175 29 18.09375 C 29.28354 19.227905 29.384295 20.243325 29.4375 21 L 10.8125 21 C 9.2703386 21 8 22.2703 8 23.8125 L 8 34.1875 C 8 35.7297 9.2703386 37 10.8125 37 L 37.1875 37 C 38.729661 37 40 35.7297 40 34.1875 L 40 23.8125 C 40 22.2703 38.729661 21 37.1875 21 L 30.4375 21 C 30.394778 20.212585 30.31634 19.140374 30 17.875 C 29.740489 16.837 29.34525 15.7728 28.71875 14.9375 C 28.09225 14.1022 27.166667 13.5 26 13.5 C 23.833333 13.5 22.212894 14.57335 20.9375 15.59375 C 20.299803 16.10385 19.74603 16.61855 19.25 16.96875 C 18.75397 17.31885 18.333333 17.5 18 17.5 C 17.0625 17.5 16.461618 17.31445 16.09375 17.09375 C 15.725882 16.87295 15.562127 16.62385 15.46875 16.34375 C 15.428881 16.224135 15.386275 16.118966 15.375 16 L 16 16 L 16 13 L 15.65625 13 L 15.65625 12 L 14.3125 12 z M 10.8125 23 L 37.1875 23 C 37.656256 23 38 23.3437 38 23.8125 L 38 34.1875 C 38 34.6563 37.656256 35 37.1875 35 L 10.8125 35 C 10.343744 35 10 34.6563 10 34.1875 L 10 23.8125 C 10 23.3437 10.343744 23 10.8125 23 z M 11 24 L 11 26 L 12 26 L 12 24 L 11 24 z M 13 24 L 13 26 L 15 26 L 15 24 L 13 24 z M 16 24 L 16 26 L 18 26 L 18 24 L 16 24 z M 19 24 L 19 26 L 21 26 L 21 24 L 19 24 z M 22 24 L 22 26 L 24 26 L 24 24 L 22 24 z M 25 24 L 25 26 L 27 26 L 27 24 L 25 24 z M 28 24 L 28 26 L 30 26 L 30 24 L 28 24 z M 31 24 L 31 26 L 35 26 L 35 24 L 31 24 z M 36 24 L 36 26 L 37 26 L 37 24 L 36 24 z M 11 27 L 11 28 L 13 28 L 13 27 L 11 27 z M 14 27 L 14 28 L 16 28 L 16 27 L 14 27 z M 17 27 L 17 28 L 19 28 L 19 27 L 17 27 z M 20 27 L 20 28 L 22 28 L 22 27 L 20 27 z M 23 27 L 23 28 L 25 28 L 25 27 L 23 27 z M 26 27 L 26 28 L 28 28 L 28 27 L 26 27 z M 29 27 L 29 28 L 31 28 L 31 27 L 29 27 z M 32 27 L 32 28 L 33 28 L 33 31 L 35 31 L 35 27 L 33 27 L 32 27 z M 36 27 L 36 28 L 37 28 L 37 27 L 36 27 z M 11 29 L 11 31 L 14 31 L 14 29 L 11 29 z M 15 29 L 15 31 L 17 31 L 17 29 L 15 29 z M 18 29 L 18 31 L 20 31 L 20 29 L 18 29 z M 21 29 L 21 31 L 23 31 L 23 29 L 21 29 z M 24 29 L 24 31 L 26 31 L 26 29 L 24 29 z M 27 29 L 27 31 L 29 31 L 29 29 L 27 29 z M 30 29 L 30 31 L 32 31 L 32 29 L 30 29 z M 36 29 L 36 31 L 37 31 L 37 29 L 36 29 z M 11 32 L 11 34 L 13 34 L 13 32 L 11 32 z M 14 32 L 14 34 L 16 34 L 16 32 L 14 32 z M 17 32 L 17 34 L 30 34 L 30 32 L 17 32 z M 31 32 L 31 34 L 33 34 L 33 32 L 31 32 z M 34 32 L 34 34 L 35 34 L 35 32 L 34 32 z M 36 32 L 36 34 L 37 34 L 37 32 L 36 32 z "
       transform="translate(0,1004.3622)"
       id="rect3124" />
  </g>
</svg>
