<?xml version="1.0" encoding="UTF-8" standalone="no"?>
<!-- Created with Inkscape (http://www.inkscape.org/) -->

<svg
   xmlns:dc="http://purl.org/dc/elements/1.1/"
   xmlns:cc="http://creativecommons.org/ns#"
   xmlns:rdf="http://www.w3.org/1999/02/22-rdf-syntax-ns#"
   xmlns:svg="http://www.w3.org/2000/svg"
   xmlns="http://www.w3.org/2000/svg"
   xmlns:xlink="http://www.w3.org/1999/xlink"
   xmlns:sodipodi="http://sodipodi.sourceforge.net/DTD/sodipodi-0.dtd"
   xmlns:inkscape="http://www.inkscape.org/namespaces/inkscape"
   width="48"
   height="48"
   id="svg2"
   version="1.1"
   inkscape:version="0.48.3.1 r9886"
   sodipodi:docname="media-tape.svg">
  <defs
     id="defs4">
    <linearGradient
       id="linearGradient3795">
      <stop
         style="stop-color:#cc9f52;stop-opacity:1;"
         offset="0"
         id="stop3797" />
      <stop
         style="stop-color:#e18559;stop-opacity:1;"
         offset="1"
         id="stop3799" />
    </linearGradient>
    <linearGradient
       inkscape:collect="always"
       id="linearGradient3914">
      <stop
         style="stop-color:#59b3e1;stop-opacity:1;"
         offset="0"
         id="stop3916" />
      <stop
         style="stop-color:#59b3e1;stop-opacity:0;"
         offset="1"
         id="stop3918" />
    </linearGradient>
    <linearGradient
       id="linearGradient3698">
      <stop
         id="stop3700"
         offset="0"
         style="stop-color:#96d0e1;stop-opacity:1" />
      <stop
         style="stop-color:#89b7e1;stop-opacity:1"
         offset="0.67819428"
         id="stop3706" />
      <stop
         id="stop3702"
         offset="1"
         style="stop-color:#699dd3;stop-opacity:1" />
    </linearGradient>
    <linearGradient
       id="linearGradient3708">
      <stop
         id="stop3710"
         offset="0"
         style="stop-color:#658db6;stop-opacity:1" />
      <stop
         style="stop-color:#527fab;stop-opacity:1;"
         offset="0.76777935"
         id="stop3716" />
      <stop
         id="stop3712"
         offset="1"
         style="stop-color:#4071a0;stop-opacity:1" />
    </linearGradient>
    <linearGradient
       id="linearGradient3750">
      <stop
         style="stop-color:#d0e2f1;stop-opacity:1"
         offset="0"
         id="stop3752" />
      <stop
         id="stop3756"
         offset="0.85580856"
         style="stop-color:#cadef0;stop-opacity:1" />
      <stop
         style="stop-color:#95bee3;stop-opacity:1"
         offset="1"
         id="stop3754" />
    </linearGradient>
    <linearGradient
       id="linearGradient3803">
      <stop
         id="stop3805"
         offset="0"
         style="stop-color:#d7def0;stop-opacity:1;" />
      <stop
         style="stop-color:#ffffff;stop-opacity:1"
         offset="0.5"
         id="stop3811" />
      <stop
         id="stop3807"
         offset="1"
         style="stop-color:#d5def0;stop-opacity:1" />
    </linearGradient>
    <linearGradient
       inkscape:collect="always"
       xlink:href="#linearGradient3914"
       id="linearGradient3920"
       x1="6.8000002"
       y1="25.0625"
       x2="45.325001"
       y2="25.0625"
       gradientUnits="userSpaceOnUse" />
    <linearGradient
       inkscape:collect="always"
       xlink:href="#linearGradient3795"
       id="linearGradient3801"
       x1="23.204165"
       y1="1053.158"
       x2="23.204165"
       y2="1004.8474"
       gradientUnits="userSpaceOnUse" />
    <linearGradient
       inkscape:collect="always"
       xlink:href="#linearGradient3881"
       id="linearGradient3801-0"
       x1="23.204165"
       y1="1053.158"
       x2="23.204165"
       y2="1004.8474"
       gradientUnits="userSpaceOnUse" />
    <linearGradient
       id="linearGradient3881">
      <stop
         style="stop-color:#474845;stop-opacity:1;"
         offset="0"
         id="stop3883" />
      <stop
         style="stop-color:#838681;stop-opacity:1"
         offset="1"
         id="stop3885" />
    </linearGradient>
    <linearGradient
       y2="1004.8474"
       x2="23.204165"
       y1="1053.158"
       x1="23.204165"
       gradientUnits="userSpaceOnUse"
       id="linearGradient3036"
       xlink:href="#linearGradient3881"
       inkscape:collect="always"
       gradientTransform="translate(0,1.7382813e-5)" />
  </defs>
  <sodipodi:namedview
     id="base"
     pagecolor="#ffffff"
     bordercolor="#666666"
     borderopacity="1.0"
     inkscape:pageopacity="0.0"
     inkscape:pageshadow="2"
     inkscape:zoom="11.313709"
     inkscape:cx="33.757706"
     inkscape:cy="20.350393"
     inkscape:document-units="px"
     inkscape:current-layer="layer1"
     showgrid="true"
     inkscape:window-width="1280"
     inkscape:window-height="721"
     inkscape:window-x="0"
     inkscape:window-y="22"
     inkscape:window-maximized="1"
     showguides="true"
     inkscape:guide-bbox="true">
    <inkscape:grid
       type="xygrid"
       id="grid3803" />
  </sodipodi:namedview>
  <metadata
     id="metadata7">
    <rdf:RDF>
      <cc:Work
         rdf:about="">
        <dc:format>image/svg+xml</dc:format>
        <dc:type
           rdf:resource="http://purl.org/dc/dcmitype/StillImage" />
        <dc:title></dc:title>
      </cc:Work>
    </rdf:RDF>
  </metadata>
  <g
     inkscape:label="Capa 1"
     inkscape:groupmode="layer"
     id="layer1"
     transform="translate(0,-1004.3622)">
    <rect
       style="fill:url(#linearGradient3036);fill-opacity:1;stroke:none"
       id="rect2991-6"
       width="48"
       height="48"
       x="0"
       y="1004.3622"
       ry="1.9445436" />
    <g
       id="g3022"
       transform="translate(-39.597979,0)">
      <g
         transform="translate(1.216506,-1.7381389)"
         id="g3795">
        <path
           sodipodi:nodetypes="ccccc"
           style="fill:none;stroke:#ffffff;stroke-width:0.5;stroke-linecap:butt;stroke-linejoin:miter;stroke-miterlimit:4;stroke-opacity:1;stroke-dasharray:none"
           d="m 15,16.875 -2.184816,14.218428 19.934816,0 L 30,16.867078 z"
           id="path3014"
           inkscape:connector-curvature="0"
           transform="translate(0,1004.3622)" />
        <path
           style="fill:none;stroke:#ffffff;stroke-width:0.5;stroke-linecap:butt;stroke-linejoin:miter;stroke-miterlimit:4;stroke-opacity:1;stroke-dasharray:none"
           d="m 12.741095,31.581214 0,3.027951 20.084798,0 0,-3.027951 z"
           id="path3018"
           inkscape:connector-curvature="0"
           sodipodi:nodetypes="ccccc"
           transform="translate(0,1004.3622)" />
      </g>
      <path
         sodipodi:nodetypes="ccccc"
         inkscape:connector-curvature="0"
         id="path3799"
         d="m 24.860389,1036.3494 -9.148194,0 0,-0.9281 c 2.96581,0 6.426744,0 9.148195,0 z"
         style="fill:none;stroke:#ffffff;stroke-width:0.40000001;stroke-linecap:butt;stroke-linejoin:miter;stroke-miterlimit:4;stroke-opacity:1;stroke-dasharray:none" />
      <path
         inkscape:connector-curvature="0"
         id="path3801"
         d="m 26.583962,1036.3494 4.507805,0 -2.61e-4,-0.6472 -4.507544,0 z"
         style="fill:none;stroke:#ffffff;stroke-width:0.40000001;stroke-linecap:butt;stroke-linejoin:miter;stroke-miterlimit:4;stroke-opacity:1;stroke-dasharray:none" />
    </g>
    <path
       style="fill:#ffffff;stroke:none;fill-opacity:1;opacity:0.15"
       d="M 0 0 L 0 48 L 16.78125 48 L 29.625 0 L 0 0 z "
       transform="translate(0,1004.3622)"
       id="rect3790" />
    <path
       style="fill:none;stroke:#ffffff;stroke-width:2;stroke-miterlimit:4;stroke-opacity:1"
       d="m 10.421053,1019.3622 27.157894,0 c 0.787263,0 1.421053,0.6338 1.421053,1.421 l 0,15.1579 c 0,0.7873 -0.63379,1.4211 -1.421053,1.4211 l -2.578947,0 0,1 -22,0 0,-1 -2.578947,0 C 9.6337895,1037.3622 9,1036.7284 9,1035.9411 l 0,-15.1579 c 0,-0.7872 0.6337895,-1.421 1.421053,-1.421 z"
       id="rect5292"
       inkscape:connector-curvature="0"
       sodipodi:nodetypes="sssssccccssss" />
    <path
       style="fill:#ffffff;fill-opacity:1;stroke:none"
       d="M 30 18 C 27.238576 18 25 20.238576 25 23 C 25 25.761424 27.238576 28 30 28 C 32.761424 28 35 25.761424 35 23 C 35 20.238576 32.761424 18 30 18 z M 30 21 C 31.104569 21 32 21.895431 32 23 C 32 24.104569 31.104569 25 30 25 C 28.895431 25 28 24.104569 28 23 C 28 21.895431 28.895431 21 30 21 z "
       transform="translate(0,1004.3622)"
       id="path6062" />
    <path
       style="fill:#ffffff;fill-opacity:1;stroke:none"
       d="M 18 20 C 16.343146 20 15 21.343146 15 23 C 15 24.656854 16.343146 26 18 26 C 19.656854 26 21 24.656854 21 23 C 21 21.343146 19.656854 20 18 20 z M 18 21 C 19.104569 21 20 21.895431 20 23 C 20 24.104569 19.104569 25 18 25 C 16.895431 25 16 24.104569 16 23 C 16 21.895431 16.895431 21 18 21 z "
       transform="translate(0,1004.3622)"
       id="path6062-4" />
    <path
       style="fill:none;stroke:#ffffff;stroke-width:1;stroke-linecap:butt;stroke-linejoin:round;stroke-miterlimit:4;stroke-opacity:1;stroke-dasharray:none"
       d="M 34.46967,1026.9645 35,1038.3622 c 0,0 1,0 0,0 -1,0 -22,0 -22,0 l 2.513864,-11.3977"
       id="path6082"
       inkscape:connector-curvature="0"
       sodipodi:nodetypes="ccscc" />
    <path
       sodipodi:type="arc"
       style="fill:#ffffff;fill-opacity:1;stroke:none"
       id="path6107"
       sodipodi:cx="11.5"
       sodipodi:cy="17.5"
       sodipodi:rx="0.5"
       sodipodi:ry="0.5"
       d="m 12,17.5 a 0.5,0.5 0 1 1 -1,0 0.5,0.5 0 1 1 1,0 z"
       transform="translate(0,1004.3622)" />
    <path
       transform="translate(25,1004.3622)"
       sodipodi:type="arc"
       style="fill:#ffffff;fill-opacity:1;stroke:none"
       id="path6107-0"
       sodipodi:cx="11.5"
       sodipodi:cy="17.5"
       sodipodi:rx="0.5"
       sodipodi:ry="0.5"
       d="m 12,17.5 a 0.5,0.5 0 1 1 -1,0 0.5,0.5 0 1 1 1,0 z" />
    <path
       transform="translate(0,1017.3622)"
       sodipodi:type="arc"
       style="fill:#ffffff;fill-opacity:1;stroke:none"
       id="path6107-9"
       sodipodi:cx="11.5"
       sodipodi:cy="17.5"
       sodipodi:rx="0.5"
       sodipodi:ry="0.5"
       d="m 12,17.5 a 0.5,0.5 0 1 1 -1,0 0.5,0.5 0 1 1 1,0 z" />
    <path
       transform="translate(25,1017.3622)"
       sodipodi:type="arc"
       style="fill:#ffffff;fill-opacity:1;stroke:none"
       id="path6107-4"
       sodipodi:cx="11.5"
       sodipodi:cy="17.5"
       sodipodi:rx="0.5"
       sodipodi:ry="0.5"
       d="m 12,17.5 a 0.5,0.5 0 1 1 -1,0 0.5,0.5 0 1 1 1,0 z" />
    <rect
       style="fill:#ffffff;fill-opacity:1;stroke:none"
       id="rect6141"
       width="14"
       height="2.0000174"
       x="17"
       y="1034.3622"
       rx="0.875" />
  </g>
</svg>
