<?xml version="1.0" encoding="UTF-8" standalone="no"?>
<!-- Created with Inkscape (http://www.inkscape.org/) -->

<svg
   xmlns:dc="http://purl.org/dc/elements/1.1/"
   xmlns:cc="http://creativecommons.org/ns#"
   xmlns:rdf="http://www.w3.org/1999/02/22-rdf-syntax-ns#"
   xmlns:svg="http://www.w3.org/2000/svg"
   xmlns="http://www.w3.org/2000/svg"
   xmlns:xlink="http://www.w3.org/1999/xlink"
   xmlns:sodipodi="http://sodipodi.sourceforge.net/DTD/sodipodi-0.dtd"
   xmlns:inkscape="http://www.inkscape.org/namespaces/inkscape"
   width="48"
   height="48"
   id="svg2"
   version="1.1"
   inkscape:version="0.48.4 r9939"
   sodipodi:docname="media-tape.svg">
  <defs
     id="defs4">
    <linearGradient
       id="linearGradient3795">
      <stop
         style="stop-color:#cc9f52;stop-opacity:1;"
         offset="0"
         id="stop3797" />
      <stop
         style="stop-color:#e18559;stop-opacity:1;"
         offset="1"
         id="stop3799" />
    </linearGradient>
    <linearGradient
       inkscape:collect="always"
       id="linearGradient3914">
      <stop
         style="stop-color:#59b3e1;stop-opacity:1;"
         offset="0"
         id="stop3916" />
      <stop
         style="stop-color:#59b3e1;stop-opacity:0;"
         offset="1"
         id="stop3918" />
    </linearGradient>
    <linearGradient
       id="linearGradient3698">
      <stop
         id="stop3700"
         offset="0"
         style="stop-color:#96d0e1;stop-opacity:1" />
      <stop
         style="stop-color:#89b7e1;stop-opacity:1"
         offset="0.67819428"
         id="stop3706" />
      <stop
         id="stop3702"
         offset="1"
         style="stop-color:#699dd3;stop-opacity:1" />
    </linearGradient>
    <linearGradient
       id="linearGradient3708">
      <stop
         id="stop3710"
         offset="0"
         style="stop-color:#658db6;stop-opacity:1" />
      <stop
         style="stop-color:#527fab;stop-opacity:1;"
         offset="0.76777935"
         id="stop3716" />
      <stop
         id="stop3712"
         offset="1"
         style="stop-color:#4071a0;stop-opacity:1" />
    </linearGradient>
    <linearGradient
       id="linearGradient3750">
      <stop
         style="stop-color:#d0e2f1;stop-opacity:1"
         offset="0"
         id="stop3752" />
      <stop
         id="stop3756"
         offset="0.85580856"
         style="stop-color:#cadef0;stop-opacity:1" />
      <stop
         style="stop-color:#95bee3;stop-opacity:1"
         offset="1"
         id="stop3754" />
    </linearGradient>
    <linearGradient
       id="linearGradient3803">
      <stop
         id="stop3805"
         offset="0"
         style="stop-color:#d7def0;stop-opacity:1;" />
      <stop
         style="stop-color:#ffffff;stop-opacity:1"
         offset="0.5"
         id="stop3811" />
      <stop
         id="stop3807"
         offset="1"
         style="stop-color:#d5def0;stop-opacity:1" />
    </linearGradient>
    <linearGradient
       inkscape:collect="always"
       xlink:href="#linearGradient3914"
       id="linearGradient3920"
       x1="6.8000002"
       y1="25.0625"
       x2="45.325001"
       y2="25.0625"
       gradientUnits="userSpaceOnUse" />
    <linearGradient
       inkscape:collect="always"
       xlink:href="#linearGradient3795"
       id="linearGradient3801"
       x1="23.204165"
       y1="1053.158"
       x2="23.204165"
       y2="1004.8474"
       gradientUnits="userSpaceOnUse" />
    <linearGradient
       inkscape:collect="always"
       xlink:href="#linearGradient3881"
       id="linearGradient3801-0"
       x1="23.204165"
       y1="1053.158"
       x2="23.204165"
       y2="1004.8474"
       gradientUnits="userSpaceOnUse" />
    <linearGradient
       id="linearGradient3881">
      <stop
         style="stop-color:#474845;stop-opacity:1;"
         offset="0"
         id="stop3883" />
      <stop
         style="stop-color:#838681;stop-opacity:1"
         offset="1"
         id="stop3885" />
    </linearGradient>
    <linearGradient
       y2="1004.8474"
       x2="23.204165"
       y1="1053.158"
       x1="23.204165"
       gradientUnits="userSpaceOnUse"
       id="linearGradient3036"
       xlink:href="#linearGradient3881"
       inkscape:collect="always"
       gradientTransform="translate(0,1.7382813e-5)" />
  </defs>
  <sodipodi:namedview
     id="base"
     pagecolor="#ffffff"
     bordercolor="#666666"
     borderopacity="1.0"
     inkscape:pageopacity="0.0"
     inkscape:pageshadow="2"
     inkscape:zoom="5.6568545"
     inkscape:cx="11.396967"
     inkscape:cy="30.086564"
     inkscape:document-units="px"
     inkscape:current-layer="layer1"
     showgrid="true"
     inkscape:window-width="1366"
     inkscape:window-height="712"
     inkscape:window-x="0"
     inkscape:window-y="27"
     inkscape:window-maximized="1"
     showguides="true"
     inkscape:guide-bbox="true">
    <inkscape:grid
       type="xygrid"
       id="grid3803" />
  </sodipodi:namedview>
  <metadata
     id="metadata7">
    <rdf:RDF>
      <cc:Work
         rdf:about="">
        <dc:format>image/svg+xml</dc:format>
        <dc:type
           rdf:resource="http://purl.org/dc/dcmitype/StillImage" />
        <dc:title />
      </cc:Work>
    </rdf:RDF>
  </metadata>
  <g
     inkscape:label="Capa 1"
     inkscape:groupmode="layer"
     id="layer1"
     transform="translate(0,-1004.3622)">
    <path
       style="font-size:medium;font-style:normal;font-variant:normal;font-weight:normal;font-stretch:normal;text-indent:0;text-align:start;text-decoration:none;line-height:normal;letter-spacing:normal;word-spacing:normal;text-transform:none;direction:ltr;block-progression:tb;writing-mode:lr-tb;text-anchor:start;baseline-shift:baseline;color:#000000;fill:#919fa9;fill-opacity:1;stroke:none;stroke-width:2;marker:none;visibility:visible;display:inline;overflow:visible;enable-background:accumulate;font-family:Sans;-inkscape-font-specification:Sans"
       d="M 10.40625 14 C 9.0822751 14 8 15.08235 8 16.40625 L 8 31.5625 C 8 32.8865 9.0822751 34 10.40625 34 L 12 34 L 12 35 L 13 35 L 35 35 L 36 35 L 36 34 L 37.59375 34 C 38.917725 34 40 32.8865 40 31.5625 L 40 16.40625 C 40 15.08235 38.917725 14 37.59375 14 L 10.40625 14 z M 10.40625 16 L 37.59375 16 C 37.844301 16 38 16.15585 38 16.40625 L 38 31.5625 C 38 31.8131 37.844301 32 37.59375 32 L 35.40625 32 L 35 23.09375 L 35 23 C 35 22.848901 34.981874 22.710187 34.96875 22.5625 C 34.74203 20.011119 32.610325 18 30 18 C 27.238576 18 25 20.238576 25 23 C 25 25.761424 27.238576 28 30 28 C 31.710329 28 33.223464 27.122342 34.125 25.8125 L 34.40625 32 L 34 32 L 34 33 L 14 33 L 14 32 L 13.96875 32 L 15.5625 24.75 C 16.107075 25.507157 16.996141 26 18 26 C 19.656854 26 21 24.656854 21 23 C 21 21.343146 19.656854 20 18 20 C 16.528691 20 15.318175 21.071299 15.0625 22.46875 L 15.03125 22.46875 L 12.90625 32 L 10.40625 32 C 10.155698 32 10 31.8131 10 31.5625 L 10 16.40625 C 10 16.15585 10.155698 16 10.40625 16 z M 11.5 17 C 11.223858 17 11 17.223858 11 17.5 C 11 17.776142 11.223858 18 11.5 18 C 11.776142 18 12 17.776142 12 17.5 C 12 17.223858 11.776142 17 11.5 17 z M 36.5 17 C 36.223858 17 36 17.223858 36 17.5 C 36 17.776142 36.223858 18 36.5 18 C 36.776142 18 37 17.776142 37 17.5 C 37 17.223858 36.776142 17 36.5 17 z M 18 21 C 19.104569 21 20 21.895431 20 23 C 20 24.104569 19.104569 25 18 25 C 16.895431 25 16 24.104569 16 23 C 16 21.895431 16.895431 21 18 21 z M 30 21 C 31.104569 21 32 21.895431 32 23 C 32 24.104569 31.104569 25 30 25 C 28.895431 25 28 24.104569 28 23 C 28 21.895431 28.895431 21 30 21 z M 11.5 30 C 11.223858 30 11 30.223858 11 30.5 C 11 30.776142 11.223858 31 11.5 31 C 11.776142 31 12 30.776142 12 30.5 C 12 30.223858 11.776142 30 11.5 30 z M 17.875 30 C 17.39025 30 17 30.39025 17 30.875 L 17 31.125 C 17 31.60975 17.39025 32 17.875 32 L 30.125 32 C 30.60975 32 31 31.60975 31 31.125 L 31 30.875 C 31 30.39025 30.60975 30 30.125 30 L 17.875 30 z M 36.5 30 C 36.223858 30 36 30.223858 36 30.5 C 36 30.776142 36.223858 31 36.5 31 C 36.776142 31 37 30.776142 37 30.5 C 37 30.223858 36.776142 30 36.5 30 z "
       transform="translate(0,1004.3622)"
       id="rect5292" />
  </g>
</svg>
