<?xml version="1.0" encoding="UTF-8" standalone="no"?>
<!-- Created with Inkscape (http://www.inkscape.org/) -->

<svg
   xmlns:dc="http://purl.org/dc/elements/1.1/"
   xmlns:cc="http://creativecommons.org/ns#"
   xmlns:rdf="http://www.w3.org/1999/02/22-rdf-syntax-ns#"
   xmlns:svg="http://www.w3.org/2000/svg"
   xmlns="http://www.w3.org/2000/svg"
   xmlns:xlink="http://www.w3.org/1999/xlink"
   xmlns:sodipodi="http://sodipodi.sourceforge.net/DTD/sodipodi-0.dtd"
   xmlns:inkscape="http://www.inkscape.org/namespaces/inkscape"
   width="48"
   height="48"
   id="svg2"
   version="1.1"
   inkscape:version="0.48.4 r9939"
   sodipodi:docname="pda.svg">
  <defs
     id="defs4">
    <linearGradient
       id="linearGradient3795">
      <stop
         style="stop-color:#cc9f52;stop-opacity:1;"
         offset="0"
         id="stop3797" />
      <stop
         style="stop-color:#e18559;stop-opacity:1;"
         offset="1"
         id="stop3799" />
    </linearGradient>
    <linearGradient
       inkscape:collect="always"
       id="linearGradient3914">
      <stop
         style="stop-color:#59b3e1;stop-opacity:1;"
         offset="0"
         id="stop3916" />
      <stop
         style="stop-color:#59b3e1;stop-opacity:0;"
         offset="1"
         id="stop3918" />
    </linearGradient>
    <linearGradient
       id="linearGradient3698">
      <stop
         id="stop3700"
         offset="0"
         style="stop-color:#96d0e1;stop-opacity:1" />
      <stop
         style="stop-color:#89b7e1;stop-opacity:1"
         offset="0.67819428"
         id="stop3706" />
      <stop
         id="stop3702"
         offset="1"
         style="stop-color:#699dd3;stop-opacity:1" />
    </linearGradient>
    <linearGradient
       id="linearGradient3708">
      <stop
         id="stop3710"
         offset="0"
         style="stop-color:#658db6;stop-opacity:1" />
      <stop
         style="stop-color:#527fab;stop-opacity:1;"
         offset="0.76777935"
         id="stop3716" />
      <stop
         id="stop3712"
         offset="1"
         style="stop-color:#4071a0;stop-opacity:1" />
    </linearGradient>
    <linearGradient
       id="linearGradient3750">
      <stop
         style="stop-color:#d0e2f1;stop-opacity:1"
         offset="0"
         id="stop3752" />
      <stop
         id="stop3756"
         offset="0.85580856"
         style="stop-color:#cadef0;stop-opacity:1" />
      <stop
         style="stop-color:#95bee3;stop-opacity:1"
         offset="1"
         id="stop3754" />
    </linearGradient>
    <linearGradient
       id="linearGradient3803">
      <stop
         id="stop3805"
         offset="0"
         style="stop-color:#d7def0;stop-opacity:1;" />
      <stop
         style="stop-color:#ffffff;stop-opacity:1"
         offset="0.5"
         id="stop3811" />
      <stop
         id="stop3807"
         offset="1"
         style="stop-color:#d5def0;stop-opacity:1" />
    </linearGradient>
    <linearGradient
       inkscape:collect="always"
       xlink:href="#linearGradient3914"
       id="linearGradient3920"
       x1="6.8000002"
       y1="25.0625"
       x2="45.325001"
       y2="25.0625"
       gradientUnits="userSpaceOnUse" />
    <linearGradient
       inkscape:collect="always"
       xlink:href="#linearGradient3795"
       id="linearGradient3801"
       x1="23.204165"
       y1="1053.158"
       x2="23.204165"
       y2="1004.8474"
       gradientUnits="userSpaceOnUse" />
    <linearGradient
       inkscape:collect="always"
       xlink:href="#linearGradient3881"
       id="linearGradient3801-0"
       x1="23.204165"
       y1="1053.158"
       x2="23.204165"
       y2="1004.8474"
       gradientUnits="userSpaceOnUse" />
    <linearGradient
       id="linearGradient3881">
      <stop
         style="stop-color:#474845;stop-opacity:1;"
         offset="0"
         id="stop3883" />
      <stop
         style="stop-color:#838681;stop-opacity:1"
         offset="1"
         id="stop3885" />
    </linearGradient>
    <linearGradient
       y2="1004.8474"
       x2="23.204165"
       y1="1053.158"
       x1="23.204165"
       gradientUnits="userSpaceOnUse"
       id="linearGradient3036"
       xlink:href="#linearGradient3881"
       inkscape:collect="always"
       gradientTransform="translate(0,1.7382813e-5)" />
    <linearGradient
       x1="10"
       y1="27.996471"
       x2="31"
       y2="42"
       id="linearGradient2885"
       xlink:href="#linearGradient2555"
       gradientUnits="userSpaceOnUse"
       gradientTransform="matrix(-0.96257573,0,0,-0.32690859,-9.267192,1039.3029)" />
    <linearGradient
       id="linearGradient2555">
      <stop
         id="stop2557"
         style="stop-color:white;stop-opacity:1"
         offset="0" />
      <stop
         id="stop2561"
         style="stop-color:#e6e6e6;stop-opacity:1"
         offset="0.5" />
      <stop
         id="stop2563"
         style="stop-color:white;stop-opacity:1"
         offset="0.75" />
      <stop
         id="stop2565"
         style="stop-color:#e1e1e1;stop-opacity:1"
         offset="0.84166664" />
      <stop
         id="stop2559"
         style="stop-color:white;stop-opacity:1"
         offset="1" />
    </linearGradient>
    <linearGradient
       x1="21.875"
       y1="7.6059465"
       x2="21.875"
       y2="18.51421"
       id="linearGradient2891"
       xlink:href="#linearGradient2268"
       gradientUnits="userSpaceOnUse"
       gradientTransform="matrix(0.91036412,0,0,0.63336172,-51.48319,-1066.1968)" />
    <linearGradient
       id="linearGradient2268">
      <stop
         id="stop2270"
         style="stop-color:#eeeeec;stop-opacity:1"
         offset="0" />
      <stop
         id="stop2272"
         style="stop-color:white;stop-opacity:1"
         offset="1" />
    </linearGradient>
    <linearGradient
       x1="10"
       y1="27.996471"
       x2="31"
       y2="42"
       id="linearGradient2901"
       xlink:href="#linearGradient4235"
       gradientUnits="userSpaceOnUse"
       gradientTransform="matrix(-0.96257573,0,0,-0.32690859,-9.267192,1039.3029)" />
    <linearGradient
       id="linearGradient4235">
      <stop
         id="stop4237"
         style="stop-color:#d4d4dc;stop-opacity:1"
         offset="0" />
      <stop
         id="stop4239"
         style="stop-color:#848489;stop-opacity:1"
         offset="1" />
    </linearGradient>
    <linearGradient
       x1="3.6261616"
       y1="2.5845432"
       x2="41.968018"
       y2="40.926399"
       id="linearGradient2910"
       xlink:href="#linearGradient6375"
       gradientUnits="userSpaceOnUse"
       gradientTransform="matrix(-1.03302,0,0,-1.0330201,-7.757048,1067.6052)" />
    <linearGradient
       id="linearGradient6375">
      <stop
         id="stop6377"
         style="stop-color:#040404;stop-opacity:1"
         offset="0" />
      <stop
         id="stop6379"
         style="stop-color:#606060;stop-opacity:1"
         offset="1" />
    </linearGradient>
    <radialGradient
       cx="1"
       cy="44"
       r="5"
       fx="1"
       fy="44"
       id="radialGradient3932"
       xlink:href="#linearGradient2781"
       gradientUnits="userSpaceOnUse"
       gradientTransform="matrix(2,0,0,0.8,-13,-79.2)" />
    <linearGradient
       id="linearGradient2781">
      <stop
         id="stop2783"
         style="stop-color:black;stop-opacity:1"
         offset="0" />
      <stop
         id="stop2785"
         style="stop-color:black;stop-opacity:0"
         offset="1" />
    </linearGradient>
    <radialGradient
       cx="1"
       cy="44"
       r="5"
       fx="1"
       fy="44"
       id="radialGradient3934"
       xlink:href="#linearGradient2781"
       gradientUnits="userSpaceOnUse"
       gradientTransform="matrix(2,0,0,0.8,36,8.8)" />
    <linearGradient
       id="linearGradient3070">
      <stop
         id="stop3072"
         style="stop-color:black;stop-opacity:1"
         offset="0" />
      <stop
         id="stop3074"
         style="stop-color:black;stop-opacity:0"
         offset="1" />
    </linearGradient>
    <linearGradient
       x1="21.875"
       y1="48.000977"
       x2="21.875"
       y2="40"
       id="linearGradient3936"
       xlink:href="#linearGradient2804"
       gradientUnits="userSpaceOnUse" />
    <linearGradient
       id="linearGradient2804">
      <stop
         id="stop2806"
         style="stop-color:black;stop-opacity:0"
         offset="0" />
      <stop
         id="stop2812"
         style="stop-color:black;stop-opacity:1"
         offset="0.5" />
      <stop
         id="stop2808"
         style="stop-color:black;stop-opacity:0"
         offset="1" />
    </linearGradient>
  </defs>
  <sodipodi:namedview
     id="base"
     pagecolor="#ffffff"
     bordercolor="#666666"
     borderopacity="1.0"
     inkscape:pageopacity="0.0"
     inkscape:pageshadow="2"
     inkscape:zoom="5.6568545"
     inkscape:cx="-6.4960182"
     inkscape:cy="28.79133"
     inkscape:document-units="px"
     inkscape:current-layer="layer1"
     showgrid="true"
     inkscape:window-width="1366"
     inkscape:window-height="712"
     inkscape:window-x="0"
     inkscape:window-y="27"
     inkscape:window-maximized="1"
     showguides="true"
     inkscape:guide-bbox="true">
    <inkscape:grid
       type="xygrid"
       id="grid3803" />
  </sodipodi:namedview>
  <metadata
     id="metadata7">
    <rdf:RDF>
      <cc:Work
         rdf:about="">
        <dc:format>image/svg+xml</dc:format>
        <dc:type
           rdf:resource="http://purl.org/dc/dcmitype/StillImage" />
        <dc:title />
      </cc:Work>
    </rdf:RDF>
  </metadata>
  <g
     inkscape:label="Capa 1"
     inkscape:groupmode="layer"
     id="layer1"
     transform="translate(0,-1004.3622)">
    <path
       style="font-size:medium;font-style:normal;font-variant:normal;font-weight:normal;font-stretch:normal;text-indent:0;text-align:start;text-decoration:none;line-height:normal;letter-spacing:normal;word-spacing:normal;text-transform:none;direction:ltr;block-progression:tb;writing-mode:lr-tb;text-anchor:start;baseline-shift:baseline;color:#000000;fill:#919fa9;fill-opacity:1;fill-rule:nonzero;stroke:none;stroke-width:1.99999988000000006;marker:none;visibility:visible;display:inline;overflow:visible;enable-background:accumulate;font-family:Sans;-inkscape-font-specification:Sans"
       d="M 14.5 8 C 13.686297 8 13 8.6863 13 9.5 L 13 37.5 C 13 37.569 13.0756 38.17625 13.40625 38.53125 C 13.736898 38.88635 14.185131 39.1173 14.84375 39.3125 C 16.160987 39.7029 18.45573 40 23 40 L 25 40 C 29.049804 40 31.35501 39.6846 32.75 39.3125 C 33.447495 39.1264 33.920676 38.9364 34.28125 38.6875 C 34.641824 38.4386 35 38.1709 35 37.5 L 35 9.5 C 35 8.6863 34.313703 8 33.5 8 L 14.5 8 z M 15 10 L 33 10 L 33 30 L 15 30 L 15 10 z M 16 31 C 16.552285 31 17 31.447715 17 32 C 17 32.552285 16.552285 33 16 33 C 15.447715 33 15 32.552285 15 32 C 15 31.447715 15.447715 31 16 31 z M 19 31 C 19.552285 31 20 31.447715 20 32 C 20 32.552285 19.552285 33 19 33 C 18.447715 33 18 32.552285 18 32 C 18 31.447715 18.447715 31 19 31 z M 22 31 C 22.552285 31 23 31.447715 23 32 C 23 32.552285 22.552285 33 22 33 C 21.447715 33 21 32.552285 21 32 C 21 31.447715 21.447715 31 22 31 z M 26 31 C 26.552285 31 27 31.447715 27 32 C 27 32.552285 26.552285 33 26 33 C 25.447715 33 25 32.552285 25 32 C 25 31.447715 25.447715 31 26 31 z M 29 31 C 29.552285 31 30 31.447715 30 32 C 30 32.552285 29.552285 33 29 33 C 28.447715 33 28 32.552285 28 32 C 28 31.447715 28.447715 31 29 31 z M 32 31 C 32.552285 31 33 31.447715 33 32 C 33 32.552285 32.552285 33 32 33 C 31.447715 33 31 32.552285 31 32 C 31 31.447715 31.447715 31 32 31 z M 16 34 C 16.552285 34 17 34.447715 17 35 C 17 35.552285 16.552285 36 16 36 C 15.447715 36 15 35.552285 15 35 C 15 34.447715 15.447715 34 16 34 z M 19 34 C 19.552285 34 20 34.447715 20 35 C 20 35.552285 19.552285 36 19 36 C 18.447715 36 18 35.552285 18 35 C 18 34.447715 18.447715 34 19 34 z M 24 34 C 25.104569 34 26 34.895431 26 36 C 26 37.104569 25.104569 38 24 38 C 22.895431 38 22 37.104569 22 36 C 22 34.895431 22.895431 34 24 34 z M 29 34 C 29.552285 34 30 34.447715 30 35 C 30 35.552285 29.552285 36 29 36 C 28.447715 36 28 35.552285 28 35 C 28 34.447715 28.447715 34 29 34 z M 32 34 C 32.552285 34 33 34.447715 33 35 C 33 35.552285 32.552285 36 32 36 C 31.447715 36 31 35.552285 31 35 C 31 34.447715 31.447715 34 32 34 z "
       transform="translate(0,1004.3622)"
       id="rect4587" />
  </g>
</svg>
