<?xml version="1.0" encoding="UTF-8" standalone="no"?>
<!-- Created with Inkscape (http://www.inkscape.org/) -->

<svg
   xmlns:dc="http://purl.org/dc/elements/1.1/"
   xmlns:cc="http://creativecommons.org/ns#"
   xmlns:rdf="http://www.w3.org/1999/02/22-rdf-syntax-ns#"
   xmlns:svg="http://www.w3.org/2000/svg"
   xmlns="http://www.w3.org/2000/svg"
   xmlns:xlink="http://www.w3.org/1999/xlink"
   xmlns:sodipodi="http://sodipodi.sourceforge.net/DTD/sodipodi-0.dtd"
   xmlns:inkscape="http://www.inkscape.org/namespaces/inkscape"
   id="svg3692"
   height="16"
   width="16"
   version="1.1"
   inkscape:version="0.48.4 r9939"
   sodipodi:docname="bookmark-missing.svg">
  <sodipodi:namedview
     pagecolor="#ffffff"
     bordercolor="#666666"
     borderopacity="1"
     objecttolerance="10"
     gridtolerance="10"
     guidetolerance="10"
     inkscape:pageopacity="0"
     inkscape:pageshadow="2"
     inkscape:window-width="1366"
     inkscape:window-height="712"
     id="namedview42"
     showgrid="true"
     inkscape:zoom="14.049591"
     inkscape:cx="-11.742202"
     inkscape:cy="10.382556"
     inkscape:window-x="0"
     inkscape:window-y="27"
     inkscape:window-maximized="1"
     inkscape:current-layer="svg3692">
    <inkscape:grid
       type="xygrid"
       id="grid3811"
       empspacing="5"
       visible="true"
       enabled="true"
       snapvisiblegridlinesonly="true" />
  </sodipodi:namedview>
  <defs
     id="defs3694">
    <linearGradient
       id="linearGradient3619"
       y2="33.955002"
       gradientUnits="userSpaceOnUse"
       x2="15.215"
       gradientTransform="translate(2.9799,-3.1217)"
       y1="22.292"
       x1="11.566">
      <stop
         id="stop2687"
         style="stop-color:#fff;stop-opacity:.27451"
         offset="0" />
      <stop
         id="stop2689"
         style="stop-color:#fff;stop-opacity:0"
         offset="1" />
    </linearGradient>
    <linearGradient
       id="linearGradient3648"
       y2="43.444"
       gradientUnits="userSpaceOnUse"
       x2="29.646999"
       y1="2"
       x1="29.646999">
      <stop
         id="stop3644"
         style="stop-color:#fff"
         offset="0" />
      <stop
         id="stop3646"
         style="stop-color:#fff;stop-opacity:0"
         offset="1" />
    </linearGradient>
    <radialGradient
       id="radialGradient3627"
       gradientUnits="userSpaceOnUse"
       cy="25.625"
       cx="13.139"
       gradientTransform="matrix(0,2.6541,-3.1628,0,97.183,-26.676)"
       r="13.931">
      <stop
         id="stop3692"
         style="stop-color:#ffeb9f"
         offset="0" />
      <stop
         id="stop3694"
         style="stop-color:#ffd57e"
         offset=".26238" />
      <stop
         id="stop3696"
         style="stop-color:#ffbc43"
         offset=".66094" />
      <stop
         id="stop3698"
         style="stop-color:#ff921a"
         offset="1" />
    </radialGradient>
    <linearGradient
       id="linearGradient3629"
       y2="9.5799999"
       gradientUnits="userSpaceOnUse"
       x2="21.483"
       gradientTransform="matrix(1.6509,0,0,1.6568,-11.466,-15.046)"
       y1="36.255001"
       x1="21.483">
      <stop
         id="stop3605"
         style="stop-color:#a7651c"
         offset="0" />
      <stop
         id="stop3607"
         style="stop-color:#c8a700"
         offset="1" />
    </linearGradient>
    <radialGradient
       id="radialGradient3690"
       gradientUnits="userSpaceOnUse"
       cx="62.625"
       cy="4.625"
       r="10.625"
       gradientTransform="matrix(2.1647,0,0,0.84706,-111.56,35.082)">
      <stop
         id="stop8840"
         offset="0" />
      <stop
         id="stop8842"
         style="stop-opacity:0"
         offset="1" />
    </radialGradient>
    <linearGradient
       id="linearGradient5530"
       y2="38.273998"
       gradientUnits="userSpaceOnUse"
       x2="22.368999"
       gradientTransform="matrix(0.59882,0,0,0.5952,23.605,21.219)"
       y1="8.0323"
       x1="22.368999">
      <stop
         id="stop3945"
         style="stop-color:#fff"
         offset="0" />
      <stop
         id="stop3947"
         style="stop-color:#fff;stop-opacity:0"
         offset="1" />
    </linearGradient>
    <radialGradient
       id="radialGradient2885"
       gradientUnits="userSpaceOnUse"
       cx="69.447998"
       cy="51.695"
       r="31"
       gradientTransform="matrix(0,0.67924,-0.73892,0,72.903,-19.49)">
      <stop
         id="stop3244-5"
         style="stop-color:#eef87e"
         offset="0" />
      <stop
         id="stop3246-9"
         style="stop-color:#cde34f"
         offset=".26238" />
      <stop
         id="stop3248-7"
         style="stop-color:#93b723"
         offset=".66094" />
      <stop
         id="stop3250-8"
         style="stop-color:#5a7e0d"
         offset="1" />
    </radialGradient>
    <linearGradient
       id="linearGradient2887"
       y2="52.808998"
       gradientUnits="userSpaceOnUse"
       y1="123.19"
       gradientTransform="matrix(0.28214,0,0,0.28445,12.171,9.9582)"
       x2="72.421997"
       x1="72.421997">
      <stop
         id="stop2492-3"
         style="stop-color:#365f0e"
         offset="0" />
      <stop
         id="stop2494-8"
         style="stop-color:#84a718"
         offset="1" />
    </linearGradient>
    <linearGradient
       inkscape:collect="always"
       xlink:href="#linearGradient5530"
       id="linearGradient3020"
       gradientUnits="userSpaceOnUse"
       gradientTransform="matrix(0.59882,0,0,0.5952,-29.886525,43.388492)"
       x1="22.368999"
       y1="8.0323"
       x2="22.368999"
       y2="38.273998" />
    <linearGradient
       inkscape:collect="always"
       xlink:href="#linearGradient3619"
       id="linearGradient3028"
       gradientUnits="userSpaceOnUse"
       gradientTransform="translate(-65.359083,-18.579327)"
       x1="11.566"
       y1="22.292"
       x2="15.215"
       y2="33.955002" />
    <linearGradient
       inkscape:collect="always"
       xlink:href="#linearGradient3648"
       id="linearGradient3031"
       gradientUnits="userSpaceOnUse"
       x1="29.646999"
       y1="2"
       x2="29.646999"
       y2="43.444"
       gradientTransform="translate(-68.338983,-15.457627)" />
    <radialGradient
       inkscape:collect="always"
       xlink:href="#radialGradient3690"
       id="radialGradient3041"
       gradientUnits="userSpaceOnUse"
       gradientTransform="matrix(2.1647,0,0,0.84706,-179.89898,19.624373)"
       cx="62.625"
       cy="4.625"
       r="10.625" />
  </defs>
  <metadata
     id="metadata3697">
    <rdf:RDF>
      <cc:Work
         rdf:about="">
        <dc:format>image/svg+xml</dc:format>
        <dc:type
           rdf:resource="http://purl.org/dc/dcmitype/StillImage" />
        <dc:title />
      </cc:Work>
    </rdf:RDF>
  </metadata>
  <path
     style="font-size:medium;font-style:normal;font-variant:normal;font-weight:normal;font-stretch:normal;text-indent:0;text-align:start;text-decoration:none;line-height:normal;letter-spacing:normal;word-spacing:normal;text-transform:none;direction:ltr;block-progression:tb;writing-mode:lr-tb;text-anchor:start;baseline-shift:baseline;opacity:0.59999999999999998;color:#000000;fill:#c4905e;fill-opacity:1;stroke:none;stroke-width:1.99999988000000006;marker:none;visibility:visible;display:inline;overflow:visible;enable-background:accumulate;font-family:Sans;-inkscape-font-specification:Sans"
     d="m 7.84375,0.8125 c -0.053537,0.00771 -0.1038111,0.0178907 -0.15625,0.03125 l 0,0.03125 C 7.5792578,0.89753685 7.4763471,0.92304717 7.375,0.96875 7.348208,0.97945801 7.3382036,0.98811555 7.3125,1 L 7.1875,1.0625 7.0625,1.15625 C 7.0457258,1.1723047 7.0357848,1.1828964 7.03125,1.1875 6.8841253,1.2981285 6.6935791,1.4191517 6.625,1.5 6.4647358,1.6889487 6.3447679,1.8849463 6.21875,2.09375 5.9705995,2.5049212 5.7268287,2.9845309 5.5,3.4375 5.2703218,3.8961617 5.0482054,4.3555196 4.875,4.6875 4.8611882,4.7139727 4.8573378,4.7249172 4.84375,4.75 4.810137,4.7562696 4.7855567,4.7442756 4.75,4.75 4.3930352,4.8074701 3.9008589,4.8928202 3.375,4.96875 2.8503067,5.0445105 2.3226356,5.1182947 1.875,5.21875 1.6677375,5.2652624 1.4494175,5.3019508 1.1875,5.40625 1.074818,5.451124 0.89048822,5.5370173 0.71875,5.65625 0.60705319,5.7337855 0.24001399,6.0552931 0.09375,6.5 c -0.14811552,0.4503081 -0.0530496,0.9408334 0,1.09375 0.05857882,0.1688484 0.13831349,0.3106297 0.21875,0.4375 0.14218195,0.2242628 0.31841089,0.4241748 0.46875,0.59375 0.3133108,0.3533984 0.6600188,0.7045185 1.03125,1.0625 0.3746107,0.361239 0.7697722,0.708147 1.03125,0.96875 0.020012,0.01994 0.012169,0.04306 0.03125,0.0625 -0.00315,0.02267 0.00367,0.0389 0,0.0625 -0.056724,0.364378 -0.1622429,0.867124 -0.25,1.375 -0.086947,0.503192 -0.1440174,0.996954 -0.1875,1.46875 -0.019254,0.20893 -0.050734,0.440693 -0.03125,0.71875 0.011767,0.167957 0.040293,0.359743 0.09375,0.53125 0.038854,0.124653 0.2169688,0.573767 0.59375,0.84375 0.3853329,0.276673 0.8927957,0.314652 1.03125,0.3125 0.1597793,-0.0024 0.3391969,-0.02278 0.5,-0.0625 0.2757247,-0.06813 0.4923066,-0.167365 0.6875,-0.25 0.4195409,-0.177608 0.9023133,-0.411335 1.375,-0.65625 0.4733681,-0.245267 0.8995187,-0.497424 1.21875,-0.65625 0.035949,-0.01789 0.059752,-0.01498 0.09375,-0.03125 0.033992,0.01627 0.057814,0.01337 0.09375,0.03125 0.3192442,0.158843 0.7453845,0.410987 1.21875,0.65625 0.472672,0.244905 0.955391,0.478626 1.375,0.65625 0.195126,0.08259 0.411681,0.181855 0.6875,0.25 0.161127,0.03981 0.340628,0.06003 0.5,0.0625 0.138212,0.0021 0.645883,-0.03586 1.03125,-0.3125 0.37603,-0.269836 0.554532,-0.717823 0.59375,-0.84375 0.05329,-0.171131 0.08197,-0.362876 0.09375,-0.53125 0.01944,-0.277976 0.01923,-0.509853 0,-0.71875 l -0.03125,0 c -0.0435,-0.471788 -0.100554,-0.965539 -0.1875,-1.46875 -0.08776,-0.507942 -0.193301,-1.010698 -0.25,-1.375 -0.0037,-0.02361 0.0032,-0.03982 0,-0.0625 0.01907,-0.01943 0.01125,-0.04257 0.03125,-0.0625 0.261548,-0.260647 0.656658,-0.60754 1.03125,-0.96875 0.371246,-0.357984 0.717905,-0.7090359 1.03125,-1.0625 0.150256,-0.1694958 0.326493,-0.369314 0.46875,-0.59375 0.08032,-0.1267016 0.160137,-0.2684879 0.21875,-0.4375 0.05304,-0.1529407 0.148171,-0.6433851 0,-1.09375 C 15.760021,6.0551558 15.392709,5.7336137 15.28125,5.65625 15.109653,5.5371537 14.925366,5.4511861 14.8125,5.40625 14.550722,5.3020307 14.332384,5.2652763 14.125,5.21875 13.677473,5.1183479 13.149763,5.0445076 12.625,4.96875 12.099148,4.8928339 11.606895,4.8074759 11.25,4.75 c -0.03558,-0.00573 -0.06012,0.00627 -0.09375,0 C 11.142659,4.7249115 11.138815,4.7139764 11.125,4.6875 10.951838,4.3556321 10.729732,3.896208 10.5,3.4375 10.273201,2.9846485 10.029473,2.5049947 9.78125,2.09375 9.6552659,1.8850205 9.5353474,1.6890224 9.375,1.5 9.4015316,1.5312763 9.2881253,1.3588494 9.03125,1.15625 8.7743747,0.95365057 8.3696133,0.8125 8,0.8125 l -0.0625,0 -0.09375,0 z M 8,3.03125 c 0.024431,0.037283 0.036346,0.050418 0.0625,0.09375 0.1808884,0.2996873 0.3971753,0.7638509 0.625,1.21875 l 0.03125,0.0625 c 0.2136285,0.4273818 0.4417848,0.8363656 0.625,1.1875 0.1054948,0.2021848 0.2109385,0.3853564 0.28125,0.5 0.09899,0.1612743 0.215807,0.2569694 0.15625,0.1875 l 0.15625,0.1875 0.21875,0.09375 c 0.08493,0.032307 0.18227,0.054039 0.21875,0.0625 0.11515,0.026705 0.325917,0.086901 0.5625,0.125 0.431915,0.069557 0.917526,0.1169441 1.40625,0.1875 0.489817,0.070713 0.974807,0.1672281 1.34375,0.25 0.06206,0.013923 0.07635,0.019297 0.125,0.03125 -0.02348,0.027541 -0.03491,0.031373 -0.0625,0.0625 -0.238579,0.2691259 -0.606302,0.6192502 -0.96875,0.96875 -0.359102,0.3462725 -0.730376,0.7001617 -1.03125,1 -0.156365,0.155829 -0.27643,0.2934354 -0.375,0.40625 -0.09893,0.1132084 -0.15848,0.2396829 -0.125,0.1875 l -0.15625,0.21875 0,0.25 c -8.38e-4,0.01665 -0.0075,0.127705 0,0.21875 0.01009,0.118933 0.02627,0.329756 0.0625,0.5625 0.06465,0.415376 0.134027,0.915866 0.21875,1.40625 0.08555,0.495115 0.186226,0.95973 0.21875,1.3125 0.0058,0.06258 -0.0035,0.07744 0,0.125 -0.04828,-0.01924 -0.06437,-0.03684 -0.125,-0.0625 C 11.118677,13.726812 10.685333,13.538059 10.25,13.3125 9.8153595,13.087301 9.3631542,12.821239 8.96875,12.625 8.770372,12.526296 8.606397,12.463357 8.46875,12.40625 8.3425083,12.353809 8.2168377,12.304298 8.25,12.3125 L 8,12.28125 7.75,12.3125 c 0.033817,-0.0084 -0.092355,0.04129 -0.21875,0.09375 -0.1377472,0.05714 -0.3016569,0.120069 -0.5,0.21875 -0.3944571,0.196252 -0.8466241,0.462307 -1.28125,0.6875 -0.4353071,0.225547 -0.8686711,0.414298 -1.21875,0.5625 -0.060599,0.02565 -0.076729,0.04327 -0.125,0.0625 0.00345,-0.04755 -0.00577,-0.06244 0,-0.125 0.032505,-0.35269 0.1332015,-0.817404 0.21875,-1.3125 0.084739,-0.49041 0.1540976,-0.990938 0.21875,-1.40625 0.036242,-0.232795 0.052416,-0.443606 0.0625,-0.5625 0.00774,-0.09289 6.887e-4,-0.204647 0,-0.21875 l 0,-0.25 L 4.75,9.84375 C 4.7837339,9.8962859 4.7239728,9.7695461 4.625,9.65625 4.5263254,9.5433001 4.4063033,9.4057795 4.25,9.25 3.9490712,8.9500776 3.5778009,8.596235 3.21875,8.25 2.85632,7.9005055 2.48859,7.5503672 2.25,7.28125 2.2224268,7.2501488 2.2109756,7.2462829 2.1875,7.21875 2.2361593,7.2067939 2.2504007,7.2014359 2.3125,7.1875 2.681341,7.1047273 3.1663719,7.0082335 3.65625,6.9375 4.1449637,6.8669336 4.6306156,6.8195319 5.0625,6.75 5.2991976,6.711893 5.510119,6.6516233 5.625,6.625 5.6619091,6.6164418 5.7595099,6.5944886 5.84375,6.5625 L 6.0625,6.46875 6.21875,6.28125 c -0.05951,0.069416 0.057268,-0.0262 0.15625,-0.1875 0.070438,-0.1147926 0.175741,-0.2977738 0.28125,-0.5 C 6.8489494,5.2244056 7.0875806,4.7929087 7.3125,4.34375 7.5402703,3.8889005 7.7565521,3.4248202 7.9375,3.125 7.9636437,3.0816815 7.9755748,3.0685239 8,3.03125 z"
     id="path1307"
     inkscape:connector-curvature="0" />
</svg>
