<?xml version="1.0" encoding="UTF-8" standalone="no"?>
<!-- Created with Inkscape (http://www.inkscape.org/) -->

<svg
   xmlns:dc="http://purl.org/dc/elements/1.1/"
   xmlns:cc="http://creativecommons.org/ns#"
   xmlns:rdf="http://www.w3.org/1999/02/22-rdf-syntax-ns#"
   xmlns:svg="http://www.w3.org/2000/svg"
   xmlns="http://www.w3.org/2000/svg"
   xmlns:xlink="http://www.w3.org/1999/xlink"
   xmlns:sodipodi="http://sodipodi.sourceforge.net/DTD/sodipodi-0.dtd"
   xmlns:inkscape="http://www.inkscape.org/namespaces/inkscape"
   id="svg3082"
   height="48"
   width="48"
   version="1.1"
   inkscape:version="0.48.3.1 r9886"
   sodipodi:docname="view-fullscreen.svg">
  <metadata
     id="metadata53">
    <rdf:RDF>
      <cc:Work
         rdf:about="">
        <dc:format>image/svg+xml</dc:format>
        <dc:type
           rdf:resource="http://purl.org/dc/dcmitype/StillImage" />
        <dc:title></dc:title>
      </cc:Work>
    </rdf:RDF>
  </metadata>
  <sodipodi:namedview
     pagecolor="#ffffff"
     bordercolor="#666666"
     borderopacity="1"
     objecttolerance="10"
     gridtolerance="10"
     guidetolerance="10"
     inkscape:pageopacity="0"
     inkscape:pageshadow="2"
     inkscape:window-width="1280"
     inkscape:window-height="721"
     id="namedview51"
     showgrid="true"
     inkscape:zoom="8.3112668"
     inkscape:cx="45.20464"
     inkscape:cy="25.978032"
     inkscape:window-x="0"
     inkscape:window-y="22"
     inkscape:window-maximized="1"
     inkscape:current-layer="svg3082">
    <inkscape:grid
       type="xygrid"
       id="grid3030" />
  </sodipodi:namedview>
  <defs
     id="defs3084">
    <linearGradient
       id="linearGradient5060">
      <stop
         id="stop5062"
         offset="0" />
      <stop
         id="stop5064"
         style="stop-opacity:0"
         offset="1" />
    </linearGradient>
    <linearGradient
       id="linearGradient6388">
      <stop
         id="stop6390"
         style="stop-color:#a00"
         offset="0" />
      <stop
         id="stop6392"
         style="stop-color:#a00;stop-opacity:0"
         offset="1" />
    </linearGradient>
    <linearGradient
       id="linearGradient4168">
      <stop
         id="stop4170"
         style="stop-color:#f8cd70"
         offset="0" />
      <stop
         id="stop4172"
         style="stop-color:#cc9110"
         offset="1" />
    </linearGradient>
    <linearGradient
       id="linearGradient5527"
       y2="29.808"
       xlink:href="#linearGradient6388"
       gradientUnits="userSpaceOnUse"
       x2="14.839"
       y1="39"
       x1="6" />
    <linearGradient
       id="linearGradient5530"
       y2="30.161"
       xlink:href="#linearGradient6388"
       gradientUnits="userSpaceOnUse"
       x2="32.984"
       y1="39"
       x1="42" />
    <linearGradient
       id="linearGradient5533"
       y2="23.281"
       xlink:href="#linearGradient6388"
       gradientUnits="userSpaceOnUse"
       x2="15.104"
       y1="14"
       x1="6" />
    <linearGradient
       id="linearGradient5536"
       y2="22.839"
       xlink:href="#linearGradient6388"
       gradientUnits="userSpaceOnUse"
       x2="33.25"
       y1="14"
       x1="42" />
    <radialGradient
       id="radialGradient5539"
       xlink:href="#linearGradient4168"
       gradientUnits="userSpaceOnUse"
       cy="9.9662"
       cx="40.128"
       gradientTransform="matrix(1.8725,2.2105e-6,-2.2597e-6,1.9142,-42.642,-9.5775)"
       r="1.0607" />
    <radialGradient
       id="radialGradient5542"
       xlink:href="#linearGradient4168"
       gradientUnits="userSpaceOnUse"
       cy="9.9662"
       cx="40.128"
       gradientTransform="matrix(1.8725,2.2597e-6,-2.2597e-6,1.8725,-38.642,-9.1622)"
       r="1.0607" />
    <radialGradient
       id="radialGradient5545"
       xlink:href="#linearGradient4168"
       gradientUnits="userSpaceOnUse"
       cy="9.9662"
       cx="40.128"
       gradientTransform="matrix(1.8725,-1.5978e-7,1.5267e-7,1.7892,-34.642,-8.3316)"
       r="1.0607" />
    <linearGradient
       id="linearGradient5548"
       y2="40"
       gradientUnits="userSpaceOnUse"
       x2="24"
       y1="13"
       x1="24">
      <stop
         id="stop6459"
         style="stop-color:#fff;stop-opacity:.94118"
         offset="0" />
      <stop
         id="stop6461"
         style="stop-color:#fff;stop-opacity:.70588"
         offset="1" />
    </linearGradient>
    <linearGradient
       id="linearGradient5551"
       y2="15.044"
       gradientUnits="userSpaceOnUse"
       x2="16.075"
       gradientTransform="matrix(1.2581,0,0,1.1724,-7.4515,-4.6378)"
       y1="9.0735"
       x1="16.034">
      <stop
         id="stop3692"
         style="stop-color:#fff"
         offset="0" />
      <stop
         id="stop3694"
         style="stop-color:#fff;stop-opacity:.46875"
         offset="1" />
    </linearGradient>
    <linearGradient
       id="linearGradient5554"
       y2="39.924"
       gradientUnits="userSpaceOnUse"
       x2="21.78"
       gradientTransform="matrix(1.2424,0,0,1.1803,-7.0605,-5.1228)"
       y1="8.5763"
       x1="21.866">
      <stop
         id="stop2783"
         style="stop-color:#505050"
         offset="0" />
      <stop
         id="stop6301"
         style="stop-color:#6e6e6e"
         offset=".13216" />
      <stop
         id="stop2785"
         style="stop-color:#8c8c8c"
         offset="1" />
    </linearGradient>
    <linearGradient
       id="linearGradient6658"
       y2="609.51"
       gradientUnits="userSpaceOnUse"
       x2="302.86"
       gradientTransform="matrix(2.7744,0,0,1.9697,-1892.2,-872.89)"
       y1="366.65"
       x1="302.86">
      <stop
         id="stop5050"
         style="stop-opacity:0"
         offset="0" />
      <stop
         id="stop5056"
         offset=".5" />
      <stop
         id="stop5052"
         style="stop-opacity:0"
         offset="1" />
    </linearGradient>
    <radialGradient
       id="radialGradient6660"
       xlink:href="#linearGradient5060"
       gradientUnits="userSpaceOnUse"
       cy="486.65"
       cx="605.71"
       gradientTransform="matrix(2.7744,0,0,1.9697,-1891.6,-872.89)"
       r="117.14" />
    <radialGradient
       id="radialGradient6662"
       xlink:href="#linearGradient5060"
       gradientUnits="userSpaceOnUse"
       cy="486.65"
       cx="605.71"
       gradientTransform="matrix(-2.7744,0,0,1.9697,112.76,-872.89)"
       r="117.14" />
  </defs>
  <path
     style="font-size:medium;font-style:normal;font-variant:normal;font-weight:normal;font-stretch:normal;text-indent:0;text-align:start;text-decoration:none;line-height:normal;letter-spacing:normal;word-spacing:normal;text-transform:none;direction:ltr;block-progression:tb;writing-mode:lr-tb;text-anchor:start;baseline-shift:baseline;opacity:1.0;color:#000000;fill:#2D2D2D;fill-opacity:1;stroke:none;stroke-width:6;marker:none;visibility:visible;display:inline;overflow:visible;enable-background:accumulate;font-family:Sans;-inkscape-font-specification:Sans"
     d="m 21.167105,44.040707 a 2.965421,2.9806732 0 0 0 2.744432,-2.975512 l 0,-13.792736 0,-0.24796 a 2.9654209,2.9806731 0 0 0 0,-0.03099 2.960582,2.9758093 0 0 0 0,-0.18597 2.9654209,2.9806731 0 0 0 -0.03084,-0.24796 2.960582,2.9758093 0 0 0 0,-0.06199 2.9654209,2.9806731 0 0 0 -0.03084,-0.09299 2.960582,2.9758093 0 0 0 -0.06167,-0.185969 2.9654209,2.9806731 0 0 0 -0.03084,-0.12398 2.960582,2.9758093 0 0 0 -0.06167,-0.154975 2.9654209,2.9806731 0 0 0 -0.123346,-0.278954 2.9654209,2.9806731 0 0 0 -0.09251,-0.216964 2.960582,2.9758093 0 0 0 -0.06167,-0.06199 2.9654209,2.9806731 0 0 0 -0.03084,-0.06199 2.960582,2.9758093 0 0 0 -0.123345,-0.154975 2.9654209,2.9806731 0 0 0 -0.06167,-0.09298 2.960582,2.9758093 0 0 0 -0.123346,-0.123979 2.9654209,2.9806731 0 0 0 -0.09251,-0.09298 2.960582,2.9758093 0 0 0 -0.370035,-0.278954 2.9654209,2.9806731 0 0 0 -0.246691,-0.154974 2.9654209,2.9806731 0 0 0 -0.123345,-0.06199 2.960582,2.9758093 0 0 0 -0.154181,-0.06199 2.9654209,2.9806731 0 0 0 -0.09251,-0.06199 2.960582,2.9758093 0 0 0 -0.462545,-0.123979 2.9654209,2.9806731 0 0 0 -0.123345,-0.03099 2.960582,2.9758093 0 0 0 -0.185017,-0.03099 2.9654209,2.9806731 0 0 0 -0.123345,0 2.960582,2.9758093 0 0 0 -0.154183,0 2.9654209,2.9806731 0 0 0 -0.123345,0 l -13.8455033,0 A 2.960582,2.9758093 0 0 0 4.9163687,24.854844 2.960582,2.9758093 0 0 0 6.9824017,30 L 13.797226,30 8,35.827044 a 2.960582,2.9758093 0 0 0 2.158541,5.114172 2.960582,2.9758093 0 0 0 2.035197,-0.898852 l 5.797227,-5.827044 0,6.849875 a 2.965421,2.9806732 0 0 0 3.17614,2.975512 z"
     id="path27"
     inkscape:connector-curvature="0" />
  <path
     inkscape:connector-curvature="0"
     style="font-size:medium;font-style:normal;font-variant:normal;font-weight:normal;font-stretch:normal;text-indent:0;text-align:start;text-decoration:none;line-height:normal;letter-spacing:normal;word-spacing:normal;text-transform:none;direction:ltr;block-progression:tb;writing-mode:lr-tb;text-anchor:start;baseline-shift:baseline;opacity:1.0;color:#000000;fill:#2D2D2D;fill-opacity:1;stroke:none;stroke-width:6;marker:none;visibility:visible;display:inline;overflow:visible;enable-background:accumulate;font-family:Sans;-inkscape-font-specification:Sans"
     d="m 26.826927,4.012581 a 2.9625574,2.9693619 0 0 0 -2.741781,2.9642194 l 0,13.7403896 0,0.247018 a 2.9625573,2.9693618 0 0 0 0,0.03088 2.9577231,2.9645165 0 0 0 0,0.185264 2.9625573,2.9693618 0 0 0 0.03081,0.247018 2.9577231,2.9645165 0 0 0 0,0.06175 2.9625573,2.9693618 0 0 0 0.03081,0.09263 2.9577231,2.9645165 0 0 0 0.06162,0.185263 2.9625573,2.9693618 0 0 0 0.03081,0.123509 2.9577231,2.9645165 0 0 0 0.06161,0.154387 2.9625573,2.9693618 0 0 0 0.123226,0.277896 2.9625573,2.9693618 0 0 0 0.09242,0.216141 2.9577231,2.9645165 0 0 0 0.06162,0.06175 2.9625573,2.9693618 0 0 0 0.03081,0.06175 2.9577231,2.9645165 0 0 0 0.123226,0.154386 2.9625573,2.9693618 0 0 0 0.06162,0.09263 2.9577231,2.9645165 0 0 0 0.123226,0.123509 2.9625573,2.9693618 0 0 0 0.09242,0.09263 2.9577231,2.9645165 0 0 0 0.369678,0.277896 2.9625573,2.9693618 0 0 0 0.246453,0.154387 2.9625573,2.9693618 0 0 0 0.123226,0.06175 2.9577231,2.9645165 0 0 0 0.154032,0.06175 2.9625573,2.9693618 0 0 0 0.09242,0.06175 2.9577231,2.9645165 0 0 0 0.462098,0.123509 2.9625573,2.9693618 0 0 0 0.123226,0.03088 2.9577231,2.9645165 0 0 0 0.184839,0.03088 2.9625573,2.9693618 0 0 0 0.123226,0 2.9577231,2.9645165 0 0 0 0.154033,0 2.9625573,2.9693618 0 0 0 0.123226,0 l 13.832135,0 A 2.9577231,2.9645165 0 0 0 43.061977,23.125625 2.9577231,2.9645165 0 0 0 40.99794,18 l -6.808245,0 5.791623,-5.804931 A 2.9577231,2.9645165 0 0 0 37.82486,7.1003095 2.9577231,2.9645165 0 0 0 35.791629,7.9957512 L 30,13.800682 30,6.9768004 A 2.9625574,2.9693619 0 0 0 26.826927,4.012581 z"
     id="path27-6" />
</svg>
