<?xml version="1.0" encoding="UTF-8" standalone="no"?>
<!-- Created with Inkscape (http://www.inkscape.org/) -->

<svg
   xmlns:dc="http://purl.org/dc/elements/1.1/"
   xmlns:cc="http://creativecommons.org/ns#"
   xmlns:rdf="http://www.w3.org/1999/02/22-rdf-syntax-ns#"
   xmlns:svg="http://www.w3.org/2000/svg"
   xmlns="http://www.w3.org/2000/svg"
   xmlns:xlink="http://www.w3.org/1999/xlink"
   xmlns:sodipodi="http://sodipodi.sourceforge.net/DTD/sodipodi-0.dtd"
   xmlns:inkscape="http://www.inkscape.org/namespaces/inkscape"
   version="1.0"
   width="32"
   height="32"
   id="svg2527"
   inkscape:version="0.48.3.1 r9886"
   sodipodi:docname="emblem-system.svg">
  <metadata
     id="metadata27">
    <rdf:RDF>
      <cc:Work
         rdf:about="">
        <dc:format>image/svg+xml</dc:format>
        <dc:type
           rdf:resource="http://purl.org/dc/dcmitype/StillImage" />
        <dc:title />
      </cc:Work>
    </rdf:RDF>
  </metadata>
  <sodipodi:namedview
     pagecolor="#ffffff"
     bordercolor="#666666"
     borderopacity="1"
     objecttolerance="10"
     gridtolerance="10"
     guidetolerance="10"
     inkscape:pageopacity="0"
     inkscape:pageshadow="2"
     inkscape:window-width="1280"
     inkscape:window-height="721"
     id="namedview25"
     showgrid="false"
     inkscape:zoom="8.3112666"
     inkscape:cx="36.17182"
     inkscape:cy="22.742627"
     inkscape:window-x="0"
     inkscape:window-y="22"
     inkscape:window-maximized="1"
     inkscape:current-layer="svg2527"
     showguides="true"
     inkscape:guide-bbox="true" />
  <defs
     id="defs2529">
    <linearGradient
       id="linearGradient8838">
      <stop
         id="stop8840"
         style="stop-color:black;stop-opacity:1"
         offset="0" />
      <stop
         id="stop8842"
         style="stop-color:black;stop-opacity:0"
         offset="1" />
    </linearGradient>
    <radialGradient
       cx="62.625"
       cy="4.625"
       r="10.625"
       fx="62.625"
       fy="4.625"
       id="radialGradient2436"
       xlink:href="#linearGradient8838"
       gradientUnits="userSpaceOnUse"
       gradientTransform="matrix(2.1647059,0,0,0.7529402,-111.56471,36.517647)" />
    <linearGradient
       id="linearGradient3397">
      <stop
         id="stop3399"
         style="stop-color:#aaa;stop-opacity:1"
         offset="0" />
      <stop
         id="stop3401"
         style="stop-color:#8c8c8c;stop-opacity:1"
         offset="1" />
    </linearGradient>
    <linearGradient
       x1="37.201294"
       y1="1"
       x2="37.201294"
       y2="45"
       id="linearGradient2517"
       xlink:href="#linearGradient3397"
       gradientUnits="userSpaceOnUse" />
    <linearGradient
       x1="63.9995"
       y1="3.1001"
       x2="63.9995"
       y2="122.8994"
       id="linearGradient3309"
       gradientUnits="userSpaceOnUse">
      <stop
         id="stop3311"
         style="stop-color:#f6f6f6;stop-opacity:1"
         offset="0" />
      <stop
         id="stop3313"
         style="stop-color:#d2d2d2;stop-opacity:1"
         offset="1" />
    </linearGradient>
    <linearGradient
       x1="20.758585"
       y1="1"
       x2="20.758585"
       y2="45.017357"
       id="linearGradient2515"
       xlink:href="#linearGradient3309"
       gradientUnits="userSpaceOnUse" />
    <linearGradient
       id="linearGradient5128">
      <stop
         id="stop5130"
         style="stop-color:#e5e5e5;stop-opacity:1"
         offset="0" />
      <stop
         id="stop5132"
         style="stop-color:#ababab;stop-opacity:1"
         offset="1" />
    </linearGradient>
    <linearGradient
       x1="86.132919"
       y1="105.105"
       x2="84.63858"
       y2="20.895"
       id="linearGradient2512"
       xlink:href="#linearGradient5128"
       gradientUnits="userSpaceOnUse"
       gradientTransform="matrix(0.3244803,0,0,0.3244803,3.2332655,2.5577454)" />
    <linearGradient
       inkscape:collect="always"
       xlink:href="#linearGradient5128"
       id="linearGradient3006"
       gradientUnits="userSpaceOnUse"
       gradientTransform="matrix(0.3244803,0,0,0.3244803,-61.64809,4.5916437)"
       x1="86.132919"
       y1="105.105"
       x2="84.63858"
       y2="20.895" />
  </defs>
  <path
     style="font-size:medium;font-style:normal;font-variant:normal;font-weight:normal;font-stretch:normal;text-indent:0;text-align:start;text-decoration:none;line-height:normal;letter-spacing:normal;word-spacing:normal;text-transform:none;direction:ltr;block-progression:tb;writing-mode:lr-tb;text-anchor:start;baseline-shift:baseline;color:#000000;fill:#2e3436;fill-opacity:1;fill-rule:nonzero;stroke:#ffffff;stroke-width:2;marker:none;visibility:visible;display:block;overflow:visible;enable-background:accumulate;font-family:Sans;-inkscape-font-specification:Sans;stroke-opacity:1;stroke-miterlimit:4;stroke-dasharray:none"
     d="M 14.21875,2 C 13.089893,2 12.1875,2.9500672 12.1875,4.0625 l 0,1.0625 C 11.776013,5.2700912 11.388499,5.4368023 11,5.625 L 10.25,4.84375 C 9.890585,4.484336 9.3493209,4.2545504 8.8125,4.25 8.3002326,4.2456051 7.783829,4.4349198 7.375,4.84375 L 4.84375,7.375 c -0.7883772,0.7883787 -0.7689518,2.1060457 0,2.875 L 5.625,11 c -0.1881976,0.388498 -0.3549087,0.776014 -0.5,1.1875 l -1.0625,0 C 2.9500687,12.1875 2,13.089894 2,14.21875 l 0,3.5625 c 0,1.128856 0.9500672,2.03125 2.0625,2.03125 l 1.0625,0 c 0.1450913,0.411487 0.3118023,0.799002 0.5,1.1875 l -0.78125,0.75 c -0.7689541,0.768954 -0.7883769,2.086621 0,2.875 L 7.375,27.15625 c 0.7883796,0.788382 2.1060492,0.768963 2.875,0 L 11,26.375 c 0.388499,0.188198 0.776013,0.354909 1.1875,0.5 l 0,1.0625 c 0,1.112431 0.902395,2.0625 2.03125,2.0625 l 3.5625,0 c 1.128855,0 2.03125,-0.950069 2.03125,-2.0625 l 0,-1.0625 c 0.411487,-0.145091 0.799001,-0.311802 1.1875,-0.5 l 0.75,0.78125 c 0.768955,0.768955 2.086616,0.788369 2.875,0 L 27.15625,24.625 c 0.788381,-0.788379 0.768962,-2.10605 0,-2.875 L 26.375,21 c 0.188198,-0.388499 0.354909,-0.776013 0.5,-1.1875 l 1.0625,0 C 29.049931,19.8125 30,18.910109 30,17.78125 l 0,-3.5625 C 30,13.08989 29.049933,12.1875 27.9375,12.1875 l -1.0625,0 C 26.729909,11.776012 26.563198,11.388499 26.375,11 l 0.78125,-0.75 c 0.768951,-0.7689535 0.788371,-2.0866157 0,-2.875 L 24.625,4.84375 c -0.788379,-0.7883814 -2.106045,-0.7689569 -2.875,0 L 21,5.625 C 20.611502,5.4368023 20.223987,5.2700913 19.8125,5.125 l 0,-1.0625 C 19.8125,2.9500688 18.910105,2 17.78125,2 z M 16,13.21875 c 1.539932,0 2.78125,1.241317 2.78125,2.78125 0,1.539933 -1.241318,2.78125 -2.78125,2.78125 -1.539934,0 -2.78125,-1.241317 -2.78125,-2.78125 0,-1.539933 1.241316,-2.78125 2.78125,-2.78125 z"
     id="rect3267-9"
     inkscape:connector-curvature="0"
     sodipodi:nodetypes="ssccccsscccsssscccsscccsssscccsscccsssscccsscccssssssss" />
  <path
     style="font-size:medium;font-style:normal;font-variant:normal;font-weight:normal;font-stretch:normal;text-indent:0;text-align:start;text-decoration:none;line-height:normal;letter-spacing:normal;word-spacing:normal;text-transform:none;direction:ltr;block-progression:tb;writing-mode:lr-tb;text-anchor:start;baseline-shift:baseline;color:#000000;fill:#2e3436;fill-opacity:1;fill-rule:nonzero;stroke:none;stroke-width:2.25000000000000000;marker:none;visibility:visible;display:block;overflow:visible;enable-background:accumulate;font-family:Sans;-inkscape-font-specification:Sans"
     d="M 14.21875,2 C 13.089893,2 12.1875,2.9500672 12.1875,4.0625 l 0,1.0625 C 11.776013,5.2700912 11.388499,5.4368023 11,5.625 L 10.25,4.84375 C 9.890585,4.484336 9.3493209,4.2545504 8.8125,4.25 8.3002326,4.2456051 7.783829,4.4349198 7.375,4.84375 L 4.84375,7.375 c -0.7883772,0.7883787 -0.7689518,2.1060457 0,2.875 L 5.625,11 c -0.1881976,0.388498 -0.3549087,0.776014 -0.5,1.1875 l -1.0625,0 C 2.9500687,12.1875 2,13.089894 2,14.21875 l 0,3.5625 c 0,1.128856 0.9500672,2.03125 2.0625,2.03125 l 1.0625,0 c 0.1450913,0.411487 0.3118023,0.799002 0.5,1.1875 l -0.78125,0.75 c -0.7689541,0.768954 -0.7883769,2.086621 0,2.875 L 7.375,27.15625 c 0.7883796,0.788382 2.1060492,0.768963 2.875,0 L 11,26.375 c 0.388499,0.188198 0.776013,0.354909 1.1875,0.5 l 0,1.0625 c 0,1.112431 0.902395,2.0625 2.03125,2.0625 l 3.5625,0 c 1.128855,0 2.03125,-0.950069 2.03125,-2.0625 l 0,-1.0625 c 0.411487,-0.145091 0.799001,-0.311802 1.1875,-0.5 l 0.75,0.78125 c 0.768955,0.768955 2.086616,0.788369 2.875,0 L 27.15625,24.625 c 0.788381,-0.788379 0.768962,-2.10605 0,-2.875 L 26.375,21 c 0.188198,-0.388499 0.354909,-0.776013 0.5,-1.1875 l 1.0625,0 C 29.049931,19.8125 30,18.910109 30,17.78125 l 0,-3.5625 C 30,13.08989 29.049933,12.1875 27.9375,12.1875 l -1.0625,0 C 26.729909,11.776012 26.563198,11.388499 26.375,11 l 0.78125,-0.75 c 0.768951,-0.7689535 0.788371,-2.0866157 0,-2.875 L 24.625,4.84375 c -0.788379,-0.7883814 -2.106045,-0.7689569 -2.875,0 L 21,5.625 C 20.611502,5.4368023 20.223987,5.2700913 19.8125,5.125 l 0,-1.0625 C 19.8125,2.9500688 18.910105,2 17.78125,2 z M 16,13.21875 c 1.539932,0 2.78125,1.241317 2.78125,2.78125 0,1.539933 -1.241318,2.78125 -2.78125,2.78125 -1.539934,0 -2.78125,-1.241317 -2.78125,-2.78125 0,-1.539933 1.241316,-2.78125 2.78125,-2.78125 z"
     id="rect3267"
     inkscape:connector-curvature="0"
     sodipodi:nodetypes="ssccccsscccsssscccsscccsssscccsscccsssscccsscccssssssss" />
</svg>
