<?xml version="1.0" encoding="UTF-8" standalone="no"?>
<!-- Created with Inkscape (http://www.inkscape.org/) -->

<svg
   xmlns:dc="http://purl.org/dc/elements/1.1/"
   xmlns:cc="http://creativecommons.org/ns#"
   xmlns:rdf="http://www.w3.org/1999/02/22-rdf-syntax-ns#"
   xmlns:svg="http://www.w3.org/2000/svg"
   xmlns="http://www.w3.org/2000/svg"
   xmlns:xlink="http://www.w3.org/1999/xlink"
   xmlns:sodipodi="http://sodipodi.sourceforge.net/DTD/sodipodi-0.dtd"
   xmlns:inkscape="http://www.inkscape.org/namespaces/inkscape"
   version="1.1"
   width="24"
   height="24"
   id="svg2474"
   inkscape:version="0.48.4 r9939"
   sodipodi:docname="emblem-ubuntuone-updating.svg">
  <sodipodi:namedview
     pagecolor="#ffffff"
     bordercolor="#666666"
     borderopacity="1"
     objecttolerance="10"
     gridtolerance="10"
     guidetolerance="10"
     inkscape:pageopacity="0"
     inkscape:pageshadow="2"
     inkscape:window-width="1366"
     inkscape:window-height="709"
     id="namedview45"
     showgrid="true"
     inkscape:zoom="16.622533"
     inkscape:cx="10.797173"
     inkscape:cy="10.433811"
     inkscape:window-x="0"
     inkscape:window-y="27"
     inkscape:window-maximized="1"
     inkscape:current-layer="svg2474">
    <inkscape:grid
       type="xygrid"
       id="grid3022"
       empspacing="5"
       visible="true"
       enabled="true"
       snapvisiblegridlinesonly="true" />
  </sodipodi:namedview>
  <metadata
     id="metadata33">
    <rdf:RDF>
      <cc:Work
         rdf:about="">
        <dc:format>image/svg+xml</dc:format>
        <dc:type
           rdf:resource="http://purl.org/dc/dcmitype/StillImage" />
        <dc:title />
      </cc:Work>
    </rdf:RDF>
  </metadata>
  <defs
     id="defs2476">
    <linearGradient
       id="linearGradient3533">
      <stop
         id="stop3535"
         style="stop-color:#93b9dd;stop-opacity:1"
         offset="0" />
      <stop
         id="stop3545"
         style="stop-color:#6396cd;stop-opacity:1"
         offset="1" />
    </linearGradient>
    <linearGradient
       id="linearGradient3266">
      <stop
         id="stop3268"
         style="stop-color:#387ab8;stop-opacity:1"
         offset="0" />
      <stop
         id="stop3270"
         style="stop-color:#387ab8;stop-opacity:0"
         offset="1" />
    </linearGradient>
    <linearGradient
       id="linearGradient3276">
      <stop
         id="stop3278"
         style="stop-color:#6396cd;stop-opacity:1"
         offset="0" />
      <stop
         id="stop3280"
         style="stop-color:#83acd5;stop-opacity:0"
         offset="1" />
    </linearGradient>
    <linearGradient
       x1="108.5625"
       y1="102.78125"
       x2="108.5625"
       y2="71.78125"
       id="linearGradient5497"
       xlink:href="#linearGradient5491"
       gradientUnits="userSpaceOnUse"
       gradientTransform="translate(0.01475394,-47.797194)" />
    <linearGradient
       id="linearGradient5491">
      <stop
         id="stop5493"
         style="stop-color:#ffffff;stop-opacity:1"
         offset="0" />
      <stop
         id="stop5495"
         style="stop-color:#ffffff;stop-opacity:0"
         offset="1" />
    </linearGradient>
    <linearGradient
       x1="102.5625"
       y1="49.78125"
       x2="103.5625"
       y2="72.78125"
       id="linearGradient5480"
       xlink:href="#linearGradient5474"
       gradientUnits="userSpaceOnUse"
       gradientTransform="translate(0.01475394,-47.797194)" />
    <linearGradient
       id="linearGradient5474">
      <stop
         id="stop5476"
         style="stop-color:#ffffff;stop-opacity:1"
         offset="0" />
      <stop
         id="stop5478"
         style="stop-color:#ffffff;stop-opacity:0"
         offset="1" />
    </linearGradient>
    <linearGradient
       x1="118.47968"
       y1="55.060318"
       x2="118.47968"
       y2="91.941895"
       id="linearGradient4593-5-8-1-5-2"
       xlink:href="#linearGradient3533"
       gradientUnits="userSpaceOnUse"
       gradientTransform="translate(-4.9852461,-47.797194)" />
    <linearGradient
       x1="34.980953"
       y1="53.837799"
       x2="35.996098"
       y2="83.57618"
       id="linearGradient4593-5-8-1-5-2-3"
       xlink:href="#linearGradient3533"
       gradientUnits="userSpaceOnUse"
       gradientTransform="matrix(1.0666665,0,0,1.0666665,76.181421,-50.163851)" />
    <radialGradient
       cx="33.875"
       cy="197.29688"
       r="4.84375"
       fx="33.875"
       fy="197.29688"
       id="radialGradient5147-5"
       xlink:href="#linearGradient6462-6-8-548-9-2-7"
       gradientUnits="userSpaceOnUse"
       gradientTransform="matrix(3.3032251,0,0,0.56774063,6.5554949,-68.841533)" />
    <linearGradient
       id="linearGradient6462-6-8-548-9-2-7">
      <stop
         id="stop6464-5-9-94-5-4-4"
         style="stop-color:#000000;stop-opacity:1"
         offset="0" />
      <stop
         id="stop6466-3-6-1-7-2-8"
         style="stop-color:#000000;stop-opacity:0"
         offset="1" />
    </linearGradient>
    <linearGradient
       id="linearGradient6462-6-8-548-9-5">
      <stop
         id="stop6464-5-9-94-5-8"
         style="stop-color:#000000;stop-opacity:1"
         offset="0" />
      <stop
         id="stop6466-3-6-1-7-5"
         style="stop-color:#000000;stop-opacity:0"
         offset="1" />
    </linearGradient>
    <radialGradient
       cx="33.875"
       cy="197.29688"
       r="4.84375"
       fx="33.875"
       fy="197.29688"
       id="radialGradient6081"
       xlink:href="#linearGradient6462-6-8-548-9-5"
       gradientUnits="userSpaceOnUse"
       gradientTransform="matrix(4.541935,0,0,0.67096704,-35.405806,-89.207778)" />
    <linearGradient
       x1="42.030777"
       y1="84.719109"
       x2="53.808601"
       y2="73.263672"
       id="linearGradient4008"
       xlink:href="#linearGradient3276"
       gradientUnits="userSpaceOnUse"
       gradientTransform="matrix(1.0666665,0,0,1.0666665,76.181421,-50.163851)" />
    <linearGradient
       x1="39.843277"
       y1="83.781609"
       x2="50.683601"
       y2="75.138672"
       id="linearGradient4018"
       xlink:href="#linearGradient3266"
       gradientUnits="userSpaceOnUse"
       gradientTransform="matrix(1.0666665,0,0,1.0666665,81.514754,-50.163851)" />
  </defs>
  <path
     inkscape:connector-curvature="0"
     style="opacity:0.6;fill:#ffffff;fill-opacity:1;stroke:#ffffff;stroke-width:2;stroke-miterlimit:4;stroke-opacity:1;stroke-dasharray:none"
     d="m 12,5 c -3.8659932,0 -7,3.1340068 -7,7 0,3.524819 2.610031,6.41897 6,6.90625 l 0,-2 C 8.7215844,16.440019 7,14.416246 7,12 7,9.2385763 9.2385763,7 12,7 c 2.761424,0 5,2.2385763 5,5 0,1.638967 -0.809764,3.061012 -2.03125,3.96875 L 13,14 l 0,5 5,0 -1.59375,-1.59375 C 17.974342,16.120966 19,14.187108 19,12 19,8.1340068 15.865993,5 12,5 z"
     id="path3790-7" />
  <path
     sodipodi:nodetypes="sscccssscccccssccccccss"
     inkscape:connector-curvature="0"
     id="path3790"
     d="m 12,5 c -3.8659932,0 -7,3.1340068 -7,7 0,3.524819 2.610031,6.41897 6,6.90625 l 0,-2 0,-1.0625 C 9.2756909,15.399078 8,13.863188 8,12 8,9.790861 9.790861,8 12,8 c 2.209139,0 4,1.790861 4,4 0,1.365064 0.04417,2.281537 -1,3 l -2,-2 0,6 6,0 -2,-2 c 0.195798,-0.160486 -0.208441,0.08678 -0.03125,-0.09375 0.348726,-0.355295 0.670426,-0.764383 0.9375,-1.1875 0.140593,-0.222737 0.259721,-0.448721 0.375,-0.6875 0.12306,-0.249564 0.250909,-0.484751 0.34375,-0.75 0.07447,-0.218637 0.134566,-0.459757 0.1875,-0.6875 0.01449,-0.06114 0.0184,-0.125739 0.03125,-0.1875 0.03771,-0.184492 0.07079,-0.37306 0.09375,-0.5625 0.0013,-0.01032 -0.0012,-0.02092 0,-0.03125 C 18.968608,12.547798 19,12.273388 19,12 19,8.1340068 15.865993,5 12,5 z"
     style="opacity:0.8;fill:#000000;fill-opacity:1;stroke:none" />
</svg>
