<?xml version="1.0" encoding="UTF-8" standalone="no"?>
<!-- Created with Inkscape (http://www.inkscape.org/) -->

<svg
   xmlns:dc="http://purl.org/dc/elements/1.1/"
   xmlns:cc="http://creativecommons.org/ns#"
   xmlns:rdf="http://www.w3.org/1999/02/22-rdf-syntax-ns#"
   xmlns:svg="http://www.w3.org/2000/svg"
   xmlns="http://www.w3.org/2000/svg"
   xmlns:sodipodi="http://sodipodi.sourceforge.net/DTD/sodipodi-0.dtd"
   xmlns:inkscape="http://www.inkscape.org/namespaces/inkscape"
   id="svg3710"
   height="22"
   width="22"
   version="1.1"
   inkscape:version="0.48.4 r9939"
   sodipodi:docname="browser-download.svg">
  <metadata
     id="metadata23">
    <rdf:RDF>
      <cc:Work
         rdf:about="">
        <dc:format>image/svg+xml</dc:format>
        <dc:type
           rdf:resource="http://purl.org/dc/dcmitype/StillImage" />
        <dc:title></dc:title>
      </cc:Work>
    </rdf:RDF>
  </metadata>
  <sodipodi:namedview
     pagecolor="#ffffff"
     bordercolor="#666666"
     borderopacity="1"
     objecttolerance="10"
     gridtolerance="10"
     guidetolerance="10"
     inkscape:pageopacity="0"
     inkscape:pageshadow="2"
     inkscape:window-width="1366"
     inkscape:window-height="709"
     id="namedview21"
     showgrid="true"
     inkscape:zoom="13.906434"
     inkscape:cx="3.0027608"
     inkscape:cy="15.585867"
     inkscape:window-x="0"
     inkscape:window-y="27"
     inkscape:window-maximized="1"
     inkscape:current-layer="svg3710">
    <inkscape:grid
       type="xygrid"
       id="grid3002"
       empspacing="5"
       visible="true"
       enabled="true"
       snapvisiblegridlinesonly="true" />
  </sodipodi:namedview>
  <defs
     id="defs3712">
    <linearGradient
       id="linearGradient2888"
       y2="41.869999"
       gradientUnits="userSpaceOnUse"
       x2="28.622"
       gradientTransform="matrix(-1.3107,0,0,1.2884,56.854,-9.8895)"
       y1="10.042"
       x1="28.622">
      <stop
         id="stop4224"
         style="stop-color:#fff"
         offset="0" />
      <stop
         id="stop4226"
         style="stop-color:#fff;stop-opacity:0"
         offset="1" />
    </linearGradient>
    <linearGradient
       id="linearGradient2891"
       y2="44.050999"
       gradientUnits="userSpaceOnUse"
       x2="22.181999"
       gradientTransform="matrix(1.1301,0,0,1.1161,-1.5374,-3.1095)"
       y1="14.5"
       x1="22.181999">
      <stop
         id="stop3618"
         style="stop-color:#f0c178"
         offset="0" />
      <stop
         id="stop3270"
         style="stop-color:#e18941"
         offset=".5" />
      <stop
         id="stop3620"
         style="stop-color:#ec4f18"
         offset="1" />
    </linearGradient>
    <linearGradient
       id="linearGradient3674"
       y2="1.0474"
       gradientUnits="userSpaceOnUse"
       x2="16.632"
       gradientTransform="matrix(-1,0,0,1,48,0)"
       y1="46.054001"
       x1="16.632">
      <stop
         id="stop3624"
         style="stop-color:#bb2b12"
         offset="0" />
      <stop
         id="stop3626"
         style="stop-color:#cd7233"
         offset="1" />
    </linearGradient>
    <radialGradient
       id="radialGradient3708"
       gradientUnits="userSpaceOnUse"
       cy="19.031"
       cx="11.25"
       gradientTransform="matrix(-2.9695,0,0,0.81662,57.436,25.375)"
       r="8.0625">
      <stop
         id="stop2487"
         style="stop-color:#0d0d0d"
         offset="0" />
      <stop
         id="stop2489"
         style="stop-color:#0d0d0d;stop-opacity:0"
         offset="1" />
    </radialGradient>
    <linearGradient
       id="linearGradient2891-5"
       y2="44.050999"
       gradientUnits="userSpaceOnUse"
       x2="22.181999"
       gradientTransform="matrix(1.1301,0,0,1.1161,-1.5374,-3.1095)"
       y1="14.5"
       x1="22.181999">
      <stop
         id="stop3618-2"
         style="stop-color:#f0c178"
         offset="0" />
      <stop
         id="stop3270-7"
         style="stop-color:#e18941"
         offset=".5" />
      <stop
         id="stop3620-5"
         style="stop-color:#ec4f18"
         offset="1" />
    </linearGradient>
    <linearGradient
       id="linearGradient3674-5"
       y2="1.0474"
       gradientUnits="userSpaceOnUse"
       x2="16.632"
       gradientTransform="matrix(-1,0,0,1,48,0)"
       y1="46.054001"
       x1="16.632">
      <stop
         id="stop3624-2"
         style="stop-color:#bb2b12"
         offset="0" />
      <stop
         id="stop3626-3"
         style="stop-color:#cd7233"
         offset="1" />
    </linearGradient>
  </defs>
  <path
     inkscape:connector-curvature="0"
     style="font-size:medium;font-style:normal;font-variant:normal;font-weight:normal;font-stretch:normal;text-indent:0;text-align:start;text-decoration:none;line-height:normal;letter-spacing:normal;word-spacing:normal;text-transform:none;direction:ltr;block-progression:tb;writing-mode:lr-tb;text-anchor:start;baseline-shift:baseline;opacity:1.0;color:#000000;fill:#F778C5;fill-opacity:1;stroke:none;stroke-width:6;marker:none;visibility:visible;display:inline;overflow:visible;enable-background:accumulate;font-family:Sans;-inkscape-font-specification:Sans"
     d="m 11.071323,18.996932 a 1.5398625,1.5398625 0 0 0 0.96875,-0.4375 l 5.124999,-5.15625 a 1.5398625,1.5398625 0 0 0 0.46875,-1.0625 1.5398625,1.5398625 0 0 0 -2.65625,-1.125 l -4.031249,4.0625 -4.0625006,-4.0625 a 1.5423796,1.5423796 0 0 0 -2.15625,2.1875 l 5.1250002,5.15625 a 1.5398625,1.5398625 0 0 0 1.2187504,0.4375 z m 3.062499,-8.71875 a 1.026575,1.026575 0 0 0 0.90625,-1.0625 l 0,-2.5625 a 1.03125,1.03125 0 0 0 -2.062499,0 l 0,2.5625 a 1.026575,1.026575 0 0 0 1.062499,1.0625 1.026575,1.026575 0 0 0 0.09375,0 z m -3.093749,0 a 1.026575,1.026575 0 0 0 0.9375,-1.0625 l 0,-5.1875 a 1.0312502,1.0312502 0 1 0 -2.0625004,0 l 0,5.1875 a 1.026575,1.026575 0 0 0 1.0312504,1.0625 1.026575,1.026575 0 0 0 0.09375,0 z m -3.0625006,0 a 1.026575,1.026575 0 0 0 0.90625,-1.0625 l 0,-3.65625 a 1.026575,1.026575 0 1 0 -2.03125,0 l 0,3.65625 a 1.026575,1.026575 0 0 0 1.125,1.0625 z"
     id="path27" />
</svg>
