<?xml version="1.0" encoding="UTF-8" standalone="no"?>
<!-- Created with Inkscape (http://www.inkscape.org/) -->

<svg
   xmlns:dc="http://purl.org/dc/elements/1.1/"
   xmlns:cc="http://creativecommons.org/ns#"
   xmlns:rdf="http://www.w3.org/1999/02/22-rdf-syntax-ns#"
   xmlns:svg="http://www.w3.org/2000/svg"
   xmlns="http://www.w3.org/2000/svg"
   xmlns:xlink="http://www.w3.org/1999/xlink"
   xmlns:sodipodi="http://sodipodi.sourceforge.net/DTD/sodipodi-0.dtd"
   xmlns:inkscape="http://www.inkscape.org/namespaces/inkscape"
   version="1.0"
   width="16"
   height="16"
   id="svg2527"
   inkscape:version="0.48.3.1 r9886"
   sodipodi:docname="bonobo-component-browser.svg">
  <metadata
     id="metadata27">
    <rdf:RDF>
      <cc:Work
         rdf:about="">
        <dc:format>image/svg+xml</dc:format>
        <dc:type
           rdf:resource="http://purl.org/dc/dcmitype/StillImage" />
        <dc:title></dc:title>
      </cc:Work>
    </rdf:RDF>
  </metadata>
  <sodipodi:namedview
     pagecolor="#ffffff"
     bordercolor="#666666"
     borderopacity="1"
     objecttolerance="10"
     gridtolerance="10"
     guidetolerance="10"
     inkscape:pageopacity="0"
     inkscape:pageshadow="2"
     inkscape:window-width="1366"
     inkscape:window-height="709"
     id="namedview25"
     showgrid="true"
     inkscape:zoom="16.622534"
     inkscape:cx="15.37962"
     inkscape:cy="14.615149"
     inkscape:window-x="0"
     inkscape:window-y="27"
     inkscape:window-maximized="1"
     inkscape:current-layer="svg2527">
    <inkscape:grid
       type="xygrid"
       id="grid2999"
       empspacing="5"
       visible="true"
       enabled="true"
       snapvisiblegridlinesonly="true" />
  </sodipodi:namedview>
  <defs
     id="defs2529">
    <linearGradient
       id="linearGradient8838">
      <stop
         id="stop8840"
         style="stop-color:black;stop-opacity:1"
         offset="0" />
      <stop
         id="stop8842"
         style="stop-color:black;stop-opacity:0"
         offset="1" />
    </linearGradient>
    <radialGradient
       cx="62.625"
       cy="4.625"
       r="10.625"
       fx="62.625"
       fy="4.625"
       id="radialGradient2436"
       xlink:href="#linearGradient8838"
       gradientUnits="userSpaceOnUse"
       gradientTransform="matrix(2.1647059,0,0,0.7529402,-111.56471,36.517647)" />
    <linearGradient
       id="linearGradient3397">
      <stop
         id="stop3399"
         style="stop-color:#aaa;stop-opacity:1"
         offset="0" />
      <stop
         id="stop3401"
         style="stop-color:#8c8c8c;stop-opacity:1"
         offset="1" />
    </linearGradient>
    <linearGradient
       x1="37.201294"
       y1="1"
       x2="37.201294"
       y2="45"
       id="linearGradient2517"
       xlink:href="#linearGradient3397"
       gradientUnits="userSpaceOnUse" />
    <linearGradient
       x1="63.9995"
       y1="3.1001"
       x2="63.9995"
       y2="122.8994"
       id="linearGradient3309"
       gradientUnits="userSpaceOnUse">
      <stop
         id="stop3311"
         style="stop-color:#f6f6f6;stop-opacity:1"
         offset="0" />
      <stop
         id="stop3313"
         style="stop-color:#d2d2d2;stop-opacity:1"
         offset="1" />
    </linearGradient>
    <linearGradient
       x1="20.758585"
       y1="1"
       x2="20.758585"
       y2="45.017357"
       id="linearGradient2515"
       xlink:href="#linearGradient3309"
       gradientUnits="userSpaceOnUse" />
    <linearGradient
       id="linearGradient5128">
      <stop
         id="stop5130"
         style="stop-color:#e5e5e5;stop-opacity:1"
         offset="0" />
      <stop
         id="stop5132"
         style="stop-color:#ababab;stop-opacity:1"
         offset="1" />
    </linearGradient>
    <linearGradient
       x1="86.132919"
       y1="105.105"
       x2="84.63858"
       y2="20.895"
       id="linearGradient2512"
       xlink:href="#linearGradient5128"
       gradientUnits="userSpaceOnUse"
       gradientTransform="matrix(0.3244803,0,0,0.3244803,3.2332655,2.5577454)" />
    <linearGradient
       inkscape:collect="always"
       xlink:href="#linearGradient5128"
       id="linearGradient3006"
       gradientUnits="userSpaceOnUse"
       gradientTransform="matrix(0.3244803,0,0,0.3244803,-61.64809,4.5916437)"
       x1="86.132919"
       y1="105.105"
       x2="84.63858"
       y2="20.895" />
  </defs>
  <path
     style="opacity:1.0;fill:#F778C5;fill-opacity:1;stroke:none"
     d="M 10,0 C 8.125,0 7.419922,1.1835938 7.15625,2.0625 5.7053886,2.2721726 4.4231966,3.0081578 3.5,4.0625 1.5279536,4.3095659 0,5.9609808 0,8 0,9.873395 1.2922431,11.413304 3.03125,11.84375 3.2872999,13.608647 5.411165,15 8,15 10.588835,15 12.7127,13.608647 12.96875,11.84375 14.707757,11.413304 16,9.873395 16,8 16,5.9609808 14.472046,4.3095659 12.5,4.0625 11.452478,2.8661708 9.946227,2.0722268 8.25,2 8.5,1.5 9,1 10,1 L 10,0 z M 6,5 C 7.104569,5 8,6.119288 8,7.5 8,6.119288 8.895431,5 10,5 c 1.104569,0 2,1.119288 2,2.5 0,0.989821 -0.45747,1.844955 -1.125,2.25 0.700642,0.450299 1.125,1.072272 1.125,1.75 0,0.172589 -0.04047,0.337256 -0.09375,0.5 l -7.8125,0 C 4.0404664,11.837256 4,11.672589 4,11.5 4,10.822272 4.424358,10.200299 5.125,9.75 4.4574696,9.344955 4,8.489821 4,7.5 4,6.119288 4.8954305,5 6,5 z M 8,7.5 C 8,8.077509 7.82559,8.607987 7.5625,9.03125 7.706925,9.021378 7.85137,9 8,9 8.14863,9 8.293075,9.02138 8.4375,9.03125 8.17441,8.607987 8,8.077509 8,7.5 z M 6,7 C 5.4477153,7 5,7.447715 5,8 5,8.552285 5.4477153,9 6,9 6.552285,9 7,8.552285 7,8 7,7.447715 6.552285,7 6,7 z m 4,0 C 9.447715,7 9,7.447715 9,8 9,8.552285 9.447715,9 10,9 10.552285,9 11,8.552285 11,8 11,7.447715 10.552285,7 10,7 z m -4,3 0,1 1,0 0,-1 -1,0 z m 3,0 0,1 1,0 0,-1 -1,0 z m -4.1875,3 6.375,0 C 10.457757,13.607394 9.30887,14 8,14 6.69113,14 5.5422429,13.607394 4.8125,13 z"
     id="path3001"
     inkscape:connector-curvature="0" />
</svg>
