<?xml version="1.0" encoding="UTF-8" standalone="no"?>
<!-- Created with Inkscape (http://www.inkscape.org/) -->

<svg
   xmlns:dc="http://purl.org/dc/elements/1.1/"
   xmlns:cc="http://creativecommons.org/ns#"
   xmlns:rdf="http://www.w3.org/1999/02/22-rdf-syntax-ns#"
   xmlns:svg="http://www.w3.org/2000/svg"
   xmlns="http://www.w3.org/2000/svg"
   xmlns:xlink="http://www.w3.org/1999/xlink"
   xmlns:sodipodi="http://sodipodi.sourceforge.net/DTD/sodipodi-0.dtd"
   xmlns:inkscape="http://www.inkscape.org/namespaces/inkscape"
   id="svg3692"
   height="22"
   width="22"
   version="1.1"
   inkscape:version="0.48.4 r9939"
   sodipodi:docname="emblem-favorite.svg">
  <sodipodi:namedview
     pagecolor="#ffffff"
     bordercolor="#666666"
     borderopacity="1"
     objecttolerance="10"
     gridtolerance="10"
     guidetolerance="10"
     inkscape:pageopacity="0"
     inkscape:pageshadow="2"
     inkscape:window-width="1366"
     inkscape:window-height="709"
     id="namedview42"
     showgrid="true"
     inkscape:zoom="16.793652"
     inkscape:cx="9.7513817"
     inkscape:cy="11.617882"
     inkscape:window-x="0"
     inkscape:window-y="27"
     inkscape:window-maximized="1"
     inkscape:current-layer="svg3692">
    <inkscape:grid
       type="xygrid"
       id="grid3811"
       empspacing="5"
       visible="true"
       enabled="true"
       snapvisiblegridlinesonly="true" />
  </sodipodi:namedview>
  <defs
     id="defs3694">
    <linearGradient
       id="linearGradient3619"
       y2="33.955002"
       gradientUnits="userSpaceOnUse"
       x2="15.215"
       gradientTransform="translate(2.9799,-3.1217)"
       y1="22.292"
       x1="11.566">
      <stop
         id="stop2687"
         style="stop-color:#fff;stop-opacity:.27451"
         offset="0" />
      <stop
         id="stop2689"
         style="stop-color:#fff;stop-opacity:0"
         offset="1" />
    </linearGradient>
    <linearGradient
       id="linearGradient3648"
       y2="43.444"
       gradientUnits="userSpaceOnUse"
       x2="29.646999"
       y1="2"
       x1="29.646999">
      <stop
         id="stop3644"
         style="stop-color:#fff"
         offset="0" />
      <stop
         id="stop3646"
         style="stop-color:#fff;stop-opacity:0"
         offset="1" />
    </linearGradient>
    <radialGradient
       id="radialGradient3627"
       gradientUnits="userSpaceOnUse"
       cy="25.625"
       cx="13.139"
       gradientTransform="matrix(0,2.6541,-3.1628,0,97.183,-26.676)"
       r="13.931">
      <stop
         id="stop3692"
         style="stop-color:#ffeb9f"
         offset="0" />
      <stop
         id="stop3694"
         style="stop-color:#ffd57e"
         offset=".26238" />
      <stop
         id="stop3696"
         style="stop-color:#ffbc43"
         offset=".66094" />
      <stop
         id="stop3698"
         style="stop-color:#ff921a"
         offset="1" />
    </radialGradient>
    <linearGradient
       id="linearGradient3629"
       y2="9.5799999"
       gradientUnits="userSpaceOnUse"
       x2="21.483"
       gradientTransform="matrix(1.6509,0,0,1.6568,-11.466,-15.046)"
       y1="36.255001"
       x1="21.483">
      <stop
         id="stop3605"
         style="stop-color:#a7651c"
         offset="0" />
      <stop
         id="stop3607"
         style="stop-color:#c8a700"
         offset="1" />
    </linearGradient>
    <radialGradient
       id="radialGradient3690"
       gradientUnits="userSpaceOnUse"
       cx="62.625"
       cy="4.625"
       r="10.625"
       gradientTransform="matrix(2.1647,0,0,0.84706,-111.56,35.082)">
      <stop
         id="stop8840"
         offset="0" />
      <stop
         id="stop8842"
         style="stop-opacity:0"
         offset="1" />
    </radialGradient>
    <linearGradient
       id="linearGradient5530"
       y2="38.273998"
       gradientUnits="userSpaceOnUse"
       x2="22.368999"
       gradientTransform="matrix(0.59882,0,0,0.5952,23.605,21.219)"
       y1="8.0323"
       x1="22.368999">
      <stop
         id="stop3945"
         style="stop-color:#fff"
         offset="0" />
      <stop
         id="stop3947"
         style="stop-color:#fff;stop-opacity:0"
         offset="1" />
    </linearGradient>
    <radialGradient
       id="radialGradient2885"
       gradientUnits="userSpaceOnUse"
       cx="69.447998"
       cy="51.695"
       r="31"
       gradientTransform="matrix(0,0.67924,-0.73892,0,72.903,-19.49)">
      <stop
         id="stop3244-5"
         style="stop-color:#eef87e"
         offset="0" />
      <stop
         id="stop3246-9"
         style="stop-color:#cde34f"
         offset=".26238" />
      <stop
         id="stop3248-7"
         style="stop-color:#93b723"
         offset=".66094" />
      <stop
         id="stop3250-8"
         style="stop-color:#5a7e0d"
         offset="1" />
    </radialGradient>
    <linearGradient
       id="linearGradient2887"
       y2="52.808998"
       gradientUnits="userSpaceOnUse"
       y1="123.19"
       gradientTransform="matrix(0.28214,0,0,0.28445,12.171,9.9582)"
       x2="72.421997"
       x1="72.421997">
      <stop
         id="stop2492-3"
         style="stop-color:#365f0e"
         offset="0" />
      <stop
         id="stop2494-8"
         style="stop-color:#84a718"
         offset="1" />
    </linearGradient>
    <linearGradient
       inkscape:collect="always"
       xlink:href="#linearGradient5530"
       id="linearGradient3020"
       gradientUnits="userSpaceOnUse"
       gradientTransform="matrix(0.59882,0,0,0.5952,-29.886525,43.388492)"
       x1="22.368999"
       y1="8.0323"
       x2="22.368999"
       y2="38.273998" />
    <linearGradient
       inkscape:collect="always"
       xlink:href="#linearGradient3619"
       id="linearGradient3028"
       gradientUnits="userSpaceOnUse"
       gradientTransform="translate(-65.359083,-18.579327)"
       x1="11.566"
       y1="22.292"
       x2="15.215"
       y2="33.955002" />
    <linearGradient
       inkscape:collect="always"
       xlink:href="#linearGradient3648"
       id="linearGradient3031"
       gradientUnits="userSpaceOnUse"
       x1="29.646999"
       y1="2"
       x2="29.646999"
       y2="43.444"
       gradientTransform="translate(-68.338983,-15.457627)" />
    <radialGradient
       inkscape:collect="always"
       xlink:href="#radialGradient3690"
       id="radialGradient3041"
       gradientUnits="userSpaceOnUse"
       gradientTransform="matrix(2.1647,0,0,0.84706,-179.89898,19.624373)"
       cx="62.625"
       cy="4.625"
       r="10.625" />
  </defs>
  <metadata
     id="metadata3697">
    <rdf:RDF>
      <cc:Work
         rdf:about="">
        <dc:format>image/svg+xml</dc:format>
        <dc:type
           rdf:resource="http://purl.org/dc/dcmitype/StillImage" />
        <dc:title></dc:title>
      </cc:Work>
    </rdf:RDF>
  </metadata>
  <g
     id="g3901"
     transform="translate(-1,-1)">
    <path
       sodipodi:nodetypes="ccccssssscsssssscsssssscsssssscscssssccssscscsssssscsssssscssssscccssssc"
       inkscape:connector-curvature="0"
       id="path1307-8"
       d="m 12.000013,5.874995 c -0.0184,0.00262 -0.03667,0.00624 -0.05469,0.010793 -0.06465,0.00642 -0.128043,0.02483 -0.185919,0.053967 -0.0037,0.00354 -0.0074,0.00714 -0.01094,0.010793 C 11.578565,6.017965 11.47759,6.1170144 11.3985,6.2095885 11.284897,6.3425661 11.177688,6.4972274 11.070414,6.6737047 10.855864,7.0266586 10.630594,7.4750726 10.403295,7.9257369 10.175996,8.3764014 9.9519376,8.829614 9.7689848,9.17777 9.6775088,9.351847 9.5901544,9.498764 9.5283843,9.598711 c -0.01883,0.03048 -0.037282,0.04461 -0.054684,0.06476 -0.025046,0.0095 -0.045423,0.01442 -0.076555,0.02159 -0.1163478,0.02677 -0.2839894,0.06562 -0.4812009,0.09714 -0.3944196,0.06304 -0.9035036,0.121557 -1.41079,0.19428 -0.5072862,0.07272 -1.0025542,0.157288 -1.4107927,0.248248 -0.2041192,0.04548 -0.3831462,0.0864 -0.5468189,0.151107 -0.081836,0.03236 -0.1651912,0.07001 -0.2515367,0.12952 -0.086346,0.05951 -0.1990183,0.143045 -0.2624731,0.334595 -0.063485,0.191631 -0.023489,0.333214 0.010936,0.431734 0.034425,0.09852 0.073333,0.174697 0.1203001,0.248249 0.093934,0.147102 0.2119888,0.288011 0.3499641,0.442529 0.2759507,0.309031 0.639316,0.663369 1.0061468,1.014577 0.3668309,0.351209 0.7358797,0.693146 1.0170832,0.971405 0.1406019,0.139129 0.2611079,0.267624 0.3390277,0.356181 0.023011,0.02614 0.029338,0.04248 0.043746,0.06476 0.00129,0.02561 0.00266,0.04423 0,0.07556 -0.00994,0.116363 -0.024337,0.28138 -0.054682,0.474909 -0.060688,0.387057 -0.1543524,0.885978 -0.2406004,1.381553 -0.086248,0.495574 -0.1697969,0.993842 -0.2077911,1.403139 -0.018996,0.204649 -0.034114,0.377021 -0.021873,0.550463 0.00612,0.08672 0.023413,0.181028 0.054682,0.280627 0.031269,0.0996 0.075842,0.228173 0.2406003,0.345389 0.1646595,0.11738 0.3104524,0.12035 0.4155824,0.118727 0.1051299,-0.0016 0.1878608,-0.01139 0.2734094,-0.03238 0.1710971,-0.04197 0.3434775,-0.113411 0.5358826,-0.194281 0.3848093,-0.16174 0.8474318,-0.381674 1.3014289,-0.615223 0.453997,-0.233548 0.900839,-0.482125 1.257685,-0.658397 0.178422,-0.08814 0.338272,-0.15972 0.448391,-0.205073 0.03166,-0.01304 0.0507,-0.01522 0.07655,-0.02159 0.02588,0.0064 0.0449,0.0086 0.07655,0.02159 0.110103,0.04536 0.269979,0.116938 0.448392,0.205073 0.356824,0.176273 0.803679,0.424848 1.257683,0.658397 0.454003,0.23355 0.916588,0.453482 1.301429,0.615223 0.19242,0.08088 0.364769,0.152307 0.535882,0.194281 0.08556,0.02098 0.168286,0.03076 0.27341,0.03238 0.105122,0.0016 0.250946,-0.0015 0.415583,-0.118727 0.164619,-0.117286 0.209364,-0.24581 0.240599,-0.345389 0.03124,-0.09958 0.04857,-0.193905 0.05469,-0.280627 0.01222,-0.173444 -0.0029,-0.345796 -0.02187,-0.550463 -0.03801,-0.409331 -0.121545,-0.907544 -0.207791,-1.403139 -0.08625,-0.495594 -0.179927,-0.994502 -0.2406,-1.381553 -0.03034,-0.193526 -0.04475,-0.358561 -0.05469,-0.474909 -0.0026,-0.03132 -0.0012,-0.04994 0,-0.07556 0.01441,-0.02229 0.02074,-0.03861 0.04374,-0.06476 0.07792,-0.08854 0.198422,-0.217063 0.339028,-0.356181 0.281211,-0.27824 0.650236,-0.620192 1.017083,-0.971405 0.366847,-0.351213 0.730184,-0.705508 1.006146,-1.014577 0.137982,-0.154535 0.25603,-0.295391 0.349965,-0.442529 0.04697,-0.07357 0.08589,-0.149706 0.1203,-0.248249 0.03442,-0.09854 0.07442,-0.240166 0.01094,-0.431734 -0.06344,-0.191612 -0.176114,-0.275085 -0.262466,-0.334595 -0.08635,-0.05951 -0.169702,-0.09717 -0.251537,-0.12952 -0.163669,-0.06469 -0.342701,-0.105641 -0.546819,-0.151107 -0.408235,-0.09093 -0.903503,-0.175536 -1.410793,-0.248248 -0.507289,-0.07271 -1.016388,-0.131218 -1.410793,-0.19428 -0.197202,-0.03153 -0.364885,-0.07036 -0.4812,-0.09714 -0.03112,-0.0072 -0.0515,-0.01214 -0.07655,-0.02159 -0.0174,-0.02015 -0.03585,-0.03429 -0.05469,-0.06476 C 14.409863,9.498761 14.322512,9.351836 14.231032,9.177769 14.048075,8.829635 13.824036,8.3763676 13.596724,7.9257376 13.369411,7.4751075 13.144162,7.02663 12.929605,6.6737054 12.822327,6.497243 12.715119,6.342554 12.601514,6.2095899 12.487908,6.0766259 12.404634,5.874995 12.000013,5.874995 z"
       style="font-size:medium;font-style:normal;font-variant:normal;font-weight:normal;font-stretch:normal;text-indent:0;text-align:start;text-decoration:none;line-height:normal;letter-spacing:normal;word-spacing:normal;text-transform:none;direction:ltr;block-progression:tb;writing-mode:lr-tb;text-anchor:start;baseline-shift:baseline;opacity:0.6;color:#000000;fill:#ffffff;fill-opacity:1;fill-rule:nonzero;stroke:#ffffff;stroke-width:2;stroke-miterlimit:4;stroke-opacity:1;stroke-dasharray:none;marker:none;visibility:visible;display:inline;overflow:visible;enable-background:accumulate;font-family:Sans;-inkscape-font-specification:Sans" />
    <path
       sodipodi:nodetypes="ccccssssscsssssscsssssscsssssscscssssccssscscsssssscsssssscssssscccssssc"
       inkscape:connector-curvature="0"
       id="path1307"
       d="m 12.000013,5.874995 c -0.0184,0.00262 -0.03667,0.00624 -0.05469,0.010793 -0.06465,0.00642 -0.128043,0.02483 -0.185919,0.053967 -0.0037,0.00354 -0.0074,0.00714 -0.01094,0.010793 C 11.578565,6.017965 11.47759,6.1170144 11.3985,6.2095885 11.284897,6.3425661 11.177688,6.4972274 11.070414,6.6737047 10.855864,7.0266586 10.630594,7.4750726 10.403295,7.9257369 10.175996,8.3764014 9.9519376,8.829614 9.7689848,9.17777 9.6775088,9.351847 9.5901544,9.498764 9.5283843,9.598711 c -0.01883,0.03048 -0.037282,0.04461 -0.054684,0.06476 -0.025046,0.0095 -0.045423,0.01442 -0.076555,0.02159 -0.1163478,0.02677 -0.2839894,0.06562 -0.4812009,0.09714 -0.3944196,0.06304 -0.9035036,0.121557 -1.41079,0.19428 -0.5072862,0.07272 -1.0025542,0.157288 -1.4107927,0.248248 -0.2041192,0.04548 -0.3831462,0.0864 -0.5468189,0.151107 -0.081836,0.03236 -0.1651912,0.07001 -0.2515367,0.12952 -0.086346,0.05951 -0.1990183,0.143045 -0.2624731,0.334595 -0.063485,0.191631 -0.023489,0.333214 0.010936,0.431734 0.034425,0.09852 0.073333,0.174697 0.1203001,0.248249 0.093934,0.147102 0.2119888,0.288011 0.3499641,0.442529 0.2759507,0.309031 0.639316,0.663369 1.0061468,1.014577 0.3668309,0.351209 0.7358797,0.693146 1.0170832,0.971405 0.1406019,0.139129 0.2611079,0.267624 0.3390277,0.356181 0.023011,0.02614 0.029338,0.04248 0.043746,0.06476 0.00129,0.02561 0.00266,0.04423 0,0.07556 -0.00994,0.116363 -0.024337,0.28138 -0.054682,0.474909 -0.060688,0.387057 -0.1543524,0.885978 -0.2406004,1.381553 -0.086248,0.495574 -0.1697969,0.993842 -0.2077911,1.403139 -0.018996,0.204649 -0.034114,0.377021 -0.021873,0.550463 0.00612,0.08672 0.023413,0.181028 0.054682,0.280627 0.031269,0.0996 0.075842,0.228173 0.2406003,0.345389 0.1646595,0.11738 0.3104524,0.12035 0.4155824,0.118727 0.1051299,-0.0016 0.1878608,-0.01139 0.2734094,-0.03238 0.1710971,-0.04197 0.3434775,-0.113411 0.5358826,-0.194281 0.3848093,-0.16174 0.8474318,-0.381674 1.3014289,-0.615223 0.453997,-0.233548 0.900839,-0.482125 1.257685,-0.658397 0.178422,-0.08814 0.338272,-0.15972 0.448391,-0.205073 0.03166,-0.01304 0.0507,-0.01522 0.07655,-0.02159 0.02588,0.0064 0.0449,0.0086 0.07655,0.02159 0.110103,0.04536 0.269979,0.116938 0.448392,0.205073 0.356824,0.176273 0.803679,0.424848 1.257683,0.658397 0.454003,0.23355 0.916588,0.453482 1.301429,0.615223 0.19242,0.08088 0.364769,0.152307 0.535882,0.194281 0.08556,0.02098 0.168286,0.03076 0.27341,0.03238 0.105122,0.0016 0.250946,-0.0015 0.415583,-0.118727 0.164619,-0.117286 0.209364,-0.24581 0.240599,-0.345389 0.03124,-0.09958 0.04857,-0.193905 0.05469,-0.280627 0.01222,-0.173444 -0.0029,-0.345796 -0.02187,-0.550463 -0.03801,-0.409331 -0.121545,-0.907544 -0.207791,-1.403139 -0.08625,-0.495594 -0.179927,-0.994502 -0.2406,-1.381553 -0.03034,-0.193526 -0.04475,-0.358561 -0.05469,-0.474909 -0.0026,-0.03132 -0.0012,-0.04994 0,-0.07556 0.01441,-0.02229 0.02074,-0.03861 0.04374,-0.06476 0.07792,-0.08854 0.198422,-0.217063 0.339028,-0.356181 0.281211,-0.27824 0.650236,-0.620192 1.017083,-0.971405 0.366847,-0.351213 0.730184,-0.705508 1.006146,-1.014577 0.137982,-0.154535 0.25603,-0.295391 0.349965,-0.442529 0.04697,-0.07357 0.08589,-0.149706 0.1203,-0.248249 0.03442,-0.09854 0.07442,-0.240166 0.01094,-0.431734 -0.06344,-0.191612 -0.176114,-0.275085 -0.262466,-0.334595 -0.08635,-0.05951 -0.169702,-0.09717 -0.251537,-0.12952 -0.163669,-0.06469 -0.342701,-0.105641 -0.546819,-0.151107 -0.408235,-0.09093 -0.903503,-0.175536 -1.410793,-0.248248 -0.507289,-0.07271 -1.016388,-0.131218 -1.410793,-0.19428 -0.197202,-0.03153 -0.364885,-0.07036 -0.4812,-0.09714 -0.03112,-0.0072 -0.0515,-0.01214 -0.07655,-0.02159 -0.0174,-0.02015 -0.03585,-0.03429 -0.05469,-0.06476 C 14.409863,9.498761 14.322512,9.351836 14.231032,9.177769 14.048075,8.829635 13.824036,8.3763676 13.596724,7.9257376 13.369411,7.4751075 13.144162,7.02663 12.929605,6.6737054 12.822327,6.497243 12.715119,6.342554 12.601514,6.2095899 12.487908,6.0766259 12.404634,5.874995 12.000013,5.874995 z"
       style="font-size:medium;font-style:normal;font-variant:normal;font-weight:normal;font-stretch:normal;text-indent:0;text-align:start;text-decoration:none;line-height:normal;letter-spacing:normal;word-spacing:normal;text-transform:none;direction:ltr;block-progression:tb;writing-mode:lr-tb;text-anchor:start;baseline-shift:baseline;opacity:0.8;color:#000000;fill:#000000;fill-opacity:1;fill-rule:nonzero;stroke:none;stroke-width:3;marker:none;visibility:visible;display:inline;overflow:visible;enable-background:accumulate;font-family:Sans;-inkscape-font-specification:Sans" />
  </g>
</svg>
