<?xml version="1.0" encoding="UTF-8" standalone="no"?>
<!-- Created with Inkscape (http://www.inkscape.org/) -->

<svg
   xmlns:dc="http://purl.org/dc/elements/1.1/"
   xmlns:cc="http://creativecommons.org/ns#"
   xmlns:rdf="http://www.w3.org/1999/02/22-rdf-syntax-ns#"
   xmlns:svg="http://www.w3.org/2000/svg"
   xmlns="http://www.w3.org/2000/svg"
   xmlns:xlink="http://www.w3.org/1999/xlink"
   xmlns:sodipodi="http://sodipodi.sourceforge.net/DTD/sodipodi-0.dtd"
   xmlns:inkscape="http://www.inkscape.org/namespaces/inkscape"
   version="1.0"
   width="24"
   height="24"
   id="svg2527"
   inkscape:version="0.48.3.1 r9886"
   sodipodi:docname="bonobo-component-browser.svg">
  <metadata
     id="metadata27">
    <rdf:RDF>
      <cc:Work
         rdf:about="">
        <dc:format>image/svg+xml</dc:format>
        <dc:type
           rdf:resource="http://purl.org/dc/dcmitype/StillImage" />
        <dc:title />
      </cc:Work>
    </rdf:RDF>
  </metadata>
  <sodipodi:namedview
     pagecolor="#ffffff"
     bordercolor="#666666"
     borderopacity="1"
     objecttolerance="10"
     gridtolerance="10"
     guidetolerance="10"
     inkscape:pageopacity="0"
     inkscape:pageshadow="2"
     inkscape:window-width="1366"
     inkscape:window-height="709"
     id="namedview25"
     showgrid="true"
     inkscape:zoom="16.622534"
     inkscape:cx="15.37962"
     inkscape:cy="14.615149"
     inkscape:window-x="0"
     inkscape:window-y="27"
     inkscape:window-maximized="1"
     inkscape:current-layer="svg2527">
    <inkscape:grid
       type="xygrid"
       id="grid2999" />
  </sodipodi:namedview>
  <defs
     id="defs2529">
    <linearGradient
       id="linearGradient8838">
      <stop
         id="stop8840"
         style="stop-color:black;stop-opacity:1"
         offset="0" />
      <stop
         id="stop8842"
         style="stop-color:black;stop-opacity:0"
         offset="1" />
    </linearGradient>
    <radialGradient
       cx="62.625"
       cy="4.625"
       r="10.625"
       fx="62.625"
       fy="4.625"
       id="radialGradient2436"
       xlink:href="#linearGradient8838"
       gradientUnits="userSpaceOnUse"
       gradientTransform="matrix(2.1647059,0,0,0.7529402,-111.56471,36.517647)" />
    <linearGradient
       id="linearGradient3397">
      <stop
         id="stop3399"
         style="stop-color:#aaa;stop-opacity:1"
         offset="0" />
      <stop
         id="stop3401"
         style="stop-color:#8c8c8c;stop-opacity:1"
         offset="1" />
    </linearGradient>
    <linearGradient
       x1="37.201294"
       y1="1"
       x2="37.201294"
       y2="45"
       id="linearGradient2517"
       xlink:href="#linearGradient3397"
       gradientUnits="userSpaceOnUse" />
    <linearGradient
       x1="63.9995"
       y1="3.1001"
       x2="63.9995"
       y2="122.8994"
       id="linearGradient3309"
       gradientUnits="userSpaceOnUse">
      <stop
         id="stop3311"
         style="stop-color:#f6f6f6;stop-opacity:1"
         offset="0" />
      <stop
         id="stop3313"
         style="stop-color:#d2d2d2;stop-opacity:1"
         offset="1" />
    </linearGradient>
    <linearGradient
       x1="20.758585"
       y1="1"
       x2="20.758585"
       y2="45.017357"
       id="linearGradient2515"
       xlink:href="#linearGradient3309"
       gradientUnits="userSpaceOnUse" />
    <linearGradient
       id="linearGradient5128">
      <stop
         id="stop5130"
         style="stop-color:#e5e5e5;stop-opacity:1"
         offset="0" />
      <stop
         id="stop5132"
         style="stop-color:#ababab;stop-opacity:1"
         offset="1" />
    </linearGradient>
    <linearGradient
       x1="86.132919"
       y1="105.105"
       x2="84.63858"
       y2="20.895"
       id="linearGradient2512"
       xlink:href="#linearGradient5128"
       gradientUnits="userSpaceOnUse"
       gradientTransform="matrix(0.3244803,0,0,0.3244803,3.2332655,2.5577454)" />
    <linearGradient
       inkscape:collect="always"
       xlink:href="#linearGradient5128"
       id="linearGradient3006"
       gradientUnits="userSpaceOnUse"
       gradientTransform="matrix(0.3244803,0,0,0.3244803,-61.64809,4.5916437)"
       x1="86.132919"
       y1="105.105"
       x2="84.63858"
       y2="20.895" />
  </defs>
  <path
     style="opacity:1.0;fill:#2D2D2D;fill-opacity:1;stroke:none"
     d="M 14 4 C 12.125 4 11.419922 5.1835938 11.15625 6.0625 C 9.7053886 6.2721726 8.4231966 7.0081578 7.5 8.0625 C 5.5279536 8.3095659 4 9.9609808 4 12 C 4 13.873395 5.2922431 15.413304 7.03125 15.84375 C 7.2872999 17.608647 9.411165 19 12 19 C 14.588835 19 16.7127 17.608647 16.96875 15.84375 C 18.707757 15.413304 20 13.873395 20 12 C 20 9.9609808 18.472046 8.3095659 16.5 8.0625 C 15.452478 6.8661708 13.946227 6.0722268 12.25 6 C 12.5 5.5 13 5 14 5 L 14 4 z M 10 9 C 11.104569 9 12 10.119288 12 11.5 C 12 10.119288 12.895431 9 14 9 C 15.104569 9 16 10.119288 16 11.5 C 16 12.489821 15.54253 13.344955 14.875 13.75 C 15.575642 14.200299 16 14.822272 16 15.5 C 16 15.672589 15.95953 15.837256 15.90625 16 L 8.09375 16 C 8.0404664 15.837256 8 15.672589 8 15.5 C 8 14.822272 8.424358 14.200299 9.125 13.75 C 8.4574696 13.344955 8 12.489821 8 11.5 C 8 10.119288 8.8954305 9 10 9 z M 12 11.5 C 12 12.077509 11.82559 12.607987 11.5625 13.03125 C 11.706925 13.021378 11.85137 13 12 13 C 12.14863 13 12.293075 13.02138 12.4375 13.03125 C 12.17441 12.607987 12 12.077509 12 11.5 z M 10 11 C 9.4477153 11 9 11.447715 9 12 C 9 12.552285 9.4477153 13 10 13 C 10.552285 13 11 12.552285 11 12 C 11 11.447715 10.552285 11 10 11 z M 14 11 C 13.447715 11 13 11.447715 13 12 C 13 12.552285 13.447715 13 14 13 C 14.552285 13 15 12.552285 15 12 C 15 11.447715 14.552285 11 14 11 z M 10 14 L 10 15 L 11 15 L 11 14 L 10 14 z M 13 14 L 13 15 L 14 15 L 14 14 L 13 14 z M 8.8125 17 L 15.1875 17 C 14.457757 17.607394 13.30887 18 12 18 C 10.69113 18 9.5422429 17.607394 8.8125 17 z "
     id="path3001" />
</svg>
