<?xml version="1.0" encoding="UTF-8" standalone="no"?>
<!-- Created with Inkscape (http://www.inkscape.org/) -->

<svg
   xmlns:dc="http://purl.org/dc/elements/1.1/"
   xmlns:cc="http://creativecommons.org/ns#"
   xmlns:rdf="http://www.w3.org/1999/02/22-rdf-syntax-ns#"
   xmlns:svg="http://www.w3.org/2000/svg"
   xmlns="http://www.w3.org/2000/svg"
   xmlns:xlink="http://www.w3.org/1999/xlink"
   xmlns:sodipodi="http://sodipodi.sourceforge.net/DTD/sodipodi-0.dtd"
   xmlns:inkscape="http://www.inkscape.org/namespaces/inkscape"
   id="svg2511"
   height="24"
   width="24"
   version="1.1"
   inkscape:version="0.48.3.1 r9886"
   sodipodi:docname="mail-mark-unread.svg">
  <metadata
     id="metadata57">
    <rdf:RDF>
      <cc:Work
         rdf:about="">
        <dc:format>image/svg+xml</dc:format>
        <dc:type
           rdf:resource="http://purl.org/dc/dcmitype/StillImage" />
        <dc:title></dc:title>
      </cc:Work>
    </rdf:RDF>
  </metadata>
  <sodipodi:namedview
     pagecolor="#ffffff"
     bordercolor="#666666"
     borderopacity="1"
     objecttolerance="10"
     gridtolerance="10"
     guidetolerance="10"
     inkscape:pageopacity="0"
     inkscape:pageshadow="2"
     inkscape:window-width="1280"
     inkscape:window-height="723"
     id="namedview55"
     showgrid="true"
     inkscape:zoom="19.666666"
     inkscape:cx="10.594293"
     inkscape:cy="6.9210145"
     inkscape:window-x="0"
     inkscape:window-y="20"
     inkscape:window-maximized="1"
     inkscape:current-layer="svg2511">
    <inkscape:grid
       type="xygrid"
       id="grid3809"
       empspacing="5"
       visible="true"
       enabled="true"
       snapvisiblegridlinesonly="true" />
  </sodipodi:namedview>
  <defs
     id="defs2513">
    <linearGradient
       id="linearGradient10247"
       y2="75.499001"
       gradientUnits="userSpaceOnUse"
       x2="14.125"
       gradientTransform="translate(1,-42)"
       y1="79.813004"
       x1="14.125">
      <stop
         id="stop6936"
         style="stop-color:#babdb6"
         offset="0" />
      <stop
         id="stop6938"
         style="stop-color:#babdb6;stop-opacity:0"
         offset="1" />
    </linearGradient>
    <radialGradient
       id="radialGradient10245"
       xlink:href="#linearGradient6945"
       gradientUnits="userSpaceOnUse"
       cy="61.48"
       cx="13.107"
       gradientTransform="matrix(2.6083,0,0,2.2188,-74.941,-118.62)"
       r="18.5" />
    <linearGradient
       id="linearGradient10243"
       y2="15.75"
       gradientUnits="userSpaceOnUse"
       x2="12.875"
       y1="35.313999"
       x1="12.875">
      <stop
         id="stop7065"
         offset="0" />
      <stop
         id="stop7067"
         style="stop-opacity:0"
         offset="1" />
    </linearGradient>
    <linearGradient
       id="linearGradient6945">
      <stop
         id="stop6947"
         style="stop-color:#fff"
         offset="0" />
      <stop
         id="stop6949"
         style="stop-color:#d3d7cf"
         offset="1" />
    </linearGradient>
    <radialGradient
       id="radialGradient10241"
       xlink:href="#linearGradient6945"
       gradientUnits="userSpaceOnUse"
       cy="15.928"
       cx="12.5"
       gradientTransform="matrix(2.0136,0,0,1.7461,-12.669,-9.186)"
       r="18.5" />
    <radialGradient
       id="radialGradient10239"
       xlink:href="#linearGradient5060"
       gradientUnits="userSpaceOnUse"
       cy="486.64999"
       cx="605.71002"
       gradientTransform="matrix(-2.7744,0,0,1.9697,112.76,-872.89)"
       r="117.14" />
    <linearGradient
       id="linearGradient5060">
      <stop
         id="stop5062"
         offset="0" />
      <stop
         id="stop5064"
         style="stop-opacity:0"
         offset="1" />
    </linearGradient>
    <radialGradient
       id="radialGradient10237"
       xlink:href="#linearGradient5060"
       gradientUnits="userSpaceOnUse"
       cy="486.64999"
       cx="605.71002"
       gradientTransform="matrix(2.7744,0,0,1.9697,-1891.6,-872.89)"
       r="117.14" />
    <linearGradient
       id="linearGradient10235"
       y2="609.51001"
       gradientUnits="userSpaceOnUse"
       x2="302.85999"
       gradientTransform="matrix(2.7744,0,0,1.9697,-1892.2,-872.89)"
       y1="366.64999"
       x1="302.85999">
      <stop
         id="stop5050"
         style="stop-opacity:0"
         offset="0" />
      <stop
         id="stop5056"
         offset=".5" />
      <stop
         id="stop5052"
         style="stop-opacity:0"
         offset="1" />
    </linearGradient>
    <radialGradient
       id="radialGradient3868"
       gradientUnits="userSpaceOnUse"
       cy="73.615997"
       cx="6.7027001"
       gradientTransform="scale(1.9022,0.5257)"
       r="7.2284002">
      <stop
         id="stop10693"
         offset="0" />
      <stop
         id="stop10695"
         style="stop-opacity:0"
         offset="1" />
    </radialGradient>
    <linearGradient
       id="linearGradient3307"
       y2="46.001999"
       gradientUnits="userSpaceOnUse"
       x2="29.652"
       y1="23.952"
       x1="29.652">
      <stop
         id="stop3303"
         style="stop-color:#b95858"
         offset="0" />
      <stop
         id="stop3305"
         style="stop-color:#763434"
         offset="1" />
    </linearGradient>
    <linearGradient
       id="linearGradient3299"
       y2="43.727001"
       gradientUnits="userSpaceOnUse"
       x2="29.25"
       gradientTransform="matrix(0.66753,0,0,0.6681,17.059,16.057)"
       y1="11.454"
       x1="29.25">
      <stop
         id="stop3682"
         style="stop-color:#e86666"
         offset="0" />
      <stop
         id="stop3684"
         style="stop-color:#ab2a2a"
         offset="1" />
    </linearGradient>
    <linearGradient
       id="linearGradient3295"
       y2="37.813999"
       gradientUnits="userSpaceOnUse"
       x2="-32.137001"
       y1="7.4580998"
       x1="-32.096001">
      <stop
         id="stop3219"
         style="stop-color:#fff"
         offset="0" />
      <stop
         id="stop3221"
         style="stop-color:#fff;stop-opacity:0"
         offset="1" />
    </linearGradient>
  </defs>
  <path
     style="font-size:medium;font-style:normal;font-variant:normal;font-weight:normal;font-stretch:normal;text-indent:0;text-align:start;text-decoration:none;line-height:normal;letter-spacing:normal;word-spacing:normal;text-transform:none;direction:ltr;block-progression:tb;writing-mode:lr-tb;text-anchor:start;baseline-shift:baseline;opacity:0.8;color:#000000;fill:#000000;fill-opacity:1;stroke:none;stroke-width:3;marker:none;visibility:visible;display:inline;overflow:visible;enable-background:accumulate;font-family:Sans;-inkscape-font-specification:Sans"
     d="M 2.921875,4 C 2,4 1.9980321,4.6320405 2,5 l 0,14 c 3.91e-5,0.392688 0,1 1,1 l 18,0 c 1,0 0.999961,-0.607312 1,-1 L 22,5 C 21.999961,4.6073117 22,4 21,4 L 3,4 C 3.2499899,4.00424 3.2499899,4.00424 2.921875,4 z M 6,6 18,6 12,12 z m -2,1 8,5 8,-5 0,11 -16,0 z"
     id="rect3811"
     inkscape:connector-curvature="0"
     sodipodi:nodetypes="cccccccccccccccccccc" />
  <path
     style="font-size:medium;font-style:normal;font-variant:normal;font-weight:normal;font-stretch:normal;text-indent:0;text-align:start;text-decoration:none;line-height:normal;letter-spacing:normal;word-spacing:normal;text-transform:none;direction:ltr;block-progression:tb;writing-mode:lr-tb;text-anchor:start;baseline-shift:baseline;opacity:0.8;color:#000000;fill:#000000;fill-opacity:1;fill-rule:nonzero;stroke:none;stroke-width:3;marker:none;visibility:visible;display:inline;overflow:visible;enable-background:accumulate;font-family:Sans;-inkscape-font-specification:Sans"
     d="m 12.00006,8.0000279 c -0.01052,0.0016 -0.02095,0.00379 -0.03125,0.00657 -0.03694,0.00396 -0.07317,0.015134 -0.106239,0.032895 -0.0021,0.00219 -0.0043,0.00438 -0.0063,0.00657 -0.09708,0.04109 -0.154782,0.1014654 -0.199977,0.1578921 -0.06492,0.081051 -0.126181,0.1753217 -0.187481,0.2828887 -0.122599,0.2151348 -0.251325,0.488453 -0.38121,0.7631442 -0.129887,0.274691 -0.257919,0.550935 -0.362464,0.7631441 -0.05227,0.106104 -0.102189,0.195653 -0.137486,0.256574 -0.01076,0.01857 -0.02131,0.02719 -0.03125,0.03947 -0.01431,0.0057 -0.02596,0.0088 -0.04375,0.01315 -0.06648,0.01632 -0.16228,0.04 -0.274972,0.05921 -0.225385,0.03843 -0.51629,0.0741 -0.8061681,0.118419 -0.2898782,0.04433 -0.5728888,0.09587 -0.8061681,0.15131 -0.1166396,0.02773 -0.2189409,0.05266 -0.3124683,0.0921 -0.046763,0.01973 -0.094395,0.04267 -0.1437354,0.07894 -0.04934,0.03627 -0.1137248,0.08719 -0.1499847,0.203944 -0.036277,0.116804 -0.013423,0.203103 0.00625,0.263153 0.019672,0.06005 0.041905,0.106482 0.068743,0.151313 0.053677,0.08966 0.1211366,0.175551 0.1999797,0.269732 0.1576862,0.188363 0.3653237,0.40434 0.5749415,0.61841 0.2096179,0.21407 0.4205031,0.422489 0.581191,0.592094 0.080344,0.0848 0.1492046,0.163123 0.1937302,0.217101 0.013149,0.01594 0.016764,0.02589 0.024997,0.03947 7.4e-4,0.01562 0.00152,0.02696 0,0.04605 -0.00567,0.07093 -0.013907,0.171508 -0.031246,0.289469 -0.034679,0.23592 -0.088201,0.540024 -0.137486,0.842089 -0.049285,0.302064 -0.097027,0.605771 -0.118738,0.855247 -0.010855,0.124738 -0.019493,0.229803 -0.012498,0.335521 0.0035,0.05286 0.013379,0.11034 0.031247,0.171049 0.017869,0.06071 0.043339,0.139077 0.1374861,0.210522 0.094091,0.07154 0.1774016,0.07335 0.2374758,0.07237 0.060075,-10e-4 0.1073491,-0.0069 0.1562342,-0.01974 0.09777,-0.02558 0.1962731,-0.06913 0.3062181,-0.118418 0.219893,-0.09859 0.484249,-0.23264 0.743675,-0.374994 0.259427,-0.142353 0.514765,-0.293867 0.718678,-0.401308 0.101948,-0.05372 0.193291,-0.09735 0.256216,-0.124997 0.01809,-0.0079 0.02897,-0.0093 0.04374,-0.01315 0.01478,0.0038 0.02565,0.0052 0.04374,0.01315 0.06292,0.02764 0.154273,0.07127 0.256225,0.124997 0.203898,0.107441 0.459246,0.258954 0.718676,0.401308 0.25943,0.142354 0.523765,0.276407 0.743674,0.374994 0.109955,0.04929 0.208439,0.09283 0.306219,0.118418 0.04889,0.01279 0.09616,0.01874 0.156234,0.01974 0.06007,10e-4 0.143398,-8.8e-4 0.237476,-0.07237 0.09407,-0.0715 0.119637,-0.149828 0.137486,-0.210522 0.01785,-0.0607 0.02775,-0.11819 0.03125,-0.171049 0.0069,-0.105719 -0.0017,-0.210772 -0.01249,-0.335521 -0.02172,-0.249497 -0.06946,-0.553171 -0.118738,-0.855247 -0.04928,-0.302077 -0.102815,-0.606172 -0.137486,-0.842089 -0.01734,-0.117959 -0.02557,-0.218553 -0.03125,-0.289469 -0.0015,-0.01909 -7.33e-4,-0.03043 0,-0.04605 0.0082,-0.01359 0.01185,-0.02354 0.025,-0.03947 0.04452,-0.05397 0.113385,-0.132304 0.193731,-0.217101 0.160692,-0.169594 0.371564,-0.378022 0.581192,-0.592094 0.209627,-0.214073 0.417248,-0.430025 0.574941,-0.61841 0.07885,-0.09419 0.146302,-0.180047 0.199979,-0.269732 0.02684,-0.04485 0.04908,-0.09125 0.06874,-0.151313 0.01967,-0.06006 0.04251,-0.146387 0.0063,-0.263153 -0.03625,-0.116792 -0.100642,-0.167671 -0.149985,-0.203944 -0.04934,-0.03627 -0.09697,-0.05923 -0.143736,-0.07894 -0.09352,-0.03943 -0.195824,-0.06439 -0.312462,-0.0921 -0.233277,-0.05542 -0.516289,-0.106992 -0.806168,-0.15131 -0.289881,-0.04431 -0.580795,-0.07998 -0.806168,-0.118417 -0.112688,-0.01922 -0.208507,-0.04288 -0.274973,-0.05921 -0.01779,-0.0044 -0.02943,-0.0074 -0.04374,-0.01316 -0.0099,-0.01228 -0.02049,-0.0209 -0.03125,-0.03947 -0.03529,-0.06092 -0.08521,-0.150476 -0.137485,-0.256574 C 13.170383,9.8009339 13.04236,9.5246559 12.912467,9.2499859 12.782575,8.9753161 12.653861,8.7019583 12.531256,8.486842 12.469952,8.3792844 12.408694,8.2849976 12.343775,8.2039533 12.278855,8.1229107 12.231273,8.0000094 12.00006,8.0000094 z"
     id="path1307"
     inkscape:connector-curvature="0"
     sodipodi:nodetypes="ccccssssscsssssscsssssscsssssscscssssccssscscsssssscsssssscssssscccssssc" />
</svg>
