<?xml version="1.0" encoding="UTF-8" standalone="no"?>
<!-- Created with Inkscape (http://www.inkscape.org/) -->

<svg
   xmlns:dc="http://purl.org/dc/elements/1.1/"
   xmlns:cc="http://creativecommons.org/ns#"
   xmlns:rdf="http://www.w3.org/1999/02/22-rdf-syntax-ns#"
   xmlns:svg="http://www.w3.org/2000/svg"
   xmlns="http://www.w3.org/2000/svg"
   xmlns:xlink="http://www.w3.org/1999/xlink"
   xmlns:sodipodi="http://sodipodi.sourceforge.net/DTD/sodipodi-0.dtd"
   xmlns:inkscape="http://www.inkscape.org/namespaces/inkscape"
   id="svg3692"
   height="128"
   width="128"
   version="1.1"
   inkscape:version="0.48.3.1 r9886"
   sodipodi:docname="bookmark-missing.svg">
  <sodipodi:namedview
     pagecolor="#ffffff"
     bordercolor="#666666"
     borderopacity="1"
     objecttolerance="10"
     gridtolerance="10"
     guidetolerance="10"
     inkscape:pageopacity="0"
     inkscape:pageshadow="2"
     inkscape:window-width="1280"
     inkscape:window-height="723"
     id="namedview42"
     showgrid="true"
     inkscape:zoom="4.2052732"
     inkscape:cx="66.435773"
     inkscape:cy="30.688815"
     inkscape:window-x="0"
     inkscape:window-y="20"
     inkscape:window-maximized="1"
     inkscape:current-layer="svg3692">
    <inkscape:grid
       type="xygrid"
       id="grid3811"
       empspacing="5"
       visible="true"
       enabled="true"
       snapvisiblegridlinesonly="true" />
  </sodipodi:namedview>
  <defs
     id="defs3694">
    <linearGradient
       id="linearGradient3619"
       y2="33.955002"
       gradientUnits="userSpaceOnUse"
       x2="15.215"
       gradientTransform="translate(2.9799,-3.1217)"
       y1="22.292"
       x1="11.566">
      <stop
         id="stop2687"
         style="stop-color:#fff;stop-opacity:.27451"
         offset="0" />
      <stop
         id="stop2689"
         style="stop-color:#fff;stop-opacity:0"
         offset="1" />
    </linearGradient>
    <linearGradient
       id="linearGradient3648"
       y2="43.444"
       gradientUnits="userSpaceOnUse"
       x2="29.646999"
       y1="2"
       x1="29.646999">
      <stop
         id="stop3644"
         style="stop-color:#fff"
         offset="0" />
      <stop
         id="stop3646"
         style="stop-color:#fff;stop-opacity:0"
         offset="1" />
    </linearGradient>
    <radialGradient
       id="radialGradient3627"
       gradientUnits="userSpaceOnUse"
       cy="25.625"
       cx="13.139"
       gradientTransform="matrix(0,2.6541,-3.1628,0,97.183,-26.676)"
       r="13.931">
      <stop
         id="stop3692"
         style="stop-color:#ffeb9f"
         offset="0" />
      <stop
         id="stop3694"
         style="stop-color:#ffd57e"
         offset=".26238" />
      <stop
         id="stop3696"
         style="stop-color:#ffbc43"
         offset=".66094" />
      <stop
         id="stop3698"
         style="stop-color:#ff921a"
         offset="1" />
    </radialGradient>
    <linearGradient
       id="linearGradient3629"
       y2="9.5799999"
       gradientUnits="userSpaceOnUse"
       x2="21.483"
       gradientTransform="matrix(1.6509,0,0,1.6568,-11.466,-15.046)"
       y1="36.255001"
       x1="21.483">
      <stop
         id="stop3605"
         style="stop-color:#a7651c"
         offset="0" />
      <stop
         id="stop3607"
         style="stop-color:#c8a700"
         offset="1" />
    </linearGradient>
    <radialGradient
       id="radialGradient3690"
       gradientUnits="userSpaceOnUse"
       cx="62.625"
       cy="4.625"
       r="10.625"
       gradientTransform="matrix(2.1647,0,0,0.84706,-111.56,35.082)">
      <stop
         id="stop8840"
         offset="0" />
      <stop
         id="stop8842"
         style="stop-opacity:0"
         offset="1" />
    </radialGradient>
    <linearGradient
       id="linearGradient5530"
       y2="38.273998"
       gradientUnits="userSpaceOnUse"
       x2="22.368999"
       gradientTransform="matrix(0.59882,0,0,0.5952,23.605,21.219)"
       y1="8.0323"
       x1="22.368999">
      <stop
         id="stop3945"
         style="stop-color:#fff"
         offset="0" />
      <stop
         id="stop3947"
         style="stop-color:#fff;stop-opacity:0"
         offset="1" />
    </linearGradient>
    <radialGradient
       id="radialGradient2885"
       gradientUnits="userSpaceOnUse"
       cx="69.447998"
       cy="51.695"
       r="31"
       gradientTransform="matrix(0,0.67924,-0.73892,0,72.903,-19.49)">
      <stop
         id="stop3244-5"
         style="stop-color:#eef87e"
         offset="0" />
      <stop
         id="stop3246-9"
         style="stop-color:#cde34f"
         offset=".26238" />
      <stop
         id="stop3248-7"
         style="stop-color:#93b723"
         offset=".66094" />
      <stop
         id="stop3250-8"
         style="stop-color:#5a7e0d"
         offset="1" />
    </radialGradient>
    <linearGradient
       id="linearGradient2887"
       y2="52.808998"
       gradientUnits="userSpaceOnUse"
       y1="123.19"
       gradientTransform="matrix(0.28214,0,0,0.28445,12.171,9.9582)"
       x2="72.421997"
       x1="72.421997">
      <stop
         id="stop2492-3"
         style="stop-color:#365f0e"
         offset="0" />
      <stop
         id="stop2494-8"
         style="stop-color:#84a718"
         offset="1" />
    </linearGradient>
    <linearGradient
       inkscape:collect="always"
       xlink:href="#linearGradient5530"
       id="linearGradient3020"
       gradientUnits="userSpaceOnUse"
       gradientTransform="matrix(0.59882,0,0,0.5952,-29.886525,43.388492)"
       x1="22.368999"
       y1="8.0323"
       x2="22.368999"
       y2="38.273998" />
    <linearGradient
       inkscape:collect="always"
       xlink:href="#linearGradient3619"
       id="linearGradient3028"
       gradientUnits="userSpaceOnUse"
       gradientTransform="translate(-65.359083,-18.579327)"
       x1="11.566"
       y1="22.292"
       x2="15.215"
       y2="33.955002" />
    <linearGradient
       inkscape:collect="always"
       xlink:href="#linearGradient3648"
       id="linearGradient3031"
       gradientUnits="userSpaceOnUse"
       x1="29.646999"
       y1="2"
       x2="29.646999"
       y2="43.444"
       gradientTransform="translate(-68.338983,-15.457627)" />
    <radialGradient
       inkscape:collect="always"
       xlink:href="#radialGradient3690"
       id="radialGradient3041"
       gradientUnits="userSpaceOnUse"
       gradientTransform="matrix(2.1647,0,0,0.84706,-179.89898,19.624373)"
       cx="62.625"
       cy="4.625"
       r="10.625" />
  </defs>
  <metadata
     id="metadata3697">
    <rdf:RDF>
      <cc:Work
         rdf:about="">
        <dc:format>image/svg+xml</dc:format>
        <dc:type
           rdf:resource="http://purl.org/dc/dcmitype/StillImage" />
        <dc:title />
      </cc:Work>
    </rdf:RDF>
  </metadata>
  <path
     style="font-size:medium;font-style:normal;font-variant:normal;font-weight:normal;font-stretch:normal;text-indent:0;text-align:start;text-decoration:none;line-height:normal;letter-spacing:normal;word-spacing:normal;text-transform:none;direction:ltr;block-progression:tb;writing-mode:lr-tb;text-anchor:start;baseline-shift:baseline;opacity:1.0;color:#000000;fill:#c4905e;fill-opacity:1;stroke:#eeeeec;stroke-width:8.99229717;stroke-opacity:1;marker:none;visibility:visible;display:inline;overflow:visible;enable-background:accumulate;font-family:Sans;-inkscape-font-specification:Sans"
     d="m 64.000019,12.59201 c -0.14581,0.02098 -0.29046,0.04992 -0.4332,0.08626 -0.51208,0.05137 -1.01434,0.198484 -1.47284,0.431354 -0.0294,0.02847 -0.0582,0.05711 -0.0866,0.08626 -1.34594,0.53887 -2.14586,1.330564 -2.77241,2.070502 -0.9,1.062874 -1.7493,2.299071 -2.59912,3.709644 -1.69967,2.821148 -3.48426,6.405308 -5.28492,10.007445 -1.80065,3.602144 -3.57563,7.224648 -5.02498,10.007439 -0.72468,1.391393 -1.41669,2.565698 -1.90603,3.36457 -0.14917,0.243535 -0.29534,0.356571 -0.4332,0.517625 -0.1984,0.07547 -0.35983,0.115278 -0.60646,0.172568 -0.9217,0.213982 -2.24975,0.52447 -3.81205,0.77644 -3.1246,0.503933 -7.15756,0.971595 -11.17627,1.552876 -4.01872,0.58128 -7.94222,1.2572 -11.17626,1.984233 -1.61704,0.36352 -3.03529,0.690561 -4.33191,1.207792 -0.64829,0.258612 -1.30863,0.559565 -1.99266,1.035256 -0.68402,0.47569 -1.5766099,1.143352 -2.0792999,2.674402 -0.50293,1.531693 -0.18608,2.663374 0.0866,3.450836 0.27272,0.787468 0.58095,1.396346 0.95303,1.984234 0.7441299,1.175779 1.6793699,2.302068 2.7723899,3.53711 2.18608,2.470087 5.06467,5.302284 7.97068,8.109479 2.90602,2.807185 5.82962,5.540275 8.05731,7.764394 1.11386,1.112059 2.06849,2.139114 2.68577,2.84693 0.18229,0.209016 0.23243,0.339541 0.34656,0.517644 0.0102,0.204679 0.021,0.353488 0,0.603887 -0.0787,0.930081 -0.1928,2.249058 -0.43319,3.795934 -0.48078,3.093712 -1.22277,7.081576 -1.90604,11.042685 -0.68325,3.961056 -1.34513,7.943731 -1.64611,11.215291 -0.15047,1.63576 -0.27026,3.01355 -0.17327,4.39986 0.0485,0.69315 0.18548,1.44695 0.43318,2.24305 0.24772,0.7961 0.60081,1.82376 1.90603,2.76066 1.30444,0.93823 2.45941,0.96197 3.29224,0.94898 0.83283,-0.014 1.48822,-0.0911 2.16594,-0.25879 1.35543,-0.3355 2.72102,-0.90648 4.24525,-1.55286 3.04845,-1.29279 6.71334,-3.05072 10.30989,-4.91745 3.59655,-1.86678 7.13642,-3.85367 9.96334,-5.26262 1.41346,-0.70447 2.67979,-1.27665 3.55214,-1.63918 0.25081,-0.10431 0.40158,-0.1217 0.60647,-0.17245 0.205,0.0507 0.35569,0.0683 0.60646,0.17245 0.87224,0.36253 2.13878,0.93471 3.55215,1.63918 2.82677,1.40897 6.36674,3.39584 9.96334,5.26262 3.5966,1.86673 7.26119,3.62464 10.3099,4.91745 1.52435,0.64638 2.889688,1.21736 4.245249,1.55286 0.677778,0.16766 1.33316,0.24585 2.165939,0.25879 0.832784,0.014 1.987996,-0.012 3.292237,-0.94898 1.304119,-0.93746 1.65859,-1.96474 1.906036,-2.76066 0.24744,-0.79592 0.38476,-1.54988 0.43318,-2.24305 0.0968,-1.38633 -0.0228,-2.76396 -0.1733,-4.39986 -0.30109,-3.27184 -0.962871,-7.254096 -1.646113,-11.215291 -0.683239,-3.961268 -1.425374,-7.949012 -1.90603,-11.042685 -0.24034,-1.546856 -0.354509,-2.865973 -0.433187,-3.795934 -0.02098,-0.250359 -0.01019,-0.399128 0,-0.603887 0.114185,-0.178243 0.164263,-0.308648 0.34655,-0.517644 0.617258,-0.707696 1.571898,-1.734951 2.685771,-2.84693 2.227749,-2.22396 5.151159,-4.957169 8.057309,-7.764394 2.90616,-2.807227 5.7845,-5.639095 7.97067,-8.109479 1.09308,-1.235192 2.02825,-2.361035 2.77242,-3.53711 0.37207,-0.588034 0.68037,-1.196581 0.953,-1.984234 0.27266,-0.787648 0.58951,-1.919642 0.0866,-3.450836 -0.50263,-1.531546 -1.39522,-2.198746 -2.0793,-2.674402 -0.68408,-0.475661 -1.34438,-0.776704 -1.99267,-1.035256 -1.29658,-0.517097 -2.71487,-0.844386 -4.33188,-1.207792 -3.23403,-0.726815 -7.15754,-1.403051 -11.176275,-1.984233 -4.018731,-0.581181 -8.051804,-1.048821 -11.176266,-1.552876 -1.56223,-0.252018 -2.89061,-0.562369 -3.81206,-0.77644 -0.24654,-0.05731 -0.408,-0.09693 -0.60646,-0.172568 -0.13783,-0.161038 -0.28402,-0.274049 -0.43318,-0.517625 -0.48936,-0.798872 -1.18134,-1.973257 -1.90604,-3.36457 -1.44939,-2.782625 -3.22422,-6.405571 -5.02499,-10.007439 -1.80076,-3.601867 -3.5852,-7.186535 -5.2849,-10.007445 -0.84984,-1.410459 -1.69914,-2.646878 -2.59912,-3.70965 -0.89997,-1.062771 -1.55967,-2.674396 -4.76507,-2.674396 z"
     id="path1307-8"
     inkscape:connector-curvature="0"
     sodipodi:nodetypes="ccccssssscsssssscsssssscsssssscscssssccssscscsssssscsssssscssssscccssssc" />
  <path
     style="font-size:medium;font-style:normal;font-variant:normal;font-weight:normal;font-stretch:normal;text-indent:0;text-align:start;text-decoration:none;line-height:normal;letter-spacing:normal;word-spacing:normal;text-transform:none;direction:ltr;block-progression:tb;writing-mode:lr-tb;text-anchor:start;baseline-shift:baseline;opacity:1.0;color:#000000;fill:none;stroke:#000000;stroke-width:9.00000191;stroke-opacity:1;marker:none;visibility:visible;display:inline;overflow:visible;enable-background:accumulate;font-family:Sans;-inkscape-font-specification:Sans"
     d="m 64.000023,12.508217 c -0.14592,0.021 -0.2907,0.04996 -0.433548,0.08634 -0.512526,0.05142 -1.015198,0.19866 -1.47407,0.431736 -0.0294,0.0285 -0.05822,0.05716 -0.0867,0.08634 -1.34706,0.539346 -2.14764,1.33174 -2.774714,2.072332 -0.900754,1.063814 -1.750758,2.301104 -2.601294,3.712924 -1.701074,2.823638 -3.487144,6.410958 -5.289302,10.01627 -1.802153,3.60532 -3.578613,7.231018 -5.029167,10.016262 -0.725276,1.39262 -1.417872,2.56796 -1.907616,3.367536 -0.1493,0.24375 -0.29559,0.356886 -0.43355,0.518082 -0.19858,0.07554 -0.360142,0.11538 -0.60697,0.17272 -0.92247,0.21417 -2.251626,0.524932 -3.815232,0.777124 -3.127204,0.504378 -7.163512,0.972452 -11.185568,1.554246 -4.022052,0.581792 -7.94882,1.258308 -11.185566,1.985982 -1.618375,0.36384 -3.037802,0.691169 -4.335493,1.208857 -0.648845,0.25884 -1.309729,0.560058 -1.994325,1.036168 -0.684597,0.47611 -1.5779316,1.14436 -2.0810366,2.67676 -0.503345,1.533044 -0.186234,2.665722 0.08671,3.453878 0.2729432,0.788162 0.5814272,1.397578 0.9538082,1.985984 0.7447624,1.176816 1.6807674,2.304098 2.7747144,3.540228 2.187893,2.472264 5.068862,5.306958 7.977306,8.116628 2.908444,2.80966 5.834474,5.54516 8.064014,7.77124 1.114774,1.11304 2.07021,2.141 2.688004,2.84944 0.18244,0.2092 0.23262,0.33984 0.346842,0.5181 0.0102,0.20486 0.021,0.3538 0,0.60442 -0.0788,0.9309 -0.19296,2.25104 -0.433552,3.79928 -0.481164,3.09644 -1.223792,7.08782 -1.907616,11.05242 -0.683824,3.964548 -1.346248,7.950686 -1.647486,11.225066 -0.1506,1.63718 -0.27048,3.01616 -0.17342,4.4037 0.04854,0.69376 0.18564,1.44822 0.43355,2.24502 0.24792,0.7968 0.601318,1.82538 1.907618,2.7631 1.305512,0.93906 2.461442,0.96282 3.294972,0.94982 0.833528,-0.014 1.489466,-0.0912 2.167746,-0.25902 1.356556,-0.3358 2.723286,-0.90728 4.24878,-1.55424 3.050992,-1.29392 6.718924,-3.0534 10.318472,-4.92178 3.599547,-1.8684 7.142361,-3.85702 9.971629,-5.26718 1.414634,-0.70508 2.682018,-1.27776 3.555102,-1.6406 0.25101,-0.1044 0.40191,-0.1218 0.60697,-0.1726 0.20517,0.0508 0.355988,0.0684 0.606968,0.1726 0.87297,0.36284 2.140548,0.93552 3.555102,1.6406 2.829112,1.41018 6.37204,3.39878 9.971634,5.26718 3.599592,1.86838 7.267228,3.62784 10.318468,4.92178 1.52562,0.64696 2.892096,1.21844 4.248784,1.55424 0.678342,0.1678 1.33427,0.24606 2.167742,0.25902 0.833476,0.014 1.98965,-0.012 3.294976,-0.94982 1.305204,-0.93828 1.65997,-1.96648 1.907621,-2.7631 0.24765,-0.79662 0.38508,-1.55124 0.43354,-2.24502 0.0969,-1.38756 -0.0228,-2.76638 -0.17344,-4.4037 -0.30134,-3.27466 -0.963675,-7.260378 -1.647485,-11.225066 -0.683808,-3.96476 -1.42656,-7.95602 -1.907616,-11.05242 -0.24054,-1.54822 -0.354804,-2.8685 -0.433548,-3.79928 -0.021,-0.25058 -0.0102,-0.39948 0,-0.60442 0.11428,-0.1784 0.1644,-0.30892 0.346838,-0.5181 0.617772,-0.70832 1.573206,-1.73648 2.688006,-2.84944 2.229605,-2.22592 5.155445,-4.96154 8.064015,-7.77124 2.90857,-2.809702 5.78931,-5.644066 7.9773,-8.116628 1.09399,-1.23628 2.02994,-2.363116 2.77472,-3.540228 0.37238,-0.588552 0.68094,-1.197636 0.9538,-1.985984 0.27288,-0.788342 0.59,-1.921334 0.0867,-3.453878 -0.50305,-1.532896 -1.39638,-2.200684 -2.08103,-2.67676 -0.68465,-0.47608 -1.3455,-0.777388 -1.99433,-1.036168 -1.29766,-0.517554 -2.71713,-0.845131 -4.33549,-1.208857 -3.23672,-0.727456 -7.16349,-1.404288 -11.185567,-1.985982 -4.022076,-0.581694 -8.058504,-1.049746 -11.185568,-1.554246 -1.56353,-0.25224 -2.89302,-0.562864 -3.815232,-0.777124 -0.24675,-0.05736 -0.408338,-0.09702 -0.606968,-0.17272 -0.13794,-0.16118 -0.28425,-0.27429 -0.433548,-0.518082 -0.489752,-0.799576 -1.18232,-1.974996 -1.90762,-3.367536 -1.450598,-2.785078 -3.22691,-6.411218 -5.02917,-10.016262 -1.80226,-3.605042 -3.588174,-7.19287 -5.2893,-10.01627 -0.85054,-1.411706 -1.700544,-2.649218 -2.601274,-3.71293 -0.900726,-1.06371 -1.560972,-2.67676 -4.76904,-2.67676 z"
     id="path1307"
     inkscape:connector-curvature="0"
     sodipodi:nodetypes="ccccssssscsssssscsssssscsssssscscssssccssscscsssssscsssssscssssscccssssc" />
</svg>
