<?xml version="1.0" encoding="UTF-8" standalone="no"?>
<!-- Created with Inkscape (http://www.inkscape.org/) -->

<svg
   xmlns:dc="http://purl.org/dc/elements/1.1/"
   xmlns:cc="http://creativecommons.org/ns#"
   xmlns:rdf="http://www.w3.org/1999/02/22-rdf-syntax-ns#"
   xmlns:svg="http://www.w3.org/2000/svg"
   xmlns="http://www.w3.org/2000/svg"
   xmlns:xlink="http://www.w3.org/1999/xlink"
   xmlns:sodipodi="http://sodipodi.sourceforge.net/DTD/sodipodi-0.dtd"
   xmlns:inkscape="http://www.inkscape.org/namespaces/inkscape"
   id="svg3786"
   height="32"
   width="32"
   version="1.0"
   inkscape:version="0.48.3.1 r9886"
   sodipodi:docname="document-save.svg">
  <metadata
     id="metadata83">
    <rdf:RDF>
      <cc:Work
         rdf:about="">
        <dc:format>image/svg+xml</dc:format>
        <dc:type
           rdf:resource="http://purl.org/dc/dcmitype/StillImage" />
        <dc:title></dc:title>
      </cc:Work>
    </rdf:RDF>
  </metadata>
  <sodipodi:namedview
     pagecolor="#ffffff"
     bordercolor="#666666"
     borderopacity="1"
     objecttolerance="10"
     gridtolerance="10"
     guidetolerance="10"
     inkscape:pageopacity="0"
     inkscape:pageshadow="2"
     inkscape:window-width="1366"
     inkscape:window-height="719"
     id="namedview81"
     showgrid="true"
     inkscape:zoom="5.8769531"
     inkscape:cx="30.039489"
     inkscape:cy="15.104141"
     inkscape:window-x="0"
     inkscape:window-y="27"
     inkscape:window-maximized="1"
     inkscape:current-layer="svg3786">
    <inkscape:grid
       type="xygrid"
       id="grid3831"
       empspacing="5"
       visible="true"
       enabled="true"
       snapvisiblegridlinesonly="true" />
  </sodipodi:namedview>
  <defs
     id="defs3788">
    <linearGradient
       id="linearGradient2901"
       y2="33.332001"
       gradientUnits="userSpaceOnUse"
       x2="57.410999"
       gradientTransform="matrix(0,0.79844,-0.79131,0,163.99934,-20.930575)"
       y1="33.332001"
       x1="8.5272999">
      <stop
         id="stop4224"
         style="stop-color:#fff"
         offset="0" />
      <stop
         id="stop4226"
         style="stop-color:#fff;stop-opacity:0"
         offset="1" />
    </linearGradient>
    <linearGradient
       id="linearGradient3390"
       y2="23.891001"
       gradientUnits="userSpaceOnUse"
       x2="1.3099999"
       gradientTransform="matrix(0,-0.68843,-0.68544,0,159.48534,14.451625)"
       y1="23.891001"
       x1="28.671">
      <stop
         id="stop2266"
         style="stop-color:#d7e866"
         offset="0" />
      <stop
         id="stop2268"
         style="stop-color:#8cab2a"
         offset="1" />
    </linearGradient>
    <radialGradient
       id="radialGradient2939"
       xlink:href="#linearGradient5060-3"
       gradientUnits="userSpaceOnUse"
       cy="486.64999"
       cx="605.71002"
       gradientTransform="matrix(0.044847,0,0,0.020588,134.34134,19.520625)"
       r="117.14" />
    <linearGradient
       id="linearGradient5060-3">
      <stop
         id="stop5062-9"
         offset="0" />
      <stop
         id="stop5064-0"
         style="stop-opacity:0"
         offset="1" />
    </linearGradient>
    <radialGradient
       id="radialGradient2936"
       xlink:href="#linearGradient5060-3"
       gradientUnits="userSpaceOnUse"
       cy="486.64999"
       cx="605.71002"
       gradientTransform="matrix(-0.044847,0,0,0.020588,151.56334,19.520625)"
       r="117.14" />
    <linearGradient
       id="linearGradient2933"
       y2="50"
       gradientUnits="userSpaceOnUse"
       x2="30"
       gradientTransform="matrix(1.0018,0,0,0.75964,113.90134,-7.9944752)"
       y1="41"
       x1="29.938">
      <stop
         id="stop2223-8"
         style="stop-color:#7a7a7a"
         offset="0" />
      <stop
         id="stop2219-5"
         style="stop-color:#474747"
         offset="1" />
    </linearGradient>
    <radialGradient
       id="radialGradient2927"
       gradientUnits="userSpaceOnUse"
       cy="8.4899998"
       cx="11.734"
       gradientTransform="matrix(1.3767,0.69719,-0.46811,0.92435,118.90313,-15.869445)"
       r="23.048">
      <stop
         id="stop7064-9"
         style="stop-color:#e6e6e6"
         offset="0" />
      <stop
         id="stop7060-6"
         style="stop-color:#c8c8c8"
         offset="1" />
    </radialGradient>
    <linearGradient
       id="linearGradient2929"
       y2="10"
       gradientUnits="userSpaceOnUse"
       x2="18.073"
       gradientTransform="translate(118.95229,-13.930975)"
       y1="29.797001"
       x1="17.813999">
      <stop
         id="stop3486-8"
         style="stop-color:#969696"
         offset="0" />
      <stop
         id="stop3488-5"
         style="stop-color:#b4b4b4"
         offset="1" />
    </linearGradient>
    <radialGradient
       id="radialGradient2923"
       xlink:href="#linearGradient4035"
       gradientUnits="userSpaceOnUse"
       cy="206.42999"
       cx="141.75"
       gradientTransform="matrix(0.35161,-0.0050244,0.0026023,0.28909,91.928339,-38.148375)"
       r="78.727997" />
    <linearGradient
       id="linearGradient4035">
      <stop
         id="stop4037"
         style="stop-color:#f5f5f5"
         offset="0" />
      <stop
         id="stop4039"
         style="stop-color:#e7e7e7"
         offset=".47026" />
      <stop
         id="stop4041"
         style="stop-color:#8c8c8c"
         offset=".69349" />
      <stop
         id="stop4043"
         style="stop-color:#ddd"
         offset=".83543" />
      <stop
         id="stop4045"
         style="stop-color:#a8a8a8"
         offset="1" />
    </linearGradient>
    <radialGradient
       id="radialGradient2920"
       gradientUnits="userSpaceOnUse"
       cy="191.85001"
       cx="142.62"
       gradientTransform="matrix(0.18495,0,0,-0.13074,115.84114,32.117625)"
       r="78.727997">
      <stop
         id="stop7611"
         style="stop-color:#fff"
         offset="0" />
      <stop
         id="stop7677"
         style="stop-color:#e7e7e7"
         offset=".47026" />
      <stop
         id="stop7613"
         style="stop-color:#8c8c8c"
         offset=".67184" />
      <stop
         id="stop7617"
         style="stop-color:#ddd"
         offset=".83543" />
      <stop
         id="stop7615"
         style="stop-color:#a8a8a8"
         offset="1" />
    </radialGradient>
    <radialGradient
       id="radialGradient2965"
       fx="113.67"
       fy="98"
       xlink:href="#radialGradient4241"
       gradientUnits="userSpaceOnUse"
       cy="97.587997"
       cx="113.07"
       gradientTransform="matrix(-0.32949,0,0,0.34975,160.91534,-12.436975)"
       r="2.5631001" />
    <radialGradient
       id="radialGradient4241"
       fx="113.67"
       fy="98"
       gradientUnits="userSpaceOnUse"
       cy="97.587997"
       cx="113.07"
       r="2.5631001">
      <stop
         id="stop4243"
         style="stop-color:#eee"
         offset="0" />
      <stop
         id="stop4245"
         style="stop-color:#cecece"
         offset=".16" />
      <stop
         id="stop4247"
         style="stop-color:#888"
         offset=".4675" />
      <stop
         id="stop4249"
         style="stop-color:#555"
         offset="1" />
    </radialGradient>
    <radialGradient
       id="radialGradient2959"
       fx="113.67"
       fy="98"
       xlink:href="#radialGradient4241"
       gradientUnits="userSpaceOnUse"
       cy="97.587997"
       cx="113.07"
       gradientTransform="matrix(0.22283,-0.037522,0.025099,0.14905,100.80634,-12.398575)"
       r="2.5631001" />
    <radialGradient
       id="radialGradient2953"
       fx="113.67"
       fy="98"
       xlink:href="#radialGradient4241"
       gradientUnits="userSpaceOnUse"
       cy="97.587997"
       cx="113.07"
       gradientTransform="matrix(0.22333,0.034393,-0.023006,0.14939,133.74334,-20.562675)"
       r="2.5631001" />
    <linearGradient
       id="linearGradient2908"
       y2="35.280998"
       xlink:href="#linearGradient5060-3"
       gradientUnits="userSpaceOnUse"
       x2="24.688"
       gradientTransform="matrix(1.0213,0,0,0.89888,119.73953,-5.144375)"
       y1="35.280998"
       x1="7.0625" />
    <linearGradient
       id="linearGradient2905"
       y2="33.758999"
       gradientUnits="userSpaceOnUse"
       x2="12.222"
       gradientTransform="matrix(1.0213,0,0,0.89888,118.92711,-3.952375)"
       y1="37.206001"
       x1="12.277">
      <stop
         id="stop4238"
         style="stop-color:#eee"
         offset="0" />
      <stop
         id="stop4240"
         style="stop-color:#eee;stop-opacity:0"
         offset="1" />
    </linearGradient>
    <radialGradient
       id="radialGradient2902"
       xlink:href="#linearGradient4035"
       gradientUnits="userSpaceOnUse"
       cy="143.83"
       cx="127.32"
       gradientTransform="matrix(0.19054,-0.025056,0.0061935,0.10073,111.51514,-8.5021752)"
       r="78.727997" />
    <radialGradient
       id="radialGradient2947"
       fx="113.67"
       fy="98"
       xlink:href="#radialGradient4241"
       gradientUnits="userSpaceOnUse"
       cy="97.587997"
       cx="113.07"
       gradientTransform="matrix(0.32949,0,0,0.34975,125.00724,-12.436975)"
       r="2.5631001" />
    <radialGradient
       id="radialGradient2896"
       gradientUnits="userSpaceOnUse"
       cy="42"
       cx="24"
       gradientTransform="matrix(1,-1.0652e-8,2.7813e-8,0.35714,118.95229,11.569625)"
       r="21">
      <stop
         id="stop6312-6"
         style="stop-color:#fff"
         offset="0" />
      <stop
         id="stop6314-6"
         style="stop-color:#fff;stop-opacity:0"
         offset="1" />
    </radialGradient>
    <linearGradient
       id="linearGradient3032"
       y2="609.51001"
       gradientUnits="userSpaceOnUse"
       x2="302.85999"
       gradientTransform="matrix(0.076357,0,0,0.020588,115.35484,19.520625)"
       y1="366.64999"
       x1="302.85999">
      <stop
         id="stop5050-1"
         style="stop-opacity:0"
         offset="0" />
      <stop
         id="stop5056-2"
         offset=".5" />
      <stop
         id="stop5052-9"
         style="stop-opacity:0"
         offset="1" />
    </linearGradient>
  </defs>
  <rect
     id="rect2723-6"
     style="opacity:0.3;fill:url(#linearGradient3032)"
     height="5"
     width="36.868999"
     y="27.069626"
     x="124.51764" />
  <path
     id="path2725-1"
     style="opacity:0.3;fill:url(#radialGradient2939)"
     d="m 161.36934,27.069625 v 4.9997 c 2.3095,0.0094 5.5833,-1.1202 5.5833,-2.5002 0,-1.38 -2.5773,-2.4995 -5.5833,-2.4995 z"
     inkscape:connector-curvature="0" />
  <path
     id="path2727-1"
     style="opacity:0.3;fill:url(#radialGradient2936)"
     d="m 124.53564,27.069625 v 4.9997 c -2.3095,0.0094 -5.5833,-1.1202 -5.5833,-2.5002 0,-1.38 2.5773,-2.4995 5.5833,-2.4995 z"
     inkscape:connector-curvature="0" />
  <path
     id="rect6431-5"
     style="fill:url(#linearGradient2933);fill-rule:evenodd;stroke:#353537;stroke-width:0.92799997;stroke-linecap:round;stroke-linejoin:round;enable-background:new"
     d="m 120.41614,23.533625 h 45.072 l -0.9012,6.072 h -43.169 l -1.0014,-6.072 z"
     inkscape:connector-curvature="0" />
  <rect
     id="rect6381-9"
     style="fill:#d2d2d3;fill-rule:evenodd;enable-background:new"
     height="1"
     width="45"
     y="23.068626"
     x="120.45224" />
  <path
     id="path6345-8"
     style="fill:url(#radialGradient2927);stroke:url(#linearGradient2929);stroke-width:0.99577999;stroke-linecap:round;stroke-linejoin:round"
     d="m 165.50234,23.671625 -6.81,-25.775 c -0.19255,-0.73397 -1.2012,-1.3299 -2.0492,-1.3299 h -27.617 c -1.3027,0 -2.0493,0.19857 -2.324,1.3299 l -6.3001,25.749"
     inkscape:connector-curvature="0" />
  <path
     id="path7046-4"
     style="opacity:0.4;fill:none;stroke:#ffffff;stroke-linecap:round"
     d="m 164.45234,23.568625 -43,-0.024"
     inkscape:connector-curvature="0" />
  <path
     id="path9001"
     style="fill:url(#radialGradient2923)"
     d="m 159.92334,12.442625 c -0.21768,-1.998 -1.6765,-3.9031 -4.1004,-5.4065 -0.0488,-0.57786 -0.67006,-7.9702 -0.67006,-7.9702 -0.0476,-0.56826 -0.77175,-0.99715 -1.685,-0.99715 h -5.7313 c -0.91983,0 -1.6309,0.43452 -1.6541,1.0107 -0.10517,2.6032 -3.312,3.9624 -8.0956,5.1988 -1.6761,0.29034 -6.046,1.6552 -7.049,2.2542 -2.9524,1.5736 -4.7132,3.6715 -4.9572,5.9101 -0.22194,2.0361 0.84483,4.0736 3.0039,5.7372 3.1601,2.435 8.3813,3.889 13.967,3.889 5.5859,0 10.807,-1.454 13.968,-3.889 1.9719,-1.5191 3.0325,-3.3507 3.0325,-5.2078 0,-0.17636 -0.0103,-0.35299 -0.0287,-0.52934 h 6e-5 z m -16.972,8.6163 c -9.3035,0 -16.427,-4.0803 -15.912,-8.8102 0.22233,-2.0392 1.8544,-4.216 4.557,-5.6505 0.50612,-0.38148 5.0771,-1.8654 6.7168,-2.1261 4.5447,-1.1721 8.7007,-2.6932 8.831,-5.8988 0.006,-0.1535 0.26756,-0.27511 0.59196,-0.27511 h 5.7305 c 0.33174,0 0.6117,0.12753 0.62484,0.28498 l 0.69594,8.282 c 2.4088,1.3958 3.8684,3.4793 4.0757,5.3836 0.51578,4.7299 -6.6082,8.8102 -15.912,8.8102 z"
     inkscape:connector-curvature="0" />
  <path
     id="path9003"
     style="fill:url(#radialGradient2920)"
     d="m 142.95234,15.069625 c -3.365,0 -5.9446,-1.2671 -5.9989,-2.9478 -4.3e-4,-0.01817 -8.5e-4,-0.03604 -8.5e-4,-0.0539 0,-0.60818 0.3381,-1.1866 0.98056,-1.6763 1.0868,-0.82782 2.9632,-1.322 5.0196,-1.322 2.056,0 3.9324,0.49413 5.0192,1.322 0.66144,0.50352 1.0004,1.102 0.97973,1.7299 -0.0552,1.6807 -2.6348,2.9481 -5.9993,2.9481 v 3e-6 z m 0,-5.0597 c -3.1618,0 -4.7726,1.2558 -4.7346,2.4023 0.0367,1.1286 2.1563,2.0304 4.7346,2.0304 2.5783,0 4.698,-0.90209 4.7346,-2.0304 0.0375,-1.1468 -1.5729,-2.4023 -4.7346,-2.4023 z"
     inkscape:connector-curvature="0" />
  <path
     id="path9007"
     style="fill:#e1e1e1"
     d="m 124.96814,21.688625 c -0.0415,0.59527 -0.66326,1.0807 -1.3881,1.0807 -0.72455,0 -1.2731,-0.48545 -1.2247,-1.0807 0.0481,-0.59212 0.66952,-1.0702 1.3871,-1.0702 0.71796,2.81e-4 1.2666,0.4781 1.2257,1.0702 z"
     inkscape:connector-curvature="0" />
  <path
     id="path9009"
     style="fill:url(#radialGradient2965)"
     d="m 124.49924,21.269625 c 0.0662,0.07554 0.14201,0.19656 0.14201,0.35744 0,0.01155 -6.6e-4,0.02308 -0.001,0.03533 -0.0287,0.41025 -0.514,0.75685 -1.0596,0.75685 -0.31071,0 -0.59473,-0.11367 -0.75947,-0.30463 -0.0708,-0.08149 -0.15156,-0.21649 -0.13707,-0.39626 0.0333,-0.40676 0.51796,-0.75056 1.059,-0.75056 0.3084,2.8e-4 0.59143,0.11297 0.7565,0.30183 h 0 z"
     inkscape:connector-curvature="0" />
  <path
     id="path9019"
     style="fill:#f0f0f0"
     d="m 127.56584,-1.949375 c 0.0708,0.24896 0.52611,0.38504 1.0163,0.30249 0.49,-0.08251 0.82617,-0.35187 0.7507,-0.60004 -0.075,-0.24686 -0.52959,-0.37985 -1.0149,-0.29813 -0.48552,0.08188 -0.82224,0.34799 -0.75212,0.59568 z"
     inkscape:connector-curvature="0" />
  <path
     id="path9021"
     style="fill:url(#radialGradient2959)"
     d="m 127.85284,-2.180375 c -0.0394,0.03974 -0.0819,0.09994 -0.0704,0.1685 8.3e-4,0.0049 0.002,0.0098 0.003,0.0149 0.0488,0.17157 0.40193,0.26401 0.77093,0.20187 0.21013,-0.03538 0.39405,-0.11617 0.49176,-0.21631 0.0421,-0.0428 0.087,-0.10952 0.0643,-0.18448 -0.0517,-0.16956 -0.40415,-0.26088 -0.77003,-0.19927 -0.20855,0.03524 -0.39187,0.1155 -0.48995,0.21478 l 0,10e-7 z"
     inkscape:connector-curvature="0" />
  <path
     id="path9025"
     style="fill:#e1e1e1"
     d="m 155.86434,-2.234375 c -0.011,0.25859 0.37848,0.53084 0.86981,0.60651 0.49111,0.07563 0.89489,-0.07446 0.90121,-0.33377 0.006,-0.25794 -0.38341,-0.52702 -0.86983,-0.60192 -0.48666,-0.07482 -0.88994,0.07201 -0.90119,0.32919 z"
     inkscape:connector-curvature="0" />
  <path
     id="path9027"
     style="fill:url(#radialGradient2953)"
     d="m 156.21034,-2.364375 c -0.0499,0.02535 -0.10918,0.06913 -0.11977,0.13785 -7.6e-4,0.0049 -0.001,0.0099 -0.001,0.01523 -0.008,0.17822 0.29861,0.37693 0.66845,0.43388 0.2106,0.03243 0.41059,0.01353 0.53482,-0.05084 0.0534,-0.02741 0.11697,-0.07665 0.11897,-0.15495 0.004,-0.17721 -0.30171,-0.37465 -0.66842,-0.43113 -0.20906,-0.03207 -0.40831,-0.01348 -0.53262,0.04996 l 0,-1e-6 z"
     inkscape:connector-curvature="0" />
  <path
     id="rect8993"
     style="fill:url(#linearGradient2908);fill-rule:evenodd"
     d="m 126.45224,24.069625 h 18.5 v 5 h -18 l -0.50001,-5 z"
     inkscape:connector-curvature="0" />
  <path
     id="path8995"
     style="opacity:1.01142997;fill:url(#linearGradient2905);fill-rule:evenodd"
     d="m 126.95234,29.069625 -0.40001,-3.6058 c 1.8746,2.8577 8.873,3.6058 13.613,3.6058 h -13.213 z"
     inkscape:connector-curvature="0" />
  <path
     id="path9039"
     style="fill:url(#radialGradient2902)"
     d="m 129.85934,-1.930375 -0.10327,0.38101 -1.5418,5.6709 -0.26156,0.9481 0.764,-0.2038 12.995,-3.5443 0.0413,-0.01771 0.0344,-0.01771 c 0.68814,-0.35435 1.0558,-1.0704 1.1425,-1.7278 0.0434,-0.3287 0.0304,-0.65058 -0.0825,-0.9481 -0.107,-0.281 -0.385,-0.531 -0.675,-0.523 v -0.01771 h -0.0482 -11.955 -0.30973 l 3e-5,1e-6 z m 0.43984,0.35038 h 11.977 c 0.006,0.04787 0.0191,0.07443 0.007,0.165 -0.0376,0.28502 -0.1992,1.3047 -0.60524,1.5271 l -12.596,3.4375 1.2176,-5.1296 h 3.9e-4 z"
     inkscape:connector-curvature="0" />
  <path
     id="path9091"
     style="fill:#e1e1e1"
     d="m 160.95434,21.688625 c 0.0415,0.59527 0.66326,1.0807 1.3881,1.0807 0.72455,0 1.2731,-0.48545 1.2247,-1.0807 -0.0481,-0.59212 -0.66952,-1.0702 -1.3871,-1.0702 -0.71796,2.81e-4 -1.2666,0.4781 -1.2257,1.0702 z"
     inkscape:connector-curvature="0" />
  <path
     id="path9093"
     style="fill:url(#radialGradient2947)"
     d="m 161.42334,21.269625 c -0.0662,0.07554 -0.14201,0.19656 -0.14201,0.35744 0,0.01155 6.6e-4,0.02308 0.001,0.03533 0.0287,0.41025 0.514,0.75685 1.0596,0.75685 0.31071,0 0.59473,-0.11367 0.75947,-0.30463 0.0708,-0.08149 0.15156,-0.21649 0.13707,-0.39626 -0.0333,-0.40676 -0.51796,-0.75056 -1.059,-0.75056 -0.3084,2.8e-4 -0.59143,0.11297 -0.7565,0.30183 h 0 z"
     inkscape:connector-curvature="0" />
  <rect
     id="rect6300-3"
     style="opacity:0.3;fill:url(#radialGradient2896)"
     height="5"
     width="42"
     y="24.069626"
     x="121.95224" />
  <path
     id="path4348"
     style="fill:url(#linearGradient3390);stroke:#548820;stroke-width:0.98045999;stroke-linecap:round;stroke-linejoin:round"
     d="m 156.61934,-1.819375 -13.544,15.01 -13.476,-15.01 h 6.01 v -13.01 h 15 v 13.01 h 6.0098 z"
     inkscape:connector-curvature="0" />
  <path
     id="path4360"
     style="opacity:0.35400008;fill:none;stroke:url(#linearGradient2901);stroke-width:0.98045999"
     d="m 154.31434,-0.819375 -11.205,12.5 -11.367,-12.5 h 4.867 v -13 h 13 v 13 h 4.7053 z"
     inkscape:connector-curvature="0" />
  <path
     style="font-size:medium;font-style:normal;font-variant:normal;font-weight:normal;font-stretch:normal;text-indent:0;text-align:start;text-decoration:none;line-height:normal;letter-spacing:normal;word-spacing:normal;text-transform:none;direction:ltr;block-progression:tb;writing-mode:lr-tb;text-anchor:start;baseline-shift:baseline;opacity:1.0;color:#000000;fill:#2D2D2D;fill-opacity:1;stroke:none;stroke-width:3;marker:none;visibility:visible;display:inline;overflow:visible;enable-background:accumulate;font-family:Sans;-inkscape-font-specification:Sans"
     d="m 12.806399,1.0013796 c -0.49866,0.05227 -0.918182,0.52057 -0.915501,1.0219545 l 0,5.0033185 -2.0651991,0 c -0.776705,-0.00559 -1.289284,1.0888624 -0.787757,1.6819666 l 1.8735831,2.2142348 -2.7252121,0 c -0.03546,-0.0018 -0.071,-0.0018 -0.106453,0 -0.49866,0.05227 -0.918183,0.52057 -0.915501,1.021954 l 0,18.033238 c 5.4e-5,0.535079 0.486875,1.0219 1.021954,1.021954 L 23.8137,31 c 0.535079,-5.4e-5 1.0219,-0.486875 1.021954,-1.021954 l 0,-18.033238 c -5.4e-5,-0.535079 -0.486875,-1.0219 -1.021954,-1.021954 l -2.725212,0 1.873583,-2.2142348 C 23.463599,8.115515 22.95102,7.0210911 22.174315,7.0266526 l -2.0652,0 0,-5.0033185 C 20.109062,1.4882544 19.62224,1.0014328 19.087161,1.0013796 l -6.174308,0 c -0.03545,-0.001839 -0.071,-0.001839 -0.106454,0 z m -3.5981311,11.9653834 3.4278051,0 2.597468,3.065863 c 0.382306,0.447531 1.171916,0.447531 1.554222,0 l 2.576177,-3.065863 3.427805,0 0,15.989328 -13.5834771,0 0,-15.989328 z m 6.7917391,3.789747 c -2.997658,0 -5.450424,2.452765 -5.450424,5.450424 0,2.997659 2.452766,5.450423 5.450424,5.450423 2.997658,0 5.450423,-2.452764 5.450423,-5.450423 0,-2.997659 -2.452765,-5.450424 -5.450423,-5.450424 z m 0,4.045237 c 0.752546,0 1.362605,0.610059 1.362605,1.362605 0,0.752547 -0.610059,1.362606 -1.362605,1.362606 -0.752547,0 -1.362606,-0.610059 -1.362606,-1.362606 0,-0.752546 0.610059,-1.362605 1.362606,-1.362605 z"
     id="rect3863"
     inkscape:connector-curvature="0" />
</svg>
