<?xml version="1.0" encoding="UTF-8" standalone="no"?>
<!-- Created with Inkscape (http://www.inkscape.org/) -->

<svg
   xmlns:dc="http://purl.org/dc/elements/1.1/"
   xmlns:cc="http://creativecommons.org/ns#"
   xmlns:rdf="http://www.w3.org/1999/02/22-rdf-syntax-ns#"
   xmlns:svg="http://www.w3.org/2000/svg"
   xmlns="http://www.w3.org/2000/svg"
   xmlns:xlink="http://www.w3.org/1999/xlink"
   xmlns:sodipodi="http://sodipodi.sourceforge.net/DTD/sodipodi-0.dtd"
   xmlns:inkscape="http://www.inkscape.org/namespaces/inkscape"
   id="svg3508"
   height="32"
   width="32"
   version="1.0"
   inkscape:version="0.48.4 r9939"
   sodipodi:docname="gnome-mime-application-vnd.rn-realmedia-secure.svg">
  <metadata
     id="metadata62">
    <rdf:RDF>
      <cc:Work
         rdf:about="">
        <dc:format>image/svg+xml</dc:format>
        <dc:type
           rdf:resource="http://purl.org/dc/dcmitype/StillImage" />
        <dc:title></dc:title>
      </cc:Work>
    </rdf:RDF>
  </metadata>
  <sodipodi:namedview
     pagecolor="#ffffff"
     bordercolor="#666666"
     borderopacity="1"
     objecttolerance="10"
     gridtolerance="10"
     guidetolerance="10"
     inkscape:pageopacity="0"
     inkscape:pageshadow="2"
     inkscape:window-width="1366"
     inkscape:window-height="712"
     id="namedview60"
     showgrid="true"
     inkscape:zoom="11.313708"
     inkscape:cx="24.71657"
     inkscape:cy="13.554481"
     inkscape:window-x="0"
     inkscape:window-y="27"
     inkscape:window-maximized="1"
     inkscape:current-layer="svg3508"
     showguides="true"
     inkscape:guide-bbox="true">
    <inkscape:grid
       type="xygrid"
       id="grid3816"
       empspacing="5"
       visible="true"
       enabled="true"
       snapvisiblegridlinesonly="true" />
    <sodipodi:guide
       orientation="1,0"
       position="10,9"
       id="guide3054" />
    <sodipodi:guide
       orientation="1,0"
       position="22,6"
       id="guide3056" />
    <sodipodi:guide
       orientation="0,1"
       position="15,22"
       id="guide3058" />
    <sodipodi:guide
       orientation="0,1"
       position="13,10"
       id="guide3060" />
  </sodipodi:namedview>
  <defs
     id="defs3510">
    <linearGradient
       id="linearGradient3824">
      <stop
         style="stop-color:#e4e6e2;stop-opacity:1;"
         offset="0"
         id="stop3826" />
      <stop
         id="stop3834"
         offset="0.5"
         style="stop-color:#d7dad3;stop-opacity:1;" />
      <stop
         style="stop-color:#b7beb1;stop-opacity:1;"
         offset="1"
         id="stop3828" />
    </linearGradient>
    <linearGradient
       id="linearGradient3156"
       y2="36"
       gradientUnits="userSpaceOnUse"
       x2="-0.097514004"
       gradientTransform="matrix(0.72415,0,0,0.73599,74.074876,5.5950852)"
       y1="36"
       x1="36.5">
      <stop
         id="stop3916"
         style="stop-color:#c02cbb"
         offset="0" />
      <stop
         id="stop3918"
         style="stop-color:#b329ae;stop-opacity:.49804"
         offset=".79722" />
      <stop
         id="stop3920"
         style="stop-color:#982394;stop-opacity:0"
         offset="1" />
    </linearGradient>
    <linearGradient
       id="linearGradient3154"
       y2="15.5"
       gradientUnits="userSpaceOnUse"
       x2="-0.073089004"
       gradientTransform="matrix(0.72415,0,0,0.73599,74.074876,5.5950852)"
       y1="15.5"
       x1="23.997">
      <stop
         id="stop3700"
         style="stop-color:#ce7ecc"
         offset="0" />
      <stop
         id="stop3702"
         style="stop-color:#c056bc;stop-opacity:.81569"
         offset=".76279" />
      <stop
         id="stop3704"
         style="stop-color:#f8c9f7;stop-opacity:0"
         offset="1" />
    </linearGradient>
    <linearGradient
       id="linearGradient3151"
       y2="-0.43753999"
       gradientUnits="userSpaceOnUse"
       x2="20.483999"
       gradientTransform="matrix(0,-0.86253,0.84866,0,75.365876,45.413085)"
       y1="12.82"
       x1="20.483999">
      <stop
         id="stop2189"
         style="stop-color:#fff;stop-opacity:.64341"
         offset="0" />
      <stop
         id="stop2191"
         style="stop-color:#fff;stop-opacity:0"
         offset="1" />
    </linearGradient>
    <linearGradient
       id="linearGradient5060">
      <stop
         id="stop5062"
         offset="0" />
      <stop
         id="stop5064"
         style="stop-opacity:0"
         offset="1" />
    </linearGradient>
    <linearGradient
       id="linearGradient3104">
      <stop
         id="stop3106"
         style="stop-color:#aaa"
         offset="0" />
      <stop
         id="stop3108"
         style="stop-color:#c8c8c8"
         offset="1" />
    </linearGradient>
    <filter
       id="filter3248"
       y="-0.16434"
       x="-0.14846"
       height="1.3286999"
       width="1.2969"
       color-interpolation-filters="sRGB">
      <feGaussianBlur
         id="feGaussianBlur3250"
         stdDeviation="0.77391625" />
    </filter>
    <linearGradient
       id="linearGradient2432"
       y2="5.4565001"
       gradientUnits="userSpaceOnUse"
       x2="36.358002"
       gradientTransform="matrix(0.9977,0,0,1.0407,57.259676,-6.7147148)"
       y1="8.059"
       x1="32.891998">
      <stop
         id="stop8591"
         style="stop-color:#fefefe"
         offset="0" />
      <stop
         id="stop8593"
         style="stop-color:#cbcbcb"
         offset="1" />
    </linearGradient>
    <linearGradient
       id="linearGradient2439"
       y2="3.3638999"
       xlink:href="#linearGradient3104"
       gradientUnits="userSpaceOnUse"
       x2="22.004"
       gradientTransform="translate(55.113776,-8.6560148)"
       y1="47.813"
       x1="22.004" />
    <linearGradient
       id="linearGradient2442"
       y2="46.016998"
       gradientUnits="userSpaceOnUse"
       x2="24"
       gradientTransform="matrix(1,0,0,0.97778,57.095876,-6.5755848)"
       y1="2"
       x1="24">
      <stop
         id="stop3213"
         style="stop-color:#fff"
         offset="0" />
      <stop
         id="stop3215"
         style="stop-color:#fff;stop-opacity:0"
         offset="1" />
    </linearGradient>
    <radialGradient
       id="radialGradient2445"
       gradientUnits="userSpaceOnUse"
       cy="112.3"
       cx="102"
       gradientTransform="matrix(0.3617,0,0,-0.39078,57.946936,41.908085)"
       r="139.56">
      <stop
         id="stop41"
         style="stop-color:#b7b8b9"
         offset="0" />
      <stop
         id="stop47"
         style="stop-color:#ececec"
         offset=".18851" />
      <stop
         id="stop49"
         style="stop-color:#fafafa;stop-opacity:0"
         offset=".25718" />
      <stop
         id="stop51"
         style="stop-color:#fff;stop-opacity:0"
         offset=".30111" />
      <stop
         id="stop53"
         style="stop-color:#fafafa;stop-opacity:0"
         offset=".53130" />
      <stop
         id="stop55"
         style="stop-color:#ebecec;stop-opacity:0"
         offset=".84490" />
      <stop
         id="stop57"
         style="stop-color:#e1e2e3;stop-opacity:0"
         offset="1" />
    </radialGradient>
    <linearGradient
       id="linearGradient2448"
       y2="47.013"
       gradientUnits="userSpaceOnUse"
       x2="25.132"
       gradientTransform="matrix(1,0,0,0.95617,57.095876,-7.5238148)"
       y1="0.98521"
       x1="25.132">
      <stop
         id="stop3602"
         style="stop-color:#f4f4f4"
         offset="0" />
      <stop
         id="stop3604"
         style="stop-color:#dbdbdb"
         offset="1" />
    </linearGradient>
    <linearGradient
       id="linearGradient2450"
       y2="2.9061999"
       xlink:href="#linearGradient3104"
       gradientUnits="userSpaceOnUse"
       x2="-51.785999"
       gradientTransform="matrix(0.8075,0,0,0.89483,116.50588,-8.5895148)"
       y1="50.785999"
       x1="-51.785999" />
    <radialGradient
       id="radialGradient2453"
       xlink:href="#linearGradient5060"
       gradientUnits="userSpaceOnUse"
       cy="486.64999"
       cx="605.71002"
       gradientTransform="matrix(0.02304,0,0,0.0147,83.456876,31.431085)"
       r="117.14" />
    <radialGradient
       id="radialGradient2456"
       xlink:href="#linearGradient5060"
       gradientUnits="userSpaceOnUse"
       cy="486.64999"
       cx="605.71002"
       gradientTransform="matrix(-0.02304,0,0,0.0147,78.718876,31.431085)"
       r="117.14" />
    <linearGradient
       id="linearGradient2459"
       y2="609.51001"
       gradientUnits="userSpaceOnUse"
       x2="302.85999"
       gradientTransform="matrix(0.067325,0,0,0.0147,56.754736,31.431085)"
       y1="366.64999"
       x1="302.85999">
      <stop
         id="stop5050"
         style="stop-opacity:0"
         offset="0" />
      <stop
         id="stop5056"
         offset=".5" />
      <stop
         id="stop5052"
         style="stop-opacity:0"
         offset="1" />
    </linearGradient>
    <linearGradient
       inkscape:collect="always"
       xlink:href="#linearGradient5060"
       id="linearGradient3822"
       x1="25.555555"
       y1="13.571428"
       x2="33.555557"
       y2="5.8571424"
       gradientUnits="userSpaceOnUse"
       gradientTransform="matrix(1.125,0,0,1.1666667,-3.75,-17.833333)" />
    <radialGradient
       inkscape:collect="always"
       xlink:href="#linearGradient3824"
       id="radialGradient3832"
       cx="24.000002"
       cy="24"
       fx="24.000002"
       fy="24"
       r="14.999999"
       gradientTransform="matrix(1.5333333,0.53333324,-0.61088738,1.7563015,1.8612975,-46.951234)"
       gradientUnits="userSpaceOnUse" />
    <radialGradient
       inkscape:collect="always"
       xlink:href="#linearGradient3824-0"
       id="radialGradient3039-6"
       gradientUnits="userSpaceOnUse"
       gradientTransform="matrix(1.5333333,0.53333324,-0.61088738,1.7563015,1.8612975,-46.951234)"
       cx="24.000002"
       cy="24"
       fx="24.000002"
       fy="24"
       r="14.999999" />
    <linearGradient
       id="linearGradient3824-0">
      <stop
         style="stop-color:#e4e6e2;stop-opacity:1;"
         offset="0"
         id="stop3826-5" />
      <stop
         id="stop3834-0"
         offset="0.5"
         style="stop-color:#d7dad3;stop-opacity:1;" />
      <stop
         style="stop-color:#b7beb1;stop-opacity:1;"
         offset="1"
         id="stop3828-7" />
    </linearGradient>
    <linearGradient
       inkscape:collect="always"
       xlink:href="#linearGradient5060-8"
       id="linearGradient3041-5"
       gradientUnits="userSpaceOnUse"
       gradientTransform="matrix(1.125,0,0,1.1666667,-3.75,-17.833333)"
       x1="25.555555"
       y1="13.571428"
       x2="33.555557"
       y2="5.8571424" />
    <linearGradient
       id="linearGradient5060-8">
      <stop
         id="stop5062-4"
         offset="0" />
      <stop
         id="stop5064-8"
         style="stop-opacity:0"
         offset="1" />
    </linearGradient>
    <linearGradient
       y2="5.8571424"
       x2="33.555557"
       y1="13.571428"
       x1="25.555555"
       gradientTransform="matrix(1.125,0,0,1.1666667,-3.75,-17.833333)"
       gradientUnits="userSpaceOnUse"
       id="linearGradient3079"
       xlink:href="#linearGradient5060-8"
       inkscape:collect="always" />
    <linearGradient
       id="linearGradient5060-63">
      <stop
         id="stop5062-2"
         offset="0" />
      <stop
         id="stop5064-7"
         style="stop-opacity:0"
         offset="1" />
    </linearGradient>
    <radialGradient
       inkscape:collect="always"
       xlink:href="#linearGradient5163"
       id="radialGradient3832-1"
       cx="24.000002"
       cy="24"
       fx="17.628796"
       fy="19.671572"
       r="14.999999"
       gradientTransform="matrix(1.5333333,0.53333324,-0.61088738,1.7563015,1.8612975,-30.951234)"
       gradientUnits="userSpaceOnUse" />
    <linearGradient
       id="linearGradient5163">
      <stop
         id="stop5165"
         offset="0"
         style="stop-color:#8898a5;stop-opacity:1;" />
      <stop
         id="stop5169"
         offset="1"
         style="stop-color:#3b434e;stop-opacity:1;" />
    </linearGradient>
    <linearGradient
       inkscape:collect="always"
       xlink:href="#linearGradient5060"
       id="linearGradient3857"
       gradientUnits="userSpaceOnUse"
       gradientTransform="matrix(0.82500008,0,0,0.87499946,-4.3500028,-3.3749782)"
       x1="25.555555"
       y1="13.571428"
       x2="33.555557"
       y2="5.8571424" />
    <radialGradient
       inkscape:collect="always"
       xlink:href="#linearGradient5163"
       id="radialGradient3860"
       gradientUnits="userSpaceOnUse"
       gradientTransform="matrix(1.1244445,0.39999967,-0.44798412,1.3172253,-0.23505098,-25.21339)"
       cx="20.00107"
       cy="20.659311"
       fx="20.00107"
       fy="20.659311"
       r="14.999999" />
    <radialGradient
       inkscape:collect="always"
       xlink:href="#linearGradient5163-6"
       id="radialGradient3860-1"
       gradientUnits="userSpaceOnUse"
       gradientTransform="matrix(1.1244445,0.39999967,-0.44798412,1.3172253,-0.23505098,-25.21339)"
       cx="20.00107"
       cy="20.659311"
       fx="20.00107"
       fy="20.659311"
       r="14.999999" />
    <linearGradient
       id="linearGradient5163-6">
      <stop
         id="stop5165-6"
         offset="0"
         style="stop-color:#8898a5;stop-opacity:1;" />
      <stop
         id="stop5169-1"
         offset="1"
         style="stop-color:#3b434e;stop-opacity:1;" />
    </linearGradient>
    <radialGradient
       inkscape:collect="always"
       xlink:href="#linearGradient5163-5"
       id="radialGradient3860-8"
       gradientUnits="userSpaceOnUse"
       gradientTransform="matrix(1.1244445,0.39999967,-0.44798412,1.3172253,-0.23505098,-25.21339)"
       cx="20.00107"
       cy="20.659311"
       fx="20.00107"
       fy="20.659311"
       r="14.999999" />
    <linearGradient
       id="linearGradient5163-5">
      <stop
         id="stop5165-9"
         offset="0"
         style="stop-color:#8898a5;stop-opacity:1;" />
      <stop
         id="stop5169-3"
         offset="1"
         style="stop-color:#3b434e;stop-opacity:1;" />
    </linearGradient>
  </defs>
  <path
     style="font-size:medium;font-style:normal;font-variant:normal;font-weight:normal;font-stretch:normal;text-indent:0;text-align:start;text-decoration:none;line-height:normal;letter-spacing:normal;word-spacing:normal;text-transform:none;direction:ltr;block-progression:tb;writing-mode:lr-tb;text-anchor:start;baseline-shift:baseline;color:#000000;fill:url(#radialGradient3860);fill-opacity:1;stroke:none;stroke-width:3.00000024;marker:none;visibility:visible;display:inline;overflow:visible;enable-background:accumulate;font-family:Sans;-inkscape-font-specification:Sans"
     d="m 5,3 0,26 c 0,0 0,2 1.9999998,2 L 25,31 c 2,0 2,-2 2,-2 L 27,5 22,1 C 17.033855,1 6.9999998,1 6.9999998,1 6.9999998,1 5,1 5,3 z"
     id="rect3039-8"
     inkscape:connector-curvature="0"
     sodipodi:nodetypes="ccccccccc" />
  <path
     style="fill:#2e3436;fill-opacity:1;stroke:none"
     d="M 7 1 C 7 1 5 1 5 3 L 5 29 C 5 29 5.0000002 31 7 31 L 9 31 L 9 1 L 7 1 z M 6 4 L 8 4 L 8 5 L 6 5 L 6 4 z M 6 6 L 8 6 L 8 7 L 6 7 L 6 6 z M 6 8 L 8 8 L 8 9 L 6 9 L 6 8 z M 6 10 L 8 10 L 8 11 L 6 11 L 6 10 z M 6 12 L 8 12 L 8 13 L 6 13 L 6 12 z M 6 14 L 8 14 L 8 15 L 6 15 L 6 14 z M 6 16 L 8 16 L 8 17 L 6 17 L 6 16 z M 6 18 L 8 18 L 8 19 L 6 19 L 6 18 z M 6 20 L 8 20 L 8 21 L 6 21 L 6 20 z M 6 22 L 8 22 L 8 23 L 6 23 L 6 22 z M 6 24 L 8 24 L 8 25 L 6 25 L 6 24 z M 6 26 L 8 26 L 8 27 L 6 27 L 6 26 z M 6 28 L 8 28 L 8 29 L 6 29 L 6 28 z "
     id="rect3862" />
  <path
     style="fill:#2e3436;fill-opacity:1;stroke:none"
     d="M 23 1.8125 L 23 31 L 25 31 C 25.25 31 25.464844 30.960938 25.65625 30.90625 C 26.996088 30.523438 27 29 27 29 L 27 5 L 26 4.1875 L 26 5 L 24 5 L 24 4 L 25.75 4 L 23 1.8125 z M 24 6 L 26 6 L 26 7 L 24 7 L 24 6 z M 24 8 L 26 8 L 26 9 L 24 9 L 24 8 z M 24 10 L 26 10 L 26 11 L 24 11 L 24 10 z M 24 12 L 26 12 L 26 13 L 24 13 L 24 12 z M 24 14 L 26 14 L 26 15 L 24 15 L 24 14 z M 24 16 L 26 16 L 26 17 L 24 17 L 24 16 z M 24 18 L 26 18 L 26 19 L 24 19 L 24 18 z M 24 20 L 26 20 L 26 21 L 24 21 L 24 20 z M 24 22 L 26 22 L 26 23 L 24 23 L 24 22 z M 24 24 L 26 24 L 26 25 L 24 25 L 24 24 z M 24 26 L 26 26 L 26 27 L 24 27 L 24 26 z M 24 28 L 26 28 L 26 29 L 24 29 L 24 28 z "
     id="rect3862-4" />
  <path
     style="fill:url(#linearGradient3857);fill-opacity:1;stroke:none"
     d="m 22,1 0,4 5,0 0,-4 -4.125,1.88e-5 z"
     id="path3814"
     inkscape:connector-curvature="0"
     sodipodi:nodetypes="cccccc" />
  <rect
     style="opacity:0.3;fill:#2e3436;fill-opacity:1;stroke:none"
     id="rect3993"
     width="14"
     height="1"
     x="9"
     y="21" />
  <rect
     style="opacity:0.3;fill:#2e3436;fill-opacity:1;stroke:none"
     id="rect3998"
     width="14"
     height="1"
     x="9"
     y="10" />
  <path
     style="fill:#2e3436;fill-opacity:1;stroke:none"
     d="M 22 1 L 22 1.875 L 22 5 L 27 5 L 25.75 4 L 25 4 L 25 3.40625 L 24 2.59375 L 24 4 L 23 4 L 23 2 L 23.25 2 L 22 1 z "
     id="path4000" />
</svg>
