<?xml version="1.0" encoding="UTF-8" standalone="no"?>
<!-- Created with Inkscape (http://www.inkscape.org/) -->

<svg
   xmlns:dc="http://purl.org/dc/elements/1.1/"
   xmlns:cc="http://creativecommons.org/ns#"
   xmlns:rdf="http://www.w3.org/1999/02/22-rdf-syntax-ns#"
   xmlns:svg="http://www.w3.org/2000/svg"
   xmlns="http://www.w3.org/2000/svg"
   xmlns:xlink="http://www.w3.org/1999/xlink"
   xmlns:sodipodi="http://sodipodi.sourceforge.net/DTD/sodipodi-0.dtd"
   xmlns:inkscape="http://www.inkscape.org/namespaces/inkscape"
   id="svg3692"
   height="32"
   width="32"
   version="1.1"
   inkscape:version="0.48.3.1 r9886"
   sodipodi:docname="bookmark-new.svg">
  <sodipodi:namedview
     pagecolor="#ffffff"
     bordercolor="#666666"
     borderopacity="1"
     objecttolerance="10"
     gridtolerance="10"
     guidetolerance="10"
     inkscape:pageopacity="0"
     inkscape:pageshadow="2"
     inkscape:window-width="1280"
     inkscape:window-height="723"
     id="namedview42"
     showgrid="true"
     inkscape:zoom="9.9345611"
     inkscape:cx="18.034814"
     inkscape:cy="3.045709"
     inkscape:window-x="0"
     inkscape:window-y="20"
     inkscape:window-maximized="1"
     inkscape:current-layer="svg3692">
    <inkscape:grid
       type="xygrid"
       id="grid3811"
       empspacing="5"
       visible="true"
       enabled="true"
       snapvisiblegridlinesonly="true" />
  </sodipodi:namedview>
  <defs
     id="defs3694">
    <linearGradient
       id="linearGradient3619"
       y2="33.955002"
       gradientUnits="userSpaceOnUse"
       x2="15.215"
       gradientTransform="translate(2.9799,-3.1217)"
       y1="22.292"
       x1="11.566">
      <stop
         id="stop2687"
         style="stop-color:#fff;stop-opacity:.27451"
         offset="0" />
      <stop
         id="stop2689"
         style="stop-color:#fff;stop-opacity:0"
         offset="1" />
    </linearGradient>
    <linearGradient
       id="linearGradient3648"
       y2="43.444"
       gradientUnits="userSpaceOnUse"
       x2="29.646999"
       y1="2"
       x1="29.646999">
      <stop
         id="stop3644"
         style="stop-color:#fff"
         offset="0" />
      <stop
         id="stop3646"
         style="stop-color:#fff;stop-opacity:0"
         offset="1" />
    </linearGradient>
    <radialGradient
       id="radialGradient3627"
       gradientUnits="userSpaceOnUse"
       cy="25.625"
       cx="13.139"
       gradientTransform="matrix(0,2.6541,-3.1628,0,97.183,-26.676)"
       r="13.931">
      <stop
         id="stop3692"
         style="stop-color:#ffeb9f"
         offset="0" />
      <stop
         id="stop3694"
         style="stop-color:#ffd57e"
         offset=".26238" />
      <stop
         id="stop3696"
         style="stop-color:#ffbc43"
         offset=".66094" />
      <stop
         id="stop3698"
         style="stop-color:#ff921a"
         offset="1" />
    </radialGradient>
    <linearGradient
       id="linearGradient3629"
       y2="9.5799999"
       gradientUnits="userSpaceOnUse"
       x2="21.483"
       gradientTransform="matrix(1.6509,0,0,1.6568,-11.466,-15.046)"
       y1="36.255001"
       x1="21.483">
      <stop
         id="stop3605"
         style="stop-color:#a7651c"
         offset="0" />
      <stop
         id="stop3607"
         style="stop-color:#c8a700"
         offset="1" />
    </linearGradient>
    <radialGradient
       id="radialGradient3690"
       gradientUnits="userSpaceOnUse"
       cx="62.625"
       cy="4.625"
       r="10.625"
       gradientTransform="matrix(2.1647,0,0,0.84706,-111.56,35.082)">
      <stop
         id="stop8840"
         offset="0" />
      <stop
         id="stop8842"
         style="stop-opacity:0"
         offset="1" />
    </radialGradient>
    <linearGradient
       id="linearGradient5530"
       y2="38.273998"
       gradientUnits="userSpaceOnUse"
       x2="22.368999"
       gradientTransform="matrix(0.59882,0,0,0.5952,23.605,21.219)"
       y1="8.0323"
       x1="22.368999">
      <stop
         id="stop3945"
         style="stop-color:#fff"
         offset="0" />
      <stop
         id="stop3947"
         style="stop-color:#fff;stop-opacity:0"
         offset="1" />
    </linearGradient>
    <radialGradient
       id="radialGradient2885"
       gradientUnits="userSpaceOnUse"
       cx="69.447998"
       cy="51.695"
       r="31"
       gradientTransform="matrix(0,0.67924,-0.73892,0,72.903,-19.49)">
      <stop
         id="stop3244-5"
         style="stop-color:#eef87e"
         offset="0" />
      <stop
         id="stop3246-9"
         style="stop-color:#cde34f"
         offset=".26238" />
      <stop
         id="stop3248-7"
         style="stop-color:#93b723"
         offset=".66094" />
      <stop
         id="stop3250-8"
         style="stop-color:#5a7e0d"
         offset="1" />
    </radialGradient>
    <linearGradient
       id="linearGradient2887"
       y2="52.808998"
       gradientUnits="userSpaceOnUse"
       y1="123.19"
       gradientTransform="matrix(0.28214,0,0,0.28445,12.171,9.9582)"
       x2="72.421997"
       x1="72.421997">
      <stop
         id="stop2492-3"
         style="stop-color:#365f0e"
         offset="0" />
      <stop
         id="stop2494-8"
         style="stop-color:#84a718"
         offset="1" />
    </linearGradient>
    <linearGradient
       inkscape:collect="always"
       xlink:href="#linearGradient5530"
       id="linearGradient3020"
       gradientUnits="userSpaceOnUse"
       gradientTransform="matrix(0.59882,0,0,0.5952,-29.886525,43.388492)"
       x1="22.368999"
       y1="8.0323"
       x2="22.368999"
       y2="38.273998" />
    <linearGradient
       inkscape:collect="always"
       xlink:href="#linearGradient3619"
       id="linearGradient3028"
       gradientUnits="userSpaceOnUse"
       gradientTransform="translate(-65.359083,-18.579327)"
       x1="11.566"
       y1="22.292"
       x2="15.215"
       y2="33.955002" />
    <linearGradient
       inkscape:collect="always"
       xlink:href="#linearGradient3648"
       id="linearGradient3031"
       gradientUnits="userSpaceOnUse"
       x1="29.646999"
       y1="2"
       x2="29.646999"
       y2="43.444"
       gradientTransform="translate(-68.338983,-15.457627)" />
    <radialGradient
       inkscape:collect="always"
       xlink:href="#radialGradient3690"
       id="radialGradient3041"
       gradientUnits="userSpaceOnUse"
       gradientTransform="matrix(2.1647,0,0,0.84706,-179.89898,19.624373)"
       cx="62.625"
       cy="4.625"
       r="10.625" />
  </defs>
  <metadata
     id="metadata3697">
    <rdf:RDF>
      <cc:Work
         rdf:about="">
        <dc:format>image/svg+xml</dc:format>
        <dc:type
           rdf:resource="http://purl.org/dc/dcmitype/StillImage" />
        <dc:title></dc:title>
      </cc:Work>
    </rdf:RDF>
  </metadata>
  <path
     style="font-size:medium;font-style:normal;font-variant:normal;font-weight:normal;font-stretch:normal;text-indent:0;text-align:start;text-decoration:none;line-height:normal;letter-spacing:normal;word-spacing:normal;text-transform:none;direction:ltr;block-progression:tb;writing-mode:lr-tb;text-anchor:start;baseline-shift:baseline;opacity:0.8;color:#000000;fill:none;stroke:#000000;stroke-width:2.25000048;stroke-opacity:1;marker:none;visibility:visible;display:inline;overflow:visible;enable-background:accumulate;font-family:Sans;-inkscape-font-specification:Sans"
     d="m 16.000007,2.8749959 c -0.03648,0.00527 -0.07268,0.012487 -0.108387,0.021587 -0.128131,0.012857 -0.253799,0.049663 -0.368517,0.1079339 -0.0073,0.00709 -0.01456,0.014286 -0.02167,0.021587 -0.336765,0.1348362 -0.53691,0.3329344 -0.693679,0.5180824 -0.225188,0.2659536 -0.437689,0.5752768 -0.650323,0.9282312 -0.425268,0.7059083 -0.871786,1.6027365 -1.322325,2.5040649 -0.450539,0.9013299 -0.894654,1.8077546 -1.257292,2.5040652 -0.18132,0.3481553 -0.354468,0.6419899 -0.476905,0.8418839 -0.03733,0.06094 -0.0739,0.08922 -0.108387,0.129521 -0.04964,0.01889 -0.09004,0.02885 -0.151743,0.04318 -0.230617,0.05354 -0.562906,0.131233 -0.9538078,0.194281 -0.781806,0.126094 -1.790883,0.243113 -2.796397,0.388562 -1.0055128,0.145448 -1.9872046,0.314577 -2.7963913,0.496495 -0.4045934,0.09096 -0.7594503,0.172793 -1.083873,0.302215 -0.1622112,0.06471 -0.3274324,0.140014 -0.4985814,0.259042 -0.1711491,0.119027 -0.3944828,0.286089 -0.5202591,0.66919 -0.1258363,0.383261 -0.046558,0.66643 0.021677,0.863469 0.068236,0.19704 0.1453568,0.349395 0.238452,0.496496 0.1861906,0.294204 0.420192,0.576025 0.6936787,0.885057 0.5469733,0.618066 1.2672152,1.32674 1.9943261,2.029157 0.7271111,0.702416 1.4586185,1.386291 2.0160037,1.942809 0.278693,0.278258 0.517552,0.53525 0.672001,0.712363 0.04561,0.0523 0.05815,0.08496 0.08671,0.129521 0.0025,0.05122 0.0052,0.08845 0,0.151107 -0.0197,0.232725 -0.04824,0.562761 -0.108388,0.949818 -0.120291,0.774114 -0.305948,1.771957 -0.476904,2.763105 -0.170955,0.99115 -0.3365614,1.987687 -0.4118711,2.806281 -0.03765,0.409297 -0.06762,0.754039 -0.043358,1.100925 0.012135,0.173443 0.04641,0.362054 0.1083878,0.561255 0.06198,0.199201 0.1503293,0.456347 0.4769043,0.690777 0.326378,0.234761 0.615361,0.240701 0.823743,0.237455 0.208383,-0.0032 0.372367,-0.02278 0.541937,-0.06476 0.339139,-0.08395 0.680821,-0.226822 1.062195,-0.388563 0.7627478,-0.32348 1.6797308,-0.763348 2.5796178,-1.230445 0.899887,-0.467098 1.78559,-0.964253 2.492907,-1.316793 0.353659,-0.17627 0.670505,-0.319442 0.888776,-0.410148 0.06275,-0.02608 0.100477,-0.03045 0.151742,-0.04318 0.05129,0.01272 0.089,0.0171 0.151743,0.04318 0.218242,0.09071 0.535137,0.233876 0.888775,0.410148 0.707278,0.352543 1.59301,0.849694 2.492908,1.316793 0.899898,0.467099 1.816807,0.906962 2.579617,1.230445 0.381405,0.161742 0.723025,0.304614 1.062196,0.388563 0.169586,0.04197 0.333568,0.06151 0.541936,0.06476 0.208369,0.0032 0.497412,-0.0029 0.823744,-0.237455 0.326301,-0.234573 0.414992,-0.491623 0.476904,-0.690777 0.06191,-0.199154 0.09627,-0.387811 0.108387,-0.561255 0.02423,-0.346889 -0.0057,-0.691595 -0.04336,-1.100925 -0.07534,-0.818664 -0.24092,-1.815092 -0.411873,-2.806281 -0.170952,-0.991188 -0.35664,-1.989003 -0.476904,-2.763105 -0.06013,-0.387051 -0.0887,-0.717124 -0.108387,-0.949818 -0.0053,-0.06265 -0.0025,-0.09987 0,-0.151107 0.02857,-0.04459 0.0411,-0.07723 0.08671,-0.129521 0.154443,-0.177083 0.393302,-0.434123 0.672002,-0.712363 0.5574,-0.556478 1.288861,-1.240385 2.016003,-1.942809 0.727142,-0.702426 1.447329,-1.411017 1.994326,-2.029157 0.273498,-0.30907 0.507486,-0.590779 0.693679,-0.885057 0.0931,-0.147138 0.170237,-0.299409 0.238452,-0.496496 0.06822,-0.197086 0.1475,-0.480334 0.02167,-0.863469 -0.125754,-0.383224 -0.349089,-0.550171 -0.520251,-0.66919 -0.171163,-0.11902 -0.336374,-0.194347 -0.498582,-0.259042 -0.324415,-0.129389 -0.679283,-0.211283 -1.083872,-0.302215 -0.80918,-0.181864 -1.790873,-0.351072 -2.796393,-0.496495 -1.005519,-0.145424 -2.014626,-0.262437 -2.796392,-0.388562 -0.390883,-0.06306 -0.723255,-0.140716 -0.953808,-0.194281 -0.06169,-0.01434 -0.102085,-0.02426 -0.151742,-0.04318 -0.03449,-0.0403 -0.07106,-0.06857 -0.108387,-0.129521 C 20.77667,10.122538 20.603528,9.828683 20.422204,9.480548 20.059554,8.7842786 19.615476,7.8777437 19.164911,6.9764828 18.714346,6.0752219 18.267867,5.1782667 17.842586,4.4724174 17.629951,4.1194918 17.41745,3.8101138 17.192267,3.5441856 16.967086,3.2782575 16.802024,2.8749959 16.000007,2.8749959 z"
     id="path1307"
     inkscape:connector-curvature="0"
     sodipodi:nodetypes="ccccssssscsssssscsssssscsssssscscssssccssscscsssssscsssssscssssscccssssc" />
</svg>
