<?xml version="1.0" encoding="UTF-8" standalone="no"?>
<!-- Created with Inkscape (http://www.inkscape.org/) -->

<svg
   xmlns:dc="http://purl.org/dc/elements/1.1/"
   xmlns:cc="http://creativecommons.org/ns#"
   xmlns:rdf="http://www.w3.org/1999/02/22-rdf-syntax-ns#"
   xmlns:svg="http://www.w3.org/2000/svg"
   xmlns="http://www.w3.org/2000/svg"
   xmlns:xlink="http://www.w3.org/1999/xlink"
   xmlns:sodipodi="http://sodipodi.sourceforge.net/DTD/sodipodi-0.dtd"
   xmlns:inkscape="http://www.inkscape.org/namespaces/inkscape"
   version="1.1"
   width="16"
   height="16"
   id="svg3123"
   inkscape:version="0.48.4 r9939"
   sodipodi:docname="appointment-new.svg">
  <metadata
     id="metadata58">
    <rdf:RDF>
      <cc:Work
         rdf:about="">
        <dc:format>image/svg+xml</dc:format>
        <dc:type
           rdf:resource="http://purl.org/dc/dcmitype/StillImage" />
        <dc:title></dc:title>
      </cc:Work>
    </rdf:RDF>
  </metadata>
  <sodipodi:namedview
     pagecolor="#ffffff"
     bordercolor="#666666"
     borderopacity="1"
     objecttolerance="10"
     gridtolerance="10"
     guidetolerance="10"
     inkscape:pageopacity="0"
     inkscape:pageshadow="2"
     inkscape:window-width="1366"
     inkscape:window-height="709"
     id="namedview56"
     showgrid="true"
     showguides="true"
     inkscape:guide-bbox="true"
     inkscape:zoom="19.869122"
     inkscape:cx="2.6554842"
     inkscape:cy="11.264586"
     inkscape:window-x="0"
     inkscape:window-y="27"
     inkscape:window-maximized="1"
     inkscape:current-layer="svg3123">
    <inkscape:grid
       type="xygrid"
       id="grid3805"
       empspacing="5"
       visible="true"
       enabled="true"
       snapvisiblegridlinesonly="true" />
  </sodipodi:namedview>
  <defs
     id="defs3125">
    <linearGradient
       id="linearGradient8838-795">
      <stop
         id="stop2737"
         style="stop-color:black;stop-opacity:1"
         offset="0" />
      <stop
         id="stop2739"
         style="stop-color:black;stop-opacity:0"
         offset="1" />
    </linearGradient>
    <radialGradient
       cx="62.625"
       cy="4.625"
       r="10.625"
       fx="62.625"
       fy="4.625"
       id="radialGradient3546"
       xlink:href="#linearGradient8838-795"
       gradientUnits="userSpaceOnUse"
       gradientTransform="matrix(1,0,0,0.341176,0,3.047059)" />
    <linearGradient
       id="linearGradient37935">
      <stop
         id="stop37937"
         style="stop-color:#7c7c7c;stop-opacity:1"
         offset="0" />
      <stop
         id="stop37939"
         style="stop-color:#242424;stop-opacity:1"
         offset="1" />
    </linearGradient>
    <linearGradient
       x1="15.655657"
       y1="13.360059"
       x2="15.655657"
       y2="44.785629"
       id="linearGradient3571"
       xlink:href="#linearGradient37935"
       gradientUnits="userSpaceOnUse"
       gradientTransform="translate(0.749992,5e-8)" />
    <linearGradient
       id="linearGradient4873-625-158-888-767">
      <stop
         id="stop4258"
         style="stop-color:white;stop-opacity:1"
         offset="0" />
      <stop
         id="stop4260"
         style="stop-color:white;stop-opacity:0"
         offset="1" />
    </linearGradient>
    <linearGradient
       x1="63.397362"
       y1="-9.3832779"
       x2="63.397362"
       y2="7.4434662"
       id="linearGradient3568"
       xlink:href="#linearGradient4873-625-158-888-767"
       gradientUnits="userSpaceOnUse"
       gradientTransform="matrix(2.149872,0,0,2.149872,-109.36554,31.935343)" />
    <linearGradient
       id="linearGradient42174">
      <stop
         id="stop42176"
         style="stop-color:#a0a0a0;stop-opacity:1"
         offset="0" />
      <stop
         id="stop42178"
         style="stop-color:white;stop-opacity:1"
         offset="1" />
    </linearGradient>
    <linearGradient
       x1="6.342216"
       y1="7.7893324"
       x2="22.218424"
       y2="25.884274"
       id="linearGradient3565"
       xlink:href="#linearGradient42174"
       gradientUnits="userSpaceOnUse" />
    <linearGradient
       id="linearGradient2145">
      <stop
         id="stop2147"
         style="stop-color:#fffffd;stop-opacity:1"
         offset="0" />
      <stop
         id="stop2149"
         style="stop-color:#cbcbc9;stop-opacity:1"
         offset="1" />
    </linearGradient>
    <radialGradient
       cx="11.901996"
       cy="10.045444"
       r="29.292715"
       fx="11.901996"
       fy="10.045444"
       id="radialGradient3563"
       xlink:href="#linearGradient2145"
       gradientUnits="userSpaceOnUse" />
    <linearGradient
       id="linearGradient7101">
      <stop
         id="stop7103"
         style="stop-color:black;stop-opacity:1"
         offset="0" />
      <stop
         id="stop7105"
         style="stop-color:black;stop-opacity:0"
         offset="1" />
    </linearGradient>
    <linearGradient
       x1="79.25"
       y1="15.75"
       x2="83.625"
       y2="14.78125"
       id="linearGradient3566"
       xlink:href="#linearGradient7101"
       gradientUnits="userSpaceOnUse" />
    <linearGradient
       id="linearGradient3747">
      <stop
         id="stop3749"
         style="stop-color:#494949;stop-opacity:1"
         offset="0" />
      <stop
         id="stop3751"
         style="stop-color:#888a85;stop-opacity:0"
         offset="1" />
    </linearGradient>
    <linearGradient
       x1="78.3125"
       y1="12.3125"
       x2="83.203491"
       y2="12.09283"
       id="linearGradient3554"
       xlink:href="#linearGradient3747"
       gradientUnits="userSpaceOnUse"
       gradientTransform="matrix(1.6399715,0,0,1.7710483,-112.55969,-11.636734)" />
    <linearGradient
       id="linearGradient7089">
      <stop
         id="stop7091"
         style="stop-color:#eeeeec;stop-opacity:1"
         offset="0" />
      <stop
         id="stop7093"
         style="stop-color:#eeeeec;stop-opacity:0"
         offset="1" />
    </linearGradient>
    <linearGradient
       x1="80.625"
       y1="14.0625"
       x2="83.21875"
       y2="13.875"
       id="linearGradient3552"
       xlink:href="#linearGradient7089"
       gradientUnits="userSpaceOnUse"
       gradientTransform="matrix(1.6399715,0,0,1.7710483,-112.55969,-11.636734)" />
    <linearGradient
       id="linearGradient7065">
      <stop
         id="stop7067"
         style="stop-color:white;stop-opacity:1"
         offset="0" />
      <stop
         id="stop7069"
         style="stop-color:white;stop-opacity:0"
         offset="1" />
    </linearGradient>
    <linearGradient
       x1="78.5"
       y1="16.40625"
       x2="83.03125"
       y2="16.4375"
       id="linearGradient3549"
       xlink:href="#linearGradient7065"
       gradientUnits="userSpaceOnUse"
       gradientTransform="matrix(1.6399715,0,0,1.7710483,-112.55969,-11.636734)" />
  </defs>
  <path
     style="opacity:0.8;fill:#000000;fill-opacity:1;stroke:none"
     d="M 8,0 C 3.581722,0 0,3.5817221 0,8 c 0,4.418278 3.581722,8 8,8 1.059696,0 2.074425,-0.219548 3,-0.59375 L 11,15 9,15 9,12.90625 C 8.674512,12.972854 8.345178,13 8,13 5.238577,13 3,10.761424 3,8 3,5.2385771 5.238577,3 8,3 c 2.761424,0 5,2.2385771 5,5 0,0.345178 -0.02715,0.674512 -0.09375,1 L 15,9 l 0,2 0.40625,0 C 15.780452,10.074425 16,9.059696 16,8 16,3.5817221 12.418278,0 8,0 z M 7.90625,3.96875 C 7.86397,3.9764663 7.822187,3.9869119 7.78125,4 7.334096,4.1001409 6.98897,4.5419023 7,5 L 7,7.6875 C 6.9985,7.71873 6.9985,7.75002 7,7.78125 6.94205,8.034696 6.98798,8.310299 7.125,8.53125 7.13518,8.5419 7.1456,8.55232 7.15625,8.5625 7.16595,8.58369 7.17636,8.60454 7.1875,8.625 7.19768,8.63565 7.2081,8.64607 7.21875,8.65625 7.22893,8.6669 7.23935,8.67732 7.25,8.6875 7.26018,8.69815 7.2706,8.70857 7.28125,8.71875 7.29143,8.7294 7.30185,8.73982 7.3125,8.75 7.33296,8.76114 7.35381,8.77157 7.375,8.78125 7.38518,8.7919 7.3956,8.80232 7.40625,8.8125 7.41643,8.82315 7.42685,8.83357 7.4375,8.84375 7.45796,8.85489 7.47881,8.86532 7.5,8.875 7.54014,8.89871 7.58194,8.91961 7.625,8.9375 L 9,9.75 C 9.458149,10.011799 10.1132,9.83315 10.375,9.375 10.636799,8.916851 10.45815,8.261799 10,8 L 9,7.40625 9,5 C 9.020185,4.433363 8.470721,3.9152967 7.90625,3.96875 z M 12,10 l 0,2 -2,0 0,2 2,0 0,2 2,0 0,-2 2,0 0,-2 -2,0 0,-2 -2,0 z"
     id="path3023"
     inkscape:connector-curvature="0" />
</svg>
