<?xml version="1.0" encoding="UTF-8" standalone="no"?>
<!-- Created with Inkscape (http://www.inkscape.org/) -->

<svg
   xmlns:dc="http://purl.org/dc/elements/1.1/"
   xmlns:cc="http://creativecommons.org/ns#"
   xmlns:rdf="http://www.w3.org/1999/02/22-rdf-syntax-ns#"
   xmlns:svg="http://www.w3.org/2000/svg"
   xmlns="http://www.w3.org/2000/svg"
   xmlns:xlink="http://www.w3.org/1999/xlink"
   xmlns:sodipodi="http://sodipodi.sourceforge.net/DTD/sodipodi-0.dtd"
   xmlns:inkscape="http://www.inkscape.org/namespaces/inkscape"
   id="svg3692"
   height="16"
   width="16"
   version="1.1"
   inkscape:version="0.48.3.1 r9886"
   sodipodi:docname="bookmark-new.svg">
  <sodipodi:namedview
     pagecolor="#ffffff"
     bordercolor="#666666"
     borderopacity="1"
     objecttolerance="10"
     gridtolerance="10"
     guidetolerance="10"
     inkscape:pageopacity="0"
     inkscape:pageshadow="2"
     inkscape:window-width="1366"
     inkscape:window-height="719"
     id="namedview42"
     showgrid="true"
     inkscape:zoom="39.738244"
     inkscape:cx="8.8161494"
     inkscape:cy="12.655966"
     inkscape:window-x="0"
     inkscape:window-y="27"
     inkscape:window-maximized="1"
     inkscape:current-layer="svg3692">
    <inkscape:grid
       type="xygrid"
       id="grid3811"
       empspacing="5"
       visible="true"
       enabled="true"
       snapvisiblegridlinesonly="true" />
  </sodipodi:namedview>
  <defs
     id="defs3694">
    <linearGradient
       id="linearGradient3619"
       y2="33.955002"
       gradientUnits="userSpaceOnUse"
       x2="15.215"
       gradientTransform="translate(2.9799,-3.1217)"
       y1="22.292"
       x1="11.566">
      <stop
         id="stop2687"
         style="stop-color:#fff;stop-opacity:.27451"
         offset="0" />
      <stop
         id="stop2689"
         style="stop-color:#fff;stop-opacity:0"
         offset="1" />
    </linearGradient>
    <linearGradient
       id="linearGradient3648"
       y2="43.444"
       gradientUnits="userSpaceOnUse"
       x2="29.646999"
       y1="2"
       x1="29.646999">
      <stop
         id="stop3644"
         style="stop-color:#fff"
         offset="0" />
      <stop
         id="stop3646"
         style="stop-color:#fff;stop-opacity:0"
         offset="1" />
    </linearGradient>
    <radialGradient
       id="radialGradient3627"
       gradientUnits="userSpaceOnUse"
       cy="25.625"
       cx="13.139"
       gradientTransform="matrix(0,2.6541,-3.1628,0,97.183,-26.676)"
       r="13.931">
      <stop
         id="stop3692"
         style="stop-color:#ffeb9f"
         offset="0" />
      <stop
         id="stop3694"
         style="stop-color:#ffd57e"
         offset=".26238" />
      <stop
         id="stop3696"
         style="stop-color:#ffbc43"
         offset=".66094" />
      <stop
         id="stop3698"
         style="stop-color:#ff921a"
         offset="1" />
    </radialGradient>
    <linearGradient
       id="linearGradient3629"
       y2="9.5799999"
       gradientUnits="userSpaceOnUse"
       x2="21.483"
       gradientTransform="matrix(1.6509,0,0,1.6568,-11.466,-15.046)"
       y1="36.255001"
       x1="21.483">
      <stop
         id="stop3605"
         style="stop-color:#a7651c"
         offset="0" />
      <stop
         id="stop3607"
         style="stop-color:#c8a700"
         offset="1" />
    </linearGradient>
    <radialGradient
       id="radialGradient3690"
       gradientUnits="userSpaceOnUse"
       cx="62.625"
       cy="4.625"
       r="10.625"
       gradientTransform="matrix(2.1647,0,0,0.84706,-111.56,35.082)">
      <stop
         id="stop8840"
         offset="0" />
      <stop
         id="stop8842"
         style="stop-opacity:0"
         offset="1" />
    </radialGradient>
    <linearGradient
       id="linearGradient5530"
       y2="38.273998"
       gradientUnits="userSpaceOnUse"
       x2="22.368999"
       gradientTransform="matrix(0.59882,0,0,0.5952,23.605,21.219)"
       y1="8.0323"
       x1="22.368999">
      <stop
         id="stop3945"
         style="stop-color:#fff"
         offset="0" />
      <stop
         id="stop3947"
         style="stop-color:#fff;stop-opacity:0"
         offset="1" />
    </linearGradient>
    <radialGradient
       id="radialGradient2885"
       gradientUnits="userSpaceOnUse"
       cx="69.447998"
       cy="51.695"
       r="31"
       gradientTransform="matrix(0,0.67924,-0.73892,0,72.903,-19.49)">
      <stop
         id="stop3244-5"
         style="stop-color:#eef87e"
         offset="0" />
      <stop
         id="stop3246-9"
         style="stop-color:#cde34f"
         offset=".26238" />
      <stop
         id="stop3248-7"
         style="stop-color:#93b723"
         offset=".66094" />
      <stop
         id="stop3250-8"
         style="stop-color:#5a7e0d"
         offset="1" />
    </radialGradient>
    <linearGradient
       id="linearGradient2887"
       y2="52.808998"
       gradientUnits="userSpaceOnUse"
       y1="123.19"
       gradientTransform="matrix(0.28214,0,0,0.28445,12.171,9.9582)"
       x2="72.421997"
       x1="72.421997">
      <stop
         id="stop2492-3"
         style="stop-color:#365f0e"
         offset="0" />
      <stop
         id="stop2494-8"
         style="stop-color:#84a718"
         offset="1" />
    </linearGradient>
    <linearGradient
       inkscape:collect="always"
       xlink:href="#linearGradient5530"
       id="linearGradient3020"
       gradientUnits="userSpaceOnUse"
       gradientTransform="matrix(0.59882,0,0,0.5952,-29.886525,43.388492)"
       x1="22.368999"
       y1="8.0323"
       x2="22.368999"
       y2="38.273998" />
    <linearGradient
       inkscape:collect="always"
       xlink:href="#linearGradient3619"
       id="linearGradient3028"
       gradientUnits="userSpaceOnUse"
       gradientTransform="translate(-65.359083,-18.579327)"
       x1="11.566"
       y1="22.292"
       x2="15.215"
       y2="33.955002" />
    <linearGradient
       inkscape:collect="always"
       xlink:href="#linearGradient3648"
       id="linearGradient3031"
       gradientUnits="userSpaceOnUse"
       x1="29.646999"
       y1="2"
       x2="29.646999"
       y2="43.444"
       gradientTransform="translate(-68.338983,-15.457627)" />
    <radialGradient
       inkscape:collect="always"
       xlink:href="#radialGradient3690"
       id="radialGradient3041"
       gradientUnits="userSpaceOnUse"
       gradientTransform="matrix(2.1647,0,0,0.84706,-179.89898,19.624373)"
       cx="62.625"
       cy="4.625"
       r="10.625" />
  </defs>
  <metadata
     id="metadata3697">
    <rdf:RDF>
      <cc:Work
         rdf:about="">
        <dc:format>image/svg+xml</dc:format>
        <dc:type
           rdf:resource="http://purl.org/dc/dcmitype/StillImage" />
        <dc:title></dc:title>
      </cc:Work>
    </rdf:RDF>
  </metadata>
  <path
     style="font-size:medium;font-style:normal;font-variant:normal;font-weight:normal;font-stretch:normal;text-indent:0;text-align:start;text-decoration:none;line-height:normal;letter-spacing:normal;word-spacing:normal;text-transform:none;direction:ltr;block-progression:tb;writing-mode:lr-tb;text-anchor:start;baseline-shift:baseline;opacity:0.8;color:#000000;fill:#000000;fill-opacity:1;fill-rule:nonzero;stroke:none;stroke-width:3;marker:none;visibility:visible;display:inline;overflow:visible;enable-background:accumulate;font-family:Sans;-inkscape-font-specification:Sans"
     d="m 8.0000066,-0.00264137 c -0.021032,0.003039995 -0.041904,0.00723 -0.062496,0.0125 -0.07388,0.00745 -0.1463344,0.028755 -0.2124776,0.062498 -0.00424,0.0041 -0.00839,0.00827 -0.012496,0.0125 C 7.518368,0.16293363 7.4029688,0.27764145 7.3125791,0.384851 7.1827417,0.53885105 7.0602185,0.71796386 6.9376185,0.92234102 6.6924184,1.3310956 6.4349671,1.8504019 6.1751965,2.3723142 5.9154263,2.8942271 5.6593601,3.4190903 5.450271,3.8222877 5.3457264,4.0238864 5.2458933,4.1940304 5.1752992,4.3097787 c -0.02152,0.035287 -0.042608,0.051664 -0.062494,0.074998 -0.028624,0.010935 -0.051914,0.016704 -0.087491,0.024999 C 4.892346,4.440782 4.7007555,4.4857672 4.4753714,4.5222747 4.0246001,4.5952898 3.4427898,4.6630497 2.8630341,4.7472715 2.2832784,4.8314927 1.7172579,4.9294258 1.2506997,5.0347661 1.0174206,5.0874372 0.81281841,5.1348208 0.62576391,5.2097627 c -0.0935272,0.037471 -0.1887899,0.081075 -0.2874705,0.1499973 -0.0986805,0.068923 -0.2274495,0.1656602 -0.2999692,0.3874932 -0.0725544,0.2219273 -0.026844,0.3858963 0.012498,0.4999914 0.039343,0.1140967 0.083809,0.2023178 0.1374859,0.2874971 0.107353,0.1703584 0.2422728,0.3335451 0.3999589,0.5124917 0.315372,0.3578899 0.73064669,0.768246 1.14988189,1.174979 0.4192352,0.4067329 0.8410051,0.802729 1.1623806,1.1249795 0.1606879,0.1611257 0.2984089,0.3099343 0.38746,0.4124901 0.026298,0.03029 0.03353,0.04919 0.049994,0.075 0.0015,0.02966 0.00304,0.05122 0,0.087501 -0.01136,0.134758 -0.027814,0.325864 -0.062494,0.549989 -0.069358,0.448248 -0.1764025,1.026048 -0.2749717,1.59997 -0.098569,0.573923 -0.1940536,1.150966 -0.2374755,1.624971 -0.02171,0.237003 -0.038988,0.436625 -0.024998,0.637488 0.00699,0.100431 0.026758,0.209647 0.062494,0.324994 0.035737,0.115347 0.086676,0.264246 0.2749717,0.399993 0.1881826,0.135937 0.3548029,0.139377 0.4749511,0.137497 0.1201484,-0.0019 0.2146983,-0.01319 0.3124679,-0.0375 0.1955397,-0.04861 0.3925457,-0.131342 0.6124375,-0.224997 0.439782,-0.187311 0.9684931,-0.442015 1.4873471,-0.712487 0.5188539,-0.270472 1.0295301,-0.558348 1.4373516,-0.762486 0.203912,-0.102069 0.3865969,-0.184972 0.5124473,-0.237495 0.036184,-0.0151 0.057936,-0.01763 0.087491,-0.025 0.029576,0.0074 0.051312,0.0099 0.08749,0.025 0.1258336,0.05253 0.3085481,0.135425 0.5124482,0.237495 0.4077992,0.204138 0.9184912,0.492013 1.4373523,0.762485 0.51886,0.270474 1.047529,0.525174 1.487347,0.712487 0.219909,0.09366 0.416879,0.176386 0.612437,0.224997 0.09778,0.0243 0.192327,0.03562 0.312468,0.0375 0.120141,0.0019 0.286796,-0.0017 0.474952,-0.137497 0.188137,-0.135829 0.239274,-0.284673 0.274972,-0.399993 0.0357,-0.11532 0.0555,-0.224561 0.0625,-0.324994 0.01398,-0.200864 -0.0033,-0.400466 -0.025,-0.637488 -0.04343,-0.474045 -0.138909,-1.051025 -0.237476,-1.624971 -0.09857,-0.573945 -0.205631,-1.151727 -0.274973,-1.599969 -0.03467,-0.224121 -0.05114,-0.415248 -0.0625,-0.549989 -0.003,-0.03627 -0.0015,-0.057831 0,-0.087501 0.01647,-0.02582 0.0237,-0.04472 0.04999,-0.075 0.08905,-0.1025378 0.226769,-0.2513756 0.387461,-0.4124901 0.321384,-0.3222281 0.743127,-0.718241 1.162381,-1.1249795 0.419253,-0.4067378 0.834496,-0.8170459 1.149882,-1.174979 0.157692,-0.1789674 0.292604,-0.3420909 0.399958,-0.5124917 0.05368,-0.085201 0.09815,-0.1733732 0.137486,-0.2874971 0.03934,-0.1141223 0.08505,-0.2781369 0.0125,-0.4999914 C 15.889177,5.5253484 15.760408,5.4286779 15.66172,5.35976 15.563032,5.2908421 15.467774,5.2472239 15.374249,5.2097627 15.187199,5.1348413 14.98259,5.0874204 14.749313,5.0347665 14.282759,4.9294587 13.716738,4.831479 13.136979,4.747272 12.557219,4.6630643 11.975392,4.595308 11.524645,4.5222756 11.29927,4.4857605 11.107633,4.4407946 10.974701,4.4097775 c -0.03557,-0.0083 -0.05886,-0.014048 -0.08749,-0.024999 -0.01988,-0.023335 -0.04097,-0.039707 -0.0625,-0.074998 C 10.754121,4.1940308 10.654292,4.0238746 10.549744,3.822288 10.340649,3.4191146 10.084604,2.8941874 9.8248188,2.3723146 9.5650338,1.850442 9.3076038,1.3310618 9.0623978,0.92234142 8.9397941,0.71798126 8.81727,0.53883657 8.6874356,0.38485156 8.5576011,0.23086639 8.4624307,-0.00264137 8.0000066,-0.00264137 z M 7.400068,5.2222628 l 1.1998764,0 c 0.3141185,3.2e-5 0.5999074,0.2858441 0.5999384,0.599989 l 0,1.3999794 1.3998572,0 c 0.314118,3.12e-5 0.599906,0.2858433 0.599938,0.599989 l 0,1.1999772 c -3.2e-5,0.3141457 -0.28582,0.5999574 -0.599938,0.5999894 l -1.3998572,0 0,1.3999692 c -3.1e-5,0.314145 -0.2858199,0.599958 -0.5999384,0.599989 l -1.1998764,0 C 7.0859497,11.622114 6.8001616,11.336301 6.8001304,11.022156 l 0,-1.3999692 -1.3998567,0 C 5.0861552,9.6221548 4.8003667,9.3363431 4.8003353,9.0221974 l 0,-1.1999772 c 3.14e-5,-0.3141457 0.2858199,-0.5999578 0.5999384,-0.599989 l 1.3998567,0 0,-1.3999794 c 3.12e-5,-0.3141449 0.2858193,-0.599957 0.5999376,-0.599989 z"
     id="path1307"
     inkscape:connector-curvature="0" />
</svg>
