<?xml version="1.0" encoding="UTF-8" standalone="no"?>
<!-- Created with Inkscape (http://www.inkscape.org/) -->

<svg
   xmlns:dc="http://purl.org/dc/elements/1.1/"
   xmlns:cc="http://creativecommons.org/ns#"
   xmlns:rdf="http://www.w3.org/1999/02/22-rdf-syntax-ns#"
   xmlns:svg="http://www.w3.org/2000/svg"
   xmlns="http://www.w3.org/2000/svg"
   xmlns:xlink="http://www.w3.org/1999/xlink"
   xmlns:sodipodi="http://sodipodi.sourceforge.net/DTD/sodipodi-0.dtd"
   xmlns:inkscape="http://www.inkscape.org/namespaces/inkscape"
   id="svg2"
   height="16"
   width="16"
   version="1.0"
   inkscape:version="0.48.4 r9939"
   sodipodi:docname="mail-read.svg">
  <metadata
     id="metadata45">
    <rdf:RDF>
      <cc:Work
         rdf:about="">
        <dc:format>image/svg+xml</dc:format>
        <dc:type
           rdf:resource="http://purl.org/dc/dcmitype/StillImage" />
        <dc:title />
      </cc:Work>
    </rdf:RDF>
  </metadata>
  <sodipodi:namedview
     pagecolor="#ffffff"
     bordercolor="#666666"
     borderopacity="1"
     objecttolerance="10"
     gridtolerance="10"
     guidetolerance="10"
     inkscape:pageopacity="0"
     inkscape:pageshadow="2"
     inkscape:window-width="1366"
     inkscape:window-height="709"
     id="namedview43"
     showgrid="true"
     inkscape:zoom="19.666667"
     inkscape:cx="16.449747"
     inkscape:cy="10.390649"
     inkscape:window-x="0"
     inkscape:window-y="27"
     inkscape:window-maximized="1"
     inkscape:current-layer="svg2">
    <inkscape:grid
       type="xygrid"
       id="grid3031"
       empspacing="5"
       visible="true"
       enabled="true"
       snapvisiblegridlinesonly="true" />
  </sodipodi:namedview>
  <defs
     id="defs4">
    <radialGradient
       id="radialGradient10239"
       xlink:href="#linearGradient5060"
       gradientUnits="userSpaceOnUse"
       cy="486.64999"
       cx="605.71002"
       gradientTransform="matrix(-2.7744,0,0,1.9697,112.76,-872.89)"
       r="117.14" />
    <linearGradient
       id="linearGradient5060">
      <stop
         id="stop5062"
         offset="0" />
      <stop
         id="stop5064"
         style="stop-opacity:0"
         offset="1" />
    </linearGradient>
    <radialGradient
       id="radialGradient10237"
       xlink:href="#linearGradient5060"
       gradientUnits="userSpaceOnUse"
       cy="486.64999"
       cx="605.71002"
       gradientTransform="matrix(3.7731,0,0,1.9697,-2496.6,-872.89)"
       r="117.14" />
    <linearGradient
       id="linearGradient10235"
       y2="609.51001"
       gradientUnits="userSpaceOnUse"
       x2="302.85999"
       gradientTransform="matrix(2.7744,0,0,1.9697,-1892.2,-872.89)"
       y1="366.64999"
       x1="302.85999">
      <stop
         id="stop5050"
         style="stop-opacity:0"
         offset="0" />
      <stop
         id="stop5056"
         offset=".5" />
      <stop
         id="stop5052"
         style="stop-opacity:0"
         offset="1" />
    </linearGradient>
    <linearGradient
       id="linearGradient3629"
       y2="18.462"
       gradientUnits="userSpaceOnUse"
       x2="11.437"
       gradientTransform="matrix(0.99999,0,0,1,1.1549e-5,2)"
       y1="-0.38282001"
       x1="11.887">
      <stop
         id="stop6947"
         style="stop-color:#fff"
         offset="0" />
      <stop
         id="stop6949"
         style="stop-color:#d3d7cf"
         offset="1" />
    </linearGradient>
    <linearGradient
       id="linearGradient3743"
       y2="47.013"
       gradientUnits="userSpaceOnUse"
       x2="25.132"
       gradientTransform="matrix(0.37163,0,0,0.33178,-0.91993,-2.9837)"
       y1="6.7287002"
       x1="25.132">
      <stop
         id="stop3602-7"
         style="stop-color:#f4f4f4"
         offset="0" />
      <stop
         id="stop3604-8"
         style="stop-color:#dbdbdb"
         offset="1" />
    </linearGradient>
    <linearGradient
       id="linearGradient3745"
       y2="5.3934002"
       gradientUnits="userSpaceOnUse"
       x2="-52.183998"
       gradientTransform="matrix(0.30009,0,0,0.3105,21.159,-3.3535)"
       y1="16.540001"
       x1="-53.179001">
      <stop
         id="stop3933-4"
         style="stop-color:#8d8f8a"
         offset="0" />
      <stop
         id="stop3935-3"
         style="stop-color:#c1c1c1"
         offset="1" />
    </linearGradient>
    <linearGradient
       id="linearGradient3674"
       y2="21"
       gradientUnits="userSpaceOnUse"
       x2="12"
       y1="4"
       x1="12">
      <stop
         id="stop4498"
         style="stop-color:#fff"
         offset="0" />
      <stop
         id="stop4502"
         style="stop-color:#cfcfcf"
         offset=".87427" />
      <stop
         id="stop4504"
         style="stop-color:#999"
         offset="1" />
    </linearGradient>
    <linearGradient
       id="linearGradient3495-841-851-719">
      <stop
         id="stop4120"
         style="stop-color:#1e1e1e"
         offset="0" />
      <stop
         id="stop4122"
         style="stop-color:#1e1e1e;stop-opacity:0"
         offset="1" />
    </linearGradient>
    <linearGradient
       id="linearGradient2466"
       y2="16.007"
       xlink:href="#linearGradient3495-841-851-719"
       gradientUnits="userSpaceOnUse"
       x2="23.903999"
       gradientTransform="matrix(0.46574,0,0,0.48509,0.82234,0.53155)"
       y1="29.826"
       x1="24" />
    <linearGradient
       id="linearGradient2916"
       y2="45.530998"
       xlink:href="#linearGradient3495-841-851-719"
       gradientUnits="userSpaceOnUse"
       x2="23.929001"
       gradientTransform="matrix(0.46574,0,0,0.48509,0.82234,-2.1022)"
       y1="30.773001"
       x1="23.929001" />
  </defs>
  <path
     style="font-size:medium;font-style:normal;font-variant:normal;font-weight:normal;font-stretch:normal;text-indent:0;text-align:start;text-decoration:none;line-height:normal;letter-spacing:normal;word-spacing:normal;text-transform:none;direction:ltr;block-progression:tb;writing-mode:lr-tb;text-anchor:start;baseline-shift:baseline;opacity:0.4;color:#000000;fill:#555555#2d2d2d#bada55;fill-opacity:1;stroke:none;stroke-width:3;marker:none;visibility:visible;display:inline;overflow:visible;enable-background:accumulate;font-family:Sans;-inkscape-font-specification:Sans"
     d="M 8.011615,2 C 7.800805,2 7.589828,2.02352 7.386615,2.03125 4.905091,2.125589 2.9976901,2.7413369 1.667865,3.40625 0.22913989,4.1256129 -0.61338497,4.9375 -0.61338497,4.9375 A 1.2927268,1.2927268 0 1 0 1.199115,6.78125 c 0,0 0.3610192,-0.36008 1.15625,-0.8125 C 2.121781,6.607354 2.011615,7.284506 2.011615,8 c 0,3.297749 2.7022515,6 6,6 3.297748,0 6,-2.702251 6,-6 0,-0.715494 -0.110166,-1.392646 -0.34375,-2.03125 0.795231,0.45242 1.15625,0.8125 1.15625,0.8125 a 1.2927268,1.2927268 0 1 0 1.8125,-1.84375 c 0,0 -0.842525,-0.8118871 -2.28125,-1.53125 C 13.025539,2.7413369 11.118139,2.1255894 8.636615,2.03125 8.435604,2.0105846 8.217723,2 8.011615,2 z m 0,2.5625 c 1.9083534,0 3.4375,1.529147 3.4375,3.4375 0,1.908353 -1.5291466,3.4375 -3.4375,3.4375 -1.908354,0 -3.4375,-1.529147 -3.4375,-3.4375 0,-1.908353 1.529146,-3.4375 3.4375,-3.4375 z m 0,1.28125 c -1.167979,0 -2.15625,0.988271 -2.15625,2.15625 0,1.167979 0.988271,2.15625 2.15625,2.15625 1.1679804,0 2.15625,-0.988271 2.15625,-2.15625 0,-1.167979 -0.9882696,-2.15625 -2.15625,-2.15625 z m 0,1.71875 c 0.221415,0 0.4375,0.216085 0.4375,0.4375 0,0.221415 -0.216085,0.4375 -0.4375,0.4375 -0.221415,0 -0.4375,-0.216085 -0.4375,-0.4375 0,-0.221415 0.216085,-0.4375 0.4375,-0.4375 z"
     id="path3029"
     inkscape:connector-curvature="0" />
</svg>