<?xml version="1.0" encoding="UTF-8" standalone="no"?>
<!-- Created with Inkscape (http://www.inkscape.org/) -->

<svg
   xmlns:dc="http://purl.org/dc/elements/1.1/"
   xmlns:cc="http://creativecommons.org/ns#"
   xmlns:rdf="http://www.w3.org/1999/02/22-rdf-syntax-ns#"
   xmlns:svg="http://www.w3.org/2000/svg"
   xmlns="http://www.w3.org/2000/svg"
   xmlns:sodipodi="http://sodipodi.sourceforge.net/DTD/sodipodi-0.dtd"
   xmlns:inkscape="http://www.inkscape.org/namespaces/inkscape"
   width="16"
   height="16"
   id="svg2"
   version="1.1"
   inkscape:version="0.48.4 r9939"
   sodipodi:docname="package-downgrade.svg">
  <defs
     id="defs4" />
  <sodipodi:namedview
     id="base"
     pagecolor="#ffffff"
     bordercolor="#666666"
     borderopacity="1.0"
     inkscape:pageopacity="0.0"
     inkscape:pageshadow="2"
     inkscape:zoom="22.4"
     inkscape:cx="3.0448667"
     inkscape:cy="9.0389658"
     inkscape:document-units="px"
     inkscape:current-layer="layer1"
     showgrid="true"
     inkscape:window-width="1366"
     inkscape:window-height="709"
     inkscape:window-x="0"
     inkscape:window-y="27"
     inkscape:window-maximized="1">
    <inkscape:grid
       type="xygrid"
       id="grid2985"
       empspacing="5"
       visible="true"
       enabled="true"
       snapvisiblegridlinesonly="true" />
  </sodipodi:namedview>
  <metadata
     id="metadata7">
    <rdf:RDF>
      <cc:Work
         rdf:about="">
        <dc:format>image/svg+xml</dc:format>
        <dc:type
           rdf:resource="http://purl.org/dc/dcmitype/StillImage" />
        <dc:title></dc:title>
      </cc:Work>
    </rdf:RDF>
  </metadata>
  <g
     inkscape:label="Ebene 1"
     inkscape:groupmode="layer"
     id="layer1"
     transform="translate(0,-1036.3622)">
    <path
       style="opacity:1.0;fill:#2D2D2D;fill-opacity:1;stroke:none"
       d="M 2 1 L 2 2 L 1 2 L 1 14 L 2 14 L 2 15 L 14 15 L 14 14 L 15 14 L 15 2 L 14 2 L 14 1 L 2 1 z M 8 3 C 9.2796116 3 10.554939 3.4924 11.53125 4.46875 L 13 3 L 13 7 L 9 7 L 10.125 5.875 C 8.9534275 4.7034 7.0465728 4.7034 5.875 5.875 C 4.7034271 7.0466 4.7034271 8.9534 5.875 10.125 C 7.0465728 11.2966 8.9534275 11.2966 10.125 10.125 L 11.53125 11.53125 C 9.5786285 13.48395 6.4213716 13.48395 4.46875 11.53125 C 2.5161286 9.57865 2.5161286 6.42135 4.46875 4.46875 C 5.4450608 3.4924 6.7203884 3 8 3 z "
       transform="translate(0,1036.3622)"
       id="path4027" />
  </g>
</svg>
