<?xml version="1.0" encoding="UTF-8" standalone="no"?>
<!-- Created with Inkscape (http://www.inkscape.org/) -->

<svg
   xmlns:dc="http://purl.org/dc/elements/1.1/"
   xmlns:cc="http://creativecommons.org/ns#"
   xmlns:rdf="http://www.w3.org/1999/02/22-rdf-syntax-ns#"
   xmlns:svg="http://www.w3.org/2000/svg"
   xmlns="http://www.w3.org/2000/svg"
   xmlns:xlink="http://www.w3.org/1999/xlink"
   xmlns:sodipodi="http://sodipodi.sourceforge.net/DTD/sodipodi-0.dtd"
   xmlns:inkscape="http://www.inkscape.org/namespaces/inkscape"
   version="1.0"
   width="22"
   height="22"
   id="svg2527"
   inkscape:version="0.48.3.1 r9886"
   sodipodi:docname="bonobo-component-browser.svg">
  <metadata
     id="metadata27">
    <rdf:RDF>
      <cc:Work
         rdf:about="">
        <dc:format>image/svg+xml</dc:format>
        <dc:type
           rdf:resource="http://purl.org/dc/dcmitype/StillImage" />
        <dc:title></dc:title>
      </cc:Work>
    </rdf:RDF>
  </metadata>
  <sodipodi:namedview
     pagecolor="#ffffff"
     bordercolor="#666666"
     borderopacity="1"
     objecttolerance="10"
     gridtolerance="10"
     guidetolerance="10"
     inkscape:pageopacity="0"
     inkscape:pageshadow="2"
     inkscape:window-width="1366"
     inkscape:window-height="719"
     id="namedview25"
     showgrid="false"
     inkscape:zoom="8.3112668"
     inkscape:cx="-22.821536"
     inkscape:cy="24"
     inkscape:window-x="0"
     inkscape:window-y="27"
     inkscape:window-maximized="1"
     inkscape:current-layer="svg2527" />
  <defs
     id="defs2529">
    <linearGradient
       id="linearGradient8838">
      <stop
         id="stop8840"
         style="stop-color:black;stop-opacity:1"
         offset="0" />
      <stop
         id="stop8842"
         style="stop-color:black;stop-opacity:0"
         offset="1" />
    </linearGradient>
    <radialGradient
       cx="62.625"
       cy="4.625"
       r="10.625"
       fx="62.625"
       fy="4.625"
       id="radialGradient2436"
       xlink:href="#linearGradient8838"
       gradientUnits="userSpaceOnUse"
       gradientTransform="matrix(2.1647059,0,0,0.7529402,-111.56471,36.517647)" />
    <linearGradient
       id="linearGradient3397">
      <stop
         id="stop3399"
         style="stop-color:#aaa;stop-opacity:1"
         offset="0" />
      <stop
         id="stop3401"
         style="stop-color:#8c8c8c;stop-opacity:1"
         offset="1" />
    </linearGradient>
    <linearGradient
       x1="37.201294"
       y1="1"
       x2="37.201294"
       y2="45"
       id="linearGradient2517"
       xlink:href="#linearGradient3397"
       gradientUnits="userSpaceOnUse" />
    <linearGradient
       x1="63.9995"
       y1="3.1001"
       x2="63.9995"
       y2="122.8994"
       id="linearGradient3309"
       gradientUnits="userSpaceOnUse">
      <stop
         id="stop3311"
         style="stop-color:#f6f6f6;stop-opacity:1"
         offset="0" />
      <stop
         id="stop3313"
         style="stop-color:#d2d2d2;stop-opacity:1"
         offset="1" />
    </linearGradient>
    <linearGradient
       x1="20.758585"
       y1="1"
       x2="20.758585"
       y2="45.017357"
       id="linearGradient2515"
       xlink:href="#linearGradient3309"
       gradientUnits="userSpaceOnUse" />
    <linearGradient
       id="linearGradient5128">
      <stop
         id="stop5130"
         style="stop-color:#e5e5e5;stop-opacity:1"
         offset="0" />
      <stop
         id="stop5132"
         style="stop-color:#ababab;stop-opacity:1"
         offset="1" />
    </linearGradient>
    <linearGradient
       x1="86.132919"
       y1="105.105"
       x2="84.63858"
       y2="20.895"
       id="linearGradient2512"
       xlink:href="#linearGradient5128"
       gradientUnits="userSpaceOnUse"
       gradientTransform="matrix(0.3244803,0,0,0.3244803,3.2332655,2.5577454)" />
    <linearGradient
       inkscape:collect="always"
       xlink:href="#linearGradient5128"
       id="linearGradient3006"
       gradientUnits="userSpaceOnUse"
       gradientTransform="matrix(0.3244803,0,0,0.3244803,-61.64809,4.5916437)"
       x1="86.132919"
       y1="105.105"
       x2="84.63858"
       y2="20.895" />
  </defs>
  <path
     inkscape:connector-curvature="0"
     style="opacity:0.8;fill:#000000;fill-opacity:1;fill-rule:nonzero;stroke:#000000;stroke-width:1.50000012;stroke-linecap:butt;stroke-linejoin:round;stroke-miterlimit:4;stroke-opacity:1;stroke-dasharray:none;stroke-dashoffset:0;marker:none;visibility:visible;display:block;overflow:visible;enable-background:accumulate"
     id="rect3267"
     d="m 9.7227491,1.750002 c -0.364032,0 -0.658793,0.3019832 -0.658793,0.6722382 l 0,1.3041426 C 8.4130393,3.8998118 7.7910852,4.1617721 7.2220225,4.4927341 L 6.2943335,3.5650453 C 6.1634282,3.4341403 6.0066142,3.3648098 5.8372115,3.3633738 5.6678088,3.3619205 5.4953495,3.4228958 5.3666448,3.5516008 l -1.815044,1.8150434 c -0.2574094,0.25741 -0.248365,0.6658785 0.013445,0.927689 L 4.4927343,7.2220224 C 4.1617723,7.7910851 3.899812,8.4130388 3.7263825,9.0639549 l -1.3041425,0 c -0.370255,0 -0.6722381,0.294761 -0.6722381,0.658794 l 0,2.5545061 c 0,0.364033 0.3019831,0.658794 0.6722381,0.658794 l 1.3041425,0 c 0.1734295,0.650917 0.4353893,1.27287 0.7663518,1.841933 l -0.9276888,0.927689 c -0.26181,0.26181 -0.2708545,0.670279 -0.013445,0.927689 l 1.8150446,1.815043 c 0.2574094,0.25741 0.6658788,0.248365 0.9276888,-0.01345 l 0.9276886,-0.927688 c 0.5690627,0.330963 1.1910168,0.592923 1.8419336,0.766352 l 0,1.304142 c 0,0.370256 0.294761,0.672239 0.658793,0.672239 l 2.5545059,0 c 0.364033,0 0.658794,-0.301983 0.658794,-0.672239 l 0,-1.304142 c 0.650917,-0.173429 1.27287,-0.435389 1.841933,-0.766352 l 0.927689,0.92769 c 0.26181,0.26181 0.67028,0.270854 0.92769,0.01345 l 1.815043,-1.815043 c 0.25741,-0.25741 0.248366,-0.665879 -0.01345,-0.927689 l -0.927689,-0.927689 c 0.330963,-0.569063 0.592923,-1.191016 0.766351,-1.841933 l 1.304143,0 c 0.370255,0 0.672239,-0.294761 0.672239,-0.658794 l 0,-2.5545061 c 0,-0.364032 -0.301984,-0.658794 -0.672239,-0.658794 l -1.304143,0 C 18.100193,8.4130388 17.838233,7.7910851 17.50727,7.2220224 l 0.92769,-0.9276892 c 0.261809,-0.26181 0.270854,-0.670279 0.01345,-0.927689 L 16.633361,3.5516008 c -0.25741,-0.25741 -0.66588,-0.2483655 -0.92769,0.013445 L 14.777982,4.4927343 C 14.208919,4.1617723 13.586966,3.899812 12.936049,3.726383 l 0,-1.3041426 c 0,-0.3702555 -0.29476,-0.6722382 -0.658794,-0.6722382 l -2.5545059,0 z m 1.2772529,6.4534888 c 1.543675,0 2.796512,1.2528361 2.796512,2.7965112 0,1.543675 -1.252837,2.796512 -2.796512,2.796512 -1.5436739,0 -2.7965107,-1.252837 -2.7965107,-2.796512 0,-1.5436751 1.2528368,-2.7965112 2.7965107,-2.7965112 z" />
</svg>
