<?xml version="1.0" encoding="UTF-8" standalone="no"?>
<!-- Created with Inkscape (http://www.inkscape.org/) -->

<svg
   xmlns:dc="http://purl.org/dc/elements/1.1/"
   xmlns:cc="http://creativecommons.org/ns#"
   xmlns:rdf="http://www.w3.org/1999/02/22-rdf-syntax-ns#"
   xmlns:svg="http://www.w3.org/2000/svg"
   xmlns="http://www.w3.org/2000/svg"
   xmlns:xlink="http://www.w3.org/1999/xlink"
   xmlns:sodipodi="http://sodipodi.sourceforge.net/DTD/sodipodi-0.dtd"
   xmlns:inkscape="http://www.inkscape.org/namespaces/inkscape"
   version="1.1"
   width="22"
   height="22"
   id="svg2932"
   inkscape:version="0.48.3.1 r9886"
   sodipodi:docname="gtk-cut.svg">
  <metadata
     id="metadata38">
    <rdf:RDF>
      <cc:Work
         rdf:about="">
        <dc:format>image/svg+xml</dc:format>
        <dc:type
           rdf:resource="http://purl.org/dc/dcmitype/StillImage" />
        <dc:title></dc:title>
      </cc:Work>
    </rdf:RDF>
  </metadata>
  <sodipodi:namedview
     pagecolor="#ffffff"
     bordercolor="#666666"
     borderopacity="1"
     objecttolerance="10"
     gridtolerance="10"
     guidetolerance="10"
     inkscape:pageopacity="0"
     inkscape:pageshadow="2"
     inkscape:window-width="1280"
     inkscape:window-height="723"
     id="namedview36"
     showgrid="true"
     inkscape:zoom="13.906434"
     inkscape:cx="10.994976"
     inkscape:cy="13.646525"
     inkscape:window-x="0"
     inkscape:window-y="20"
     inkscape:window-maximized="1"
     inkscape:current-layer="svg2932">
    <inkscape:grid
       type="xygrid"
       id="grid3015"
       empspacing="5"
       visible="true"
       enabled="true"
       snapvisiblegridlinesonly="true" />
  </sodipodi:namedview>
  <defs
     id="defs2934">
    <linearGradient
       id="linearGradient3650">
      <stop
         id="stop3652"
         style="stop-color:#ffffff;stop-opacity:1"
         offset="0" />
      <stop
         id="stop3654"
         style="stop-color:#ffffff;stop-opacity:0"
         offset="1" />
    </linearGradient>
    <linearGradient
       x1="294.20959"
       y1="6.3851075"
       x2="296.40414"
       y2="9.8281822"
       id="linearGradient8576"
       xlink:href="#XMLID_897_"
       gradientUnits="userSpaceOnUse"
       gradientTransform="matrix(-2.1726626,1.0941354,1.2977992,2.7879222,663.95775,-321.12004)" />
    <linearGradient
       x1="292.97168"
       y1="4.7592773"
       x2="296.93979"
       y2="10.711433"
       id="XMLID_897_"
       gradientUnits="userSpaceOnUse">
      <stop
         id="stop45093"
         style="stop-color:#e8e8e5;stop-opacity:1"
         offset="0" />
      <stop
         id="stop45095"
         style="stop-color:#f0f0f0;stop-opacity:1"
         offset="1" />
    </linearGradient>
    <linearGradient
       x1="20.288025"
       y1="6.4603648"
       x2="24.32597"
       y2="23.942537"
       id="linearGradient8573"
       xlink:href="#linearGradient2229"
       gradientUnits="userSpaceOnUse"
       gradientTransform="matrix(0.5489611,-0.2569337,0.3150922,0.6782222,12.146674,16.190988)" />
    <linearGradient
       id="linearGradient2229">
      <stop
         id="stop2231"
         style="stop-color:#e2e2e2;stop-opacity:1"
         offset="0" />
      <stop
         id="stop2233"
         style="stop-color:#d8d8d8;stop-opacity:1"
         offset="1" />
    </linearGradient>
    <linearGradient
       x1="293.00772"
       y1="3.0185187"
       x2="296.64139"
       y2="10.289103"
       id="linearGradient8569"
       xlink:href="#XMLID_897_"
       gradientUnits="userSpaceOnUse"
       gradientTransform="matrix(2.1923888,-1.1088171,1.3883377,2.7644949,-627.96956,330.42304)" />
    <linearGradient
       x1="19.222296"
       y1="18.03648"
       x2="24.32597"
       y2="23.942537"
       id="linearGradient8566"
       xlink:href="#linearGradient2229"
       gradientUnits="userSpaceOnUse"
       gradientTransform="matrix(0.5489611,-0.2569337,0.3150922,0.6782222,12.146674,16.190988)" />
    <linearGradient
       x1="22.225399"
       y1="23.843431"
       x2="24.190449"
       y2="22.860907"
       id="linearGradient8582"
       xlink:href="#XMLID_45_"
       gradientUnits="userSpaceOnUse"
       gradientTransform="matrix(0.5379232,-0.2517676,0.3150922,0.6782222,12.456548,16.817714)" />
    <linearGradient
       x1="68.175293"
       y1="21.424805"
       x2="74.587158"
       y2="27.836672"
       id="XMLID_45_"
       gradientUnits="userSpaceOnUse">
      <stop
         id="stop695"
         style="stop-color:#babdb6;stop-opacity:1"
         offset="0" />
      <stop
         id="stop697"
         style="stop-color:#eeeeec;stop-opacity:1"
         offset="1" />
    </linearGradient>
    <linearGradient
       x1="40.127796"
       y1="26.630606"
       x2="45.948959"
       y2="38.848572"
       id="linearGradient3656"
       xlink:href="#linearGradient3650"
       gradientUnits="userSpaceOnUse" />
    <linearGradient
       x1="29.26738"
       y1="31.804976"
       x2="35.088547"
       y2="44.022942"
       id="linearGradient3658"
       xlink:href="#linearGradient3650"
       gradientUnits="userSpaceOnUse" />
  </defs>
  <path
     style="font-size:medium;font-style:normal;font-variant:normal;font-weight:normal;font-stretch:normal;text-indent:0;text-align:start;text-decoration:none;line-height:normal;letter-spacing:normal;word-spacing:normal;text-transform:none;direction:ltr;block-progression:tb;writing-mode:lr-tb;text-anchor:start;baseline-shift:baseline;opacity:0.8;color:#000000;fill:#000000;fill-opacity:1;stroke:none;stroke-width:2.45152354;marker:none;visibility:visible;display:inline;overflow:visible;enable-background:accumulate;font-family:Sans;-inkscape-font-specification:Sans"
     d="m 3.015625,2 0,4 5,5 -0.5,0.5 C 6.9136924,11.198767 6.2617131,11 5.546875,11 c -2.4677456,0 -4.5,2.032254 -4.5,4.5 0,2.467746 2.0322544,4.5 4.5,4.5 2.4677456,0 4.46875,-1.032254 4.46875,-3.5 0,-0.191613 -0.038837,-0.37698 -0.0625,-0.5625 l 0.0625,0.0625 1,-1 1,1 0.03125,-0.03125 c -0.02015,0.171475 -0.0625,0.323399 -0.0625,0.5 0,2.467746 2.032254,3.5 4.5,3.5 2.467745,0 4.46875,-2.032254 4.46875,-4.5 0,-2.467745 -2.001005,-4.46875 -4.46875,-4.46875 -0.717965,0 -1.3961,0.165046 -2,0.46875 L 14.015625,11 l 5,-5 0,-4 -1,0 -7,7 -7,-7 z m 2.53125,11.9375 c 0.8675205,0 1.53125,0.694979 1.53125,1.5625 0,0.86752 -0.6637295,1.53125 -1.53125,1.53125 -0.8675204,0 -1.5625,-0.66373 -1.5625,-1.53125 0,-0.867521 0.6949796,-1.5625 1.5625,-1.5625 z m 10.9375,0 c 0.86752,0 1.53125,0.66373 1.53125,1.53125 0,0.867521 -0.66373,1.5625 -1.53125,1.5625 -0.867521,0 -1.5625,-0.694979 -1.5625,-1.5625 0,-0.86752 0.694979,-1.53125 1.5625,-1.53125 z"
     id="path3021"
     inkscape:connector-curvature="0"
     sodipodi:nodetypes="ccccsssscccccssssccccccccssssssssss" />
</svg>
