<?xml version="1.0" encoding="UTF-8" standalone="no"?>
<!-- Created with Inkscape (http://www.inkscape.org/) -->

<svg
   xmlns:dc="http://purl.org/dc/elements/1.1/"
   xmlns:cc="http://creativecommons.org/ns#"
   xmlns:rdf="http://www.w3.org/1999/02/22-rdf-syntax-ns#"
   xmlns:svg="http://www.w3.org/2000/svg"
   xmlns="http://www.w3.org/2000/svg"
   xmlns:sodipodi="http://sodipodi.sourceforge.net/DTD/sodipodi-0.dtd"
   xmlns:inkscape="http://www.inkscape.org/namespaces/inkscape"
   width="16px"
   height="16px"
   id="svg3021"
   version="1.1"
   inkscape:version="0.48.4 r9939"
   sodipodi:docname="block-device.svg">
  <defs
     id="defs3023" />
  <sodipodi:namedview
     id="base"
     pagecolor="#ffffff"
     bordercolor="#666666"
     borderopacity="1.0"
     inkscape:pageopacity="0.0"
     inkscape:pageshadow="2"
     inkscape:zoom="44.395604"
     inkscape:cx="11.420152"
     inkscape:cy="5.7721995"
     inkscape:current-layer="layer1"
     showgrid="true"
     inkscape:grid-bbox="true"
     inkscape:document-units="px"
     inkscape:window-width="1366"
     inkscape:window-height="712"
     inkscape:window-x="0"
     inkscape:window-y="27"
     inkscape:window-maximized="1">
    <inkscape:grid
       type="xygrid"
       id="grid3029" />
  </sodipodi:namedview>
  <metadata
     id="metadata3026">
    <rdf:RDF>
      <cc:Work
         rdf:about="">
        <dc:format>image/svg+xml</dc:format>
        <dc:type
           rdf:resource="http://purl.org/dc/dcmitype/StillImage" />
        <dc:title></dc:title>
      </cc:Work>
    </rdf:RDF>
  </metadata>
  <g
     id="layer1"
     inkscape:label="Layer 1"
     inkscape:groupmode="layer">
    <path
       style="fill:#919fa9;fill-opacity:1;stroke:none"
       d="M 8.03125 2.9375 C 5.8210486 2.9375 4.03125 4.7273665 4.03125 6.9375 C 4.03125 9.1477235 5.8210486 10.9375 8.03125 10.9375 C 10.241452 10.9375 12.03125 9.1477235 12.03125 6.9375 C 12.03125 4.7273665 10.241452 2.9375 8.03125 2.9375 z M 8.03125 5.53125 C 8.8596771 5.53125 9.53125 6.2028229 9.53125 7.03125 C 9.53125 7.8596771 8.8596771 8.53125 8.03125 8.53125 C 7.2028229 8.53125 6.53125 7.8596771 6.53125 7.03125 C 6.53125 6.2028229 7.2028229 5.53125 8.03125 5.53125 z "
       id="path2985" />
    <path
       style="font-size:medium;font-style:normal;font-variant:normal;font-weight:normal;font-stretch:normal;text-indent:0;text-align:start;text-decoration:none;line-height:normal;letter-spacing:normal;word-spacing:normal;text-transform:none;direction:ltr;block-progression:tb;writing-mode:lr-tb;text-anchor:start;baseline-shift:baseline;color:#000000;fill:#919fa9;fill-opacity:1;stroke:none;stroke-width:2;marker:none;visibility:visible;display:inline;overflow:visible;enable-background:accumulate;font-family:Sans;-inkscape-font-specification:Sans"
       d="M 2.2703634,0 C 1.5646434,0 0.98911341,0.57555 0.98911341,1.28125 l 0,13.42185 c 0,0.70575 0.57552999,1.2969 1.28124999,1.2969 l 11.4592736,0 c 0.70572,0 1.28125,-0.59115 1.28125,-1.2969 l 0,-13.42185 C 15.010887,0.57555 14.435357,0 13.729637,0 z m 1.019354,2.0193539 9.4205656,0 c 0.169017,0 0.28125,0.11225 0.28125,0.28125 l 0,11.4149971 c 0,0.16905 -0.112233,0.2969 -0.28125,0.2969 l -9.4205656,0 c -0.169017,0 -0.28125,-0.12785 -0.28125,-0.2969 l 0,-11.4149971 c 0,-0.169 0.112233,-0.28125 0.28125,-0.28125 z"
       id="rect3016"
       inkscape:connector-curvature="0"
       sodipodi:nodetypes="ssssssssssssssssss" />
    <path
       style="fill:#919fa9;fill-opacity:1;stroke:none"
       d="m 9,8 1.958469,4.974246 1,0 0,-1 z"
       id="path3786"
       inkscape:connector-curvature="0"
       sodipodi:nodetypes="ccccc" />
  </g>
</svg>
