<?xml version="1.0" encoding="UTF-8" standalone="no"?>
<!-- Created with Inkscape (http://www.inkscape.org/) -->

<svg
   xmlns:dc="http://purl.org/dc/elements/1.1/"
   xmlns:cc="http://creativecommons.org/ns#"
   xmlns:rdf="http://www.w3.org/1999/02/22-rdf-syntax-ns#"
   xmlns:svg="http://www.w3.org/2000/svg"
   xmlns="http://www.w3.org/2000/svg"
   xmlns:sodipodi="http://sodipodi.sourceforge.net/DTD/sodipodi-0.dtd"
   xmlns:inkscape="http://www.inkscape.org/namespaces/inkscape"
   width="16px"
   height="16px"
   id="svg3021"
   version="1.1"
   inkscape:version="0.48.4 r9939"
   sodipodi:docname="gnome-dev-unknown-1394.svg">
  <defs
     id="defs3023" />
  <sodipodi:namedview
     id="base"
     pagecolor="#ffffff"
     bordercolor="#666666"
     borderopacity="1.0"
     inkscape:pageopacity="0.0"
     inkscape:pageshadow="2"
     inkscape:zoom="22.197802"
     inkscape:cx="13.613509"
     inkscape:cy="6.6964417"
     inkscape:current-layer="layer1"
     showgrid="true"
     inkscape:grid-bbox="true"
     inkscape:document-units="px"
     inkscape:window-width="1366"
     inkscape:window-height="712"
     inkscape:window-x="0"
     inkscape:window-y="27"
     inkscape:window-maximized="1">
    <inkscape:grid
       type="xygrid"
       id="grid3029" />
  </sodipodi:namedview>
  <metadata
     id="metadata3026">
    <rdf:RDF>
      <cc:Work
         rdf:about="">
        <dc:format>image/svg+xml</dc:format>
        <dc:type
           rdf:resource="http://purl.org/dc/dcmitype/StillImage" />
        <dc:title></dc:title>
      </cc:Work>
    </rdf:RDF>
  </metadata>
  <g
     id="layer1"
     inkscape:label="Layer 1"
     inkscape:groupmode="layer">
    <path
       style="font-size:medium;font-style:normal;font-variant:normal;font-weight:normal;font-stretch:normal;text-indent:0;text-align:start;text-decoration:none;line-height:normal;letter-spacing:normal;word-spacing:normal;text-transform:none;direction:ltr;block-progression:tb;writing-mode:lr-tb;text-anchor:start;baseline-shift:baseline;color:#000000;fill:#919fa9;fill-opacity:1;stroke:none;stroke-width:2;marker:none;visibility:visible;display:inline;overflow:visible;enable-background:accumulate;font-family:Sans;-inkscape-font-specification:Sans"
       d="M 4.34638,0 C 3.64066,0 3.06513,0.57555 3.06513,1.28125 l 0,13.40625 C 3.06513,15.39325 3.64066,16 4.34638,16 l 7.35229,0 c 0.70572,0 1.28125,-0.60675 1.28125,-1.3125 l 0,-13.40625 C 12.97992,0.57555 12.40439,0 11.69867,0 z m 1.03125,2.03125 5.32104,0 c 0.169017,0 0.28125,0.11225 0.28125,0.28125 l 0,9.375 C 10.97992,11.85655 10.867687,12 10.69867,12 L 5.37763,12 C 5.208613,12 5.09638,11.85655 5.09638,11.6875 l 0,-9.375 c 0,-0.169 0.112233,-0.28125 0.28125,-0.28125 z M 5.03388,13 l 2,0 0,1 -2,0 z m 3.9460396,0 2.0000004,0 0,1 -2.0000004,0 z"
       id="rect3016"
       inkscape:connector-curvature="0"
       sodipodi:nodetypes="sssssssssssssssssscccccccccc" />
  </g>
</svg>
