<?xml version="1.0" encoding="UTF-8" standalone="no"?>
<!-- Created with Inkscape (http://www.inkscape.org/) -->

<svg
   xmlns:dc="http://purl.org/dc/elements/1.1/"
   xmlns:cc="http://creativecommons.org/ns#"
   xmlns:rdf="http://www.w3.org/1999/02/22-rdf-syntax-ns#"
   xmlns:svg="http://www.w3.org/2000/svg"
   xmlns="http://www.w3.org/2000/svg"
   xmlns:sodipodi="http://sodipodi.sourceforge.net/DTD/sodipodi-0.dtd"
   xmlns:inkscape="http://www.inkscape.org/namespaces/inkscape"
   width="16px"
   height="16px"
   id="svg3021"
   version="1.1"
   inkscape:version="0.48.4 r9939"
   sodipodi:docname="multimedia-player-apple-ipod-touch.svg">
  <defs
     id="defs3023" />
  <sodipodi:namedview
     id="base"
     pagecolor="#ffffff"
     bordercolor="#666666"
     borderopacity="1.0"
     inkscape:pageopacity="0.0"
     inkscape:pageshadow="2"
     inkscape:zoom="31.392433"
     inkscape:cx="4.7456936"
     inkscape:cy="4.5674525"
     inkscape:current-layer="layer1"
     showgrid="true"
     inkscape:grid-bbox="true"
     inkscape:document-units="px"
     inkscape:window-width="1366"
     inkscape:window-height="712"
     inkscape:window-x="0"
     inkscape:window-y="27"
     inkscape:window-maximized="1">
    <inkscape:grid
       type="xygrid"
       id="grid3029" />
  </sodipodi:namedview>
  <metadata
     id="metadata3026">
    <rdf:RDF>
      <cc:Work
         rdf:about="">
        <dc:format>image/svg+xml</dc:format>
        <dc:type
           rdf:resource="http://purl.org/dc/dcmitype/StillImage" />
        <dc:title></dc:title>
      </cc:Work>
    </rdf:RDF>
  </metadata>
  <g
     id="layer1"
     inkscape:label="Layer 1"
     inkscape:groupmode="layer">
    <path
       style="font-size:medium;font-style:normal;font-variant:normal;font-weight:normal;font-stretch:normal;text-indent:0;text-align:start;text-decoration:none;line-height:normal;letter-spacing:normal;word-spacing:normal;text-transform:none;direction:ltr;block-progression:tb;writing-mode:lr-tb;text-anchor:start;baseline-shift:baseline;color:#000000;fill:#919fa9;fill-opacity:1;stroke:none;stroke-width:2;marker:none;visibility:visible;display:inline;overflow:visible;enable-background:accumulate;font-family:Sans;-inkscape-font-specification:Sans"
       d="M 4.34375 0 C 3.63803 0 3.0625 0.57555 3.0625 1.28125 L 3.0625 14.6875 C 3.0625 15.39325 3.63803 16 4.34375 16 L 11.6875 16 C 12.39322 16 12.96875 15.39325 12.96875 14.6875 L 12.96875 1.28125 C 12.96875 0.57555 12.39322 0 11.6875 0 L 4.34375 0 z M 7 1 L 9 1 L 9 2 L 7 2 L 7 1 z M 5.375 3.03125 L 10.6875 3.03125 C 10.856517 3.03125 10.96875 3.1435 10.96875 3.3125 L 10.96875 11.6875 C 10.96875 11.85655 10.856517 12 10.6875 12 L 5.375 12 C 5.205983 12 5.09375 11.85655 5.09375 11.6875 L 5.09375 3.3125 C 5.09375 3.1435 5.205983 3.03125 5.375 3.03125 z M 8.03125 12.5 C 8.8596771 12.5 9.53125 13.171573 9.53125 14 C 9.53125 14.828427 8.8596771 15.5 8.03125 15.5 C 7.2028229 15.5 6.53125 14.828427 6.53125 14 C 6.53125 13.171573 7.2028229 12.5 8.03125 12.5 z "
       id="rect3016" />
  </g>
</svg>
