<?xml version="1.0" encoding="UTF-8" standalone="no"?>
<!-- Created with Inkscape (http://www.inkscape.org/) -->

<svg
   xmlns:dc="http://purl.org/dc/elements/1.1/"
   xmlns:cc="http://creativecommons.org/ns#"
   xmlns:rdf="http://www.w3.org/1999/02/22-rdf-syntax-ns#"
   xmlns:svg="http://www.w3.org/2000/svg"
   xmlns="http://www.w3.org/2000/svg"
   xmlns:sodipodi="http://sodipodi.sourceforge.net/DTD/sodipodi-0.dtd"
   xmlns:inkscape="http://www.inkscape.org/namespaces/inkscape"
   width="16px"
   height="16px"
   id="svg3045"
   version="1.1"
   inkscape:version="0.48.4 r9939"
   sodipodi:docname="Neues Dokument 1">
  <defs
     id="defs3047" />
  <sodipodi:namedview
     id="base"
     pagecolor="#ffffff"
     bordercolor="#666666"
     borderopacity="1.0"
     inkscape:pageopacity="0.0"
     inkscape:pageshadow="2"
     inkscape:zoom="15.696216"
     inkscape:cx="7.728311"
     inkscape:cy="9.3759753"
     inkscape:current-layer="layer1"
     showgrid="true"
     inkscape:grid-bbox="true"
     inkscape:document-units="px"
     inkscape:window-width="1366"
     inkscape:window-height="712"
     inkscape:window-x="0"
     inkscape:window-y="27"
     inkscape:window-maximized="1">
    <inkscape:grid
       type="xygrid"
       id="grid3071" />
  </sodipodi:namedview>
  <metadata
     id="metadata3050">
    <rdf:RDF>
      <cc:Work
         rdf:about="">
        <dc:format>image/svg+xml</dc:format>
        <dc:type
           rdf:resource="http://purl.org/dc/dcmitype/StillImage" />
        <dc:title></dc:title>
      </cc:Work>
    </rdf:RDF>
  </metadata>
  <g
     id="layer1"
     inkscape:label="Layer 1"
     inkscape:groupmode="layer">
    <path
       style="fill:#919fa9;fill-opacity:1;stroke:none"
       d="M 2.0625 0 C 1.5085 0 1.0625 0.446 1.0625 1 L 1.0625 13 C 1.0625 14 2.0625 16 4.0625 16 L 12 16 C 14 16 15 14 15 13 L 15 1 C 15 0.446 14.554 0 14 0 L 2.0625 0 z M 3.0625 2 L 13 2 L 13 12 L 3.0625 12 L 3.0625 2 z M 3 13 L 4 13 L 4 14 L 3 14 L 3 13 z M 5 13 L 6 13 L 6 14 L 5 14 L 5 13 z M 7 13 L 9 13 L 9 15 L 7 15 L 7 13 z M 10 13 L 11 13 L 11 14 L 10 14 L 10 13 z M 12 13 L 13 13 L 13 14 L 12 14 L 12 13 z "
       id="rect3073" />
  </g>
</svg>
