<?xml version="1.0" encoding="UTF-8" standalone="no"?>
<!-- Created with Inkscape (http://www.inkscape.org/) -->

<svg
   xmlns:dc="http://purl.org/dc/elements/1.1/"
   xmlns:cc="http://creativecommons.org/ns#"
   xmlns:rdf="http://www.w3.org/1999/02/22-rdf-syntax-ns#"
   xmlns:svg="http://www.w3.org/2000/svg"
   xmlns="http://www.w3.org/2000/svg"
   xmlns:sodipodi="http://sodipodi.sourceforge.net/DTD/sodipodi-0.dtd"
   xmlns:inkscape="http://www.inkscape.org/namespaces/inkscape"
   id="svg3330"
   height="22"
   width="22"
   version="1.1"
   inkscape:version="0.48.4 r9939"
   sodipodi:docname="audio-input-microphone-low-zero-panel.svg">
  <defs
     id="defs12" />
  <sodipodi:namedview
     pagecolor="#ffffff"
     bordercolor="#666666"
     borderopacity="1"
     objecttolerance="10"
     gridtolerance="10"
     guidetolerance="10"
     inkscape:pageopacity="0"
     inkscape:pageshadow="2"
     inkscape:window-width="1366"
     inkscape:window-height="712"
     id="namedview10"
     showgrid="true"
     inkscape:zoom="10.727273"
     inkscape:cx="-9.1355934"
     inkscape:cy="11"
     inkscape:window-x="0"
     inkscape:window-y="27"
     inkscape:window-maximized="1"
     inkscape:current-layer="svg3330">
    <inkscape:grid
       type="xygrid"
       id="grid2989" />
  </sodipodi:namedview>
  <metadata
     id="metadata3335">
    <rdf:RDF>
      <cc:Work
         rdf:about="">
        <dc:format>image/svg+xml</dc:format>
        <dc:type
           rdf:resource="http://purl.org/dc/dcmitype/StillImage" />
        <dc:title></dc:title>
      </cc:Work>
    </rdf:RDF>
  </metadata>
  <path
     style="fill:#555555;fill-opacity:1;stroke:none"
     d="M 8,3 C 6.3431458,3 5,4.3431458 5,6 l 0,5.008911 c 0,1.656854 1.3431458,3 3,3 1.656854,0 3,-1.343146 3,-3 L 11,6 C 11,4.3431458 9.656854,3 8,3 z"
     id="path3047"
     inkscape:connector-curvature="0"
     sodipodi:nodetypes="sssssss" />
  <path
     inkscape:connector-curvature="0"
     style="fill:#555555;fill-opacity:1;stroke:none"
     d="m 2,11 c 0,2.97562 2.1585893,5.433272 5,5.90625 L 7,18 l -1,0 0,1 4,0 0,-1 -1,0 0,-1.09375 C 11.84141,16.433272 14,13.97562 14,11 l -2,0 c 0,2.209139 -1.790861,4 -4,4 -2.209139,0 -4,-1.790861 -4,-4 l -2,0 z"
     id="path3054" />
  <path
     sodipodi:type="arc"
     style="fill:#555555;fill-opacity:1;stroke:none;opacity:0.29999999999999999"
     id="path3001"
     sodipodi:cx="18"
     sodipodi:cy="4"
     sodipodi:rx="2"
     sodipodi:ry="2"
     d="m 20,4 a 2,2 0 1 1 -4,0 2,2 0 1 1 4,0 z"
     transform="translate(0,1)" />
  <path
     transform="translate(0,7)"
     sodipodi:type="arc"
     style="fill:#555555;fill-opacity:1;stroke:none;opacity:0.29999999999999999"
     id="path3001-7"
     sodipodi:cx="18"
     sodipodi:cy="4"
     sodipodi:rx="2"
     sodipodi:ry="2"
     d="m 20,4 a 2,2 0 1 1 -4,0 2,2 0 1 1 4,0 z" />
  <path
     transform="translate(0,13)"
     sodipodi:type="arc"
     style="fill:#555555;fill-opacity:1;stroke:none;opacity:0.29999999999999999"
     id="path3001-3"
     sodipodi:cx="18"
     sodipodi:cy="4"
     sodipodi:rx="2"
     sodipodi:ry="2"
     d="m 20,4 a 2,2 0 1 1 -4,0 2,2 0 1 1 4,0 z" />
</svg>
