<?xml version="1.0" encoding="UTF-8" standalone="no"?>
<!-- Created with Inkscape (http://www.inkscape.org/) -->

<svg
   xmlns:dc="http://purl.org/dc/elements/1.1/"
   xmlns:cc="http://creativecommons.org/ns#"
   xmlns:rdf="http://www.w3.org/1999/02/22-rdf-syntax-ns#"
   xmlns:svg="http://www.w3.org/2000/svg"
   xmlns="http://www.w3.org/2000/svg"
   xmlns:sodipodi="http://sodipodi.sourceforge.net/DTD/sodipodi-0.dtd"
   xmlns:inkscape="http://www.inkscape.org/namespaces/inkscape"
   id="svg3196"
   height="22"
   width="22"
   version="1.0"
   inkscape:version="0.48.3.1 r9886"
   sodipodi:docname="gpm-mouse-080.svg">
  <metadata
     id="metadata10">
    <rdf:RDF>
      <cc:Work
         rdf:about="">
        <dc:format>image/svg+xml</dc:format>
        <dc:type
           rdf:resource="http://purl.org/dc/dcmitype/StillImage" />
        <dc:title></dc:title>
      </cc:Work>
    </rdf:RDF>
  </metadata>
  <defs
     id="defs8" />
  <sodipodi:namedview
     pagecolor="#ffffff"
     bordercolor="#666666"
     borderopacity="1"
     objecttolerance="10"
     gridtolerance="10"
     guidetolerance="10"
     inkscape:pageopacity="0"
     inkscape:pageshadow="2"
     inkscape:window-width="1366"
     inkscape:window-height="709"
     id="namedview6"
     showgrid="true"
     inkscape:zoom="20.85965"
     inkscape:cx="15.762083"
     inkscape:cy="11.329364"
     inkscape:window-x="0"
     inkscape:window-y="27"
     inkscape:window-maximized="1"
     inkscape:current-layer="svg3196">
    <inkscape:grid
       type="xygrid"
       id="grid2987"
       empspacing="5"
       visible="true"
       enabled="true"
       snapvisiblegridlinesonly="true" />
  </sodipodi:namedview>
  <path
     style="font-size:medium;font-style:normal;font-variant:normal;font-weight:normal;font-stretch:normal;text-indent:0;text-align:start;text-decoration:none;line-height:normal;letter-spacing:normal;word-spacing:normal;text-transform:none;direction:ltr;block-progression:tb;writing-mode:lr-tb;text-anchor:start;baseline-shift:baseline;opacity:0.8;color:#000000;fill:#000000;fill-opacity:1;stroke:none;stroke-width:1;marker:none;visibility:visible;display:inline;overflow:visible;enable-background:accumulate;font-family:Sans;-inkscape-font-specification:Sans"
     d="m 13,3 0,2 -1.5,0 -0.5,0 0,0.5 0,13 0,0.5 0.5,0 7,0 0.5,0 0,-0.5 0,-13 0,-0.5 -0.5,0 -1.5,0 0,-2 -1.5,0 -1,0 z m 1,1 2,0 0,1 -2,0 z m -2,2 6,0 0,12 -6,0 z"
     id="rect2388"
     inkscape:connector-curvature="0"
     sodipodi:nodetypes="ccccccccccccccccccccccccccccc" />
  <path
     style="font-size:medium;font-style:normal;font-variant:normal;font-weight:normal;font-stretch:normal;text-indent:0;text-align:start;text-decoration:none;line-height:normal;letter-spacing:normal;word-spacing:normal;text-transform:none;direction:ltr;block-progression:tb;writing-mode:lr-tb;text-anchor:start;baseline-shift:baseline;opacity:0.8;color:#000000;fill:#000000;fill-opacity:1;stroke:none;stroke-width:1.08098745;marker:none;visibility:visible;display:inline;overflow:visible;enable-background:accumulate;font-family:Sans;-inkscape-font-specification:Sans"
     d="M 5.46875,9.010513 C 4.1138521,9.010513 3,10.124365 3,11.479263 L 3,16.53125 C 3,17.886148 4.1138521,19 5.46875,19 l 2.0625,0 C 8.8861479,19 10,17.886148 10,16.53125 l 0,-5.051987 C 10,10.124365 8.8861479,9.010513 7.53125,9.010513 z m 0,1.09375 0.53125,0 0,1.90625 -1.90625,0 0,-0.53125 c 0,-0.774729 0.600271,-1.375 1.375,-1.375 z m 1.53125,0 0.53125,0 c 0.774729,0 1.375,0.600271 1.375,1.375 l 0,0.53125 -1.90625,0 z m -2.90625,2.90625 4.8125,0 0,3.520737 c 0,0.774729 -0.600271,1.375 -1.375,1.375 l -2.0625,0 c -0.774729,0 -1.375,-0.600271 -1.375,-1.375 z"
     id="rect4155"
     inkscape:connector-curvature="0"
     sodipodi:nodetypes="sssssssssscccsscsscccccssssc" />
  <path
     style="opacity:0.3;fill:#000000;fill-opacity:1;stroke:none"
     d="m 13,17 0,-7.944491 4,0 L 17,17 z"
     id="path4214"
     inkscape:connector-curvature="0" />
</svg>
