<?xml version="1.0" encoding="UTF-8" standalone="no"?>
<!-- Created with Inkscape (http://www.inkscape.org/) -->

<svg
   xmlns:dc="http://purl.org/dc/elements/1.1/"
   xmlns:cc="http://creativecommons.org/ns#"
   xmlns:rdf="http://www.w3.org/1999/02/22-rdf-syntax-ns#"
   xmlns:svg="http://www.w3.org/2000/svg"
   xmlns="http://www.w3.org/2000/svg"
   xmlns:sodipodi="http://sodipodi.sourceforge.net/DTD/sodipodi-0.dtd"
   xmlns:inkscape="http://www.inkscape.org/namespaces/inkscape"
   width="22"
   height="22"
   id="svg2"
   version="1.1"
   inkscape:version="0.48.3.1 r9886"
   sodipodi:docname="nm-signal-75-secure.svg">
  <defs
     id="defs4" />
  <sodipodi:namedview
     id="base"
     pagecolor="#ffffff"
     bordercolor="#666666"
     borderopacity="1.0"
     inkscape:pageopacity="0.0"
     inkscape:pageshadow="2"
     inkscape:zoom="15.839192"
     inkscape:cx="18.949826"
     inkscape:cy="9.3243963"
     inkscape:document-units="px"
     inkscape:current-layer="layer1"
     showgrid="true"
     inkscape:window-width="1366"
     inkscape:window-height="709"
     inkscape:window-x="0"
     inkscape:window-y="27"
     inkscape:window-maximized="1"
     showguides="true"
     inkscape:guide-bbox="true">
    <inkscape:grid
       type="xygrid"
       id="grid2985"
       empspacing="5"
       visible="true"
       enabled="true"
       snapvisiblegridlinesonly="true" />
    <sodipodi:guide
       orientation="-0.86824314,-0.49613894"
       position="12,6"
       id="guide3814" />
    <sodipodi:guide
       orientation="-0.86824314,0.49613894"
       position="12,6"
       id="guide3816" />
  </sodipodi:namedview>
  <metadata
     id="metadata7">
    <rdf:RDF>
      <cc:Work
         rdf:about="">
        <dc:format>image/svg+xml</dc:format>
        <dc:type
           rdf:resource="http://purl.org/dc/dcmitype/StillImage" />
        <dc:title></dc:title>
      </cc:Work>
    </rdf:RDF>
  </metadata>
  <g
     inkscape:label="Ebene 1"
     inkscape:groupmode="layer"
     id="layer1"
     transform="translate(0,-1030.3622)">
    <path
       sodipodi:type="arc"
       style="opacity:0.8;fill:#000000;fill-opacity:1;stroke:none"
       id="path3812"
       sodipodi:cx="12"
       sodipodi:cy="18"
       sodipodi:rx="2"
       sodipodi:ry="2"
       d="m 14,18 a 2,2 0 1 1 -4,0 2,2 0 1 1 4,0 z"
       transform="translate(-1,1029.3622)" />
    <path
       style="opacity:0.8;fill:#000000;fill-opacity:1;stroke:none"
       d="m 11,1041.3622 c -2,0 -3,1 -3,1 l 0,3 c 0.7866124,-1.1799 3.421175,-1.4264 5,-0.75 l 0,-0.25 1,0 0,-2 c 0,0 -1,-1 -3,-1 z"
       id="path3818"
       inkscape:connector-curvature="0" />
    <path
       style="opacity:0.8;fill:#000000;fill-opacity:1;stroke:none"
       d="m 7,1041.3622 c 0,0 1,-1 4,-1 3,0 4,1 4,1 l 1,0 0,-2 c 0,0 -1,-2 -5,-2 -4,0 -5,2 -5,2 l 0,2 z"
       id="path3820"
       inkscape:connector-curvature="0"
       sodipodi:nodetypes="cscccsccc" />
    <path
       style="opacity:0.2;fill:#000000;fill-opacity:1;stroke:none"
       d="m 5,1038.3622 c 0,0 1,-2 6,-2 5,0 6,2 6,2 l 1,0 0,-3 c 0,0 -2,-2 -7,-2 -5,0 -7,2 -7,2 l 0,3 z"
       id="path3822"
       inkscape:connector-curvature="0"
       sodipodi:nodetypes="cscccsccc" />
    <path
       inkscape:connector-curvature="0"
       style="opacity:0.8;fill:#000000;fill-opacity:1;stroke:none"
       d="m 15,1043.3622 0,1.9375 -1,0 0,4.0625 5,0 0,-4.0625 -1,0 0,-1.9375 -3,0 z m 1,1 1,0 0,0.9375 -1,0 0,-0.9375 z"
       id="path3835" />
  </g>
</svg>
