<?xml version="1.0" encoding="UTF-8" standalone="no"?>
<!-- Created with Inkscape (http://www.inkscape.org/) -->
<svg id="svg3229" xmlns:rdf="http://www.w3.org/1999/02/22-rdf-syntax-ns#" xmlns="http://www.w3.org/2000/svg" height="22" width="22" version="1.0" xmlns:cc="http://creativecommons.org/ns#" xmlns:dc="http://purl.org/dc/elements/1.1/">
 <metadata id="metadata9">
  <rdf:RDF>
   <cc:Work rdf:about="">
    <dc:format>image/svg+xml</dc:format>
    <dc:type rdf:resource="http://purl.org/dc/dcmitype/StillImage"/>
    <dc:title/>
   </cc:Work>
  </rdf:RDF>
 </metadata>
 <g id="g2992" transform="translate(-1,-1)">
  <path id="rect3001-8" d="m8 5c-0.554 0-1 0.446-1 1v2h-2c-0.4155 0-1 0.5845-1 1v5c0 0.4155 0.5845 1 1 1h2v4c0 0.554 0.446 1 1 1h8c0.554 0 1-0.446 1-1v-4h2c0.4155 0 1-0.5845 1-1v-5c0-0.4155-0.584-1-1-1h-2v-2c0-0.554-0.446-1-1-1zm0.75 1h6.5c0.416 0 0.75 0.3345 0.75 0.75v2.25h-8v-2.25c0-0.4155 0.3345-0.75 0.75-0.75zm4.25 4h1v1h-1zm2 0h1v1h-1zm2 0h1v1h-1zm-9 3h8v6h-8zm1 2v1h6v-1zm0 2v1h4v-1z" style="fill:#3c3c3c"/>
 </g>
</svg>
