<?xml version="1.0" encoding="UTF-8" standalone="no"?>
<!-- Created with Inkscape (http://www.inkscape.org/) -->

<svg
   xmlns:dc="http://purl.org/dc/elements/1.1/"
   xmlns:cc="http://creativecommons.org/ns#"
   xmlns:rdf="http://www.w3.org/1999/02/22-rdf-syntax-ns#"
   xmlns:svg="http://www.w3.org/2000/svg"
   xmlns="http://www.w3.org/2000/svg"
   xmlns:sodipodi="http://sodipodi.sourceforge.net/DTD/sodipodi-0.dtd"
   xmlns:inkscape="http://www.inkscape.org/namespaces/inkscape"
   version="1.0"
   width="22"
   height="22"
   id="svg3196"
   inkscape:version="0.48.3.1 r9886"
   sodipodi:docname="rhythmbox-panel.svg">
  <metadata
     id="metadata10">
    <rdf:RDF>
      <cc:Work
         rdf:about="">
        <dc:format>image/svg+xml</dc:format>
        <dc:type
           rdf:resource="http://purl.org/dc/dcmitype/StillImage" />
        <dc:title></dc:title>
      </cc:Work>
    </rdf:RDF>
  </metadata>
  <sodipodi:namedview
     pagecolor="#ffffff"
     bordercolor="#666666"
     borderopacity="1"
     objecttolerance="10"
     gridtolerance="10"
     guidetolerance="10"
     inkscape:pageopacity="0"
     inkscape:pageshadow="2"
     inkscape:window-width="1366"
     inkscape:window-height="709"
     id="namedview8"
     showgrid="true"
     inkscape:zoom="9.8333334"
     inkscape:cx="8.5096255"
     inkscape:cy="3.3664225"
     inkscape:window-x="0"
     inkscape:window-y="27"
     inkscape:window-maximized="1"
     inkscape:current-layer="svg3196">
    <inkscape:grid
       type="xygrid"
       id="grid2987"
       empspacing="5"
       visible="true"
       enabled="true"
       snapvisiblegridlinesonly="true" />
  </sodipodi:namedview>
  <defs
     id="defs3198" />
  <path
     style="opacity:0.8;fill:#000000;fill-opacity:1;stroke:none"
     d="m 6,3 0,1 -1,0 0,13 1,0 0,1 7,0 0,-2.5 0,-1.5 0,-1.34375 C 12.44835,12.871578 11.800935,13 11,13 8.2385763,13 7,11.761424 7,9 7,6.2385763 8.2385763,5 11,5 c 2.761424,0 4,1.2385763 4,4 0,1.229365 -0.265205,2.130448 -0.78125,2.78125 L 17,13.53125 17,4 16,4 16,3 6,3 z"
     id="rect2989"
     inkscape:connector-curvature="0" />
  <path
     sodipodi:type="arc"
     style="opacity:0.8;fill:#000000;fill-opacity:1;stroke:none"
     id="path2999"
     sodipodi:cx="12"
     sodipodi:cy="10"
     sodipodi:rx="2"
     sodipodi:ry="2"
     d="m 14,10 a 2,2 0 1 1 -4,0 2,2 0 1 1 4,0 z"
     transform="translate(-1,-1)" />
  <path
     style="opacity:0.8;fill:#000000;fill-opacity:1;stroke:none"
     d="m 14,19 0,-6 5,3 z"
     id="path3024"
     inkscape:connector-curvature="0" />
</svg>
