<?xml version="1.0" encoding="UTF-8" standalone="no"?>
<!-- Created with Inkscape (http://www.inkscape.org/) -->

<svg
   xmlns:dc="http://purl.org/dc/elements/1.1/"
   xmlns:cc="http://creativecommons.org/ns#"
   xmlns:rdf="http://www.w3.org/1999/02/22-rdf-syntax-ns#"
   xmlns:svg="http://www.w3.org/2000/svg"
   xmlns="http://www.w3.org/2000/svg"
   xmlns:sodipodi="http://sodipodi.sourceforge.net/DTD/sodipodi-0.dtd"
   xmlns:inkscape="http://www.inkscape.org/namespaces/inkscape"
   id="svg2"
   height="16"
   width="16"
   version="1.0"
   inkscape:version="0.48.4 r9939"
   sodipodi:docname="audio-volume-high.svg">
  <metadata
     id="metadata11">
    <rdf:RDF>
      <cc:Work
         rdf:about="">
        <dc:format>image/svg+xml</dc:format>
        <dc:type
           rdf:resource="http://purl.org/dc/dcmitype/StillImage" />
        <dc:title />
      </cc:Work>
    </rdf:RDF>
  </metadata>
  <defs
     id="defs9" />
  <sodipodi:namedview
     pagecolor="#ffffff"
     bordercolor="#666666"
     borderopacity="1"
     objecttolerance="10"
     gridtolerance="10"
     guidetolerance="10"
     inkscape:pageopacity="0"
     inkscape:pageshadow="2"
     inkscape:window-width="1366"
     inkscape:window-height="712"
     id="namedview7"
     showgrid="true"
     inkscape:zoom="13.906433"
     inkscape:cx="-4.5805539"
     inkscape:cy="10.153283"
     inkscape:window-x="0"
     inkscape:window-y="27"
     inkscape:window-maximized="1"
     inkscape:current-layer="svg2">
    <inkscape:grid
       type="xygrid"
       id="grid2988"
       empspacing="5"
       visible="true"
       enabled="true"
       snapvisiblegridlinesonly="true" />
  </sodipodi:namedview>
  <path
     style="font-size:medium;font-style:normal;font-variant:normal;font-weight:normal;font-stretch:normal;text-indent:0;text-align:start;text-decoration:none;line-height:normal;letter-spacing:normal;word-spacing:normal;text-transform:none;direction:ltr;block-progression:tb;writing-mode:lr-tb;text-anchor:start;baseline-shift:baseline;color:#000000;fill:#555555;fill-opacity:1;stroke:none;stroke-width:2;marker:none;visibility:visible;display:inline;overflow:visible;enable-background:accumulate;font-family:Sans;-inkscape-font-specification:Sans"
     d="M 14.78125 0.96875 A 1.0001 1.0001 0 0 0 14.78125 1 A 1.0001 1.0001 0 0 0 14 2 L 14 14 A 1.0001 1.0001 0 1 0 16 14 L 16 2 A 1.0001 1.0001 0 0 0 14.78125 0.96875 z M 5.875 2 C 5.653153 2.024 5.440345 2.12479 5.28125 2.28125 L 2.5625 5 L 1 5 C 0.476416 5.00005 5.2e-05 5.47642 0 6 L 0 10 C 5.2e-05 10.52358 0.476416 10.99995 1 11 L 2.5625 11 L 5.28125 13.71875 C 5.836616 14.29305 7.018788 13.79868 7 13 L 7 3 C 7.0044 2.43204 6.438532 1.92905 5.875 2 z M 11.78125 2.96875 A 1.0001 1.0001 0 0 0 11.78125 3 A 1.0001 1.0001 0 0 0 11 4 L 11 12 A 1.0001 1.0001 0 1 0 13 12 L 13 4 A 1.0001 1.0001 0 0 0 11.78125 2.96875 z M 8.78125 4.96875 A 1.0001 1.0001 0 0 0 8.78125 5 A 1.0001 1.0001 0 0 0 8 6 L 8 10 A 1.0001 1.0001 0 1 0 10 10 L 10 6 A 1.0001 1.0001 0 0 0 8.78125 4.96875 z "
     id="path10471" />
</svg>
