<?xml version="1.0" encoding="utf-8"?>
<!-- Generator: Adobe Illustrator 15.0.0, SVG Export Plug-In . SVG Version: 6.00 Build 0)  -->
<!DOCTYPE svg PUBLIC "-//W3C//DTD SVG 1.1//EN" "http://www.w3.org/Graphics/SVG/1.1/DTD/svg11.dtd">
<svg version="1.1" id="Layer_1" xmlns="http://www.w3.org/2000/svg" xmlns:xlink="http://www.w3.org/1999/xlink" x="0px" y="0px"
	 width="16px" height="16px" viewBox="0 0 16 16" enable-background="new 0 0 16 16" xml:space="preserve">
<path id="path3" inkscape:connector-curvature="0" opacity="0.3" fill="#FFFFFF" enable-background="new    " d="M15,15
	c-0.368-0.822-0.818-1.74-1.354-2.746c-0.535-1.012-1.121-2.049-1.756-3.113c-0.638-1.064-1.289-2.121-1.957-3.17
	C9.264,4.926,8.609,3.936,7.975,3C7.341,3.936,6.687,4.936,6.019,6c-0.67,1.064-1.313,2.131-1.933,3.195
	c-0.62,1.062-1.195,2.104-1.731,3.113C1.819,13.316,1.368,14.214,1,14.999L15,15L15,15z"/>
<linearGradient id="path10_1_" gradientUnits="userSpaceOnUse" x1="825" y1="628" x2="825" y2="616.001" gradientTransform="matrix(1 0 0 1 -817 -614)">
	<stop  offset="0" style="stop-color:#D6952B"/>
	<stop  offset="1" style="stop-color:#F9D508"/>
</linearGradient>
<path id="path10_9_" inkscape:connector-curvature="0" fill="url(#path10_1_)" d="M15,14c-0.368-0.822-0.818-1.74-1.354-2.746
	c-0.535-1.012-1.121-2.049-1.756-3.113c-0.638-1.064-1.289-2.121-1.957-3.17C9.264,3.926,8.609,2.936,7.975,2
	C7.341,2.936,6.687,3.936,6.019,5c-0.67,1.064-1.313,2.131-1.933,3.195c-0.62,1.062-1.195,2.104-1.731,3.113
	C1.819,12.316,1.368,13.214,1,13.999L15,14L15,14z"/>
<radialGradient id="circle17_2_" cx="825" cy="617" r="7" gradientTransform="matrix(1 0 0 1 -817 -614)" gradientUnits="userSpaceOnUse">
	<stop  offset="0" style="stop-color:#FFFFFF"/>
	<stop  offset="1" style="stop-color:#FFFFFF;stop-opacity:0"/>
</radialGradient>
<path id="circle17_1_" inkscape:connector-curvature="0" fill="url(#circle17_2_)" d="M7.969,2c-0.634,0.936-1.27,1.936-1.938,3
	c-0.67,1.064-1.317,2.123-1.938,3.188c-0.087,0.15-0.165,0.289-0.25,0.438C5.009,9.49,6.438,10,8,10c1.562,0,2.991-0.51,4.156-1.375
	c-0.096-0.162-0.184-0.307-0.281-0.469c-0.636-1.066-1.27-2.139-1.938-3.188C9.27,3.924,8.604,2.936,7.969,2z"/>
</svg>
