<?xml version="1.0" encoding="UTF-8" standalone="no"?>
<!-- Created with Inkscape (http://www.inkscape.org/) -->

<svg
   xmlns:dc="http://purl.org/dc/elements/1.1/"
   xmlns:cc="http://creativecommons.org/ns#"
   xmlns:rdf="http://www.w3.org/1999/02/22-rdf-syntax-ns#"
   xmlns:svg="http://www.w3.org/2000/svg"
   xmlns="http://www.w3.org/2000/svg"
   xmlns:sodipodi="http://sodipodi.sourceforge.net/DTD/sodipodi-0.dtd"
   xmlns:inkscape="http://www.inkscape.org/namespaces/inkscape"
   id="svg4585"
   height="16"
   width="16"
   version="1.0"
   inkscape:version="0.48.3.1 r9886"
   sodipodi:docname="gsm-3g-full-secure.svg">
  <metadata
     id="metadata13">
    <rdf:RDF>
      <cc:Work
         rdf:about="">
        <dc:format>image/svg+xml</dc:format>
        <dc:type
           rdf:resource="http://purl.org/dc/dcmitype/StillImage" />
        <dc:title></dc:title>
      </cc:Work>
    </rdf:RDF>
  </metadata>
  <defs
     id="defs11" />
  <sodipodi:namedview
     pagecolor="#ffffff"
     bordercolor="#666666"
     borderopacity="1"
     objecttolerance="10"
     gridtolerance="10"
     guidetolerance="10"
     inkscape:pageopacity="0"
     inkscape:pageshadow="2"
     inkscape:window-width="1366"
     inkscape:window-height="709"
     id="namedview9"
     showgrid="true"
     inkscape:zoom="16"
     inkscape:cx="13.020485"
     inkscape:cy="9.7476718"
     inkscape:window-x="0"
     inkscape:window-y="27"
     inkscape:window-maximized="1"
     inkscape:current-layer="svg4585">
    <inkscape:grid
       type="xygrid"
       id="grid2990"
       empspacing="5"
       visible="true"
       enabled="true"
       snapvisiblegridlinesonly="true" />
  </sodipodi:namedview>
  <path
     style="opacity:0.8;fill:#000000;fill-opacity:1;stroke:none"
     d="m 13,1 0,8 3,0 0,-8 -3,0 z"
     id="path3004"
     inkscape:connector-curvature="0" />
  <path
     style="opacity:0.8;fill:#000000;fill-opacity:1;stroke:none"
     d="m 9,4 0,12 1,0 0,-5 1,0 0,-2 1,0 0,-5 -3,0 z"
     id="path3774"
     inkscape:connector-curvature="0" />
  <path
     style="opacity:0.8;fill:#000000;fill-opacity:1;stroke:none"
     d="M 8,16 5,16 5,7 8,7 z"
     id="path3776"
     inkscape:connector-curvature="0" />
  <path
     style="opacity:0.8;fill:#000000;fill-opacity:1;stroke:none"
     d="m 4,16 -3,0 0,-5.97833 3,0 z"
     id="path3776-4"
     inkscape:connector-curvature="0" />
  <path
     inkscape:connector-curvature="0"
     style="opacity:0.8;fill:#000000;fill-opacity:1;stroke:none"
     d="m 12,10 0,1.9375 -1,0 0,4.0625 5,0 0,-4.0625 -1,0 L 15,10 12,10 z m 1,1 1,0 0,0.9375 -1,0 L 13,11 z"
     id="path3835" />
</svg>
