<?xml version="1.0" encoding="UTF-8" standalone="no"?>
<!-- Created with Inkscape (http://www.inkscape.org/) -->

<svg
   xmlns:dc="http://purl.org/dc/elements/1.1/"
   xmlns:cc="http://creativecommons.org/ns#"
   xmlns:rdf="http://www.w3.org/1999/02/22-rdf-syntax-ns#"
   xmlns:svg="http://www.w3.org/2000/svg"
   xmlns="http://www.w3.org/2000/svg"
   xmlns:sodipodi="http://sodipodi.sourceforge.net/DTD/sodipodi-0.dtd"
   xmlns:inkscape="http://www.inkscape.org/namespaces/inkscape"
   id="svg3745"
   height="16"
   width="16"
   version="1.1"
   inkscape:version="0.48.3.1 r9886"
   sodipodi:docname="nm-device-wired-secure.svg">
  <metadata
     id="metadata10">
    <rdf:RDF>
      <cc:Work
         rdf:about="">
        <dc:format>image/svg+xml</dc:format>
        <dc:type
           rdf:resource="http://purl.org/dc/dcmitype/StillImage" />
        <dc:title></dc:title>
      </cc:Work>
    </rdf:RDF>
  </metadata>
  <defs
     id="defs8" />
  <sodipodi:namedview
     pagecolor="#ffffff"
     bordercolor="#666666"
     borderopacity="1"
     objecttolerance="10"
     gridtolerance="10"
     guidetolerance="10"
     inkscape:pageopacity="0"
     inkscape:pageshadow="2"
     inkscape:window-width="1366"
     inkscape:window-height="709"
     id="namedview6"
     showgrid="true"
     inkscape:zoom="13.906434"
     inkscape:cx="3.1732741"
     inkscape:cy="10.765504"
     inkscape:window-x="0"
     inkscape:window-y="27"
     inkscape:window-maximized="1"
     inkscape:current-layer="svg3745">
    <inkscape:grid
       type="xygrid"
       id="grid2987"
       empspacing="5"
       visible="true"
       enabled="true"
       snapvisiblegridlinesonly="true" />
  </sodipodi:namedview>
  <path
     style="opacity:0.8;fill:#000000;fill-opacity:1;stroke:none"
     d="m 2,3 0,8 2,0 0,2 2,0 0,1 4,0 0,-1 0,-2 1,0 0,-2 3,0 0,-6 -12,0 z m 2,1 8,0 0,2 -8,0 0,-2 z"
     id="path2989"
     inkscape:connector-curvature="0" />
  <path
     style="opacity:0.8;fill:#000000;fill-opacity:1;stroke:none"
     d="M 0,0 0,16 10,16 10,15 1,15 1,1 15,1 15,9 16,9 16,0 0,0 z"
     id="rect3814"
     inkscape:connector-curvature="0" />
  <path
     inkscape:connector-curvature="0"
     style="opacity:0.8;fill:#000000;fill-opacity:1;stroke:none"
     d="m 12,10 0,1.9375 -1,0 0,4.0625 5,0 0,-4.0625 -1,0 L 15,10 12,10 z m 1,1 1,0 0,0.9375 -1,0 L 13,11 z"
     id="path3835" />
</svg>
