<?xml version="1.0" encoding="UTF-8" standalone="no"?>
<!-- Generator: Adobe Illustrator 15.0.0, SVG Export Plug-In . SVG Version: 6.00 Build 0)  -->
<svg id="Layer_1" xmlns:rdf="http://www.w3.org/1999/02/22-rdf-syntax-ns#" xmlns="http://www.w3.org/2000/svg" enable-background="new 0 0 16 16" xml:space="preserve" height="16px" viewBox="0 0 16 16" width="16px" version="1.1" y="0px" x="0px" xmlns:cc="http://creativecommons.org/ns#" xmlns:xlink="http://www.w3.org/1999/xlink" xmlns:dc="http://purl.org/dc/elements/1.1/"><metadata id="metadata3269"><rdf:RDF><cc:Work rdf:about=""><dc:format>image/svg+xml</dc:format><dc:type rdf:resource="http://purl.org/dc/dcmitype/StillImage"/><dc:title/></cc:Work></rdf:RDF></metadata>
<path id="path3_1_" style="opacity:.3;fill:#fff" d="m4.6562 4c-0.922 0-1.6562 0.7352-1.6562 1.6562v6.6878c0 0.92 0.7342 1.656 1.6562 1.656h6.6878c0.922 0 1.656-0.736 1.656-1.656v-6.6878c0-0.921-0.734-1.6562-1.656-1.6562h-6.6878z"/>
<linearGradient id="path10_1_" y2="617" gradientUnits="userSpaceOnUse" x2="825" gradientTransform="translate(-817,-614)" y1="627" x1="825">
	<stop id="stop3254" style="stop-color:#413f3b" offset="0"/>
	<stop id="stop3256" style="stop-color:#58564d" offset="1"/>
</linearGradient>
<radialGradient id="circle17_1_" gradientUnits="userSpaceOnUse" cy="617" cx="825" gradientTransform="translate(-817,-614)" r="7">
	<stop id="stop3260" style="stop-color:#fff" offset="0"/>
	<stop id="stop3262" style="stop-color:#fff;stop-opacity:0" offset="1"/>
</radialGradient>
<path id="rect4321" style="fill:#ede8e5" d="m4.6562 3c-0.922 0-1.6562 0.7352-1.6562 1.6562v6.6875c0 0.92 0.7342 1.656 1.6562 1.656h6.6875c0.922 0 1.656-0.736 1.656-1.656v-6.6875c0-0.9213-0.734-1.6565-1.656-1.6565h-6.6875z"/><path id="path10_10_" style="fill:url(#path10_1_)" d="m4.6562 3c-0.922 0-1.6562 0.7352-1.6562 1.6562v6.6875c0 0.92 0.7342 1.656 1.6562 1.656h6.6875c0.922 0 1.656-0.736 1.656-1.656v-6.6875c0-0.9213-0.734-1.6565-1.656-1.6565h-6.6878zm0.3438 2h6v6h-6v-6z"/><path id="circle17_2_" style="fill:url(#circle17_1_)" d="m4.6562 3c-0.922 0-1.6562 0.7342-1.6562 1.6562v3.2188c0.572 0.5864 1.2549 1.077 2 1.4375v-4.3125h6v4.3125c0.745-0.3605 1.428-0.8511 2-1.4375v-3.2188c0-0.922-0.734-1.6562-1.656-1.6562h-6.6878z"/></svg>
